<?xml version="1.0" encoding="utf-8"?>
<!-- Generator: Adobe Illustrator 23.0.0, SVG Export Plug-In . SVG Version: 6.00 Build 0)  -->
<svg version="1.1" id="Capa_1" xmlns="http://www.w3.org/2000/svg" xmlns:xlink="http://www.w3.org/1999/xlink" x="0px" y="0px"
	 viewBox="0 0 68.8 63.1" style="enable-background:new 0 0 68.8 63.1;" xml:space="preserve">
<style type="text/css">
	.st0{fill:#FFFFFF;}
	.st1{fill:#155F86;}
</style>
<ellipse class="st0" cx="36.5" cy="15" rx="6.5" ry="4.7"/>
<polygon class="st0" points="31,14.9 28.2,19.5 23.1,25 22.8,29.9 29.6,33.3 35.6,36.3 41.2,35.1 46.4,27.9 45.5,19.5 40.1,14.6 "/>
<g>
	<g>
		<path class="st1" d="M32.6,42.6c0-1.6,0-3.1,0-4.7c0-0.9,0.1-2-0.9-2.5c-0.9-0.4-1.5,0.5-2.1,1c-0.9,0.8-1.8,1.7-2.8,2.3
			c-2.3,1.4-2.9,3.4-2.6,5.9c0.1,1.2,0,2.3-0.6,3.5c0-1.7,0-3.5,0-5.2c0-1.5-0.1-2.8-1.9-3.3c-1.3-0.3-1-1.1-0.2-1.9c1-1,2-2,3-2.9
			c1.1-1,1-1.8-0.3-2.5c-1.9-1-3.1-3.1-5.7-3.2c-2-0.1-2.7,0.3-2.7,2.3c0.1,3,0,6,0,8.9c0,0.9,0.3,1.8-0.5,2.6
			c-0.8-0.4-0.5-1.1-0.5-1.7c0-4-0.1-8,0-12c0-2.9,1.8-4.6,4.6-4.2c1.5,0.2,2.5,0,3.2-1.4c0.8-1.4,2.2-2.3,3.4-3.3
			c2.5-2.1,4.5-4.5,3.4-8.2c-0.2-0.6-0.5-1.7,0.6-1.8c1-0.1,0.8,1,1,1.7c0.8,3.3-0.2,5.9-2.8,8.1c-2.9,2.4-5.1,5.4-4.5,9.8
			c1.7-1.1,1.2-3.2,2.5-4.4c0.7,1.5-0.7,2.7-0.1,4.2c1.5-1.2,2.1-3.1,4.1-4.1c-0.4,2.4-2.4,3.6-2.7,6c2.6-0.7,3.5-3.4,5.9-4.3
			c0.4,1.8-0.2,3.3-0.4,4.8c-0.2,1.9,1.1,2.9,2.4,3.8c1.3,0.8,2.2-0.3,3.1-1.1c1.1-1,1.4-1.8,0-2.9c-1.1-0.8-1-2.2-0.5-3.3
			c0.5-1.1,1.6-1,2.7-0.9c0.2,0,0.4,0.1,0.5,0.1c1.4,0.1,3.4,1.3,4.2,0.1c0.9-1.5,0.2-3.6-0.5-5.3c-0.4-1-1.1-2-1.9-2.8
			c-2.4-2.5-2-5.7-1.9-8.7c0-0.6,0.2-1.2,0.9-1.2c0.9,0,1,0.7,1.1,1.3s0.1,1.3,0.1,2c-0.1,2.3,0.1,4.2,3.4,3.8
			c1.7-0.2,3.1,0.7,2.8,3.1c-0.3,2.3-0.1,4.7-0.1,7c-0.4,0-0.8,0-1.1,0c0-2,0-4,0-6.1c-2.4,1.9-1.5,4.1-1.1,6.1
			c0.3,1.6,1.6,1.9,2.9,2c0.5,0.1,0.9,0.2,1.4,0.2c2.5,0.1,3.3,1,3.1,3.8c-0.4,6.4-0.1,12.8-0.7,19.2c0-2.9,0-5.7,0-8.6
			c0-2.5,0.1-5-0.1-7.5c0-0.8,0.9-2.6-1.2-2.3c-1.5,0.2-3.3,0.1-3.2,2.5c0.1,4.9,0,9.9,0,14.8c0,1.1,0.3,2.2-0.6,3.4
			c-0.7-0.9-0.4-1.8-0.4-2.7c0-5.2,0-10.4,0-15.6c0-0.8,0.2-1.8-0.7-2.3s-1.5,0.3-2.3,0.7c-2.8,1.5-4,3.7-3.8,7
			c0.3,4.3,0.1,8.7-0.5,13c0-4.3-0.1-8.7,0.1-13c0.1-2.2-0.6-3.2-2.7-3.9c-4.9-1.5-4.9-1.6-5.1,3.5c0,0.3-0.1,0.7-0.1,1
			C32.9,42.6,32.7,42.6,32.6,42.6z"/>
	</g>
</g>
</svg>
