<?xml version="1.0" encoding="utf-8"?>
<!-- Generator: Adobe Illustrator 23.0.0, SVG Export Plug-In . SVG Version: 6.00 Build 0)  -->
<svg version="1.1" id="Capa_1" xmlns="http://www.w3.org/2000/svg" xmlns:xlink="http://www.w3.org/1999/xlink" x="0px" y="0px"
	 viewBox="0 0 68.8 63.1" style="enable-background:new 0 0 68.8 63.1;" xml:space="preserve">
<style type="text/css">
	.st0{fill:#FFFFFF;}
	.st1{fill:#155F86;}
</style>
<rect x="17.6" y="18.9" class="st0" width="34.1" height="27.8"/>
<path class="st1" d="M14.4,48.4h39.8V17.1H14.4V48.4z M22.6,32.3h1.3l0.4-1.2l0.4,1.2H26l-1,0.6l0.2,1.3l-1-0.7l-1,0.7l0.2-1.3
	L22.6,32.3z M26.4,39.6l-1-0.7l-1,0.7l0.2-1.3l-0.9-0.7H25l0.4-1.2l0.4,1.2h1.3l-0.9,0.7L26.4,39.6z M46.8,32.3L45.9,33l0.2,1.3
	l-1-0.7l-1,0.7l0.2-1.3l-0.9-0.7h1.3l0.4-1.2l0.4,1.2H46.8z M43.4,27l0.4-1.2l0.4,1.2h1.3l-0.9,0.7l0.2,1.3l-1-0.7l-1,0.7l0.2-1.3
	L42.2,27H43.4z M43.4,37.6l0.4-1.2l0.4,1.2h1.3l-0.9,0.7l0.2,1.3l-1-0.7l-1,0.7l0.2-1.3l-0.9-0.7H43.4z M39.4,23l0.4-1.2l0.4,1.2
	h1.3l-0.9,0.7l0.2,1.3l-1-0.7l-1,0.7l0.2-1.3L38.1,23H39.4z M39.4,41.4l0.4-1.2l0.4,1.2h1.3l-0.9,0.7l0.2,1.3l-1-0.7l-1,0.7l0.2-1.3
	l-0.9-0.7H39.4z M34.3,21.7l0.4-1.2l0.4,1.2h1.3l-0.9,0.7l0.2,1.3l-1-0.7l-1,0.7l0.2-1.3L33,21.7H34.3z M34.3,42.8l0.4-1.2l0.4,1.2
	h1.3l-0.9,0.7l0.2,1.3l-1-0.7l-1,0.7l0.2-1.3L33,42.8H34.3z M28.9,23l0.4-1.2l0.4,1.2H31l-0.9,0.7l0.2,1.3l-1-0.7l-1,0.7l0.2-1.3
	L27.7,23H28.9z M28.9,41.4l0.4-1.2l0.4,1.2H31l-0.9,0.7l0.2,1.3l-1-0.7l-1,0.7l0.2-1.3l-0.9-0.7H28.9z M25,27l0.4-1.2l0.4,1.2h1.3
	l-0.9,0.7l0.2,1.3l-1-0.7l-1,0.7l0.2-1.3L23.8,27H25z"/>
</svg>
