<?xml version="1.0" encoding="utf-8"?>
<!-- Generator: Adobe Illustrator 23.0.0, SVG Export Plug-In . SVG Version: 6.00 Build 0)  -->
<svg version="1.1" id="Capa_1" xmlns="http://www.w3.org/2000/svg" xmlns:xlink="http://www.w3.org/1999/xlink" x="0px" y="0px"
	 viewBox="0 0 68.8 63.1" style="enable-background:new 0 0 68.8 63.1;" xml:space="preserve">
<style type="text/css">
	.st0{fill:#FFFFFF;}
	.st1{fill:#155F86;}
</style>
<path class="st0" d="M10.2,37.2h10.6V26h-2.5c-4.5,0-8.1,3.6-8.1,8.1V37.2z"/>
<ellipse class="st0" cx="21.1" cy="43.2" rx="2.5" ry="2.7"/>
<ellipse class="st0" cx="44.9" cy="43.4" rx="2.8" ry="3"/>
<polygon class="st0" points="55.4,42.1 49.3,41.5 45.8,36.6 41.4,38.4 39.9,41.6 25.6,41.6 25.1,39.8 22.8,38.2 22.8,20.3 
	55.4,20.9 "/>
<g id="g_10_">
	<g id="g_11_">
		<path id="s_33_" class="st1" d="M55.6,42.6c0,0.2-0.1,0.4-0.3,0.5s-0.4,0.2-0.6,0.2h-5.1c0-0.6-0.1-1.3-0.4-1.8h6.4
			C55.6,41.5,55.6,42.6,55.6,42.6z"/>
		<path id="s_32_" class="st1" d="M39.6,43.4H26c0-0.6-0.1-1.3-0.4-1.8H40C39.7,42.1,39.6,42.7,39.6,43.4z"/>
		<path id="s_31_" class="st1" d="M11.7,28.1c1.4-1.3,3.2-2.4,4.9-2.7c1.7-0.2,5.1-0.3,5.1-0.3v13.6c-0.3,0-0.5-0.1-0.8-0.1
			c-2.8,0-5,2.1-5,4.7h-4.2c-0.5,0-1.1-0.2-1.5-0.6c-0.4-0.4-0.6-0.9-0.6-1.4v-8.6C9.6,31.1,10.3,29.4,11.7,28.1z M11.1,34.5
			c0,0.2,0.1,0.4,0.3,0.5s0.4,0.2,0.6,0.1l7.4-1.4c0.2,0,0.3-0.1,0.4-0.2c0.1-0.1,0.2-0.3,0.2-0.4v-6c0,0-2.5,0-3.8,0.2
			s-2.6,1-3.6,2s-1.5,2.2-1.5,3.5C11.1,32.8,11.1,34.5,11.1,34.5z"/>
		<path id="s_30_" class="st1" d="M41.2,40.8c0.8-0.9,2-1.5,3.4-1.5s2.6,0.6,3.4,1.5c0.1,0.1,0.1,0.2,0.2,0.3
			c0.1,0.1,0.2,0.3,0.3,0.4c0.3,0.5,0.5,1.2,0.5,1.8c0,2.2-1.9,4.1-4.3,4.1c-2.4,0-4.3-1.8-4.3-4.1C40.4,41.5,41.1,40.9,41.2,40.8z
			 M44.6,45.5c1.2,0,2.2-0.9,2.2-2.1c0-0.8-0.4-1.5-1.1-1.8c-0.3-0.2-0.7-0.3-1.1-0.3c-0.4,0-0.8,0.1-1.1,0.3
			c-0.7,0.4-1.1,1-1.1,1.8C42.4,44.5,43.4,45.5,44.6,45.5z"/>
		<path id="s_29_" class="st1" d="M21,39.3c0.3,0,0.6,0,0.8,0.1c0.3,0.1,0.7,0.2,1,0.3c0.7,0.3,1.3,0.8,1.7,1.4
			c0.5,0.6,0.7,1.4,0.7,2.3c0,2.2-1.9,4.1-4.3,4.1s-4.3-1.8-4.3-4.1S18.6,39.3,21,39.3z M21,45.5c1.2,0,2.2-0.9,2.2-2.1
			c0-0.4-0.1-0.9-0.4-1.2c-0.2-0.3-0.6-0.6-1-0.8c-0.3-0.1-0.5-0.2-0.8-0.2c-1.2,0-2.2,0.9-2.2,2.1C18.7,44.5,19.7,45.5,21,45.5z"/>
		<g>
			<rect x="22.8" y="20.2" class="st1" width="32.8" height="1.8"/>
			<path class="st1" d="M22.8,38.9c1,0.4,1.9,1,2.4,1.9h15.1c0.9-1.3,2.5-2.2,4.2-2.2c1.8,0,3.4,0.9,4.2,2.2h6.7V22.5H22.8V38.9z"/>
		</g>
	</g>
</g>
</svg>
