<?xml version="1.0" encoding="utf-8"?>
<!-- Generator: Adobe Illustrator 23.0.0, SVG Export Plug-In . SVG Version: 6.00 Build 0)  -->
<svg version="1.1" id="Capa_1" xmlns="http://www.w3.org/2000/svg" xmlns:xlink="http://www.w3.org/1999/xlink" x="0px" y="0px"
	 viewBox="0 0 68.8 63.1" style="enable-background:new 0 0 68.8 63.1;" xml:space="preserve">
<style type="text/css">
	.st0{fill:#FFFFFF;}
	.st1{fill:#155F86;}
</style>
<rect x="18.3" y="45.3" class="st0" width="4.6" height="6.4"/>
<rect x="44.7" y="43.8" class="st0" width="7.4" height="7.8"/>
<rect x="31.1" y="22" class="st0" width="7" height="7.4"/>
<ellipse class="st0" cx="20.5" cy="38.9" rx="5.4" ry="5.7"/>
<ellipse class="st0" cx="48.7" cy="39" rx="5.4" ry="5.7"/>
<ellipse class="st0" cx="34.6" cy="16.3" rx="5.4" ry="5.7"/>
<g>
	<g>
		<path class="st0" d="M26.5,39.7v-0.4c0-0.3-0.2-0.5-0.4-0.5c0,0.1,0,0.2-0.1,0.2c0,0.2,0,0.4,0,0.6c0,0.2,0,0.4,0,0.7
			C26.3,40.3,26.5,40,26.5,39.7z"/>
		<path class="st1" d="M21.1,46.9l0.7,4.6h0.8l1.2-6.9c-0.1,0-0.3-0.4-0.5-0.4L23,44.4c-0.8,0.4-1.7,0.5-2.7,0.5s-1.2,0.2-2-0.3
			l-0.7-0.4c-0.1,0-0.5,0.4-0.7,0.4l1.2,6.9H19l0.7-4.6l0,0L19,45.6h2.7L21.1,46.9L21.1,46.9z"/>
		<path class="st1" d="M23.8,44.6l-1.3,6.8h-0.8H19h-0.8L17,44.6c-2.6,0.2-4.6,2.4-4.6,5.1v2.5h16.1v-2.5
			C28.4,47,26.4,44.8,23.8,44.6z"/>
		<path class="st1" d="M13.4,39.3v0.4c0,0.8,0.6,1.4,1.4,1.4h0.1c0.4,1.5,1.5,2.8,2.8,3.5c0.8,0.4,1.7,0.7,2.7,0.7s1.9-0.2,2.7-0.7
			c1.4-0.7,2.4-2,2.8-3.5H26c0.8,0,1.4-0.6,1.4-1.4v-0.4c0-0.7-0.5-1.2-1.1-1.3c0-0.2,0-0.4,0-0.6v-0.1c0-0.1,0-0.3,0-0.5l0,0
			c-0.1-0.9-0.4-1.8-0.9-2.6c-0.3-0.4-0.6-0.7-0.9-1c-0.8-0.8-1.5-1.1-2.3-1.2c-1.1-0.3-1.4-0.3-2.5-0.2c-0.5,0-1.3,0.3-1.4,0.3
			c-2.2,0.7-3.8,2.7-3.8,5.2v0.1c0,0.2,0,0.3,0,0.5C13.9,38.1,13.4,38.6,13.4,39.3z M26.1,38.8c0.2,0.1,0.4,0.3,0.4,0.5v0.4
			c0,0.3-0.2,0.5-0.5,0.6c0-0.2,0-0.4,0-0.7c0-0.2,0-0.4,0-0.6C26.1,38.9,26.1,38.8,26.1,38.8z M15.6,38.9c0-0.1,0-0.2,0.1-0.3
			c0.7-0.5,1.5-1.2,1.9-1.8c0,0,5.4,1.3,7.4,1.5c0.1,0,0.1,0,0.2,0c0.1,0.2,0.1,0.5,0.2,0.7c0,0.2,0.1,0.5,0.1,0.7s0,0.3,0,0.5
			c0,0.3-0.1,0.6-0.2,0.8c-0.6,2-2.5,3.5-4.7,3.5S16.5,43,15.9,41c-0.1-0.3-0.1-0.6-0.2-0.8c0-0.2,0-0.3,0-0.5
			C15.5,39.4,15.5,39.1,15.6,38.9z M14.2,39.3c0-0.3,0.2-0.5,0.5-0.6c0,0.1,0,0.2,0,0.3c0,0.2,0,0.4,0,0.6c0,0.2,0,0.4,0,0.7
			c-0.3,0-0.5-0.3-0.5-0.6V39.3z"/>
	</g>
	<g>
		<path class="st0" d="M54.6,40v-0.4c0-0.3-0.2-0.5-0.5-0.5c0,0.2,0,0.4,0,0.6c0,0.1,0,0.1,0,0.2c0,0.2,0,0.4,0,0.6
			C54.4,40.5,54.6,40.2,54.6,40z"/>
		<path class="st1" d="M45.2,44.7c0.1,0,0.2,0,0.4,0C45.4,44.7,45.3,44.7,45.2,44.7z"/>
		<path class="st0" d="M43,39c-0.2,0.1-0.5,0.3-0.5,0.5V40c0,0.3,0.2,0.5,0.5,0.5c0-0.2,0-0.4,0-0.6c0-0.2,0-0.4,0-0.6
			C43,39.2,43,39.2,43,39z"/>
		<path class="st1" d="M40.7,49.6V52h15.8v-2.4c0-1.3-0.5-2.4-1.2-3.3c0.5-0.2,0.8-0.4,0.9-0.4l0.1-0.1c0,0,0-0.1-0.1-0.1
			c0,0-1.3-0.6-1.7-1.5c0.5,0.4,1,0.6,1.7,0.7c0.1,0,0.1,0,0.1-0.1v-0.1c-0.5-1.1-1-2.5-1.3-3.7c0.1-0.1,0.1-0.1,0.2-0.2
			c0.1-0.2,0.2-0.4,0.2-0.7v-0.4c0-0.4-0.2-0.7-0.4-0.9c-0.1-3.9-2.9-7-6.5-7c-1.3,0-2.5,0.4-3.5,1.1c-0.4,0.2-0.7,0.5-1,0.8
			c-1.2,1.3-2,3.1-2,5.1l0,0c-0.2,0.2-0.3,0.5-0.3,0.8V40c0,0.4,0.2,0.8,0.6,1.1c0.1,1.5,0.4,3.1,0.7,4.3
			C41.6,46.2,40.7,47.8,40.7,49.6z M51.7,45.8c-0.1,0.1-1.7,1.6-1.7,1.6l1.1,1.1l-2.5,2.8L46,48.5l1.1-1.1c0,0-1.6-1.5-1.7-1.6
			c-0.1-0.2,1-1,1-1l2.1,6.6l2.1-6.6C50.7,44.8,51.8,45.6,51.7,45.8z M45.2,44.7c0.1,0,0.2,0,0.4,0C45.4,44.7,45.3,44.7,45.2,44.7z
			 M47.1,46.4h2.8l-1.4,4.3l0,0L47.1,46.4z M54.1,39.6c0-0.2,0-0.4,0-0.6c0.3,0,0.5,0.3,0.5,0.5V40c0,0.3-0.2,0.5-0.5,0.5
			c0-0.2,0-0.4,0-0.6C54.1,39.8,54.1,39.7,54.1,39.6z M43.8,39.2c0-0.2,0.1-0.5,0.2-0.7c0.1,0,0.1,0,0.2,0c1.9-0.1,7.2-1.4,7.2-1.4
			c0.3,0.6,1.2,1.3,1.8,1.8c0,0.1,0,0.2,0.1,0.3c0,0.2,0.1,0.5,0.1,0.7s0,0.3,0,0.5c0,0.3-0.1,0.6-0.2,0.8c-0.6,1.9-2.4,3.3-4.6,3.3
			c-2.2,0-4-1.4-4.6-3.3c-0.1-0.3-0.1-0.5-0.2-0.8c0-0.2,0-0.3,0-0.5C43.8,39.6,43.8,39.4,43.8,39.2z M43,39.3c0,0.2,0,0.4,0,0.6
			c0,0.2,0,0.4,0,0.6c-0.3,0-0.5-0.3-0.5-0.5v-0.4c0-0.3,0.3-0.5,0.5-0.5C43,39.2,43,39.2,43,39.3z"/>
	</g>
	<g>
		<g>
			<path class="st0" d="M40.7,17.1v-0.4c0-0.3-0.2-0.5-0.4-0.5c0,0.1,0,0.2-0.1,0.2c0,0.2,0,0.4,0,0.6s0,0.4,0,0.7
				C40.5,17.6,40.7,17.4,40.7,17.1z"/>
			<path class="st1" d="M38,22l-1.3,6.8h-0.8h-2.7h-0.8L31.1,22c-2.6,0.2-4.6,2.4-4.6,5.1v2.5h16.1v-2.5C42.6,24.4,40.6,22.2,38,22z
				"/>
			<polygon class="st1" points="33.2,28.8 35.9,28.8 35.3,24.2 35.2,24.2 35.9,23 33.2,23 33.9,24.2 33.9,24.2 			"/>
			<path class="st1" d="M27.6,16.7v0.4c0,0.8,0.6,1.4,1.4,1.4h0.1c0.4,1.5,1.5,2.8,2.8,3.5c0.8,0.4,1.7,0.7,2.7,0.7s1.9-0.2,2.7-0.7
				c1.4-0.7,2.4-2,2.8-3.5h0.1c0.8,0,1.4-0.6,1.4-1.4v-0.4c0-0.7-0.5-1.2-1.1-1.3c0-0.2,0-0.4,0-0.6v-0.1c0-0.1,0-0.3,0-0.5l0,0
				c-0.1-0.9-0.4-1.8-0.9-2.6c-0.3-0.4-0.6-0.7-0.9-1c-0.9-0.8-2.1-1.5-3.4-1.5c0,0-1.1-0.2-2.8,0.4c-2.2,0.7-3.8,2.8-3.8,5.2v0.1
				c0,0.2,0,0.3,0,0.5C28.1,15.4,27.6,16,27.6,16.7z M40.3,16.1c0.2,0.1,0.4,0.3,0.4,0.5V17c0,0.3-0.2,0.5-0.5,0.6
				c0-0.2,0-0.4,0-0.7c0-0.2,0-0.4,0-0.6C40.3,16.3,40.3,16.2,40.3,16.1z M29.8,16.3c0-0.1,0-0.2,0.1-0.3c0.7-0.5,1.5-1.2,1.9-1.8
				c0,0,5.4,1.3,7.4,1.5c0.1,0,0.1,0,0.2,0c0.1,0.2,0.1,0.5,0.2,0.7c0,0.2,0.1,0.5,0.1,0.7c0,0.2,0,0.3,0,0.5c0,0.3-0.1,0.6-0.2,0.8
				c-0.6,2-2.5,3.5-4.7,3.5s-4.1-1.5-4.7-3.5c-0.1-0.3-0.1-0.6-0.2-0.8c0-0.2,0-0.3,0-0.5C29.7,16.7,29.7,16.5,29.8,16.3z
				 M28.4,16.7c0-0.3,0.2-0.5,0.5-0.6c0,0.1,0,0.2,0,0.3c0,0.2,0,0.4,0,0.6c0,0.2,0,0.4,0,0.7c-0.3,0-0.5-0.3-0.5-0.6V16.7z"/>
		</g>
		<path class="st1" d="M33.8,16.4c0,0-0.1-0.1-0.2-0.1h-3.5c-0.1,0-0.1,0-0.2,0.1c0,0.1,0,0.1,0,0.2l0.5,1.7c0,0.1,0.1,0.1,0.2,0.1
			h2.7c0.1,0,0.2-0.1,0.2-0.2l0.2-1c0-0.1,0.1-0.1,0.3-0.2c0.2-0.1,0.4-0.1,0.6-0.1c0.2,0,0.4,0,0.6,0.1c0.1,0.1,0.2,0.1,0.3,0.2
			l0.2,1c0,0.1,0.1,0.2,0.2,0.2h2.7c0.1,0,0.2-0.1,0.2-0.1l0.5-1.7c0-0.1,0-0.1,0-0.2c0-0.1-0.1-0.1-0.2-0.1h-3.5
			c-0.1,0-0.1,0-0.2,0.1c0,0-0.1,0.1,0,0.2v0.1c-0.2-0.1-0.5-0.1-0.7-0.1c-0.3,0-0.5,0-0.7,0.1v-0.2C33.9,16.5,33.9,16.4,33.8,16.4z
			 M33.4,17.1C33.4,17.1,33.3,17.1,33.4,17.1L33.4,17.1L33.2,18h-2.4l-0.4-1.3h3V17.1z M38.8,16.7L38.4,18H36l-0.2-0.8l0,0
			c0,0,0,0,0-0.1l-0.1-0.4H38.8z"/>
	</g>
	<path class="st1" d="M40.2,40.4h-4.9v-7.9c0-0.4-0.3-0.8-0.8-0.8c-0.4,0-0.7,0.3-0.7,0.8v7.9h-4.9c-0.4,0-0.8,0.3-0.8,0.8
		c0,0.4,0.3,0.8,0.8,0.8h11.3c0.4,0,0.8-0.3,0.8-0.8S40.6,40.4,40.2,40.4z"/>
</g>
<polygon class="st1" points="47,46.1 48.5,50.9 50,46.2 "/>
</svg>
