<?xml version="1.0" encoding="utf-8"?>
<!-- Generator: Adobe Illustrator 23.0.0, SVG Export Plug-In . SVG Version: 6.00 Build 0)  -->
<svg version="1.1" id="Capa_1" xmlns="http://www.w3.org/2000/svg" xmlns:xlink="http://www.w3.org/1999/xlink" x="0px" y="0px"
	 viewBox="0 0 104.1 95.4" style="enable-background:new 0 0 104.1 95.4;" xml:space="preserve">
<style type="text/css">
	.st0{fill:#155F86;}
	.st1{fill:#D4D4D5;}
	.st2{fill:#0E9FDB;}
	.st3{fill:#FFFFFF;}
	.st4{fill:#065F87;}
	.st5{fill:none;stroke:#FFFFFF;stroke-miterlimit:10;}
	.st6{fill:none;stroke:#155F86;stroke-width:3;stroke-miterlimit:10;}
	.st7{fill:none;stroke:#FFFFFF;stroke-width:2;stroke-miterlimit:10;}
	.st8{fill:none;stroke:#9D9D9C;stroke-width:4;stroke-miterlimit:10;}
	.st9{fill:none;stroke:#000000;stroke-width:4;stroke-miterlimit:10;}
	.st10{fill:#9D9D9C;}
	.st11{fill:url(#SVGID_1_);}
	.st12{fill:url(#SVGID_2_);}
	.st13{fill:url(#SVGID_3_);}
	.st14{fill:#010202;}
	.st15{fill:url(#SVGID_4_);}
	.st16{opacity:0.2;fill:#FFFFFF;}
	.st17{filter:url(#Adobe_OpacityMaskFilter);}
	.st18{filter:url(#Adobe_OpacityMaskFilter_1_);}
	.st19{fill:url(#SVGID_7_);}
	.st20{fill:url(#SVGID_8_);}
	.st21{fill:url(#SVGID_9_);}
	.st22{filter:url(#Adobe_OpacityMaskFilter_2_);}
	.st23{fill:url(#SVGID_11_);}
	.st24{fill:url(#SVGID_12_);}
	.st25{fill:url(#SVGID_13_);}
	.st26{filter:url(#Adobe_OpacityMaskFilter_3_);}
	.st27{clip-path:url(#SVGID_16_);fill:#FFFFFF;}
	.st28{clip-path:url(#SVGID_16_);fill:#1B6C98;}
	.st29{clip-path:url(#SVGID_16_);fill:#155F86;}
	.st30{fill:#176086;}
	.st31{clip-path:url(#SVGID_18_);fill:url(#SVGID_19_);}
	.st32{clip-path:url(#SVGID_18_);fill:url(#SVGID_20_);}
	.st33{clip-path:url(#SVGID_18_);fill:url(#SVGID_21_);}
	.st34{clip-path:url(#SVGID_18_);fill:url(#SVGID_22_);}
	.st35{fill:#EFEEEE;}
	.st36{clip-path:url(#SVGID_24_);fill:url(#SVGID_25_);}
	.st37{clip-path:url(#SVGID_24_);fill:url(#SVGID_26_);}
	.st38{clip-path:url(#SVGID_24_);fill:url(#SVGID_27_);}
	.st39{clip-path:url(#SVGID_24_);fill:url(#SVGID_28_);}
	.st40{fill:#0B5F87;}
	.st41{fill:#ECECEC;}
	.st42{fill:#106086;}
	.st43{fill-rule:evenodd;clip-rule:evenodd;fill:#FFFFFF;}
	.st44{fill:#FFFFFF;stroke:#FFFFFF;stroke-miterlimit:10;}
	.st45{fill:none;stroke:#155F86;stroke-width:5;stroke-miterlimit:10;}
	.st46{fill:none;stroke:#155F86;stroke-width:2;stroke-miterlimit:10;}
	.st47{fill:#D7D7D7;}
	.st48{fill:#5B9DD5;}
	.st49{fill:#195F86;}
	.st50{clip-path:url(#SVGID_30_);fill:#195F86;}
	.st51{clip-path:url(#SVGID_30_);fill-rule:evenodd;clip-rule:evenodd;fill:#195F86;}
	.st52{clip-path:url(#SVGID_30_);fill:#1B6187;}
	.st53{clip-path:url(#SVGID_32_);fill:#FFFFFF;}
	.st54{clip-path:url(#SVGID_32_);fill:#1B6C98;}
	.st55{clip-path:url(#SVGID_32_);fill:#155F86;}
	.st56{clip-path:url(#SVGID_34_);fill:#324689;}
	.st57{clip-path:url(#SVGID_34_);fill:#FFFFFF;}
	.st58{clip-path:url(#SVGID_34_);fill:#9F1831;}
	.st59{clip-path:url(#SVGID_36_);fill:#DC1F38;}
	.st60{clip-path:url(#SVGID_36_);fill:#FFFFFF;}
	.st61{clip-path:url(#SVGID_36_);fill:#253062;}
	.st62{clip-path:url(#SVGID_38_);fill:#020203;}
	.st63{clip-path:url(#SVGID_38_);fill:#FFEA37;}
	.st64{clip-path:url(#SVGID_38_);fill:#E62A2F;}
	.st65{clip-path:url(#SVGID_40_);fill:#344093;}
	.st66{clip-path:url(#SVGID_40_);fill:#F4F3F4;}
	.st67{clip-path:url(#SVGID_40_);fill:#D80D33;}
	.st68{clip-path:url(#SVGID_42_);fill:#3D9348;}
	.st69{clip-path:url(#SVGID_42_);fill:#FFFFFF;}
	.st70{clip-path:url(#SVGID_42_);fill:#D80D33;}
	.st71{clip-path:url(#SVGID_44_);fill:#409A63;}
	.st72{clip-path:url(#SVGID_44_);fill:#FFFFFF;}
	.st73{clip-path:url(#SVGID_44_);fill:#EF7F46;}
	.st74{clip-path:url(#SVGID_46_);}
	.st75{clip-path:url(#SVGID_48_);fill:#B6182E;}
	.st76{clip-path:url(#SVGID_48_);fill:#F4C328;}
	.st77{clip-path:url(#SVGID_50_);}
	.st78{clip-path:url(#SVGID_52_);fill:#B6182E;}
	.st79{clip-path:url(#SVGID_52_);fill:#F4C328;}
	.st80{clip-path:url(#SVGID_54_);fill:#020203;}
	.st81{clip-path:url(#SVGID_54_);fill:#E10720;}
	.st82{clip-path:url(#SVGID_54_);fill:#F7D92A;}
	.st83{clip-path:url(#SVGID_54_);}
	.st84{clip-path:url(#SVGID_58_);fill:#C71621;}
	.st85{clip-path:url(#SVGID_58_);fill:#FFFFFF;}
	.st86{clip-path:url(#SVGID_60_);fill:#FFFFFF;}
	.st87{clip-path:url(#SVGID_60_);fill:#5CB34F;}
	.st88{clip-path:url(#SVGID_60_);fill:#C51D25;}
	.st89{clip-path:url(#SVGID_62_);fill:#C4162B;}
	.st90{clip-path:url(#SVGID_62_);fill:#FFFFFF;}
	.st91{clip-path:url(#SVGID_62_);fill:#2A457C;}
	.st92{clip-path:url(#SVGID_64_);fill:#283374;}
	.st93{clip-path:url(#SVGID_64_);fill:#F3D131;}
	.st94{clip-path:url(#SVGID_64_);fill:#BC1733;}
	.st95{clip-path:url(#SVGID_66_);fill:#FFFFFF;}
	.st96{clip-path:url(#SVGID_66_);fill:#D80D33;}
	.st97{clip-path:url(#SVGID_68_);fill:#BC1733;}
	.st98{clip-path:url(#SVGID_68_);fill:#FFFFFF;}
	.st99{clip-path:url(#SVGID_68_);fill:#3D9348;}
	.st100{clip-path:url(#SVGID_70_);fill:#BF153D;}
	.st101{clip-path:url(#SVGID_70_);fill:#FFFFFF;}
	.st102{clip-path:url(#SVGID_72_);fill:#FFFFFF;}
	.st103{clip-path:url(#SVGID_72_);fill:#E53734;}
	.st104{clip-path:url(#SVGID_72_);}
	.st105{clip-path:url(#SVGID_76_);fill:#FFFFFF;}
	.st106{clip-path:url(#SVGID_76_);fill:#E41224;}
	.st107{clip-path:url(#SVGID_76_);fill:#3E58A4;}
	.st108{clip-path:url(#SVGID_76_);}
	.st109{clip-path:url(#SVGID_78_);fill:#E41224;}
	.st110{clip-path:url(#SVGID_78_);fill:#3E58A4;}
	.st111{clip-path:url(#SVGID_78_);fill:#F8E72A;}
	.st112{clip-path:url(#SVGID_78_);fill:#FFFFFF;}
	.st113{clip-path:url(#SVGID_80_);fill:#FFFFFF;}
	.st114{clip-path:url(#SVGID_80_);fill:#2C3F92;}
	.st115{clip-path:url(#SVGID_80_);fill:#BC1733;}
	.st116{clip-path:url(#SVGID_80_);}
	.st117{clip-path:url(#SVGID_82_);fill:#FFFFFF;}
	.st118{clip-path:url(#SVGID_82_);fill:#BC1733;}
	.st119{clip-path:url(#SVGID_82_);fill:#2C3F92;}
	.st120{clip-path:url(#SVGID_84_);fill:#E41224;}
	.st121{clip-path:url(#SVGID_84_);fill:#2C692D;}
	.st122{clip-path:url(#SVGID_84_);}
	.st123{clip-path:url(#SVGID_86_);fill:#F1E623;}
	.st124{clip-path:url(#SVGID_86_);}
	.st125{fill:#020203;}
	.st126{fill:none;}
	.st127{clip-path:url(#SVGID_86_);fill:#020203;}
	.st128{fill:#E41224;}
	.st129{clip-path:url(#SVGID_86_);fill:#FFFFFF;}
	.st130{clip-path:url(#SVGID_86_);fill:#E41224;}
	.st131{clip-path:url(#SVGID_86_);fill:#2B307A;}
	.st132{clip-path:url(#SVGID_88_);fill:#FFFFFF;}
	.st133{clip-path:url(#SVGID_88_);fill:#BE1637;}
	.st134{clip-path:url(#SVGID_88_);fill:#293270;}
	.st135{opacity:0.2;fill:#0E9FDB;}
</style>
<circle class="st6" cx="52.7" cy="48.2" r="44.7"/>
<g>
	<polygon class="st0" points="52.8,71.4 53.9,74.7 57.3,74.7 54.9,76.5 55.6,80 52.8,78 50.1,80 50.7,76.5 48.4,74.7 51.7,74.7 	"/>
	<polygon class="st0" points="52.8,14.7 53.9,17.9 57.3,17.9 54.9,19.8 55.6,23.3 52.8,21.3 50.1,23.2 50.7,19.8 48.4,17.9 
		51.7,17.9 	"/>
	<polygon class="st0" points="66.5,18.3 67.6,21.6 71,21.6 68.6,23.4 69.2,26.9 66.5,24.9 63.7,26.9 64.4,23.4 62,21.6 65.4,21.6 	
		"/>
	<polygon class="st0" points="38.5,18.3 39.6,21.6 43,21.6 40.6,23.4 41.2,26.9 38.5,24.9 35.7,26.9 36.4,23.4 34,21.6 37.4,21.6 	
		"/>
	<polygon class="st0" points="66.5,67.6 67.6,70.9 71,70.9 68.6,72.7 69.2,76.2 66.5,74.2 63.7,76.1 64.4,72.7 62,70.9 65.4,70.9 	
		"/>
	<polygon class="st0" points="38.5,67.6 39.6,70.9 43,70.9 40.6,72.7 41.2,76.2 38.5,74.2 35.7,76.1 36.4,72.7 34,70.9 37.4,70.9 	
		"/>
	<polygon class="st0" points="28,29 29.1,32.3 32.5,32.3 30.1,34.1 30.7,37.6 28,35.6 25.3,37.6 25.9,34.1 23.6,32.3 26.9,32.3 	"/>
	<polygon class="st0" points="77.3,29 78.4,32.3 81.8,32.3 79.4,34.1 80,37.6 77.3,35.6 74.6,37.6 75.2,34.1 72.9,32.3 76.2,32.3 	
		"/>
	<polygon class="st0" points="28,57.4 29.1,60.6 32.5,60.6 30.1,62.4 30.7,65.9 28,64 25.3,65.9 25.9,62.4 23.6,60.6 26.9,60.6 	"/>
	<polygon class="st0" points="77.3,57.4 78.4,60.6 81.8,60.6 79.4,62.4 80,65.9 77.3,64 74.6,65.9 75.2,62.4 72.9,60.6 76.2,60.6 	
		"/>
	<polygon class="st0" points="24.8,43.1 25.9,46.4 29.2,46.4 26.8,48.2 27.5,51.7 24.8,49.7 22,51.6 22.7,48.2 20.3,46.4 23.7,46.4 
			"/>
	<polygon class="st0" points="80.9,43.1 82,46.4 85.4,46.4 83,48.2 83.6,51.7 80.9,49.7 78.2,51.6 78.8,48.2 76.5,46.4 79.8,46.4 	
		"/>
</g>
</svg>
