<?xml version="1.0" encoding="utf-8"?>
<!-- Generator: Adobe Illustrator 23.0.0, SVG Export Plug-In . SVG Version: 6.00 Build 0)  -->
<svg version="1.1" id="Capa_1" xmlns="http://www.w3.org/2000/svg" xmlns:xlink="http://www.w3.org/1999/xlink" x="0px" y="0px"
	 viewBox="0 0 184.5 114.4" style="enable-background:new 0 0 184.5 114.4;" xml:space="preserve">
<style type="text/css">
	.st0{fill:#155F86;}
	.st1{fill:#FFFFFF;}
</style>
<g>
	<circle class="st0" cx="90.3" cy="56.8" r="51.2"/>
	<g>
		<circle class="st1" cx="89.2" cy="31.9" r="8.3"/>
		<path class="st1" d="M118.4,83H59.9c-1,0-1.7-0.8-1.7-1.7v-3.4c0-1,0.8-1.7,1.7-1.7h58.5c1,0,1.7,0.8,1.7,1.7v3.4
			C120.2,82.2,119.4,83,118.4,83z"/>
		<path class="st1" d="M112.7,33.2h-47c-0.5,0-1-0.4-1-1v-1.9c0-0.5,0.4-1,1-1h47c0.5,0,1,0.4,1,1v1.9
			C113.6,32.8,113.2,33.2,112.7,33.2z"/>
		<rect x="84.9" y="33.2" class="st1" width="8.5" height="46.4"/>
		<path class="st1" d="M126.6,56.6l-11.3-17.7c-0.8-1.3-2.7-1.3-3.5,0L100,57c-1.1,1.6-0.4,3.7,1.3,4.6c2.3,1.4,6.8,2.3,12,2.3
			c7.5,0,13.6-2,13.6-4.4l0,0C127.2,58.6,127.1,57.5,126.6,56.6z"/>
		<path class="st1" d="M78,56.6L66.8,38.9c-0.8-1.3-2.7-1.3-3.5,0L51.4,57c-1.1,1.6-0.4,3.7,1.3,4.6c2.3,1.4,6.8,2.3,12,2.3
			c7.5,0,13.6-2,13.6-4.4l0,0C78.7,58.6,78.6,57.5,78,56.6z"/>
	</g>
</g>
</svg>
