<?xml version="1.0" encoding="utf-8"?>
<!-- Generator: Adobe Illustrator 23.0.0, SVG Export Plug-In . SVG Version: 6.00 Build 0)  -->
<svg version="1.1" id="Capa_1" xmlns="http://www.w3.org/2000/svg" xmlns:xlink="http://www.w3.org/1999/xlink" x="0px" y="0px"
	 viewBox="0 0 79.4 79.4" style="enable-background:new 0 0 79.4 79.4;" xml:space="preserve">
<style type="text/css">
	.st0{fill:#FFFFFF;}
</style>
<g>
	<path class="st0" d="M25.2,49.4c-3.3-0.9-6-5.4-7.8-6.4c0.5,5.6,3,10.6,6.7,14.3c0.4,0.4,0.7,0.7,1.1,1c-0.4-0.9-1-1.5-1.3-2.1
		c-0.4-0.7,1.9-1.3,1.3-2.3C24.5,52.9,26,50,25.2,49.4z"/>
	<path class="st0" d="M59.1,51.8c0.1,1.3-0.3,2.3-1.9,3c-1.6,0.7-2.2,1.7-2.6,4.6c0.1-0.1,0.3-0.1,0.4-0.2c0.7-0.6,1.5-1.2,2.1-1.9
		c2.6-2.6,4.6-5.9,5.8-9.5c0,0,0-0.1,0-0.2C61.9,48.4,59.1,49.6,59.1,51.8z"/>
	<path class="st0" d="M26.3,22.8c-0.8,0.4-1.6,0.9-2.3,1.6c-2.1,2.1-3.8,4.7-5,7.5c0.5-0.1,1-0.2,1.5-0.5h0c1-0.2,1.2-0.1,1.3-0.4
		c0.2-0.3,1.2-0.9,1.6-1.1c0.4-0.1,0.7-0.2,0.9-0.5c0.1-0.3,1.3-0.8,1.5-1.1c0,0,0,0,0,0c1.4-0.8,1.9-1.6,2-2.2c0,0,0,0,0,0
		c0.3-0.7-0.5-2-0.5-2.6c0.4-0.4,0.4-1,0.7-1.8L26.3,22.8z"/>
	<path class="st0" d="M47.9,23.4c2.2-0.8,4.1-0.3,4.6,0c0.5-1.1-3.4-2.2-3.4-2.2s-2.8,2-3.9,2c0.1-0.4-0.1-0.8-0.4-1.1
		c-0.4-0.4-0.6-0.8-0.9-0.7c-0.2,0-0.4,0.2-0.6,0.2c-0.1,0-0.2,0-0.3,0l0,0c0-0.3-0.7-0.3-0.7-0.3s-0.5,0.3-0.8,0.3c0,0,0,0,0,0
		c-0.4,0-0.8,0.1-1.1,0.2l-0.1-0.1c0,0-0.7,0-0.7,0.1c0,0,0,0.1,0,0.2c-0.6,0.3-1.1,0.7-1.5,1.1c-0.1,0-0.1,0-0.1,0
		c-0.2,0.1-0.4,0.7-0.4,1c0,0,0,0,0,0c0,0.1-0.1,0.2-0.1,0.3c-0.1,0.2-0.2,0.4-0.1,0.6c-0.1,0.2,0.1,0.5-0.1,0.7
		c0,0.2,0.1,0.4,0.3,0.6c0.1,0.1,0.2,0.2,0.3,0.3c1.2,0.6-1.6,0.1-1.4,1c-0.4,0.5-1.3,1.1-1.8-2c-0.1-0.6,0.6-1.1-0.3-1.4
		c-0.8-0.3-1.2,0.4-1.4,1.1c-0.1,0.1-0.3,0.3-0.5,0.4c-0.3,0.3-0.7,0.7-1,1.1c-0.1,0.1-0.2,0.2-0.2,0.3l0,0c-0.6,0.7-0.1,0.9,0.6,1
		c0.6,0.1,1.3-0.5,1.9-0.5c0.4,0.1,0.6,0.3,0.5,0.8c-0.5,1.9-2.8-0.4-3.3,2.8c-0.2,1.7,1.1,0.8,1.5,2.2c-2.2,1.9-3.3,2.5-3.9,5
		c-0.6,2.5,1.9,6.1,1.9,6.1c0.4,0.5,0.9,0.5,1.2,0.2c0.3-0.2,1.1-0.2,1.1-0.2c0.4,0.2,0.5,0,1,0c0.5,0,1.4,0.2,1.8,0.2
		c0.4,0,0.4-0.2,0.6-0.2c0.5,0,0.9,0,0.9,0s1.2,2.7,2.6,3.5c0.6,4-2,4.5-0.4,6.7c1.7,2.2,2.2,4.4,5.5,1.9c1.9-2.2,1.3-4.7,2.6-4.1
		c0.4,0.1,0.5,0.5,0.6,0.8l0,0c0,0.2,0.1,0.3,0.1,0.4c0,0.1,0.1,0.2,0.1,0.3c0,0.1,0.1,0.2,0.2,0.3c0.2,0.4,0.2,0.7,0.6,0.5
		c0.4,0.2,0.5,0.2,0.4-0.2c0.1-0.2,0.4-0.8,0.5-1.1c0-0.1,0-0.2,0-0.3c0.4-0.3,0.9-0.8,1.5-1.4c1.6-1.7-0.5-1.1-1.9-1
		c-0.4-0.1-0.9-0.2-1.1-0.4c0-0.1,0-0.2,0-0.3c0.2-0.2,0.8-0.5,0.6-1.2c0.1-0.2,1.2-1,1.6-1.4c0.4-0.3,0.6-0.9,0.7-2.1
		c0.2-0.6,0.4-1.2,0.6-2.1c0.5-3.3,0.3-1.4-2.2-1.4c-0.8-0.8-1.1-4.4-1.9-5.5c1-0.5,1.4,0.9,2.1,2c0.3,1.3,1.2,2.1,2.2,1.5
		c0.5,0,1.2,0.5,1.4,0c0.2-0.5,0.8-0.9,0.8-0.9s-0.5-0.8-0.3-1.7c0.2-1,0.3-1.9,0.9-1.8c1.4,0.3,2.5,3.9,3.3,5.2
		c0.2,0.3,0.4,0.6,0.7,0.8c0.6,1.4,1,2.8,1.8,2.8c1,0,1.4-1.1,0.6-4c-0.3-0.9-0.6-1.3-1-1.2c0-0.1,0-0.2,0-0.2
		c0.2-0.9,3.1-2,3.1-4.3c-0.2-0.7-0.4-1.4-0.6-2c-1.8-3.4-6.4-8.6-11.5-8.7C49.1,24.2,47.4,23.6,47.9,23.4z M45.8,33.4
		c-0.2,0.9-1,1.3-1.6,0.7c-0.7-0.9-2.3-0.2-4.3-0.7c-2-2.6-4.2-0.8-4.6-2c4-1,4.7,0.6,5.2,0.7c0.6,0.2,1.5,0.4,2.2,0.8
		C43.5,33.3,46,32.4,45.8,33.4z"/>
	<path class="st0" d="M40.7,5C20.9,5,4.9,21,4.9,40.8s16,35.8,35.8,35.8c19.8,0,35.8-16,35.8-35.8S60.4,5,40.7,5z M40.7,65.2
		c-13.5,0-24.4-10.9-24.4-24.4c0-13.5,10.9-24.4,24.4-24.4C54.1,16.4,65,27.3,65,40.8C65,54.3,54.1,65.2,40.7,65.2z"/>
</g>
</svg>
