<?xml version="1.0" encoding="utf-8"?>
<!-- Generator: Adobe Illustrator 23.0.0, SVG Export Plug-In . SVG Version: 6.00 Build 0)  -->
<svg version="1.1" id="Capa_1" xmlns="http://www.w3.org/2000/svg" xmlns:xlink="http://www.w3.org/1999/xlink" x="0px" y="0px"
	 viewBox="0 0 79.4 79.4" style="enable-background:new 0 0 79.4 79.4;" xml:space="preserve">
<style type="text/css">
	.st0{fill:#FFFFFF;}
</style>
<g>
	<path class="st0" d="M47.6,43.2c0.1,0.5,0.3,0.9,0.6,1.3c0.6,0.7,1.5,1.1,3.1,1.2h0c0.6,0,1.1,0,1.6-0.1c1.3-0.3,1.9-1,2.3-1.8
		c0-0.1,0.1-0.2,0.1-0.2c0-0.1,0.1-0.2,0.1-0.2h3c-0.3,0.4-1,0.6-1.4,0.6c-0.1,0-0.1,0-0.2,0c-0.1,0-0.2,0-0.2,0l0.4,1.8l0.1,0.3
		c0.4,0,0.8-0.1,1.1-0.1c0.7-0.2,1.3-0.4,1.7-0.7c0.2-0.2,0.4-0.4,0.6-0.6c0.2-0.2,0.3-0.4,0.3-0.7c0.1-0.2,0.1-0.4,0.1-0.6h1v-1h-1
		c-0.1-0.3-0.1-0.6-0.2-0.8c-0.2-0.4-0.4-0.7-0.6-0.9c-1.2-1.1-4-1.5-5.6-0.5c-0.2,0.2-0.4,0.3-0.6,0.5c-0.3,0.3-0.5,0.5-0.7,0.8
		c-0.2,0.3-0.4,0.6-0.5,0.9l-2.5,0c0.4-0.4,1.1-0.5,1.1-0.5l-0.2-0.5L51,40.8l-0.3-1.1c-1.3,0.2-2.3,0.8-2.7,1.7c0,0,0,0.1,0,0.1
		c-0.1,0.2-0.2,0.5-0.3,0.8h-1v1h0.8H47.6z M56.2,41.9c0.2-0.2,0.5-0.3,0.8-0.4c0.6-0.1,1.3,0.1,1.5,0.7h-1.1h-1.5
		C56,42.1,56.1,42,56.2,41.9z M52.1,43.2c0,0-0.1,0.1-0.1,0.1c-0.5,0.5-1.5,0.5-1.9-0.1H52.1z"/>
	<path class="st0" d="M24,27.2c0.1,0.5,0.3,0.9,0.6,1.3c0.6,0.7,1.5,1.1,3.1,1.2h0c0.6,0,1.1,0,1.6-0.1c1.3-0.3,1.9-1,2.3-1.8
		c0-0.1,0.1-0.2,0.1-0.2c0-0.1,0.1-0.2,0.1-0.2h3c-0.3,0.4-1,0.6-1.4,0.6c-0.1,0-0.1,0-0.2,0c-0.1,0-0.2,0-0.2,0l0.4,1.8l0.1,0.3
		c0.4,0,0.8-0.1,1.1-0.1c0.7-0.2,1.3-0.4,1.7-0.7c0.2-0.2,0.4-0.4,0.6-0.6c0.2-0.2,0.3-0.4,0.3-0.7c0.1-0.2,0.1-0.4,0.1-0.6h1v-1h-1
		c-0.1-0.3-0.1-0.6-0.2-0.8c-0.2-0.4-0.4-0.7-0.6-0.9c-1.2-1.1-4-1.5-5.6-0.5c-0.2,0.1-0.4,0.3-0.6,0.5c-0.3,0.3-0.5,0.5-0.7,0.8
		c-0.2,0.3-0.4,0.6-0.5,0.9l-2.5,0c0.4-0.4,1.1-0.5,1.1-0.5l-0.2-0.5l-0.1-0.4L27,23.7c-1.3,0.2-2.3,0.8-2.7,1.7c0,0,0,0.1,0,0.1
		c-0.1,0.2-0.2,0.5-0.3,0.8h-1v1h0.8H24z M32.5,25.9c0.2-0.2,0.5-0.3,0.8-0.4c0.6-0.1,1.3,0.1,1.5,0.7h-1.1h-1.5
		C32.3,26.1,32.4,25.9,32.5,25.9z M28.4,27.2c0,0-0.1,0.1-0.1,0.1c-0.5,0.5-1.5,0.5-1.9-0.1H28.4z"/>
	<path class="st0" d="M40.8,4.2C21,4.2,5,20.2,5,39.9s16,35.8,35.8,35.8s35.8-16,35.8-35.8S60.5,4.2,40.8,4.2z M17.9,36.9
		c-1.9-1-3.2-2.4-3.5-3.9c-0.1-0.3-0.1-0.6-0.1-0.9c0-1.9,1.4-3.6,3.6-4.8c0,0,0-0.1,0-0.1c0-3.8,5.7-6.9,12.8-6.9
		c7,0,12.8,3.1,12.8,6.9c0,0.3,0,0.6-0.1,0.9c0,0.1-0.1,0.2-0.1,0.3c-0.1,0.3-0.2,0.6-0.4,0.9c-0.3,0.6-0.8,1.1-1.4,1.6
		c-0.4,0.3-0.8,0.6-1.3,0.9c-0.1,0.1-0.2,0.1-0.3,0.2c-0.1,0.1-0.3,0.1-0.4,0.2C37.1,33.3,34,34,30.6,34c-3.8,0-7.2-0.9-9.5-2.3
		c-0.5-0.3-0.9-0.6-1.3-0.9c-0.6-0.5-1-1-1.4-1.6c-0.1-0.1-0.2-0.3-0.2-0.4c-0.1-0.2-0.1-0.3-0.2-0.5c0-0.1-0.1-0.2-0.1-0.3
		c-0.1,0.3-0.1,0.6-0.1,0.9c0,0,0,0.1,0,0.1c0,0,0,0,0,0c0,0.1,0,0.1,0,0.2c0,0.3,0.1,0.6,0.2,0.9c0.2,0.6,0.5,1.1,0.9,1.6
		c0.3,0.3,0.6,0.6,0.9,0.9c2.3,1.9,6.2,3.2,10.8,3.2c3.3,0,6.4-0.7,8.7-1.8c0.2-0.1,0.3-0.2,0.5-0.3c0.6-0.3,1.1-0.7,1.6-1.1
		c0.3-0.3,0.6-0.6,0.9-0.9c0.4-0.5,0.7-1,0.9-1.6c0.1-0.3,0.2-0.6,0.2-0.9c0,0.1,0,0.2,0,0.3c0,0.3,0,0.6-0.1,0.9
		c-0.1,0.5-0.4,1.1-0.7,1.6c-0.2,0.3-0.5,0.6-0.8,0.9c-0.6,0.5-1.2,1-2,1.5c-0.4,0.2-0.7,0.4-1.1,0.6c-2.2,0.9-4.9,1.5-8,1.5
		c-4.8,0-8.9-1.4-11.1-3.5c-0.3-0.3-0.6-0.6-0.8-0.9c-0.4-0.5-0.6-1-0.7-1.6c-0.1,0.3-0.1,0.6-0.1,0.9c0,0.5,0.1,1.1,0.3,1.6
		c0.1,0.3,0.3,0.6,0.5,0.9c1.8,2.6,6.5,4.4,11.9,4.4c0.8,0,1.6,0,2.3-0.1C31.2,38.7,29.2,39,27,39c-3,0-5.8-0.6-8-1.5
		C18.7,37.3,18.3,37.1,17.9,36.9z M24.7,40.7c0.8,0.1,1.5,0.1,2.3,0.1c5.1,0,9.5-1.6,11.6-4c1.8-0.8,3.1-1.8,3.9-2.9
		c0.2-0.3,0.4-0.6,0.5-0.9c0.2,0.5,0.3,1,0.3,1.6c0,0.3,0,0.6-0.1,0.9c-0.8,3.4-6.2,6-12.6,6C28.5,41.5,26.5,41.2,24.7,40.7z
		 M66.9,51.5c-0.8,3.4-6.2,6-12.6,6c-2.1,0-4.2-0.3-5.9-0.8c0.8,0.1,1.5,0.1,2.3,0.1c5.1,0,9.5-1.6,11.6-4c1.8-0.8,3.1-1.8,3.9-2.9
		c0.2-0.3,0.4-0.6,0.5-0.9c0.2,0.5,0.3,1,0.3,1.6C67.1,50.9,67,51.2,66.9,51.5z M66.9,46.5c-0.1,0.5-0.4,1.1-0.7,1.6
		c-0.2,0.3-0.5,0.6-0.8,0.9c-0.6,0.5-1.2,1-2,1.5c-0.4,0.2-0.7,0.4-1.1,0.6c-2.2,0.9-4.9,1.5-8,1.5c-4.8,0-8.9-1.4-11.1-3.5
		c-0.3-0.3-0.6-0.6-0.8-0.9c-0.4-0.5-0.6-1-0.7-1.6c-0.1,0.3-0.1,0.6-0.1,0.9c0,0.5,0.1,1.1,0.3,1.6c0.1,0.3,0.3,0.6,0.5,0.9
		c1.8,2.6,6.5,4.4,11.9,4.4c0.8,0,1.6,0,2.3-0.1c-1.8,0.5-3.8,0.8-5.9,0.8c-3,0-5.8-0.6-8-1.5c-0.4-0.2-0.8-0.4-1.1-0.6
		c-1.9-1-3.2-2.4-3.5-3.9c-0.1-0.3-0.1-0.6-0.1-0.9c0-1.9,1.4-3.6,3.6-4.8c0,0,0-0.1,0-0.1c0-3.8,5.7-6.9,12.8-6.9
		c7,0,12.8,3.1,12.8,6.9c0,0.3,0,0.6-0.1,0.9c0,0.1-0.1,0.2-0.1,0.3c-0.1,0.3-0.2,0.6-0.4,0.9c-0.3,0.6-0.8,1.1-1.4,1.6
		c-0.4,0.3-0.8,0.6-1.3,0.9c-0.1,0.1-0.2,0.1-0.3,0.2c-0.1,0.1-0.3,0.1-0.4,0.2c-2.3,1.2-5.4,1.9-8.8,1.9c-3.8,0-7.2-0.9-9.5-2.3
		c-0.5-0.3-0.9-0.6-1.3-0.9c-0.6-0.5-1-1-1.4-1.6c-0.1-0.1-0.2-0.3-0.2-0.4c-0.1-0.2-0.1-0.3-0.2-0.5c0-0.1-0.1-0.2-0.1-0.3
		c-0.1,0.3-0.1,0.6-0.1,0.9c0,0,0,0.1,0,0.1c0,0,0,0,0,0c0,0.1,0,0.1,0,0.2c0,0.3,0.1,0.6,0.2,0.9c0.2,0.6,0.5,1.1,0.9,1.6
		c0.3,0.3,0.6,0.6,0.9,0.9c2.3,1.9,6.2,3.2,10.8,3.2c3.3,0,6.4-0.7,8.7-1.8c0.2-0.1,0.3-0.2,0.5-0.3c0.6-0.3,1.1-0.7,1.6-1.1
		c0.3-0.3,0.6-0.6,0.9-0.9c0.4-0.5,0.7-1,0.9-1.6c0.1-0.3,0.2-0.6,0.2-0.9c0,0.1,0,0.2,0,0.3C67.1,45.9,67,46.2,66.9,46.5z"/>
</g>
</svg>
