<?xml version="1.0" encoding="utf-8"?>
<!-- Generator: Adobe Illustrator 23.0.0, SVG Export Plug-In . SVG Version: 6.00 Build 0)  -->
<svg version="1.1" id="Capa_1" xmlns="http://www.w3.org/2000/svg" xmlns:xlink="http://www.w3.org/1999/xlink" x="0px" y="0px"
	 viewBox="0 0 107.7 107.7" style="enable-background:new 0 0 107.7 107.7;" xml:space="preserve">
<style type="text/css">
	.st0{filter:url(#Adobe_OpacityMaskFilter);}
	.st1{fill:#FFFFFF;}
	.st2{mask:url(#NETHERLANDS_1_);}
	.st3{clip-path:url(#SVGID_2_);fill:#FF0000;}
	.st4{clip-path:url(#SVGID_4_);fill:#E2E250;}
	.st5{clip-path:url(#SVGID_6_);fill:#020202;}
	.st6{fill:none;stroke:#0E9FDB;stroke-width:2;stroke-miterlimit:10;}
</style>
<defs>
	<filter id="Adobe_OpacityMaskFilter" filterUnits="userSpaceOnUse" x="22" y="16.1" width="63.9" height="76.5">
		<feColorMatrix  type="matrix" values="1 0 0 0 0  0 1 0 0 0  0 0 1 0 0  0 0 0 1 0"/>
	</filter>
</defs>
<mask maskUnits="userSpaceOnUse" x="22" y="16.1" width="63.9" height="76.5" id="NETHERLANDS_1_">
	<g class="st0">
		<circle class="st1" cx="53.7" cy="54.2" r="29.8"/>
	</g>
</mask>
<g id="NETHERLANDS_4_" class="st2">
	<g>
		<g>
			<g>
				<defs>
					
						<rect id="SVGID_1_" x="22.3" y="16.4" transform="matrix(1 -7.348467e-03 7.348467e-03 1 -0.3982 0.3978)" width="63.3" height="76"/>
				</defs>
				<clipPath id="SVGID_2_">
					<use xlink:href="#SVGID_1_"  style="overflow:visible;"/>
				</clipPath>
				
					<rect x="22.3" y="16.4" transform="matrix(1 -3.674258e-03 3.674258e-03 1 -0.1995 0.1986)" class="st3" width="63.3" height="76"/>
			</g>
			<g>
				<defs>
					
						<rect id="SVGID_3_" x="22.3" y="16.3" transform="matrix(1 -7.348467e-03 7.348467e-03 1 -0.3979 0.3978)" width="63.3" height="76"/>
				</defs>
				<clipPath id="SVGID_4_">
					<use xlink:href="#SVGID_3_"  style="overflow:visible;"/>
				</clipPath>
				
					<rect x="22.3" y="16.4" transform="matrix(1 -3.674258e-03 3.674258e-03 1 -0.1995 0.1598)" class="st4" width="42.2" height="76"/>
			</g>
			<g>
				<defs>
					
						<rect id="SVGID_5_" x="22.3" y="16.3" transform="matrix(1 -7.348467e-03 7.348467e-03 1 -0.3977 0.3978)" width="63.3" height="76"/>
				</defs>
				<clipPath id="SVGID_6_">
					<use xlink:href="#SVGID_5_"  style="overflow:visible;"/>
				</clipPath>
				<rect x="22.3" y="16.5" transform="matrix(1 -3.674258e-03 3.674258e-03 1 -0.2 0.121)" class="st5" width="21.1" height="76"/>
			</g>
		</g>
	</g>
</g>
<circle class="st6" cx="53.4" cy="53.9" r="36.9"/>
</svg>
