<?xml version="1.0" encoding="utf-8"?>
<!-- Generator: Adobe Illustrator 23.0.0, SVG Export Plug-In . SVG Version: 6.00 Build 0)  -->
<svg version="1.1" id="Capa_1" xmlns="http://www.w3.org/2000/svg" xmlns:xlink="http://www.w3.org/1999/xlink" x="0px" y="0px"
	 viewBox="0 0 107.7 107.7" style="enable-background:new 0 0 107.7 107.7;" xml:space="preserve">
<style type="text/css">
	.st0{filter:url(#Adobe_OpacityMaskFilter);}
	.st1{fill:#FFFFFF;}
	.st2{mask:url(#SVGID_1_);}
	.st3{clip-path:url(#SVGID_3_);fill:#00AA5B;}
	.st4{fill:#F9D10B;}
	.st5{fill:#005E9E;}
	.st6{fill:#00A460;}
	.st7{fill:none;stroke:#0E9FDB;stroke-width:2;stroke-miterlimit:10;}
</style>
<defs>
	<filter id="Adobe_OpacityMaskFilter" filterUnits="userSpaceOnUse" x="13.1" y="25.9" width="80.4" height="57.4">
		<feColorMatrix  type="matrix" values="1 0 0 0 0  0 1 0 0 0  0 0 1 0 0  0 0 0 1 0"/>
	</filter>
</defs>
<mask maskUnits="userSpaceOnUse" x="13.1" y="25.9" width="80.4" height="57.4" id="SVGID_1_">
	<g class="st0">
		<ellipse class="st1" cx="52.9" cy="54.2" rx="27.8" ry="27.8"/>
	</g>
</mask>
<g class="st2">
	<g id="DENMARK_1_">
		<g>
			<g>
				<g>
					<g>
						<defs>
							
								<rect id="SVGID_2_" x="13.3" y="26.2" transform="matrix(1 -8.039325e-03 8.039325e-03 1 -0.4375 0.4304)" width="80" height="56.8"/>
						</defs>
						<clipPath id="SVGID_3_">
							<use xlink:href="#SVGID_2_"  style="overflow:visible;"/>
						</clipPath>
						
							<rect x="13.3" y="26.2" transform="matrix(1 -2.679823e-03 2.679823e-03 1 -0.1462 0.1431)" class="st3" width="80" height="56.8"/>
					</g>
				</g>
			</g>
		</g>
	</g>
	<g>
		<g>
			<polygon class="st4" points="53.5,74.8 20.9,54.5 53.5,34.2 86.1,54.5 			"/>
			<path class="st5" d="M67.1,54.5c0,7.5-6.1,13.6-13.6,13.6c-7.5,0-13.6-6.1-13.6-13.6C40,47,46,40.9,53.5,40.9
				C61,40.9,67.1,47,67.1,54.5z"/>
			<path class="st1" d="M49,49.6c-3.2-0.4-5.9-0.3-7.7-0.2c-0.4,0.8-0.8,1.7-1.1,2.7c1.3-0.2,4.5-0.6,8.5,0c4.5,0.6,11,2.5,17.5,7.7
				c0.3-0.9,0.4-1.8,0.5-2.7C60.2,52,53.6,50.2,49,49.6z"/>
			<g>
				<path class="st6" d="M43.5,50.5c0,0.3-0.1,0.5-0.4,0.5c-0.2,0-0.4-0.2-0.4-0.4c0-0.3,0.1-0.5,0.4-0.5
					C43.3,50.1,43.5,50.3,43.5,50.5z M43.7,50.5c0-0.3-0.1-0.6-0.6-0.6c-0.4,0-0.5,0.4-0.5,0.6c0,0.3,0.1,0.6,0.6,0.6
					C43.6,51.1,43.7,50.8,43.7,50.5z"/>
				<path class="st6" d="M44,50.1h0.4c0.1,0,0.2,0,0.2,0.2s-0.1,0.2-0.2,0.2H44L44,50.1z M44,50.6h0.4c0.2,0,0.2,0.1,0.2,0.2
					c0,0.1,0,0.2,0,0.3h0.2v0c0,0-0.1-0.1-0.1-0.1v-0.2c0-0.2-0.1-0.2-0.1-0.2c0.1,0,0.2-0.1,0.2-0.3c0-0.3-0.2-0.3-0.4-0.3h-0.5V51
					H44L44,50.6z"/>
				<path class="st6" d="M45.2,50.1h0.3c0.2,0,0.3,0.2,0.3,0.4S45.7,51,45.5,51h-0.3V50.1z M45,51.1h0.4c0.4,0,0.5-0.3,0.5-0.6
					c0-0.3-0.2-0.6-0.5-0.6H45L45,51.1z"/>
				<path class="st6" d="M47,51.2l-0.8-0.1l0.1-1.1l0.8,0.1v0.1l-0.7-0.1v0.3l0.6,0v0.1l-0.6,0l0,0.4l0.7,0V51.2z"/>
				<path class="st6" d="M48.1,51.3l0.1-0.7c0,0,0-0.2,0-0.3l0,0l-0.4,0.9l-0.1,0l-0.2-1h0c0,0.1,0,0.3,0,0.3l-0.1,0.7h-0.1l0.1-1.1
					l0.2,0l0.2,1l0,0l0.4-0.9l0.2,0l-0.1,1.1L48.1,51.3z"/>
				<path class="st6" d="M52.4,52.1l-0.8-0.2l0.3-1.1l0.8,0.2l0,0.2L51.9,51l-0.1,0.3l0.6,0.2l0,0.1l-0.6-0.2l-0.1,0.4l0.7,0.2
					L52.4,52.1z"/>
				<path class="st6" d="M55.6,52l0.3,0.1c0.1,0.1,0.2,0.1,0.2,0.3c-0.1,0.2-0.1,0.2-0.3,0.1l-0.3-0.1L55.6,52z M55.5,52.5l0.3,0.1
					c0.2,0.1,0.4-0.1,0.4-0.2c0.1-0.2,0-0.3-0.2-0.4l-0.5-0.2l-0.4,1.1l0.1,0.1L55.5,52.5z"/>
				<path class="st6" d="M56.7,52.4l0.4,0.1c0.1,0,0.2,0.1,0.1,0.3c-0.1,0.2-0.2,0.1-0.3,0.1l-0.3-0.1L56.7,52.4z M56.5,52.9
					l0.4,0.1c0.2,0.1,0.1,0.2,0.1,0.3c0,0.1-0.1,0.2-0.1,0.3l0.2,0.1l0,0c0-0.1,0-0.1,0-0.1l0.1-0.2c0-0.2,0-0.2-0.1-0.3
					c0.1,0,0.2,0,0.2-0.2c0.1-0.2-0.1-0.3-0.2-0.4l-0.5-0.2l-0.4,1l0.1,0.1L56.5,52.9z"/>
				<path class="st6" d="M58.2,53.5c-0.1,0.3-0.3,0.3-0.5,0.3c-0.2-0.1-0.3-0.3-0.2-0.6c0.1-0.3,0.3-0.4,0.5-0.3
					C58.2,53,58.3,53.2,58.2,53.5z M58.4,53.5c0.1-0.2,0.1-0.6-0.3-0.8s-0.6,0.1-0.7,0.3c-0.1,0.2-0.1,0.6,0.3,0.8
					C58,54,58.3,53.7,58.4,53.5z"/>
				<path class="st6" d="M59,53.8l0.4,0.2l-0.3,0.6l-0.1-0.1l0-0.2c-0.1,0.1-0.3,0.1-0.4,0c-0.1-0.1-0.2-0.2-0.2-0.3
					c-0.1-0.2,0-0.4,0-0.5c0.1-0.3,0.4-0.5,0.7-0.3c0.2,0.1,0.4,0.3,0.3,0.5l-0.1-0.1c0-0.2-0.1-0.3-0.2-0.4c-0.2-0.1-0.4,0-0.5,0.3
					c-0.1,0.2-0.1,0.5,0.1,0.6c0.1,0,0.1,0.1,0.2,0c0.1,0,0.2-0.1,0.2-0.2L59,53.8L59,53.8z"/>
				<path class="st6" d="M60,53.8l0.4,0.2c0.1,0,0.2,0.1,0.1,0.3c-0.1,0.2-0.2,0.1-0.3,0.1l-0.3-0.2L60,53.8z M59.8,54.2l0.3,0.2
					c0.2,0.1,0.1,0.2,0.1,0.3c0,0-0.1,0.2-0.1,0.3l0.1,0.1v0c0,0,0-0.1,0-0.1l0.1-0.2c0.1-0.1,0-0.2,0-0.3c0.1,0,0.2,0,0.3-0.2
					c0.1-0.2,0-0.3-0.2-0.4l-0.5-0.2l-0.5,1l0.1,0.1L59.8,54.2z"/>
				<path class="st6" d="M61.2,55.5l-0.7-0.4l0.5-1l0.7,0.4l-0.1,0.1L61,54.3l-0.2,0.3l0.5,0.3L61.3,55l-0.6-0.3l-0.2,0.3l0.6,0.3
					L61.2,55.5z"/>
				<path class="st6" d="M62.3,55.3c0.1-0.2,0-0.3-0.1-0.3c-0.1-0.1-0.2-0.1-0.3,0c-0.1,0.1,0,0.1,0.1,0.2l0.2,0.2
					c0.1,0.1,0.1,0.2,0.1,0.4c-0.1,0.2-0.4,0.2-0.5,0.1c-0.2-0.1-0.2-0.2-0.3-0.3c0-0.1,0-0.2,0.1-0.3l0.1,0.1
					c-0.1,0.2,0,0.3,0.1,0.4c0.1,0.1,0.2,0.1,0.4,0c0.1-0.1,0-0.2-0.1-0.3l-0.2-0.2c-0.1-0.1-0.2-0.2-0.1-0.3s0.3-0.3,0.5-0.1
					c0.4,0.2,0.3,0.4,0.2,0.5L62.3,55.3z"/>
				<path class="st6" d="M63.2,55.8c0.1-0.2,0-0.3-0.1-0.3c-0.1-0.1-0.2-0.1-0.3,0c-0.1,0.1,0,0.2,0.1,0.2l0.2,0.3
					c0.1,0.1,0.1,0.3,0.1,0.4c-0.1,0.2-0.4,0.2-0.6,0.1c-0.2-0.1-0.2-0.2-0.2-0.3c0-0.1,0-0.2,0.1-0.3l0.1,0.1
					c-0.1,0.2,0,0.3,0.1,0.4c0.1,0.1,0.3,0.1,0.4,0c0.1-0.1,0-0.2-0.1-0.3l-0.2-0.2c0,0-0.1-0.2-0.1-0.3s0.3-0.3,0.5-0.1
					c0.3,0.2,0.2,0.4,0.2,0.5L63.2,55.8z"/>
				<path class="st6" d="M64.2,56.7c-0.1,0.2-0.4,0.3-0.6,0.2c-0.2-0.1-0.2-0.4-0.1-0.6s0.4-0.3,0.6-0.2
					C64.3,56.2,64.3,56.5,64.2,56.7z M64.3,56.8c0.1-0.2,0.2-0.6-0.1-0.8c-0.4-0.2-0.7,0-0.8,0.2c-0.1,0.2-0.2,0.6,0.1,0.8
					C63.9,57.2,64.2,57,64.3,56.8z"/>
			</g>
			<g>
				<polygon class="st1" points="57.2,45.7 57.3,46.3 57.9,46.3 57.5,46.6 57.6,47.2 57.2,46.8 56.7,47.2 56.8,46.6 56.4,46.3 
					57,46.3 				"/>
				<polygon class="st1" points="47.8,52.1 47.9,52.5 48.3,52.5 48,52.7 48.1,53.1 47.8,52.8 47.5,53 47.6,52.7 47.3,52.5 
					47.7,52.5 				"/>
				<polygon class="st1" points="42,48.9 42.2,49.4 42.7,49.4 42.3,49.7 42.4,50.3 42,49.9 41.6,50.3 41.7,49.7 41.3,49.4 
					41.8,49.4 				"/>
				<polygon class="st1" points="44.4,53.8 44.6,54.3 45,54.3 44.7,54.6 44.8,55 44.4,54.8 44,55 44.2,54.6 43.8,54.3 44.3,54.3 
									"/>
				<polygon class="st1" points="43.3,54.5 43.5,55.1 44.1,55.1 43.6,55.5 43.8,56.1 43.3,55.7 42.8,56.1 43,55.5 42.4,55.1 
					43.1,55.1 				"/>
				<polygon class="st1" points="41.8,56.1 41.9,56.4 42.3,56.4 42,56.7 42.1,56.9 41.8,56.8 41.6,57 41.7,56.7 41.4,56.4 
					41.7,56.4 				"/>
				<polygon class="st1" points="45.9,56 46.1,56.4 46.5,56.4 46.2,56.7 46.3,57.1 46,56.8 45.6,57.1 45.7,56.7 45.4,56.4 
					45.8,56.4 				"/>
				<polygon class="st1" points="45.7,57.6 45.8,58 46.2,58 45.9,58.3 46,58.7 45.7,58.4 45.4,58.7 45.5,58.3 45.2,58 45.6,58 				
					"/>
				<polygon class="st1" points="47.5,58.8 47.7,59.4 48.3,59.4 47.8,59.7 48,60.2 47.5,59.9 47,60.2 47.2,59.7 46.8,59.4 
					47.3,59.4 				"/>
				<polygon class="st1" points="53.3,57.5 53.4,58.1 54.1,58.1 53.6,58.5 53.8,59.1 53.3,58.7 52.8,59.1 52.9,58.5 52.4,58.1 
					53.1,58.1 				"/>
				<polygon class="st1" points="52.6,56.1 52.6,56.3 52.9,56.3 52.7,56.4 52.8,56.6 52.6,56.5 52.4,56.6 52.5,56.4 52.3,56.3 
					52.5,56.3 				"/>
				<polygon class="st1" points="51.4,55.1 51.6,55.5 52,55.5 51.7,55.7 51.8,56.1 51.5,55.8 51.2,56.1 51.3,55.7 51,55.5 
					51.4,55.5 				"/>
				<polygon class="st1" points="53.4,53.6 53.6,54.1 54,54.1 53.7,54.4 53.8,54.8 53.4,54.5 53,54.8 53.2,54.4 52.8,54.1 
					53.3,54.1 				"/>
				<polygon class="st1" points="56.5,50.5 56.6,50.9 57,50.9 56.7,51.2 56.8,51.6 56.5,51.3 56.2,51.6 56.3,51.2 56,50.9 
					56.4,50.9 				"/>
				<polygon class="st1" points="54.7,55 54.9,55.5 55.4,55.5 55,55.8 55.1,56.2 54.7,56 54.3,56.2 54.5,55.8 54.1,55.5 54.6,55.5 
									"/>
				<polygon class="st1" points="56.2,58.8 56.5,59.4 57.2,59.4 56.6,59.8 56.8,60.5 56.3,60.1 55.7,60.5 55.9,59.8 55.4,59.4 
					56.1,59.4 				"/>
				<polygon class="st1" points="57.3,61 57.5,61.5 58,61.5 57.6,61.8 57.8,62.3 57.3,62 56.9,62.3 57.1,61.8 56.7,61.5 57.2,61.5 
									"/>
				<polygon class="st1" points="58.5,59.5 58.6,59.9 59,59.9 58.7,60.1 58.9,60.6 58.5,60.3 58.1,60.6 58.3,60.1 57.9,59.9 
					58.4,59.9 				"/>
				<polygon class="st1" points="60.1,58.5 60.3,59 60.8,59 60.4,59.3 60.5,59.7 60.1,59.4 59.7,59.7 59.9,59.3 59.5,59 60,59 				
					"/>
				<polygon class="st1" points="60.2,60.7 60.3,61.1 60.7,61 60.4,61.3 60.5,61.7 60.2,61.4 59.8,61.7 60,61.3 59.6,61.1 
					60.1,61.1 				"/>
				<polygon class="st1" points="60.1,62 60.2,62.3 60.6,62.4 60.3,62.6 60.4,62.9 60.1,62.7 59.9,62.9 60,62.6 59.7,62.4 60,62.3 
									"/>
				<polygon class="st1" points="61.5,59 61.7,59.5 62.2,59.5 61.8,59.9 62,60.4 61.5,60.1 61,60.4 61.2,59.9 60.8,59.5 61.3,59.5 
									"/>
				<polygon class="st1" points="63.1,58.9 63.2,59.2 63.5,59.2 63.2,59.4 63.4,59.8 63.1,59.6 62.8,59.8 62.9,59.4 62.6,59.2 
					62.9,59.2 				"/>
				<polygon class="st1" points="63.7,57.9 63.8,58.1 64,58.1 63.8,58.3 63.9,58.6 63.7,58.4 63.4,58.6 63.5,58.3 63.3,58.1 
					63.6,58.1 				"/>
				<polygon class="st1" points="62.9,56 63,56.3 63.3,56.3 63.1,56.5 63.2,56.8 62.9,56.7 62.6,56.8 62.7,56.5 62.4,56.3 
					62.8,56.3 				"/>
				<polygon class="st1" points="64.9,55.7 65.1,56.3 65.7,56.3 65.2,56.6 65.4,57.2 64.9,56.8 64.5,57.2 64.6,56.6 64.1,56.3 
					64.7,56.3 				"/>
				<polygon class="st1" points="53.4,62.4 53.5,62.8 53.9,62.8 53.6,63 53.7,63.3 53.4,63.1 53.1,63.3 53.2,63 52.9,62.8 
					53.3,62.7 				"/>
			</g>
		</g>
	</g>
</g>
<circle class="st7" cx="53.4" cy="53.9" r="36.9"/>
</svg>
