<?xml version="1.0" encoding="utf-8"?>
<!-- Generator: Adobe Illustrator 23.0.0, SVG Export Plug-In . SVG Version: 6.00 Build 0)  -->
<svg version="1.1" id="Capa_1" xmlns="http://www.w3.org/2000/svg" xmlns:xlink="http://www.w3.org/1999/xlink" x="0px" y="0px"
	 viewBox="0 0 107.7 107.7" style="enable-background:new 0 0 107.7 107.7;" xml:space="preserve">
<style type="text/css">
	.st0{filter:url(#Adobe_OpacityMaskFilter);}
	.st1{fill:#FFFFFF;}
	.st2{mask:url(#SVGID_1_);}
	.st3{fill-rule:evenodd;clip-rule:evenodd;fill:#CA0000;}
	.st4{fill-rule:evenodd;clip-rule:evenodd;fill:#007300;}
	.st5{fill-rule:evenodd;clip-rule:evenodd;fill:#FFFFFF;}
	.st6{fill:none;stroke:#0E9FDB;stroke-width:2;stroke-miterlimit:10;}
</style>
<defs>
	<filter id="Adobe_OpacityMaskFilter" filterUnits="userSpaceOnUse" x="7.6" y="25.3" width="90.4" height="57.8">
		<feColorMatrix  type="matrix" values="1 0 0 0 0  0 1 0 0 0  0 0 1 0 0  0 0 0 1 0"/>
	</filter>
</defs>
<mask maskUnits="userSpaceOnUse" x="7.6" y="25.3" width="90.4" height="57.8" id="SVGID_1_">
	<g class="st0">
		<circle class="st1" cx="53" cy="54.3" r="28"/>
	</g>
</mask>
<g class="st2">
	<rect id="rect564" x="7.6" y="25.3" class="st3" width="90.3" height="57.6"/>
	<path id="path691" class="st4" d="M97.9,32.5l-0.1-7.2l-11,0.1L7.6,75.6l0,7.4l11,0L97.9,32.5L97.9,32.5L97.9,32.5z"/>
	<path id="path568" class="st4" d="M7.6,32.5l0.1-7.2l11,0.1l79.2,50.1l0,7.4l-11,0L7.6,32.5L7.6,32.5L7.6,32.5z"/>
	<rect id="rect566" x="7.6" y="48.6" class="st5" width="90.4" height="11.6"/>
	<rect id="rect1217" x="46.7" y="25.3" class="st5" width="12.1" height="57.8"/>
</g>
<circle class="st6" cx="53.4" cy="53.9" r="36.9"/>
</svg>
