<?xml version="1.0" encoding="utf-8"?>
<!-- Generator: Adobe Illustrator 23.0.0, SVG Export Plug-In . SVG Version: 6.00 Build 0)  -->
<svg version="1.1" id="Capa_1" xmlns="http://www.w3.org/2000/svg" xmlns:xlink="http://www.w3.org/1999/xlink" x="0px" y="0px"
	 viewBox="0 0 107.7 107.7" style="enable-background:new 0 0 107.7 107.7;" xml:space="preserve">
<style type="text/css">
	.st0{filter:url(#Adobe_OpacityMaskFilter);}
	.st1{fill:#FFFFFF;}
	.st2{mask:url(#SVGID_1_);}
	.st3{fill:#0D5EAF;}
	.st4{opacity:0.4;fill:url(#SVGID_2_);}
	.st5{fill:none;stroke:#0E9FDB;stroke-width:2;stroke-miterlimit:10;}
</style>
<defs>
	<filter id="Adobe_OpacityMaskFilter" filterUnits="userSpaceOnUse" x="17.1" y="23.3" width="100.4" height="60.7">
		<feColorMatrix  type="matrix" values="1 0 0 0 0  0 1 0 0 0  0 0 1 0 0  0 0 0 1 0"/>
	</filter>
</defs>
<mask maskUnits="userSpaceOnUse" x="17.1" y="23.3" width="100.4" height="60.7" id="SVGID_1_">
	<g class="st0">
		<circle class="st1" cx="53.6" cy="53.7" r="30.2"/>
	</g>
</mask>
<g class="st2">
	<rect x="17.1" y="23.3" class="st3" width="100.4" height="60.6"/>
	<g>
		<g>
			<rect x="19.9" y="23.3" class="st3" width="97.7" height="6.7"/>
			<rect x="19.9" y="30" class="st1" width="97.7" height="6.7"/>
			<rect x="19.9" y="36.8" class="st3" width="97.7" height="6.7"/>
			<rect x="19.9" y="43.5" class="st1" width="97.7" height="6.7"/>
			<rect x="19.9" y="50.3" class="st3" width="97.7" height="6.7"/>
			<rect x="19.9" y="57" class="st1" width="97.7" height="6.7"/>
			<rect x="19.9" y="63.7" class="st3" width="97.7" height="6.7"/>
			<rect x="19.9" y="70.5" class="st1" width="97.7" height="6.7"/>
			<rect x="19.9" y="77.2" class="st3" width="97.7" height="6.7"/>
		</g>
		<rect x="19.9" y="23.3" class="st3" width="33.7" height="33.7"/>
		<rect x="19.9" y="36.8" class="st1" width="33.7" height="6.7"/>
		<rect x="33.3" y="23.3" class="st1" width="6.7" height="34.7"/>
	</g>
	
		<linearGradient id="SVGID_2_" gradientUnits="userSpaceOnUse" x1="-946.577" y1="53.3325" x2="-935.9625" y2="53.3325" gradientTransform="matrix(1 0 0 1 966.4284 0)">
		<stop  offset="0" style="stop-color:#808080"/>
		<stop  offset="0.6606" style="stop-color:#FFFFFF"/>
	</linearGradient>
	<rect x="19.9" y="23.3" class="st4" width="10.6" height="60.1"/>
</g>
<circle class="st5" cx="53.4" cy="53.9" r="36.9"/>
</svg>
