<?xml version="1.0" encoding="utf-8"?>
<!-- Generator: Adobe Illustrator 23.0.0, SVG Export Plug-In . SVG Version: 6.00 Build 0)  -->
<svg version="1.1" id="Capa_1" xmlns="http://www.w3.org/2000/svg" xmlns:xlink="http://www.w3.org/1999/xlink" x="0px" y="0px"
	 viewBox="0 0 107.7 107.7" style="enable-background:new 0 0 107.7 107.7;" xml:space="preserve">
<style type="text/css">
	.st0{filter:url(#Adobe_OpacityMaskFilter);}
	.st1{fill:#FFFFFF;}
	.st2{mask:url(#SVGID_1_);}
	.st3{fill:#002B7F;}
	.st4{fill:#CE1126;}
	.st5{fill:#FFD83D;}
	.st6{fill:none;stroke:#0E9FDB;stroke-width:2;stroke-miterlimit:10;}
</style>
<defs>
	<filter id="Adobe_OpacityMaskFilter" filterUnits="userSpaceOnUse" x="20.6" y="20.7" width="105" height="63.3">
		<feColorMatrix  type="matrix" values="1 0 0 0 0  0 1 0 0 0  0 0 1 0 0  0 0 0 1 0"/>
	</filter>
</defs>
<mask maskUnits="userSpaceOnUse" x="20.6" y="20.7" width="105" height="63.3" id="SVGID_1_">
	<g class="st0">
		<circle class="st1" cx="53.6" cy="53.7" r="30.2"/>
	</g>
</mask>
<g class="st2">
	<rect x="20.6" y="20.7" class="st1" width="105" height="63.3"/>
	<rect x="22.1" y="20.7" class="st3" width="103.6" height="31.9"/>
	<rect x="22.1" y="52.5" class="st4" width="103.6" height="31.5"/>
	<g>
		<g id="half_3_">
			<g>
				<path class="st5" d="M53.3,34.8l-0.2,6.5h-6.6c-0.8-1.6-1.5-2.9-1.5-4.8c0-1.5,1.2-2.7,2.9-2.7C49.8,33.8,51.8,34.4,53.3,34.8z"
					/>
			</g>
			<g>
				<g>
					<path class="st5" d="M45.8,35.1v3.8"/>
					<path d="M45.8,38.9C45.8,38.9,45.7,38.9,45.8,38.9l-0.1-3.8c0,0,0-0.1,0.1-0.1c0,0,0.1,0,0.1,0.1L45.8,38.9
						C45.9,38.9,45.9,38.9,45.8,38.9z"/>
				</g>
				<g>
					<path class="st5" d="M46.3,34.7v5"/>
					<path d="M46.3,39.8C46.3,39.8,46.3,39.8,46.3,39.8l-0.1-5.1c0,0,0-0.1,0.1-0.1c0,0,0.1,0,0.1,0.1L46.3,39.8
						C46.4,39.8,46.4,39.8,46.3,39.8z"/>
				</g>
				<g>
					<path class="st5" d="M46.9,34.4v6"/>
					<path d="M46.9,40.5C46.8,40.5,46.8,40.5,46.9,40.5l-0.1-6.1c0,0,0-0.1,0.1-0.1c0,0,0.1,0,0.1,0.1L46.9,40.5
						C47,40.5,46.9,40.5,46.9,40.5z"/>
				</g>
				<g>
					<path class="st5" d="M47.4,34.3V39"/>
					<path d="M47.4,39.1C47.4,39.1,47.3,39.1,47.4,39.1l-0.1-4.8c0,0,0-0.1,0.1-0.1c0,0,0.1,0,0.1,0.1L47.4,39.1
						C47.5,39.1,47.4,39.1,47.4,39.1z"/>
				</g>
				<g>
					<path class="st5" d="M47.9,34.3V39"/>
					<path d="M47.9,39.1C47.9,39.1,47.9,39.1,47.9,39.1l-0.1-4.8c0,0,0-0.1,0.1-0.1c0,0,0.1,0,0.1,0.1L47.9,39.1
						C48,39.1,48,39.1,47.9,39.1z"/>
				</g>
				<g>
					<path class="st5" d="M48.5,34.1V39"/>
					<path d="M48.5,39.1C48.4,39.1,48.4,39.1,48.5,39.1l-0.1-5c0,0,0-0.1,0.1-0.1c0,0,0.1,0,0.1,0.1L48.5,39.1
						C48.5,39.1,48.5,39.1,48.5,39.1z"/>
				</g>
				<g>
					<path class="st5" d="M49,34.1V39"/>
					<path d="M49,39.1C49,39.1,48.9,39.1,49,39.1l-0.1-5c0,0,0-0.1,0.1-0.1s0.1,0,0.1,0.1L49,39.1C49.1,39.1,49,39.1,49,39.1z"/>
				</g>
				<g>
					<path class="st5" d="M49.5,34.2v4.9"/>
					<path d="M49.5,39.2C49.5,39.2,49.5,39.1,49.5,39.2l-0.1-5c0,0,0-0.1,0.1-0.1c0,0,0.1,0,0.1,0.1L49.5,39.2
						C49.6,39.1,49.6,39.2,49.5,39.2z"/>
				</g>
				<g>
					<path class="st5" d="M50.1,34.2v4.9"/>
					<path d="M50.1,39.2C50,39.2,50,39.2,50.1,39.2l-0.1-5c0,0,0-0.1,0.1-0.1c0,0,0.1,0,0.1,0.1L50.1,39.2
						C50.1,39.2,50.1,39.2,50.1,39.2z"/>
				</g>
				<g>
					<path class="st5" d="M50.6,34.5v4.9"/>
					<path d="M50.6,39.5C50.6,39.5,50.5,39.5,50.6,39.5l-0.1-5c0,0,0-0.1,0.1-0.1c0,0,0.1,0,0.1,0.1L50.6,39.5
						C50.7,39.5,50.6,39.5,50.6,39.5z"/>
				</g>
				<g>
					<path class="st5" d="M51.1,34.6v5.5"/>
					<path d="M51.1,40.2C51.1,40.2,51.1,40.2,51.1,40.2l-0.1-5.6c0,0,0-0.1,0.1-0.1c0,0,0.1,0,0.1,0.1L51.1,40.2
						C51.2,40.2,51.2,40.2,51.1,40.2z"/>
				</g>
				<g>
					<path class="st5" d="M51.7,34.6v4.9"/>
					<path d="M51.7,39.6C51.6,39.6,51.6,39.5,51.7,39.6l-0.1-5c0,0,0-0.1,0.1-0.1c0,0,0.1,0,0.1,0.1L51.7,39.6
						C51.7,39.5,51.7,39.6,51.7,39.6z"/>
				</g>
				<g>
					<path class="st5" d="M52.2,34.6v4.9"/>
					<path d="M52.2,39.6C52.2,39.6,52.1,39.5,52.2,39.6l-0.1-5c0,0,0-0.1,0.1-0.1c0,0,0.1,0,0.1,0.1L52.2,39.6
						C52.3,39.5,52.2,39.6,52.2,39.6z"/>
				</g>
				<g>
					<path d="M49.1,34.3c1.1,0.2,3.6,1.3,3.3,2.9c-0.4,2.2-1.7,1.3-3.4,1l-1.3,0.4c-0.5,0.5-1.1,0.9-1.6,0.3h-0.8v3h8.5v-7.3
						L49.1,34.3z"/>
					<path d="M53.9,42.1h-8.5c0,0-0.1,0-0.1-0.1v-3c0,0,0-0.1,0.1-0.1h0.8c0,0,0,0,0.1,0c0.1,0.2,0.3,0.2,0.5,0.2h0
						c0.4,0,0.8-0.4,1-0.6c0,0,0,0,0,0l1.3-0.4c0,0,0,0,0,0c0.3,0.1,0.6,0.1,0.9,0.2c0.5,0.1,0.9,0.2,1.2,0.2h0c0.5,0,1-0.2,1.2-1.4
						c0.1-0.4,0-0.8-0.3-1.1c-0.7-0.9-2.2-1.6-3-1.7c0,0-0.1,0-0.1-0.1c0,0,0-0.1,0.1-0.1l4.7,0.4c0,0,0.1,0,0.1,0.1L53.9,42.1
						C54,42.1,53.9,42.1,53.9,42.1z M45.5,41.9h8.3v-7.1L50,34.5c0.8,0.3,1.7,0.8,2.2,1.5c0.3,0.4,0.4,0.8,0.3,1.2
						c-0.2,1.1-0.6,1.5-1.3,1.5h0c-0.4,0-0.8-0.1-1.2-0.2c-0.3-0.1-0.6-0.2-0.9-0.2l-1.3,0.4c-0.2,0.2-0.7,0.6-1.1,0.6c0,0,0,0,0,0
						c-0.2,0-0.4-0.1-0.6-0.3h-0.7V41.9z"/>
				</g>
			</g>
			<g>
				<path class="st5" d="M53,33.3c0.3,0,0.5,0.2,0.5,0.5c0,0.3-0.2,0.5-0.5,0.5c-0.3,0-0.5-0.2-0.5-0.5C52.4,33.5,52.7,33.3,53,33.3
					z"/>
				<path d="M53,34.4c-0.3,0-0.6-0.3-0.6-0.6c0-0.3,0.3-0.6,0.6-0.6c0.3,0,0.6,0.3,0.6,0.6C53.6,34.2,53.3,34.4,53,34.4z M53,33.4
					c-0.2,0-0.4,0.2-0.4,0.4s0.2,0.4,0.4,0.4s0.4-0.2,0.4-0.4S53.2,33.4,53,33.4z"/>
			</g>
			<g>
				<circle class="st5" cx="51.8" cy="33.5" r="0.5"/>
				<path d="M51.8,34.2c-0.3,0-0.6-0.3-0.6-0.6s0.3-0.6,0.6-0.6c0.3,0,0.6,0.3,0.6,0.6S52.1,34.2,51.8,34.2z M51.8,33.1
					c-0.2,0-0.4,0.2-0.4,0.4c0,0.2,0.2,0.4,0.4,0.4c0.2,0,0.4-0.2,0.4-0.4C52.2,33.3,52,33.1,51.8,33.1z"/>
			</g>
			<g>
				<circle class="st5" cx="50.6" cy="33.2" r="0.5"/>
				<path d="M50.6,33.9c-0.3,0-0.6-0.3-0.6-0.6s0.3-0.6,0.6-0.6s0.6,0.3,0.6,0.6S51,33.9,50.6,33.9z M50.6,32.8
					c-0.2,0-0.4,0.2-0.4,0.4c0,0.2,0.2,0.4,0.4,0.4c0.2,0,0.4-0.2,0.4-0.4C51,33,50.8,32.8,50.6,32.8z"/>
			</g>
			<g>
				<path class="st5" d="M49.4,32.5c0.3,0,0.5,0.2,0.5,0.5c0,0.3-0.2,0.5-0.5,0.5c-0.3,0-0.5-0.2-0.5-0.5
					C48.9,32.8,49.1,32.5,49.4,32.5z"/>
				<path d="M49.4,33.7c-0.3,0-0.6-0.3-0.6-0.6s0.3-0.6,0.6-0.6c0.3,0,0.6,0.3,0.6,0.6S49.8,33.7,49.4,33.7z M49.4,32.6
					c-0.2,0-0.4,0.2-0.4,0.4c0,0.2,0.2,0.4,0.4,0.4c0.2,0,0.4-0.2,0.4-0.4C49.8,32.8,49.7,32.6,49.4,32.6z"/>
			</g>
			<g>
				<circle class="st5" cx="48.3" cy="32.9" r="0.5"/>
				<path d="M48.3,33.6c-0.3,0-0.6-0.3-0.6-0.6c0-0.3,0.3-0.6,0.6-0.6s0.6,0.3,0.6,0.6C48.9,33.3,48.6,33.6,48.3,33.6z M48.3,32.5
					c-0.2,0-0.4,0.2-0.4,0.4c0,0.2,0.2,0.4,0.4,0.4c0.2,0,0.4-0.2,0.4-0.4C48.7,32.7,48.5,32.5,48.3,32.5z"/>
			</g>
			<g>
				<path class="st5" d="M47.1,32.5c0.3,0,0.5,0.2,0.5,0.5c0,0.3-0.2,0.5-0.5,0.5c-0.3,0-0.5-0.2-0.5-0.5
					C46.6,32.7,46.8,32.5,47.1,32.5z"/>
				<path d="M47.1,33.6c-0.3,0-0.6-0.3-0.6-0.6s0.3-0.6,0.6-0.6c0.3,0,0.6,0.3,0.6,0.6S47.4,33.6,47.1,33.6z M47.1,32.6
					c-0.2,0-0.4,0.2-0.4,0.4c0,0.2,0.2,0.4,0.4,0.4c0.2,0,0.4-0.2,0.4-0.4C47.5,32.8,47.3,32.6,47.1,32.6z"/>
			</g>
			<g>
				<circle class="st5" cx="46" cy="33.4" r="0.5"/>
				<path d="M46,34c-0.3,0-0.6-0.3-0.6-0.6c0-0.3,0.3-0.6,0.6-0.6s0.6,0.3,0.6,0.6C46.6,33.7,46.3,34,46,34z M46,33
					c-0.2,0-0.4,0.2-0.4,0.4s0.2,0.4,0.4,0.4c0.2,0,0.4-0.2,0.4-0.4S46.2,33,46,33z"/>
			</g>
			<g>
				<path class="st5" d="M45.1,33.5c0.3,0,0.5,0.2,0.5,0.5s-0.2,0.5-0.5,0.5c-0.3,0-0.5-0.2-0.5-0.5S44.8,33.5,45.1,33.5z"/>
				<path d="M45.1,34.7c-0.3,0-0.6-0.3-0.6-0.6s0.3-0.6,0.6-0.6c0.3,0,0.6,0.3,0.6,0.6S45.4,34.7,45.1,34.7z M45.1,33.6
					c-0.2,0-0.4,0.2-0.4,0.4s0.2,0.4,0.4,0.4c0.2,0,0.4-0.2,0.4-0.4S45.3,33.6,45.1,33.6z"/>
			</g>
			<g>
				<circle class="st5" cx="44.4" cy="35" r="0.5"/>
				<path d="M44.4,35.6c-0.3,0-0.6-0.3-0.6-0.6s0.3-0.6,0.6-0.6S45,34.7,45,35S44.7,35.6,44.4,35.6z M44.4,34.6
					c-0.2,0-0.4,0.2-0.4,0.4c0,0.2,0.2,0.4,0.4,0.4s0.4-0.2,0.4-0.4C44.8,34.8,44.6,34.6,44.4,34.6z"/>
			</g>
			<g>
				<path class="st5" d="M44.1,35.6c0.3,0,0.5,0.2,0.5,0.5c0,0.3-0.2,0.5-0.5,0.5c-0.3,0-0.5-0.2-0.5-0.5
					C43.6,35.9,43.8,35.6,44.1,35.6z"/>
				<path d="M44.1,36.8c-0.3,0-0.6-0.3-0.6-0.6c0-0.3,0.3-0.6,0.6-0.6c0.3,0,0.6,0.3,0.6,0.6C44.7,36.5,44.4,36.8,44.1,36.8z
					 M44.1,35.7c-0.2,0-0.4,0.2-0.4,0.4c0,0.2,0.2,0.4,0.4,0.4c0.2,0,0.4-0.2,0.4-0.4C44.5,35.9,44.3,35.7,44.1,35.7z"/>
			</g>
			<g>
				<circle class="st5" cx="44.1" cy="37.3" r="0.5"/>
				<path d="M44.1,37.9c-0.3,0-0.6-0.3-0.6-0.6c0-0.3,0.3-0.6,0.6-0.6c0.3,0,0.6,0.3,0.6,0.6C44.7,37.6,44.4,37.9,44.1,37.9z
					 M44.1,36.9c-0.2,0-0.4,0.2-0.4,0.4c0,0.2,0.2,0.4,0.4,0.4s0.4-0.2,0.4-0.4C44.5,37.1,44.3,36.9,44.1,36.9z"/>
			</g>
			<g>
				<circle class="st5" cx="44.3" cy="38.4" r="0.5"/>
				<path d="M44.3,39.1c-0.3,0-0.6-0.3-0.6-0.6s0.3-0.6,0.6-0.6s0.6,0.3,0.6,0.6S44.7,39.1,44.3,39.1z M44.3,38
					c-0.2,0-0.4,0.2-0.4,0.4c0,0.2,0.2,0.4,0.4,0.4s0.4-0.2,0.4-0.4C44.7,38.2,44.5,38,44.3,38z"/>
			</g>
			<g>
				<path class="st5" d="M53.2,34.5l0,0.7c-1.3-0.2-3.1-0.9-4.8-0.9c-1.6,0-2.8,0.6-2.8,2.2c0,1.6,0.7,3,1.5,4.4l-0.9,0.4
					c-0.8-1.6-1.5-2.9-1.5-4.8c0-1.5,1.2-3,3.3-3C49.8,33.5,51.6,34.2,53.2,34.5z"/>
				<path d="M46.2,41.4C46.1,41.4,46.1,41.4,46.2,41.4c-0.9-1.6-1.6-3-1.6-4.9c0-1.5,1.2-3.1,3.4-3.1c1.4,0,2.8,0.4,4.1,0.7
					c0.4,0.1,0.8,0.2,1.1,0.3c0.1,0,0.1,0.1,0.1,0.1l0,0.7c0,0,0,0.1,0,0.1c0,0-0.1,0-0.1,0c-0.5-0.1-1-0.2-1.6-0.4
					c-1-0.3-2.1-0.6-3.2-0.6c-1,0-2.7,0.3-2.7,2.1c0,1.6,0.8,3.1,1.5,4.4c0,0,0,0.1,0,0.1c0,0,0,0.1-0.1,0.1L46.2,41.4
					C46.2,41.4,46.2,41.4,46.2,41.4z M47.9,33.6c-2.1,0-3.2,1.5-3.2,2.9c0,1.8,0.7,3.2,1.4,4.6l0.7-0.3c-0.7-1.2-1.5-2.7-1.5-4.4
					c0-1.5,1.1-2.3,2.9-2.3c1.1,0,2.3,0.3,3.3,0.6c0.5,0.1,1,0.3,1.4,0.3l0-0.5c-0.3-0.1-0.7-0.2-1.1-0.3
					C50.8,34,49.3,33.6,47.9,33.6z"/>
			</g>
		</g>
		<g transform="translate(443.9375) scale(-1,1)">
			<g id="half_2_">
				<g>
					<path class="st5" d="M54.5,34.8l0.2,6.5h6.6c0.8-1.6,1.5-2.9,1.5-4.8c0-1.5-1.2-2.7-2.9-2.7C58,33.8,56,34.4,54.5,34.8z"/>
				</g>
				<g>
					<g>
						<path class="st5" d="M62,35.1v3.8"/>
						<path d="M62,38.9C62,38.9,61.9,38.9,62,38.9l-0.1-3.8c0,0,0-0.1,0.1-0.1c0,0,0.1,0,0.1,0.1L62,38.9C62.1,38.9,62,38.9,62,38.9
							z"/>
					</g>
					<g>
						<path class="st5" d="M61.5,34.7v5"/>
						<path d="M61.5,39.8C61.4,39.8,61.4,39.8,61.5,39.8l-0.1-5.1c0,0,0-0.1,0.1-0.1s0.1,0,0.1,0.1L61.5,39.8
							C61.6,39.8,61.5,39.8,61.5,39.8z"/>
					</g>
					<g>
						<path class="st5" d="M60.9,34.4v6"/>
						<path d="M60.9,40.5C60.9,40.5,60.9,40.5,60.9,40.5l-0.1-6.1c0,0,0-0.1,0.1-0.1c0,0,0.1,0,0.1,0.1L60.9,40.5
							C61,40.5,61,40.5,60.9,40.5z"/>
					</g>
					<g>
						<path class="st5" d="M60.4,34.3V39"/>
						<path d="M60.4,39.1C60.4,39.1,60.3,39.1,60.4,39.1l-0.1-4.8c0,0,0-0.1,0.1-0.1c0,0,0.1,0,0.1,0.1L60.4,39.1
							C60.5,39.1,60.5,39.1,60.4,39.1z"/>
					</g>
					<g>
						<path class="st5" d="M59.9,34.3V39"/>
						<path d="M59.9,39.1C59.8,39.1,59.8,39.1,59.9,39.1l-0.1-4.8c0,0,0-0.1,0.1-0.1c0,0,0.1,0,0.1,0.1L59.9,39.1
							C60,39.1,59.9,39.1,59.9,39.1z"/>
					</g>
					<g>
						<path class="st5" d="M59.3,34.1V39"/>
						<path d="M59.3,39.1C59.3,39.1,59.3,39.1,59.3,39.1l-0.1-5c0,0,0-0.1,0.1-0.1c0,0,0.1,0,0.1,0.1L59.3,39.1
							C59.4,39.1,59.4,39.1,59.3,39.1z"/>
					</g>
					<g>
						<path class="st5" d="M58.8,34.1V39"/>
						<path d="M58.8,39.1C58.8,39.1,58.7,39.1,58.8,39.1l-0.1-5c0,0,0-0.1,0.1-0.1s0.1,0,0.1,0.1L58.8,39.1
							C58.9,39.1,58.9,39.1,58.8,39.1z"/>
					</g>
					<g>
						<path class="st5" d="M58.3,34.2v4.9"/>
						<path d="M58.3,39.2C58.2,39.2,58.2,39.1,58.3,39.2l-0.1-5c0,0,0-0.1,0.1-0.1c0,0,0.1,0,0.1,0.1L58.3,39.2
							C58.4,39.1,58.3,39.2,58.3,39.2z"/>
					</g>
					<g>
						<path class="st5" d="M57.7,34.2v4.9"/>
						<path d="M57.7,39.2C57.7,39.2,57.7,39.2,57.7,39.2l-0.1-5c0,0,0-0.1,0.1-0.1c0,0,0.1,0,0.1,0.1L57.7,39.2
							C57.8,39.2,57.8,39.2,57.7,39.2z"/>
					</g>
					<g>
						<path class="st5" d="M57.2,34.5v4.9"/>
						<path d="M57.2,39.5C57.2,39.5,57.1,39.5,57.2,39.5l-0.1-5c0,0,0-0.1,0.1-0.1c0,0,0.1,0,0.1,0.1L57.2,39.5
							C57.3,39.5,57.3,39.5,57.2,39.5z"/>
					</g>
					<g>
						<path class="st5" d="M56.7,34.6v5.5"/>
						<path d="M56.7,40.2C56.6,40.2,56.6,40.2,56.7,40.2l-0.1-5.6c0,0,0-0.1,0.1-0.1c0,0,0.1,0,0.1,0.1L56.7,40.2
							C56.8,40.2,56.7,40.2,56.7,40.2z"/>
					</g>
					<g>
						<path class="st5" d="M56.2,34.6v4.9"/>
						<path d="M56.2,39.6C56.1,39.6,56.1,39.5,56.2,39.6l-0.1-5c0,0,0-0.1,0.1-0.1c0,0,0.1,0,0.1,0.1L56.2,39.6
							C56.2,39.5,56.2,39.6,56.2,39.6z"/>
					</g>
					<g>
						<path class="st5" d="M55.6,34.6v4.9"/>
						<path d="M55.6,39.6C55.6,39.6,55.5,39.5,55.6,39.6l-0.1-5c0,0,0-0.1,0.1-0.1c0,0,0.1,0,0.1,0.1L55.6,39.6
							C55.7,39.5,55.7,39.6,55.6,39.6z"/>
					</g>
					<g>
						<path d="M58.7,34.3c-1.1,0.2-3.6,1.3-3.3,2.9c0.4,2.2,1.7,1.3,3.4,1l1.3,0.4c0.5,0.5,1.1,0.9,1.6,0.3h0.8v3h-8.5v-7.3
							L58.7,34.3z"/>
						<path d="M62.4,42.1h-8.5c0,0-0.1,0-0.1-0.1v-7.3c0,0,0-0.1,0.1-0.1l4.7-0.4c0,0,0.1,0,0.1,0.1c0,0,0,0.1-0.1,0.1
							c-0.8,0.1-2.3,0.8-3,1.7c-0.3,0.4-0.4,0.7-0.3,1.1c0.2,1.2,0.7,1.4,1.2,1.4c0.3,0,0.7-0.1,1.2-0.2c0.3-0.1,0.6-0.2,0.9-0.2
							c0,0,0,0,0,0l1.3,0.4c0,0,0,0,0,0c0.2,0.2,0.6,0.6,1,0.6c0.2,0,0.3-0.1,0.5-0.2c0,0,0,0,0.1,0h0.8c0,0,0.1,0,0.1,0.1
							L62.4,42.1C62.5,42.1,62.5,42.1,62.4,42.1z M54,41.9h8.3v-2.8h-0.7c-0.2,0.2-0.3,0.3-0.6,0.3c-0.4,0-0.9-0.4-1.1-0.6l-1.3-0.4
							c-0.3,0.1-0.6,0.1-0.9,0.2c-0.5,0.1-0.9,0.2-1.2,0.2c-0.7,0-1.1-0.5-1.3-1.5c-0.1-0.4,0-0.8,0.3-1.2c0.5-0.7,1.4-1.2,2.2-1.5
							L54,34.8V41.9z"/>
					</g>
				</g>
				<g>
					<path class="st5" d="M54.9,33.3c-0.3,0-0.5,0.2-0.5,0.5c0,0.3,0.2,0.5,0.5,0.5c0.3,0,0.5-0.2,0.5-0.5
						C55.4,33.5,55.1,33.3,54.9,33.3z"/>
					<path d="M54.9,34.4c-0.3,0-0.6-0.3-0.6-0.6c0-0.3,0.3-0.6,0.6-0.6c0.3,0,0.6,0.3,0.6,0.6C55.5,34.2,55.2,34.4,54.9,34.4z
						 M54.9,33.4c-0.2,0-0.4,0.2-0.4,0.4s0.2,0.4,0.4,0.4s0.4-0.2,0.4-0.4S55.1,33.4,54.9,33.4z"/>
				</g>
				<g>
					<path class="st5" d="M56,33c-0.3,0-0.5,0.2-0.5,0.5c0,0.3,0.2,0.5,0.5,0.5c0.3,0,0.5-0.2,0.5-0.5C56.5,33.3,56.3,33,56,33z"/>
					<path d="M56,34.2c-0.3,0-0.6-0.3-0.6-0.6s0.3-0.6,0.6-0.6c0.3,0,0.6,0.3,0.6,0.6S56.4,34.2,56,34.2z M56,33.1
						c-0.2,0-0.4,0.2-0.4,0.4c0,0.2,0.2,0.4,0.4,0.4c0.2,0,0.4-0.2,0.4-0.4C56.4,33.3,56.3,33.1,56,33.1z"/>
				</g>
				<g>
					<circle class="st5" cx="57.2" cy="33.2" r="0.5"/>
					<path d="M57.2,33.9c-0.3,0-0.6-0.3-0.6-0.6s0.3-0.6,0.6-0.6s0.6,0.3,0.6,0.6S57.5,33.9,57.2,33.9z M57.2,32.8
						c-0.2,0-0.4,0.2-0.4,0.4c0,0.2,0.2,0.4,0.4,0.4s0.4-0.2,0.4-0.4C57.6,33,57.4,32.8,57.2,32.8z"/>
				</g>
				<g>
					<path class="st5" d="M58.4,32.5c-0.3,0-0.5,0.2-0.5,0.5c0,0.3,0.2,0.5,0.5,0.5c0.3,0,0.5-0.2,0.5-0.5
						C58.9,32.8,58.7,32.5,58.4,32.5z"/>
					<path d="M58.4,33.7c-0.3,0-0.6-0.3-0.6-0.6s0.3-0.6,0.6-0.6S59,32.7,59,33S58.7,33.7,58.4,33.7z M58.4,32.6
						c-0.2,0-0.4,0.2-0.4,0.4c0,0.2,0.2,0.4,0.4,0.4c0.2,0,0.4-0.2,0.4-0.4C58.8,32.8,58.6,32.6,58.4,32.6z"/>
				</g>
				<g>
					<circle class="st5" cx="59.6" cy="32.9" r="0.5"/>
					<path d="M59.6,33.6c-0.3,0-0.6-0.3-0.6-0.6c0-0.3,0.3-0.6,0.6-0.6s0.6,0.3,0.6,0.6C60.2,33.3,59.9,33.6,59.6,33.6z M59.6,32.5
						c-0.2,0-0.4,0.2-0.4,0.4c0,0.2,0.2,0.4,0.4,0.4c0.2,0,0.4-0.2,0.4-0.4C60,32.7,59.8,32.5,59.6,32.5z"/>
				</g>
				<g>
					<path class="st5" d="M60.7,32.5c-0.3,0-0.5,0.2-0.5,0.5c0,0.3,0.2,0.5,0.5,0.5c0.3,0,0.5-0.2,0.5-0.5
						C61.2,32.7,61,32.5,60.7,32.5z"/>
					<path d="M60.7,33.6c-0.3,0-0.6-0.3-0.6-0.6s0.3-0.6,0.6-0.6c0.3,0,0.6,0.3,0.6,0.6S61.1,33.6,60.7,33.6z M60.7,32.6
						c-0.2,0-0.4,0.2-0.4,0.4c0,0.2,0.2,0.4,0.4,0.4c0.2,0,0.4-0.2,0.4-0.4C61.1,32.8,60.9,32.6,60.7,32.6z"/>
				</g>
				<g>
					<circle class="st5" cx="61.8" cy="33.4" r="0.5"/>
					<path d="M61.8,34c-0.3,0-0.6-0.3-0.6-0.6c0-0.3,0.3-0.6,0.6-0.6s0.6,0.3,0.6,0.6C62.4,33.7,62.2,34,61.8,34z M61.8,33
						c-0.2,0-0.4,0.2-0.4,0.4s0.2,0.4,0.4,0.4c0.2,0,0.4-0.2,0.4-0.4S62.1,33,61.8,33z"/>
				</g>
				<g>
					<path class="st5" d="M62.8,33.5c-0.3,0-0.5,0.2-0.5,0.5s0.2,0.5,0.5,0.5c0.3,0,0.5-0.2,0.5-0.5S63,33.5,62.8,33.5z"/>
					<path d="M62.8,34.7c-0.3,0-0.6-0.3-0.6-0.6s0.3-0.6,0.6-0.6c0.3,0,0.6,0.3,0.6,0.6S63.1,34.7,62.8,34.7z M62.8,33.6
						c-0.2,0-0.4,0.2-0.4,0.4s0.2,0.4,0.4,0.4c0.2,0,0.4-0.2,0.4-0.4S63,33.6,62.8,33.6z"/>
				</g>
				<g>
					<circle class="st5" cx="63.4" cy="35" r="0.5"/>
					<path d="M63.4,35.6c-0.3,0-0.6-0.3-0.6-0.6s0.3-0.6,0.6-0.6c0.3,0,0.6,0.3,0.6,0.6S63.8,35.6,63.4,35.6z M63.4,34.6
						c-0.2,0-0.4,0.2-0.4,0.4c0,0.2,0.2,0.4,0.4,0.4s0.4-0.2,0.4-0.4C63.8,34.8,63.6,34.6,63.4,34.6z"/>
				</g>
				<g>
					<path class="st5" d="M63.7,35.6c-0.3,0-0.5,0.2-0.5,0.5c0,0.3,0.2,0.5,0.5,0.5c0.3,0,0.5-0.2,0.5-0.5
						C64.3,35.9,64,35.6,63.7,35.6z"/>
					<path d="M63.7,36.8c-0.3,0-0.6-0.3-0.6-0.6c0-0.3,0.3-0.6,0.6-0.6s0.6,0.3,0.6,0.6C64.4,36.5,64.1,36.8,63.7,36.8z M63.7,35.7
						c-0.2,0-0.4,0.2-0.4,0.4c0,0.2,0.2,0.4,0.4,0.4c0.2,0,0.4-0.2,0.4-0.4C64.1,35.9,64,35.7,63.7,35.7z"/>
				</g>
				<g>
					<circle class="st5" cx="63.7" cy="37.3" r="0.5"/>
					<path d="M63.7,37.9c-0.3,0-0.6-0.3-0.6-0.6c0-0.3,0.3-0.6,0.6-0.6c0.3,0,0.6,0.3,0.6,0.6C64.3,37.6,64.1,37.9,63.7,37.9z
						 M63.7,36.9c-0.2,0-0.4,0.2-0.4,0.4c0,0.2,0.2,0.4,0.4,0.4s0.4-0.2,0.4-0.4C64.1,37.1,63.9,36.9,63.7,36.9z"/>
				</g>
				<g>
					<circle class="st5" cx="63.5" cy="38.4" r="0.5"/>
					<path d="M63.5,39.1c-0.3,0-0.6-0.3-0.6-0.6s0.3-0.6,0.6-0.6c0.3,0,0.6,0.3,0.6,0.6S63.8,39.1,63.5,39.1z M63.5,38
						c-0.2,0-0.4,0.2-0.4,0.4c0,0.2,0.2,0.4,0.4,0.4s0.4-0.2,0.4-0.4C63.9,38.2,63.7,38,63.5,38z"/>
				</g>
				<g>
					<path class="st5" d="M54.6,34.5l0,0.7c1.3-0.2,3.1-0.9,4.8-0.9c1.6,0,2.8,0.6,2.8,2.2c0,1.6-0.7,3-1.5,4.4l0.9,0.4
						c0.8-1.6,1.5-2.9,1.5-4.8c0-1.5-1.2-3-3.3-3C58,33.5,56.2,34.2,54.6,34.5z"/>
					<path d="M61.6,41.4C61.6,41.4,61.6,41.4,61.6,41.4l-1-0.4c0,0,0,0-0.1-0.1c0,0,0-0.1,0-0.1c0.8-1.2,1.5-2.7,1.5-4.4
						c0-1.8-1.7-2.1-2.7-2.1c-1.1,0-2.2,0.3-3.2,0.6c-0.6,0.1-1.1,0.3-1.6,0.4c0,0-0.1,0-0.1,0c0,0,0,0,0-0.1l0-0.7
						c0-0.1,0-0.1,0.1-0.1c0.4-0.1,0.7-0.2,1.1-0.3c1.3-0.3,2.7-0.7,4.1-0.7c2.2,0,3.4,1.6,3.4,3.1C63.2,38.5,62.5,39.9,61.6,41.4
						C61.7,41.4,61.7,41.4,61.6,41.4z M60.9,40.8l0.7,0.3c0.7-1.4,1.4-2.8,1.4-4.6c0-1.4-1.1-2.9-3.2-2.9c-1.4,0-2.8,0.4-4.1,0.7
						c-0.4,0.1-0.7,0.2-1.1,0.3l0,0.5c0.4-0.1,0.9-0.2,1.4-0.3c1-0.3,2.2-0.6,3.3-0.6c1.8,0,2.9,0.8,2.9,2.3
						C62.4,38.1,61.6,39.6,60.9,40.8z"/>
				</g>
			</g>
		</g>
		<g>
			<path class="st5" d="M53.9,27.6l-0.5,1l0.5,1l0.5-1L53.9,27.6z M53.9,30.1l-0.5,1l0.5,1l0.5-1L53.9,30.1z"/>
			<path d="M53.9,32.2C53.9,32.2,53.8,32.2,53.9,32.2l-0.6-1.1c0,0,0-0.1,0-0.1l0.5-1c0-0.1,0.1-0.1,0.2,0l0.5,1c0,0,0,0.1,0,0.1
				L53.9,32.2C54,32.2,53.9,32.2,53.9,32.2z M53.5,31.1l0.4,0.8l0.4-0.8l-0.4-0.8L53.5,31.1z M53.9,29.7
				C53.9,29.7,53.8,29.7,53.9,29.7l-0.6-1.1c0,0,0-0.1,0-0.1l0.5-1c0-0.1,0.1-0.1,0.2,0l0.5,1c0,0,0,0.1,0,0.1L53.9,29.7
				C54,29.7,53.9,29.7,53.9,29.7z M53.5,28.6l0.4,0.8l0.4-0.8l-0.4-0.8L53.5,28.6z"/>
		</g>
		<g>
			<path class="st5" d="M52,29.8l0.8,0.5l0.8-0.5l-0.8-0.5L52,29.8z M54.1,29.8l0.8,0.5l0.8-0.5L55,29.3L54.1,29.8z"/>
			<path d="M55,30.5C55,30.5,54.9,30.5,55,30.5l-0.9-0.6c0,0,0-0.1,0-0.1c0,0,0-0.1,0-0.1l0.8-0.5c0,0,0.1,0,0.1,0l0.8,0.5
				c0,0,0,0.1,0,0.1c0,0,0,0.1,0,0.1L55,30.5C55,30.5,55,30.5,55,30.5z M54.3,29.8l0.7,0.4l0.7-0.4L55,29.4L54.3,29.8z M52.8,30.5
				C52.8,30.5,52.8,30.5,52.8,30.5l-0.9-0.6c0,0,0-0.1,0-0.1c0,0,0-0.1,0-0.1l0.8-0.5c0,0,0.1,0,0.1,0l0.8,0.5c0,0,0,0.1,0,0.1
				c0,0,0,0.1,0,0.1L52.8,30.5C52.9,30.5,52.9,30.5,52.8,30.5z M52.2,29.8l0.7,0.4l0.7-0.4l-0.7-0.4L52.2,29.8z"/>
		</g>
		<g>
			<path class="st5" d="M53.9,29.5c0.2,0,0.4,0.2,0.4,0.4s-0.2,0.4-0.4,0.4c-0.2,0-0.4-0.2-0.4-0.4S53.7,29.5,53.9,29.5z"/>
			<path d="M53.9,30.4c-0.3,0-0.5-0.2-0.5-0.5s0.2-0.5,0.5-0.5c0.3,0,0.5,0.2,0.5,0.5S54.2,30.4,53.9,30.4z M53.9,29.6
				c-0.2,0-0.3,0.1-0.3,0.3s0.1,0.3,0.3,0.3c0.2,0,0.3-0.1,0.3-0.3S54.1,29.6,53.9,29.6z"/>
		</g>
		<g>
			<path class="st5" d="M53.9,31.4c0.6,0,1.1,0.5,1.1,1.1c0,0.6-0.5,1.1-1.1,1.1c-0.6,0-1.1-0.5-1.1-1.1
				C52.8,31.9,53.3,31.4,53.9,31.4z"/>
			<path d="M53.9,33.7c-0.7,0-1.2-0.5-1.2-1.2c0-0.7,0.5-1.2,1.2-1.2c0.7,0,1.2,0.5,1.2,1.2C55.1,33.1,54.6,33.7,53.9,33.7z
				 M53.9,31.5c-0.5,0-1,0.4-1,1c0,0.5,0.4,1,1,1c0.5,0,1-0.4,1-1C54.9,31.9,54.5,31.5,53.9,31.5z"/>
		</g>
		<g>
			<path d="M55,32.8C55,32.8,55,32.8,55,32.8c-0.7-0.1-1.4-0.1-2.1,0c0,0-0.1,0-0.1-0.1c0,0,0-0.1,0.1-0.1c0.7-0.1,1.4-0.1,2.1,0
				C55,32.7,55,32.7,55,32.8C55,32.8,55,32.8,55,32.8z M55,32.3C55,32.3,55,32.3,55,32.3c-0.3,0-0.5-0.1-0.8-0.1c0,0-0.1,0-0.1-0.1
				v-0.7c0,0,0-0.1,0.1-0.1s0.1,0,0.1,0.1V32c0.2,0,0.5,0,0.7,0.1C55,32.1,55,32.1,55,32.3C55,32.2,55,32.3,55,32.3z M52.9,32.3
				C52.8,32.3,52.8,32.2,52.9,32.3c-0.1-0.1-0.1-0.1,0-0.2c0.2,0,0.5-0.1,0.7-0.1l0-0.1c0-0.1,0-0.3,0-0.5c0,0,0-0.1,0.1-0.1
				c0,0,0.1,0,0.1,0.1c0,0.2,0,0.4,0,0.5l0,0.2c0,0,0,0.1-0.1,0.1C53.4,32.2,53.1,32.2,52.9,32.3C52.9,32.3,52.9,32.3,52.9,32.3z"/>
		</g>
		<g>
			<path class="st5" d="M52.8,34.3c-0.1,1.8-0.3,3.6-1,4.9l1.1-0.5c0.4-1.5,0.5-3.4,0.6-4.3L52.8,34.3z M55,34.3l-0.7,0.1
				c0.1,0.9,0.2,2.8,0.6,4.3l1.1,0.5C55.3,37.9,55.1,36.1,55,34.3z"/>
			<path d="M56,39.3C56,39.3,56,39.3,56,39.3l-1.2-0.5c0,0-0.1,0-0.1-0.1c-0.3-1.1-0.4-2.4-0.5-3.4c0-0.4-0.1-0.7-0.1-0.9
				c0-0.1,0-0.1,0.1-0.1l0.7-0.1c0,0,0.1,0,0.1,0c0,0,0,0,0,0.1c0.1,1.7,0.3,3.5,1,4.9C56.1,39.2,56.1,39.3,56,39.3
				C56,39.3,56,39.3,56,39.3z M54.9,38.7l0.8,0.3c-0.6-1.3-0.8-3-0.9-4.6l-0.5,0.1c0,0.2,0.1,0.5,0.1,0.8
				C54.5,36.3,54.7,37.6,54.9,38.7z M51.8,39.3C51.8,39.3,51.8,39.3,51.8,39.3c-0.1-0.1-0.1-0.1-0.1-0.2c0.7-1.3,0.9-3.2,1-4.9
				c0,0,0-0.1,0-0.1c0,0,0.1,0,0.1,0l0.7,0.1c0.1,0,0.1,0.1,0.1,0.1c0,0.2-0.1,0.6-0.1,0.9c-0.1,1-0.2,2.3-0.5,3.4
				c0,0,0,0.1-0.1,0.1L51.8,39.3C51.9,39.3,51.8,39.3,51.8,39.3z M52.9,34.4C52.8,36,52.7,37.7,52,39l0.8-0.3
				c0.3-1.1,0.4-2.4,0.5-3.3c0-0.3,0.1-0.6,0.1-0.8L52.9,34.4z"/>
		</g>
		<g>
			<path class="st5" d="M53.9,38.2c-1.3,0-2.3,0.6-2.4,2.3c-0.3-0.6-1.7-2.4-3-2.2c-0.8,0.1-1.5,1.2-1.3,2.4
				c-0.6-1.8-2.5-2.1-3.9-1.1c1.2,1,1.8,4,2.8,5.2h7.9h7.9c1-1.3,1.6-4.2,2.8-5.2c-1.4-1.1-3.2-0.8-3.9,1.1c0.1-1.2-0.6-2.3-1.3-2.4
				c-1.3-0.2-2.7,1.6-3,2.2C56.2,38.8,55.3,38.2,53.9,38.2z"/>
			<path d="M61.8,45H46c0,0-0.1,0-0.1,0c-0.5-0.6-0.8-1.5-1.2-2.4c-0.5-1.1-0.9-2.3-1.6-2.8c0,0,0-0.1,0-0.1c0,0,0-0.1,0-0.1
				c0.5-0.4,1.2-0.7,1.8-0.7c0.9,0,1.6,0.5,2.1,1.3c0.1-1.1,0.7-1.9,1.4-2c0.1,0,0.2,0,0.3,0c1.1,0,2.2,1.3,2.7,2c0.2-1.3,1-2,2.5-2
				c1.4,0,2.3,0.7,2.5,2c0.5-0.7,1.6-2,2.7-2c0.1,0,0.2,0,0.3,0c0.7,0.1,1.4,0.9,1.4,2c0.4-0.8,1.2-1.3,2.1-1.3
				c0.6,0,1.2,0.2,1.8,0.7c0,0,0,0,0,0.1c0,0,0,0.1,0,0.1c-0.7,0.5-1.1,1.7-1.6,2.8C62.7,43.5,62.3,44.4,61.8,45
				C61.8,45,61.8,45,61.8,45z M46.1,44.8h15.6c0.4-0.6,0.8-1.4,1.1-2.3c0.4-1.1,0.9-2.2,1.5-2.8c-0.5-0.3-1-0.5-1.5-0.5
				c-1,0-1.7,0.6-2.1,1.6c0,0-0.1,0.1-0.1,0.1c-0.1,0-0.1-0.1-0.1-0.1c0.1-1.2-0.6-2.2-1.3-2.3c-0.1,0-0.1,0-0.2,0
				c-1.2,0-2.4,1.7-2.7,2.1c0,0-0.1,0.1-0.1,0c0,0-0.1-0.1-0.1-0.1c-0.1-1.8-1.3-2.2-2.3-2.2c-1,0-2.2,0.4-2.3,2.2
				c0,0,0,0.1-0.1,0.1c0,0-0.1,0-0.1,0c-0.2-0.4-1.5-2.1-2.7-2.1c-0.1,0-0.2,0-0.2,0c-0.7,0.1-1.4,1.1-1.3,2.3c0,0.1,0,0.1-0.1,0.1
				c-0.1,0-0.1,0-0.1-0.1c-0.4-1-1.1-1.6-2.1-1.6c-0.5,0-1.1,0.2-1.5,0.5c0.6,0.6,1.1,1.7,1.5,2.8C45.3,43.4,45.7,44.2,46.1,44.8z"
				/>
		</g>
		<g>
			<g>
				<path d="M61.8,44.9c0,0.6-3.5,1.2-7.9,1.2c-4.3,0-7.9-0.6-7.9-1.2s3.5-0.9,7.9-0.9C58.2,44,61.8,44.3,61.8,44.9z"/>
				<path d="M53.9,46.2c-4.2,0-7.9-0.6-7.9-1.3c0-0.9,6.1-1,7.9-1c1.9,0,7.9,0.1,7.9,1C61.8,45.6,58.1,46.2,53.9,46.2z M53.9,44.1
					c-5.1,0-7.8,0.4-7.8,0.8c0,0.5,3.3,1.1,7.8,1.1c4.5,0,7.8-0.7,7.8-1.1C61.7,44.5,59,44.1,53.9,44.1z"/>
			</g>
			<g>
				<path class="st5" d="M53.9,33.6c0.2,0,0.4,0.2,0.4,0.4s-0.2,0.4-0.4,0.4c-0.2,0-0.4-0.2-0.4-0.4S53.7,33.6,53.9,33.6z"/>
				<path d="M53.9,34.4c-0.2,0-0.4-0.2-0.4-0.4c0-0.2,0.2-0.4,0.4-0.4c0.2,0,0.4,0.2,0.4,0.4C54.4,34.2,54.2,34.4,53.9,34.4z
					 M53.9,33.7c-0.2,0-0.3,0.1-0.3,0.3c0,0.2,0.1,0.3,0.3,0.3c0.2,0,0.3-0.1,0.3-0.3C54.2,33.8,54.1,33.7,53.9,33.7z"/>
			</g>
			<g>
				<path class="st5" d="M53.9,34.4c0.2,0,0.4,0.2,0.4,0.4c0,0.2-0.2,0.4-0.4,0.4c-0.2,0-0.4-0.2-0.4-0.4
					C53.5,34.5,53.7,34.4,53.9,34.4z"/>
				<path d="M53.9,35.2c-0.3,0-0.5-0.2-0.5-0.5c0-0.3,0.2-0.5,0.5-0.5c0.3,0,0.5,0.2,0.5,0.5C54.4,35,54.2,35.2,53.9,35.2z
					 M53.9,34.5c-0.2,0-0.3,0.1-0.3,0.3c0,0.2,0.1,0.3,0.3,0.3c0.2,0,0.3-0.1,0.3-0.3C54.2,34.6,54.1,34.5,53.9,34.5z"/>
			</g>
			<g>
				<path class="st5" d="M53.9,35.2c0.2,0,0.4,0.2,0.4,0.4c0,0.2-0.2,0.4-0.4,0.4c-0.2,0-0.4-0.2-0.4-0.4
					C53.5,35.4,53.7,35.2,53.9,35.2z"/>
				<path d="M53.9,36.1c-0.3,0-0.5-0.2-0.5-0.5c0-0.3,0.2-0.5,0.5-0.5c0.3,0,0.5,0.2,0.5,0.5C54.4,35.9,54.2,36.1,53.9,36.1z
					 M53.9,35.3c-0.2,0-0.3,0.2-0.3,0.3c0,0.2,0.2,0.3,0.3,0.3c0.2,0,0.3-0.2,0.3-0.3C54.3,35.4,54.1,35.3,53.9,35.3z"/>
			</g>
			<g>
				<path class="st5" d="M53.9,36.1c0.3,0,0.5,0.2,0.5,0.5c0,0.3-0.2,0.5-0.5,0.5c-0.3,0-0.5-0.2-0.5-0.5
					C53.4,36.3,53.6,36.1,53.9,36.1z"/>
				<path d="M53.9,37.1c-0.3,0-0.6-0.3-0.6-0.6c0-0.3,0.3-0.6,0.6-0.6c0.3,0,0.6,0.3,0.6,0.6C54.5,36.9,54.2,37.1,53.9,37.1z
					 M53.9,36.2c-0.2,0-0.4,0.2-0.4,0.4c0,0.2,0.2,0.4,0.4,0.4c0.2,0,0.4-0.2,0.4-0.4C54.3,36.3,54.1,36.2,53.9,36.2z"/>
			</g>
			<g>
				<path class="st5" d="M53.9,37.1c0.3,0,0.5,0.2,0.5,0.5c0,0.3-0.2,0.5-0.5,0.5c-0.3,0-0.5-0.2-0.5-0.5
					C53.4,37.3,53.6,37.1,53.9,37.1z"/>
				<path d="M53.9,38.2c-0.3,0-0.6-0.3-0.6-0.6c0-0.3,0.3-0.6,0.6-0.6c0.3,0,0.6,0.3,0.6,0.6C54.5,38,54.2,38.2,53.9,38.2z
					 M53.9,37.2c-0.3,0-0.5,0.2-0.5,0.5c0,0.3,0.2,0.5,0.5,0.5c0.3,0,0.5-0.2,0.5-0.5C54.4,37.4,54.2,37.2,53.9,37.2z"/>
			</g>
			<g>
				<path d="M53.7,38.6c-0.1,0-0.1,0-0.1,0.1c0,0.1,0,0.3,0.1,0.5c0,0.2,0.1,0.1,0.1,0c0-0.1,0-0.2,0-0.4
					C53.8,38.7,53.8,38.7,53.7,38.6z M54.1,38.6c-0.1,0-0.1,0.1-0.1,0.2c0,0.2,0,0.3,0,0.4c0,0.1,0.1,0.2,0.1,0c0-0.1,0-0.3,0.1-0.5
					C54.2,38.7,54.2,38.6,54.1,38.6z M53.3,38.7c-0.1,0-0.1,0.1-0.1,0.1c0,0.1,0,0.2,0,0.4c0,0.2,0.1,0.1,0.1,0c0-0.1,0-0.2,0-0.4
					C53.4,38.7,53.4,38.7,53.3,38.7C53.3,38.7,53.3,38.7,53.3,38.7z M54.5,38.7c0,0-0.1,0-0.1,0.1c0,0.2,0,0.3,0,0.4
					c0,0.1,0.1,0.2,0.1,0c0-0.2,0-0.3,0-0.4C54.6,38.8,54.6,38.7,54.5,38.7C54.5,38.7,54.5,38.7,54.5,38.7z M52.9,38.9
					c0,0-0.1,0.1-0.1,0.1c0,0.1,0.1,0.3,0.1,0.4c0,0.1,0.1,0.1,0.1,0c0-0.1,0-0.3,0-0.4C53,38.9,52.9,38.9,52.9,38.9z M54.9,38.9
					c0,0-0.1,0-0.1,0.1c0,0.2,0,0.3,0,0.4c0,0.1,0.1,0.1,0.1,0c0-0.1,0-0.3,0.1-0.4C55,39,55,38.9,54.9,38.9
					C54.9,38.9,54.9,38.9,54.9,38.9z M48.7,38.9c-0.1,0-0.1,0.1-0.1,0.2c0.1,0.1,0.1,0.2,0.2,0.4c0.1,0.1,0.1,0.1,0.1,0
					c0-0.1-0.1-0.2-0.1-0.4C48.8,38.9,48.8,38.9,48.7,38.9z M59.1,38.9c0,0-0.1,0-0.1,0.1c-0.1,0.2-0.1,0.3-0.1,0.4
					c0,0.1,0.1,0.2,0.1,0c0.1-0.1,0.1-0.2,0.2-0.4C59.2,39,59.1,38.9,59.1,38.9z M49.2,38.9c0,0-0.1,0.1,0,0.1
					c0.1,0.1,0.1,0.3,0.2,0.4c0,0.1,0.1,0.1,0.1,0c0-0.1,0-0.2-0.1-0.4C49.3,38.9,49.2,38.9,49.2,38.9z M58.6,38.9
					c0,0-0.1,0-0.1,0.1c-0.1,0.2-0.1,0.3-0.1,0.4c0,0.1,0.1,0.1,0.1,0c0.1-0.1,0.1-0.3,0.2-0.4C58.7,39,58.7,38.9,58.6,38.9
					C58.6,38.9,58.6,38.9,58.6,38.9z M49.7,39c-0.1,0-0.1,0.1-0.1,0.2c0,0.1,0.1,0.2,0.2,0.4c0.1,0.1,0.2,0.1,0.1,0
					c0-0.1-0.1-0.2-0.1-0.5C49.8,39,49.7,39,49.7,39z M58.1,39c0,0-0.1,0-0.1,0.1c-0.1,0.2-0.1,0.4-0.1,0.5c0,0.1,0.1,0.1,0.1,0
					c0.1-0.1,0.1-0.3,0.2-0.4C58.2,39.1,58.2,39,58.1,39z M48.4,39.1c-0.1,0-0.1,0.1-0.1,0.2c0.1,0.1,0.1,0.2,0.2,0.3
					c0.1,0.1,0.1,0,0.1-0.1c0-0.1-0.1-0.2-0.1-0.3C48.5,39.1,48.4,39.1,48.4,39.1z M59.4,39.1c0,0-0.1,0-0.1,0.1
					c0,0.1-0.1,0.2-0.1,0.3c0,0.1,0,0.2,0.1,0.1c0.1-0.1,0.1-0.2,0.2-0.3C59.5,39.2,59.5,39.1,59.4,39.1z M52.4,39.4
					c-0.1,0-0.1,0.1-0.1,0.2c0,0.1,0.1,0.2,0.1,0.4c0,0.1,0.1,0.1,0.1,0c0-0.1,0-0.2-0.1-0.4C52.5,39.4,52.5,39.4,52.4,39.4z
					 M55.4,39.4c0,0-0.1,0-0.1,0.1c0,0.2-0.1,0.3-0.1,0.4c0,0.1,0.1,0.2,0.1,0c0-0.2,0.1-0.3,0.1-0.4C55.5,39.5,55.5,39.4,55.4,39.4
					z M53.9,39.5c-0.1,0-0.1,0.1-0.1,0.2c0,0.3-0.1,0.5-0.2,0.7c-0.1,0.1-0.2,0.1-0.4,0c-0.1-0.1-0.2-0.1-0.3-0.2
					c-0.1-0.1-0.2,0-0.1,0.2c0.5,0.7,1,1.3,1,2.4c0,0.1,0,0.2,0.1,0.2c0.1,0,0.1,0,0.1-0.2c0-1.1,0.5-1.7,1-2.4
					c0.2-0.2,0.1-0.3-0.1-0.2c-0.1,0.1-0.2,0.2-0.3,0.2c-0.1,0.1-0.3,0.1-0.4,0C54.1,40.2,54,40,54,39.7C54,39.6,54,39.5,53.9,39.5z
					 M50.2,39.3C50.2,39.3,50.2,39.3,50.2,39.3c0,0-0.1,0-0.1,0.1c0,0.1,0.1,0.3,0.1,0.4c0,0.1,0.1,0.1,0.1-0.1c0-0.1,0-0.2-0.1-0.3
					C50.3,39.4,50.3,39.3,50.2,39.3z M57.6,39.3c0,0-0.1,0.1-0.1,0.1c0,0.2,0,0.2-0.1,0.3c0,0.1,0.1,0.2,0.1,0.1
					c0-0.1,0.1-0.3,0.1-0.4C57.7,39.4,57.6,39.3,57.6,39.3C57.6,39.3,57.6,39.3,57.6,39.3z M48,39.4c-0.1,0-0.1,0.1,0,0.2
					c0.1,0.1,0.2,0.3,0.2,0.4c0.1,0.1,0.1,0,0.1-0.1c-0.1-0.1-0.1-0.2-0.2-0.4C48.1,39.4,48.1,39.4,48,39.4z M59.8,39.4
					c0,0-0.1,0-0.1,0.1c-0.1,0.2-0.1,0.3-0.2,0.4c-0.1,0.1,0,0.2,0.1,0.1c0.1-0.1,0.2-0.2,0.2-0.4C59.9,39.5,59.8,39.4,59.8,39.4z
					 M44.7,39.7c-0.1,0-0.1,0.1,0,0.2c0.1,0.1,0.2,0.2,0.3,0.3c0.1,0.1,0.1,0,0.1-0.1c0-0.1-0.1-0.2-0.2-0.3
					C44.8,39.8,44.8,39.7,44.7,39.7z M63.1,39.7c0,0-0.1,0-0.1,0.1c-0.1,0.1-0.1,0.2-0.2,0.3c0,0.1,0,0.2,0.1,0.1
					c0.1-0.1,0.2-0.2,0.3-0.3C63.2,39.8,63.2,39.7,63.1,39.7z M45.2,39.8c-0.1,0-0.1,0,0,0.1c0.1,0.1,0.1,0.3,0.2,0.4
					c0.1,0.1,0.2,0.1,0.1,0c-0.1-0.2-0.1-0.2-0.1-0.4C45.4,39.9,45.3,39.8,45.2,39.8z M62.6,39.8c-0.1,0-0.1,0-0.2,0.1
					c-0.1,0.2-0.1,0.2-0.1,0.4c-0.1,0.2,0.1,0.1,0.1,0c0.1-0.1,0.1-0.3,0.2-0.4C62.7,39.9,62.6,39.8,62.6,39.8z M44.2,39.9
					c-0.1,0-0.1,0.1,0,0.1c0.1,0.1,0.2,0.1,0.3,0.2c0.1,0.1,0.2,0,0.1-0.1c-0.1-0.1-0.1-0.2-0.3-0.3C44.3,39.9,44.3,39.9,44.2,39.9z
					 M63.6,39.9c0,0-0.1,0-0.1,0c-0.2,0.1-0.2,0.2-0.3,0.3c-0.1,0.1,0,0.2,0.1,0.1c0.1-0.1,0.2-0.2,0.3-0.2
					C63.7,39.9,63.7,39.9,63.6,39.9z M52.1,39.9c0,0-0.1,0.1-0.1,0.1c0,0.1,0.1,0.2,0.1,0.4c0,0.1,0.2,0.1,0.1,0
					C52.3,40.3,52.3,40.2,52.1,39.9C52.2,40,52.2,39.9,52.1,39.9C52.1,39.9,52.1,39.9,52.1,39.9z M55.7,39.9
					C55.6,39.9,55.6,40,55.7,39.9c-0.1,0.3-0.1,0.4-0.2,0.5c0,0.1,0.1,0.1,0.1,0c0-0.1,0.1-0.3,0.1-0.4C55.8,40,55.7,39.9,55.7,39.9
					C55.7,39.9,55.7,39.9,55.7,39.9z M49,39.7c0,0-0.1,0.1,0,0.2c0.1,0.5,0.2,0.8,0.2,0.9c0,0.1-0.1,0.1-0.2,0.1
					c-0.1,0-0.2-0.1-0.3-0.2c-0.1-0.1-0.2,0-0.1,0.1c0.6,0.5,1.1,1.1,1.2,1.8c0,0.1,0.1,0.2,0.1,0c-0.1-0.9-0.2-1.7,0-2.1
					c0.1-0.2,0-0.3-0.1-0.1c-0.1,0.2-0.2,0.3-0.3,0.1c-0.1-0.2-0.3-0.6-0.4-0.8C49.1,39.8,49,39.7,49,39.7C49,39.7,49,39.7,49,39.7z
					 M58.8,39.7c0,0-0.1,0-0.1,0.1c-0.1,0.2-0.3,0.6-0.4,0.8c-0.1,0.2-0.3,0.1-0.3-0.1c-0.1-0.3-0.2-0.1-0.1,0.1
					c0.2,0.5,0.2,1.2,0,2.1c0,0.2,0.1,0.1,0.1,0c0.2-0.7,0.6-1.3,1.2-1.8c0.1-0.1,0-0.2-0.1-0.1c-0.1,0.1-0.2,0.1-0.3,0.2
					c-0.1,0-0.2,0-0.2-0.1c0-0.1,0-0.4,0.2-0.9C58.9,39.8,58.9,39.7,58.8,39.7C58.8,39.7,58.8,39.7,58.8,39.7z M45.8,40
					c-0.1,0-0.1,0-0.1,0.1c0,0.1,0.1,0.3,0.2,0.4c0,0.1,0.1,0,0.1-0.1c0-0.1,0-0.2,0-0.3C45.9,40,45.9,40,45.8,40z M62,40
					c-0.1,0-0.1,0-0.1,0.1c0,0.1,0,0.2,0,0.3c0,0.1,0.1,0.2,0.1,0.1c0-0.1,0.1-0.2,0.2-0.4C62.1,40,62.1,40,62,40z M47.8,39.8
					c-0.1,0-0.1,0.2,0,0.2c0.1,0.1,0.2,0.2,0.3,0.3c0.1,0.1,0.1,0,0.1-0.1C48.1,40.2,48,40.1,47.8,39.8
					C47.8,39.8,47.8,39.8,47.8,39.8z M60,39.8C60,39.8,60,39.8,60,39.8c-0.2,0.3-0.3,0.4-0.4,0.5c-0.1,0.1,0,0.2,0.1,0.1
					c0.1-0.1,0.2-0.2,0.3-0.3C60.1,40,60.1,39.8,60,39.8z M46.3,40.2c0,0-0.1,0-0.1,0.1c0,0.1,0.1,0.2,0.1,0.3c0,0.1,0.1,0.1,0.1,0
					C46.4,40.5,46.4,40.4,46.3,40.2C46.3,40.3,46.3,40.2,46.3,40.2z M61.6,40.2C61.5,40.2,61.5,40.3,61.6,40.2
					c-0.1,0.2-0.1,0.3-0.1,0.4c0,0.1,0.1,0.1,0.1,0c0-0.1,0.1-0.2,0.1-0.3C61.6,40.3,61.6,40.2,61.6,40.2z M47.6,40.4
					c-0.1,0-0.1,0.1,0,0.2c0.1,0.2,0.3,0.3,0.3,0.3c0,0.1,0.2,0,0.1-0.1C47.9,40.7,47.8,40.5,47.6,40.4
					C47.7,40.4,47.7,40.4,47.6,40.4z M60.2,40.4C60.1,40.4,60.1,40.4,60.2,40.4c-0.1,0.1-0.2,0.3-0.3,0.4c-0.1,0.1,0,0.1,0.1,0.1
					c0-0.1,0.2-0.2,0.3-0.3C60.3,40.4,60.3,40.4,60.2,40.4C60.2,40.4,60.2,40.4,60.2,40.4z M45.5,40.8c-0.1,0-0.1,0,0,0.1
					c0.2,0.2,0.3,0.5,0.3,0.7c0,0.1-0.1,0.1-0.1,0.1c-0.2,0-0.3-0.1-0.5-0.2c-0.2,0-0.2,0.1-0.1,0.1c0.6,0.5,1.3,1,1.5,1.4
					c0.1,0.2,0.2,0.3,0.2,0.1c-0.2-0.6-0.3-1-0.2-1.3c0.1-0.3,0.1-0.5,0.1-0.6c0-0.2-0.1-0.2-0.1,0c0,0.1-0.1,0.2-0.1,0.3
					c0,0.1-0.2,0.1-0.3-0.1c-0.1-0.2-0.5-0.5-0.6-0.6C45.5,40.8,45.5,40.8,45.5,40.8z M62.4,40.8c0,0-0.1,0-0.1,0.1
					c-0.1,0.1-0.4,0.4-0.6,0.6c-0.1,0.2-0.3,0.1-0.3,0.1c0-0.1-0.1-0.2-0.1-0.3c0-0.2-0.1-0.2-0.1,0c0,0.2,0.1,0.4,0.1,0.6
					c0.1,0.3,0,0.8-0.2,1.3c-0.1,0.2,0.1,0.1,0.2-0.1c0.3-0.5,0.9-1,1.5-1.4c0.1-0.1,0.1-0.2-0.1-0.1c-0.2,0-0.3,0.2-0.5,0.2
					c-0.1,0-0.1,0-0.1-0.1c0-0.1,0.2-0.5,0.3-0.7C62.4,40.8,62.4,40.8,62.4,40.8z"/>
			</g>
			<g>
				<path class="st5" d="M46.4,44.2l0.2,0.6 M46.8,44.1l0.2,0.7 M47.3,44l0.1,0.7 M47.7,44l0.1,0.7 M48.2,43.9l0.1,0.7 M48.8,43.9
					l0.1,0.7 M49.4,43.7l0.1,0.7 M49.9,43.7l0.1,0.7 M50.4,43.7l0.1,0.7 M50.9,43.6l0,0.7 M51.5,43.6l0,0.7 M52,43.6l0,0.7
					 M52.5,43.6l0,0.7 M53.1,43.5l0,0.7 M61.4,44.2l-0.2,0.6 M61,44.1l-0.2,0.7 M60.5,44l-0.1,0.7 M60.1,44L60,44.6 M59.6,43.9
					l-0.1,0.7 M59,43.9l-0.1,0.7 M58.5,43.7l-0.1,0.7 M57.9,43.7l-0.1,0.7 M57.4,43.7l-0.1,0.7 M56.9,43.6l0,0.7 M56.4,43.6l0,0.7
					 M55.9,43.6l0,0.7 M55.3,43.6l0,0.7 M54.7,43.5l0,0.7 M53.9,43.5v0.7"/>
				<path d="M61.2,45C61.2,45,61.2,45,61.2,45c-0.1,0-0.1-0.1-0.1-0.1l0.2-0.6c0,0,0.1-0.1,0.1-0.1c0,0,0.1,0.1,0.1,0.1L61.2,45
					C61.3,44.9,61.2,45,61.2,45z M46.6,45C46.6,45,46.5,44.9,46.6,45l-0.3-0.7c0,0,0-0.1,0.1-0.1c0,0,0.1,0,0.1,0.1l0.2,0.6
					C46.7,44.9,46.7,44.9,46.6,45C46.6,45,46.6,45,46.6,45z M60.8,44.8C60.8,44.8,60.8,44.8,60.8,44.8
					C60.8,44.8,60.7,44.8,60.8,44.8l0.1-0.8c0,0,0.1-0.1,0.1-0.1c0,0,0.1,0.1,0.1,0.1L60.8,44.8C60.9,44.8,60.8,44.8,60.8,44.8z
					 M47,44.8C47,44.8,46.9,44.8,47,44.8l-0.3-0.7c0,0,0-0.1,0.1-0.1c0,0,0.1,0,0.1,0.1L47,44.8C47.1,44.8,47.1,44.8,47,44.8
					C47,44.8,47,44.8,47,44.8z M60.4,44.8C60.4,44.8,60.4,44.8,60.4,44.8C60.4,44.8,60.3,44.7,60.4,44.8l0-0.8c0,0,0-0.1,0.1-0.1
					c0,0,0.1,0,0.1,0.1L60.4,44.8C60.5,44.8,60.5,44.8,60.4,44.8z M47.4,44.8C47.4,44.8,47.3,44.8,47.4,44.8l-0.2-0.7
					c0,0,0-0.1,0.1-0.1c0,0,0.1,0,0.1,0.1L47.4,44.8C47.5,44.7,47.5,44.8,47.4,44.8C47.4,44.8,47.4,44.8,47.4,44.8z M60,44.7
					C60,44.7,60,44.7,60,44.7C59.9,44.7,59.9,44.6,60,44.7l0.1-0.8c0,0,0.1-0.1,0.1-0.1c0,0,0.1,0,0.1,0.1L60,44.7
					C60.1,44.7,60,44.7,60,44.7z M47.8,44.7C47.8,44.7,47.8,44.7,47.8,44.7L47.6,44c0,0,0-0.1,0.1-0.1c0,0,0.1,0,0.1,0.1L47.8,44.7
					C47.9,44.6,47.9,44.7,47.8,44.7C47.8,44.7,47.8,44.7,47.8,44.7z M59.5,44.6C59.5,44.6,59.5,44.6,59.5,44.6
					C59.4,44.6,59.4,44.6,59.5,44.6l0-0.8c0,0,0-0.1,0.1-0.1c0,0,0.1,0,0.1,0.1L59.5,44.6C59.5,44.6,59.5,44.6,59.5,44.6z
					 M48.3,44.6C48.3,44.6,48.3,44.6,48.3,44.6l-0.2-0.7c0,0,0-0.1,0.1-0.1c0,0,0.1,0,0.1,0.1L48.3,44.6
					C48.4,44.6,48.4,44.6,48.3,44.6C48.3,44.6,48.3,44.6,48.3,44.6z M58.9,44.6C58.9,44.6,58.9,44.6,58.9,44.6
					C58.8,44.6,58.8,44.6,58.9,44.6l0-0.8c0,0,0-0.1,0.1-0.1c0,0,0.1,0,0.1,0.1L58.9,44.6C59,44.6,58.9,44.6,58.9,44.6z M48.9,44.6
					C48.9,44.6,48.9,44.6,48.9,44.6l-0.2-0.7c0,0,0-0.1,0.1-0.1c0,0,0.1,0,0.1,0.1L48.9,44.6C49,44.6,49,44.6,48.9,44.6
					C48.9,44.6,48.9,44.6,48.9,44.6z M57.8,44.5C57.8,44.5,57.8,44.5,57.8,44.5C57.8,44.5,57.8,44.4,57.8,44.5l0-0.8
					c0,0,0-0.1,0.1-0.1c0,0,0.1,0,0.1,0.1L57.8,44.5C57.9,44.5,57.9,44.5,57.8,44.5z M50,44.5C49.9,44.5,49.9,44.5,50,44.5l-0.2-0.7
					c0,0,0-0.1,0.1-0.1c0,0,0.1,0,0.1,0.1L50,44.5C50.1,44.4,50,44.5,50,44.5C50,44.5,50,44.5,50,44.5z M58.4,44.5
					C58.4,44.5,58.4,44.5,58.4,44.5C58.3,44.5,58.3,44.4,58.4,44.5l0-0.8c0,0,0-0.1,0.1-0.1c0,0,0.1,0,0.1,0.1L58.4,44.5
					C58.4,44.4,58.4,44.5,58.4,44.5z M49.4,44.5C49.4,44.5,49.4,44.4,49.4,44.5l-0.2-0.7c0,0,0-0.1,0.1-0.1c0,0,0.1,0,0.1,0.1
					L49.4,44.5C49.5,44.4,49.5,44.5,49.4,44.5C49.5,44.5,49.5,44.5,49.4,44.5z M57.3,44.4C57.3,44.4,57.3,44.4,57.3,44.4
					C57.3,44.4,57.2,44.4,57.3,44.4l0-0.8c0,0,0-0.1,0.1-0.1c0,0,0.1,0,0.1,0.1L57.3,44.4C57.4,44.4,57.4,44.4,57.3,44.4z
					 M50.5,44.4C50.4,44.4,50.4,44.4,50.5,44.4l-0.2-0.7c0,0,0-0.1,0.1-0.1c0,0,0.1,0,0.1,0.1L50.5,44.4
					C50.6,44.4,50.5,44.4,50.5,44.4C50.5,44.4,50.5,44.4,50.5,44.4z M56.3,44.4C56.3,44.4,56.3,44.4,56.3,44.4
					C56.3,44.4,56.2,44.3,56.3,44.4l0-0.8c0,0,0-0.1,0.1-0.1c0,0,0.1,0,0.1,0.1L56.3,44.4C56.4,44.3,56.4,44.4,56.3,44.4z
					 M51.5,44.4C51.5,44.4,51.4,44.3,51.5,44.4l-0.1-0.7c0,0,0-0.1,0.1-0.1c0,0,0.1,0,0.1,0.1L51.5,44.4
					C51.6,44.3,51.5,44.4,51.5,44.4C51.5,44.4,51.5,44.4,51.5,44.4z M56.9,44.4C56.9,44.4,56.9,44.4,56.9,44.4
					C56.8,44.4,56.8,44.3,56.9,44.4l0-0.8c0,0,0-0.1,0.1-0.1c0,0,0.1,0,0.1,0.1L56.9,44.4C56.9,44.3,56.9,44.4,56.9,44.4z M51,44.4
					C50.9,44.4,50.9,44.3,51,44.4l-0.1-0.7c0,0,0-0.1,0.1-0.1c0,0,0.1,0,0.1,0.1L51,44.4C51,44.3,51,44.4,51,44.4
					C51,44.4,51,44.4,51,44.4z M55.8,44.3C55.8,44.3,55.8,44.3,55.8,44.3C55.8,44.3,55.7,44.3,55.8,44.3l0-0.8c0,0,0-0.1,0.1-0.1
					c0,0,0.1,0,0.1,0.1L55.8,44.3C55.9,44.3,55.9,44.3,55.8,44.3z M52,44.3C51.9,44.3,51.9,44.3,52,44.3l-0.1-0.7c0,0,0-0.1,0.1-0.1
					c0,0,0.1,0,0.1,0.1L52,44.3C52.1,44.3,52,44.3,52,44.3C52,44.3,52,44.3,52,44.3z M53.9,44.3C53.9,44.3,53.8,44.3,53.9,44.3
					l-0.1-0.8c0,0,0-0.1,0.1-0.1c0,0,0.1,0,0.1,0.1L53.9,44.3C54,44.3,54,44.3,53.9,44.3z M55.3,44.3C55.3,44.3,55.3,44.3,55.3,44.3
					C55.2,44.3,55.2,44.3,55.3,44.3l0-0.8c0,0,0-0.1,0.1-0.1c0,0,0.1,0,0.1,0.1L55.3,44.3C55.4,44.3,55.3,44.3,55.3,44.3z
					 M52.5,44.3C52.5,44.3,52.5,44.3,52.5,44.3l-0.1-0.8c0,0,0-0.1,0.1-0.1c0,0,0.1,0,0.1,0.1L52.5,44.3
					C52.6,44.3,52.6,44.3,52.5,44.3C52.5,44.3,52.5,44.3,52.5,44.3z M54.7,44.3C54.7,44.3,54.7,44.3,54.7,44.3
					C54.6,44.3,54.6,44.3,54.7,44.3l-0.1-0.8c0,0,0-0.1,0.1-0.1c0,0,0.1,0,0.1,0.1L54.7,44.3C54.7,44.3,54.7,44.3,54.7,44.3z
					 M53.2,44.3C53.1,44.3,53.1,44.3,53.2,44.3L53,43.5c0,0,0-0.1,0.1-0.1c0,0,0.1,0,0.1,0.1L53.2,44.3
					C53.2,44.3,53.2,44.3,53.2,44.3C53.2,44.3,53.2,44.3,53.2,44.3z"/>
			</g>
		</g>
	</g>
</g>
<circle class="st6" cx="53.4" cy="53.9" r="36.9"/>
</svg>
