<?xml version="1.0" encoding="utf-8"?>
<!-- Generator: Adobe Illustrator 23.0.0, SVG Export Plug-In . SVG Version: 6.00 Build 0)  -->
<svg version="1.1" id="Capa_1" xmlns="http://www.w3.org/2000/svg" xmlns:xlink="http://www.w3.org/1999/xlink" x="0px" y="0px"
	 viewBox="0 0 107.7 107.7" style="enable-background:new 0 0 107.7 107.7;" xml:space="preserve">
<style type="text/css">
	.st0{filter:url(#Adobe_OpacityMaskFilter);}
	.st1{fill:#FFFFFF;}
	.st2{mask:url(#DENMARK_1_);}
	.st3{clip-path:url(#SVGID_2_);fill:#0A9CED;}
	.st4{clip-path:url(#SVGID_4_);fill:#FFE600;}
	.st5{clip-path:url(#SVGID_6_);fill:#FFE600;}
	.st6{fill:none;stroke:#0E9FDB;stroke-width:2;stroke-miterlimit:10;}
</style>
<defs>
	<filter id="Adobe_OpacityMaskFilter" filterUnits="userSpaceOnUse" x="12.4" y="22.3" width="105.8" height="61.4">
		<feColorMatrix  type="matrix" values="1 0 0 0 0  0 1 0 0 0  0 0 1 0 0  0 0 0 1 0"/>
	</filter>
</defs>
<mask maskUnits="userSpaceOnUse" x="12.4" y="22.3" width="105.8" height="61.4" id="DENMARK_1_">
	<g class="st0">
		<ellipse class="st1" cx="52.9" cy="54.2" rx="27.8" ry="27.8"/>
	</g>
</mask>
<g id="DENMARK_4_" class="st2">
	<g>
		<g>
			<g>
				<g>
					<defs>
						<polygon id="SVGID_1_" points="12.4,23.1 117.8,22.4 118.3,83.1 13,83.7 						"/>
					</defs>
					<clipPath id="SVGID_2_">
						<use xlink:href="#SVGID_1_"  style="overflow:visible;"/>
					</clipPath>
					
						<rect x="12.7" y="22.7" transform="matrix(1 -2.176145e-03 2.176145e-03 1 -0.1153 0.1424)" class="st3" width="105.3" height="60.7"/>
				</g>
			</g>
			<g>
				<g>
					<defs>
						<polygon id="SVGID_3_" points="12.4,23 117.8,22.3 118.3,83 13,83.7 						"/>
					</defs>
					<clipPath id="SVGID_4_">
						<use xlink:href="#SVGID_3_"  style="overflow:visible;"/>
					</clipPath>
					
						<rect x="46.9" y="22.8" transform="matrix(1 -2.176145e-03 2.176145e-03 1 -0.1154 0.1145)" class="st4" width="11.4" height="60.7"/>
				</g>
			</g>
			<g>
				<g>
					<defs>
						<polygon id="SVGID_5_" points="12.4,23.1 117.8,22.4 118.3,83.1 13,83.7 						"/>
					</defs>
					<clipPath id="SVGID_6_">
						<use xlink:href="#SVGID_5_"  style="overflow:visible;"/>
					</clipPath>
					
						<rect x="12.7" y="47.4" transform="matrix(1 -2.176145e-03 2.176145e-03 1 -0.1153 0.1424)" class="st5" width="105.3" height="11.3"/>
				</g>
			</g>
		</g>
	</g>
</g>
<circle class="st6" cx="53.4" cy="53.9" r="36.9"/>
</svg>
