<?xml version="1.0" encoding="utf-8"?>
<!-- Generator: Adobe Illustrator 23.0.0, SVG Export Plug-In . SVG Version: 6.00 Build 0)  -->
<svg version="1.1" id="Capa_1" xmlns="http://www.w3.org/2000/svg" xmlns:xlink="http://www.w3.org/1999/xlink" x="0px" y="0px"
	 viewBox="0 0 117 107.3" style="enable-background:new 0 0 117 107.3;" xml:space="preserve">
<style type="text/css">
	.st0{fill:#035F86;}
</style>
<g>
	<path class="st0" d="M46.3,39.6c0.3-0.3,0.6-0.5,0.8-0.8C46.9,39.1,46.6,39.4,46.3,39.6z"/>
	<path class="st0" d="M47.4,38.7c2.8-2.2,6.2-3.7,10-4.1C53.6,35,50.2,36.5,47.4,38.7z"/>
	<path class="st0" d="M40.2,53.6c0,10.6,8.6,19.1,19.1,19.1C48.8,72.7,40.3,64.1,40.2,53.6z"/>
	<path class="st0" d="M40.2,53.6c0-0.7,0-1.3,0.1-1.9C40.2,52.3,40.2,52.9,40.2,53.6z"/>
	<path class="st0" d="M44.4,41.7c0.1-0.1,0.1-0.2,0.2-0.2C44.5,41.5,44.4,41.6,44.4,41.7z"/>
	<path class="st0" d="M45.3,40.6c0.2-0.2,0.3-0.4,0.5-0.5C45.6,40.3,45.5,40.4,45.3,40.6z"/>
	<path class="st0" d="M58.2,2.6C29.8,2.6,6.7,25.7,6.7,54.1s23.1,51.5,51.5,51.5s51.5-23.1,51.5-51.5S86.6,2.6,58.2,2.6z M33.1,35.9
		l10-10c1.1-1.1,2.9-1.1,4,0s1.1,2.9,0,4l-10,10c-1.1,1.1-2.9,1.1-4,0C32,38.8,32,37,33.1,35.9z M79.2,75c0.8,0.9,0.8,2.3,0,3.1
		c-0.9,0.8-2.3,0.8-3.1,0l-3.5-3.5c-3.9,2.5-8.4,3.9-13.3,3.9S49.9,77,46,74.6l-3.5,3.5c-0.9,0.8-2.3,0.8-3.1,0
		c-0.8-0.9-0.8-2.3,0-3.1l3.1-3.1c-4.9-4.5-8-11.1-8-18.3c0-13.7,11-24.8,24.7-24.8S84,39.9,84,53.6c0,7.2-3,13.7-8,18.4L79.2,75z
		 M85.5,39.9c-1.1,1.1-2.9,1.1-4,0l-10-10c-1.1-1.1-1.1-2.9,0-4s2.9-1.1,4,0l10,10C86.6,37,86.6,38.8,85.5,39.9z"/>
	<path class="st0" d="M59.3,72.7c10.6,0,19.1-8.5,19.1-19.1C78.4,64.2,69.8,72.7,59.3,72.7z"/>
	<path class="st0" d="M59.3,37.3c-9,0-16.2,7.2-16.2,16.2s7.3,16.2,16.2,16.2s16.2-7.2,16.2-16.2S68.3,37.3,59.3,37.3z M68.1,63.9
		c-0.5,0.5-1.2,0.5-1.7,0l-8.3-8.5c-0.2-0.2-0.3-0.5-0.3-0.8V43.9c0-0.6,0.6-1.2,1.2-1.2s1.2,0.6,1.2,1.2v10.2l7.9,8.1
		C68.6,62.7,68.6,63.4,68.1,63.9z"/>
	<path class="st0" d="M40.3,51.7c0.4-3.7,1.9-7.2,4.1-10C42.2,44.5,40.7,47.9,40.3,51.7z"/>
	<path class="st0" d="M44.6,41.5c0.2-0.3,0.5-0.6,0.8-0.8C45.1,40.9,44.8,41.2,44.6,41.5z"/>
	<path class="st0" d="M78.4,53.6c0-10.6-8.5-19.1-19.1-19.1C69.8,34.5,78.4,43,78.4,53.6z"/>
	<path class="st0" d="M45.8,40.1c0.2-0.2,0.3-0.3,0.5-0.5C46.1,39.8,46,39.9,45.8,40.1z"/>
	<path class="st0" d="M57.4,34.6c0.6-0.1,1.3-0.1,1.9-0.1C58.6,34.5,58,34.5,57.4,34.6z"/>
	<path class="st0" d="M47.2,38.9c0.1-0.1,0.2-0.1,0.2-0.2C47.3,38.7,47.2,38.8,47.2,38.9z"/>
</g>
</svg>
