<?xml version="1.0" encoding="utf-8"?>
<!-- Generator: Adobe Illustrator 23.0.0, SVG Export Plug-In . SVG Version: 6.00 Build 0)  -->
<svg version="1.1" id="Capa_1" xmlns="http://www.w3.org/2000/svg" xmlns:xlink="http://www.w3.org/1999/xlink" x="0px" y="0px"
	 viewBox="0 0 117 107.3" style="enable-background:new 0 0 117 107.3;" xml:space="preserve">
<style type="text/css">
	.st0{fill:#035F86;}
</style>
<g>
	<rect x="40.7" y="52.8" class="st0" width="10" height="2.5"/>
	<rect x="41" y="58.4" class="st0" width="9.8" height="2.5"/>
	<polygon class="st0" points="64.1,41.5 40.9,41.5 40.9,44 64.1,44 	"/>
	<rect x="43.3" y="35.8" class="st0" width="20.8" height="2.5"/>
	<path class="st0" d="M51.4,46.1c0-0.2,0.2-0.5,0.3-0.6C51.5,45.6,51.4,45.9,51.4,46.1z"/>
	<rect x="40.9" y="47.1" class="st0" width="9.8" height="2.5"/>
	<path class="st0" d="M53,82.6h26.2V47H53V82.6z M56.9,51.4h20.8v2.5H56.9V51.4z M54.6,57.1h23.2v2.5H54.6V57.1z M54.6,62.7h23.2
		v2.5H54.6V62.7z M54.6,68.3h23.2v2.5H54.6V68.3z M54.6,74H72v2.5H54.6V74z"/>
	<path class="st0" d="M59.2,2.6C30.8,2.6,7.7,25.7,7.7,54.1s23.1,51.5,51.5,51.5s51.5-23.1,51.5-51.5S87.6,2.6,59.2,2.6z M81.1,83.3
		c0,0.2-0.2,0.5-0.3,0.6c-0.1,0.2-0.4,0.3-0.6,0.3H52.3c-0.2,0-0.5-0.2-0.6-0.3c-0.2-0.1-0.3-0.4-0.3-0.6V69.1H38.6
		c-0.4,0-0.6-0.1-0.9-0.4c-0.3-0.2-0.4-0.6-0.4-0.9V30.5c0-0.4,0.1-0.6,0.4-0.9c0.2-0.3,0.6-0.4,0.9-0.4h27.9c0.4,0,0.6,0.1,0.9,0.4
		c0.3,0.2,0.4,0.6,0.4,0.9v14.7h12.3c0.2,0,0.5,0.2,0.6,0.3c0.2,0.2,0.2,0.4,0.4,0.6C81.1,46.1,81.1,83.3,81.1,83.3z"/>
	<path class="st0" d="M51.7,45.5c0.1-0.1,0.4-0.3,0.6-0.3C52.1,45.2,51.8,45.3,51.7,45.5z"/>
</g>
</svg>
