<?xml version="1.0" encoding="utf-8"?>
<!-- Generator: Adobe Illustrator 23.0.0, SVG Export Plug-In . SVG Version: 6.00 Build 0)  -->
<svg version="1.1" id="Capa_1" xmlns="http://www.w3.org/2000/svg" xmlns:xlink="http://www.w3.org/1999/xlink" x="0px" y="0px"
	 viewBox="0 0 117 107.3" style="enable-background:new 0 0 117 107.3;" xml:space="preserve">
<style type="text/css">
	.st0{fill:#035F86;}
</style>
<g>
	<path class="st0" d="M55.5,57.4c-0.2,0.1-0.4,0.3-0.5,0.5c-1.3,2.2-0.6,4.3,1,5.3v3.5h3.7l-0.1-3.4c1-0.7,1.7-1.8,1.7-3.1
		C61.3,57.5,58.3,55.5,55.5,57.4z"/>
	<path class="st0" d="M53,36c-2,1.2-3.1,3.4-3.1,5.7V48h16l0.2-6.3C65.4,36,59.1,32.1,53,36z"/>
	<path class="st0" d="M59.2,2.6C30.8,2.6,7.7,25.7,7.7,54.1s23.1,51.5,51.5,51.5s51.5-23.1,51.5-51.5S87.6,2.6,59.2,2.6z M73.5,77.9
		H42.3c-2,0-3.7-1.4-4.2-3.4h39.6C77.2,76.5,75.5,77.9,73.5,77.9z M78.1,72.7h-40V50.8c0-1.5,1.3-2.8,2.8-2.8h2.8v-6.3
		c0-4.9,2.6-9.5,6.8-11.7c10.9-5.8,21.9,2.1,21.9,12.6v5.3h0.1h2.8c1.6,0,2.8,1.2,2.8,2.8V72.7z"/>
</g>
</svg>
