<?xml version="1.0" encoding="utf-8"?>
<!-- Generator: Adobe Illustrator 23.0.0, SVG Export Plug-In . SVG Version: 6.00 Build 0)  -->
<svg version="1.1" id="Capa_1" xmlns="http://www.w3.org/2000/svg" xmlns:xlink="http://www.w3.org/1999/xlink" x="0px" y="0px"
	 viewBox="0 0 117 107.3" style="enable-background:new 0 0 117 107.3;" xml:space="preserve">
<style type="text/css">
	.st0{fill:#035F86;}
</style>
<g>
	<path class="st0" d="M59.2,2.6C30.8,2.6,7.7,25.7,7.7,54.1s23.1,51.5,51.5,51.5s51.5-23.1,51.5-51.5S87.6,2.6,59.2,2.6z M84.2,41.1
		c-1.1,1.2-2.6,1.8-4.3,1.9l-0.1-0.1l0,0L66.1,58.4c1.1,4.3,0.3,8.6-2.5,11.5L63.5,70L54,60.5L33.5,78.8c0,0.1-0.5-0.2-0.9-0.6
		c-0.4-0.3-0.6-0.8-0.6-0.9l18.3-20.4l-9.4-9.4l0.1-0.1c2.8-2.8,7.2-3.6,11.5-2.5l13.6,13.5L52.4,44.8L68,31l0,0
		c0.1-1.6,0.7-3,1.9-4.2c0.1-0.1,0.1-0.1,0.1-0.1l7.1,7.1L84.2,41.1L84.2,41.1z"/>
	<polygon class="st0" points="50.4,56.8 50.3,56.9 52.2,58.7 54,60.5 52.3,58.7 	"/>
	<path class="st0" d="M68,31.1l11.8,11.8L68,31.1C68,31,68,31.1,68,31.1z"/>
</g>
</svg>
