<?xml version="1.0" encoding="utf-8"?>
<!-- Generator: Adobe Illustrator 23.0.0, SVG Export Plug-In . SVG Version: 6.00 Build 0)  -->
<svg version="1.1" id="Capa_1" xmlns="http://www.w3.org/2000/svg" xmlns:xlink="http://www.w3.org/1999/xlink" x="0px" y="0px"
	 viewBox="0 0 117 107.3" style="enable-background:new 0 0 117 107.3;" xml:space="preserve">
<style type="text/css">
	.st0{fill:#035F86;}
</style>
<path class="st0" d="M59.2,2.6C30.8,2.6,7.7,25.7,7.7,54.1s23.1,51.5,51.5,51.5s51.5-23.1,51.5-51.5S87.6,2.6,59.2,2.6z M82.2,73.2
	c-0.8,0-3,0-3.8-0.2h-0.8H63.9V59.3c0-0.4,0.3-0.6,0.6-0.6h7c0.5,0,0.7-0.6,0.4-1L59,42.5L46,57.8c-0.3,0.4-0.1,1,0.4,1h7
	c0.4,0,0.6,0.3,0.6,0.6V73H42h-6.7c-7.3-0.1-13.2-6.6-13.2-14.6s6.1-14.6,13.5-14.6c0,0,0.1,0,0.2,0c0.4-4.6,4-8.3,8.4-8.3
	c2,0,4,0.8,5.4,2.1c2.1-3.8,5.2-6.7,9-8.4c0,0,0.1-0.1,0.2,0c0.1-0.1,0.1-0.1,0.2-0.1c0.2,0,0.4-0.1,0.6-0.2
	c0.1-0.1,0.2-0.1,0.4-0.2c0.1,0,0.4-0.1,0.6-0.2c0.2-0.1,0.2-0.2,0.4-0.2c0.3,0,0.7-0.1,1-0.2c0-0.1,0.1-0.1,0.2-0.1
	c0.4-0.1,0.7-0.1,1-0.2c0.2-0.1,0.2-0.1,0.4-0.1s0.6-0.1,0.8-0.1c0.1,0,0.1,0,0.3,0c0.4-0.1,0.8-0.1,1.2-0.1c9.2,0,17,6.9,18.9,16.3
	c5.7,1.8,9.8,7.6,9.8,14.4C94.6,66.5,89.9,73.2,82.2,73.2z"/>
</svg>
