<?xml version="1.0" encoding="utf-8"?>
<!-- Generator: Adobe Illustrator 23.0.0, SVG Export Plug-In . SVG Version: 6.00 Build 0)  -->
<svg version="1.1" xmlns="http://www.w3.org/2000/svg" xmlns:xlink="http://www.w3.org/1999/xlink" x="0px" y="0px"
	 viewBox="0 0 502.9 411.4" style="enable-background:new 0 0 502.9 411.4;" xml:space="preserve">
<style type="text/css">
	.st0{fill:#FFFFFF;}
	.st1{fill:#232223;}
</style>
<g id="Background">
</g>
<g id="Icons">
	<g>
		<g>
			<path class="st0" d="M243.4,139.3l50.2-20.8c-21.8-41.6-65.1-70.3-115.3-71.2C104.9,46,44.4,104.4,43.1,177.8
				c-1.3,73.3,57.1,133.9,130.5,135.1c38.9,0.7,74.1-15.4,98.9-41.5c0,0-31.3-83.5-38.1-107.2C227.7,140.4,243.4,139.3,243.4,139.3z
				 M107.1,198.3l-1.6,1.9l-11.6-8.6l1.7-2.1c2.5-3.1,3.9-6.7,4-10.7c0.1-3.9-1.2-7.7-3.6-10.8l-1.7-2.2l11.9-8.2l1.5,2
				c4.2,5.7,6.4,12.4,6.3,19.5C114,186.2,111.5,192.8,107.1,198.3z M135.8,219.5l-1.5,2l-11.6-8.6l1.6-2.1c7-9.1,10.8-19.9,11-31.3
				c0.2-11.5-3.2-22.4-9.9-31.7l-1.5-2.1l11.9-8.2l1.5,2.1c8.4,11.8,12.8,25.7,12.5,40.2C149.4,194.3,144.6,208,135.8,219.5z
				 M167.9,243.3l-1.5,2l-11.6-8.6l1.6-2.1c12-15.8,18.6-34.6,18.9-54.5c0.4-19.8-5.5-38.9-17-55.1l-1.5-2.1l11.9-8.2l1.5,2.1
				c13.2,18.7,20,40.7,19.6,63.6C189.3,203.3,181.8,225.1,167.9,243.3z M202.4,268.9l-1.5,2l-11.6-8.6l1.6-2.1
				c17.4-23,26.9-50.4,27.4-79.3c0.5-28.8-8-56.6-24.6-80.2l-1.5-2.1l11.9-8.2l1.5,2.1c18.3,26.1,27.7,56.8,27.1,88.7
				C232.1,213.1,221.6,243.4,202.4,268.9z"/>
			<g>
				<g>
					<path class="st0" d="M307.3,360.3c-11.7-0.2-21.8-7.8-25.2-19l-55.4-180.6c-2.1-6.8-1.4-14.1,2-20.4c3.4-6.3,9-11,15.8-13.1
						l102.6-31.5c2.7-0.8,5.5-1.2,8.3-1.2c11.7,0.2,21.8,7.8,25.2,19L436,294.1c4.3,14.1-3.6,29.2-17.8,33.5l-102.6,31.5
						C312.9,359.9,310.1,360.3,307.3,360.3z M355.2,105.3c-1.7,0-3.3,0.2-5,0.7l-102.6,31.5c-4.1,1.3-7.5,4-9.5,7.9
						c-2,3.8-2.4,8.2-1.2,12.3l55.4,180.6c2,6.7,8.1,11.2,15.2,11.4c1.7,0,3.3-0.2,5-0.7l102.6-31.5c8.5-2.6,13.3-11.6,10.7-20.1
						l-55.4-180.6C368.3,110,362.2,105.4,355.2,105.3z"/>
				</g>
				<g>
					
						<rect x="375.7" y="213.2" transform="matrix(0.956 -0.2934 0.2934 0.956 -57.6876 123.2916)" class="st0" width="12.9" height="81.6"/>
					
						<rect x="354.9" y="173.3" transform="matrix(0.9561 -0.2931 0.2931 0.9561 -38.7062 114.0824)" class="st0" width="12.9" height="25.8"/>
					
						<rect x="343.9" y="137.4" transform="matrix(0.9561 -0.2932 0.2932 0.9561 -28.6685 109.3224)" class="st0" width="12.9" height="25.8"/>
				</g>
				
					<rect x="311.9" y="275.5" transform="matrix(0.956 -0.2932 0.2932 0.956 -72.9744 109.2826)" class="st0" width="32.2" height="45.1"/>
				<g>
					<g>
						<path class="st0" d="M300.1,192.8l-0.8-0.3c-1.2-0.5-2.5-0.5-3.7-0.2c-1.2,0.4-2.2,1.1-3,2.2l-0.5,0.7l-3.7-2.8l0.5-0.7
							c1.3-1.9,3.2-3.2,5.4-3.9c2.2-0.7,4.5-0.6,6.6,0.2l0.8,0.3L300.1,192.8z"/>
					</g>
					<g>
						<path class="st0" d="M303.8,181.8l-0.8-0.3c-3.5-1.2-7.2-1.3-10.8-0.2c-3.5,1.1-6.6,3.2-8.8,6.2l-0.5,0.7l-3.7-2.8l0.5-0.7
							c2.8-3.8,6.6-6.5,11.1-7.9c4.5-1.4,9.2-1.3,13.6,0.3l0.8,0.3L303.8,181.8z"/>
					</g>
					<g>
						<path class="st0" d="M312.3,156.4l-0.8-0.3c-8.8-3-18.2-3.2-27.2-0.5c-8.9,2.7-16.6,8.1-22.2,15.6l-0.5,0.7l-3.7-2.8l0.5-0.7
							c6.2-8.3,14.7-14.2,24.6-17.3c9.9-3,20.2-2.8,30,0.5l0.8,0.3L312.3,156.4z"/>
					</g>
					<g>
						<path class="st0" d="M307.9,169.5l-0.8-0.3c-6.1-2.1-12.5-2.2-18.7-0.4c-6.1,1.9-11.4,5.6-15.3,10.8l-0.5,0.7l-3.7-2.8
							l0.5-0.7c4.4-5.9,10.5-10.2,17.6-12.4c7.1-2.2,14.5-2,21.5,0.4l0.8,0.3L307.9,169.5z"/>
					</g>
				</g>
			</g>
		</g>
	</g>
</g>
</svg>
