<?xml version="1.0" encoding="utf-8"?>
<!-- Generator: Adobe Illustrator 23.0.0, SVG Export Plug-In . SVG Version: 6.00 Build 0)  -->
<svg version="1.1" id="Capa_1" xmlns="http://www.w3.org/2000/svg" xmlns:xlink="http://www.w3.org/1999/xlink" x="0px" y="0px"
	 viewBox="0 0 166.1 166.1" style="enable-background:new 0 0 166.1 166.1;" xml:space="preserve">
<style type="text/css">
	.st0{fill:#035F86;}
</style>
<path class="st0" d="M84.4,3.3c-43.1,0-78,34.9-78,78s34.9,78,78,78s78-34.9,78-78C162.5,38.2,127.5,3.3,84.4,3.3z M104.5,52.6
	l18.4-10.9l3,3l-0.1,0.1l0.9,0.9l-11,18.3l-5.6-2.1l-14,13.6l-3.9-3.3l14.3-14L104.5,52.6z M75.9,102.6l-31.5,28l-3.8-3.8l-4.5-4.5
	l28.7-30.7l3.8,3.8l7.3-7.1l3.9,3.3L72.2,99L75.9,102.6z M135.8,96l-1,9.3l-10.5-9.1l-15.3,5.2l0,0l-3.1,15.9l10.5,9.1l-9.1,2.2
	c-1.8,0.4-3.8,0-5.2-1.3l-8.7-7.6c-1.5-1.3-2.2-3.3-1.8-5.3l3.3-16.5L69.5,75.7l-15.9,5.4c-1.9,0.6-3.9,0.2-5.4-1.1l-8.7-7.6
	c-1.4-1.3-2.2-3.1-2-5l1-9.3L49,67.2L64.4,62l3.1-15.9L56.9,37l9.1-2.2c1.8-0.4,3.8,0,5.2,1.3l8.7,7.6c1.5,1.3,2.2,3.3,1.8,5.3
	l-3.3,16.5l25.3,22.2l15.9-5.4c1.9-0.6,3.9-0.2,5.4,1.1l8.7,7.6C135.3,92.2,136,94.1,135.8,96z"/>
</svg>
