<?xml version="1.0" encoding="utf-8"?>
<!-- Generator: Adobe Illustrator 23.0.0, SVG Export Plug-In . SVG Version: 6.00 Build 0)  -->
<svg version="1.1" id="Capa_1" xmlns="http://www.w3.org/2000/svg" xmlns:xlink="http://www.w3.org/1999/xlink" x="0px" y="0px"
	 viewBox="0 0 166.1 166.1" style="enable-background:new 0 0 166.1 166.1;" xml:space="preserve">
<style type="text/css">
	.st0{fill:#035F86;}
</style>
<path class="st0" d="M81,3.9C37.9,3.9,3,38.9,3,82s34.9,78,78,78s78-34.9,78-78S124.1,3.9,81,3.9z M118.6,65.7h-9.3l0.2,16.9
	c0.1,6-3.9,11.4-9.6,13.2L83,101v22c6.1,0.7,10.8,3.7,10.8,7.4c0,4.2-5.9,7.6-13.3,7.6s-13.3-3.4-13.3-7.6c0-3.7,4.6-6.8,10.8-7.4
	v-20.8L63.8,97c-5.4-2-9-7.1-9-12.8V69.4h-0.1c-7.6,0-13.9-3.5-13.9-7.9s6.2-7.9,13.9-7.9c7.6,0,13.9,3.5,13.9,7.9
	c0,3.3-3.6,6.2-8.7,7.3v15.3c0,3.6,2.3,6.9,5.7,8.1L78,96.8V42.4h-7l9.1-20.9L90,42.4h-7v53.4l15.4-4.7c3.6-1.1,6.2-4.5,6.1-8.4
	l-0.2-17h-10V50.8h24.3C118.6,50.8,118.6,65.7,118.6,65.7z"/>
</svg>
