<?xml version="1.0" encoding="utf-8"?>
<!-- Generator: Adobe Illustrator 23.0.0, SVG Export Plug-In . SVG Version: 6.00 Build 0)  -->
<svg version="1.1" id="Capa_1" xmlns="http://www.w3.org/2000/svg" xmlns:xlink="http://www.w3.org/1999/xlink" x="0px" y="0px"
	 viewBox="0 0 171.7 148.6" style="enable-background:new 0 0 171.7 148.6;" xml:space="preserve">
<style type="text/css">
	.st0{fill:#1D9AD7;stroke:#FFFFFF;stroke-width:0.25;stroke-miterlimit:10;}
	.st1{fill:#FFFFFF;}
	.st2{fill:#189BD8;}
	.st3{clip-path:url(#SVGID_2_);fill:#FFFFFF;}
	.st4{clip-path:url(#SVGID_2_);fill:#BE1637;}
	.st5{clip-path:url(#SVGID_2_);fill:#293270;}
	.st6{clip-path:url(#SVGID_4_);fill:#344093;}
	.st7{clip-path:url(#SVGID_4_);fill:#F4F3F4;}
	.st8{clip-path:url(#SVGID_4_);fill:#D80D33;}
	.st9{clip-path:url(#SVGID_5_);fill:#020203;}
	.st10{clip-path:url(#SVGID_5_);fill:#E10720;}
	.st11{clip-path:url(#SVGID_5_);fill:#F7D92A;}
	.st12{clip-path:url(#SVGID_5_);}
	.st13{fill:#1D9AD7;}
	.st14{clip-path:url(#SVGID_8_);fill:#020203;}
	.st15{clip-path:url(#SVGID_8_);fill:#1D9AD7;}
	.st16{fill:none;stroke:#FFFFFF;stroke-width:0.76;stroke-miterlimit:10;}
	.st17{fill:none;stroke:#189BD8;stroke-miterlimit:10;}
	.st18{fill:none;stroke:#FFFFFF;stroke-miterlimit:10;}
	.st19{fill:#469ED8;}
	.st20{fill:#D4111C;}
	.st21{fill:#DB1315;}
	.st22{fill:#31AB58;}
	.st23{fill:#AC1917;}
	.st24{fill:#497FC1;}
	.st25{fill:#46A1DA;}
	.st26{fill:url(#SVGID_10_);}
	.st27{fill:#DF60A0;}
	.st28{fill:#395297;}
	.st29{fill:none;}
	.st30{clip-path:url(#SVGID_13_);fill:#FFFFFF;}
	.st31{clip-path:url(#SVGID_13_);fill:#1D9AD7;}
	.st32{fill:#116086;}
	.st33{fill:#155F86;}
	.st34{clip-path:url(#SVGID_15_);fill:#FFFFFF;}
	.st35{clip-path:url(#SVGID_15_);fill:#1B6C98;}
	.st36{clip-path:url(#SVGID_15_);fill:#155F86;}
	.st37{fill:#1D9AD7;stroke:#FFFFFF;stroke-miterlimit:10;}
	.st38{fill:#155079;}
	.st39{fill:#F6F6F6;}
	.st40{fill:#CECECD;}
	.st41{opacity:0.2;}
	.st42{filter:url(#Adobe_OpacityMaskFilter);}
	.st43{mask:url(#SVGID_16_);}
	.st44{fill:#6BC4E8;}
	.st45{fill:#9D9D9C;}
	.st46{filter:url(#Adobe_OpacityMaskFilter_1_);}
	.st47{mask:url(#SVGID_17_);}
	.st48{fill:#00A7E1;}
	.st49{fill:none;stroke:#E30613;stroke-width:0.25;stroke-miterlimit:10;}
	.st50{fill:#030404;}
	.st51{fill-rule:evenodd;clip-rule:evenodd;fill:url(#SVGID_18_);}
	.st52{fill:url(#SVGID_19_);}
	.st53{clip-path:url(#SVGID_21_);fill:#00A0DD;}
	.st54{clip-path:url(#SVGID_21_);fill:#FFFFFF;}
	.st55{clip-path:url(#SVGID_21_);fill:#13110C;}
	.st56{clip-path:url(#SVGID_21_);}
	.st57{clip-path:url(#SVGID_23_);fill:#030404;}
	.st58{clip-path:url(#SVGID_23_);fill:#FFFFFF;}
	.st59{clip-path:url(#SVGID_23_);fill:none;stroke:#221E1F;stroke-width:0.3488;stroke-miterlimit:10;}
	.st60{fill:#909294;}
	.st61{fill:#E9EAEB;}
	.st62{fill:#888A8D;}
	.st63{fill:#A0A2A4;}
	.st64{fill:#FAFAFA;}
	.st65{fill:#777779;}
	.st66{fill:#D9DBDB;}
	.st67{fill:#2A94D2;}
	.st68{fill:url(#SVGID_24_);}
	.st69{fill:#E5E5E4;}
	.st70{fill:#ECEDEE;}
	.st71{clip-path:url(#SVGID_28_);}
	.st72{clip-path:url(#SVGID_30_);}
	.st73{fill:#F2F2F2;}
	.st74{opacity:0.5;clip-path:url(#SVGID_32_);}
	.st75{opacity:0;fill:#B0B3B5;}
	.st76{opacity:3.846200e-02;fill:#B0B3B5;}
	.st77{opacity:7.692300e-02;fill:#B0B3B5;}
	.st78{opacity:0.1154;fill:#B0B3B5;}
	.st79{opacity:0.1538;fill:#B0B3B5;}
	.st80{opacity:0.1923;fill:#B0B3B5;}
	.st81{opacity:0.2308;fill:#B0B3B5;}
	.st82{opacity:0.2692;fill:#B0B3B5;}
	.st83{opacity:0.3077;fill:#B0B3B5;}
	.st84{opacity:0.3462;fill:#B0B3B5;}
	.st85{opacity:0.3846;fill:#B0B3B5;}
	.st86{opacity:0.4231;fill:#B0B3B5;}
	.st87{opacity:0.4615;fill:#B0B3B5;}
	.st88{opacity:0.5;fill:#B0B3B5;}
	.st89{opacity:0.5385;fill:#B0B3B5;}
	.st90{opacity:0.5769;fill:#B0B3B5;}
	.st91{opacity:0.6154;fill:#B0B3B5;}
	.st92{opacity:0.6538;fill:#B0B3B5;}
	.st93{opacity:0.6923;fill:#B0B3B5;}
	.st94{opacity:0.7308;fill:#B0B3B5;}
	.st95{opacity:0.7692;fill:#B0B3B5;}
	.st96{opacity:0.8077;fill:#B0B3B5;}
	.st97{opacity:0.8462;fill:#B0B3B5;}
	.st98{opacity:0.8846;fill:#B0B3B5;}
	.st99{opacity:0.9231;fill:#B0B3B5;}
	.st100{opacity:0.9615;fill:#B0B3B5;}
	.st101{fill:#B0B3B5;}
	.st102{fill:url(#SVGID_33_);}
	.st103{fill:url(#SVGID_34_);}
	.st104{fill:url(#SVGID_35_);}
	.st105{opacity:0.5;}
	.st106{opacity:0;fill:#ECECED;}
	.st107{opacity:3.846200e-02;fill:#ECECED;}
	.st108{opacity:7.692300e-02;fill:#ECECED;}
	.st109{opacity:0.1154;fill:#ECECED;}
	.st110{opacity:0.1538;fill:#ECECED;}
	.st111{opacity:0.1923;fill:#ECECED;}
	.st112{opacity:0.2308;fill:#ECECED;}
	.st113{opacity:0.2692;fill:#ECECED;}
	.st114{opacity:0.3077;fill:#ECECED;}
	.st115{opacity:0.3462;fill:#ECECED;}
	.st116{opacity:0.3846;fill:#ECECED;}
	.st117{opacity:0.4231;fill:#ECECED;}
	.st118{opacity:0.4615;fill:#ECECED;}
	.st119{opacity:0.5;fill:#ECECED;}
	.st120{opacity:0.5385;fill:#ECECED;}
	.st121{opacity:0.5769;fill:#ECECED;}
	.st122{opacity:0.6154;fill:#ECECED;}
	.st123{opacity:0.6538;fill:#ECECED;}
	.st124{opacity:0.6923;fill:#ECECED;}
	.st125{opacity:0.7308;fill:#ECECED;}
	.st126{opacity:0.7692;fill:#ECECED;}
	.st127{opacity:0.8077;fill:#ECECED;}
	.st128{opacity:0.8462;fill:#ECECED;}
	.st129{opacity:0.8846;fill:#ECECED;}
	.st130{opacity:0.9231;fill:#ECECED;}
	.st131{opacity:0.9615;fill:#ECECED;}
	.st132{fill:#ECECED;}
	.st133{fill:url(#SVGID_36_);}
	.st134{fill:#C2C2C4;}
	.st135{opacity:0;fill:#D9DADB;}
	.st136{opacity:0.1111;fill:#D9D8DA;}
	.st137{opacity:0.2222;fill:#D7D8D8;}
	.st138{opacity:0.3333;fill:#D6D7D8;}
	.st139{opacity:0.4444;fill:#D5D5D7;}
	.st140{opacity:0.5556;fill:#D5D6D7;}
	.st141{opacity:0.6667;fill:#D5D5D6;}
	.st142{opacity:0.7778;fill:#D3D3D5;}
	.st143{opacity:0.8889;fill:#D2D2D4;}
	.st144{fill:#D1D1D3;}
	.st145{fill:#E1E1E1;}
	.st146{fill:#D2D3D4;}
	.st147{fill:url(#SVGID_37_);}
	.st148{fill:url(#SVGID_38_);}
	.st149{fill:#673B8F;}
	.st150{fill:#5A5A55;}
	.st151{clip-path:url(#SVGID_40_);fill:#FFFFFF;}
	.st152{clip-path:url(#SVGID_40_);fill:#1D9AD7;}
	.st153{fill:#065F87;}
	.st154{fill-rule:evenodd;clip-rule:evenodd;fill:#065F87;}
</style>
<g>
	<g>
		<path class="st153" d="M142.9,136.2h-124c-3.8,0-6.9-3.1-6.9-6.9V87c0-3.8,3.1-6.9,6.9-6.9h124c3.8,0,6.9,3.1,6.9,6.9v42.4
			C149.7,133.1,146.6,136.2,142.9,136.2z M18.9,83.1c-2.1,0-3.9,1.7-3.9,3.9v42.4c0,2.1,1.7,3.9,3.9,3.9h124c2.1,0,3.9-1.7,3.9-3.9
			V87c0-2.1-1.7-3.9-3.9-3.9H18.9z"/>
	</g>
	<g>
		<path class="st153" d="M142.9,137.7h-124c-4.6,0-8.4-3.7-8.4-8.4V87c0-4.6,3.7-8.4,8.4-8.4h124c4.6,0,8.4,3.7,8.4,8.4v42.4
			C151.2,134,147.5,137.7,142.9,137.7z M18.9,84.6c-1.3,0-2.4,1.1-2.4,2.4v42.4c0,1.3,1.1,2.4,2.4,2.4h124c1.3,0,2.4-1.1,2.4-2.4V87
			c0-1.3-1.1-2.4-2.4-2.4H18.9z"/>
	</g>
</g>
<path class="st153" d="M80.2,126.4H24.9c-0.4,0-0.7-0.3-0.7-0.7v-2.7c0-0.4,0.3-0.7,0.7-0.7h55.3c0.4,0,0.7,0.3,0.7,0.7v2.7
	C80.9,126.1,80.6,126.4,80.2,126.4z"/>
<path class="st153" d="M137.3,126.4H92.7c-0.4,0-0.7-0.3-0.7-0.7v-2.7c0-0.4,0.3-0.7,0.7-0.7h44.6c0.4,0,0.7,0.3,0.7,0.7v2.7
	C138,126.1,137.7,126.4,137.3,126.4z"/>
<circle class="st153" cx="107.4" cy="101.1" r="12.7"/>
<path class="st153" d="M40.2,120.3H24.9c-0.4,0-0.7-0.3-0.7-0.7V113c0-0.4,0.3-0.7,0.7-0.7h15.3c0.4,0,0.7,0.3,0.7,0.7v6.5
	C40.9,120,40.6,120.3,40.2,120.3z"/>
<path class="st153" d="M67.7,120.3H52.5c-0.4,0-0.7-0.3-0.7-0.7V113c0-0.4,0.3-0.7,0.7-0.7h15.3c0.4,0,0.7,0.3,0.7,0.7v6.5
	C68.5,120,68.2,120.3,67.7,120.3z"/>
<path class="st153" d="M80.1,108.2H24.9c-0.4,0-0.7-0.3-0.7-0.7V90.8c0-0.4,0.3-0.7,0.7-0.7h55.2c0.4,0,0.7,0.3,0.7,0.7v16.6
	C80.9,107.8,80.5,108.2,80.1,108.2z"/>
<g>
	<path class="st154" d="M118.1,24.5c-0.3,1.2-1.7,2.3-3.1,2.5c-0.9,0.1-1.4-0.1-3.8-1.3c-9.5-5.1-18.3-7.3-29-7.5
		c-10.3-0.1-18.4,1.7-28.1,6.3c-2.1,1-4,1.8-4.3,1.8c-1,0-2.5-0.9-3.1-1.8c-0.8-1.3-0.6-3.4,0.4-4.4c0.4-0.4,2.1-1.4,3.8-2.2
		c6.7-3.3,14-5.5,21.6-6.6c4.7-0.6,13.6-0.7,17.9,0c7.9,1.2,15,3.3,21.8,6.8c4.2,2.1,5.9,3.4,5.9,4.4c0,0.2,0,0.6,0.1,0.8
		C118.3,23.5,118.3,24,118.1,24.5L118.1,24.5L118.1,24.5z M110.7,38.2c-0.5,1.8-2.7,3-4.3,2.5c-0.4-0.1-2.2-1-4-1.9
		c-7.7-3.9-15.9-5.6-24.1-4.9c-6.7,0.5-10.9,1.7-17.1,4.6c-4.2,2-4.8,2.1-6.5,0.9c-1.6-1.1-1.8-3.9-0.4-5.4c0.9-1,7.6-4.1,11.3-5.2
		c12.4-3.9,25.7-3.1,37.8,2.3C109.6,33.7,111.5,35.6,110.7,38.2L110.7,38.2z M103.2,52.3c-0.5,1.1-1.7,2-2.8,2.3
		c-0.7,0.1-1.5-0.1-4.1-1.5c-9.6-4.9-18.9-5.1-28.4-0.5c-4.2,2-5,2-6.6,0.3c-0.8-0.9-0.9-1.2-0.9-2.4c0-2,1.1-3,4.8-4.8
		c5.7-2.7,10.7-3.8,17-3.7c6.5,0.1,10.9,1.2,16.9,4.3c3.4,1.7,4.3,2.6,4.5,4.3C103.6,51,103.5,51.8,103.2,52.3L103.2,52.3
		L103.2,52.3z M96.2,65.5c-0.4,0.9-1.6,1.8-2.6,2.1c-1.2,0.3-2.1,0-4.2-1.3c-2.7-1.7-4.2-2.1-7.8-2.2c-3.6,0-5.1,0.3-7.9,2
		c-0.9,0.6-2.1,1.1-2.5,1.2c-1.8,0.5-4-1-4.4-3.1c-0.3-1.7,0.5-2.9,3-4.4c7.2-4.5,16.8-4.4,23.8,0.3C96.2,61.8,97.1,63.6,96.2,65.5
		L96.2,65.5L96.2,65.5z"/>
</g>
</svg>
