<?xml version="1.0" encoding="utf-8"?>
<!-- Generator: Adobe Illustrator 23.0.0, SVG Export Plug-In . SVG Version: 6.00 Build 0)  -->
<svg version="1.1" id="Capa_1" xmlns="http://www.w3.org/2000/svg" xmlns:xlink="http://www.w3.org/1999/xlink" x="0px" y="0px"
	 viewBox="0 0 314.5 237.2" style="enable-background:new 0 0 314.5 237.2;" xml:space="preserve">
<style type="text/css">
	.st0{fill:#155F86;}
	.st1{fill:#D4D4D5;}
	.st2{fill:#0E9FDB;}
	.st3{fill:#FFFFFF;}
	.st4{fill:#065F87;}
	.st5{fill:none;stroke:#FFFFFF;stroke-miterlimit:10;}
	.st6{fill:none;stroke:#155F86;stroke-width:3;stroke-miterlimit:10;}
	.st7{fill:none;stroke:#FFFFFF;stroke-width:2;stroke-miterlimit:10;}
	.st8{fill:none;stroke:#9D9D9C;stroke-width:4;stroke-miterlimit:10;}
	.st9{fill:none;stroke:#000000;stroke-width:4;stroke-miterlimit:10;}
	.st10{fill:#9D9D9C;}
	.st11{fill:url(#SVGID_1_);}
	.st12{fill:url(#SVGID_2_);}
	.st13{fill:url(#SVGID_3_);}
	.st14{fill:#010202;}
	.st15{fill:url(#SVGID_4_);}
	.st16{opacity:0.2;fill:#FFFFFF;}
	.st17{filter:url(#Adobe_OpacityMaskFilter);}
	.st18{filter:url(#Adobe_OpacityMaskFilter_1_);}
	.st19{fill:url(#SVGID_7_);}
	.st20{fill:url(#SVGID_8_);}
	.st21{fill:url(#SVGID_9_);}
	.st22{filter:url(#Adobe_OpacityMaskFilter_2_);}
	.st23{fill:url(#SVGID_11_);}
	.st24{fill:url(#SVGID_12_);}
	.st25{fill:url(#SVGID_13_);}
	.st26{filter:url(#Adobe_OpacityMaskFilter_3_);}
	.st27{clip-path:url(#SVGID_16_);fill:#FFFFFF;}
	.st28{clip-path:url(#SVGID_16_);fill:#1B6C98;}
	.st29{clip-path:url(#SVGID_16_);fill:#155F86;}
	.st30{fill:#176086;}
	.st31{clip-path:url(#SVGID_18_);fill:url(#SVGID_19_);}
	.st32{clip-path:url(#SVGID_18_);fill:url(#SVGID_20_);}
	.st33{clip-path:url(#SVGID_18_);fill:url(#SVGID_21_);}
	.st34{clip-path:url(#SVGID_18_);fill:url(#SVGID_22_);}
	.st35{fill:#EFEEEE;}
	.st36{clip-path:url(#SVGID_24_);fill:url(#SVGID_25_);}
	.st37{clip-path:url(#SVGID_24_);fill:url(#SVGID_26_);}
	.st38{clip-path:url(#SVGID_24_);fill:url(#SVGID_27_);}
	.st39{clip-path:url(#SVGID_24_);fill:url(#SVGID_28_);}
	.st40{fill:#0B5F87;}
	.st41{fill:#ECECEC;}
	.st42{fill:#106086;}
	.st43{fill-rule:evenodd;clip-rule:evenodd;fill:#FFFFFF;}
	.st44{fill:#FFFFFF;stroke:#FFFFFF;stroke-miterlimit:10;}
	.st45{fill:none;stroke:#155F86;stroke-width:5;stroke-miterlimit:10;}
	.st46{fill:none;stroke:#155F86;stroke-width:2;stroke-miterlimit:10;}
	.st47{fill:#D7D7D7;}
	.st48{fill:#5B9DD5;}
	.st49{fill:#195F86;}
	.st50{clip-path:url(#SVGID_30_);fill:#195F86;}
	.st51{clip-path:url(#SVGID_30_);fill-rule:evenodd;clip-rule:evenodd;fill:#195F86;}
	.st52{clip-path:url(#SVGID_30_);fill:#1B6187;}
	.st53{clip-path:url(#SVGID_32_);fill:#FFFFFF;}
	.st54{clip-path:url(#SVGID_32_);fill:#1B6C98;}
	.st55{clip-path:url(#SVGID_32_);fill:#155F86;}
	.st56{clip-path:url(#SVGID_34_);fill:#324689;}
	.st57{clip-path:url(#SVGID_34_);fill:#FFFFFF;}
	.st58{clip-path:url(#SVGID_34_);fill:#9F1831;}
	.st59{clip-path:url(#SVGID_36_);fill:#DC1F38;}
	.st60{clip-path:url(#SVGID_36_);fill:#FFFFFF;}
	.st61{clip-path:url(#SVGID_36_);fill:#253062;}
	.st62{clip-path:url(#SVGID_38_);fill:#020203;}
	.st63{clip-path:url(#SVGID_38_);fill:#FFEA37;}
	.st64{clip-path:url(#SVGID_38_);fill:#E62A2F;}
	.st65{clip-path:url(#SVGID_40_);fill:#344093;}
	.st66{clip-path:url(#SVGID_40_);fill:#F4F3F4;}
	.st67{clip-path:url(#SVGID_40_);fill:#D80D33;}
	.st68{clip-path:url(#SVGID_42_);fill:#3D9348;}
	.st69{clip-path:url(#SVGID_42_);fill:#FFFFFF;}
	.st70{clip-path:url(#SVGID_42_);fill:#D80D33;}
	.st71{clip-path:url(#SVGID_44_);fill:#409A63;}
	.st72{clip-path:url(#SVGID_44_);fill:#FFFFFF;}
	.st73{clip-path:url(#SVGID_44_);fill:#EF7F46;}
	.st74{clip-path:url(#SVGID_46_);}
	.st75{clip-path:url(#SVGID_48_);fill:#B6182E;}
	.st76{clip-path:url(#SVGID_48_);fill:#F4C328;}
	.st77{clip-path:url(#SVGID_50_);}
	.st78{clip-path:url(#SVGID_52_);fill:#B6182E;}
	.st79{clip-path:url(#SVGID_52_);fill:#F4C328;}
	.st80{clip-path:url(#SVGID_54_);fill:#020203;}
	.st81{clip-path:url(#SVGID_54_);fill:#E10720;}
	.st82{clip-path:url(#SVGID_54_);fill:#F7D92A;}
	.st83{clip-path:url(#SVGID_54_);}
	.st84{clip-path:url(#SVGID_58_);fill:#C71621;}
	.st85{clip-path:url(#SVGID_58_);fill:#FFFFFF;}
	.st86{clip-path:url(#SVGID_60_);fill:#FFFFFF;}
	.st87{clip-path:url(#SVGID_60_);fill:#5CB34F;}
	.st88{clip-path:url(#SVGID_60_);fill:#C51D25;}
	.st89{clip-path:url(#SVGID_62_);fill:#C4162B;}
	.st90{clip-path:url(#SVGID_62_);fill:#FFFFFF;}
	.st91{clip-path:url(#SVGID_62_);fill:#2A457C;}
	.st92{clip-path:url(#SVGID_64_);fill:#283374;}
	.st93{clip-path:url(#SVGID_64_);fill:#F3D131;}
	.st94{clip-path:url(#SVGID_64_);fill:#BC1733;}
	.st95{clip-path:url(#SVGID_66_);fill:#FFFFFF;}
	.st96{clip-path:url(#SVGID_66_);fill:#D80D33;}
	.st97{clip-path:url(#SVGID_68_);fill:#BC1733;}
	.st98{clip-path:url(#SVGID_68_);fill:#FFFFFF;}
	.st99{clip-path:url(#SVGID_68_);fill:#3D9348;}
	.st100{clip-path:url(#SVGID_70_);fill:#BF153D;}
	.st101{clip-path:url(#SVGID_70_);fill:#FFFFFF;}
	.st102{clip-path:url(#SVGID_72_);fill:#FFFFFF;}
	.st103{clip-path:url(#SVGID_72_);fill:#E53734;}
	.st104{clip-path:url(#SVGID_72_);}
	.st105{clip-path:url(#SVGID_76_);fill:#FFFFFF;}
	.st106{clip-path:url(#SVGID_76_);fill:#E41224;}
	.st107{clip-path:url(#SVGID_76_);fill:#3E58A4;}
	.st108{clip-path:url(#SVGID_76_);}
	.st109{clip-path:url(#SVGID_78_);fill:#E41224;}
	.st110{clip-path:url(#SVGID_78_);fill:#3E58A4;}
	.st111{clip-path:url(#SVGID_78_);fill:#F8E72A;}
	.st112{clip-path:url(#SVGID_78_);fill:#FFFFFF;}
	.st113{clip-path:url(#SVGID_80_);fill:#FFFFFF;}
	.st114{clip-path:url(#SVGID_80_);fill:#2C3F92;}
	.st115{clip-path:url(#SVGID_80_);fill:#BC1733;}
	.st116{clip-path:url(#SVGID_80_);}
	.st117{clip-path:url(#SVGID_82_);fill:#FFFFFF;}
	.st118{clip-path:url(#SVGID_82_);fill:#BC1733;}
	.st119{clip-path:url(#SVGID_82_);fill:#2C3F92;}
	.st120{clip-path:url(#SVGID_84_);fill:#E41224;}
	.st121{clip-path:url(#SVGID_84_);fill:#2C692D;}
	.st122{clip-path:url(#SVGID_84_);}
	.st123{clip-path:url(#SVGID_86_);fill:#F1E623;}
	.st124{clip-path:url(#SVGID_86_);}
	.st125{fill:#020203;}
	.st126{fill:none;}
	.st127{clip-path:url(#SVGID_86_);fill:#020203;}
	.st128{fill:#E41224;}
	.st129{clip-path:url(#SVGID_86_);fill:#FFFFFF;}
	.st130{clip-path:url(#SVGID_86_);fill:#E41224;}
	.st131{clip-path:url(#SVGID_86_);fill:#2B307A;}
</style>
<g id="PORTUGAL_5_">
	<g>
		<g>
			<defs>
				<polygon id="SVGID_83_" points="24.8,37.7 285.3,39.6 284.3,208.1 23.8,206.2 				"/>
			</defs>
			<clipPath id="SVGID_1_">
				<use xlink:href="#SVGID_83_"  style="overflow:visible;"/>
			</clipPath>
			<polygon style="clip-path:url(#SVGID_1_);fill:#E41224;" points="114.9,206.8 284.3,208.1 285.3,39.6 115.9,38.3 			"/>
			<polygon style="clip-path:url(#SVGID_1_);fill:#2C692D;" points="23.8,206.2 114.9,206.8 115.9,38.3 24.8,37.7 			"/>
			<g style="clip-path:url(#SVGID_1_);">
				<defs>
					<polygon id="SVGID_85_" points="24.8,37.7 285.3,39.6 284.3,208.1 23.8,206.2 					"/>
				</defs>
				<clipPath id="SVGID_2_">
					<use xlink:href="#SVGID_85_"  style="overflow:visible;"/>
				</clipPath>
				<path style="clip-path:url(#SVGID_2_);fill:#F1E623;" d="M145,148.9c-11.5-0.5-63.8-37.3-64.1-43.1l2.9-5.3
					c5.2,8.5,58.7,44.3,64,43.1L145,148.9L145,148.9z"/>
				<path style="clip-path:url(#SVGID_2_);fill:#F1E623;" d="M83.1,99.8c-1.1,3.1,13.7,13.3,31.3,25.4
					c17.7,12.1,32.9,19.6,34.1,18.6c0.1-0.1,0.6-1.1,0.5-1.1c-0.2,0.4-0.7,0.5-1.5,0.2c-4.8-1.6-17.3-8-32.7-18.6
					C99.4,113.8,86,104.1,83.9,100c-0.1-0.3-0.2-0.8-0.2-1.2l0,0l-0.4,0.9L83.1,99.8L83.1,99.8z M145.2,149.1
					c-0.2,0.4-0.5,0.4-1.2,0.3c-4.3-0.6-17.3-7.7-32.6-18c-17.8-12-32.6-23-31-25.8l0.4-0.9l0.1,0c-1.5,4.8,29.1,24.5,30.9,25.7
					c17.7,12.3,32.6,19.6,33.9,17.7L145.2,149.1L145.2,149.1z"/>
				<g style="clip-path:url(#SVGID_2_);">
					<path class="st125" d="M144.5,149.6c-0.2,0-0.3,0-0.5,0c-4.4-0.6-17.5-7.8-32.7-18.1c-20.2-13.7-30.4-21.9-31.1-25.1
						c-0.1-0.3,0-0.6,0.1-0.9l0.4-0.8c0,0.1,0,0.2,0,0.3l-0.2,0.7c-0.1,0.2-0.1,0.4-0.1,0.7c0.7,3.1,10.8,11.3,31,24.9
						c15.1,10.2,28.2,17.4,32.6,18c0.6,0.1,1,0.1,1.1-0.2l0.3-0.6c-0.1,0.1-0.3,0.1-0.6,0.1c-3.6,0-17-6.8-33.1-18
						c-0.2-0.1-0.6-0.4-1.2-0.8c-19.7-13.1-29.7-21.4-29.8-24.6c0.4,2.1,5,7.9,29.9,24.4c0.6,0.4,1.1,0.7,1.2,0.8
						c16.1,11.2,29.4,17.9,33,18c0.4,0,0.7-0.1,0.8-0.2l0,0c0,0.1,0,0.2-0.1,0.3l-0.2,0.8C145.2,149.5,144.8,149.6,144.5,149.6
						L144.5,149.6z M148.2,144c-2.7,0-17.1-7.3-33.7-18.7c-19-13-32.4-22.5-31.4-25.6l0.5-1c0,0,0,0.1,0,0.1l-0.3,0.9
						c-1.1,3.2,16.1,15,31.2,25.4c16.6,11.4,31,18.6,33.6,18.6c0.2,0,0.3,0,0.3-0.1c0.1-0.2,0.2-0.4,0.3-0.6
						c-0.3,0.1-0.7,0.1-1.3-0.1c-5.3-1.7-18.2-8.7-32.7-18.6c-14.1-9.6-28.8-20-31-24.4c-0.1-0.3-0.3-0.8-0.2-1.3
						c0.2,0.4,0.3,0.9,0.4,1.1c2.2,4.3,17.7,15.3,30.9,24.3c14.5,9.9,27.4,16.9,32.7,18.5c0.7,0.2,1.2,0.2,1.4-0.1
						c0.2,0.1,0.2,0.1-0.2,0.9C148.5,143.9,148.4,144,148.2,144L148.2,144z"/>
				</g>
				<path style="clip-path:url(#SVGID_2_);fill:#F1E623;" d="M115.6,109.6c11.5,0,25.7-1.5,33.8-5.1l-1.7-3.2
					c-4.8,2.9-19.1,4.8-32.2,5c-15.5-0.3-26.4-1.9-31.8-6.1l-1.7,3.4C92,108.4,102.3,109.5,115.6,109.6L115.6,109.6z"/>
				<path style="clip-path:url(#SVGID_2_);fill:#F1E623;" d="M149.9,104.6c-0.3,0.5-5.6,2.5-13.5,3.9c-5.3,0.9-12.3,1.6-20.9,1.5
					c-8.2,0-14.9-0.7-20-1.6c-8.2-1.5-12.4-3.5-14-4.2c0.2-0.3,0.3-0.6,0.4-0.8c4.5,2,8.8,3.2,13.7,4.1c5,0.8,11.7,1.5,19.8,1.6
					c8.6,0,15.4-0.7,20.7-1.6c8-1.4,12.5-3.2,13.1-4.1L149.9,104.6L149.9,104.6z M148.4,101.4c-0.9,0.8-5.2,2.4-12.9,3.7
					c-5.1,0.8-11.6,1.5-19.9,1.4c-7.9,0-14.3-0.7-19.2-1.5c-7.7-1.2-11.9-3.2-13.3-3.8c0.2-0.3,0.3-0.5,0.5-0.8
					c1.1,0.7,5.1,2.5,13,3.8c4.8,0.8,11.2,1.4,19.1,1.5c8.2,0.1,14.6-0.6,19.7-1.4c7.7-1.1,11.8-3.3,12.5-3.8L148.4,101.4
					L148.4,101.4z"/>
				<g style="clip-path:url(#SVGID_2_);">
					<path class="st125" d="M115.3,110.2c-6.9-0.1-13.6-0.6-19.8-1.5c-8-1.5-12.3-3.4-13.9-4.2l-0.1-0.5l0.3-0.6
						c4.4,1.9,8.7,3.2,13.9,4.1c6.2,1,12.8,1.5,19.7,1.6c7.1,0,13.9-0.5,20.8-1.6c8-1.4,12.4-3.2,13-4l0.7,1.1
						c-0.3,0.7-5.9,2.7-13.5,4.1c-6.5,1.1-13.6,1.6-20.9,1.5L115.3,110.2L115.3,110.2z M81.9,103.5l-0.3,0.8c1.7,0.6,6,2.6,13.9,4.1
						c6.1,1,12.8,1.5,19.7,1.5l0,0.1l0.3-0.1c7.3,0,14.4-0.5,20.9-1.5c8.1-1.5,13.1-3.5,13.4-3.9l-0.6-1c-0.4,0.8-4.5,2.7-13,4.1
						c-7,1.1-13.7,1.6-20.8,1.6c-7-0.1-13.6-0.6-19.9-1.6C90.5,106.8,86.2,105.5,81.9,103.5L81.9,103.5z M115.5,106.6
						c-6.9-0.1-13.5-0.6-19-1.5c-6.8-1-10.8-2.8-12.7-3.6l-0.6-0.3l0.3-0.8c0-0.1,0.2-0.3,0.3-0.3c0.7,0.4,4.5,2.4,12.9,3.8
						c3.8,0.6,10.2,1.4,18.9,1.4c7,0,13.2-0.4,19.8-1.4c7.3-1.1,11.7-3.1,12.4-3.8l0.7,1.1c-0.9,0.9-5.1,2.6-12.9,3.9
						c-6.6,1-12.9,1.4-19.9,1.4L115.5,106.6L115.5,106.6z M83.6,100.4l-0.3,0.8l0.6,0.1c1.9,0.8,5.9,2.5,12.7,3.6
						c5.5,0.9,12.1,1.5,19,1.5l0,0.1l0.1-0.1c6.9,0,13.2-0.4,19.8-1.4c7.8-1.3,12-3,12.8-3.7l-0.6-0.9c-0.4,0.5-4.4,2.7-12.3,3.9
						c-6.6,1-12.9,1.4-19.7,1.4c-8.9-0.1-15.3-0.8-19.1-1.5C88.1,102.8,84.2,100.8,83.6,100.4L83.6,100.4z"/>
				</g>
				<path style="clip-path:url(#SVGID_2_);fill:#F1E623;" d="M77.8,124.7c7,4.3,22.7,6.5,37.5,6.8c13.5,0.1,31.1-2.1,37.7-5.9
					l-0.2-4.2c-2.1,3.6-21,6.8-37.7,6.6c-16.7-0.3-32.3-3.2-37.4-7L77.8,124.7L77.8,124.7z"/>
				<path style="clip-path:url(#SVGID_2_);fill:#F1E623;" d="M153.4,124.7l0,1c-1,1.3-7.2,3.2-15,4.6c-5.9,1-13.6,1.7-23.3,1.6
					c-9.1-0.1-16.4-0.9-22.1-1.8c-8.9-1.5-14.6-4.1-15.8-4.8l0-1.2c3.4,2.6,12.8,4.5,15.9,5.1c5.6,1,12.8,1.8,21.9,1.8
					c9.6,0.1,17.3-0.6,23.1-1.6C143.9,128.5,151.9,126.2,153.4,124.7L153.4,124.7z M153.5,121.1l0,1c-1,1.3-7.2,3.2-15,4.6
					c-5.9,1-13.6,1.7-23.3,1.6c-9.1-0.1-16.4-0.9-22.1-1.9c-8.9-1.5-14.6-4.1-15.8-4.8l0-1.2c3.4,2.6,12.7,4.5,15.9,5.1
					c5.6,1,12.8,1.8,21.9,1.8c9.6,0.1,17.2-0.6,23.1-1.6C143.9,124.9,151.9,122.6,153.5,121.1L153.5,121.1z"/>
				<g style="clip-path:url(#SVGID_2_);">
					<path class="st125" d="M115.2,132c-8.1-0.1-15.5-0.7-22.1-1.9c-8.5-1.4-14.4-3.9-15.8-4.9l-0.1-1.3c3.6,2.5,13.2,4.4,16,5
						c6.5,1.2,13.9,1.8,21.9,1.8c8.5,0.1,16.3-0.5,23.1-1.6c5.6-0.9,13.5-3.1,15.1-4.6l0.2,1.1c-1.1,1.4-7.4,3.4-15.1,4.7
						C131.5,131.5,123.7,132,115.2,132L115.2,132z M77.3,124.1l0.2,1.1c0.8,0.5,6.3,3.1,15.7,4.7c6.5,1.2,14,1.8,22.1,1.8
						c8.5,0.1,16.4-0.5,23.2-1.6c7.5-1.3,13.9-3.2,14.9-4.5l0-0.9c-1.4,1.6-9.4,3.9-15,4.8c-6.9,1.1-14.7,1.6-23.2,1.6
						c-8.1-0.1-15.5-0.7-22-1.8C89.5,128.5,80.7,126.6,77.3,124.1L77.3,124.1z M115.2,128.4c-8.1-0.1-15.5-0.7-22.1-1.9
						c-8.6-1.4-14.4-3.9-15.8-4.9l0-1.3c3.6,2.5,13.1,4.4,16,5c6.5,1.1,13.9,1.8,21.9,1.8c8.5,0.1,16.3-0.5,23.1-1.6
						c5.6-0.9,13.5-3.1,15.1-4.6l0.2,1.1c-1,1.4-7.4,3.4-15.1,4.7C131.6,127.9,123.7,128.4,115.2,128.4L115.2,128.4z M77.3,120.5
						l0.2,1.1c0.8,0.5,6.3,3.1,15.7,4.7c6.6,1.2,14,1.8,22,1.8c8.6,0.1,16.4-0.5,23.2-1.6c7.5-1.3,14-3.3,14.9-4.6l0-0.9
						c-1.4,1.7-9.4,3.9-15,4.8c-6.8,1.1-14.6,1.7-23.2,1.6c-8-0.1-15.4-0.7-22-1.8C89.6,124.9,80.7,123,77.3,120.5L77.3,120.5z"/>
				</g>
				<path style="clip-path:url(#SVGID_2_);fill:#F1E623;" d="M115.2,148c-16.2-0.2-30.1-5.1-33.1-5.9l2.1,3.7
					c5.2,2.5,18.7,6.2,31.1,5.9c12.4-0.3,23.1-1.3,30.8-5.3l2.2-3.8C143.1,145.1,125.5,148.1,115.2,148L115.2,148z"/>
				<path style="clip-path:url(#SVGID_2_);fill:#F1E623;" d="M146.9,145.5c-0.3,0.6-0.7,1.1-1,1.6c-3.6,1.4-9.3,2.8-11.6,3.2
					c-4.9,1.1-12.4,1.8-19.1,1.8c-14.4-0.3-26.1-3.5-31.7-6.2l-0.4-0.9l0.1-0.1l0.8,0.3c9.8,4,20.9,5.6,31.4,6
					c6.7,0.1,13.3-0.8,18.7-1.8c8.3-1.8,11.6-3.1,12.6-3.7L146.9,145.5L146.9,145.5z M148.8,142C148.9,142,148.9,142,148.8,142
					c-0.2,0.5-0.5,0.9-0.7,1.4c-1.9,0.7-7.1,2.4-14.7,3.5c-5,0.7-8.1,1.4-18,1.6c-18.6-0.7-30.6-4.8-33.5-5.8l-0.4-0.9
					c10.8,3.2,21.8,5.5,33.9,5.8c9.1-0.2,13-0.9,17.9-1.6c8.8-1.5,13.3-3,14.6-3.5c0,0,0-0.1,0-0.1L148.8,142L148.8,142z"/>
				<g style="clip-path:url(#SVGID_2_);">
					<path class="st125" d="M115.2,152.2L115.2,152.2c-14.7-0.3-26.2-3.6-31.7-6.3L83,145c0,0,0.2-0.3,0.2-0.3l0,0l0.8,0.3
						c8.8,3.6,19.3,5.6,31.3,6c0,0,0,0,0,0c7.5,0.1,14.3-0.9,18.7-1.8c9.2-2,12-3.4,12.6-3.7c0,0,0.1-0.1,0.2-0.1c0,0,0,0,0-0.1
						l0.1,0.1l0,0c0,0,0.1,0,0.1,0c-0.3,0.5-0.7,1.1-1,1.6c-3.6,1.4-9.3,2.8-11.7,3.3C129.2,151.5,121.7,152.2,115.2,152.2
						L115.2,152.2z M83.1,145l0.5,0.8c5.8,2.8,17.9,5.9,31.6,6.2c6.4,0,14-0.7,19.1-1.8c2.5-0.4,8.1-1.9,11.6-3.2
						c0.2-0.4,0.5-0.8,0.7-1.2c-0.8,0.4-3.8,1.8-12.6,3.7c-4.4,0.9-11.2,1.9-18.4,1.8l0,0c-12.3-0.4-22.9-2.4-31.7-6L83.1,145
						L83.1,145z M115.4,148.6L115.4,148.6c-16.5-0.6-28.1-3.9-33.5-5.8l-0.5-1c12.4,3.5,23.2,5.3,34,5.6c8.1-0.1,12-0.7,16.3-1.3
						l1.6-0.2c8.5-1.4,13-2.9,14.4-3.4l1.1-0.5l0,0.1l-0.9,0.5c-1.6,0.6-6.1,2.2-14.6,3.6l-1.6,0.2c-4.2,0.6-8.2,1.2-16.3,1.4
						c-10.8-0.3-21.6-2.1-33.9-5.8l0.5,0.8c5.3,1.9,16.9,5.1,33.4,5.7c8.4-0.1,11.9-0.7,15.9-1.3l2.1-0.3c6.8-1,12.1-2.5,14.7-3.5
						l0.7-1.3l-0.6,1.5c-2.6,1.1-8,2.6-14.8,3.6l-2.1,0.3C127.3,147.9,123.8,148.5,115.4,148.6L115.4,148.6L115.4,148.6z"/>
				</g>
				<path style="clip-path:url(#SVGID_2_);fill:#F1E623;" d="M115.6,85.1c18.7,0.1,33.6,17.1,33.5,37.8
					c-0.1,20.7-15.3,37.3-33.9,37.2c-18.6-0.1-33.6-17-33.5-37.7C81.7,101.6,96.9,85,115.6,85.1L115.6,85.1z M115.6,81.4
					c20.4,0.1,37,18.8,36.9,41.4c-0.1,22.7-16.9,41.1-37.3,40.9c-20.4-0.1-37-18.8-36.8-41.5C78.4,99.6,95.2,81.3,115.6,81.4
					L115.6,81.4z"/>
				<path style="clip-path:url(#SVGID_2_);fill:#F1E623;" d="M115.6,80.9c20.7,0.2,37.5,19,37.3,42c-0.1,23-17.1,41.6-37.8,41.4
					c-20.7-0.2-37.5-19-37.3-42C77.9,99.4,95,80.8,115.6,80.9L115.6,80.9z M115.6,81.8c20.2,0.1,36.7,18.6,36.5,41.1
					c-0.1,22.5-16.9,40.7-37,40.5c-20.2-0.1-36.7-18.6-36.5-41.1C78.8,99.9,95.5,81.7,115.6,81.8L115.6,81.8z"/>
				<g style="clip-path:url(#SVGID_2_);">
					<path class="st125" d="M115.1,164.5c-20.8-0.2-37.6-19-37.4-42.1c0.1-23.1,17.2-41.7,37.9-41.6c20.8,0.2,37.6,19,37.4,42.1
						C153,146,135.9,164.6,115.1,164.5L115.1,164.5z M115.6,81C95,80.9,78,99.4,77.9,122.4c-0.1,22.9,16.6,41.7,37.2,41.9
						c20.7,0.2,37.6-18.4,37.7-41.3C153,100,136.3,81.2,115.6,81L115.6,81z M115.1,163.6c-20.3-0.1-36.8-18.6-36.6-41.2
						c0.1-22.6,16.8-40.8,37.1-40.7c20.3,0.1,36.8,18.6,36.6,41.2C152.1,145.5,135.5,163.7,115.1,163.6L115.1,163.6z M115.6,82
						c-20.2-0.1-36.8,18-36.9,40.4c-0.1,22.4,16.2,40.8,36.4,40.9c20.2,0.1,36.8-18,36.9-40.4C152.2,100.5,135.8,82.1,115.6,82
						L115.6,82z"/>
				</g>
				<path style="clip-path:url(#SVGID_2_);fill:#F1E623;" d="M115.7,84.4c18.9,0.1,34.3,17.5,34.2,38.5c-0.1,21-15.8,38.1-34.7,38
					c-18.9-0.1-34.3-17.5-34.2-38.5C81.1,101.3,96.8,84.2,115.7,84.4L115.7,84.4z M115.7,85.3c18.4,0.1,33.5,17,33.4,37.6
					c-0.1,20.5-15.4,37.2-33.8,37c-18.4-0.1-33.5-17-33.4-37.5C82,101.8,97.2,85.2,115.7,85.3L115.7,85.3z"/>
				<g style="clip-path:url(#SVGID_2_);">
					<path class="st125" d="M115.2,160.9c-19-0.1-34.4-17.5-34.3-38.6c0.1-21.2,15.7-38.2,34.8-38.1c19,0.1,34.4,17.4,34.3,38.6
						C149.8,144,134.3,161.1,115.2,160.9L115.2,160.9z M115.7,84.5c-18.9-0.1-34.4,16.8-34.6,37.9c-0.1,21,15.2,38.2,34.1,38.3
						c18.9,0.1,34.4-16.8,34.5-37.8C149.9,101.8,134.6,84.6,115.7,84.5L115.7,84.5z M115.2,160c-18.6-0.1-33.6-17-33.5-37.7
						c0.1-20.6,15.4-37.3,33.9-37.2c18.6,0.1,33.6,17,33.5,37.7C149,143.5,133.8,160.2,115.2,160L115.2,160z M115.7,85.4
						c-18.5-0.1-33.6,16.4-33.7,36.9c-0.1,20.5,14.8,37.3,33.3,37.4c18.5,0.1,33.6-16.4,33.7-36.9
						C149.1,102.3,134.1,85.5,115.7,85.4L115.7,85.4z"/>
				</g>
				<polygon style="clip-path:url(#SVGID_2_);fill:#F1E623;" points="113.6,164.6 116.9,164.7 117.4,80.7 114.1,80.7 				"/>
				<g style="clip-path:url(#SVGID_2_);">
					<path class="st126" d="M114.5,80.7l2.3,0L114.5,80.7z"/>
				</g>
				<g style="clip-path:url(#SVGID_2_);">
					<path class="st126" d="M114,164.6l2.3,0L114,164.6z"/>
				</g>
				<path style="clip-path:url(#SVGID_2_);fill:#F1E623;" d="M116.9,80.3l0.8,0l-0.5,84.8l-0.8,0L116.9,80.3L116.9,80.3z
					 M113.7,80.2l0.8,0l-0.5,84.8l-0.8,0L113.7,80.2L113.7,80.2z"/>
				<g style="clip-path:url(#SVGID_2_);">
					<path class="st125" d="M117.2,165.2l-0.8,0l0.4-84.9l0.9-0.1l-0.4,84.9C117.3,165.1,117.3,165.1,117.2,165.2
						C117.2,165.2,117.2,165.2,117.2,165.2L117.2,165.2z M117.6,80.3l-0.7,0.1l-0.4,84.7l0.6-0.1L117.6,80.3L117.6,80.3z M114,165.2
						l-0.8,0l0.4-84.9l0.9-0.1l-0.4,84.9C114.1,165.1,114.1,165.1,114,165.2C114,165.2,114,165.2,114,165.2L114,165.2z M114.4,80.2
						l-0.7,0.1l-0.4,84.7l0.6-0.1L114.4,80.2L114.4,80.2z"/>
				</g>
				<path style="clip-path:url(#SVGID_2_);fill:#F1E623;" d="M77.7,120.6c4.8-4.8,22.2-7.8,37.6-7.6c15.4,0.2,33.7,3.8,37.6,8l0,3.6
					c-3.3-3.5-17.5-7.7-37.6-7.9c-20.2-0.2-34.8,4-37.6,7.5L77.7,120.6L77.7,120.6z"/>
				<g style="clip-path:url(#SVGID_2_);">
					<path class="st125" d="M77.8,123.8l-0.2-3.1c0-0.1,0.2-0.1,0.2,0L77.8,123.8L77.8,123.8z"/>
				</g>
				<g style="clip-path:url(#SVGID_2_);">
					<path class="st125" d="M153.1,124.5l-0.2-3.1c0-0.1,0.2-0.1,0.2,0L153.1,124.5L153.1,124.5z"/>
				</g>
				<path style="clip-path:url(#SVGID_2_);fill:#F1E623;" d="M115.4,116.2c8.9,0.1,17.5,1.1,24.3,2.6c7,1.6,12,3.6,13.7,5.8l0,1.1
					c-2-2.7-8.7-4.8-13.8-6c-6.8-1.5-15.3-2.5-24.2-2.6c-9.3-0.1-18,0.9-24.7,2.2c-5.4,1.2-12.5,3.5-13.5,5.8l0-1.1
					c0.5-1.6,5.8-4,13.3-5.6C97.4,117,106.1,116.1,115.4,116.2L115.4,116.2z M115.5,112.6c8.9,0,17.5,1.1,24.3,2.6
					c7,1.6,12,3.6,13.7,5.8l0,1.1c-2-2.7-8.7-4.8-13.8-6c-6.8-1.5-15.3-2.5-24.2-2.6c-9.3-0.1-18,0.9-24.7,2.2
					c-5.2,1.1-12.6,3.4-13.5,5.7l0-1.1c0.5-1.6,6-4,13.3-5.6C97.4,113.4,106.1,112.6,115.5,112.6L115.5,112.6z"/>
				<g style="clip-path:url(#SVGID_2_);">
					<path class="st125" d="M77.3,125.2C77.3,125.2,77.3,125.2,77.3,125.2c-0.1,0-0.1-0.1-0.1-0.1l0-1.1c0.5-1.8,6.2-4.1,13.4-5.7
						c7.2-1.5,16-2.3,24.8-2.3c8.6,0.1,17.1,1,24.3,2.6c7.4,1.7,12.1,3.7,13.7,5.9l0,1.2c-2.3-2.8-9.7-4.9-14-5.9
						c-7.1-1.6-15.6-2.5-23.8-2.6c-9,0-17.8,0.8-24.9,2.2c-5.9,1.3-12.5,3.6-13.4,5.7C77.4,125.2,77.4,125.2,77.3,125.2L77.3,125.2z
						 M115.4,117c8.6,0.1,17,1,24.2,2.6c4.2,1,11.7,3.1,13.9,6l-0.2-1c-1.6-2-6.3-4-13.6-5.7c-7.2-1.6-15.7-2.5-24.1-2.6
						c-9,0-17.8,0.8-25,2.3c-8,1.7-12.8,4.1-13.2,5.5l0,0.6c1.6-2.4,9-4.5,13.3-5.4C98,117.8,106.7,116.9,115.4,117L115.4,117z
						 M77.3,121.7C77.3,121.7,77.3,121.7,77.3,121.7c-0.1,0-0.1-0.1-0.1-0.1l0-1.1c0.6-1.8,6.3-4.2,13.4-5.7
						c7.2-1.5,16-2.3,24.8-2.2c8.6,0.1,17.1,1,24.3,2.6c7.3,1.7,12.1,3.7,13.7,5.9l0,1.2c-2.3-2.8-9.7-4.9-14-5.9
						c-7.1-1.6-15.6-2.5-23.9-2.6c-8.9,0-17.6,0.8-24.8,2.3c-5.9,1.2-12.7,3.6-13.4,5.7C77.4,121.6,77.4,121.7,77.3,121.7
						L77.3,121.7z M115.5,113.4c8.5,0.1,17,1,24.2,2.6c4.3,1,11.7,3.1,13.9,6l-0.2-1c-1.6-2-6.3-4-13.6-5.7
						c-7.1-1.6-15.7-2.5-24-2.6c-9.1,0-17.9,0.8-25.1,2.2c-7.7,1.6-12.8,4.1-13.2,5.5l0,0.6c1.5-2.3,8.7-4.5,13.4-5.4
						C98,114.2,106.8,113.4,115.5,113.4L115.5,113.4z"/>
				</g>
				<path style="clip-path:url(#SVGID_2_);fill:#F1E623;" d="M115.4,94.3c14,0,26.2,2.4,31.7,5.6l2,3.9c-4.8-2.9-18-6.1-33.8-5.7
					c-12.8,0-26.6,1.4-33.5,5.4l2.5-4.5C90,95.8,103.4,94.3,115.4,94.3L115.4,94.3z"/>
				<g style="clip-path:url(#SVGID_2_);">
					<path class="st126" d="M147.5,100.6l1.4,2.5L147.5,100.6z"/>
				</g>
				<path style="clip-path:url(#SVGID_2_);fill:#F1E623;" d="M115.6,97.6c8,0,15.7,0.6,21.8,1.9c5.7,1.2,11.1,3,11.9,4l0.6,1.2
					c-1.9-1.4-6.6-2.9-12.6-4.3c-6.1-1.3-13.8-1.8-21.7-1.8c-9-0.1-16,0.4-22,1.5c-6.4,1.3-10.8,3.1-11.9,4l0.6-1.2
					c2.1-1.2,5.5-2.6,11.1-3.7C99.6,97.9,106.7,97.6,115.6,97.6L115.6,97.6z M115.6,94c7.6,0,15.2,0.6,21.1,1.8
					c4.6,1,9.2,2.6,10.9,4l0.9,1.6c-1.5-1.9-7.1-3.6-12.1-4.7c-5.8-1.2-13.1-1.7-20.7-1.8c-8,0-15.4,0.5-21.2,1.6
					c-5.5,1.1-9,2.5-10.5,3.5l0.8-1.3c2.1-1.2,5.4-2.3,9.6-3.2C100.1,94.4,107.5,94,115.6,94L115.6,94z"/>
				<g style="clip-path:url(#SVGID_2_);">
					<path class="st125" d="M149.9,104.7C149.9,104.7,149.8,104.7,149.9,104.7c-1.9-1.4-6.5-2.9-12.6-4.3c-5.3-1.1-12.3-1.8-21-1.8
						l-0.7,0l-0.8,0c-8.6-0.1-15.4,0.4-21.2,1.5c-6.3,1.3-10.7,3.1-11.8,4l0.4-1.4c2.9-1.6,6.6-2.8,11.2-3.7
						c5.6-1.1,12.1-1.6,22.2-1.5l0.5,0c8.4,0.1,15.8,0.7,21.4,1.9c5.8,1.2,11.2,3,12,4l0.6,1.2C150,104.6,150,104.7,149.9,104.7
						C149.9,104.7,149.9,104.7,149.9,104.7L149.9,104.7z M116,97.7l-0.5,0c-10.1,0-16.5,0.4-22.2,1.5c-4.6,0.9-8.2,2.1-11.1,3.7
						l-0.5,1.2c0.9-1.1,5.4-2.9,11.7-4.2c5.8-1.1,12.6-1.6,21.2-1.5l0.8,0l0.7,0c8.6,0.1,15.7,0.7,21,1.8c5.8,1.3,10.3,2.7,12.3,4
						l-0.4-0.8c-0.7-0.9-6.2-2.7-11.8-3.9C131.8,98.4,124.4,97.8,116,97.7L116,97.7z M148.4,101.5
						C148.3,101.5,148.3,101.5,148.4,101.5c-1.6-2-7.5-3.7-12.1-4.7c-5.3-1.1-12.1-1.6-20.7-1.8c-8.3,0-15.6,0.5-21.2,1.6
						c-4.9,1-8.8,2.3-10.5,3.5l0.6-1.5c2.1-1.2,5.4-2.3,9.7-3.2c5.5-1.1,12.9-1.6,21.3-1.6l0.6,0c8.1,0.1,15.1,0.7,20.4,1.8
						c5,1.1,9.3,2.7,10.9,4.1l0.9,1.6C148.5,101.4,148.5,101.4,148.4,101.5C148.4,101.5,148.4,101.5,148.4,101.5L148.4,101.5z
						 M115.6,94.8c8.6,0.1,15.4,0.7,20.7,1.8c4.2,0.8,9.5,2.4,11.6,4.2l-0.5-0.9c-1.5-1.3-5.9-2.9-10.8-4
						c-5.3-1.1-12.4-1.7-20.4-1.8l-0.6,0c-8.5,0-15.8,0.5-21.3,1.6c-4.2,0.9-7.6,2-9.6,3.1l-0.8,1.3c1.6-1.4,5.5-2.7,10.4-3.7
						C99.9,95.3,107.2,94.7,115.6,94.8L115.6,94.8z"/>
				</g>
				<path style="clip-path:url(#SVGID_2_);fill:#F1E623;" d="M134,140.1c-6.9-1.5-13.8-1.8-18.7-1.7c-23.3,0.1-30.9,5.1-31.8,6.6
					l-1.7-3.2c6-4.7,18.7-7.3,33.7-6.9c7.8,0.2,14.5,0.8,20.2,2.1L134,140.1L134,140.1z"/>
				<g style="clip-path:url(#SVGID_2_);">
					<path class="st126" d="M82.2,142.3l1.1,2.2L82.2,142.3z"/>
				</g>
				<path style="clip-path:url(#SVGID_2_);fill:#F1E623;" d="M115.2,137.9c6.5,0.2,12.8,0.5,19,1.8l-0.4,0.9
					c-5.7-1.2-11.8-1.7-18.5-1.7c-8.6-0.1-17.3,0.7-24.9,3c-2.4,0.7-6.4,2.4-6.8,3.8l-0.4-0.8c0.1-0.8,2.5-2.5,7-3.9
					C98.8,138.4,106.9,138,115.2,137.9L115.2,137.9z M115.5,134.3c6.7,0.2,13.7,0.6,20.4,2.1l-0.5,0.9c-6.1-1.4-11.9-1.9-19.9-2.1
					c-8.6,0-17.8,0.6-26.1,3.2c-2.7,0.9-7.4,2.7-7.5,4.2l-0.4-0.9c0.1-1.4,4.1-3.1,7.7-4.2C97.6,134.9,106.8,134.3,115.5,134.3
					L115.5,134.3z"/>
				<g style="clip-path:url(#SVGID_2_);">
					<path class="st125" d="M83.5,145.9C83.5,145.9,83.4,145.9,83.5,145.9L83,145c0.1-1,2.7-2.7,7.1-4.1c8.3-2.6,16-3.1,25.1-3.1
						c6.2,0.2,12.7,0.5,19,1.8l-0.4,1c-5.3-1-11.1-1.6-17.8-1.6l-0.8,0l-1,0c-9.1-0.1-17.2,1-23.9,3.1c-2.6,0.8-6.3,2.4-6.7,3.7
						C83.6,145.9,83.6,145.9,83.5,145.9L83.5,145.9L83.5,145.9z M115.2,138.1c-9,0-16.7,0.5-25,3.1c-4.5,1.4-6.8,3.1-6.9,3.8
						l0.3,0.6c0.8-1.6,5.1-3.2,6.8-3.7c6.8-2.1,14.8-3.1,23.9-3.1l1,0l0.8,0c6.7,0,12.5,0.6,17.7,1.7l0.3-0.8
						C127.9,138.5,121.3,138.2,115.2,138.1L115.2,138.1z M81.9,142.8C81.8,142.8,81.8,142.7,81.9,142.8l-0.5-0.9
						c0.1-1.8,6-3.8,7.8-4.4c7.2-2.3,15.5-3.3,26.3-3.2c6.6,0.2,13.6,0.6,20.4,2.1l-0.4,1.1c-6.6-1.4-12.7-1.8-20-2
						c-10.7-0.1-19,0.9-26.1,3.2c-3.5,1.1-7.3,2.8-7.4,4.1C82,142.7,82,142.8,81.9,142.8L81.9,142.8L81.9,142.8z M115.5,134.4
						c-10.7,0-19.1,1-26.2,3.2c-4.6,1.4-7.6,3.1-7.7,4.1l0.3,0.6c0.8-1.8,6.8-3.8,7.5-4c7.1-2.3,15.4-3.3,26.2-3.2
						c7.3,0.2,13.4,0.6,19.9,2.1l0.4-0.8C129.1,135,122.1,134.6,115.5,134.4L115.5,134.4z"/>
				</g>
				<path style="clip-path:url(#SVGID_2_);fill:#020203;" d="M108.5,136.8c0-0.1,0.1-0.2,0.1-0.3c0.1-0.1,0.1-0.1,0.3-0.1
					c0.1,0,0.1,0,0.2,0c0,0,0.1,0.1,0.1,0.1c0,0.1,0,0.1,0,0.2c0,0.1,0,0.2-0.1,0.2c0,0.1-0.1,0.1-0.1,0.2c-0.1,0-0.1,0-0.2,0
					c-0.1,0-0.1,0-0.2,0c-0.1,0-0.1-0.1-0.1-0.1C108.5,136.9,108.5,136.9,108.5,136.8L108.5,136.8z M108.6,136.8
					c0,0.1,0,0.2,0.1,0.2c0,0.1,0.1,0.1,0.2,0.1c0.1,0,0.1,0,0.2-0.1c0,0,0.1-0.1,0.1-0.2c0-0.1,0-0.1,0-0.2c0-0.1,0-0.1-0.1-0.1
					c0,0-0.1,0-0.1,0c-0.1,0-0.1,0-0.2,0.1C108.7,136.6,108.6,136.7,108.6,136.8L108.6,136.8z M109.5,136.9L109.5,136.9
					c0.1,0,0.1,0,0.1,0.1c0,0,0,0,0.1,0c0,0,0.1,0,0.1,0c0,0,0,0,0,0c0,0,0-0.1,0-0.1c0,0-0.1,0-0.1,0c-0.1,0-0.1,0-0.1,0
					c0,0-0.1,0-0.1-0.1c0,0,0,0,0-0.1c0,0,0-0.1,0-0.1c0,0,0,0,0-0.1c0,0,0,0,0.1,0c0,0,0.1,0,0.1,0c0.1,0,0.1,0,0.1,0
					c0,0,0,0,0,0.1c0,0,0,0,0,0.1l-0.1,0c0,0,0-0.1,0-0.1c0,0-0.1,0-0.1,0c0,0-0.1,0-0.1,0c0,0,0,0,0,0c0,0,0,0,0,0c0,0,0,0,0,0
					c0,0,0,0,0.1,0c0.1,0,0.1,0,0.1,0c0,0,0,0,0,0.1c0,0,0,0,0,0.1c0,0,0,0.1,0,0.1c0,0,0,0-0.1,0.1c0,0-0.1,0-0.1,0
					c-0.1,0-0.1,0-0.1,0C109.5,137,109.5,137,109.5,136.9L109.5,136.9z M110.4,136.9L110.4,136.9c0.1,0.1,0,0.1,0,0.2
					c0,0-0.1,0-0.2,0c-0.1,0-0.1,0-0.2-0.1c0-0.1,0-0.1,0-0.2c0-0.1,0-0.2,0.1-0.2c0-0.1,0.1-0.1,0.2-0.1c0.1,0,0.1,0,0.2,0.1
					C110.5,136.6,110.5,136.7,110.4,136.9L110.4,136.9l-0.3,0c0,0,0,0.1,0,0.1c0,0,0.1,0,0.1,0c0,0,0.1,0,0.1,0
					C110.3,136.9,110.3,136.9,110.4,136.9L110.4,136.9z M110.1,136.7l0.3,0c0-0.1,0-0.1,0-0.1c0-0.1-0.1-0.1-0.1-0.1
					c0,0-0.1,0-0.1,0.1C110.1,136.6,110.1,136.7,110.1,136.7L110.1,136.7z M110.5,137.1L110.5,137.1
					C110.6,137.1,110.6,137.1,110.5,137.1c0.1,0.1,0.1,0.1,0.2,0.1c0,0,0.1,0,0.1,0c0,0,0,0,0-0.1c0,0,0-0.1,0-0.1
					c0,0-0.1,0.1-0.1,0.1c-0.1,0-0.1,0-0.1-0.1c0-0.1-0.1-0.1-0.1-0.2c0-0.1,0-0.1,0.1-0.2c0-0.1,0-0.1,0.1-0.1c0,0,0.1,0,0.1,0
					c0.1,0,0.1,0,0.1,0.1l0-0.1l0.1,0l-0.1,0.5c0,0.1,0,0.2,0,0.2c0,0-0.1,0.1-0.1,0.1c-0.1,0-0.1,0-0.1,0c-0.1,0-0.1,0-0.1,0
					C110.5,137.2,110.5,137.1,110.5,137.1L110.5,137.1z M110.6,136.7c0,0.1,0,0.1,0,0.2c0,0,0,0.1,0.1,0.1c0,0,0.1,0,0.1-0.1
					c0,0,0-0.1,0.1-0.2c0-0.1,0-0.1,0-0.2c0,0-0.1-0.1-0.1-0.1c0,0-0.1,0-0.1,0.1C110.6,136.6,110.6,136.7,110.6,136.7L110.6,136.7z
					 M111,137l0.1-0.6l0.1,0l0,0.1c0,0,0-0.1,0.1-0.1c0,0,0.1,0,0.1,0c0,0,0.1,0,0.1,0c0,0,0,0.1,0,0.1c0.1-0.1,0.1-0.1,0.2-0.1
					c0,0,0.1,0,0.1,0c0,0,0,0.1,0,0.2l0,0.4l-0.1,0l0-0.4c0,0,0-0.1,0-0.1c0,0,0,0,0,0l0,0c-0.1,0-0.1,0-0.1,0c0,0,0,0.1-0.1,0.1
					l0,0.3l-0.1,0l0-0.4c0,0,0-0.1,0-0.1c0,0,0,0-0.1,0c0,0,0,0-0.1,0c0,0,0,0-0.1,0.1c0,0,0,0,0,0.1L111,137L111,137L111,137z
					 M112.2,136.8L112.2,136.8c0.1,0.1,0,0.1,0,0.1c0,0-0.1,0.1-0.1,0.1c-0.1,0-0.1,0-0.1-0.1c0,0-0.1-0.1-0.1-0.2
					c0-0.1,0.1-0.2,0.1-0.2c0,0,0.1-0.1,0.2-0.1c0.1,0,0.1,0,0.2,0.1c0,0.1,0.1,0.1,0,0.2C112.3,136.7,112.3,136.7,112.2,136.8
					l-0.3-0.1c0,0.1,0,0.1,0,0.2c0,0,0.1,0.1,0.1,0C112.1,136.9,112.1,136.9,112.2,136.8C112.2,136.8,112.2,136.8,112.2,136.8
					L112.2,136.8z M112,136.6l0.3,0c0-0.1,0-0.1,0-0.1c0,0-0.1-0.1-0.1-0.1c0,0-0.1,0-0.1,0.1C112,136.5,112,136.6,112,136.6
					L112,136.6z M112.4,137l0.1-0.6l0.1,0l0,0.1c0-0.1,0.1-0.1,0.2-0.1c0,0,0.1,0,0.1,0c0,0,0,0,0,0c0,0,0,0.1,0,0.1
					c0,0,0,0.1,0,0.1l0,0.3l-0.1,0l0-0.3c0-0.1,0-0.1,0-0.1c0,0,0,0,0-0.1c0,0,0,0-0.1,0c0,0-0.1,0-0.1,0.1c0,0,0,0.1-0.1,0.1
					L112.4,137L112.4,137z M113.1,136.9L113.1,136.9C113.1,136.9,113.1,136.9,113.1,136.9c-0.1,0.1-0.1,0.1-0.1,0.1c0,0,0,0,0-0.1
					c0,0,0,0,0-0.1l0-0.3l-0.1,0l0,0l0.1,0l0-0.2l0.1-0.1l0,0.2l0.1,0l0,0.1l-0.1,0L113.1,136.9C113,136.8,113,136.8,113.1,136.9
					C113,136.8,113,136.8,113.1,136.9L113.1,136.9C113.1,136.9,113.1,136.9,113.1,136.9L113.1,136.9z M113.2,136.7
					c0-0.1,0-0.2,0.1-0.2c0-0.1,0.1-0.1,0.2-0.1c0.1,0,0.1,0,0.2,0.1c0,0,0.1,0.1,0,0.2c0,0.1,0,0.1-0.1,0.2c0,0-0.1,0.1-0.1,0.1
					c-0.1,0-0.1,0-0.1,0c-0.1,0-0.1,0-0.2-0.1C113.2,136.8,113.2,136.8,113.2,136.7L113.2,136.7z M113.3,136.7c0,0.1,0,0.1,0,0.2
					c0,0,0,0.1,0.1,0.1c0,0,0.1,0,0.1-0.1c0,0,0.1-0.1,0.1-0.2c0-0.1,0-0.1,0-0.2c0,0-0.1-0.1-0.1-0.1c0,0-0.1,0-0.1,0
					C113.3,136.5,113.3,136.6,113.3,136.7L113.3,136.7z M114.3,136.8L114.3,136.8c0.1,0.1,0,0.1,0,0.1c0,0-0.1,0.1-0.1,0
					c-0.1,0-0.1,0-0.2-0.1c0-0.1,0-0.1,0-0.2c0-0.1,0-0.2,0.1-0.2c0-0.1,0.1-0.1,0.2-0.1c0.1,0,0.1,0,0.2,0.1
					C114.4,136.5,114.4,136.5,114.3,136.8L114.3,136.8l-0.3-0.1c0,0.1,0,0.1,0,0.1c0,0,0.1,0.1,0.1,0.1
					C114.2,136.9,114.2,136.9,114.3,136.8C114.3,136.8,114.3,136.8,114.3,136.8L114.3,136.8z M114.1,136.6l0.3,0c0-0.1,0-0.1,0-0.1
					c0,0-0.1,0-0.1,0c0,0-0.1,0-0.1,0C114.1,136.5,114.1,136.5,114.1,136.6L114.1,136.6z M114.5,136.9l0.1-0.8l0.1,0L114.5,136.9
					L114.5,136.9L114.5,136.9z M114.8,136.3l0-0.1l0.1,0L114.8,136.3L114.8,136.3L114.8,136.3z M114.7,136.9l0.1-0.6l0.1,0
					L114.7,136.9L114.7,136.9L114.7,136.9z M114.9,136.9l0.1-0.6l0.1,0l0,0.1c0,0,0-0.1,0.1-0.1c0,0,0.1,0,0.1,0c0,0,0.1,0,0.1,0
					c0,0,0,0.1,0,0.1c0-0.1,0.1-0.1,0.2-0.1c0,0,0.1,0,0.1,0.1c0,0,0,0.1,0,0.2l-0.1,0.4l-0.1,0l0.1-0.4c0,0,0-0.1,0-0.1l0,0
					c0,0,0,0-0.1,0c0,0-0.1,0-0.1,0c0,0,0,0.1,0,0.1l-0.1,0.3l-0.1,0l0-0.4c0,0,0-0.1,0-0.1c0,0,0,0-0.1,0c0,0,0,0-0.1,0
					c0,0,0,0,0,0.1c0,0,0,0.1,0,0.1L114.9,136.9L114.9,136.9L114.9,136.9z M115.8,136.3l0-0.1l0.1,0L115.8,136.3L115.8,136.3
					L115.8,136.3z M115.7,136.9l0.1-0.6l0.1,0L115.7,136.9L115.7,136.9L115.7,136.9z M115.9,136.9l0.1-0.5l0.1,0l0,0.1
					c0-0.1,0.1-0.1,0.2-0.1c0,0,0,0,0.1,0c0,0,0,0,0,0.1c0,0,0,0,0,0.1c0,0,0,0.1,0,0.1l-0.1,0.3l-0.1,0l0-0.3c0,0,0-0.1,0-0.1
					c0,0,0,0,0,0c0,0,0,0,0,0c-0.1,0-0.1,0-0.1,0c0,0-0.1,0.1-0.1,0.2L115.9,136.9L115.9,136.9L115.9,136.9z M116.8,136.9
					C116.7,136.9,116.7,136.9,116.8,136.9c-0.1,0.1-0.1,0.1-0.2,0.1c-0.1,0-0.1,0-0.1-0.1c0,0,0-0.1,0-0.1c0,0,0,0,0-0.1
					c0,0,0,0,0.1-0.1c0,0,0,0,0.1,0c0,0,0,0,0.1,0c0.1,0,0.1,0,0.2,0c0,0,0,0,0,0c0,0,0-0.1,0-0.1c0,0-0.1,0-0.1,0c0,0-0.1,0-0.1,0
					c0,0,0,0-0.1,0.1l-0.1,0c0-0.1,0-0.1,0-0.1c0,0,0,0,0.1,0c0,0,0.1,0,0.1,0c0.1,0,0.1,0,0.1,0c0,0,0.1,0,0.1,0c0,0,0,0.1,0,0.1
					c0,0,0,0.1,0,0.1l0,0.1C116.9,136.8,116.9,136.9,116.8,136.9C116.9,136.9,116.9,136.9,116.8,136.9L116.8,136.9
					C116.8,136.9,116.8,136.9,116.8,136.9L116.8,136.9z M116.8,136.7c0,0-0.1,0-0.1,0c0,0-0.1,0-0.1,0c0,0,0,0,0,0c0,0,0,0,0,0
					c0,0,0,0,0,0.1c0,0,0,0,0.1,0c0,0,0.1,0,0.1,0c0,0,0,0,0.1-0.1C116.8,136.8,116.8,136.7,116.8,136.7L116.8,136.7L116.8,136.7z
					 M117.3,136.9L117.3,136.9c0,0-0.1,0-0.1,0c0,0-0.1,0-0.1,0c0,0,0-0.1-0.1-0.1c0,0,0-0.1,0-0.2c0-0.1,0-0.1,0-0.2
					c0,0,0.1-0.1,0.1-0.1c0,0,0.1,0,0.1,0c0,0,0.1,0,0.1,0c0,0,0,0.1,0,0.1l0.1-0.3l0.1,0L117.3,136.9L117.3,136.9L117.3,136.9z
					 M117.1,136.7c0,0,0,0.1,0,0.2c0,0,0.1,0.1,0.1,0.1c0,0,0.1,0,0.1,0c0,0,0-0.1,0.1-0.2c0-0.1,0-0.1,0-0.2c0,0,0-0.1-0.1-0.1
					c0,0-0.1,0-0.1,0.1C117.1,136.5,117.1,136.6,117.1,136.7L117.1,136.7z M117.5,136.7c0-0.1,0-0.2,0.1-0.2c0.1,0,0.1-0.1,0.2-0.1
					c0.1,0,0.1,0,0.1,0.1c0,0,0,0.1,0,0.2c0,0.1,0,0.1-0.1,0.2c0,0.1-0.1,0.1-0.1,0.1c0,0-0.1,0.1-0.1,0c-0.1,0-0.1-0.1-0.2-0.1
					C117.5,136.8,117.5,136.7,117.5,136.7L117.5,136.7z M117.6,136.7c0,0,0,0.1,0,0.2c0,0,0.1,0.1,0.1,0.1c0,0,0.1,0,0.1,0
					c0,0,0.1-0.1,0.1-0.2c0-0.1,0-0.1,0-0.2c0,0-0.1,0-0.1,0c0,0-0.1,0-0.1,0C117.6,136.5,117.6,136.6,117.6,136.7L117.6,136.7z
					 M118.3,137l0.1-0.6l0.1,0l0,0.1c0,0,0-0.1,0-0.1c0,0,0.1,0,0.1,0c0,0,0.1,0,0.1,0.1l0,0.1c0,0,0,0,0,0c-0.1,0-0.1,0-0.1,0
					c0,0,0,0,0,0.1c0,0,0,0.1,0,0.1L118.3,137L118.3,137L118.3,137z M118.9,136.8L118.9,136.8c0.1,0.1,0,0.1,0,0.1
					c0,0-0.1,0.1-0.1,0c-0.1,0-0.1,0-0.1-0.1c0,0,0-0.1,0-0.2c0-0.1,0.1-0.2,0.1-0.2c0,0,0.1-0.1,0.2-0.1c0.1,0,0.1,0,0.2,0.1
					c0,0.1,0,0.2,0,0.2l0,0l-0.4,0c0,0.1,0,0.1,0,0.2c0,0,0,0.1,0.1,0.1C118.8,136.9,118.9,136.9,118.9,136.8
					C118.9,136.9,118.9,136.8,118.9,136.8L118.9,136.8z M118.7,136.7l0.3,0c0-0.1,0-0.1,0-0.1c0-0.1-0.1-0.1-0.1-0.1
					c0,0-0.1,0-0.1,0C118.7,136.6,118.7,136.6,118.7,136.7L118.7,136.7z M119.1,136.8L119.1,136.8c0.1,0,0.1,0.1,0.1,0.1
					c0,0,0,0,0.1,0c0,0,0.1,0,0.1,0c0,0,0,0,0-0.1c0,0,0,0,0-0.1c0,0,0,0-0.1,0c-0.1,0-0.1,0-0.1-0.1c0,0,0,0-0.1,0c0,0,0-0.1,0-0.1
					c0,0,0-0.1,0-0.1c0,0,0,0,0,0c0,0,0.1,0,0.1,0c0,0,0,0,0.1,0c0,0,0.1,0,0.1,0c0,0,0,0,0.1,0.1c0,0,0,0.1,0,0.1l-0.1,0
					c0,0,0-0.1,0-0.1c0,0,0,0-0.1,0c0,0-0.1,0-0.1,0c0,0,0,0,0,0.1c0,0,0,0,0,0c0,0,0,0,0,0c0,0,0,0,0.1,0c0.1,0,0.1,0,0.1,0
					c0,0,0,0,0,0.1c0,0,0,0.1,0,0.1c0,0,0,0.1,0,0.1c0,0,0,0.1-0.1,0.1c0,0-0.1,0-0.1,0c-0.1,0-0.1,0-0.1-0.1
					C119.1,136.9,119.1,136.9,119.1,136.8L119.1,136.8z M119.5,137.2l0.1-0.8l0.1,0l0,0.1c0,0,0,0,0.1,0c0,0,0.1,0,0.1,0
					c0,0,0.1,0,0.1,0c0,0,0,0.1,0.1,0.1c0,0.1,0,0.1,0,0.2c0,0,0,0.1-0.1,0.2c0,0-0.1,0.1-0.1,0.1c0,0-0.1,0-0.1,0c0,0,0,0-0.1,0
					c0,0,0,0,0-0.1L119.5,137.2L119.5,137.2L119.5,137.2z M119.7,136.7c0,0.1,0,0.1,0,0.2c0,0,0.1,0.1,0.1,0.1c0,0,0.1,0,0.1,0
					c0,0,0.1-0.1,0.1-0.2c0,0,0-0.1,0-0.2c0,0,0-0.1-0.1-0.1c0,0-0.1,0-0.1,0C119.8,136.6,119.7,136.7,119.7,136.7L119.7,136.7z
					 M120.5,136.9L120.5,136.9c0,0.1,0,0.1,0,0.1c0,0-0.1,0-0.1,0c-0.1,0-0.1,0-0.2-0.1c0-0.1,0-0.1,0-0.2c0-0.1,0.1-0.2,0.1-0.2
					c0.1-0.1,0.1-0.1,0.2-0.1c0.1,0,0.1,0,0.1,0.1c0,0,0,0.1,0,0.2C120.6,136.8,120.6,136.8,120.5,136.9l-0.3-0.1c0,0,0,0.1,0,0.1
					c0,0,0,0.1,0.1,0.1C120.4,137,120.4,137,120.5,136.9C120.4,136.9,120.5,136.9,120.5,136.9L120.5,136.9z M120.2,136.7l0.3,0
					c0,0,0-0.1,0-0.1c0,0,0-0.1-0.1-0.1c0,0-0.1,0-0.1,0C120.3,136.6,120.2,136.7,120.2,136.7L120.2,136.7z M120.8,136.4l0-0.1
					l0.1,0L120.8,136.4L120.8,136.4L120.8,136.4z M120.6,137.1l0.1-0.6l0.1,0L120.6,137.1L120.6,137.1z M121,137L121,137
					C121,137.1,121,137.1,121,137c-0.1,0.1-0.1,0.1-0.1,0.1c0,0,0,0,0-0.1c0,0,0-0.1,0-0.1l0.1-0.3l-0.1,0l0-0.1l0,0l0-0.1l0.1-0.1
					l0,0.2l0.1,0l0,0.1l-0.1,0L121,137C121,137,121,137,121,137C121,137,121,137,121,137C121,137,121,137,121,137L121,137L121,137z
					 M121.4,137c0,0-0.1,0.1-0.1,0.1c0,0-0.1,0-0.1,0c0,0-0.1,0-0.1-0.1c0,0,0-0.1,0-0.1c0,0,0,0,0-0.1c0,0,0,0,0.1,0c0,0,0,0,0.1,0
					c0,0,0,0,0.1,0c0.1,0,0.1,0,0.2,0c0,0,0,0,0,0c0,0,0,0,0-0.1c0,0-0.1,0-0.1-0.1c0,0-0.1,0-0.1,0c0,0,0,0.1-0.1,0.1l-0.1,0
					c0-0.1,0-0.1,0-0.1c0,0,0.1,0,0.1-0.1c0,0,0.1,0,0.1,0c0,0,0.1,0,0.1,0.1c0,0,0,0,0.1,0c0,0,0,0.1,0,0.1c0,0,0,0,0,0.1l0,0.1
					C121.5,137,121.5,137,121.4,137C121.5,137.1,121.5,137.1,121.4,137L121.4,137C121.4,137.1,121.4,137.1,121.4,137L121.4,137z
					 M121.4,136.8c0,0-0.1,0-0.1,0c0,0-0.1,0-0.1,0c0,0,0,0-0.1,0c0,0,0,0,0,0c0,0,0,0.1,0,0.1c0,0,0,0,0.1,0c0,0,0.1,0,0.1,0
					c0,0,0.1,0,0.1-0.1C121.4,136.9,121.4,136.9,121.4,136.8L121.4,136.8L121.4,136.8z M121.9,136.9c0-0.1,0.1-0.2,0.1-0.2
					c0.1,0,0.1-0.1,0.2,0c0.1,0,0.1,0,0.1,0.1c0,0.1,0,0.1,0,0.2c0,0.1,0,0.1-0.1,0.2c0,0-0.1,0.1-0.1,0.1c0,0-0.1,0-0.1,0
					c-0.1,0-0.1,0-0.2-0.1C121.9,137,121.9,137,121.9,136.9L121.9,136.9z M122,136.9c0,0.1,0,0.1,0,0.2c0,0,0,0.1,0.1,0.1
					c0,0,0.1,0,0.1-0.1c0,0,0.1-0.1,0.1-0.1c0-0.1,0-0.1,0-0.2c0,0-0.1-0.1-0.1-0.1c0,0-0.1,0-0.1,0.1
					C122,136.7,122,136.8,122,136.9L122,136.9z M122.6,137.4l0.2-0.8l0.1,0l0,0.1c0,0,0-0.1,0.1-0.1c0,0,0.1,0,0.1,0
					c0,0,0.1,0,0.1,0.1c0,0,0,0.1,0,0.1c0,0,0,0.1,0,0.2c0,0.1,0,0.1-0.1,0.2c0,0.1-0.1,0.1-0.1,0.1c0,0-0.1,0-0.1,0c0,0,0,0-0.1,0
					c0,0,0,0,0,0L122.6,137.4L122.6,137.4z M122.8,136.9c0,0.1,0,0.1,0,0.2c0,0.1,0,0.1,0.1,0.1c0,0,0.1,0,0.1,0c0,0,0-0.1,0.1-0.2
					c0-0.1,0-0.1,0-0.2c0,0-0.1-0.1-0.1-0.1c0,0-0.1,0-0.1,0C122.8,136.8,122.8,136.8,122.8,136.9L122.8,136.9z M123.2,137.2
					l0.1-0.6l0.1,0l0,0.1c0,0,0.1-0.1,0.1-0.1c0,0,0,0,0.1,0c0,0,0,0,0.1,0.1l0,0.1c0,0,0,0,0,0c0,0-0.1,0-0.1,0c0,0,0,0,0,0
					c0,0,0,0.1,0,0.1L123.2,137.2L123.2,137.2L123.2,137.2z M123.5,137c0-0.1,0.1-0.2,0.1-0.2c0.1,0,0.1,0,0.2,0
					c0.1,0,0.1,0,0.2,0.1c0,0,0,0.1,0,0.2c0,0.1,0,0.1-0.1,0.2c0,0-0.1,0.1-0.1,0.1c0,0-0.1,0-0.1,0c-0.1,0-0.1,0-0.2-0.1
					C123.5,137.1,123.5,137.1,123.5,137L123.5,137z M123.6,137c0,0.1,0,0.1,0,0.2c0,0,0,0,0.1,0c0,0,0.1,0,0.1,0
					c0,0,0.1-0.1,0.1-0.2c0-0.1,0-0.1,0-0.2c0,0-0.1-0.1-0.1-0.1c0,0-0.1,0-0.1,0.1C123.6,136.8,123.6,136.9,123.6,137L123.6,137z
					 M124.1,136.6l0-0.1l0.1,0L124.1,136.6L124.1,136.6L124.1,136.6z M123.9,137.5L123.9,137.5C123.9,137.4,123.9,137.4,123.9,137.5
					c0.1-0.1,0.1-0.1,0.1-0.1c0,0,0,0,0-0.1l0.1-0.6l0.1,0l-0.1,0.6c0,0.1,0,0.1-0.1,0.1C124,137.5,124,137.5,123.9,137.5
					C123.9,137.5,123.9,137.5,123.9,137.5L123.9,137.5z M124.6,137.2L124.6,137.2c0.1,0.1,0,0.1,0,0.1c0,0-0.1,0.1-0.2,0.1
					c-0.1,0-0.1,0-0.2-0.1c0-0.1,0-0.1,0-0.2c0-0.1,0.1-0.2,0.1-0.2c0-0.1,0.1-0.1,0.2-0.1c0.1,0,0.1,0,0.1,0.1
					C124.7,136.9,124.7,137,124.6,137.2L124.6,137.2l-0.3-0.1c0,0.1,0,0.1,0,0.1c0,0,0,0.1,0.1,0.1
					C124.5,137.3,124.5,137.3,124.6,137.2C124.5,137.2,124.6,137.2,124.6,137.2L124.6,137.2z M124.4,137l0.3,0c0-0.1,0-0.1,0-0.1
					c0,0,0-0.1-0.1-0.1c0,0-0.1,0-0.1,0C124.4,136.9,124.4,136.9,124.4,137L124.4,137z"/>
				<path style="clip-path:url(#SVGID_2_);fill:#020203;" d="M125.1,137.2L125.1,137.2c0.1,0.1,0,0.1,0,0.2c-0.1,0-0.1,0-0.2,0
					c-0.1,0-0.1,0-0.2-0.1c0,0,0-0.1,0-0.2c0-0.1,0-0.1,0.1-0.2c0-0.1,0-0.1,0.1-0.1c0,0,0.1,0,0.1,0c0.1,0,0.1,0,0.1,0.1
					c0,0,0,0.1,0,0.1l-0.1,0c0,0,0-0.1,0-0.1c0,0,0,0-0.1,0c0,0-0.1,0-0.1,0c0,0,0,0.1-0.1,0.2c0,0.1,0,0.1,0,0.2
					c0,0,0.1,0.1,0.1,0.1C125,137.3,125,137.3,125.1,137.2C125,137.3,125.1,137.2,125.1,137.2L125.1,137.2z M125.4,137.3
					L125.4,137.3C125.4,137.4,125.3,137.4,125.4,137.3c-0.1,0.1-0.1,0.1-0.1,0.1c0,0,0,0,0,0c0,0,0-0.1,0-0.1l0.1-0.3l-0.1,0l0-0.1
					l0.1,0l0-0.2l0.1,0l0,0.2l0.1,0l0,0.1l-0.1,0L125.4,137.3C125.3,137.3,125.3,137.3,125.4,137.3
					C125.3,137.3,125.3,137.3,125.4,137.3C125.3,137.3,125.3,137.3,125.4,137.3C125.4,137.3,125.4,137.3,125.4,137.3L125.4,137.3z
					 M125.5,137.2c0-0.1,0.1-0.2,0.1-0.2c0.1-0.1,0.1-0.1,0.2,0c0.1,0,0.1,0,0.2,0.1c0,0.1,0,0.1,0,0.2c0,0.1,0,0.1-0.1,0.2
					c0,0-0.1,0.1-0.1,0.1c0,0-0.1,0-0.1,0c-0.1,0-0.1-0.1-0.1-0.1C125.5,137.3,125.5,137.3,125.5,137.2L125.5,137.2z M125.6,137.2
					c0,0.1,0,0.1,0,0.2c0,0,0,0.1,0.1,0.1c0,0,0.1,0,0.1-0.1c0,0,0.1-0.1,0.1-0.2c0-0.1,0-0.1,0-0.2c0-0.1-0.1-0.1-0.1-0.1
					c0,0-0.1,0-0.1,0C125.6,137,125.6,137.1,125.6,137.2L125.6,137.2z M126.5,137.5L126.5,137.5c0,0-0.1,0-0.1,0c0,0-0.1,0-0.1,0
					c0,0,0-0.1-0.1-0.1c0-0.1,0-0.1,0-0.2c0-0.1,0-0.1,0-0.2c0,0,0.1-0.1,0.1-0.1c0,0,0.1,0,0.1,0c0,0,0.1,0,0.1,0
					c0,0,0,0.1,0.1,0.1l0-0.3l0.1,0L126.5,137.5L126.5,137.5L126.5,137.5z M126.3,137.3c0,0.1,0,0.1,0,0.2c0,0.1,0.1,0.1,0.1,0.1
					c0,0,0.1,0,0.1-0.1c0,0,0.1-0.1,0.1-0.1c0-0.1,0-0.1,0-0.2c0,0,0-0.1-0.1-0.1c0,0-0.1,0-0.1,0
					C126.4,137.1,126.4,137.2,126.3,137.3L126.3,137.3z M127.1,137.4L127.1,137.4c0,0.1,0,0.1,0,0.2c-0.1,0-0.1,0-0.2,0
					c-0.1,0-0.1,0-0.1-0.1c0-0.1,0-0.1,0-0.2c0-0.1,0.1-0.2,0.1-0.2c0-0.1,0.1-0.1,0.2-0.1c0.1,0,0.1,0,0.1,0.1c0,0.1,0,0.1,0,0.2
					C127.2,137.3,127.2,137.3,127.1,137.4l-0.3-0.1c0,0.1,0,0.1,0,0.2c0,0,0,0.1,0.1,0.1C127,137.5,127,137.5,127.1,137.4
					C127.1,137.5,127.1,137.5,127.1,137.4L127.1,137.4z M126.9,137.3l0.3,0c0-0.1,0-0.1,0-0.1c0,0-0.1-0.1-0.1-0.1c0,0-0.1,0-0.1,0
					C126.9,137.2,126.9,137.2,126.9,137.3L126.9,137.3z M128.1,137.4L128.1,137.4c0.1,0.1,0,0.2-0.1,0.2c-0.1,0-0.1,0-0.2,0
					c-0.1,0-0.1,0-0.2-0.1c0,0-0.1-0.1-0.1-0.2c0-0.1,0-0.1,0-0.2c0-0.1,0-0.2,0.1-0.2c0-0.1,0.1-0.1,0.1-0.1c0.1,0,0.1,0,0.2,0
					c0.1,0,0.1,0,0.2,0.1c0,0.1,0.1,0.1,0.1,0.2l-0.1,0c0-0.1,0-0.1,0-0.1c0,0-0.1-0.1-0.1-0.1c-0.1,0-0.1,0-0.1,0
					c0,0-0.1,0.1-0.1,0.1c0,0,0,0.1,0,0.1c0,0.1,0,0.1,0,0.2c0,0.1,0,0.1,0,0.1c0,0,0.1,0.1,0.1,0.1c0,0,0.1,0,0.1,0
					C128,137.6,128,137.5,128.1,137.4L128.1,137.4z M128.2,137.5c0-0.1,0.1-0.2,0.1-0.2c0.1,0,0.1,0,0.2,0c0.1,0,0.1,0,0.1,0.1
					c0,0.1,0,0.1,0,0.2c0,0.1,0,0.1-0.1,0.2c0,0-0.1,0.1-0.1,0.1c0,0-0.1,0-0.1,0c-0.1,0-0.1,0-0.1-0.1
					C128.2,137.6,128.2,137.6,128.2,137.5L128.2,137.5z M128.3,137.5c0,0.1,0,0.1,0,0.2c0,0,0.1,0.1,0.1,0.1c0.1,0,0.1,0,0.1,0
					c0.1,0,0.1-0.1,0.1-0.1c0-0.1,0-0.1,0-0.2c0-0.1,0-0.1-0.1-0.1c0,0-0.1,0-0.1,0C128.4,137.4,128.3,137.4,128.3,137.5
					L128.3,137.5z M128.7,137.8l0.2-0.8l0.1,0L128.7,137.8L128.7,137.8L128.7,137.8z M129.2,137.9L129.2,137.9c0,0-0.1,0-0.2,0
					c0,0-0.1,0-0.1,0c0,0,0,0,0-0.1c0,0,0,0,0-0.1c0,0,0-0.1,0-0.1l0.1-0.3l0.1,0l-0.1,0.3c0,0,0,0.1,0,0.1c0,0,0,0,0,0c0,0,0,0,0,0
					C129.1,137.8,129.2,137.8,129.2,137.9c0-0.1,0-0.1,0-0.1c0,0,0-0.1,0-0.1l0.1-0.3l0.1,0L129.2,137.9L129.2,137.9L129.2,137.9z
					 M129.4,137.9l0.1-0.6l0.1,0l0,0.1c0,0,0.1,0,0.1-0.1c0,0,0.1,0,0.1,0c0,0,0.1,0,0.1,0c0,0,0,0,0,0.1c0-0.1,0.1-0.1,0.2-0.1
					c0.1,0,0.1,0,0.1,0.1c0,0,0,0.1,0,0.1l-0.1,0.4l-0.1,0l0.1-0.3c0,0,0-0.1,0-0.1l0,0c0,0,0,0,0,0c-0.1,0-0.1,0-0.1,0
					c0,0,0,0.1-0.1,0.1l-0.1,0.3l-0.1,0l0.1-0.4c0,0,0-0.1,0-0.1c0,0,0-0.1-0.1-0.1c0,0,0,0-0.1,0c0,0,0,0-0.1,0.1c0,0,0,0.1,0,0.1
					L129.4,137.9L129.4,137.9z M130.3,138L130.3,138l0.1-0.8l0.1,0l-0.1,0.3c0.1,0,0.1-0.1,0.2,0c0,0,0.1,0,0.1,0c0,0,0,0,0.1,0.1
					c0,0,0,0.1,0,0.1c0,0,0,0.1,0,0.1c0,0.1-0.1,0.2-0.1,0.2c-0.1,0-0.1,0.1-0.2,0.1C130.3,138.1,130.3,138,130.3,138L130.3,138
					L130.3,138z M130.3,137.8c0,0.1,0,0.1,0,0.2c0,0.1,0,0.1,0.1,0.1c0,0,0.1,0,0.1,0c0,0,0.1-0.1,0.1-0.2c0-0.1,0-0.1,0-0.2
					c0-0.1,0-0.1-0.1-0.1c0,0-0.1,0-0.1,0.1C130.4,137.7,130.3,137.7,130.3,137.8L130.3,137.8z M131,138.1
					C131,138.1,131,138.1,131,138.1c-0.1,0.1-0.2,0.1-0.2,0.1c-0.1,0-0.1-0.1-0.1-0.1c0,0,0-0.1,0-0.1c0,0,0-0.1,0-0.1
					c0,0,0,0,0.1,0c0,0,0,0,0.1,0c0,0,0,0,0.1,0c0.1,0,0.1,0,0.2,0c0,0,0,0,0,0c0,0,0-0.1,0-0.1c0,0,0,0-0.1,0c0,0-0.1,0-0.1,0
					c0,0-0.1,0-0.1,0.1l-0.1,0c0,0,0-0.1,0.1-0.1c0,0,0.1,0,0.1-0.1c0,0,0.1,0,0.1,0c0,0,0.1,0,0.1,0c0,0,0,0,0,0c0,0,0,0,0,0.1
					c0,0,0,0,0,0.1l0,0.1C131.1,138,131.1,138.1,131,138.1C131.1,138.1,131.1,138.2,131,138.1L131,138.1L131,138.1L131,138.1z
					 M131.1,137.9c0,0-0.1,0-0.1,0c0,0-0.1,0-0.1,0c0,0,0,0,0,0c0,0,0,0,0,0c0,0,0,0.1,0,0.1c0,0,0,0.1,0.1,0.1c0,0,0.1,0,0.1,0
					c0,0,0.1,0,0.1,0C131,138,131.1,138,131.1,137.9L131.1,137.9L131.1,137.9z M131.2,138.2l0.2-0.6l0.1,0l0,0.1
					c0.1-0.1,0.1-0.1,0.2-0.1c0,0,0,0,0.1,0c0,0,0,0,0,0.1c0,0,0,0,0,0.1c0,0,0,0.1,0,0.1l-0.1,0.4l-0.1,0l0.1-0.4c0,0,0-0.1,0-0.1
					c0,0,0,0,0-0.1l0,0c-0.1,0-0.1,0-0.1,0c0,0-0.1,0.1-0.1,0.1L131.2,138.2L131.2,138.2L131.2,138.2z M131.8,138
					c0-0.1,0.1-0.2,0.1-0.2c0.1,0,0.1,0,0.2,0c0.1,0,0.1,0,0.2,0.1c0,0.1,0,0.1,0,0.2c0,0.1,0,0.1-0.1,0.2c0,0-0.1,0.1-0.1,0.1
					c0,0-0.1,0-0.1,0c-0.1,0-0.1-0.1-0.1-0.1C131.7,138.2,131.7,138.1,131.8,138L131.8,138z M131.8,138c0,0.1,0,0.1,0,0.2
					c0,0.1,0,0.1,0.1,0.1c0,0,0.1,0,0.1,0c0,0,0.1-0.1,0.1-0.2c0-0.1,0-0.1,0-0.2c0,0,0-0.1-0.1-0.1c0,0-0.1,0-0.1,0
					C131.9,137.9,131.9,138,131.8,138L131.8,138z"/>
				<g style="clip-path:url(#SVGID_2_);">
					<path class="st128" d="M133.8,140.8C133.7,140.8,133.7,140.8,133.8,140.8c-0.2-0.1-0.2-0.2-0.2-0.3l2.1-4
						c0.1-0.1,0.1-0.1,0.2-0.1c0.1,0.1,0.1,0.2,0.1,0.3l-2.1,4C133.9,140.7,133.8,140.8,133.8,140.8L133.8,140.8z"/>
				</g>
				<path style="clip-path:url(#SVGID_2_);fill:#F1E623;" d="M84,99c11.5-0.1,64.7,36.6,64.8,43.3l-3.3,5.6
					c-1.5-7.8-55.4-43.5-64.3-42.9L84,99L84,99z"/>
				<g style="clip-path:url(#SVGID_2_);">
					<path class="st125" d="M145.8,147.7l2.7-4.9c0-0.1,0.1-0.1,0.1,0c0,0,0.1,0.1,0,0.2L145.8,147.7L145.8,147.7z"/>
				</g>
				<g style="clip-path:url(#SVGID_2_);">
					<path class="st125" d="M81.4,104.7l2.4-5.5c0-0.1,0.1-0.1,0.2,0c0.1,0,0.1,0.1,0,0.2L81.4,104.7L81.4,104.7z"/>
				</g>
				<path style="clip-path:url(#SVGID_2_);fill:#F1E623;" d="M80.9,104.8c2.2-1.6,17.9,6.3,34.3,17.5c16.4,11.2,32,23.8,30.6,26.1
					l-0.5,0.8l-0.2,0.2c0,0,0.3-0.4,0-1.2c-0.7-2.6-11.8-12.5-30.2-25c-18-12.1-32.9-19.4-34.4-17.3L80.9,104.8L80.9,104.8z
					 M149.1,142.7c1.4-3-13.2-15.3-31.2-27.3c-18.5-11.8-31.8-18.8-34.2-16.7l-0.6,1.1c0,0.1,0-0.1,0.1-0.2c0.5-0.4,1.2-0.4,1.5-0.4
					c4.2,0.1,16.2,6.3,32.9,17.1c7.3,4.8,31,21.9,30.9,26.7c0,0.4,0,0.5-0.1,0.7L149.1,142.7L149.1,142.7z"/>
				<g style="clip-path:url(#SVGID_2_);">
					<path class="st125" d="M145.1,149.4l-0.1-0.2c0,0,0,0,0,0c0,0,0.2-0.3,0-1.1c-0.7-2.6-12.4-12.9-30.1-25
						c-15.2-10.2-29.2-17.6-33.4-17.6c-0.5,0-0.8,0.1-0.9,0.3l0-0.1c0-0.1,0-0.1,0-0.2l0.2-0.9c0.3-0.2,0.6-0.3,1-0.3
						c4.2,0,18.9,7.8,33.4,17.7c14.8,10.1,30,22.1,30.7,25.6c0.1,0.3,0,0.5-0.1,0.7l-0.5,0.8c0,0-0.1,0-0.1,0.1
						C145.1,149.4,145.1,149.4,145.1,149.4L145.1,149.4z M81.4,105.3c4.2,0,18.3,7.5,33.5,17.7c18,12.2,29.5,22.4,30.2,25.1
						c0.1,0.4,0.1,0.6,0.1,0.8l0.4-0.6c0.1-0.1,0.1-0.3,0.1-0.5c-0.7-3.4-16.3-15.7-30.6-25.5c-14.5-9.8-29.2-17.6-33.3-17.6
						c-0.4,0-0.6,0.1-0.8,0.2l-0.3,0.6C80.8,105.3,81.1,105.3,81.4,105.3L81.4,105.3z M148.6,143.8
						C148.6,143.8,148.6,143.8,148.6,143.8L148.6,143.8l-0.1-0.2c0,0,0,0,0,0l-0.1,0.1l0.1-0.1c0-0.1,0-0.2,0-0.4
						c0.1-4.9-24-22.2-30.9-26.7C101,105.7,89,99.4,84.8,99.3c-0.4,0-1,0-1.4,0.4c0,0,0,0,0,0c0.4-0.6,1-0.6,1.4-0.6
						c4.3,0.1,16.3,6.4,33.1,17.2c4.8,3.2,31.1,21.6,31,26.8c0,0,0,0.1,0,0.1l0.3-0.5c1.3-2.7-12.4-14.6-31.2-27.1
						C98,102.9,86,97,83.8,98.8l-0.5,0.9c-0.1,0-0.3,0.1-0.3,0.1l0.6-1.1c0.3-0.3,0.8-0.4,1.4-0.4c5.2,0,20.8,9.3,33,17.1
						c16.3,10.9,32.8,24.2,31.2,27.5L148.6,143.8C148.7,143.7,148.6,143.8,148.6,143.8L148.6,143.8z"/>
				</g>
				<path style="clip-path:url(#SVGID_2_);fill:#FFFFFF;" d="M92.8,127.1c0,6.8,2.5,13.1,6.5,17.6c4.1,4.6,9.6,7.5,15.8,7.5
					c6.2,0,11.9-2.7,16-7.2c4.1-4.5,6.7-10.7,6.7-17.6l0,0l0.2-33.4L93,93.7L92.8,127.1L92.8,127.1z"/>
				<g style="clip-path:url(#SVGID_2_);">
					<path class="st125" d="M115.2,152.4c-6,0-11.6-2.7-15.9-7.6c-4.3-4.8-6.6-11.1-6.6-17.7l0.2-33.4l45.2,0.3l-0.1,33.5
						c0,6.7-2.5,13-6.8,17.7C127,149.8,121.2,152.4,115.2,152.4L115.2,152.4z M138,94l-45-0.2L93,127.1c0,6.6,2.3,12.8,6.5,17.5
						c4.3,4.8,9.8,7.4,15.7,7.5c6,0,11.6-2.5,15.9-7.2c4.3-4.7,6.7-10.9,6.7-17.5L138,94L138,94z"/>
				</g>
				<path style="clip-path:url(#SVGID_2_);fill:#E41224;" d="M93.7,127.1L93.7,127.1c0,6.6,2.4,12.6,6.3,16.9
					c3.9,4.4,9.3,7.1,15.2,7.1c5.9,0,11.4-2.6,15.3-6.9c3.9-4.3,6.4-10.2,6.5-16.8l0,0l0.2-32.4l-43.2-0.3L93.7,127.1L93.7,127.1z
					 M128.4,104.7l-0.1,20.6l0,2.2l0,0c0,0.6,0,1.2-0.1,1.8c-0.4,3.3-1.7,6.1-3.7,8.3c-2.4,2.6-5.6,4.1-9.1,4.1
					c-3.5,0-6.7-1.7-9-4.3c-2.4-2.7-3.8-6.3-3.7-10.1l0.1-22.8L128.4,104.7L128.4,104.7z"/>
				<g style="clip-path:url(#SVGID_2_);">
					<path class="st125" d="M115.2,151.3c-5.8,0-11.2-2.6-15.3-7.2c-4.1-4.6-6.3-10.6-6.3-17l0.2-32.4l43.3,0.2l-0.1,32.5
						c0,6.4-2.3,12.4-6.5,16.9C126.4,148.9,121,151.4,115.2,151.3L115.2,151.3z M137,95.1l-43.1-0.2l-0.1,32.2
						c0,6.3,2.2,12.3,6.2,16.9c4.1,4.6,9.5,7.1,15.2,7.1c5.7,0,11.2-2.4,15.2-6.9c4.1-4.5,6.4-10.4,6.4-16.7L137,95.1L137,95.1z
						 M115.2,141.8c-3.4,0-6.6-1.6-9.1-4.3c-2.4-2.7-3.8-6.4-3.8-10.2l0.1-22.9l25.9,0.2l0,20.7l0,2.2c0,0.6,0,1.2-0.1,1.8
						c-0.3,3.2-1.7,6-3.8,8.3C122,140.3,118.7,141.8,115.2,141.8L115.2,141.8z M102.7,104.6l-0.1,22.6c0,3.7,1.3,7.4,3.7,10
						c2.4,2.8,5.6,4.3,9,4.3c3.4,0,6.6-1.4,9.1-4.1c2.1-2.3,3.4-5.1,3.7-8.2c0.1-0.5,0.1-1.2,0.1-1.8l0.2-22.8L102.7,104.6
						L102.7,104.6z"/>
				</g>
				<path style="clip-path:url(#SVGID_2_);fill:#2B307A;" d="M112.6,123.6L112.6,123.6c0,0.9,0.3,1.8,0.8,2.4c0.5,0.6,1.2,1,2,1
					c0.8,0,1.5-0.4,2-1c0.5-0.6,0.9-1.5,0.9-2.4l0-4.5l-5.7-0.1L112.6,123.6L112.6,123.6z"/>
				<path style="clip-path:url(#SVGID_2_);fill:#FFFFFF;" d="M117.1,120.2c-0.3,0-0.6,0.3-0.6,0.6c0,0.3,0.3,0.6,0.6,0.6
					c0.3,0,0.6-0.3,0.6-0.6C117.7,120.5,117.4,120.2,117.1,120.2L117.1,120.2z"/>
				<path style="clip-path:url(#SVGID_2_);fill:#FFFFFF;" d="M115.5,121.8c-0.3,0-0.6,0.3-0.6,0.6c0,0.3,0.2,0.6,0.6,0.6
					c0.3,0,0.6-0.3,0.6-0.6C116.1,122.2,115.8,121.9,115.5,121.8L115.5,121.8z"/>
				<path style="clip-path:url(#SVGID_2_);fill:#FFFFFF;" d="M117.1,123.6c-0.3,0-0.6,0.3-0.6,0.6c0,0.3,0.3,0.6,0.6,0.6
					c0.3,0,0.6-0.3,0.6-0.6C117.7,123.9,117.4,123.6,117.1,123.6L117.1,123.6z"/>
				<path style="clip-path:url(#SVGID_2_);fill:#FFFFFF;" d="M114,123.6c-0.3,0-0.6,0.3-0.6,0.6c0,0.3,0.2,0.6,0.5,0.6
					c0.3,0,0.6-0.3,0.6-0.6C114.6,123.9,114.3,123.6,114,123.6L114,123.6z"/>
				<path style="clip-path:url(#SVGID_2_);fill:#FFFFFF;" d="M114,120.2c-0.3,0-0.6,0.3-0.6,0.6c0,0.4,0.2,0.6,0.6,0.6
					s0.6-0.3,0.6-0.6C114.6,120.4,114.3,120.2,114,120.2L114,120.2z"/>
				<path style="clip-path:url(#SVGID_2_);fill:#2B307A;" d="M112.5,134.4L112.5,134.4c0,0.9,0.3,1.8,0.8,2.4c0.5,0.6,1.2,1,2,1
					c0.8,0,1.5-0.4,2-1c0.5-0.6,0.8-1.4,0.8-2.4l0-4.5l-5.7-0.1L112.5,134.4L112.5,134.4z"/>
				<path style="clip-path:url(#SVGID_2_);fill:#FFFFFF;" d="M117,131.1c-0.3,0-0.6,0.3-0.6,0.6c0,0.4,0.2,0.6,0.5,0.6
					c0.3,0,0.6-0.3,0.6-0.6C117.6,131.3,117.3,131.1,117,131.1L117,131.1z"/>
				<path style="clip-path:url(#SVGID_2_);fill:#FFFFFF;" d="M115.4,132.7c-0.3,0-0.6,0.3-0.6,0.6c0,0.3,0.2,0.6,0.6,0.6
					c0.3,0,0.6-0.3,0.6-0.6C116,133,115.7,132.7,115.4,132.7L115.4,132.7z"/>
				<path style="clip-path:url(#SVGID_2_);fill:#FFFFFF;" d="M117,134.5c-0.3,0-0.6,0.3-0.6,0.6c0,0.3,0.3,0.6,0.6,0.6
					c0.3,0,0.6-0.3,0.6-0.6C117.6,134.8,117.3,134.5,117,134.5L117,134.5z"/>
				<path style="clip-path:url(#SVGID_2_);fill:#FFFFFF;" d="M113.9,134.5c-0.3,0-0.6,0.3-0.6,0.6c0,0.3,0.3,0.6,0.5,0.6
					c0.3,0,0.6-0.3,0.6-0.6C114.5,134.8,114.2,134.5,113.9,134.5L113.9,134.5z"/>
				<path style="clip-path:url(#SVGID_2_);fill:#FFFFFF;" d="M113.9,131c-0.3,0-0.6,0.3-0.6,0.6c0,0.4,0.3,0.6,0.6,0.6
					c0.3,0,0.6-0.3,0.6-0.6C114.5,131.3,114.2,131,113.9,131L113.9,131z"/>
				<path style="clip-path:url(#SVGID_2_);fill:#2B307A;" d="M104.7,123.5L104.7,123.5c0,0.9,0.3,1.8,0.8,2.4c0.5,0.6,1.2,1,2,1
					c0.8,0,1.5-0.4,2-1c0.5-0.6,0.9-1.5,0.9-2.4l0-4.5l-5.7,0L104.7,123.5L104.7,123.5z"/>
				<path style="clip-path:url(#SVGID_2_);fill:#FFFFFF;" d="M109.2,120.1c-0.3,0-0.6,0.3-0.6,0.6c0,0.3,0.2,0.6,0.6,0.6
					c0.3,0,0.6-0.3,0.6-0.6C109.8,120.4,109.5,120.1,109.2,120.1L109.2,120.1z"/>
				<path style="clip-path:url(#SVGID_2_);fill:#FFFFFF;" d="M107.6,121.8c-0.3,0-0.6,0.3-0.6,0.6c0,0.3,0.3,0.6,0.6,0.6
					c0.3,0,0.6-0.3,0.6-0.6C108.2,122.1,107.9,121.8,107.6,121.8L107.6,121.8z"/>
				<path style="clip-path:url(#SVGID_2_);fill:#FFFFFF;" d="M109.2,123.6c-0.3,0-0.6,0.3-0.6,0.6c0,0.3,0.2,0.6,0.6,0.6
					c0.3,0,0.6-0.3,0.6-0.6C109.8,123.9,109.5,123.6,109.2,123.6L109.2,123.6z"/>
				<path style="clip-path:url(#SVGID_2_);fill:#FFFFFF;" d="M106.1,123.6c-0.3,0-0.6,0.3-0.6,0.6c0,0.3,0.2,0.6,0.6,0.6
					c0.3,0,0.6-0.3,0.6-0.6C106.7,123.9,106.4,123.6,106.1,123.6L106.1,123.6z"/>
				<path style="clip-path:url(#SVGID_2_);fill:#FFFFFF;" d="M106.1,120.1c-0.3,0-0.5,0.3-0.6,0.6c0,0.4,0.2,0.6,0.5,0.6
					c0.3,0,0.6-0.3,0.6-0.6C106.7,120.4,106.4,120.1,106.1,120.1L106.1,120.1z"/>
				<path style="clip-path:url(#SVGID_2_);fill:#2B307A;" d="M120.5,123.7L120.5,123.7c0,0.9,0.3,1.8,0.8,2.4c0.5,0.6,1.2,1,2,1
					c0.8,0,1.5-0.4,2-1c0.5-0.6,0.9-1.5,0.9-2.4l0-4.5l-5.7,0L120.5,123.7L120.5,123.7z"/>
				<path style="clip-path:url(#SVGID_2_);fill:#FFFFFF;" d="M125,120.3c-0.3,0-0.6,0.3-0.6,0.6c0,0.4,0.2,0.6,0.6,0.6
					c0.3,0,0.6-0.3,0.6-0.6C125.6,120.5,125.3,120.3,125,120.3L125,120.3z"/>
				<path style="clip-path:url(#SVGID_2_);fill:#FFFFFF;" d="M123.4,121.9c-0.3,0-0.6,0.3-0.6,0.6c0,0.3,0.3,0.6,0.6,0.6
					s0.6-0.3,0.6-0.6C124,122.2,123.7,121.9,123.4,121.9L123.4,121.9z"/>
				<path style="clip-path:url(#SVGID_2_);fill:#FFFFFF;" d="M125,123.7c-0.3,0-0.6,0.3-0.6,0.6c0,0.3,0.2,0.6,0.6,0.6
					c0.3,0,0.6-0.3,0.6-0.6C125.5,124,125.3,123.7,125,123.7L125,123.7z"/>
				<path style="clip-path:url(#SVGID_2_);fill:#FFFFFF;" d="M121.9,123.7c-0.3,0-0.6,0.3-0.6,0.6c0,0.3,0.2,0.6,0.6,0.6
					c0.3,0,0.6-0.3,0.6-0.6C122.4,124,122.2,123.7,121.9,123.7L121.9,123.7z"/>
				<path style="clip-path:url(#SVGID_2_);fill:#FFFFFF;" d="M121.9,120.2c-0.3,0-0.6,0.3-0.6,0.6c0,0.3,0.3,0.6,0.6,0.6
					c0.3,0,0.6-0.3,0.6-0.6C122.5,120.5,122.2,120.2,121.9,120.2L121.9,120.2z"/>
				<path style="clip-path:url(#SVGID_2_);fill:#2B307A;" d="M112.7,112.6L112.7,112.6c0,0.9,0.3,1.8,0.8,2.4c0.5,0.6,1.2,1,2,1
					c0.8,0,1.5-0.4,2-1c0.5-0.6,0.9-1.5,0.9-2.4l0-4.5l-5.7,0L112.7,112.6L112.7,112.6z"/>
				<path style="clip-path:url(#SVGID_2_);fill:#FFFFFF;" d="M117.2,109.2c-0.3,0-0.6,0.3-0.6,0.6c0,0.3,0.3,0.6,0.6,0.6
					c0.3,0,0.6-0.3,0.6-0.6C117.7,109.5,117.5,109.2,117.2,109.2L117.2,109.2z"/>
				<path style="clip-path:url(#SVGID_2_);fill:#FFFFFF;" d="M115.6,110.9c-0.3,0-0.6,0.3-0.6,0.6c0,0.3,0.2,0.6,0.6,0.6
					c0.3,0,0.6-0.3,0.6-0.6C116.1,111.2,115.9,110.9,115.6,110.9L115.6,110.9z"/>
				<path style="clip-path:url(#SVGID_2_);fill:#FFFFFF;" d="M117.1,112.7c-0.3,0-0.6,0.3-0.6,0.6c0,0.4,0.3,0.6,0.6,0.6
					c0.3,0,0.6-0.3,0.6-0.6C117.7,112.9,117.5,112.7,117.1,112.7L117.1,112.7z"/>
				<path style="clip-path:url(#SVGID_2_);fill:#FFFFFF;" d="M114.1,112.6c-0.3,0-0.6,0.3-0.6,0.6c0,0.4,0.2,0.6,0.5,0.6
					c0.3,0,0.6-0.3,0.6-0.6C114.6,112.9,114.4,112.7,114.1,112.6L114.1,112.6z"/>
				<path style="clip-path:url(#SVGID_2_);fill:#FFFFFF;" d="M114.1,109.2c-0.3,0-0.6,0.3-0.6,0.6c0,0.3,0.2,0.6,0.6,0.6
					s0.6-0.3,0.6-0.6C114.7,109.5,114.4,109.2,114.1,109.2L114.1,109.2z"/>
				<path style="clip-path:url(#SVGID_2_);fill:#F1E623;" d="M96.6,103.3c0.1-2.3,1.6-2.9,1.6-2.9c0,0,1.6,0.6,1.6,2.9L96.6,103.3
					L96.6,103.3z"/>
				<path style="clip-path:url(#SVGID_2_);fill:#F1E623;" d="M95.4,100.4l-0.3,2.7l1.6,0c0-2.2,1.5-2.6,1.5-2.5c0,0,1.5,0.5,1.6,2.6
					l1.6,0l-0.3-2.7L95.4,100.4L95.4,100.4z"/>
				<g style="clip-path:url(#SVGID_2_);">
					<path class="st125" d="M101.4,103.2l-1.7,0c-0.1-2.1-1.6-2.6-1.6-2.6c0,0-1.4,0.3-1.4,2.5l-1.7,0.1l0.2-2.8l5.8,0L101.4,103.2
						L101.4,103.2z M98.1,100.5l-2.7,0l-0.2,2.6l1.5-0.1C96.6,101.2,97.6,100.6,98.1,100.5L98.1,100.5z M98.4,100.5
						c0.4,0.2,1.5,0.8,1.5,2.6l1.4-0.1l-0.3-2.6L98.4,100.5L98.4,100.5z"/>
				</g>
				<path style="clip-path:url(#SVGID_2_);fill:#F1E623;" d="M95,103.1l6.4,0c0.1,0,0.2,0.2,0.2,0.3c0,0.2-0.1,0.3-0.3,0.3l-6.4,0
					c-0.1,0-0.2-0.2-0.2-0.3C94.7,103.2,94.9,103.1,95,103.1L95,103.1z"/>
				<g style="clip-path:url(#SVGID_2_);">
					<path class="st125" d="M101.4,103.9l-6.4,0c-0.2,0-0.4-0.2-0.4-0.4c0-0.3,0.2-0.4,0.4-0.4l6.4,0c0.2,0,0.3,0.2,0.3,0.4
						C101.8,103.7,101.6,103.9,101.4,103.9L101.4,103.9z M95,103.2l0,0.4l6.4,0c0.1,0,0.2-0.1,0.2-0.2L95,103.2L95,103.2z"/>
				</g>
				<path style="clip-path:url(#SVGID_2_);fill:#F1E623;" d="M97.3,103.1c0-1.4,0.9-1.8,0.9-1.8s0.9,0.4,0.9,1.8L97.3,103.1
					L97.3,103.1z"/>
				<g style="clip-path:url(#SVGID_2_);">
					<path class="st125" d="M99.2,103.2l-1.8,0c-0.1-1.5,0.8-2,0.8-2C98.3,101.2,99.2,101.7,99.2,103.2L99.2,103.2L99.2,103.2z
						 M98.2,101.4c0,0-0.7,0.4-0.7,1.7L99,103C99,101.8,98.2,101.4,98.2,101.4L98.2,101.4z"/>
				</g>
				<path style="clip-path:url(#SVGID_2_);fill:#F1E623;" d="M95.2,99.3l6.2,0c0.1,0,0.2,0.1,0.2,0.3c0,0.2-0.1,0.3-0.2,0.3l-6.2,0
					c-0.1,0-0.2-0.1-0.2-0.3C94.9,99.4,95,99.3,95.2,99.3L95.2,99.3z"/>
				<g style="clip-path:url(#SVGID_2_);">
					<path class="st125" d="M101.3,100l-6.2,0c-0.2,0-0.3-0.2-0.3-0.4c0-0.2,0.2-0.4,0.3-0.4l6.2,0c0.2,0,0.3,0.2,0.3,0.4
						C101.6,99.9,101.5,100,101.3,100L101.3,100z M95.1,99.4l0,0.4l6.2,0c0.1,0,0.1-0.1,0.1-0.2L95.1,99.4L95.1,99.4z"/>
				</g>
				<path style="clip-path:url(#SVGID_2_);fill:#F1E623;" d="M95.3,99.9l5.9,0c0.1,0,0.2,0.1,0.2,0.3c0,0.2-0.1,0.3-0.2,0.3l-5.9,0
					c-0.1,0-0.2-0.1-0.2-0.3C95.1,100,95.1,99.9,95.3,99.9L95.3,99.9z"/>
				<g style="clip-path:url(#SVGID_2_);">
					<path class="st125" d="M101.2,100.6l-5.9,0c-0.2,0-0.3-0.2-0.3-0.4c0-0.2,0.1-0.4,0.3-0.4l5.9,0c0.2,0,0.3,0.2,0.3,0.4
						C101.5,100.4,101.4,100.6,101.2,100.6L101.2,100.6z M95.3,100l0,0.4l5.9,0c0.1,0,0.1-0.1,0.1-0.2L95.3,100L95.3,100z"/>
				</g>
				<path style="clip-path:url(#SVGID_2_);fill:#F1E623;" d="M97.2,95.4l0.5,0l0,0.4l0.3,0l0-0.4l0.5,0l0,0.4l0.3,0l0-0.4l0.5,0
					l0,0.8c0,0.1-0.1,0.2-0.2,0.2l-1.7,0c-0.1,0-0.2-0.1-0.2-0.2L97.2,95.4L97.2,95.4z"/>
				<g style="clip-path:url(#SVGID_2_);">
					<path class="st125" d="M99.1,96.6l-1.8,0l-0.2-0.3l0-0.8l0.6-0.1l0.1,0.5l0.3-0.1l-0.1-0.3l0.6-0.1l0.1,0.5l0.2-0.1l-0.1-0.3
						l0.6-0.1l0.1,1.1L99.1,96.6L99.1,96.6z M97.6,95.4l-0.4,0.1l0.1,0.7l1.8,0.2l0.1-0.2l0-0.8l-0.4,0.1l0.1,0.3l-0.4,0.1l-0.1-0.5
						L98,95.5l0.1,0.3l-0.4,0.1L97.6,95.4L97.6,95.4z"/>
				</g>
				<polygon style="clip-path:url(#SVGID_2_);fill:#F1E623;" points="99,96.6 99.1,99.3 97.4,99.3 97.5,96.6 99,96.6 				"/>
				<g style="clip-path:url(#SVGID_2_);">
					<path class="st125" d="M99.1,99.4l-1.8,0l0-2.8l1.5-0.1L99.1,99.4L99.1,99.4z M98.9,96.6l-1.3,0.1l0,2.6l1.4-0.1L98.9,96.6
						L98.9,96.6z"/>
				</g>
				<path style="clip-path:url(#SVGID_2_);fill:#F1E623;" d="M99.2,96.8l0.5,0l0,0.4l0.3,0l0-0.4l0.5,0l0,0.4l0.3,0l0-0.4l0.5,0
					l0,0.8c0,0.1-0.1,0.2-0.2,0.2l-1.6,0c-0.1,0-0.2-0.1-0.2-0.2L99.2,96.8L99.2,96.8z"/>
				<g style="clip-path:url(#SVGID_2_);">
					<path class="st125" d="M101.1,98l-1.7,0l-0.2-0.3l0-0.8l0.6-0.1l0.1,0.5l0.2-0.1l-0.1-0.3l0.6-0.1l0.1,0.5l0.2-0.1l-0.1-0.3
						l0.5-0.1l0.1,1.1L101.1,98L101.1,98z M99.6,96.8l-0.4,0.1l0.1,0.7l1.7,0.2l0.1-0.2l0-0.8l-0.4,0.1l0.1,0.3l-0.4,0.1l-0.1-0.5
						l-0.4,0.1l0.1,0.3l-0.4,0.1L99.6,96.8L99.6,96.8z"/>
				</g>
				<polygon style="clip-path:url(#SVGID_2_);fill:#F1E623;" points="101,97.9 101,99.3 99.5,99.3 99.5,97.9 				"/>
				<g style="clip-path:url(#SVGID_2_);">
					<path class="st125" d="M101.1,99.4l-1.7,0l0-1.6l1.6-0.1L101.1,99.4L101.1,99.4z M100.9,97.9l-1.4,0.1l0,1.4l1.4-0.1
						L100.9,97.9L100.9,97.9z"/>
				</g>
				<path style="clip-path:url(#SVGID_2_);fill:#F1E623;" d="M95.2,96.8l0.5,0l0,0.4l0.3,0l0-0.4l0.5,0l0,0.4l0.3,0l0-0.4l0.5,0
					l0,0.8c0,0.1-0.1,0.2-0.2,0.2l-1.6,0c-0.1,0-0.2-0.1-0.2-0.2L95.2,96.8L95.2,96.8z"/>
				<g style="clip-path:url(#SVGID_2_);">
					<path class="st125" d="M97,97.9l-1.7,0l-0.2-0.3l0-0.8l0.6-0.1l0.1,0.5L96,97l-0.1-0.3l0.6-0.1l0.1,0.5l0.2-0.1l-0.1-0.3
						l0.6-0.1l0.1,1.1L97,97.9L97,97.9z M95.6,96.8l-0.4,0.1l0.1,0.7l1.8,0.2l0.1-0.2l0-0.8l-0.4,0.1l0.1,0.3l-0.4,0.1l-0.1-0.5
						L96,96.9l0.1,0.3l-0.4,0.1L95.6,96.8L95.6,96.8z"/>
				</g>
				<polygon style="clip-path:url(#SVGID_2_);fill:#F1E623;" points="96.9,97.8 97,99.3 95.4,99.3 95.5,97.8 				"/>
				<g style="clip-path:url(#SVGID_2_);">
					<path class="st125" d="M97.1,99.4l-1.7,0l-0.1-1.6l1.6-0.1L97.1,99.4L97.1,99.4z M96.9,97.8l-1.4,0.1l0,1.4l1.4-0.1L96.9,97.8
						L96.9,97.8z"/>
				</g>
				<path style="clip-path:url(#SVGID_2_);fill:#020203;" d="M98.1,97.4c0-0.3,0.3-0.3,0.3,0l0,0.6l-0.3,0L98.1,97.4L98.1,97.4z"/>
				<path style="clip-path:url(#SVGID_2_);fill:#020203;" d="M100.1,98.4c0-0.3,0.3-0.2,0.3,0l0,0.5l-0.3,0L100.1,98.4L100.1,98.4z"
					/>
				<path style="clip-path:url(#SVGID_2_);fill:#020203;" d="M96,98.4c0-0.2,0.3-0.2,0.3,0l0,0.5l-0.3,0L96,98.4L96,98.4z"/>
				<path style="clip-path:url(#SVGID_2_);fill:#F1E623;" d="M114.6,95.6l0.5,0l0,0.4l0.3,0l0-0.4l0.5,0l0,0.4l0.3,0l0-0.4l0.5,0
					l0,0.8c0,0.1-0.1,0.2-0.2,0.2l-1.7,0c-0.1,0-0.2-0.1-0.2-0.2L114.6,95.6L114.6,95.6z"/>
				<g style="clip-path:url(#SVGID_2_);">
					<path class="st125" d="M116.5,96.8l-1.8,0l-0.2-0.3l0-0.8l0.6-0.1l0.1,0.5l0.2-0.1l-0.1-0.3l0.6-0.1l0.1,0.5l0.3-0.1l-0.1-0.3
						l0.6-0.1l0.1,1.1L116.5,96.8L116.5,96.8z M114.9,95.6l-0.4,0.1l0.1,0.7l1.8,0.2l0.1-0.2l0-0.8l-0.4,0.1l0.1,0.3l-0.4,0.1
						l-0.1-0.5l-0.4,0.1l0.1,0.3l-0.4,0.1L114.9,95.6L114.9,95.6z"/>
				</g>
				<polygon style="clip-path:url(#SVGID_2_);fill:#F1E623;" points="116.3,96.7 116.4,99.4 114.8,99.4 114.9,96.7 116.3,96.7 				
					"/>
				<g style="clip-path:url(#SVGID_2_);">
					<path class="st125" d="M116.5,99.5l-1.7,0l0-2.8l1.5-0.1L116.5,99.5L116.5,99.5z M116.2,96.7l-1.3,0.1l0,2.6l1.4-0.1
						L116.2,96.7L116.2,96.7z"/>
				</g>
				<path style="clip-path:url(#SVGID_2_);fill:#F1E623;" d="M116.6,96.9l0.4,0l0,0.4l0.3,0l0-0.4l0.5,0l0,0.4l0.3,0l0-0.4l0.5,0
					l0,0.8c0,0.1-0.1,0.2-0.2,0.2l-1.6,0c-0.1,0-0.2-0.1-0.2-0.2L116.6,96.9L116.6,96.9z"/>
				<g style="clip-path:url(#SVGID_2_);">
					<path class="st125" d="M118.4,98.1l-1.7,0l-0.2-0.3l0-0.8l0.5-0.1l0.1,0.5l0.2-0.1l-0.1-0.3l0.6-0.1l0.1,0.5l0.2-0.1l-0.1-0.3
						l0.6-0.1l0.1,1.1L118.4,98.1L118.4,98.1z M116.9,96.9l-0.4,0.1l0.1,0.7l1.8,0.2l0.1-0.2l0-0.8l-0.4,0.1l0.1,0.3l-0.4,0.1
						l-0.1-0.5l-0.4,0.1l0.1,0.3l-0.4,0.1L116.9,96.9L116.9,96.9z"/>
				</g>
				<polygon style="clip-path:url(#SVGID_2_);fill:#F1E623;" points="118.3,98 118.4,99.5 116.8,99.4 116.9,98 				"/>
				<g style="clip-path:url(#SVGID_2_);">
					<path class="st125" d="M116.7,99.6l0.1-1.6l1.6-0.1l0.1,1.6L116.7,99.6L116.7,99.6z M118.2,98l-1.4,0.1l0,1.3l1.5,0L118.2,98
						L118.2,98z"/>
				</g>
				<path style="clip-path:url(#SVGID_2_);fill:#F1E623;" d="M112.6,96.9l0.5,0l0,0.4l0.3,0l0-0.4l0.5,0l0,0.4l0.3,0l0-0.4l0.5,0
					l0,0.9c0,0.1-0.1,0.2-0.2,0.2l-1.6,0c-0.1,0-0.2-0.1-0.2-0.2L112.6,96.9L112.6,96.9z"/>
				<g style="clip-path:url(#SVGID_2_);">
					<path class="st125" d="M114.4,98.1l-1.7,0l-0.2-0.3l0-0.8l0.6-0.1l0.1,0.5l0.3-0.1l-0.1-0.3l0.6-0.1l0.1,0.5l0.2-0.1l-0.1-0.3
						l0.6-0.1l0.1,1.1L114.4,98.1L114.4,98.1z M112.9,96.9l-0.4,0.1l0.1,0.7l1.7,0.2l0.1-0.2l0-0.9l-0.4,0.1l0.1,0.3l-0.4,0.1
						l-0.1-0.5l-0.4,0.1l0.1,0.3l-0.4,0.1L112.9,96.9L112.9,96.9z"/>
				</g>
				<polygon style="clip-path:url(#SVGID_2_);fill:#F1E623;" points="114.3,98 114.3,99.4 112.8,99.4 112.8,98 				"/>
				<g style="clip-path:url(#SVGID_2_);">
					<path class="st125" d="M114.4,99.5l-1.7,0l0-1.6l1.6-0.1L114.4,99.5L114.4,99.5z M114.2,98l-1.4,0.1l0,1.4l1.4-0.1L114.2,98
						L114.2,98z"/>
				</g>
				<path style="clip-path:url(#SVGID_2_);fill:#F1E623;" d="M114,103.4c0.1-2.3,1.5-2.9,1.6-2.9c0,0,1.6,0.6,1.6,2.9L114,103.4
					L114,103.4z"/>
				<path style="clip-path:url(#SVGID_2_);fill:#F1E623;" d="M112.7,100.5l-0.3,2.7l1.6,0c0-2.2,1.5-2.6,1.6-2.5
					c0,0,1.5,0.5,1.5,2.6l1.6,0l-0.3-2.7L112.7,100.5L112.7,100.5z"/>
				<g style="clip-path:url(#SVGID_2_);">
					<path class="st125" d="M118.8,103.4l-1.7,0c-0.1-2.1-1.5-2.6-1.6-2.6c0,0-1.4,0.3-1.5,2.5l-1.7,0.1l0.2-2.8l5.8-0.1
						L118.8,103.4L118.8,103.4z M115.4,100.6l-2.7,0l-0.2,2.6l1.5-0.1C114,101.3,115,100.8,115.4,100.6L115.4,100.6z M115.7,100.6
						c0.4,0.2,1.5,0.8,1.5,2.6l1.4-0.1l-0.3-2.6L115.7,100.6L115.7,100.6z"/>
				</g>
				<path style="clip-path:url(#SVGID_2_);fill:#F1E623;" d="M112.3,103.2l6.4,0c0.1,0,0.2,0.2,0.2,0.3c0,0.2-0.1,0.3-0.2,0.3
					l-6.4,0c-0.1,0-0.2-0.1-0.2-0.3C112.1,103.4,112.2,103.2,112.3,103.2L112.3,103.2z"/>
				<g style="clip-path:url(#SVGID_2_);">
					<path class="st125" d="M118.8,104l-6.4,0c-0.2,0-0.3-0.2-0.3-0.4c0-0.3,0.2-0.4,0.3-0.4l6.4,0c0.2,0,0.3,0.2,0.3,0.4
						C119.1,103.8,119,104,118.8,104L118.8,104z M112.3,103.3l0,0.5l6.4,0c0.1,0,0.2-0.1,0.2-0.2L112.3,103.3L112.3,103.3z"/>
				</g>
				<path style="clip-path:url(#SVGID_2_);fill:#F1E623;" d="M114.7,103.2c0-1.4,0.9-1.8,0.9-1.8s0.9,0.4,0.9,1.8L114.7,103.2
					L114.7,103.2z"/>
				<g style="clip-path:url(#SVGID_2_);">
					<path class="st125" d="M116.5,103.3l-1.8,0c-0.1-1.6,0.8-2,0.8-2c0.1,0,1,0.5,1,1.9L116.5,103.3L116.5,103.3z M115.5,101.5
						c0,0-0.7,0.4-0.7,1.7l1.6-0.1C116.3,101.9,115.6,101.5,115.5,101.5L115.5,101.5z"/>
				</g>
				<path style="clip-path:url(#SVGID_2_);fill:#F1E623;" d="M112.5,99.4l6.2,0c0.1,0,0.2,0.1,0.2,0.3c0,0.2-0.1,0.3-0.2,0.3l-6.2,0
					c-0.1,0-0.2-0.1-0.2-0.3C112.3,99.6,112.4,99.4,112.5,99.4L112.5,99.4z"/>
				<g style="clip-path:url(#SVGID_2_);">
					<path class="st125" d="M118.7,100.2l-6.2,0c-0.2,0-0.3-0.2-0.3-0.4c0-0.2,0.1-0.4,0.3-0.4l6.2,0c0.2,0,0.3,0.2,0.3,0.4
						C119,100,118.9,100.2,118.7,100.2L118.7,100.2z M112.5,99.5l0,0.4l6.2,0c0.1,0,0.1-0.1,0.1-0.2L112.5,99.5L112.5,99.5z"/>
				</g>
				<path style="clip-path:url(#SVGID_2_);fill:#F1E623;" d="M112.6,100l5.9,0c0.1,0,0.2,0.1,0.2,0.3c0,0.2-0.1,0.3-0.2,0.3l-5.9,0
					c-0.1,0-0.2-0.1-0.2-0.3C112.4,100.1,112.5,100,112.6,100L112.6,100z"/>
				<g style="clip-path:url(#SVGID_2_);">
					<path class="st125" d="M118.5,100.8l-5.9,0c-0.2,0-0.3-0.2-0.3-0.4c0-0.2,0.2-0.4,0.3-0.4l5.9,0c0.2,0,0.3,0.2,0.3,0.4
						C118.8,100.6,118.7,100.8,118.5,100.8L118.5,100.8z M112.6,100.1l0,0.4l5.9,0c0.1,0,0.1-0.1,0.1-0.2L112.6,100.1L112.6,100.1z"
						/>
				</g>
				<path style="clip-path:url(#SVGID_2_);fill:#020203;" d="M115.4,97.6c0-0.3,0.3-0.3,0.3,0l0,0.6l-0.3,0L115.4,97.6L115.4,97.6z"
					/>
				<path style="clip-path:url(#SVGID_2_);fill:#020203;" d="M117.5,98.5c0-0.2,0.3-0.3,0.3,0l0,0.5l-0.3,0L117.5,98.5L117.5,98.5z"
					/>
				<path style="clip-path:url(#SVGID_2_);fill:#020203;" d="M113.4,98.5c0-0.3,0.3-0.3,0.3,0l0,0.5l-0.3,0L113.4,98.5L113.4,98.5z"
					/>
				<path style="clip-path:url(#SVGID_2_);fill:#F1E623;" d="M131.7,95.7l0.5,0l0,0.4l0.3,0l0-0.4l0.5,0l0,0.4l0.3,0l0-0.4l0.5,0
					l0,0.8c0,0.1-0.1,0.2-0.2,0.2l-1.7,0c-0.1,0-0.2-0.1-0.2-0.2L131.7,95.7L131.7,95.7z"/>
				<g style="clip-path:url(#SVGID_2_);">
					<path class="st125" d="M133.6,96.9l-1.8,0l-0.2-0.3l0-0.8l0.6-0.1l0.1,0.5l0.3-0.1l-0.1-0.3l0.6-0.1l0.1,0.5l0.2-0.1l-0.1-0.3
						l0.6-0.1l0.1,1.1L133.6,96.9L133.6,96.9z M132.1,95.7l-0.4,0.1l0.1,0.7l1.8,0.2l0.1-0.2l0-0.8l-0.4,0.1l0.1,0.3l-0.4,0.1
						l-0.1-0.5l-0.4,0.1l0.1,0.3l-0.4,0.1L132.1,95.7L132.1,95.7z"/>
				</g>
				<polygon style="clip-path:url(#SVGID_2_);fill:#F1E623;" points="133.5,96.8 133.6,99.6 131.9,99.6 132,96.8 				"/>
				<g style="clip-path:url(#SVGID_2_);">
					<path class="st125" d="M133.7,99.7l-1.7,0l0-2.8l1.5-0.1L133.7,99.7L133.7,99.7z M133.4,96.8l-1.3,0.1l0,2.6l1.4-0.1
						L133.4,96.8L133.4,96.8z"/>
				</g>
				<path style="clip-path:url(#SVGID_2_);fill:#F1E623;" d="M133.7,97.1l0.5,0l0,0.4l0.3,0l0-0.4l0.5,0l0,0.4l0.3,0l0-0.4l0.5,0
					l0,0.8c0,0.1-0.1,0.2-0.2,0.2l-1.7,0c-0.1,0-0.2-0.1-0.2-0.2L133.7,97.1L133.7,97.1z"/>
				<g style="clip-path:url(#SVGID_2_);">
					<path class="st125" d="M135.6,98.2l-1.7,0l-0.2-0.3l0-0.8l0.6-0.1l0.1,0.5l0.2-0.1l-0.1-0.3l0.6-0.1l0.1,0.5l0.2-0.1l-0.1-0.3
						l0.6-0.1l0.1,1.1L135.6,98.2L135.6,98.2z M134.1,97.1l-0.4,0.1l0.1,0.7l1.8,0.2l0.1-0.2l0-0.8l-0.4,0.1l0.1,0.3l-0.4,0.1
						l-0.1-0.5l-0.4,0.1l0.1,0.3l-0.4,0.1L134.1,97.1L134.1,97.1z"/>
				</g>
				<polygon style="clip-path:url(#SVGID_2_);fill:#F1E623;" points="135.5,98.1 135.5,99.6 134,99.6 134,98.1 				"/>
				<g style="clip-path:url(#SVGID_2_);">
					<path class="st125" d="M135.6,99.7l-1.7,0l0-1.6l1.6-0.1L135.6,99.7L135.6,99.7z M135.4,98.1l-1.4,0.1l0,1.4l1.4-0.1
						L135.4,98.1L135.4,98.1z"/>
				</g>
				<path style="clip-path:url(#SVGID_2_);fill:#F1E623;" d="M129.7,97l0.4,0l0,0.4l0.3,0l0-0.4l0.4,0l0,0.4l0.4,0l0-0.4l0.5,0
					l0,0.8c0,0.1-0.1,0.2-0.2,0.2l-1.6,0c-0.1,0-0.2-0.1-0.2-0.2L129.7,97L129.7,97z"/>
				<g style="clip-path:url(#SVGID_2_);">
					<path class="st125" d="M131.6,98.2l-1.7,0l-0.2-0.3l0-0.8l0.5-0.1l0.1,0.5l0.3-0.1l-0.1-0.3l0.5-0.1l0.1,0.5l0.3-0.1l-0.1-0.3
						l0.6-0.1l0.1,1.1L131.6,98.2L131.6,98.2z M130.1,97l-0.4,0.1l0.1,0.7l1.7,0.2l0.1-0.2l0-0.8l-0.4,0.1l0.1,0.3l-0.4,0.1
						l-0.1-0.5l-0.4,0.1l0.1,0.3l-0.4,0.1L130.1,97L130.1,97z"/>
				</g>
				<polygon style="clip-path:url(#SVGID_2_);fill:#F1E623;" points="131.5,98.1 131.5,99.6 129.9,99.6 130,98.1 				"/>
				<g style="clip-path:url(#SVGID_2_);">
					<path class="st125" d="M131.6,99.7l-1.7,0l-0.1-1.6l1.6-0.1L131.6,99.7L131.6,99.7z M131.4,98.1l-1.4,0.1l0,1.4l1.4-0.1
						L131.4,98.1L131.4,98.1z"/>
				</g>
				<path style="clip-path:url(#SVGID_2_);fill:#F1E623;" d="M131.1,103.5c0.1-2.3,1.6-2.9,1.6-2.9c0,0,1.6,0.6,1.6,2.9L131.1,103.5
					L131.1,103.5z"/>
				<path style="clip-path:url(#SVGID_2_);fill:#F1E623;" d="M129.9,100.7l-0.3,2.7l1.6,0c0-2.2,1.5-2.6,1.6-2.6
					c0,0,1.5,0.5,1.5,2.6l1.6,0l-0.3-2.7L129.9,100.7L129.9,100.7z"/>
				<g style="clip-path:url(#SVGID_2_);">
					<path class="st125" d="M136,103.5l-1.7,0c-0.1-2.1-1.5-2.6-1.5-2.6s-1.4,0.3-1.5,2.5l-1.7,0.1l0.2-2.8l5.8-0.1L136,103.5
						L136,103.5z M132.6,100.7l-2.7,0l-0.2,2.6l1.5-0.1C131.1,101.4,132.2,100.9,132.6,100.7L132.6,100.7z M132.9,100.7
						c0.4,0.2,1.5,0.8,1.5,2.6l1.4-0.1l-0.2-2.6L132.9,100.7L132.9,100.7z"/>
				</g>
				<path style="clip-path:url(#SVGID_2_);fill:#F1E623;" d="M129.5,103.3l6.4,0c0.1,0,0.2,0.2,0.2,0.3c0,0.2-0.1,0.3-0.3,0.3
					l-6.4,0c-0.1,0-0.2-0.1-0.2-0.3C129.3,103.5,129.4,103.3,129.5,103.3L129.5,103.3z"/>
				<g style="clip-path:url(#SVGID_2_);">
					<path class="st125" d="M135.9,104.2l-6.4,0c-0.2,0-0.3-0.2-0.3-0.4c0-0.2,0.1-0.4,0.3-0.4l6.4,0c0.2,0,0.3,0.2,0.3,0.4
						C136.3,104,136.1,104.2,135.9,104.2L135.9,104.2z M129.5,103.4l0,0.5l6.4,0c0.1,0,0.2-0.1,0.2-0.2L129.5,103.4L129.5,103.4z"/>
				</g>
				<path style="clip-path:url(#SVGID_2_);fill:#F1E623;" d="M131.8,103.3c0-1.4,0.9-1.8,0.9-1.8c0,0,0.9,0.4,0.9,1.8L131.8,103.3
					L131.8,103.3z"/>
				<g style="clip-path:url(#SVGID_2_);">
					<path class="st125" d="M133.7,103.5l-1.9,0c-0.1-1.5,0.8-2,0.8-2C132.8,101.5,133.7,101.9,133.7,103.5L133.7,103.5L133.7,103.5
						z M132.7,101.7c0,0-0.7,0.4-0.7,1.7l1.6-0.1C133.5,102.1,132.7,101.7,132.7,101.7L132.7,101.7z"/>
				</g>
				<path style="clip-path:url(#SVGID_2_);fill:#F1E623;" d="M129.7,99.6l6.2,0c0.1,0,0.2,0.1,0.2,0.3c0,0.2-0.1,0.3-0.2,0.3l-6.2,0
					c-0.1,0-0.2-0.1-0.2-0.3C129.4,99.7,129.5,99.6,129.7,99.6L129.7,99.6z"/>
				<g style="clip-path:url(#SVGID_2_);">
					<path class="st125" d="M135.8,100.3l-6.2,0c-0.2,0-0.3-0.2-0.3-0.4c0-0.2,0.2-0.4,0.3-0.4l6.2,0c0.2,0,0.3,0.2,0.3,0.4
						C136.1,100.1,136,100.3,135.8,100.3L135.8,100.3z M129.7,99.7l0,0.4l6.2,0c0.1,0,0.1-0.1,0.1-0.2L129.7,99.7L129.7,99.7z"/>
				</g>
				<path style="clip-path:url(#SVGID_2_);fill:#F1E623;" d="M129.8,100.2l5.9,0c0.1,0,0.2,0.1,0.2,0.3c0,0.2-0.1,0.3-0.2,0.3
					l-5.9,0c-0.1,0-0.2-0.1-0.2-0.3C129.6,100.3,129.7,100.2,129.8,100.2L129.8,100.2z"/>
				<g style="clip-path:url(#SVGID_2_);">
					<path class="st125" d="M135.7,100.9l-5.9,0c-0.2,0-0.3-0.2-0.3-0.4c0-0.2,0.1-0.4,0.3-0.4l5.9,0c0.2,0,0.3,0.2,0.3,0.4
						C136,100.7,135.9,100.9,135.7,100.9L135.7,100.9z M129.8,100.3l0,0.4l5.9,0c0.1,0,0.1-0.1,0.1-0.2L129.8,100.3L129.8,100.3z"/>
				</g>
				<path style="clip-path:url(#SVGID_2_);fill:#020203;" d="M132.6,97.7c0-0.3,0.3-0.3,0.3,0l0,0.7l-0.3,0L132.6,97.7L132.6,97.7z"
					/>
				<path style="clip-path:url(#SVGID_2_);fill:#020203;" d="M134.6,98.7c0-0.3,0.3-0.3,0.3,0l0,0.5l-0.3,0L134.6,98.7L134.6,98.7z"
					/>
				<path style="clip-path:url(#SVGID_2_);fill:#020203;" d="M130.6,98.6c0-0.3,0.3-0.3,0.3,0l0,0.5l-0.3,0L130.6,98.6L130.6,98.6z"
					/>
				<path style="clip-path:url(#SVGID_2_);fill:#F1E623;" d="M97.1,115l0.4,0l0,0.4l0.3,0l0-0.4l0.5,0l0,0.4l0.3,0l0-0.4l0.5,0
					l0,0.8c0,0.1-0.1,0.2-0.2,0.2l-1.7,0c-0.1,0-0.2-0.1-0.2-0.2L97.1,115L97.1,115z"/>
				<g style="clip-path:url(#SVGID_2_);">
					<path class="st125" d="M99,116.1l-1.8,0l-0.2-0.3l0-0.8l0.5-0.1l0.1,0.5l0.3-0.1l-0.1-0.3l0.6-0.1l0.1,0.5l0.2-0.1l-0.1-0.3
						l0.6-0.1l0.1,1.1L99,116.1L99,116.1z M97.5,115l-0.4,0.1l0.1,0.7L99,116l0.1-0.2l0-0.8l-0.4,0.1l0.1,0.3l-0.4,0.1l-0.1-0.5
						l-0.4,0.1l0.1,0.3l-0.4,0.1L97.5,115L97.5,115z"/>
				</g>
				<polygon style="clip-path:url(#SVGID_2_);fill:#F1E623;" points="98.8,116.1 98.9,118.8 97.3,118.8 97.4,116.1 98.9,116.1 				
					"/>
				<g style="clip-path:url(#SVGID_2_);">
					<path class="st125" d="M99,118.9l-1.7,0l0-2.8l1.5-0.1L99,118.9L99,118.9z M98.8,116.1l-1.3,0.1l0,2.6l1.4-0.1L98.8,116.1
						L98.8,116.1z"/>
				</g>
				<path style="clip-path:url(#SVGID_2_);fill:#F1E623;" d="M99.1,116.3l0.4,0l0,0.4l0.3,0l0-0.4l0.5,0l0,0.4l0.3,0l0-0.4l0.5,0
					l0,0.9c0,0.1-0.1,0.2-0.2,0.2l-1.6,0c-0.1,0-0.2-0.1-0.2-0.2L99.1,116.3L99.1,116.3z"/>
				<g style="clip-path:url(#SVGID_2_);">
					<path class="st125" d="M101,117.5l-1.7,0l-0.2-0.3l0-0.9l0.5-0.1l0.1,0.5l0.2-0.1l-0.1-0.3l0.6-0.1l0.1,0.5l0.2-0.1l-0.1-0.3
						l0.5-0.1l0.1,1.1L101,117.5L101,117.5z M99.5,116.3l-0.4,0.1l0.1,0.8l1.8,0.2l0.1-0.2l0-0.9l-0.4,0.1l0.1,0.3l-0.4,0.1
						l-0.1-0.5l-0.4,0.1l0.1,0.3l-0.4,0.1L99.5,116.3L99.5,116.3z"/>
				</g>
				<polygon style="clip-path:url(#SVGID_2_);fill:#F1E623;" points="100.9,117.4 100.9,118.8 99.3,118.8 99.4,117.4 				"/>
				<g style="clip-path:url(#SVGID_2_);">
					<path class="st125" d="M101,118.9l-1.7,0l0-1.6l1.6-0.1L101,118.9L101,118.9z M100.8,117.4l-1.4,0.1l0,1.4l1.4-0.1L100.8,117.4
						L100.8,117.4z"/>
				</g>
				<path style="clip-path:url(#SVGID_2_);fill:#F1E623;" d="M95.1,116.3l0.4,0l0,0.4l0.3,0l0-0.4l0.5,0l0,0.4l0.3,0l0-0.4l0.5,0
					l0,0.9c0,0.1-0.1,0.2-0.2,0.2l-1.6,0c-0.1,0-0.2-0.1-0.2-0.2L95.1,116.3L95.1,116.3z"/>
				<g style="clip-path:url(#SVGID_2_);">
					<path class="st125" d="M96.9,117.4l-1.7,0l-0.2-0.3l0-0.8l0.5-0.1l0.1,0.5l0.3-0.1l-0.1-0.3l0.6-0.1l0.1,0.5l0.3-0.1l-0.1-0.3
						l0.6-0.1l0.1,1.1L96.9,117.4L96.9,117.4z M95.5,116.3l-0.4,0.1l0.1,0.8l1.8,0.2l0.1-0.2l0-0.9l-0.4,0.1l0.1,0.3l-0.4,0.1
						l-0.1-0.5l-0.4,0.1l0.1,0.3l-0.4,0.1L95.5,116.3L95.5,116.3z"/>
				</g>
				<polygon style="clip-path:url(#SVGID_2_);fill:#F1E623;" points="96.8,117.3 96.9,118.8 95.3,118.8 95.4,117.3 				"/>
				<g style="clip-path:url(#SVGID_2_);">
					<path class="st125" d="M97,118.9l-1.7,0l0-1.6l1.6-0.1L97,118.9L97,118.9z M96.8,117.3l-1.4,0.1l0.1,1.4l1.4-0.1L96.8,117.3
						L96.8,117.3z"/>
				</g>
				<path style="clip-path:url(#SVGID_2_);fill:#F1E623;" d="M96.5,122.8c0.1-2.3,1.6-2.9,1.6-2.9c0,0,1.6,0.6,1.6,2.9L96.5,122.8
					L96.5,122.8z"/>
				<path style="clip-path:url(#SVGID_2_);fill:#F1E623;" d="M95.3,119.9l-0.3,2.7l1.6,0c0-2.2,1.5-2.6,1.6-2.6c0,0,1.5,0.5,1.5,2.6
					l1.6,0l-0.3-2.7L95.3,119.9L95.3,119.9z"/>
				<g style="clip-path:url(#SVGID_2_);">
					<path class="st125" d="M101.3,122.7l-1.7,0c-0.1-2.1-1.5-2.6-1.6-2.6c0,0-1.4,0.3-1.4,2.5l-1.7,0.1l0.2-2.8l5.8-0.1
						L101.3,122.7L101.3,122.7z M97.9,120l-2.7,0l-0.2,2.6l1.5-0.1C96.5,120.7,97.5,120.1,97.9,120L97.9,120z M98.2,120
						c0.4,0.2,1.5,0.8,1.5,2.6l1.4-0.1l-0.2-2.6L98.2,120L98.2,120z"/>
				</g>
				<path style="clip-path:url(#SVGID_2_);fill:#F1E623;" d="M94.9,122.6l6.4,0c0.1,0,0.2,0.2,0.2,0.3c0,0.2-0.1,0.3-0.2,0.3l-6.4,0
					c-0.1,0-0.2-0.2-0.2-0.3C94.6,122.7,94.7,122.6,94.9,122.6L94.9,122.6z"/>
				<g style="clip-path:url(#SVGID_2_);">
					<path class="st125" d="M101.3,123.4l-6.4,0c-0.2,0-0.3-0.2-0.3-0.4c0-0.2,0.2-0.4,0.4-0.4l6.4,0c0.2,0,0.3,0.2,0.3,0.4
						C101.7,123.2,101.5,123.4,101.3,123.4L101.3,123.4z M94.9,122.7l0,0.5l6.4,0c0.1,0,0.2-0.1,0.2-0.2L94.9,122.7L94.9,122.7z"/>
				</g>
				<path style="clip-path:url(#SVGID_2_);fill:#F1E623;" d="M97.2,122.6c0-1.4,0.9-1.8,0.9-1.8s0.9,0.4,0.9,1.8L97.2,122.6
					L97.2,122.6z"/>
				<g style="clip-path:url(#SVGID_2_);">
					<path class="st125" d="M99.1,122.7l-1.9,0c-0.1-1.5,0.8-2,0.9-2C98.2,120.7,99.1,121.2,99.1,122.7L99.1,122.7L99.1,122.7z
						 M98.1,120.9c0,0-0.7,0.4-0.7,1.7l1.6-0.1C98.8,121.3,98.1,120.9,98.1,120.9L98.1,120.9z"/>
				</g>
				<path style="clip-path:url(#SVGID_2_);fill:#F1E623;" d="M95,118.8l6.2,0c0.1,0,0.2,0.1,0.2,0.3c0,0.2-0.1,0.3-0.2,0.3l-6.2,0
					c-0.1,0-0.2-0.1-0.2-0.3C94.8,118.9,94.9,118.8,95,118.8L95,118.8z"/>
				<g style="clip-path:url(#SVGID_2_);">
					<path class="st125" d="M101.2,119.5l-6.2,0c-0.2,0-0.3-0.2-0.3-0.4c0-0.2,0.1-0.4,0.3-0.4l6.2,0c0.2,0,0.3,0.2,0.3,0.4
						S101.4,119.6,101.2,119.5L101.2,119.5z M95,118.9l0,0.4l6.2,0c0.1,0,0.1-0.1,0.1-0.2L95,118.9L95,118.9z"/>
				</g>
				<path style="clip-path:url(#SVGID_2_);fill:#F1E623;" d="M95.2,119.4l5.9,0c0.1,0,0.2,0.1,0.2,0.3c0,0.2-0.1,0.3-0.2,0.3l-5.9,0
					c-0.1,0-0.2-0.1-0.2-0.3C94.9,119.5,95,119.4,95.2,119.4L95.2,119.4z"/>
				<g style="clip-path:url(#SVGID_2_);">
					<path class="st125" d="M101.1,120.1l-5.9,0c-0.2,0-0.3-0.2-0.3-0.4c0-0.2,0.2-0.4,0.3-0.4l5.9,0c0.2,0,0.3,0.2,0.3,0.4
						C101.4,120,101.2,120.1,101.1,120.1L101.1,120.1z M95.2,119.5l0,0.4l5.9,0c0.1,0,0.1-0.1,0.1-0.2L95.2,119.5L95.2,119.5z"/>
				</g>
				<path style="clip-path:url(#SVGID_2_);fill:#020203;" d="M98,117c0-0.3,0.3-0.3,0.3,0l0,0.6l-0.3,0L98,117L98,117z"/>
				<path style="clip-path:url(#SVGID_2_);fill:#020203;" d="M100,117.9c0-0.3,0.3-0.3,0.3,0l0,0.5l-0.3,0L100,117.9L100,117.9z"/>
				<path style="clip-path:url(#SVGID_2_);fill:#020203;" d="M95.9,117.9c0-0.3,0.3-0.3,0.3,0l0,0.5l-0.3,0L95.9,117.9L95.9,117.9z"
					/>
				<path style="clip-path:url(#SVGID_2_);fill:#F1E623;" d="M130.5,135.8l0.3,0.4l-0.2,0.3l0.2,0.2l0.2-0.2l0.3,0.4l-0.2,0.3
					l0.2,0.3l0.2-0.3l0.4,0.4l-0.5,0.6c-0.1,0.1-0.2,0.1-0.3,0l-1.2-1.3c-0.1-0.1-0.1-0.2,0-0.3L130.5,135.8L130.5,135.8z"/>
				<g style="clip-path:url(#SVGID_2_);">
					<path class="st125" d="M131.3,138.2l-0.2-0.1l-1.2-1.4l0-0.4l0.5-0.6l0.5,0.4l-0.2,0.4l0.2,0.1l0.1-0.2l0.5,0.4l-0.2,0.4
						l0.2,0.1l0.1-0.3l0.5,0.4L131.3,138.2L131.3,138.2z M130.4,135.9l-0.4,0.6l1.3,1.7l0.1-0.2l0.5-0.6l-0.3-0.2l-0.1,0.3l-0.4-0.3
						l0.2-0.4l-0.3-0.2l-0.1,0.3l-0.4-0.3l0.2-0.4L130.4,135.9L130.4,135.9z"/>
				</g>
				<polygon style="clip-path:url(#SVGID_2_);fill:#F1E623;" points="131,138 129.3,140 128.2,138.7 130,136.8 				"/>
				<g style="clip-path:url(#SVGID_2_);">
					<path class="st125" d="M129.3,140.1l-1.2-1.4l1.8-2l1.1,1.1L129.3,140.1L129.3,140.1z M129.9,136.9l-1.7,1.8l1.1,1.1l1.6-1.9
						L129.9,136.9L129.9,136.9z"/>
				</g>
				<path style="clip-path:url(#SVGID_2_);fill:#F1E623;" d="M131,138.3l0.3,0.4l-0.2,0.3l0.2,0.3l0.2-0.3l0.3,0.4l-0.2,0.3l0.2,0.3
					l0.2-0.3l0.3,0.4l-0.5,0.6c-0.1,0.1-0.2,0.1-0.3,0l-1.1-1.3c-0.1-0.1-0.1-0.2,0-0.3L131,138.3L131,138.3z"/>
				<g style="clip-path:url(#SVGID_2_);">
					<path class="st125" d="M131.8,140.7l-0.2-0.1l-1.2-1.4l0.1-0.4l0.5-0.6l0.5,0.4l-0.2,0.4l0.2,0.1l0.1-0.3l0.5,0.4l-0.3,0.4
						l0.3,0.1l0.1-0.3l0.5,0.4L131.8,140.7L131.8,140.7z M131,138.4l-0.4,0.6l1.2,1.6l0.1-0.1l0.6-0.6l-0.3-0.2l-0.1,0.3l-0.4-0.3
						l0.2-0.4l-0.3-0.2l-0.1,0.3l-0.4-0.3l0.2-0.4L131,138.4L131,138.4z"/>
				</g>
				<polygon style="clip-path:url(#SVGID_2_);fill:#F1E623;" points="131.6,140.5 130.7,141.5 129.6,140.3 130.6,139.3 131.6,140.5 
									"/>
				<g style="clip-path:url(#SVGID_2_);">
					<path class="st125" d="M130.7,141.7l-1.2-1.3l1-1.2l1.2,1.2L130.7,141.7L130.7,141.7z M130.5,139.4l-0.8,1l1,1l0.8-1
						L130.5,139.4L130.5,139.4z"/>
				</g>
				<path style="clip-path:url(#SVGID_2_);fill:#F1E623;" d="M128.2,135.1l0.3,0.4l-0.2,0.3l0.2,0.3l0.3-0.3l0.3,0.4l-0.2,0.3
					l0.2,0.3l0.2-0.3l0.3,0.4l-0.5,0.6c-0.1,0.1-0.2,0.1-0.3,0l-1.1-1.3c-0.1-0.1-0.1-0.2,0-0.3L128.2,135.1L128.2,135.1z"/>
				<g style="clip-path:url(#SVGID_2_);">
					<path class="st125" d="M129,137.5l-0.2-0.1l-1.2-1.3l0-0.4l0.5-0.6l0.4,0.4l-0.2,0.4l0.2,0.1l0.1-0.3l0.5,0.4l-0.2,0.4l0.2,0.1
						l0.1-0.3l0.5,0.4L129,137.5L129,137.5z M128.1,135.2l-0.4,0.6l1.2,1.6l0.1-0.1l0.5-0.6l-0.3-0.2l-0.1,0.3l-0.4-0.3l0.2-0.4
						l-0.3-0.2l-0.1,0.3l-0.4-0.3l0.2-0.4L128.1,135.2L128.1,135.2z"/>
				</g>
				<polygon style="clip-path:url(#SVGID_2_);fill:#F1E623;" points="128.8,137.3 127.9,138.3 126.8,137.1 127.7,136.1 				"/>
				<g style="clip-path:url(#SVGID_2_);">
					<path class="st125" d="M127.9,138.5l-1.2-1.3l1-1.2l1.2,1.2L127.9,138.5L127.9,138.5z M127.7,136.2l-0.8,1l1,1l0.8-1
						L127.7,136.2L127.7,136.2z"/>
				</g>
				<path style="clip-path:url(#SVGID_2_);fill:#F1E623;" d="M125.1,140.9c1.5-1.6,2.9-0.8,2.9-0.8c0,0,0.7,1.7-0.7,3.3L125.1,140.9
					L125.1,140.9z"/>
				<path style="clip-path:url(#SVGID_2_);fill:#F1E623;" d="M126,137.8l-1.9,1.7l1.1,1.2c1.4-1.5,2.7-0.6,2.7-0.6
					c0,0,0.7,1.5-0.6,3l1.1,1.3l1.5-2.1L126,137.8L126,137.8z"/>
				<g style="clip-path:url(#SVGID_2_);">
					<path class="st125" d="M128.5,144.6l-1.2-1.3c1.3-1.6,0.6-3,0.6-3l0,0c0,0-0.4-0.2-0.9-0.3c-0.6,0-1.2,0.3-1.7,0.8l-1.2-1.2
						l1.9-1.8l4.1,4.5L128.5,144.6L128.5,144.6z M128.1,140.3c0.1,0.2,0.1,0.4,0.2,0.8c0,0.6-0.1,1.4-0.8,2.2l1,1l1.5-2L128.1,140.3
						L128.1,140.3z M125.9,137.9l-1.8,1.7l1.1,1.1c0.7-1,2.1-1,2.6-0.7L125.9,137.9L125.9,137.9z"/>
				</g>
				<path style="clip-path:url(#SVGID_2_);fill:#F1E623;" d="M124,139.5l4.5,5.1c0.1,0.1,0.1,0.3,0,0.4c-0.1,0.1-0.3,0.1-0.4,0
					l-4.5-5.1c-0.1-0.1-0.1-0.3,0-0.4C123.8,139.4,123.9,139.3,124,139.5L124,139.5z"/>
				<g style="clip-path:url(#SVGID_2_);">
					<path class="st125" d="M128.3,145.2l-0.2-0.1l-4.5-5.1c-0.1-0.2-0.1-0.4,0-0.6l0.3-0.1l4.7,5.2c0.1,0.1,0.1,0.4,0,0.6
						L128.3,145.2L128.3,145.2z M123.7,139.8l4.6,5.2l0.2-0.2l-4.5-5.4L123.7,139.8L123.7,139.8L123.7,139.8z"/>
				</g>
				<path style="clip-path:url(#SVGID_2_);fill:#F1E623;" d="M125.7,141.3c0.9-1,1.8-0.6,1.8-0.6c0,0,0.4,1-0.5,2L125.7,141.3
					L125.7,141.3z"/>
				<g style="clip-path:url(#SVGID_2_);">
					<path class="st125" d="M126.9,142.8l-1.3-1.5c1-1.3,1.8-0.8,1.9-0.8C127.6,140.7,127.9,141.8,126.9,142.8L126.9,142.8
						L126.9,142.8z M127,140.7c-0.3,0-0.8,0.1-1.2,0.6l1.2,1.2c0.7-0.8,0.5-1.6,0.4-1.8C127.3,140.8,127.2,140.7,127,140.7
						L127,140.7z"/>
				</g>
				<path style="clip-path:url(#SVGID_2_);fill:#F1E623;" d="M126.6,136.9l4.3,4.9c0.1,0.1,0.1,0.3,0,0.4c-0.1,0.1-0.3,0.1-0.4,0
					l-4.3-4.9c-0.1-0.1-0.1-0.3,0-0.4C126.3,136.8,126.5,136.8,126.6,136.9L126.6,136.9z"/>
				<g style="clip-path:url(#SVGID_2_);">
					<path class="st125" d="M130.7,142.4l-0.2-0.1l-4.3-4.9c-0.1-0.1-0.1-0.4,0-0.5l0.5,0l4.3,4.9c0.1,0.1,0.1,0.4,0,0.5
						L130.7,142.4L130.7,142.4z M126.5,137l-0.2,0.3l4.4,5l0.1-0.2L126.5,137L126.5,137z"/>
				</g>
				<path style="clip-path:url(#SVGID_2_);fill:#F1E623;" d="M126.3,137.4l4.1,4.7c0.1,0.1,0.1,0.3,0,0.4c-0.1,0.1-0.3,0.1-0.3,0
					l-4.1-4.7c-0.1-0.1-0.1-0.3,0-0.4C126,137.3,126.2,137.3,126.3,137.4L126.3,137.4z"/>
				<g style="clip-path:url(#SVGID_2_);">
					<path class="st125" d="M130.2,142.7l-0.2-0.1l-4.1-4.6c-0.1-0.2-0.1-0.4,0-0.5l0.5,0l4.1,4.7c0.1,0.1,0.1,0.4,0,0.5
						L130.2,142.7L130.2,142.7z M126.2,137.5l-0.3,0.3l4.2,4.8l0.1-0.1L126.2,137.5L126.2,137.5z"/>
				</g>
				<path style="clip-path:url(#SVGID_2_);fill:#020203;" d="M129.8,137.8c0.1-0.2,0.4,0.1,0.2,0.3l-0.4,0.5l-0.2-0.3L129.8,137.8
					L129.8,137.8z"/>
				<path style="clip-path:url(#SVGID_2_);fill:#020203;" d="M130.6,140.1c0.2-0.2,0.4,0.1,0.2,0.2l-0.3,0.4l-0.2-0.3L130.6,140.1
					L130.6,140.1z"/>
				<path style="clip-path:url(#SVGID_2_);fill:#020203;" d="M127.8,136.9c0.2-0.2,0.4,0.1,0.2,0.3l-0.3,0.4l-0.2-0.3L127.8,136.9
					L127.8,136.9z"/>
				<path style="clip-path:url(#SVGID_2_);fill:#F1E623;" d="M131.6,115.2l0.5,0l0,0.4l0.3,0l0-0.4l0.5,0l0,0.4l0.3,0l0-0.4l0.5,0
					l0,0.8c0,0.1-0.1,0.2-0.2,0.2l-1.7,0c-0.1,0-0.2-0.1-0.2-0.2L131.6,115.2L131.6,115.2z"/>
				<g style="clip-path:url(#SVGID_2_);">
					<path class="st125" d="M133.5,116.4l-1.8,0l-0.2-0.3l0-0.8l0.6-0.1l0.1,0.5l0.2-0.1l-0.1-0.3l0.6-0.1l0.1,0.5l0.2-0.1l-0.1-0.3
						l0.6-0.1l0.1,1.1L133.5,116.4L133.5,116.4z M132,115.2l-0.4,0.1l0.1,0.7l1.8,0.2l0.1-0.2l0-0.8l-0.4,0.1l0.1,0.3l-0.4,0.1
						l-0.1-0.5l-0.4,0.1l0.1,0.3l-0.4,0.1L132,115.2L132,115.2z"/>
				</g>
				<polygon style="clip-path:url(#SVGID_2_);fill:#F1E623;" points="133.3,116.4 133.4,119.1 131.8,119.1 131.9,116.3 				"/>
				<g style="clip-path:url(#SVGID_2_);">
					<path class="st125" d="M133.5,119.2l-1.7,0l0-2.8l1.5-0.1L133.5,119.2L133.5,119.2z M133.2,116.4l-1.3,0.1l0,2.6l1.4-0.1
						L133.2,116.4L133.2,116.4z"/>
				</g>
				<path style="clip-path:url(#SVGID_2_);fill:#F1E623;" d="M133.6,116.6l0.5,0l0,0.4l0.3,0l0-0.4l0.5,0l0,0.4l0.3,0l0-0.4l0.5,0
					l0,0.9c0,0.1-0.1,0.2-0.2,0.2l-1.6,0c-0.1,0-0.2-0.1-0.2-0.2L133.6,116.6L133.6,116.6z"/>
				<g style="clip-path:url(#SVGID_2_);">
					<path class="st125" d="M135.5,117.7l-1.7,0l-0.2-0.3l0-0.8l0.6-0.1l0.1,0.5l0.2-0.1l-0.1-0.3l0.6-0.1l0.1,0.5l0.2-0.1l-0.1-0.3
						l0.6-0.1l0.1,1.1L135.5,117.7L135.5,117.7z M134,116.6l-0.4,0.1l0.1,0.7l1.8,0.2l0.1-0.2l0-0.9l-0.4,0.1l0.1,0.3l-0.4,0.1
						l-0.1-0.5l-0.4,0.1l0.1,0.3l-0.4,0.1L134,116.6L134,116.6z"/>
				</g>
				<polygon style="clip-path:url(#SVGID_2_);fill:#F1E623;" points="135.4,117.6 135.4,119.1 133.8,119.1 133.9,117.6 				"/>
				<g style="clip-path:url(#SVGID_2_);">
					<path class="st125" d="M135.5,119.2l-1.7,0l0-1.6l1.6-0.1L135.5,119.2L135.5,119.2z M135.3,117.6l-1.4,0.1l0.1,1.4l1.4-0.1
						L135.3,117.6L135.3,117.6z"/>
				</g>
				<path style="clip-path:url(#SVGID_2_);fill:#F1E623;" d="M129.6,116.5l0.4,0l0,0.4l0.3,0l0-0.4l0.5,0l0,0.4l0.3,0l0-0.4l0.5,0
					l0,0.9c0,0.1-0.1,0.2-0.2,0.2l-1.6,0c-0.1,0-0.2-0.1-0.2-0.2L129.6,116.5L129.6,116.5z"/>
				<g style="clip-path:url(#SVGID_2_);">
					<path class="st125" d="M131.4,117.7l-1.7,0l-0.2-0.3l0-0.8l0.5-0.1l0.1,0.5l0.3-0.1l-0.1-0.3l0.6-0.1l0.1,0.5l0.3-0.1l-0.1-0.3
						l0.6-0.1l0.1,1.1L131.4,117.7L131.4,117.7z M129.9,116.5l-0.4,0.1l0.1,0.7l1.8,0.2l0.1-0.2l0-0.9l-0.4,0.1l0.1,0.3l-0.4,0.1
						l-0.1-0.5l-0.4,0.1l0.1,0.3L130,117L129.9,116.5L129.9,116.5z"/>
				</g>
				<polygon style="clip-path:url(#SVGID_2_);fill:#F1E623;" points="131.3,117.6 131.4,119.1 129.8,119.1 129.9,117.6 				"/>
				<g style="clip-path:url(#SVGID_2_);">
					<path class="st125" d="M129.7,119.2l0.1-1.6l1.6-0.1l0.1,1.6L129.7,119.2L129.7,119.2z M131.2,117.6l-1.4,0.1l0,1.3l1.5,0
						L131.2,117.6L131.2,117.6z"/>
				</g>
				<path style="clip-path:url(#SVGID_2_);fill:#F1E623;" d="M131,123c0.1-2.3,1.6-2.9,1.6-2.9c0,0,1.6,0.6,1.6,2.9L131,123L131,123
					z"/>
				<path style="clip-path:url(#SVGID_2_);fill:#F1E623;" d="M129.7,120.2l-0.3,2.7l1.6,0c0-2.2,1.5-2.6,1.6-2.6
					c0,0,1.5,0.5,1.5,2.6l1.6,0l-0.3-2.7L129.7,120.2L129.7,120.2z"/>
				<g style="clip-path:url(#SVGID_2_);">
					<path class="st125" d="M135.8,123l-1.7,0c-0.1-2.1-1.5-2.6-1.5-2.6c0,0-1.4,0.3-1.5,2.5l-1.7,0.1l0.2-2.8l5.8-0.1L135.8,123
						L135.8,123z M132.4,120.2l-2.7,0l-0.2,2.6l1.5-0.1C131,120.9,132,120.4,132.4,120.2L132.4,120.2z M132.8,120.2
						c0.4,0.2,1.5,0.9,1.5,2.7l1.4-0.1l-0.2-2.6L132.8,120.2L132.8,120.2z"/>
				</g>
				<path style="clip-path:url(#SVGID_2_);fill:#F1E623;" d="M129.4,122.9l6.4,0c0.1,0,0.2,0.2,0.2,0.3c0,0.2-0.1,0.3-0.3,0.3
					l-6.4,0c-0.1,0-0.2-0.2-0.2-0.3C129.1,123,129.2,122.9,129.4,122.9L129.4,122.9z"/>
				<g style="clip-path:url(#SVGID_2_);">
					<path class="st125" d="M135.8,123.7l-6.4,0c-0.2,0-0.3-0.2-0.3-0.4c0-0.3,0.2-0.4,0.3-0.4l6.4,0c0.2,0,0.3,0.2,0.3,0.4
						C136.1,123.5,136,123.7,135.8,123.7L135.8,123.7z M129.4,123l0,0.4l6.4,0c0.1,0,0.2-0.1,0.2-0.2L129.4,123L129.4,123z"/>
				</g>
				<path style="clip-path:url(#SVGID_2_);fill:#F1E623;" d="M131.7,122.9c0-1.4,0.9-1.8,0.9-1.8s0.9,0.4,0.9,1.8L131.7,122.9
					L131.7,122.9z"/>
				<g style="clip-path:url(#SVGID_2_);">
					<path class="st125" d="M133.6,123l-1.9,0c-0.1-1.6,0.8-2,0.8-2C132.7,121,133.6,121.4,133.6,123L133.6,123L133.6,123z
						 M132.5,121.2c0,0-0.7,0.4-0.7,1.7l1.6-0.1C133.3,121.6,132.6,121.2,132.5,121.2L132.5,121.2z"/>
				</g>
				<path style="clip-path:url(#SVGID_2_);fill:#F1E623;" d="M129.5,119.1l6.2,0c0.1,0,0.2,0.1,0.2,0.3c0,0.2-0.1,0.3-0.2,0.3
					l-6.2,0c-0.1,0-0.2-0.1-0.2-0.3C129.3,119.2,129.4,119.1,129.5,119.1L129.5,119.1z"/>
				<g style="clip-path:url(#SVGID_2_);">
					<path class="st125" d="M135.7,119.8l-6.2,0c-0.2,0-0.3-0.2-0.3-0.4s0.2-0.4,0.3-0.4l6.2,0c0.2,0,0.3,0.2,0.3,0.4
						S135.9,119.8,135.7,119.8L135.7,119.8z M129.5,119.2l0,0.4l6.2,0c0.1,0,0.1-0.1,0.1-0.2L129.5,119.2L129.5,119.2z"/>
				</g>
				<path style="clip-path:url(#SVGID_2_);fill:#F1E623;" d="M129.6,119.6l5.9,0c0.1,0,0.2,0.1,0.2,0.3c0,0.2-0.1,0.3-0.2,0.3
					l-5.9,0c-0.1,0-0.2-0.1-0.2-0.3C129.4,119.8,129.5,119.6,129.6,119.6L129.6,119.6z"/>
				<g style="clip-path:url(#SVGID_2_);">
					<path class="st125" d="M135.5,120.4l-5.9,0c-0.2,0-0.3-0.2-0.3-0.4c0-0.2,0.1-0.4,0.3-0.4l5.9,0c0.2,0,0.3,0.2,0.3,0.4
						C135.9,120.2,135.7,120.4,135.5,120.4L135.5,120.4z M129.6,119.8l0,0.4l5.9,0c0.1,0,0.1-0.1,0.1-0.2L129.6,119.8L129.6,119.8z"
						/>
				</g>
				<path style="clip-path:url(#SVGID_2_);fill:#020203;" d="M132.5,117.2c0-0.3,0.3-0.3,0.3,0l0,0.7l-0.3,0L132.5,117.2
					L132.5,117.2z"/>
				<path style="clip-path:url(#SVGID_2_);fill:#020203;" d="M134.5,118.2c0-0.3,0.3-0.3,0.3,0l0,0.5l-0.3,0L134.5,118.2
					L134.5,118.2z"/>
				<path style="clip-path:url(#SVGID_2_);fill:#020203;" d="M130.4,118.1c0-0.3,0.3-0.3,0.3,0l0,0.5l-0.3,0L130.4,118.1
					L130.4,118.1z"/>
				<path style="clip-path:url(#SVGID_2_);fill:#F1E623;" d="M98.7,137.2l0.3-0.4l0.2,0.3l0.2-0.3l-0.2-0.3l0.3-0.4l0.2,0.3l0.2-0.3
					l-0.2-0.3l0.3-0.4l0.5,0.6c0.1,0.1,0.1,0.2,0,0.3l-1.2,1.3c-0.1,0.1-0.2,0.1-0.3,0L98.7,137.2L98.7,137.2z"/>
				<g style="clip-path:url(#SVGID_2_);">
					<path class="st125" d="M99.3,137.9l-0.2-0.1l-0.5-0.6l0.3-0.5l0.4,0.3l0.1-0.3l-0.2-0.1l0.4-0.5l0.4,0.3l0.1-0.3l-0.2-0.1
						l0.3-0.5l0.7,0.7l-0.1,0.4L99.3,137.9L99.3,137.9z M98.9,136.9l-0.2,0.4l0.6,0.6l0.1-0.2l1.2-1.3l-0.5-0.8l-0.2,0.4l0.2,0.1
						l-0.2,0.4l-0.4-0.3l-0.2,0.4l0.3,0.1l-0.3,0.4L98.9,136.9L98.9,136.9z"/>
				</g>
				<polygon style="clip-path:url(#SVGID_2_);fill:#F1E623;" points="100.6,136.6 102.4,138.5 101.3,139.7 99.6,137.7 				"/>
				<g style="clip-path:url(#SVGID_2_);">
					<path class="st125" d="M101.3,139.9l-1.7-2.1l1-1.2l1.9,1.9L101.3,139.9L101.3,139.9z M100.6,136.7l-0.9,1.1l1.6,1.8l1.1-1.2
						L100.6,136.7L100.6,136.7z"/>
				</g>
				<path style="clip-path:url(#SVGID_2_);fill:#F1E623;" d="M101,136.5l0.3-0.4l0.2,0.3l0.2-0.3l-0.3-0.3l0.4-0.4l0.2,0.3l0.2-0.3
					l-0.2-0.3l0.3-0.4l0.5,0.6c0.1,0.1,0.1,0.2,0,0.3l-1.2,1.3c-0.1,0.1-0.2,0.1-0.3,0L101,136.5L101,136.5z"/>
				<g style="clip-path:url(#SVGID_2_);">
					<path class="st125" d="M101.6,137.3l-0.2-0.1l-0.5-0.6l0.3-0.5l0.4,0.3l0.1-0.3l-0.2-0.1l0.3-0.5l0.4,0.3l0.1-0.3l-0.2-0.1
						l0.4-0.5l0.7,0.7l0,0.4L101.6,137.3L101.6,137.3z M101.2,136.2l-0.2,0.4l0.6,0.6l0.1-0.2l1.2-1.3l-0.5-0.8l-0.2,0.4l0.2,0.1
						l-0.2,0.4l-0.4-0.3l-0.2,0.4l0.2,0.1l-0.2,0.4L101.2,136.2L101.2,136.2z"/>
				</g>
				<polygon style="clip-path:url(#SVGID_2_);fill:#F1E623;" points="102.9,135.9 103.8,136.9 102.7,138.1 101.8,137.1 				"/>
				<g style="clip-path:url(#SVGID_2_);">
					<path class="st125" d="M102.7,138.3l-1-1.2l1.1-1.3l1.1,1L102.7,138.3L102.7,138.3z M102.8,136l-0.9,1.1l0.8,0.9l1-1.1
						L102.8,136L102.8,136z"/>
				</g>
				<path style="clip-path:url(#SVGID_2_);fill:#F1E623;" d="M98.1,139.7l0.3-0.3l0.2,0.3l0.2-0.3l-0.2-0.3l0.3-0.4l0.2,0.3l0.3-0.3
					l-0.2-0.3l0.3-0.4l0.5,0.6c0.1,0.1,0.1,0.2,0,0.3l-1.2,1.3c-0.1,0.1-0.2,0.1-0.3,0L98.1,139.7L98.1,139.7z"/>
				<g style="clip-path:url(#SVGID_2_);">
					<path class="st125" d="M98.8,140.4l-0.2-0.1l-0.5-0.6l0.3-0.5l0.4,0.3l0.1-0.3l-0.2-0.1l0.3-0.5l0.4,0.3l0.1-0.3l-0.2-0.1
						l0.3-0.5l0.7,0.6l0,0.4L98.8,140.4L98.8,140.4z M98.3,139.4l-0.2,0.4l0.6,0.6l0.1-0.1l1.2-1.3l-0.5-0.8l-0.2,0.4l0.2,0.1
						l-0.2,0.4l-0.4-0.3l-0.2,0.4l0.2,0.1l-0.2,0.4L98.3,139.4L98.3,139.4z"/>
				</g>
				<polygon style="clip-path:url(#SVGID_2_);fill:#F1E623;" points="100,139 101,140.1 99.9,141.3 99,140.2 				"/>
				<g style="clip-path:url(#SVGID_2_);">
					<path class="st125" d="M99.9,141.4l-1-1.2l1.1-1.3l1.1,1L99.9,141.4L99.9,141.4z M100,139.1l-0.9,1.1l0.8,0.9l1-1.1L100,139.1
						L100,139.1z"/>
				</g>
				<path style="clip-path:url(#SVGID_2_);fill:#F1E623;" d="M103.2,143.1c-1.4-1.7-0.7-3.2-0.7-3.3c0,0,1.5-0.8,3,0.8L103.2,143.1
					L103.2,143.1z"/>
				<path style="clip-path:url(#SVGID_2_);fill:#F1E623;" d="M100.5,142.1l1.5,2.1l1.1-1.2c-1.4-1.6-0.6-3-0.5-3
					c0,0,1.4-0.8,2.7,0.6l1.1-1.2l-1.9-1.7L100.5,142.1L100.5,142.1z"/>
				<g style="clip-path:url(#SVGID_2_);">
					<path class="st125" d="M102,144.4l-1.6-2.2l4.1-4.6l2,1.7l-1.1,1.4c-0.7-0.6-1.2-0.8-1.8-0.8c-0.6,0-0.9,0.2-0.9,0.2l0,0
						c0,0-0.8,1.3,0.6,2.9L102,144.4L102,144.4z M102.5,140.1l-1.9,2.1l1.5,1.9l1-1.2c-0.8-0.7-0.9-1.6-0.8-2.2
						C102.3,140.5,102.4,140.2,102.5,140.1L102.5,140.1z M103.6,139.6c0.7,0,1.3,0.3,1.8,0.9l1-1.2l-1.9-1.6l-1.8,2.1
						C102.9,139.7,103.2,139.6,103.6,139.6L103.6,139.6z"/>
				</g>
				<path style="clip-path:url(#SVGID_2_);fill:#F1E623;" d="M102,144.3l4.6-5c0.1-0.1,0.3-0.1,0.4,0c0.1,0.1,0.1,0.3,0,0.4l-4.6,5
					c-0.1,0.1-0.3,0.1-0.4,0C101.9,144.6,101.9,144.4,102,144.3L102,144.3z"/>
				<g style="clip-path:url(#SVGID_2_);">
					<path class="st125" d="M102.2,145l-0.3-0.1c-0.1-0.1-0.2-0.4,0-0.6l4.6-5c0.3-0.1,0.4,0,0.5,0.1c0.1,0.1,0.1,0.4,0,0.6
						L102.2,145L102.2,145z M106.7,139.3l-4.7,5.1l0,0.3l0.2,0.1l0.1-0.1l4.6-5l0-0.4L106.7,139.3L106.7,139.3z"/>
				</g>
				<path style="clip-path:url(#SVGID_2_);fill:#F1E623;" d="M103.6,142.5c-0.9-1-0.5-1.9-0.5-1.9s0.9-0.4,1.8,0.6L103.6,142.5
					L103.6,142.5z"/>
				<g style="clip-path:url(#SVGID_2_);">
					<path class="st125" d="M103.6,142.6L103.6,142.6c-1-1.1-0.6-2.1-0.6-2.1c0.1-0.1,1-0.5,1.9,0.5L103.6,142.6L103.6,142.6z
						 M103.1,140.6c0,0-0.2,0.8,0.5,1.7l1.2-1.3C104,140.4,103.2,140.6,103.1,140.6L103.1,140.6L103.1,140.6z"/>
				</g>
				<path style="clip-path:url(#SVGID_2_);fill:#F1E623;" d="M99.7,141.5l4.4-4.8c0.1-0.1,0.3-0.1,0.4,0c0.1,0.1,0.1,0.3,0,0.4
					l-4.4,4.8c-0.1,0.1-0.2,0.1-0.3,0C99.6,141.8,99.6,141.6,99.7,141.5L99.7,141.5z"/>
				<g style="clip-path:url(#SVGID_2_);">
					<path class="st125" d="M99.9,142.1l-0.3-0.2l0-0.5l4.4-4.8l0.5,0c0.1,0.2,0.1,0.4,0,0.6L99.9,142.1L99.9,142.1z M99.9,141.9
						l0,0.1L99.9,141.9l4.5-4.8l0.1-0.3l-0.2,0l-4.5,4.9l0,0.3L99.9,141.9L99.9,141.9z"/>
				</g>
				<path style="clip-path:url(#SVGID_2_);fill:#F1E623;" d="M100.1,141.8l4.2-4.6c0.1-0.1,0.3-0.1,0.4,0c0.1,0.1,0.1,0.3,0,0.4
					l-4.2,4.6c-0.1,0.1-0.2,0.1-0.3,0C100.1,142.1,100,141.9,100.1,141.8L100.1,141.8z"/>
				<g style="clip-path:url(#SVGID_2_);">
					<path class="st125" d="M100.4,142.4l-0.3-0.1c-0.1-0.1-0.1-0.4,0-0.5l4.2-4.6l0.5,0c0.2,0.2,0.1,0.4,0,0.5L100.4,142.4
						L100.4,142.4z M100.4,142.2l0,0.1L100.4,142.2l4.3-4.6l0-0.3l-0.2,0l-4.3,4.6l0,0.3L100.4,142.2L100.4,142.2z"/>
				</g>
				<path style="clip-path:url(#SVGID_2_);fill:#020203;" d="M100.6,137.8c-0.2-0.2,0.1-0.4,0.2-0.3l0.4,0.5l-0.2,0.2L100.6,137.8
					L100.6,137.8z"/>
				<path style="clip-path:url(#SVGID_2_);fill:#020203;" d="M102.6,136.9c-0.2-0.2,0.1-0.4,0.2-0.2l0.3,0.4l-0.2,0.2L102.6,136.9
					L102.6,136.9z"/>
				<path style="clip-path:url(#SVGID_2_);fill:#020203;" d="M99.7,140.1c-0.2-0.2,0.1-0.4,0.2-0.2l0.3,0.4l-0.2,0.2L99.7,140.1
					L99.7,140.1z"/>
			</g>
		</g>
	</g>
</g>
</svg>
