<?xml version="1.0" encoding="utf-8"?>
<!-- Generator: Adobe Illustrator 23.0.0, SVG Export Plug-In . SVG Version: 6.00 Build 0)  -->
<svg version="1.1" id="Capa_1" xmlns="http://www.w3.org/2000/svg" xmlns:xlink="http://www.w3.org/1999/xlink" x="0px" y="0px"
	 viewBox="0 0 124.3 120.9" style="enable-background:new 0 0 124.3 120.9;" xml:space="preserve">
<style type="text/css">
	.st0{fill:#FFFFFF;}
</style>
<path class="st0" d="M63.2,4.8C31.9,4.8,6.5,30.2,6.5,61.4s25.4,56.6,56.6,56.6c31.3,0,56.6-25.4,56.6-56.6S94.5,4.8,63.2,4.8z
	 M63.2,20.2c10,0,18.1,7.6,18.1,16.6c0,3.4-0.3,6.1-1,8.2c-0.5,2.6-1.3,5.3-2.2,7.4c-3.8,8.7-10.2,13.3-14.9,13.3
	c-4.7,0-11.8-4.8-15.5-13.6c-1.1-2.6-1.8-6.1-2.2-9.2c-0.3-1.7-0.4-3.7-0.4-6.1C45.1,27.8,53.2,20.2,63.2,20.2z M28.3,98.7
	c0-5.8,1-18.7,3-20.8C34.9,74,45,75,50,72.4c2.2,4.2,2.3,11,6,11c0.2,0,0.3,0,0.5,0c5.6-0.8,2.8-15.1,6.7-15.1
	c3.9,0,1.1,14.2,6.7,15.1c0.2,0,0.3,0,0.5,0c3.7,0,3.7-6.9,6-11c5,2.7,15.2,1.7,18.8,5.5c1.9,2.1,3,15,3,20.8H28.3z"/>
</svg>
