<?xml version="1.0" encoding="utf-8"?>
<!-- Generator: Adobe Illustrator 23.0.0, SVG Export Plug-In . SVG Version: 6.00 Build 0)  -->
<svg version="1.1" id="Capa_1" xmlns="http://www.w3.org/2000/svg" xmlns:xlink="http://www.w3.org/1999/xlink" x="0px" y="0px"
	 viewBox="0 0 124.3 120.9" style="enable-background:new 0 0 124.3 120.9;" xml:space="preserve">
<style type="text/css">
	.st0{fill:#FFFFFF;}
</style>
<path class="st0" d="M63.2,4.8C31.9,4.8,6.5,30.2,6.5,61.4s25.4,56.6,56.6,56.6c31.3,0,56.6-25.4,56.6-56.6S94.5,4.8,63.2,4.8z
	 M94.1,65.9L94.1,65.9h-6v24.5c0,1.3-1,2.3-2.3,2.3H72.2V74.9c0-2.5-2-4.6-4.6-4.6h-10c-2.5,0-4.6,2-4.6,4.6v17.8H39.5
	c-1.3,0-2.3-1-2.3-2.3V65.9h-6c-1.7,0-3.1-1-3.7-2.6c-0.6-1.6-0.1-3.3,1.1-4.4L60,31.6c1.5-1.3,3.7-1.3,5.2,0l13.8,12v-2.8
	c0-1.3,1.1-2.4,2.4-2.4h4.9c1.3,0,2.4,1.1,2.4,2.4v11.2l7.8,6.8c0.9,0.7,1.5,1.9,1.5,3.1C98,64.1,96.3,65.9,94.1,65.9z"/>
</svg>
