<?xml version="1.0" encoding="utf-8"?>
<!-- Generator: Adobe Illustrator 23.0.0, SVG Export Plug-In . SVG Version: 6.00 Build 0)  -->
<svg version="1.1" id="Capa_1" xmlns="http://www.w3.org/2000/svg" xmlns:xlink="http://www.w3.org/1999/xlink" x="0px" y="0px"
	 viewBox="0 0 104.1 95.4" style="enable-background:new 0 0 104.1 95.4;" xml:space="preserve">
<style type="text/css">
	.st0{fill:#155F86;}
	.st1{fill:#FFFFFF;}
	.st2{fill:#FFFFFF;stroke:#FFFFFF;stroke-width:5;stroke-miterlimit:10;}
</style>
<title>headrestriccions</title>
<circle class="st0" cx="52.7" cy="48.2" r="44.7"/>
<g id="g">
	<g id="g-2">
		<path id="s" class="st1" d="M79.7,60.3c0,0.3-0.1,0.5-0.3,0.7c-0.2,0.2-0.5,0.3-0.8,0.3h-6.5c0-0.8-0.2-1.6-0.5-2.3h8.1V60.3z"/>
		<path id="s-2" class="st1" d="M59.3,61.2H42c0-0.8-0.2-1.6-0.5-2.3h18.3C59.5,59.7,59.3,60.4,59.3,61.2z"/>
		<path id="s-3" class="st1" d="M23.8,41.7c1.7-1.7,3.9-2.9,6.3-3.4c2.2-0.3,6.5-0.3,6.5-0.3v17.3c-0.4-0.1-0.7-0.1-1.1-0.1
			c-3.4-0.1-6.3,2.6-6.4,6h-5.4c-0.7,0-1.3-0.3-1.8-0.7c-0.5-0.5-0.8-1.1-0.8-1.8V47.8C21.2,45.5,22.2,43.3,23.8,41.7z M23,49.9
			c0,0.3,0.1,0.5,0.4,0.7c0.2,0.2,0.5,0.2,0.8,0.2l9.5-1.8c0.2,0,0.4-0.1,0.5-0.3c0.1-0.2,0.2-0.4,0.2-0.6v-7.7c0,0-3.2,0-4.8,0.2
			c-1.7,0.4-3.3,1.2-4.6,2.5c-1.3,1.1-2,2.8-2,4.5V49.9z"/>
		<path id="s-4" class="st1" d="M61.2,58.4l0.3-0.3c2.1-2.4,5.6-2.6,8-0.6c0.2,0.2,0.4,0.4,0.6,0.5c0.1,0.1,0.2,0.2,0.3,0.3
			c0.1,0.2,0.2,0.4,0.3,0.6c0.4,0.7,0.6,1.5,0.6,2.3c-0.2,3-2.8,5.3-5.8,5.1c-2.8-0.2-5-2.4-5.1-5.1c0-0.8,0.2-1.6,0.6-2.3
			C60.9,58.7,61.1,58.5,61.2,58.4z M65.7,63.9c1.5,0,2.8-1.2,2.8-2.7c0-1-0.6-1.9-1.4-2.3c-0.9-0.5-1.9-0.5-2.8,0
			c-0.9,0.4-1.4,1.3-1.4,2.3C62.9,62.8,64.2,64,65.7,63.9z"/>
		<path id="s-5" class="st1" d="M35.6,56.1c0.4,0,0.7,0,1.1,0.1c0.4,0.1,0.9,0.2,1.3,0.4c0.9,0.4,1.6,1,2.2,1.8
			c0.6,0.8,0.9,1.8,0.9,2.9c0.2,3-2.1,5.6-5.2,5.8c-3,0.2-5.6-2.1-5.8-5.2c-0.2-3,2.1-5.6,5.2-5.8C35.4,56.1,35.5,56.1,35.6,56.1z
			 M35.6,63.9c1.5,0,2.8-1.1,2.8-2.7c0,0,0,0,0,0c0-0.5-0.2-1.1-0.5-1.5c-0.3-0.5-0.8-0.8-1.3-1c-0.3-0.1-0.7-0.2-1.1-0.2
			c-1.5-0.1-2.7,1-2.8,2.5c-0.1,1.5,1,2.7,2.5,2.8C35.4,63.9,35.5,63.9,35.6,63.9L35.6,63.9z"/>
		<rect x="37.9" y="31.7" class="st1" width="41.8" height="2.3"/>
		<path class="st1" d="M37.9,55.6c1.3,0.5,2.3,1.3,3.1,2.4h19.3c2.1-3,6.2-3.7,9.2-1.6c0.6,0.4,1.2,1,1.6,1.6h8.6V34.6H37.9V55.6z"
			/>
	</g>
</g>
<line class="st2" x1="21.4" y1="12.7" x2="84.2" y2="83.9"/>
</svg>
