<?xml version="1.0" encoding="utf-8"?>
<!-- Generator: Adobe Illustrator 23.0.0, SVG Export Plug-In . SVG Version: 6.00 Build 0)  -->
<svg version="1.1" id="Capa_1" xmlns="http://www.w3.org/2000/svg" xmlns:xlink="http://www.w3.org/1999/xlink" x="0px" y="0px"
	 viewBox="0 0 198.4 198.4" style="enable-background:new 0 0 198.4 198.4;" xml:space="preserve">
<style type="text/css">
	.st0{fill:#155F86;}
	.st1{fill:#D4D4D5;}
	.st2{fill:#0E9FDB;}
	.st3{fill:#FFFFFF;}
	.st4{fill:#065F87;}
	.st5{fill:none;stroke:#FFFFFF;stroke-miterlimit:10;}
	.st6{fill:none;stroke:#155F86;stroke-width:3;stroke-miterlimit:10;}
	.st7{fill:none;stroke:#FFFFFF;stroke-width:2;stroke-miterlimit:10;}
	.st8{fill:none;stroke:#9D9D9C;stroke-width:4;stroke-miterlimit:10;}
	.st9{fill:none;stroke:#000000;stroke-width:4;stroke-miterlimit:10;}
	.st10{fill:#9D9D9C;}
	.st11{fill:url(#SVGID_1_);}
	.st12{fill:url(#SVGID_2_);}
	.st13{fill:url(#SVGID_3_);}
	.st14{fill:#010202;}
	.st15{fill:url(#SVGID_4_);}
	.st16{opacity:0.2;fill:#FFFFFF;}
	.st17{filter:url(#Adobe_OpacityMaskFilter);}
	.st18{filter:url(#Adobe_OpacityMaskFilter_1_);}
	.st19{fill:url(#SVGID_7_);}
	.st20{fill:url(#SVGID_8_);}
	.st21{fill:url(#SVGID_9_);}
	.st22{filter:url(#Adobe_OpacityMaskFilter_2_);}
	.st23{fill:url(#SVGID_11_);}
	.st24{fill:url(#SVGID_12_);}
	.st25{fill:url(#SVGID_13_);}
	.st26{filter:url(#Adobe_OpacityMaskFilter_3_);}
	.st27{clip-path:url(#SVGID_16_);fill:#FFFFFF;}
	.st28{clip-path:url(#SVGID_16_);fill:#1B6C98;}
	.st29{clip-path:url(#SVGID_16_);fill:#155F86;}
	.st30{fill:#176086;}
	.st31{clip-path:url(#SVGID_18_);fill:url(#SVGID_19_);}
	.st32{clip-path:url(#SVGID_18_);fill:url(#SVGID_20_);}
	.st33{clip-path:url(#SVGID_18_);fill:url(#SVGID_21_);}
	.st34{clip-path:url(#SVGID_18_);fill:url(#SVGID_22_);}
	.st35{fill:#EFEEEE;}
	.st36{clip-path:url(#SVGID_24_);fill:url(#SVGID_25_);}
	.st37{clip-path:url(#SVGID_24_);fill:url(#SVGID_26_);}
	.st38{clip-path:url(#SVGID_24_);fill:url(#SVGID_27_);}
	.st39{clip-path:url(#SVGID_24_);fill:url(#SVGID_28_);}
	.st40{fill:#0B5F87;}
	.st41{fill:#ECECEC;}
	.st42{fill:#106086;}
	.st43{fill-rule:evenodd;clip-rule:evenodd;fill:#FFFFFF;}
	.st44{fill:#FFFFFF;stroke:#FFFFFF;stroke-miterlimit:10;}
	.st45{fill:none;stroke:#155F86;stroke-width:5;stroke-miterlimit:10;}
	.st46{fill:none;stroke:#155F86;stroke-width:2;stroke-miterlimit:10;}
</style>
<g id="g_8_">
	<g id="g_9_">
		<path id="s_28_" class="st0" d="M62.6,125.5c5.6,0,10.5,2.9,13.3,7.3h47.4c1.8-2.8,4.4-5,7.6-6.3V64.5H28.1v68.4h21.1
			C52,128.5,57,125.5,62.6,125.5z"/>
		<path id="s_27_" class="st0" d="M28.1,138.8c0,0.6,0.3,1.2,0.8,1.7c0.5,0.5,1.2,0.7,1.9,0.7h16c0-2.1,0.4-4.2,1.2-6H28.1V138.8z"
			/>
		<path id="s_26_" class="st0" d="M78.3,141.3h42.6c0-2.1,0.4-4.2,1.2-6h-45C77.9,137.1,78.3,139.1,78.3,141.3z"/>
		<path id="s_25_" class="st0" d="M165.5,90.6c-4.3-4.3-10-8.1-15.5-8.9c-5.4-0.8-16-0.9-16-0.9v44.9c0.9-0.1,1.7-0.2,2.6-0.2
			c8.7,0,15.7,7,15.7,15.7h13.2c1.7,0,3.3-0.6,4.6-1.9c1.3-1.3,1.9-2.9,1.9-4.6v-28.4C172,100.7,169.8,95,165.5,90.6z M167.5,111.8
			c0,0.7-0.3,1.3-0.9,1.8c-0.6,0.5-1.3,0.6-1.9,0.5l-23.3-4.6c-0.5-0.1-1-0.4-1.3-0.8c-0.4-0.4-0.5-1-0.5-1.5V87.2
			c0,0,7.8,0,11.8,0.6c4,0.6,8.2,3.3,11.3,6.5c3.2,3.2,4.8,7.4,4.8,11.6V111.8z"/>
		<path id="s_24_" class="st0" d="M73.7,133.8c-0.2-0.3-0.4-0.6-0.7-0.9c-2.5-3.1-6.2-5-10.5-5c-4.3,0-8,2-10.5,5
			c-0.2,0.3-0.4,0.6-0.7,0.9c-0.3,0.5-0.6,1-0.9,1.5c-0.9,1.8-1.4,3.9-1.4,6c0,7.4,6,13.4,13.4,13.4c7.4,0,13.4-6,13.4-13.4
			c0-2.2-0.5-4.2-1.4-6C74.3,134.7,74,134.2,73.7,133.8z M62.6,148.2c-3.8,0-7-3.1-7-7c0-2.6,1.4-4.8,3.5-6c1-0.6,2.2-0.9,3.5-0.9
			c1.3,0,2.4,0.3,3.5,0.9c2.1,1.2,3.5,3.5,3.5,6C69.5,145.1,66.4,148.2,62.6,148.2z"/>
		<path id="s_23_" class="st0" d="M136.6,127.8c-0.9,0-1.8,0.1-2.6,0.3c-1.1,0.2-2.1,0.6-3.1,1c-2.2,1-4.1,2.6-5.4,4.6
			c-1.4,2.1-2.3,4.7-2.3,7.5c0,7.4,6,13.4,13.4,13.4c7.4,0,13.4-6,13.4-13.4C150,133.8,144,127.8,136.6,127.8z M136.6,148.2
			c-3.8,0-7-3.1-7-7c0-1.5,0.5-2.8,1.2-4c0.8-1.1,1.8-2,3.1-2.5c0.8-0.3,1.7-0.5,2.6-0.5c3.8,0,7,3.1,7,7
			C143.6,145.1,140.5,148.2,136.6,148.2z"/>
		<rect id="white_stripe_6_" x="28.1" y="70.3" class="st3" width="102.8" height="1.7"/>
	</g>
</g>
</svg>
