<?xml version="1.0" encoding="utf-8"?>
<!-- Generator: Adobe Illustrator 23.0.0, SVG Export Plug-In . SVG Version: 6.00 Build 0)  -->
<svg version="1.1" id="Capa_1" xmlns="http://www.w3.org/2000/svg" xmlns:xlink="http://www.w3.org/1999/xlink" x="0px" y="0px"
	 viewBox="0 0 198.4 198.4" style="enable-background:new 0 0 198.4 198.4;" xml:space="preserve">
<style type="text/css">
	.st0{fill:#155F86;}
	.st1{fill:#D4D4D5;}
	.st2{fill:#0E9FDB;}
	.st3{fill:#FFFFFF;}
	.st4{fill:#065F87;}
	.st5{fill:none;stroke:#FFFFFF;stroke-miterlimit:10;}
	.st6{fill:none;stroke:#155F86;stroke-width:3;stroke-miterlimit:10;}
	.st7{fill:none;stroke:#FFFFFF;stroke-width:2;stroke-miterlimit:10;}
	.st8{fill:none;stroke:#9D9D9C;stroke-width:4;stroke-miterlimit:10;}
	.st9{fill:none;stroke:#000000;stroke-width:4;stroke-miterlimit:10;}
	.st10{fill:#9D9D9C;}
	.st11{fill:url(#SVGID_1_);}
	.st12{fill:url(#SVGID_2_);}
	.st13{fill:url(#SVGID_3_);}
	.st14{fill:#010202;}
	.st15{fill:url(#SVGID_4_);}
	.st16{opacity:0.2;fill:#FFFFFF;}
	.st17{filter:url(#Adobe_OpacityMaskFilter);}
	.st18{filter:url(#Adobe_OpacityMaskFilter_1_);}
	.st19{fill:url(#SVGID_7_);}
	.st20{fill:url(#SVGID_8_);}
	.st21{fill:url(#SVGID_9_);}
	.st22{filter:url(#Adobe_OpacityMaskFilter_2_);}
	.st23{fill:url(#SVGID_11_);}
	.st24{fill:url(#SVGID_12_);}
	.st25{fill:url(#SVGID_13_);}
	.st26{filter:url(#Adobe_OpacityMaskFilter_3_);}
	.st27{clip-path:url(#SVGID_16_);fill:#FFFFFF;}
	.st28{clip-path:url(#SVGID_16_);fill:#1B6C98;}
	.st29{clip-path:url(#SVGID_16_);fill:#155F86;}
	.st30{fill:#176086;}
	.st31{clip-path:url(#SVGID_18_);fill:url(#SVGID_19_);}
	.st32{clip-path:url(#SVGID_18_);fill:url(#SVGID_20_);}
	.st33{clip-path:url(#SVGID_18_);fill:url(#SVGID_21_);}
	.st34{clip-path:url(#SVGID_18_);fill:url(#SVGID_22_);}
	.st35{fill:#EFEEEE;}
	.st36{clip-path:url(#SVGID_24_);fill:url(#SVGID_25_);}
	.st37{clip-path:url(#SVGID_24_);fill:url(#SVGID_26_);}
	.st38{clip-path:url(#SVGID_24_);fill:url(#SVGID_27_);}
	.st39{clip-path:url(#SVGID_24_);fill:url(#SVGID_28_);}
	.st40{fill:#0B5F87;}
	.st41{fill:#ECECEC;}
	.st42{fill:#106086;}
	.st43{fill-rule:evenodd;clip-rule:evenodd;fill:#FFFFFF;}
	.st44{fill:#FFFFFF;stroke:#FFFFFF;stroke-miterlimit:10;}
	.st45{fill:none;stroke:#155F86;stroke-width:5;stroke-miterlimit:10;}
	.st46{fill:none;stroke:#155F86;stroke-width:2;stroke-miterlimit:10;}
</style>
<g>
	<path class="st0" d="M172.1,106.2c0-9.8-8-17.8-17.8-17.8c-9.8,0-17.8,8-17.8,17.8c0,9.8,8,17.8,17.8,17.8
		C164.1,123.9,172.1,116,172.1,106.2z"/>
	<path class="st0" d="M76.2,106.2c0-9.8-8-17.8-17.8-17.8s-17.8,8-17.8,17.8c0,9.8,8,17.8,17.8,17.8S76.2,116,76.2,106.2z"/>
	<path class="st0" d="M31.5,142.3v8.1h35.5c0.1-3.9,1.1-7.5,2.7-10.8v10.8h73.6v-10.9c1.7,3.3,2.7,7,2.8,10.9h35.4v-8.1
		c0-9.2-7.5-16.7-16.7-16.7H144c-1.7,0-3.4,0.3-4.9,0.8c-4.1-5.9-10.9-9.8-18.7-9.8h-28c-7.7,0-14.6,3.9-18.7,9.8
		c-1.6-0.5-3.2-0.8-4.9-0.8H48.1C38.9,125.6,31.5,133.1,31.5,142.3z M145,127.4h18.6c0.4,0,0.8,0,1.1,0.1l-3.8,20.1h-2.5l-2.1-13.5
		h-0.1l2-3.7h0h-8.1l2,3.7h-0.1l-2.1,13.5h-2.5l-3.8-20.1C144.2,127.4,144.6,127.4,145,127.4z M93.7,119h25.4c0.5,0,1,0,1.5,0.1
		l-5.2,27.4H112h-11.3h-3.4l-5.2-27.4C92.6,119.1,93.2,119,93.7,119z M49.1,127.4h18.6c0.4,0,0.8,0,1.1,0.1l-3.8,20.1h-2.5L60.5,134
		h-0.1l2-3.7h-8.1l2,3.7h-0.1l-2.1,13.5h-2.5L48,127.4C48.4,127.4,48.7,127.4,49.1,127.4z"/>
	<path class="st0" d="M130.6,90.1c0-13.4-10.8-24.2-24.2-24.2c-13.4,0-24.2,10.8-24.2,24.2c0,13.4,10.8,24.2,24.2,24.2
		C119.7,114.3,130.6,103.5,130.6,90.1z"/>
	<polygon class="st0" points="109.2,128.1 109.1,128.1 111.9,123 100.9,123 103.6,128.1 103.5,128.1 100.7,146.5 112,146.5 
		109.2,128.1 	"/>
</g>
</svg>
