<?xml version="1.0" encoding="utf-8"?>
<!-- Generator: Adobe Illustrator 23.0.0, SVG Export Plug-In . SVG Version: 6.00 Build 0)  -->
<svg version="1.1" id="Capa_1" xmlns="http://www.w3.org/2000/svg" xmlns:xlink="http://www.w3.org/1999/xlink" x="0px" y="0px"
	 viewBox="0 0 198.4 198.4" style="enable-background:new 0 0 198.4 198.4;" xml:space="preserve">
<style type="text/css">
	.st0{fill:#155F86;}
	.st1{fill:#D4D4D5;}
	.st2{fill:#0E9FDB;}
	.st3{fill:#FFFFFF;}
	.st4{fill:#065F87;}
	.st5{fill:none;stroke:#FFFFFF;stroke-miterlimit:10;}
	.st6{fill:none;stroke:#155F86;stroke-width:3;stroke-miterlimit:10;}
	.st7{fill:none;stroke:#FFFFFF;stroke-width:2;stroke-miterlimit:10;}
	.st8{fill:none;stroke:#9D9D9C;stroke-width:4;stroke-miterlimit:10;}
	.st9{fill:none;stroke:#000000;stroke-width:4;stroke-miterlimit:10;}
	.st10{fill:#9D9D9C;}
	.st11{fill:url(#SVGID_1_);}
	.st12{fill:url(#SVGID_2_);}
	.st13{fill:url(#SVGID_3_);}
	.st14{fill:#010202;}
	.st15{fill:url(#SVGID_4_);}
	.st16{opacity:0.2;fill:#FFFFFF;}
	.st17{filter:url(#Adobe_OpacityMaskFilter);}
	.st18{filter:url(#Adobe_OpacityMaskFilter_1_);}
	.st19{fill:url(#SVGID_7_);}
	.st20{fill:url(#SVGID_8_);}
	.st21{fill:url(#SVGID_9_);}
	.st22{filter:url(#Adobe_OpacityMaskFilter_2_);}
	.st23{fill:url(#SVGID_11_);}
	.st24{fill:url(#SVGID_12_);}
	.st25{fill:url(#SVGID_13_);}
	.st26{filter:url(#Adobe_OpacityMaskFilter_3_);}
	.st27{clip-path:url(#SVGID_16_);fill:#FFFFFF;}
	.st28{clip-path:url(#SVGID_16_);fill:#1B6C98;}
	.st29{clip-path:url(#SVGID_16_);fill:#155F86;}
	.st30{fill:#176086;}
	.st31{clip-path:url(#SVGID_18_);fill:url(#SVGID_19_);}
	.st32{clip-path:url(#SVGID_18_);fill:url(#SVGID_20_);}
	.st33{clip-path:url(#SVGID_18_);fill:url(#SVGID_21_);}
	.st34{clip-path:url(#SVGID_18_);fill:url(#SVGID_22_);}
	.st35{fill:#EFEEEE;}
	.st36{clip-path:url(#SVGID_24_);fill:url(#SVGID_25_);}
	.st37{clip-path:url(#SVGID_24_);fill:url(#SVGID_26_);}
	.st38{clip-path:url(#SVGID_24_);fill:url(#SVGID_27_);}
	.st39{clip-path:url(#SVGID_24_);fill:url(#SVGID_28_);}
	.st40{fill:#0B5F87;}
	.st41{fill:#ECECEC;}
	.st42{fill:#106086;}
	.st43{fill-rule:evenodd;clip-rule:evenodd;fill:#FFFFFF;}
	.st44{fill:#FFFFFF;stroke:#FFFFFF;stroke-miterlimit:10;}
	.st45{fill:none;stroke:#155F86;stroke-width:5;stroke-miterlimit:10;}
	.st46{fill:none;stroke:#155F86;stroke-width:2;stroke-miterlimit:10;}
</style>
<g>
	<path class="st0" d="M71.6,102.5c0,20.5,16.7,37.2,37.2,37.2c20.5,0,37.2-16.7,37.2-37.2c0-20.5-16.7-37.2-37.2-37.2
		C88.3,65.3,71.6,82,71.6,102.5z M134.7,100.2c1.2,14.3-9.3,26.9-23.6,28.1c-14.3,1.3-26.9-9.3-28.1-23.6
		c-1.2-14.3,9.3-26.9,23.6-28.1C120.8,75.4,133.4,85.9,134.7,100.2z"/>
	<path class="st0" d="M159.7,123l6.1-0.2c1.4-0.1,2.9-1.2,3.3-2.6l2-9.7c0.2-1.4-0.7-3.1-2-3.7l-5.5-2.7c-1.3-0.6-2.4-2.3-2.4-3.7
		c0,0,0-0.7-0.2-2.4c0-0.6,0-0.6,0-0.6c-0.1-0.6,0.8-1.8,2.1-2.5l5.2-3.3c1.2-0.8,1.9-2.5,1.5-3.9l-3.1-9.4
		c-0.5-1.3-2.1-2.3-3.6-2.2l-6.2,0.4c-1.4,0.1-3.1-0.7-3.8-1.7c-0.6-1.1-2-4.8-1.3-6l2.9-5.4c0.7-1.3,0.4-3.1-0.6-4.1l-7.4-6.6
		c-1.1-0.9-3-1-4.2-0.2l-5.1,3.5c-1.2,0.8-3,1-4.1,0.4c-1.1-0.6-4.1-3.1-4.1-4.6l-0.2-6.1c-0.1-1.4-1.2-2.9-2.6-3.3l-9.7-2
		c-1.4-0.2-3.1,0.7-3.7,2l-2.7,5.5c-0.6,1.3-2.3,2.4-3.7,2.4c0,0-0.7,0-2.4,0.2c-0.6,0.1-0.6,0.1-0.6,0.1c-0.6,0.1-1.8-0.8-2.5-2.1
		l-3.3-5.2c-0.8-1.2-2.5-1.9-3.9-1.5l-9.4,3.1c-1.3,0.5-2.3,2.1-2.2,3.6l0.4,6.2c0.1,1.4-0.7,3.1-1.7,3.8c-1.1,0.6-4.7,2-6,1.3
		l-5.4-2.9c-1.3-0.7-3.1-0.4-4.1,0.6l-6.6,7.4c-0.9,1.1-1,3-0.2,4.2l3.5,5.1c0.8,1.2,1,3,0.4,4.1c-0.6,1.1-3.1,4.1-4.6,4.1l-6.1,0.2
		c-1.4,0.1-2.9,1.2-3.3,2.6l-2,9.7c-0.2,1.4,0.7,3.1,2,3.7l5.5,2.7c1.3,0.6,2.4,2.3,2.4,3.7c0,0,0,0.7,0.2,2.4
		c0.1,0.6,0.1,0.6,0.1,0.6c0.1,0.6-0.8,1.8-2.1,2.5l-5.2,3.3c-1.2,0.8-1.9,2.5-1.5,3.9l3.1,9.4c0.5,1.3,2.1,2.3,3.6,2.2l6.2-0.4
		c1.4-0.1,3.1,0.7,3.8,1.7c0.6,1.1,2,4.8,1.3,6l-2.9,5.4c-0.7,1.3-0.4,3.1,0.6,4.1l7.4,6.6c1.1,0.9,3,1,4.2,0.2l5.1-3.5
		c1.2-0.8,3-1,4.1-0.4c1.1,0.6,4.1,3.1,4.1,4.6l0.2,6.1c0.1,1.4,1.2,2.9,2.6,3.3l9.7,2c1.4,0.2,3.1-0.7,3.7-2l2.7-5.5
		c0.6-1.3,2.3-2.4,3.7-2.4c0,0,0.7,0,2.4-0.1c0.6,0,0.6,0,0.6,0c0.6-0.1,1.8,0.8,2.5,2.1l3.3,5.2c0.8,1.2,2.5,1.9,3.9,1.5l9.4-3.1
		c1.3-0.5,2.3-2.1,2.2-3.6l-0.4-6.2c-0.1-1.4,0.7-3.1,1.7-3.8c1.1-0.6,4.8-2,6-1.3l5.4,2.9c1.3,0.7,3.1,0.4,4.1-0.6l6.6-7.4
		c0.9-1.1,1-3,0.2-4.2l-3.5-5.1c-0.8-1.2-1-3-0.4-4.1C155.8,126.1,158.3,123.1,159.7,123z M108.8,144.8c-23.3,0-42.3-19-42.3-42.3
		c0-23.3,19-42.3,42.3-42.3c23.3,0,42.3,19,42.3,42.3C151.1,125.8,132.1,144.8,108.8,144.8z"/>
</g>
</svg>
