<?xml version="1.0" encoding="utf-8"?>
<!-- Generator: Adobe Illustrator 23.0.0, SVG Export Plug-In . SVG Version: 6.00 Build 0)  -->
<svg version="1.1" id="Capa_1" xmlns="http://www.w3.org/2000/svg" xmlns:xlink="http://www.w3.org/1999/xlink" x="0px" y="0px"
	 viewBox="0 0 198.4 198.4" style="enable-background:new 0 0 198.4 198.4;" xml:space="preserve">
<style type="text/css">
	.st0{fill:#155F86;}
	.st1{fill:#D4D4D5;}
	.st2{fill:#0E9FDB;}
	.st3{fill:#FFFFFF;}
	.st4{fill:#065F87;}
	.st5{fill:none;stroke:#FFFFFF;stroke-miterlimit:10;}
	.st6{fill:none;stroke:#155F86;stroke-width:3;stroke-miterlimit:10;}
	.st7{fill:none;stroke:#FFFFFF;stroke-width:2;stroke-miterlimit:10;}
	.st8{fill:none;stroke:#9D9D9C;stroke-width:4;stroke-miterlimit:10;}
	.st9{fill:none;stroke:#000000;stroke-width:4;stroke-miterlimit:10;}
	.st10{fill:#9D9D9C;}
	.st11{fill:url(#SVGID_1_);}
	.st12{fill:url(#SVGID_2_);}
	.st13{fill:url(#SVGID_3_);}
	.st14{fill:#010202;}
	.st15{fill:url(#SVGID_4_);}
	.st16{opacity:0.2;fill:#FFFFFF;}
	.st17{filter:url(#Adobe_OpacityMaskFilter);}
	.st18{filter:url(#Adobe_OpacityMaskFilter_1_);}
	.st19{fill:url(#SVGID_7_);}
	.st20{fill:url(#SVGID_8_);}
	.st21{fill:url(#SVGID_9_);}
	.st22{filter:url(#Adobe_OpacityMaskFilter_2_);}
	.st23{fill:url(#SVGID_11_);}
	.st24{fill:url(#SVGID_12_);}
	.st25{fill:url(#SVGID_13_);}
	.st26{filter:url(#Adobe_OpacityMaskFilter_3_);}
	.st27{clip-path:url(#SVGID_16_);fill:#FFFFFF;}
	.st28{clip-path:url(#SVGID_16_);fill:#1B6C98;}
	.st29{clip-path:url(#SVGID_16_);fill:#155F86;}
	.st30{fill:#176086;}
	.st31{clip-path:url(#SVGID_18_);fill:url(#SVGID_19_);}
	.st32{clip-path:url(#SVGID_18_);fill:url(#SVGID_20_);}
	.st33{clip-path:url(#SVGID_18_);fill:url(#SVGID_21_);}
	.st34{clip-path:url(#SVGID_18_);fill:url(#SVGID_22_);}
	.st35{fill:#EFEEEE;}
	.st36{clip-path:url(#SVGID_24_);fill:url(#SVGID_25_);}
	.st37{clip-path:url(#SVGID_24_);fill:url(#SVGID_26_);}
	.st38{clip-path:url(#SVGID_24_);fill:url(#SVGID_27_);}
	.st39{clip-path:url(#SVGID_24_);fill:url(#SVGID_28_);}
	.st40{fill:#0B5F87;}
	.st41{fill:#ECECEC;}
	.st42{fill:#106086;}
	.st43{fill-rule:evenodd;clip-rule:evenodd;fill:#FFFFFF;}
	.st44{fill:#FFFFFF;stroke:#FFFFFF;stroke-miterlimit:10;}
	.st45{fill:none;stroke:#155F86;stroke-width:5;stroke-miterlimit:10;}
	.st46{fill:none;stroke:#155F86;stroke-width:2;stroke-miterlimit:10;}
</style>
<g>
	<path class="st0" d="M102.5,159c10.1,0,19.5-2.5,27.9-6.9c-1.5-2.7-2.3-5.8-2.3-9.1c0-1.9,0.3-3.8,0.8-5.5
		c-7.3,5-16.1,7.9-25.6,7.9c-25.3,0-45.8-20.5-45.8-45.8s20.5-45.8,45.8-45.8c25.3,0,45.8,20.5,45.8,45.8c0,9-2.6,17.4-7.1,24.5
		c1.8-0.6,3.8-0.9,5.8-0.9c3.1,0,6,0.7,8.7,2c3.7-7.8,5.8-16.4,5.8-25.6c0-32.8-26.7-59.6-59.6-59.6S43,66.6,43,99.5
		C43,132.3,69.7,159,102.5,159z"/>
	<path class="st0" d="M109.6,92.9V83c1.2,0.6,2.4,1.4,3.6,2.4c0.7,0.6,1.5,0.9,2.5,0.9c0.8,0,1.8-0.5,1.8-0.5l0,0l5.9-3.7
		c0.8-0.5,1.2-1.2,1.2-1.9c0-0.6-0.2-1.2-0.8-1.7c-3.7-4.2-8.4-6.8-14.2-7.8v-5.6c0-1.6-1.3-2.9-2.9-2.9h-5.2
		c-1.6,0-2.9,1.3-2.9,2.9v5.4c-2.7,0.4-5.2,1.1-7.3,2.1c-7.1,3.2-10.5,8-10.4,14.4c0.1,3.1,1,5.9,2.8,8.3c3.1,4.1,8,6.7,14.9,7.7
		v12.3c-3-1.1-5.8-3-8.4-5.9c-0.6-0.8-1.4-1.1-2.3-1.1c-0.5,0-1.6,0.5-1.6,0.5l0,0L81,112c-0.9,0.5-1.4,1.2-1.3,2.1
		c0,0.6,0.2,1.1,0.6,1.5c1.4,1.9,3.3,3.8,5.6,5.6c3.8,2.9,8,4.7,12.8,5.5v4.9c0,1.6,1.3,2.9,2.9,2.9h5.2c1.6,0,2.9-1.3,2.9-2.9v-4.9
		c4.2-0.6,7.8-1.9,11-4c4.9-3.2,7.4-7.7,7.5-13.4c0.1-3.5-0.9-6.6-3-9C121.8,96.4,116.6,93.9,109.6,92.9z M98.7,91.5
		c-2.3-0.9-3.4-2.4-3.5-4.5c0-1.8,1-3.1,3.1-4.1l0.4-0.2V91.5z M110.8,114.6c-0.4,0.2-0.8,0.4-1.1,0.6v-10.8c2.8,0.9,4.3,2.5,4.2,5
		C113.9,111.6,112.8,113.4,110.8,114.6z"/>
	<path class="st3" d="M95.2,87.1c0,2.1,1.2,3.6,3.5,4.5v-8.7l-0.4,0.2C96.2,83.9,95.2,85.3,95.2,87.1z"/>
	<path class="st3" d="M109.6,104.4v10.8c0.4-0.2,0.8-0.4,1.1-0.6c2-1.2,3.1-3,3.1-5.2C113.9,107,112.5,105.3,109.6,104.4z"/>
	<path class="st0" d="M141.8,124c-6.3,2-11.2,7.1-13,13.4c-0.5,1.8-0.8,3.6-0.8,5.5c0,3.3,0.9,6.4,2.3,9.1
		c3.4,6.3,10,10.5,17.5,10.5c10.9-0.1,19.7-9,19.6-19.9c-0.1-7.8-4.6-14.5-11.2-17.6c-2.6-1.3-5.6-2-8.7-2
		C145.6,123.1,143.6,123.4,141.8,124z M133.1,142.9c-0.1-8.1,6.5-14.7,14.6-14.8c8.1-0.1,14.7,6.5,14.8,14.6
		c0.1,8.1-6.5,14.7-14.6,14.8C139.8,157.6,133.1,151,133.1,142.9z"/>
	<polygon class="st0" points="150.9,132.4 144.6,132.4 144.6,139.7 137.4,139.7 137.4,145.9 144.6,145.9 144.6,153.2 150.9,153.2 
		150.9,145.9 158.1,145.9 158.1,139.7 150.9,139.7 	"/>
</g>
</svg>
