<?xml version="1.0" encoding="utf-8"?>
<!-- Generator: Adobe Illustrator 23.0.0, SVG Export Plug-In . SVG Version: 6.00 Build 0)  -->
<svg version="1.1" id="Capa_1" xmlns="http://www.w3.org/2000/svg" xmlns:xlink="http://www.w3.org/1999/xlink" x="0px" y="0px"
	 viewBox="0 0 348 170.1" style="enable-background:new 0 0 348 170.1;" xml:space="preserve">
<style type="text/css">
	.st0{fill:#FFFFFF;}
	.st1{fill:#176086;}
	.st2{fill:#145F85;}
</style>
<rect x="225.8" y="35.2" class="st0" width="102.1" height="95.5"/>
<rect x="49.4" y="37.1" class="st0" width="97.9" height="57.4"/>
<rect x="20.2" y="79.4" class="st0" width="31.5" height="55.5"/>
<path class="st1" d="M163.1,69.3c-0.2,0.5-0.4,1.1-0.4,1.8v5.8c0,2.4,1.9,4.3,4.3,4.3h21.1l-2.1,2.1l-0.9,0.9
	c-1.7,1.7-1.7,4.4,0,6.1l3.7,3.7c1.7,1.7,4.4,1.7,6.1,0l0,0l6.7-6.7l0.5-0.5c1.1-1.1,2.5-2.5,3.9-3.9c0,0,0,0,0.1-0.1
	c0.8-0.8,1.5-1.5,2.1-2.1l1.5-1.5l2.1-2.1c1.7-1.7,1.7-4.4,0-6.1l-3.7-3.7c-1.7-1.7-4.4-4.4-6.1-6.1l-7.2-7.2
	c-1.7-1.7-4.4-1.7-6.1,0l-3.7,3.7l0,0c-1.7,1.7-1.7,4.4,0,6.1l3,3h-4.3H167C165.3,66.7,163.8,67.8,163.1,69.3z"/>
<g>
	<path class="st1" d="M230.8,27.9c-2.1,0-4.2,0.9-5.7,2.4s-2.4,3.6-2.4,5.7v92.5c0,2.1,0.9,4.2,2.4,5.7s3.6,2.4,5.7,2.4h92.5
		c2.1,0,4.2-0.9,5.7-2.4s2.4-3.6,2.4-5.7V36c0-2.1-0.9-4.2-2.4-5.7s-3.6-2.4-5.7-2.4H230.8z M252.1,38.8c3,0,5.5,2.4,5.5,5.5
		c0,3-2.4,5.5-5.5,5.5c-3,0-5.5-2.4-5.5-5.5C246.7,41.3,249.1,38.8,252.1,38.8z M235.5,38.8c3,0,5.5,2.4,5.5,5.5
		c0,3-2.4,5.5-5.5,5.5c-3,0-5.5-2.4-5.5-5.5C230,41.3,232.5,38.8,235.5,38.8z M324.2,125.5H230v-68h94.2V125.5z"/>
	<path class="st1" d="M238.5,80.5h-7.2l5.1,21.7h0.9h5.7l1.9-8.7l1.7,8.7h6.6l5.6-21.7h-7l-1.7,8.6l-1.6-8.6h-6.6l-1.8,8.9
		c0,0.1,0,0.2-0.1,0.4c0-0.1,0-0.2-0.1-0.3l0,0L238.5,80.5z"/>
	<path class="st1" d="M267.9,80.5h-7.2l5.1,21.7h0.9h5.7l1.9-8.7l1.7,8.7h6.6l5.6-21.7h-7l-1.7,8.6l-1.6-8.6h-6.6l-1.8,8.9
		c0,0.1,0,0.2-0.1,0.4c0-0.1,0-0.2-0.1-0.3l0,0L267.9,80.5z"/>
	<path class="st1" d="M297.2,80.5H290l5.1,21.7h0.9h5.7l1.9-8.7l1.7,8.7h6.6l5.6-21.7h-7l-1.7,8.6l-1.6-8.6h-6.6l-1.8,8.9
		c0,0.1,0,0.2-0.1,0.4c0-0.1,0-0.2-0.1-0.3l0,0L297.2,80.5z"/>
	<path class="st1" d="M316,95.9c-0.7,0.7-1.1,1.7-1.1,2.7s0.4,2,1,2.7c0.7,0.7,1.7,1.1,2.7,1.1c1.1,0,2-0.4,2.7-1.1s1-1.7,1-2.7
		s-0.3-2-1-2.7s-1.7-1.1-2.7-1.1S316.7,95.2,316,95.9z"/>
</g>
<g>
	<path class="st2" d="M51.5,98.6h96.6c1.6,0,2.9-1.3,2.9-2.9V36.2c0-1.6-1.3-2.9-2.9-2.9H51.5c-1.6,0-2.9,1.3-2.9,2.9v59.5
		C48.7,97.3,49.9,98.6,51.5,98.6z M55.2,39.6h89v52.5h-89C55.2,92.1,55.2,39.6,55.2,39.6z"/>
	<path class="st2" d="M151.8,100.6c-0.5-0.5-1.2-0.7-1.8-0.7H49.7c-0.7,0-1.3,0.3-1.8,0.7l-10.1,9.5c-2.1,2-0.9,5.9,1.8,5.9h120.5
		c2.7,0,3.9-3.9,1.8-5.9L151.8,100.6z"/>
	<rect x="59.1" y="44.1" class="st2" width="80.7" height="24.6"/>
	<rect x="59.1" y="70.9" class="st2" width="19.3" height="2.4"/>
	<rect x="59.1" y="75.4" class="st2" width="39.7" height="12.1"/>
	<rect x="79.6" y="70.9" class="st2" width="19.3" height="2.4"/>
	<rect x="100.1" y="70.9" class="st2" width="19.3" height="2.4"/>
	<rect x="100.1" y="75.3" class="st2" width="39.7" height="1.8"/>
	<rect x="100.1" y="78.4" class="st2" width="39.7" height="1.8"/>
	<rect x="100.1" y="81.5" class="st2" width="39.7" height="1.8"/>
	<rect x="100.1" y="84.6" class="st2" width="20.7" height="1.8"/>
	<rect x="120.6" y="70.9" class="st2" width="19.3" height="2.4"/>
</g>
<path class="st0" d="M40.4,135.9H31c-6.6,0-12-5.4-12-12v-35c0-6.6,5.4-12,12-12h9.3c6.6,0,12,5.4,12,12v34.9
	C52.4,130.5,47,135.9,40.4,135.9z"/>
<g>
	<path class="st2" d="M20.7,137.1h32c2.1,0,3.7-1.7,3.7-3.7V78.7c0-2.1-1.7-3.7-3.7-3.7h-32c-2.1,0-3.7,1.7-3.7,3.7v54.7
		C17,135.5,18.7,137.1,20.7,137.1z M36.7,133.5c-1.3,0-2.3-1-2.3-2.3s1-2.3,2.3-2.3s2.3,1,2.3,2.3S38,133.5,36.7,133.5z M22.8,80.2
		h27.8v46.1H22.8V80.2z"/>
	<rect x="25.5" y="83.1" class="st2" width="22.5" height="16.6"/>
	<rect x="25.5" y="101.1" class="st2" width="5.4" height="2.1"/>
	<rect x="25.5" y="105" class="st2" width="10.4" height="9.8"/>
	<rect x="31.2" y="101.1" class="st2" width="5.4" height="2.1"/>
	<rect x="36.9" y="101.1" class="st2" width="5.4" height="2.1"/>
	<rect x="37.3" y="105.2" class="st2" width="10.8" height="1.4"/>
	<rect x="37.3" y="107.6" class="st2" width="10.8" height="1.4"/>
	<rect x="37.3" y="110.1" class="st2" width="10.8" height="1.4"/>
	<rect x="37.3" y="112.5" class="st2" width="5.6" height="1.4"/>
	<rect x="37.3" y="115.9" class="st2" width="10.8" height="1.4"/>
	<rect x="37.3" y="118.4" class="st2" width="10.8" height="1.4"/>
	<rect x="42.6" y="101.1" class="st2" width="5.4" height="2.1"/>
</g>
</svg>
