<?xml version="1.0" encoding="utf-8"?>
<!-- Generator: Adobe Illustrator 23.0.0, SVG Export Plug-In . SVG Version: 6.00 Build 0)  -->
<svg version="1.1" id="Capa_1" xmlns="http://www.w3.org/2000/svg" xmlns:xlink="http://www.w3.org/1999/xlink" x="0px" y="0px"
	 viewBox="0 0 348 170.1" style="enable-background:new 0 0 348 170.1;" xml:space="preserve">
<style type="text/css">
	.st0{fill:#FFFFFF;}
	.st1{fill:#176086;}
	.st2{fill:#145F85;}
</style>
<path class="st0" d="M107.2,122.4H46.8c-4.6,0-8.3-3.7-8.3-8.3V80.2c0-4.6,3.7-8.3,8.3-8.3h60.4c4.6,0,8.3,3.7,8.3,8.3v33.9
	C115.5,118.7,111.8,122.4,107.2,122.4z"/>
<path class="st1" d="M139.1,81.7c-0.2,0.4-0.3,0.9-0.3,1.5V88c0,2,1.6,3.6,3.6,3.6h17.4l-1.8,1.8l-0.7,0.7c-1.4,1.4-1.4,3.6,0,5l3,3
	c1.4,1.4,3.6,1.4,5,0l0,0l5.5-5.6l0.4-0.4c0.9-0.9,2.1-2.1,3.2-3.2l0,0c0.6-0.6,1.3-1.3,1.8-1.8l1.3-1.3l1.8-1.8
	c1.4-1.4,1.4-3.6,0-5l-3-3c-1.4-1.4-3.6-3.6-5-5l-6-6c-1.4-1.4-3.6-1.4-5,0l-3,3l0,0c-1.4,1.4-1.4,3.6,0,5l2.5,2.5h-3.6h-13.9
	C140.9,79.6,139.6,80.4,139.1,81.7z"/>
<g>
	<path class="st2" d="M47.3,122.8h59.8c3.9,0,7.2-2.7,8.1-6.3h-76C40.1,120.1,43.4,122.8,47.3,122.8z"/>
	<g>
		<path class="st2" d="M104.9,55.8c0-19.9-21.1-35-42.1-23.9c-8.2,4.3-13.2,12.9-13.2,22.2v12h-5.4c-2.9,0-5.3,2.4-5.3,5.3v41.8
			h76.7V71.3c0-2.9-2.4-5.3-5.3-5.3h-5.4h-0.2V55.8H104.9z M80.8,101.6h-7V95c-3-1.9-4.5-6-1.8-10.1c0.3-0.4,0.6-0.7,1-1
			c5.3-3.6,11,0.2,11,5.3c0,2.4-1.3,4.5-3.2,5.7V101.6z M92.7,66h-31V54.1c0-4.4,2.2-8.5,5.9-10.8c11.6-7.4,23.8,0,25,10.7L92.7,66
			L92.7,66z"/>
	</g>
</g>
<rect x="195" y="51.6" class="st0" width="118" height="35"/>
<path class="st1" d="M313.7,49.6c0-3.2-2.6-5.8-5.8-5.8H201.3c-3.2,0-5.8,2.6-5.8,5.8v65.7c0,3.2,2.6,5.8,5.8,5.8h55.8h28.3h22
	c3.5,0,6.4-2.8,6.4-6.4v-29v-0.1l0,0L313.7,49.6L313.7,49.6z M197.3,74.6V54.9H312v19.7H197.3z"/>
</svg>
