<?xml version="1.0" encoding="utf-8"?>
<!-- Generator: Adobe Illustrator 23.0.0, SVG Export Plug-In . SVG Version: 6.00 Build 0)  -->
<svg version="1.1" id="Capa_1" xmlns="http://www.w3.org/2000/svg" xmlns:xlink="http://www.w3.org/1999/xlink" x="0px" y="0px"
	 viewBox="0 0 348 170.1" style="enable-background:new 0 0 348 170.1;" xml:space="preserve">
<style type="text/css">
	.st0{fill:#FFFFFF;}
	.st1{fill:#176086;}
	.st2{fill:none;stroke:#176086;stroke-width:12;stroke-miterlimit:10;}
</style>
<rect x="209.8" y="50.7" class="st0" width="114.8" height="45.6"/>
<ellipse class="st0" cx="82.1" cy="87" rx="55.3" ry="54.1"/>
<path class="st1" d="M152.1,81.7c-0.2,0.4-0.3,0.9-0.3,1.5V88c0,2,1.6,3.6,3.6,3.6h17.4l-1.8,1.8l-0.7,0.7c-1.4,1.4-1.4,3.6,0,5l3,3
	c1.4,1.4,3.6,1.4,5,0l0,0l5.5-5.6l0.4-0.4c0.9-0.9,2.1-2.1,3.2-3.2l0,0c0.6-0.6,1.3-1.3,1.8-1.8l1.3-1.3l1.8-1.8
	c1.4-1.4,1.4-3.6,0-5l-3-3c-1.4-1.4-3.6-3.6-5-5l-6-6c-1.4-1.4-3.6-1.4-5,0l-3,3l0,0c-1.4,1.4-1.4,3.6,0,5l2.5,2.5h-3.6h-13.9
	C153.9,79.6,152.6,80.4,152.1,81.7z"/>
<path class="st1" d="M326.7,49.6c0-3.2-2.6-5.8-5.8-5.8H214.3c-3.2,0-5.8,2.6-5.8,5.8v65.7c0,3.2,2.6,5.8,5.8,5.8h55.8h28.3h22
	c3.5,0,6.4-2.8,6.4-6.4v-29v-0.1l0,0L326.7,49.6L326.7,49.6z M210.3,74.6V54.9H325v19.7H210.3z"/>
<path class="st1" d="M107.2,50.8H57.4c-1.9,0-3.6,1.1-4.3,2.8c-0.3,0.6-0.4,1.3-0.4,1.9v61.6c0,2.6,2.1,4.7,4.7,4.7h49.7
	c0.7,0,1.4-0.2,1.9-0.4c1.6-0.7,2.8-2.4,2.8-4.3V55.6C111.9,53,109.8,50.8,107.2,50.8z M101.6,112.4H63.1c-1.3,0-2.4-1.1-2.4-2.4
	s1.1-2.4,2.4-2.4h38.5c1.3,0,2.4,1.1,2.4,2.4C103.9,111.4,102.9,112.4,101.6,112.4z M101.6,100.6H63.1c-1.3,0-2.4-1.1-2.4-2.4
	s1.1-2.4,2.4-2.4h38.5c1.3,0,2.4,1.1,2.4,2.4C103.9,99.5,102.9,100.6,101.6,100.6z M101.6,88.7H63.1c-1.3,0-2.4-1.1-2.4-2.4
	s1.1-2.4,2.4-2.4h38.5c1.3,0,2.4,1.1,2.4,2.4C103.9,87.7,102.9,88.7,101.6,88.7z M101.6,76.9H63.1c-1.3,0-2.4-1.1-2.4-2.4
	s1.1-2.4,2.4-2.4h38.5c1.3,0,2.4,1.1,2.4,2.4C103.9,75.8,102.9,76.9,101.6,76.9z M101.6,65H63.1c-1.3,0-2.4-1.1-2.4-2.4
	c0-1.3,1.1-2.4,2.4-2.4h38.5c1.3,0,2.4,1.1,2.4,2.4C103.9,64,102.9,65,101.6,65z"/>
<circle class="st2" cx="82.3" cy="86.4" r="56.1"/>
<line class="st2" x1="29" y1="112.8" x2="131.7" y2="57.7"/>
</svg>
