<?xml version="1.0" encoding="utf-8"?>
<!-- Generator: Adobe Illustrator 23.0.0, SVG Export Plug-In . SVG Version: 6.00 Build 0)  -->
<svg version="1.1" id="Capa_1" xmlns="http://www.w3.org/2000/svg" xmlns:xlink="http://www.w3.org/1999/xlink" x="0px" y="0px"
	 viewBox="0 0 348 170.1" style="enable-background:new 0 0 348 170.1;" xml:space="preserve">
<style type="text/css">
	.st0{fill:#FFFFFF;}
	.st1{fill:#176086;}
	.st2{fill:#116188;}
</style>
<rect x="30.1" y="28.7" class="st0" width="79.1" height="98.8"/>
<rect x="247.9" y="50.9" class="st0" width="48" height="76.2"/>
<path class="st1" d="M143,80.1c-0.3,0.6-0.5,1.3-0.5,2.1v6.9c0,2.8,2.3,5.1,5.1,5.1h25l-2.6,2.6l-1.1,1.1c-2,2-2,5.2,0,7.2l4.4,4.4
	c2,2,5.2,2,7.2,0l0,0l8-8l0.6-0.6c1.2-1.2,3-3,4.6-4.6c0,0,0,0,0.1-0.1c0.9-0.9,1.8-1.8,2.5-2.5l1.8-1.8l2.5-2.5c2-2,2-5.2,0-7.2
	l-4.4-4.4c-2-2-5.2-5.2-7.2-7.2l-8.6-8.6c-2-2-5.2-2-7.2,0l-4.4,4.4l0,0c-2,2-2,5.2,0,7.2l3.6,3.6h-5.1h-19.9
	C145.6,77.1,143.8,78.3,143,80.1z"/>
<g>
	<path class="st2" d="M284.9,113.4c-0.9,0-1.5,0.3-1.9,0.9s-0.6,1.7-0.6,3.4s0.2,2.8,0.6,3.4s1,0.9,1.9,0.9s1.5-0.3,1.9-0.9
		s0.6-1.7,0.6-3.4c0-1.7-0.2-2.8-0.6-3.4S285.8,113.4,284.9,113.4z"/>
	<path class="st2" d="M333.7,75.4c0.6-0.5,0.7-0.9,0.7-0.9s-0.3-0.3-1-0.6l-10.9-3.6c-2.1-0.7-3.8-2.2-4.7-4.2c-0.9-2-1-4.2-0.2-6.3
		l4.2-10.7c0.3-0.7,0.2-1.1,0.2-1.2c0,0-0.5-0.2-1.1-0.1l-11.3,1.8c-4.6,0.8-8.7-2.5-9.2-7L299,31.2c-0.1-0.8-0.3-1.1-0.4-1.1
		s-0.4,0-1.1,0.5l-9.2,6.9c-1.4,1.1-3.1,1.6-4.8,1.6c-2.6,0-5.1-1.3-6.6-3.5l-6.4-9.5c-0.4-0.6-0.8-0.8-0.9-0.8c0,0-0.3,0.2-0.6,0.9
		l-4.9,10.4c-1.3,2.8-4.1,4.6-7.2,4.6c-1.3,0-2.6-0.3-3.8-1L243,34.7c-0.6-0.3-0.9-0.3-1-0.3s-0.3,0.4-0.3,1.2l0.5,11.5
		c0.1,2.2-0.7,4.3-2.2,5.9c-1.5,1.6-3.6,2.4-5.8,2.4l-11.6-0.1c-0.8,0-1.1,0.2-1.1,0.2c0,0.1,0,0.4,0.4,1.1l5.7,9.9
		c1.1,1.9,1.4,4.2,0.8,6.3c-0.6,2.1-2.1,3.8-4.1,4.8l-10.2,5.2c-0.7,0.3-0.9,0.7-0.9,0.7c0,0.1,0.2,0.4,0.8,0.8l9.7,6.1
		c1.9,1.2,3.2,3,3.6,5.2c0.4,2.2,0,4.3-1.3,6.2l-6.6,9.4c-0.4,0.6-0.5,1-0.5,1.1c0,0,0.3,0.3,1.1,0.3l11.4,0.9
		c2.2,0.2,4.2,1.2,5.6,2.9c1.4,1.7,2,3.9,1.7,6.1l-1.5,11.4c-0.1,0.8,0,1.1,0.1,1.2h0.2c0.1,0,0.5,0,1-0.2l10.6-4.5
		c1-0.4,2.1-0.7,3.2-0.7c3.4,0,6.3,2.1,7.5,5.3l3.9,10.8c0.3,0.7,0.5,0.9,0.6,1c0.1,0,0.4-0.1,0.9-0.7l7.3-8.9c1.5-1.9,3.8-3,6.2-3
		c2,0,3.9,0.7,5.4,2.1l8.5,7.7c0.5,0.5,0.9,0.6,1,0.6s0.3-0.3,0.5-1.1l2.3-11.2c0.8-3.8,4-6.4,7.8-6.4c0.7,0,1.4,0.1,2,0.3l11.1,2.9
		c0.6,0.2,1.1,0.1,1.2,0c0,0,0.1-0.4-0.1-1.1l-3.2-11c-0.6-2.1-0.3-4.4,0.8-6.3c1.1-1.9,2.9-3.2,5.1-3.7l11.2-2.6
		c0.8-0.2,1-0.4,1.1-0.5c0-0.1-0.1-0.4-0.6-1l-7.9-8.3c-1.5-1.6-2.3-3.7-2.2-5.9c0.1-2.2,1.1-4.2,2.8-5.7L333.7,75.4z M260.5,83.5h1
		c1.4,0.8,3,1.6,4.6,2.1c1.7,0.6,3.3,0.8,4.9,0.8c1,0,2.1-0.1,3.2-0.3c1.2-0.2,2.1-0.6,2.7-1.2c0.5-0.5,0.9-1,1.2-1.5
		c0.3-0.5,0.4-1.3,0.4-2.3c0-0.8-0.2-1.5-0.6-2.1s-0.8-1.1-1.4-1.4c-0.8-0.5-1.9-0.9-3.1-1c-1.2-0.2-2.3-0.2-3.3-0.2
		c-1.4,0-2.8,0.1-4.1,0.4c-1.3,0.2-2.4,0.5-3.4,0.7h-1V57.6h25v6.7h-16.5V70c0.5,0,1.1-0.1,1.9-0.1c0.7,0,1.4,0,2,0
		c1.9,0,3.7,0.2,5.2,0.6c1.5,0.4,2.8,0.9,3.9,1.5c1.4,0.9,2.5,2,3.3,3.4s1.2,3.2,1.2,5.4c0,1.8-0.3,3.5-1,5.1c-0.7,1.6-1.7,2.9-3,4
		c-1.4,1.2-3.1,2.1-5,2.7s-4,0.9-6.4,0.9c-2.8,0-5.2-0.2-7.1-0.7c-1.9-0.4-3.5-0.9-4.8-1.4v-7.9H260.5z M262.7,116.3
		c-2.4,0-4.2-0.6-5.4-1.9c-1.2-1.3-1.8-3.2-1.8-5.7c0-2.6,0.6-4.5,1.8-5.8s3-1.9,5.3-1.9s4.1,0.6,5.3,1.9c1.2,1.3,1.8,3.2,1.8,5.7
		c0,2.6-0.6,4.5-1.8,5.8S265,116.3,262.7,116.3z M269.8,124.9h-4.2l12.3-23.4h4.2L269.8,124.9z M290.2,123.5c-1.2,1.3-3,1.9-5.3,1.9
		c-2.4,0-4.2-0.6-5.4-1.9s-1.8-3.2-1.8-5.7c0-2.6,0.6-4.5,1.8-5.8s3-1.9,5.3-1.9s4.1,0.6,5.3,1.9s1.8,3.2,1.8,5.7
		C292,120.3,291.4,122.2,290.2,123.5z"/>
	<path class="st2" d="M262.7,104.4c-0.9,0-1.5,0.3-1.9,0.9s-0.6,1.7-0.6,3.4c0,1.7,0.2,2.8,0.6,3.4s1,0.9,1.9,0.9s1.5-0.3,1.9-0.9
		s0.6-1.7,0.6-3.4c0-1.7-0.2-2.8-0.6-3.4C264.2,104.6,263.5,104.4,262.7,104.4z"/>
</g>
<g>
	<path class="st2" d="M96.9,41.6c-0.5,0-1,0.1-1.3,0.4s-0.5,0.8-0.6,1.4h3.6c0-0.6-0.2-1.1-0.4-1.4C97.9,41.8,97.5,41.6,96.9,41.6z"
		/>
	<path class="st2" d="M106.2,26H31.6c-2.9,0-5.3,1.8-6.5,4.4c-0.4,0.9-0.6,2-0.6,3.1v97c0,4.1,3.2,7.5,7.1,7.5h74.6
		c1,0,2-0.2,2.9-0.7c2.5-1.2,4.2-3.8,4.2-6.8v-97C113.3,29.3,110.1,26,106.2,26z M83.4,42.5c0.3-0.6,0.6-1.1,1.1-1.5
		c0.5-0.4,1-0.7,1.6-0.8c0.6-0.2,1.2-0.3,1.9-0.3c0.6,0,1.1,0.1,1.6,0.2c0.5,0.1,1,0.3,1.4,0.5v2.5h-0.4c-0.1-0.1-0.2-0.2-0.4-0.3
		c-0.2-0.1-0.3-0.3-0.6-0.4c-0.2-0.1-0.4-0.2-0.7-0.3C88.7,42,88.4,42,88,42c-0.7,0-1.3,0.2-1.7,0.7c-0.4,0.5-0.6,1.2-0.6,2
		c0,0.9,0.2,1.5,0.6,2c0.4,0.4,1,0.7,1.7,0.7c0.3,0,0.7,0,0.9-0.1c0.3-0.1,0.5-0.2,0.7-0.3c0.2-0.1,0.3-0.2,0.5-0.3
		c0.1-0.1,0.3-0.2,0.4-0.3h0.4v2.5c-0.4,0.2-0.9,0.4-1.4,0.5c-0.5,0.1-1,0.2-1.6,0.2c-0.7,0-1.4-0.1-2.1-0.3
		c-0.6-0.2-1.2-0.5-1.6-0.9c-0.5-0.4-0.8-0.9-1.1-1.5c-0.2-0.6-0.4-1.3-0.4-2.1C83,43.8,83.2,43.1,83.4,42.5z M78.2,36.6h2.9v2.2
		h-2.9V36.6z M81.1,40.1v9h-2.8v-9H81.1z M68.2,41.1c0.8-0.9,2-1.3,3.5-1.3s2.7,0.4,3.5,1.3c0.8,0.9,1.2,2,1.2,3.5s-0.4,2.7-1.2,3.5
		c-0.8,0.9-2,1.3-3.5,1.3s-2.6-0.4-3.5-1.3c-0.8-0.9-1.2-2-1.2-3.5C66.9,43.1,67.3,42,68.2,41.1z M59.2,40.1l2,6.2l2-6.2H66l-3.3,9
		h-3.1l-3.3-9H59.2z M46.2,40.1H49v1c0.5-0.4,1-0.7,1.4-0.9c0.4-0.2,1-0.3,1.5-0.3c0.9,0,1.7,0.3,2.2,0.9c0.5,0.6,0.8,1.4,0.8,2.5
		v5.9h-2.8v-4.5c0-0.4,0-0.7-0.1-1.1c0-0.4-0.1-0.6-0.2-0.8c-0.1-0.2-0.3-0.3-0.4-0.4c-0.2-0.1-0.5-0.1-0.8-0.1
		c-0.2,0-0.5,0-0.8,0.1c-0.3,0.1-0.5,0.2-0.8,0.4v6.4h-2.8C46.2,49.2,46.2,40.1,46.2,40.1z M37.3,47h1.9v-7.7h-1.9v-2.1H44v2.1h-1.9
		V47H44v2.1h-6.7V47z M97.8,123H40c-2,0-3.6-1.7-3.6-3.7c0-2.1,1.6-3.7,3.6-3.7h57.8c2,0,3.6,1.7,3.6,3.7
		C101.3,121.3,99.8,123,97.8,123z M97.8,104.3H40c-2,0-3.6-1.7-3.6-3.7c0-2.1,1.6-3.7,3.6-3.7h57.8c2,0,3.6,1.7,3.6,3.7
		C101.3,102.6,99.8,104.3,97.8,104.3z M97.8,85.6H40c-2,0-3.6-1.7-3.6-3.7c0-2.1,1.6-3.7,3.6-3.7h57.8c2,0,3.6,1.7,3.6,3.7
		C101.3,84,99.8,85.6,97.8,85.6z M97.8,67H40c-2,0-3.6-1.7-3.6-3.7c0-2.1,1.6-3.7,3.6-3.7h57.8c2,0,3.6,1.7,3.6,3.7
		C101.3,65.3,99.8,67,97.8,67z M101.3,45.1H95c0,0.7,0.3,1.2,0.8,1.6c0.5,0.4,1.2,0.6,2.1,0.6c0.6,0,1.1-0.1,1.7-0.3
		c0.5-0.2,1-0.5,1.3-0.7h0.3v2.3c-0.6,0.3-1.2,0.5-1.8,0.6c-0.6,0.1-1.2,0.2-1.8,0.2c-1.7,0-3-0.4-4-1.2c-0.9-0.8-1.4-2-1.4-3.5
		s0.4-2.7,1.3-3.5c0.9-0.9,2.1-1.3,3.6-1.3c1.4,0,2.4,0.4,3.2,1.1c0.7,0.7,1.1,1.8,1.1,3.2L101.3,45.1L101.3,45.1z"/>
	<path class="st2" d="M70.3,46.8c0.2,0.2,0.4,0.4,0.6,0.5c0.2,0.1,0.5,0.1,0.8,0.1c0.2,0,0.5,0,0.7-0.1c0.2-0.1,0.4-0.2,0.6-0.4
		c0.2-0.2,0.3-0.5,0.4-0.8s0.1-0.8,0.1-1.3s0-1-0.1-1.3c-0.1-0.4-0.2-0.6-0.4-0.9c-0.2-0.2-0.4-0.4-0.6-0.5C72.2,42,71.9,42,71.7,42
		c-0.3,0-0.5,0-0.7,0.1c-0.2,0.1-0.4,0.2-0.6,0.4S70.1,43,70,43.4c-0.1,0.4-0.1,0.8-0.1,1.4c0,0.5,0,0.9,0.1,1.3
		C70,46.3,70.1,46.6,70.3,46.8z"/>
</g>
</svg>
