<?xml version="1.0" encoding="utf-8"?>
<!-- Generator: Adobe Illustrator 23.0.0, SVG Export Plug-In . SVG Version: 6.00 Build 0)  -->
<svg version="1.1" id="Capa_1" xmlns="http://www.w3.org/2000/svg" xmlns:xlink="http://www.w3.org/1999/xlink" x="0px" y="0px"
	 viewBox="0 0 348 170.1" style="enable-background:new 0 0 348 170.1;" xml:space="preserve">
<style type="text/css">
	.st0{fill:#FFFFFF;}
	.st1{fill:#176086;}
	.st2{fill-rule:evenodd;clip-rule:evenodd;fill:#145F85;}
</style>
<rect x="196.3" y="49.7" class="st0" width="116.5" height="38.5"/>
<path class="st1" d="M139.1,81.7c-0.2,0.4-0.3,0.9-0.3,1.5V88c0,2,1.6,3.6,3.6,3.6h17.4l-1.8,1.8l-0.7,0.7c-1.4,1.4-1.4,3.6,0,5l3,3
	c1.4,1.4,3.6,1.4,5,0l0,0l5.5-5.6l0.4-0.4c0.9-0.9,2.1-2.1,3.2-3.2l0,0c0.6-0.6,1.3-1.3,1.8-1.8l1.3-1.3l1.8-1.8
	c1.4-1.4,1.4-3.6,0-5l-3-3c-1.4-1.4-3.6-3.6-5-5l-6-6c-1.4-1.4-3.6-1.4-5,0l-3,3l0,0c-1.4,1.4-1.4,3.6,0,5l2.5,2.5h-3.6h-13.9
	C140.9,79.6,139.6,80.4,139.1,81.7z"/>
<path class="st1" d="M313.7,49.6c0-3.2-2.6-5.8-5.8-5.8H201.3c-3.2,0-5.8,2.6-5.8,5.8v65.7c0,3.2,2.6,5.8,5.8,5.8h55.8h28.3h22
	c3.5,0,6.4-2.8,6.4-6.4v-29v-0.1l0,0L313.7,49.6L313.7,49.6z M197.3,74.6V54.9H312v19.7H197.3z"/>
<g>
	<path class="st2" d="M99.3,139.9c-1.7-0.5-3.4-2.5-3.7-4.4c-0.2-1.2,0.1-2.1,1.8-5.5c7.2-13.9,10.3-26.7,10.3-42.2
		c0-15-2.8-26.7-9.6-40.7c-1.5-3-2.7-5.8-2.7-6.2c0-1.5,1.2-3.6,2.6-4.5c1.9-1.2,5-0.9,6.4,0.4c0.6,0.5,2.1,3,3.3,5.4
		c4.9,9.7,8.3,20.2,9.9,31.3c1,6.8,1.2,19.7,0.4,26c-1.5,11.5-4.6,21.8-9.4,31.9c-2.9,6.1-4.8,8.6-6.3,8.6c-0.3,0-0.8,0.1-1.1,0.2
		C100.9,140.2,100.1,140.2,99.3,139.9L99.3,139.9L99.3,139.9z M79.3,129.5c-2.6-0.7-4.4-3.9-3.7-6.3c0.2-0.6,1.4-3.2,2.7-5.9
		c5.6-11.2,7.8-23.2,6.7-35c-0.9-9.7-2.7-15.8-7-24.8c-2.9-6-3.1-6.9-1.4-9.4c1.6-2.3,5.7-2.7,7.8-0.7c1.5,1.4,6.1,10.9,7.8,16.4
		c5.9,18,5,37.3-2.5,54.9C85.9,127.8,83.2,130.6,79.3,129.5L79.3,129.5z M58.7,118.9c-1.6-0.7-3-2.4-3.3-4.1c-0.2-1,0.2-2.2,2-6
		c6.9-14,7-27.5,0.2-41.2c-3-6-3-7.2-0.5-9.6c1.2-1.2,1.8-1.4,3.5-1.4c2.9,0,4.4,1.5,7.1,6.8c4,8.3,5.7,15.4,5.7,24.6
		c0,9.4-1.6,15.9-5.8,24.6c-2.5,5-3.7,6.3-6.1,6.6C60.6,119.4,59.4,119.2,58.7,118.9L58.7,118.9L58.7,118.9z M39.5,109
		c-1.3-0.5-2.7-2.2-3.1-3.7c-0.5-1.7-0.1-3,1.8-6.1c2.4-4,3-6.1,3-11.4c0-5.2-0.6-7.4-3-11.4c-0.8-1.4-1.7-3-1.8-3.6
		c-0.8-2.6,1.4-5.9,4.4-6.4c2.5-0.5,4.2,0.6,6.5,4.2c6.7,10.4,6.7,24.3,0,34.6C44.8,108.8,42.2,110.1,39.5,109L39.5,109L39.5,109z"
		/>
</g>
</svg>
