<?xml version="1.0" encoding="utf-8"?>
<!-- Generator: Adobe Illustrator 23.0.0, SVG Export Plug-In . SVG Version: 6.00 Build 0)  -->
<svg version="1.1" id="Capa_1" xmlns="http://www.w3.org/2000/svg" xmlns:xlink="http://www.w3.org/1999/xlink" x="0px" y="0px"
	 viewBox="0 0 63.5 62.5" style="enable-background:new 0 0 63.5 62.5;" xml:space="preserve">
<style type="text/css">
	.st0{fill:#035F86;}
</style>
<g>
	<path id="Fax_1_" class="st0" d="M54,16.8c-2,0-4,0-6,0c0-1.8,0-3.6,0-5.4c0-1.1-0.9-2-2-2c-9.7,0-19.3,0-29,0c-1.1,0-2,0.9-2,2
		c0,1.8,0,3.6,0,5.4c-2,0-4,0-6,0c-1.1,0-2,0.9-2,2c0,6.5,0,13.1,0,19.6c0,1.1,0.9,2,2,2c2,0,4,0,6,0c0,2.4,0,4.7,0,7.1
		c0,1.2,0,2.3,0,3.5c0,0.7,0.1,1.2,0.7,1.6c0.2,0.2,0.5,0.4,0.8,0.4c0.3,0.1,0.6,0.1,0.9,0.1c4.7,0,9.4,0,14.2,0s9.4,0,14.2,0
		c0.3,0,0.6,0,0.9-0.1c0.3-0.1,0.6-0.2,0.8-0.5c0.5-0.5,0.6-1,0.6-1.6c0-1.2,0-2.3,0-3.5c0-2.4,0-4.7,0-7.1c2,0,4,0,6,0
		c1.1,0,2-0.9,2-2c0-6.5,0-13.1,0-19.6C56,17.7,55.1,16.8,54,16.8z M12,23.8c-1,0-1.7-0.8-1.7-1.7s0.8-1.7,1.7-1.7
		c1,0,1.7,0.8,1.7,1.7S13,23.8,12,23.8z M46,51.1H17V35.3h29V51.1L46,51.1z M46,16.8c-9.7,0-19.3,0-29,0c0-1.1,0-2.3,0-3.4
		s0.9-2,2-2c8.3,0,16.7,0,25,0c1.1,0,2,0.9,2,2S46,15.6,46,16.8z"/>
</g>
</svg>
