<?xml version="1.0" encoding="utf-8"?>
<!-- Generator: Adobe Illustrator 23.0.0, SVG Export Plug-In . SVG Version: 6.00 Build 0)  -->
<svg version="1.1" id="Capa_1" xmlns="http://www.w3.org/2000/svg" xmlns:xlink="http://www.w3.org/1999/xlink" x="0px" y="0px"
	 viewBox="0 0 104.1 95.4" style="enable-background:new 0 0 104.1 95.4;" xml:space="preserve">
<style type="text/css">
	.st0{fill:#155F86;}
	.st1{fill:#D4D4D5;}
	.st2{fill:#0E9FDB;}
	.st3{fill:#FFFFFF;}
	.st4{fill:#065F87;}
	.st5{fill:none;stroke:#FFFFFF;stroke-miterlimit:10;}
	.st6{fill:none;stroke:#155F86;stroke-width:3;stroke-miterlimit:10;}
	.st7{fill:none;stroke:#FFFFFF;stroke-width:2;stroke-miterlimit:10;}
	.st8{fill:none;stroke:#9D9D9C;stroke-width:4;stroke-miterlimit:10;}
	.st9{fill:none;stroke:#000000;stroke-width:4;stroke-miterlimit:10;}
	.st10{fill:#9D9D9C;}
	.st11{fill:url(#SVGID_1_);}
	.st12{fill:url(#SVGID_2_);}
	.st13{fill:url(#SVGID_3_);}
	.st14{fill:#010202;}
	.st15{fill:url(#SVGID_4_);}
	.st16{opacity:0.2;fill:#FFFFFF;}
	.st17{filter:url(#Adobe_OpacityMaskFilter);}
	.st18{filter:url(#Adobe_OpacityMaskFilter_1_);}
	.st19{fill:url(#SVGID_7_);}
	.st20{fill:url(#SVGID_8_);}
	.st21{fill:url(#SVGID_9_);}
	.st22{filter:url(#Adobe_OpacityMaskFilter_2_);}
	.st23{fill:url(#SVGID_11_);}
	.st24{fill:url(#SVGID_12_);}
	.st25{fill:url(#SVGID_13_);}
	.st26{filter:url(#Adobe_OpacityMaskFilter_3_);}
	.st27{clip-path:url(#SVGID_16_);fill:#FFFFFF;}
	.st28{clip-path:url(#SVGID_16_);fill:#1B6C98;}
	.st29{clip-path:url(#SVGID_16_);fill:#155F86;}
	.st30{fill:#176086;}
	.st31{clip-path:url(#SVGID_18_);fill:url(#SVGID_19_);}
	.st32{clip-path:url(#SVGID_18_);fill:url(#SVGID_20_);}
	.st33{clip-path:url(#SVGID_18_);fill:url(#SVGID_21_);}
	.st34{clip-path:url(#SVGID_18_);fill:url(#SVGID_22_);}
	.st35{fill:#EFEEEE;}
	.st36{clip-path:url(#SVGID_24_);fill:url(#SVGID_25_);}
	.st37{clip-path:url(#SVGID_24_);fill:url(#SVGID_26_);}
	.st38{clip-path:url(#SVGID_24_);fill:url(#SVGID_27_);}
	.st39{clip-path:url(#SVGID_24_);fill:url(#SVGID_28_);}
	.st40{fill:#0B5F87;}
	.st41{fill:#ECECEC;}
	.st42{fill:#106086;}
	.st43{fill-rule:evenodd;clip-rule:evenodd;fill:#FFFFFF;}
	.st44{fill:#FFFFFF;stroke:#FFFFFF;stroke-miterlimit:10;}
	.st45{fill:none;stroke:#155F86;stroke-width:5;stroke-miterlimit:10;}
	.st46{fill:none;stroke:#155F86;stroke-width:2;stroke-miterlimit:10;}
	.st47{fill:#D7D7D7;}
	.st48{fill:#5B9DD5;}
	.st49{fill:#195F86;}
	.st50{clip-path:url(#SVGID_30_);fill:#195F86;}
	.st51{clip-path:url(#SVGID_30_);fill-rule:evenodd;clip-rule:evenodd;fill:#195F86;}
	.st52{clip-path:url(#SVGID_30_);fill:#1B6187;}
	.st53{clip-path:url(#SVGID_32_);fill:#FFFFFF;}
	.st54{clip-path:url(#SVGID_32_);fill:#1B6C98;}
	.st55{clip-path:url(#SVGID_32_);fill:#155F86;}
	.st56{clip-path:url(#SVGID_34_);fill:#324689;}
	.st57{clip-path:url(#SVGID_34_);fill:#FFFFFF;}
	.st58{clip-path:url(#SVGID_34_);fill:#9F1831;}
	.st59{clip-path:url(#SVGID_36_);fill:#DC1F38;}
	.st60{clip-path:url(#SVGID_36_);fill:#FFFFFF;}
	.st61{clip-path:url(#SVGID_36_);fill:#253062;}
	.st62{clip-path:url(#SVGID_38_);fill:#020203;}
	.st63{clip-path:url(#SVGID_38_);fill:#FFEA37;}
	.st64{clip-path:url(#SVGID_38_);fill:#E62A2F;}
	.st65{clip-path:url(#SVGID_40_);fill:#344093;}
	.st66{clip-path:url(#SVGID_40_);fill:#F4F3F4;}
	.st67{clip-path:url(#SVGID_40_);fill:#D80D33;}
	.st68{clip-path:url(#SVGID_42_);fill:#3D9348;}
	.st69{clip-path:url(#SVGID_42_);fill:#FFFFFF;}
	.st70{clip-path:url(#SVGID_42_);fill:#D80D33;}
	.st71{clip-path:url(#SVGID_44_);fill:#409A63;}
	.st72{clip-path:url(#SVGID_44_);fill:#FFFFFF;}
	.st73{clip-path:url(#SVGID_44_);fill:#EF7F46;}
	.st74{clip-path:url(#SVGID_46_);}
	.st75{clip-path:url(#SVGID_48_);fill:#B6182E;}
	.st76{clip-path:url(#SVGID_48_);fill:#F4C328;}
	.st77{clip-path:url(#SVGID_50_);}
	.st78{clip-path:url(#SVGID_52_);fill:#B6182E;}
	.st79{clip-path:url(#SVGID_52_);fill:#F4C328;}
	.st80{clip-path:url(#SVGID_54_);fill:#020203;}
	.st81{clip-path:url(#SVGID_54_);fill:#E10720;}
	.st82{clip-path:url(#SVGID_54_);fill:#F7D92A;}
	.st83{clip-path:url(#SVGID_54_);}
	.st84{clip-path:url(#SVGID_58_);fill:#C71621;}
	.st85{clip-path:url(#SVGID_58_);fill:#FFFFFF;}
	.st86{clip-path:url(#SVGID_60_);fill:#FFFFFF;}
	.st87{clip-path:url(#SVGID_60_);fill:#5CB34F;}
	.st88{clip-path:url(#SVGID_60_);fill:#C51D25;}
	.st89{clip-path:url(#SVGID_62_);fill:#C4162B;}
	.st90{clip-path:url(#SVGID_62_);fill:#FFFFFF;}
	.st91{clip-path:url(#SVGID_62_);fill:#2A457C;}
	.st92{clip-path:url(#SVGID_64_);fill:#283374;}
	.st93{clip-path:url(#SVGID_64_);fill:#F3D131;}
	.st94{clip-path:url(#SVGID_64_);fill:#BC1733;}
	.st95{clip-path:url(#SVGID_66_);fill:#FFFFFF;}
	.st96{clip-path:url(#SVGID_66_);fill:#D80D33;}
	.st97{clip-path:url(#SVGID_68_);fill:#BC1733;}
	.st98{clip-path:url(#SVGID_68_);fill:#FFFFFF;}
	.st99{clip-path:url(#SVGID_68_);fill:#3D9348;}
	.st100{clip-path:url(#SVGID_70_);fill:#BF153D;}
	.st101{clip-path:url(#SVGID_70_);fill:#FFFFFF;}
	.st102{clip-path:url(#SVGID_72_);fill:#FFFFFF;}
	.st103{clip-path:url(#SVGID_72_);fill:#E53734;}
	.st104{clip-path:url(#SVGID_72_);}
	.st105{clip-path:url(#SVGID_76_);fill:#FFFFFF;}
	.st106{clip-path:url(#SVGID_76_);fill:#E41224;}
	.st107{clip-path:url(#SVGID_76_);fill:#3E58A4;}
	.st108{clip-path:url(#SVGID_76_);}
	.st109{clip-path:url(#SVGID_78_);fill:#E41224;}
	.st110{clip-path:url(#SVGID_78_);fill:#3E58A4;}
	.st111{clip-path:url(#SVGID_78_);fill:#F8E72A;}
	.st112{clip-path:url(#SVGID_78_);fill:#FFFFFF;}
	.st113{clip-path:url(#SVGID_80_);fill:#FFFFFF;}
	.st114{clip-path:url(#SVGID_80_);fill:#2C3F92;}
	.st115{clip-path:url(#SVGID_80_);fill:#BC1733;}
	.st116{clip-path:url(#SVGID_80_);}
	.st117{clip-path:url(#SVGID_82_);fill:#FFFFFF;}
	.st118{clip-path:url(#SVGID_82_);fill:#BC1733;}
	.st119{clip-path:url(#SVGID_82_);fill:#2C3F92;}
	.st120{clip-path:url(#SVGID_84_);fill:#E41224;}
	.st121{clip-path:url(#SVGID_84_);fill:#2C692D;}
	.st122{clip-path:url(#SVGID_84_);}
	.st123{clip-path:url(#SVGID_86_);fill:#F1E623;}
	.st124{clip-path:url(#SVGID_86_);}
	.st125{fill:#020203;}
	.st126{fill:none;}
	.st127{clip-path:url(#SVGID_86_);fill:#020203;}
	.st128{fill:#E41224;}
	.st129{clip-path:url(#SVGID_86_);fill:#FFFFFF;}
	.st130{clip-path:url(#SVGID_86_);fill:#E41224;}
	.st131{clip-path:url(#SVGID_86_);fill:#2B307A;}
	.st132{clip-path:url(#SVGID_88_);fill:#FFFFFF;}
	.st133{clip-path:url(#SVGID_88_);fill:#BE1637;}
	.st134{clip-path:url(#SVGID_88_);fill:#293270;}
	.st135{opacity:0.2;fill:#0E9FDB;}
</style>
<circle class="st0" cx="52.7" cy="48.2" r="44.7"/>
<g>
	<polygon class="st3" points="53,72.4 54.1,75.7 57.5,75.7 55.1,77.5 55.8,81 53,79 50.3,81 51,77.5 48.6,75.7 52,75.7 	"/>
	<polygon class="st3" points="53,15.7 54.1,19 57.5,19 55.1,20.8 55.8,24.3 53,22.3 50.3,24.2 51,20.8 48.6,18.9 52,18.9 	"/>
	<polygon class="st3" points="66.7,19.3 67.8,22.6 71.2,22.6 68.8,24.4 69.4,27.9 66.7,25.9 64,27.9 64.6,24.4 62.3,22.6 65.6,22.6 
			"/>
	<polygon class="st3" points="38.7,19.3 39.8,22.6 43.2,22.6 40.8,24.4 41.4,27.9 38.7,25.9 36,27.9 36.6,24.4 34.3,22.6 37.6,22.6 
			"/>
	<polygon class="st3" points="66.7,68.6 67.8,71.9 71.2,71.9 68.8,73.7 69.4,77.2 66.7,75.2 64,77.1 64.6,73.7 62.3,71.9 65.6,71.9 
			"/>
	<polygon class="st3" points="38.7,68.6 39.8,71.9 43.2,71.9 40.8,73.7 41.4,77.2 38.7,75.2 36,77.1 36.6,73.7 34.3,71.9 37.6,71.9 
			"/>
	<polygon class="st3" points="28.2,30 29.3,33.3 32.7,33.3 30.3,35.1 31,38.6 28.2,36.6 25.5,38.6 26.2,35.1 23.8,33.3 27.2,33.3 	
		"/>
	<polygon class="st3" points="77.5,30 78.6,33.3 82,33.3 79.6,35.1 80.3,38.6 77.5,36.6 74.8,38.6 75.4,35.1 73.1,33.3 76.4,33.3 	
		"/>
	<polygon class="st3" points="28.2,58.4 29.3,61.6 32.7,61.6 30.3,63.4 31,67 28.2,65 25.5,66.9 26.2,63.4 23.8,61.6 27.2,61.6 	"/>
	<polygon class="st3" points="77.5,58.4 78.6,61.6 82,61.6 79.6,63.4 80.3,67 77.5,65 74.8,66.9 75.4,63.4 73.1,61.6 76.4,61.6 	"/>
	<polygon class="st3" points="25,44.1 26.1,47.4 29.4,47.4 27.1,49.2 27.7,52.7 25,50.7 22.2,52.6 22.9,49.2 20.5,47.4 23.9,47.4 	
		"/>
	<polygon class="st3" points="81.1,44.1 82.2,47.4 85.6,47.4 83.2,49.2 83.9,52.7 81.1,50.7 78.4,52.6 79,49.2 76.7,47.4 80,47.4 	
		"/>
</g>
</svg>
