<?xml version="1.0" encoding="utf-8"?>
<!-- Generator: Adobe Illustrator 23.0.0, SVG Export Plug-In . SVG Version: 6.00 Build 0)  -->
<svg version="1.1" id="Capa_1" xmlns="http://www.w3.org/2000/svg" xmlns:xlink="http://www.w3.org/1999/xlink" x="0px" y="0px"
	 viewBox="0 0 184.5 114.4" style="enable-background:new 0 0 184.5 114.4;" xml:space="preserve">
<style type="text/css">
	.st0{fill:#155F86;}
	.st1{fill:#FFFFFF;}
</style>
<g>
	<circle class="st0" cx="94.6" cy="57" r="51.2"/>
	<g>
		<polygon class="st1" points="92.1,22.7 88.5,20.1 93,20.1 94.4,15.8 95.7,20.1 100.2,20.1 96.6,22.7 98,27 94.4,24.3 90.7,27 		
			"/>
		<polygon class="st1" points="92.1,93.9 88.5,91.3 93,91.3 94.4,87 95.8,91.3 100.2,91.3 96.6,93.9 98,98.2 94.4,95.6 90.7,98.2 		
			"/>
		<polygon class="st1" points="77.3,91.4 73.6,94 75,89.8 71.4,87.1 75.9,87.1 77.3,82.9 78.7,87.1 83.2,87.1 79.5,89.8 80.9,94 		
			"/>
		<polygon class="st1" points="64.4,78.9 60.7,81.5 62.1,77.3 58.5,74.6 63,74.6 64.4,70.4 65.8,74.6 70.2,74.6 66.6,77.3 68,81.5 
					"/>
		<polygon class="st1" points="57.5,58.9 53.9,56.3 58.4,56.3 59.8,52 61.2,56.3 65.7,56.3 62,58.9 63.4,63.2 59.8,60.6 56.1,63.2 
					"/>
		<polygon class="st1" points="63.9,42.2 60.3,44.9 61.7,40.6 58.1,38 62.5,38 63.9,33.7 65.3,38 69.8,38 66.2,40.6 67.6,44.9 		"/>
		<polygon class="st1" points="74.2,28.1 70.6,25.5 75.1,25.5 76.4,21.2 77.8,25.5 82.3,25.5 78.7,28.1 80.1,32.4 76.4,29.7 
			72.8,32.4 		"/>
		<polygon class="st1" points="111.4,29.7 107.8,32.4 109.2,28.1 105.6,25.5 110.1,25.5 111.4,21.2 112.8,25.5 117.3,25.5 
			113.7,28.1 115.1,32.4 		"/>
		<polygon class="st1" points="122.5,40.6 118.9,38 123.4,38 124.8,33.7 126.2,38 130.7,38 127,40.6 128.4,44.9 124.8,42.2 
			121.1,44.9 		"/>
		<polygon class="st1" points="127.1,58.1 123.5,55.5 128,55.5 129.4,51.2 130.7,55.5 135.2,55.5 131.6,58.1 133,62.4 129.4,59.7 
			125.7,62.4 		"/>
		<polygon class="st1" points="122.5,76 118.9,73.4 123.4,73.4 124.8,69.1 126.2,73.4 130.7,73.4 127,76 128.4,80.3 124.8,77.7 
			121.1,80.3 		"/>
		<polygon class="st1" points="111.9,90.6 108.2,93.2 109.6,88.9 106,86.3 110.5,86.3 111.9,82 113.3,86.3 117.7,86.3 114.1,88.9 
			115.5,93.2 		"/>
	</g>
</g>
</svg>
