<?xml version="1.0" encoding="utf-8"?>
<!-- Generator: Adobe Illustrator 23.0.0, SVG Export Plug-In . SVG Version: 6.00 Build 0)  -->
<svg version="1.1" id="Capa_1" xmlns="http://www.w3.org/2000/svg" xmlns:xlink="http://www.w3.org/1999/xlink" x="0px" y="0px"
	 viewBox="0 0 184.5 114.4" style="enable-background:new 0 0 184.5 114.4;" xml:space="preserve">
<style type="text/css">
	.st0{fill:#155F86;}
	.st1{fill:#FFFFFF;}
	.st2{fill:#FFFFFF;stroke:#155F86;stroke-width:2;stroke-miterlimit:10;}
</style>
<g>
	<g>
		<circle class="st0" cx="92.8" cy="56.1" r="51.2"/>
	</g>
	<g>
		<path class="st1" d="M67,26.6c-2,0-3.6,1.6-3.6,3.6v53.4c0,2,1.6,3.6,3.6,3.6h32.2v-7.1c0-3.1,2.5-5.7,5.7-5.7h7.9V30.2
			c0-2-1.6-3.6-3.6-3.6H67z M103.3,59.7H72.8v-2.5h30.6L103.3,59.7L103.3,59.7z M103.3,51H72.8v-2.5h30.6L103.3,51L103.3,51z
			 M103.3,42.3H72.8v-2.5h30.6L103.3,42.3L103.3,42.3z"/>
		<path class="st1" d="M101.3,80.1v5.7l9.9-9.3h-6.3C102.9,76.5,101.3,78.1,101.3,80.1z"/>
	</g>
	<circle class="st2" cx="117.5" cy="33.8" r="12.6"/>
	<path class="st0" d="M125.7,29.2c-0.5-0.5-1.2-0.5-1.7,0l-8.2,8.2l-4.9-4.9c-0.5-0.5-1.2-0.5-1.7,0s-0.5,1.2,0,1.7l5.7,5.7
		c0.5,0.5,1.2,0.5,1.7,0l9-9C126.1,30.4,126.1,29.7,125.7,29.2z"/>
</g>
</svg>
