<?xml version="1.0" encoding="utf-8"?>
<!-- Generator: Adobe Illustrator 23.0.0, SVG Export Plug-In . SVG Version: 6.00 Build 0)  -->
<svg version="1.1" id="Capa_1" xmlns="http://www.w3.org/2000/svg" xmlns:xlink="http://www.w3.org/1999/xlink" x="0px" y="0px"
	 viewBox="0 0 192.3 255.9" style="enable-background:new 0 0 192.3 255.9;" xml:space="preserve">
<style type="text/css">
	.st0{fill:#065F87;}
</style>
<g>
	<path class="st0" d="M121.1,93.9c0-13.8-11.2-25-25-25c-13.8,0-25,11.2-25,25c0,13.8,11.2,24.9,25,24.9
		C110,118.9,121.1,107.7,121.1,93.9z"/>
	<path class="st0" d="M118.7,214.4c-5.7,6.1-10.7,10.9-14.1,14.1c-2.4,2.2-5.3,3.4-8.3,3.4c-2.2,0-5.5-0.6-8.8-3.7
		c-3.4-3.2-8.2-7.9-13.8-13.8c-11.9,2.5-19.8,6.9-19.8,11.9c0,7.8,19,14.1,42.3,14.1c23.4,0,42.3-6.3,42.3-14.1
		C138.5,221.3,130.6,216.9,118.7,214.4z"/>
	<path class="st0" d="M82.4,213C82.4,213,82.4,213,82.4,213c0.5,0.5,1,1,1.5,1.5c0.1,0.1,0.2,0.2,0.2,0.2c0.4,0.4,0.8,0.8,1.1,1.1
		c0.1,0.1,0.2,0.2,0.3,0.3c0.3,0.3,0.7,0.7,1,1c0.1,0.1,0.2,0.2,0.3,0.3c0.8,0.8,1.6,1.6,2.4,2.3c0.1,0.1,0.2,0.2,0.3,0.3
		c0.3,0.3,0.5,0.5,0.7,0.7c0.1,0.1,0.2,0.2,0.4,0.3c0.2,0.2,0.4,0.4,0.7,0.6c0.1,0.1,0.2,0.2,0.3,0.3c0.3,0.3,0.6,0.6,0.9,0.8
		c0.3,0.3,0.6,0.5,0.9,0.8c0.1,0.1,0.2,0.1,0.3,0.2c0.2,0.1,0.4,0.3,0.6,0.4c0.1,0.1,0.3,0.1,0.4,0.1c0.2,0.1,0.4,0.1,0.6,0.2
		c0.1,0,0.3,0,0.4,0.1c0.2,0,0.4,0.1,0.5,0.1c0,0,0.1,0,0.1,0c0.1,0,0.3,0,0.4,0c0.1,0,0.3,0,0.4,0c0.2,0,0.4-0.1,0.5-0.2
		c0.1,0,0.2-0.1,0.3-0.1c0.2-0.1,0.4-0.2,0.6-0.3c0.1-0.1,0.2-0.1,0.3-0.2c0.3-0.2,0.5-0.4,0.8-0.7c0.3-0.3,0.6-0.6,0.9-0.8
		c0.1-0.1,0.1-0.1,0.2-0.2c0.3-0.3,0.6-0.5,0.9-0.8c0.1-0.1,0.1-0.1,0.2-0.2c1.1-1.1,2.3-2.3,3.7-3.6c0,0,0,0,0,0
		c1.4-1.3,2.8-2.8,4.4-4.4c0,0,0.1-0.1,0.1-0.1c0,0,0,0,0,0c22.1-22.8,63.1-71.3,63.1-117.3c0-44-36.1-79.7-76.9-79.7
		S19.3,51.7,19.3,95.7C19.3,141.7,60.3,190.2,82.4,213L82.4,213z M54.8,93.9c0-22.9,18.5-41.4,41.4-41.4c22.9,0,41.4,18.5,41.4,41.4
		c0,22.9-18.5,41.4-41.4,41.4C73.3,135.3,54.8,116.8,54.8,93.9z"/>
</g>
</svg>
