<?xml version="1.0" encoding="utf-8"?>
<!-- Generator: Adobe Illustrator 23.0.0, SVG Export Plug-In . SVG Version: 6.00 Build 0)  -->
<svg version="1.1" id="Capa_1" xmlns="http://www.w3.org/2000/svg" xmlns:xlink="http://www.w3.org/1999/xlink" x="0px" y="0px"
	 viewBox="0 0 134.8 135.5" style="enable-background:new 0 0 134.8 135.5;" xml:space="preserve">
<style type="text/css">
	.st0{fill:#FFFFFF;stroke:#155F86;stroke-width:5;stroke-miterlimit:10;}
	.st1{fill:none;stroke:#9D9D9C;stroke-width:4;stroke-miterlimit:10;}
	.st2{fill:none;stroke:#000000;stroke-width:4;stroke-miterlimit:10;}
	.st3{fill:#9D9D9C;}
	.st4{fill:#155F86;}
</style>
<circle class="st0" cx="68.2" cy="67.6" r="58.6"/>
<g>
	<path class="st4" d="M31.5,83.2H104c1.2,0,2.2-1,2.2-2.2V36.4c0-1.2-1-2.2-2.2-2.2H31.5c-1.2,0-2.2,1-2.2,2.2v44.7
		C29.3,82.3,30.3,83.2,31.5,83.2z M34.2,39h66.9v39.5H34.2V39z"/>
	<path class="st4" d="M106.8,84.7c-0.4-0.4-0.9-0.6-1.4-0.6H30.1c-0.5,0-1,0.2-1.4,0.6l-7.6,7.1c-1.6,1.5-0.7,4.4,1.4,4.4H113
		c2,0,2.9-2.9,1.4-4.4L106.8,84.7z"/>
	<rect x="37.2" y="42.3" class="st4" width="60.6" height="18.5"/>
	<rect x="37.2" y="62.4" class="st4" width="14.5" height="1.8"/>
	<rect x="37.2" y="65.9" class="st4" width="29.8" height="9.1"/>
	<rect x="52.6" y="62.4" class="st4" width="14.5" height="1.8"/>
	<rect x="67.9" y="62.4" class="st4" width="14.5" height="1.8"/>
	<rect x="67.9" y="65.8" class="st4" width="29.8" height="1.4"/>
	<rect x="67.9" y="68.1" class="st4" width="29.8" height="1.4"/>
	<rect x="67.9" y="70.4" class="st4" width="29.8" height="1.4"/>
	<rect x="67.9" y="72.8" class="st4" width="15.5" height="1.4"/>
	<rect x="83.3" y="62.4" class="st4" width="14.5" height="1.8"/>
</g>
</svg>
