<?xml version="1.0" encoding="utf-8"?>
<!-- Generator: Adobe Illustrator 23.0.0, SVG Export Plug-In . SVG Version: 6.00 Build 0)  -->
<svg version="1.1" id="Capa_1" xmlns="http://www.w3.org/2000/svg" xmlns:xlink="http://www.w3.org/1999/xlink" x="0px" y="0px"
	 viewBox="0 0 134.8 135.5" style="enable-background:new 0 0 134.8 135.5;" xml:space="preserve">
<style type="text/css">
	.st0{fill:#FFFFFF;stroke:#155F86;stroke-width:5;stroke-miterlimit:10;}
	.st1{fill:none;stroke:#9D9D9C;stroke-width:4;stroke-miterlimit:10;}
	.st2{fill:none;stroke:#000000;stroke-width:4;stroke-miterlimit:10;}
	.st3{fill:#9D9D9C;}
	.st4{fill:#155F86;}
</style>
<circle class="st0" cx="68.2" cy="67.6" r="58.6"/>
<g>
	<g>
		<path class="st4" d="M93.2,35.2H41.3c-4.1,0-7.4,3.3-7.4,7.4v51.9c0,4.1,3.3,7.4,7.4,7.4h51.9c4.1,0,7.4-3.3,7.4-7.4V42.6
			C100.5,38.5,97.2,35.2,93.2,35.2z M63.5,92.1c0,1.4-1.1,2.5-2.5,2.5H43.7c-1.4,0-2.5-1.1-2.5-2.5V74.7c0-1.4,1.1-2.5,2.5-2.5H61
			c1.4,0,2.5,1.1,2.5,2.5V92.1z M63.5,62.3c0,1.4-1.1,2.5-2.5,2.5H43.7c-1.4,0-2.5-1.1-2.5-2.5V45c0-1.4,1.1-2.5,2.5-2.5H61
			c1.4,0,2.5,1.1,2.5,2.5V62.3z M93.2,92.1c0,1.4-1.1,2.5-2.5,2.5H73.4c-1.4,0-2.5-1.1-2.5-2.5V74.7c0-1.4,1.1-2.5,2.5-2.5h17.3
			c1.4,0,2.5,1.1,2.5,2.5V92.1z M93.2,62.3c0,1.4-1.1,2.5-2.5,2.5H73.4c-1.4,0-2.5-1.1-2.5-2.5V45c0-1.4,1.1-2.5,2.5-2.5h17.3
			c1.4,0,2.5,1.1,2.5,2.5V62.3z"/>
		<rect x="74.8" y="52.2" class="st4" width="14.6" height="4"/>
		<rect x="74.8" y="81.3" class="st4" width="14.6" height="4"/>
		<rect x="80.5" y="76.4" class="st4" width="3.1" height="3"/>
		<rect x="80.5" y="87.1" class="st4" width="3.1" height="3"/>
		<polygon class="st4" points="56.1,77 52.3,80.7 48.6,77 45.8,79.8 49.5,83.6 45.8,87.3 48.6,90.1 52.3,86.4 56.1,90.1 58.9,87.3 
			55.2,83.6 58.9,79.8 		"/>
	</g>
	<polygon class="st4" points="54.3,46.9 50.3,46.9 50.3,52.2 45,52.2 45,56.2 50.3,56.2 50.3,61.5 54.3,61.5 54.3,56.2 59.6,56.2 
		59.6,52.2 54.3,52.2 	"/>
</g>
</svg>
