<?xml version="1.0" encoding="utf-8"?>
<!-- Generator: Adobe Illustrator 23.0.0, SVG Export Plug-In . SVG Version: 6.00 Build 0)  -->
<svg version="1.1" id="Capa_1" xmlns="http://www.w3.org/2000/svg" xmlns:xlink="http://www.w3.org/1999/xlink" x="0px" y="0px"
	 viewBox="0 0 134.8 135.5" style="enable-background:new 0 0 134.8 135.5;" xml:space="preserve">
<style type="text/css">
	.st0{fill:#FFFFFF;stroke:#155F86;stroke-width:5;stroke-miterlimit:10;}
	.st1{fill:none;stroke:#9D9D9C;stroke-width:4;stroke-miterlimit:10;}
	.st2{fill:none;stroke:#000000;stroke-width:4;stroke-miterlimit:10;}
	.st3{fill:#9D9D9C;}
	.st4{fill:#155F86;}
</style>
<circle class="st0" cx="68.2" cy="67.6" r="58.6"/>
<g>
	<circle class="st4" cx="67.5" cy="39.2" r="9.6"/>
	<path class="st4" d="M100.4,97.7H34.6c-1.5,0-2.6-1.2-2.6-2.6v-2.7c0-1.5,1.2-2.6,2.6-2.6h65.9c1.5,0,2.6,1.2,2.6,2.6v2.7
		C103,96.5,101.9,97.7,100.4,97.7z"/>
	<path class="st4" d="M94.1,40.6H40.9c-0.8,0-1.5-0.6-1.5-1.5v-1.5c0-0.8,0.6-1.5,1.5-1.5h53.2c0.8,0,1.5,0.6,1.5,1.5V39
		C95.6,40,94.9,40.6,94.1,40.6z"/>
	<rect x="62.7" y="40.6" class="st4" width="9.8" height="53.2"/>
	<path class="st4" d="M110.4,67.5L97.4,47.2c-0.9-1.5-3-1.5-4.1,0L79.8,67.9c-1.2,1.8-0.5,4.4,1.5,5.3c2.6,1.7,7.8,2.7,13.8,2.7
		c8.6,0,15.6-2.3,15.6-5l0,0C111.1,69.7,111.1,68.5,110.4,67.5z"/>
	<path class="st4" d="M54.7,67.5L41.8,47.2c-0.9-1.5-3-1.5-4.1,0L24.2,67.9c-1.2,1.8-0.5,4.4,1.5,5.3c2.6,1.7,7.8,2.7,13.8,2.7
		c8.6,0,15.6-2.3,15.6-5l0,0C55.5,69.7,55.3,68.5,54.7,67.5z"/>
</g>
</svg>
