<?xml version="1.0" encoding="utf-8"?>
<!-- Generator: Adobe Illustrator 23.0.0, SVG Export Plug-In . SVG Version: 6.00 Build 0)  -->
<svg version="1.1" id="Capa_1" xmlns="http://www.w3.org/2000/svg" xmlns:xlink="http://www.w3.org/1999/xlink" x="0px" y="0px"
	 viewBox="0 0 280.2 143.9" style="enable-background:new 0 0 280.2 143.9;" xml:space="preserve">
<style type="text/css">
	.st0{fill:#155F86;}
	.st1{fill:#FFFFFF;}
	.st2{fill:#00A0DF;}
</style>
<rect x="-13.4" y="58.3" class="st0" width="303.5" height="100.5"/>
<rect x="7.8" y="102.9" class="st1" width="40.6" height="7"/>
<rect x="63.8" y="102.9" class="st1" width="40.6" height="7"/>
<rect x="119.8" y="102.9" class="st1" width="40.6" height="7"/>
<rect x="175.9" y="102.9" class="st1" width="40.6" height="7"/>
<rect x="231.9" y="102.9" class="st1" width="40.6" height="7"/>
<g id="g">
	<g id="g_1_">
		<path id="s_4_" class="st2" d="M140.8,76.9c0,0.5,0.2,1,0.7,1.4s1.1,0.6,1.7,0.6h14c0-1.7,0.4-3.3,1-4.8h-17.5v2.8H140.8z"/>
		<path id="s_3_" class="st2" d="M184.8,78.8h37.4c0-1.7,0.4-3.3,1-4.8h-39.5C184.4,75.5,184.8,77.1,184.8,78.8z"/>
		<path id="s_2_" class="st2" d="M261.3,38.6c-3.8-3.5-8.8-6.4-13.6-7.1c-4.8-0.6-14.1-0.7-14.1-0.7v35.7c0.7-0.1,1.5-0.2,2.3-0.2
			c7.6,0,13.8,5.6,13.8,12.5h11.5c1.5,0,2.9-0.5,4-1.5s1.7-2.3,1.7-3.7V51.1C267,46.5,265.1,42,261.3,38.6z M263,55.4
			c0,0.5-0.3,1.1-0.7,1.4c-0.5,0.4-1.1,0.5-1.7,0.4l-20.4-3.7c-0.4-0.1-0.9-0.3-1.2-0.6s-0.5-0.8-0.5-1.2V35.9c0,0,6.8,0,10.3,0.5
			s7.2,2.7,9.9,5.2c2.8,2.5,4.2,5.9,4.2,9.2v4.6H263z"/>
		<path id="s_1_" class="st2" d="M180.8,72.8c-0.2-0.2-0.4-0.5-0.6-0.7c-2.2-2.4-5.5-4-9.2-4s-7,1.6-9.2,4c-0.2,0.2-0.4,0.5-0.6,0.7
			c-0.3,0.4-0.5,0.8-0.7,1.2c-0.8,1.4-1.3,3.1-1.3,4.8c0,5.9,5.3,10.7,11.8,10.7s11.8-4.8,11.8-10.7c0-1.7-0.4-3.3-1.3-4.8
			C181.3,73.6,181.1,73.2,180.8,72.8z M171,84.3c-3.4,0-6.1-2.5-6.1-5.5c0-2,1.2-3.8,3.1-4.8c0.9-0.5,1.9-0.7,3-0.7s2.1,0.3,3,0.7
			c1.8,0.9,3.1,2.7,3.1,4.8C177.1,81.8,174.4,84.3,171,84.3z"/>
		<path id="s" class="st2" d="M236,68.1c-0.8,0-1.5,0.1-2.3,0.2c-1,0.2-1.9,0.4-2.7,0.8c-1.9,0.8-3.6,2.1-4.8,3.7
			c-1.3,1.7-2,3.8-2,6c0,5.9,5.3,10.7,11.8,10.7s11.8-4.8,11.8-10.7C247.7,72.9,242.5,68.1,236,68.1z M236,84.3
			c-3.4,0-6.1-2.5-6.1-5.5c0-1.2,0.4-2.3,1.1-3.1c0.7-0.9,1.6-1.6,2.7-2c0.7-0.3,1.5-0.4,2.3-0.4c3.4,0,6.1,2.5,6.1,5.5
			S239.3,84.3,236,84.3z"/>
		<g>
			<rect x="140.8" y="17.8" class="st2" width="90.1" height="4.7"/>
			<path class="st2" d="M230.9,67.2c-2.8,1-5.1,2.7-6.7,5h-41.6c-2.4-3.5-6.8-5.8-11.7-5.8s-9.2,2.3-11.7,5.8h-18.5V23.8h90.1
				L230.9,67.2L230.9,67.2z"/>
		</g>
	</g>
</g>
</svg>
