<?xml version="1.0" encoding="utf-8"?>
<!-- Generator: Adobe Illustrator 23.0.0, SVG Export Plug-In . SVG Version: 6.00 Build 0)  -->
<svg version="1.1" id="Capa_1" xmlns="http://www.w3.org/2000/svg" xmlns:xlink="http://www.w3.org/1999/xlink" x="0px" y="0px"
	 viewBox="0 0 243.5 170.5" style="enable-background:new 0 0 243.5 170.5;" xml:space="preserve">
<style type="text/css">
	.st0{fill:#155F86;}
	.st1{fill:#D4D4D5;}
	.st2{fill:#0E9FDB;}
	.st3{fill:#FFFFFF;}
	.st4{fill:#065F87;}
	.st5{fill:none;stroke:#FFFFFF;stroke-miterlimit:10;}
	.st6{fill:none;stroke:#155F86;stroke-width:3;stroke-miterlimit:10;}
	.st7{fill:none;stroke:#FFFFFF;stroke-width:2;stroke-miterlimit:10;}
	.st8{fill:none;stroke:#9D9D9C;stroke-width:4;stroke-miterlimit:10;}
	.st9{fill:none;stroke:#000000;stroke-width:4;stroke-miterlimit:10;}
	.st10{fill:#9D9D9C;}
	.st11{fill:url(#SVGID_1_);}
	.st12{fill:url(#SVGID_2_);}
	.st13{fill:url(#SVGID_3_);}
	.st14{fill:#010202;}
	.st15{fill:url(#SVGID_4_);}
	.st16{opacity:0.2;fill:#FFFFFF;}
	.st17{filter:url(#Adobe_OpacityMaskFilter);}
	.st18{filter:url(#Adobe_OpacityMaskFilter_1_);}
	.st19{fill:url(#SVGID_7_);}
	.st20{fill:url(#SVGID_8_);}
	.st21{fill:url(#SVGID_9_);}
	.st22{filter:url(#Adobe_OpacityMaskFilter_2_);}
	.st23{fill:url(#SVGID_11_);}
	.st24{fill:url(#SVGID_12_);}
	.st25{fill:url(#SVGID_13_);}
	.st26{filter:url(#Adobe_OpacityMaskFilter_3_);}
	.st27{clip-path:url(#SVGID_16_);fill:#FFFFFF;}
	.st28{clip-path:url(#SVGID_16_);fill:#1B6C98;}
	.st29{clip-path:url(#SVGID_16_);fill:#155F86;}
	.st30{fill:#176086;}
	.st31{clip-path:url(#SVGID_18_);fill:url(#SVGID_19_);}
	.st32{clip-path:url(#SVGID_18_);fill:url(#SVGID_20_);}
	.st33{clip-path:url(#SVGID_18_);fill:url(#SVGID_21_);}
	.st34{clip-path:url(#SVGID_18_);fill:url(#SVGID_22_);}
	.st35{fill:#EFEEEE;}
	.st36{clip-path:url(#SVGID_24_);fill:url(#SVGID_25_);}
	.st37{clip-path:url(#SVGID_24_);fill:url(#SVGID_26_);}
	.st38{clip-path:url(#SVGID_24_);fill:url(#SVGID_27_);}
	.st39{clip-path:url(#SVGID_24_);fill:url(#SVGID_28_);}
	.st40{fill:#0B5F87;}
	.st41{fill:#ECECEC;}
	.st42{fill:#106086;}
	.st43{fill-rule:evenodd;clip-rule:evenodd;fill:#FFFFFF;}
	.st44{fill:#FFFFFF;stroke:#FFFFFF;stroke-miterlimit:10;}
	.st45{fill:none;stroke:#155F86;stroke-width:5;stroke-miterlimit:10;}
	.st46{fill:none;stroke:#155F86;stroke-width:2;stroke-miterlimit:10;}
	.st47{fill:#D7D7D7;}
	.st48{fill:#5B9DD5;}
	.st49{fill:#195F86;}
	.st50{clip-path:url(#SVGID_30_);fill:#195F86;}
	.st51{clip-path:url(#SVGID_30_);fill-rule:evenodd;clip-rule:evenodd;fill:#195F86;}
	.st52{clip-path:url(#SVGID_30_);fill:#1B6187;}
</style>
<g>
	<path class="st0" d="M108.7,71.3L108.7,71.3l-0.5,0.1l-0.2,0l-0.3,0.4l0,0l0,0.1c-0.1,0.2-0.1,0.4-0.2,0.6c0,0.2,0,0.5,0,0.7
		c0,0.6,0.1,1,0.3,1.4l0,0c0.2,0.3,0.6,0.6,1,0.6h1.8c0.3,1.1,0.7,2,1.2,2.9c0.6,1,1.5,1.8,2.5,2.5c1,0.7,2.2,1.2,3.6,1.5
		c1.4,0.4,3,0.5,4.7,0.5c0.9,0,1.8,0,2.6-0.1c0.8-0.1,1.5-0.2,2.1-0.4c0.6-0.1,1.1-0.3,1.6-0.5l0,0c0.4-0.2,0.8-0.4,1.1-0.6
		c0.3-0.2,0.5-0.5,0.7-0.9v0c0.2-0.4,0.2-0.8,0.2-1.4c0-0.4,0-0.7,0-1v0c0-0.3-0.1-0.5-0.2-0.7l0-0.1l-0.3-0.3l-0.1-0.1l-0.5-0.1
		l-0.1,0h-0.1c-0.4,0-0.7,0.1-1.1,0.3c-0.3,0.2-0.7,0.3-1.2,0.5c-0.5,0.2-1,0.4-1.7,0.5c-0.6,0.1-1.3,0.2-2.2,0.2
		c-0.9,0-1.7-0.1-2.4-0.2c-0.6-0.2-1.2-0.4-1.6-0.7c-0.4-0.3-0.8-0.6-1-1l0,0c-0.2-0.2-0.3-0.5-0.4-0.8h5.6c0.4,0,0.9-0.3,1-0.6
		c0.2-0.4,0.3-0.8,0.3-1.4c0-0.3,0-0.5-0.1-0.8c0-0.2-0.1-0.4-0.2-0.6l0-0.1l-0.3-0.3l-0.1-0.1l-0.5-0.1l-0.1,0h-6.3
		c0,0,0-0.1,0-0.1v0c0-0.2,0-0.4,0-0.6c0-0.2,0-0.4,0-0.6v0c0,0,0,0,0-0.1h6.2c0.4,0,0.8-0.2,1-0.6c0.2-0.4,0.3-0.8,0.3-1.4
		c0-0.3,0-0.6-0.1-0.8c0-0.2-0.1-0.4-0.2-0.6l0-0.1l-0.3-0.3l-0.1-0.1l-0.5-0.1l-0.1,0h-5.6c0.1-0.3,0.2-0.6,0.4-0.9
		c0.3-0.4,0.6-0.8,1-1.1c0.4-0.3,0.9-0.5,1.5-0.7c0.6-0.2,1.3-0.2,2.1-0.2c0.9,0,1.6,0.1,2.2,0.2c0.6,0.2,1.2,0.3,1.7,0.5
		c0.5,0.2,0.9,0.4,1.2,0.5l0,0c0.4,0.2,0.7,0.3,1.1,0.3h0.1l0.4-0.1l0.2,0l0.4-0.4l0.1-0.1l0-0.1c0.1-0.2,0.2-0.4,0.2-0.6v0
		c0-0.2,0.1-0.5,0.1-0.8c0-0.4,0-0.7-0.1-1v0c0-0.3-0.1-0.5-0.1-0.7l0,0v0c-0.1-0.2-0.1-0.4-0.3-0.5l0-0.1l-0.4-0.4l0,0l0,0
		c-0.2-0.1-0.5-0.3-0.9-0.4c-0.4-0.2-0.9-0.3-1.6-0.4c-0.6-0.1-1.3-0.3-2.1-0.3c-0.8-0.1-1.6-0.1-2.4-0.1c-1.8,0-3.3,0.2-4.7,0.6
		c-1.4,0.4-2.5,0.9-3.5,1.6c-1,0.7-1.8,1.6-2.4,2.5c-0.5,0.9-1,1.8-1.3,2.8h-2h-0.1l-0.4,0.1l-0.2,0l-0.4,0.3l0,0l0,0.1
		c-0.1,0.2-0.2,0.4-0.2,0.6v0c0,0.2-0.1,0.5-0.1,0.8c0,0.6,0,1,0.2,1.4c0.1,0.2,0.2,0.3,0.4,0.5c0.2,0.1,0.4,0.2,0.6,0.2h1.5
		c0,0,0,0.1,0,0.1v0c0,0.2,0,0.5,0,0.7c0,0.2,0,0.4,0,0.6v0H108.7z"/>
	<g>
		<g>
			<path class="st0" d="M147.6,86c-2.2,0-4.3-1.1-5.5-2.9l-2.9-4.3c-2.6,5.7-7.9,10-14.3,11.3c0,0-0.1,0-0.1,0
				c-2.5,0.5-5.1,0.5-7.7,0c-7-1.4-12.7-6.3-15-12.9h1.1c1.8,0,2.8-2,1.8-3.4l-8.8-13.2c-0.8-1.2-2.9-1.2-3.7,0l-8.8,13.2
				c-1,1.5,0.1,3.4,1.8,3.4h2.9c3,14.8,16.4,26.5,32.7,26.5c8.9,0,17.8-3.7,24.1-10.4c2.2-2.4,4.1-5.1,5.5-8
				C149.8,85.7,148.7,86,147.6,86z"/>
		</g>
	</g>
	<g>
		<g>
			<path class="st0" d="M156.4,63.9h-2.9c-3.4-16.8-19.7-28.4-37-26.2C105,39.4,95.9,46.5,91.2,56c2.9-1.4,6.8-0.7,8.6,2.1l2.9,4.3
				c2.5-5.6,7.7-9.8,13.9-11.2c10.3-2.2,19.9,3.5,23.2,12.7h-1.1c-1.8,0-2.8,2-1.8,3.4l8.8,13.2c0.9,1.3,2.8,1.3,3.7,0l8.8-13.2
				C159.2,65.9,158.2,63.9,156.4,63.9z"/>
		</g>
	</g>
</g>
<g>
	<path class="st0" d="M43.1,122.3h156.3c2.6,0,4.6-2.1,4.6-4.6V21.5c0-2.6-2.1-4.7-4.6-4.7H43.1c-2.6,0-4.6,2.1-4.6,4.7v96.2
		C38.4,120.2,40.5,122.3,43.1,122.3z M49.1,26.9h144.1v85H49.1V26.9z"/>
	<path class="st0" d="M205.3,125.5c-0.8-0.8-1.9-1.2-2.9-1.2H40.1c-1.1,0-2.1,0.4-2.9,1.2l-16.4,15.4c-3.4,3.2-1.4,9.5,2.9,9.5h195
		c4.4,0,6.3-6.3,2.9-9.5L205.3,125.5z"/>
</g>
</svg>
