<?xml version="1.0" encoding="utf-8"?>
<!-- Generator: Adobe Illustrator 23.0.0, SVG Export Plug-In . SVG Version: 6.00 Build 0)  -->
<svg version="1.1" id="Capa_1" xmlns="http://www.w3.org/2000/svg" xmlns:xlink="http://www.w3.org/1999/xlink" x="0px" y="0px"
	 viewBox="0 0 243.5 170.5" style="enable-background:new 0 0 243.5 170.5;" xml:space="preserve">
<style type="text/css">
	.st0{fill:#155F86;}
	.st1{fill:#D4D4D5;}
	.st2{fill:#0E9FDB;}
	.st3{fill:#FFFFFF;}
	.st4{fill:#065F87;}
	.st5{fill:none;stroke:#FFFFFF;stroke-miterlimit:10;}
	.st6{fill:none;stroke:#155F86;stroke-width:3;stroke-miterlimit:10;}
	.st7{fill:none;stroke:#FFFFFF;stroke-width:2;stroke-miterlimit:10;}
	.st8{fill:none;stroke:#9D9D9C;stroke-width:4;stroke-miterlimit:10;}
	.st9{fill:none;stroke:#000000;stroke-width:4;stroke-miterlimit:10;}
	.st10{fill:#9D9D9C;}
	.st11{fill:url(#SVGID_1_);}
	.st12{fill:url(#SVGID_2_);}
	.st13{fill:url(#SVGID_3_);}
	.st14{fill:#010202;}
	.st15{fill:url(#SVGID_4_);}
	.st16{opacity:0.2;fill:#FFFFFF;}
	.st17{filter:url(#Adobe_OpacityMaskFilter);}
	.st18{filter:url(#Adobe_OpacityMaskFilter_1_);}
	.st19{fill:url(#SVGID_7_);}
	.st20{fill:url(#SVGID_8_);}
	.st21{fill:url(#SVGID_9_);}
	.st22{filter:url(#Adobe_OpacityMaskFilter_2_);}
	.st23{fill:url(#SVGID_11_);}
	.st24{fill:url(#SVGID_12_);}
	.st25{fill:url(#SVGID_13_);}
	.st26{filter:url(#Adobe_OpacityMaskFilter_3_);}
	.st27{clip-path:url(#SVGID_16_);fill:#FFFFFF;}
	.st28{clip-path:url(#SVGID_16_);fill:#1B6C98;}
	.st29{clip-path:url(#SVGID_16_);fill:#155F86;}
	.st30{fill:#176086;}
	.st31{clip-path:url(#SVGID_18_);fill:url(#SVGID_19_);}
	.st32{clip-path:url(#SVGID_18_);fill:url(#SVGID_20_);}
	.st33{clip-path:url(#SVGID_18_);fill:url(#SVGID_21_);}
	.st34{clip-path:url(#SVGID_18_);fill:url(#SVGID_22_);}
	.st35{fill:#EFEEEE;}
	.st36{clip-path:url(#SVGID_24_);fill:url(#SVGID_25_);}
	.st37{clip-path:url(#SVGID_24_);fill:url(#SVGID_26_);}
	.st38{clip-path:url(#SVGID_24_);fill:url(#SVGID_27_);}
	.st39{clip-path:url(#SVGID_24_);fill:url(#SVGID_28_);}
	.st40{fill:#0B5F87;}
	.st41{fill:#ECECEC;}
	.st42{fill:#106086;}
	.st43{fill-rule:evenodd;clip-rule:evenodd;fill:#FFFFFF;}
	.st44{fill:#FFFFFF;stroke:#FFFFFF;stroke-miterlimit:10;}
	.st45{fill:none;stroke:#155F86;stroke-width:5;stroke-miterlimit:10;}
	.st46{fill:none;stroke:#155F86;stroke-width:2;stroke-miterlimit:10;}
	.st47{fill:#D7D7D7;}
	.st48{fill:#5B9DD5;}
	.st49{fill:#195F86;}
	.st50{clip-path:url(#SVGID_30_);fill:#195F86;}
	.st51{clip-path:url(#SVGID_30_);fill-rule:evenodd;clip-rule:evenodd;fill:#195F86;}
	.st52{clip-path:url(#SVGID_30_);fill:#1B6187;}
</style>
<g>
	<path class="st0" d="M174.9,155.6l3.9,3.9c2.5,2.5,7.8,1.2,11.8-2.8c4-4,5.3-9.3,2.8-11.8l-3.6-3.6h0l-0.6-0.6l-14.6,14.6
		L174.9,155.6z"/>
	<path class="st0" d="M154.3,106.3c6.6-9.3,10.6-20.7,10.6-33c0-31.4-25.4-56.8-56.8-56.8c-31.4,0-56.8,25.4-56.8,56.8
		c0,31.4,25.4,56.8,56.8,56.8c11.6,0,22.4-3.5,31.4-9.5l31.5,31.1l14.6-14.6L154.3,106.3z M108.8,113.3c-22.1,0-40-17.9-40-40
		c0-22.1,17.9-40,40-40c22.1,0,40,17.9,40,40C148.8,95.4,130.9,113.3,108.8,113.3z"/>
	<path class="st0" d="M89.9,88.1c0.8,0,1.6-0.3,2.1-1L119.9,52c0.9-1.2,0.7-2.9-0.4-3.8c-1.2-0.9-2.9-0.7-3.8,0.4L87.8,83.8
		c-0.9,1.2-0.7,2.9,0.4,3.8C88.7,87.9,89.3,88.1,89.9,88.1z"/>
	<path class="st0" d="M99.9,99.3c0.5,0.4,1.1,0.6,1.7,0.6c0.8,0,1.6-0.3,2.1-1l27.9-35.1c0.9-1.2,0.7-2.9-0.4-3.8
		c-1.2-0.9-2.9-0.7-3.8,0.4L99.5,95.5C98.5,96.6,98.7,98.3,99.9,99.3z"/>
</g>
</svg>
