<?xml version="1.0" encoding="utf-8"?>
<!-- Generator: Adobe Illustrator 23.0.0, SVG Export Plug-In . SVG Version: 6.00 Build 0)  -->
<svg version="1.1" id="Capa_1" xmlns="http://www.w3.org/2000/svg" xmlns:xlink="http://www.w3.org/1999/xlink" x="0px" y="0px"
	 viewBox="0 0 120.5 43.8" style="enable-background:new 0 0 120.5 43.8;" xml:space="preserve">
<style type="text/css">
	.st0{fill:none;stroke:#FFFFFF;stroke-miterlimit:10;}
	.st1{fill:#FFFFFF;}
	.st2{fill:none;stroke:#FFFFFF;stroke-width:2;stroke-miterlimit:10;}
	.st3{fill:none;stroke:#9D9D9C;stroke-width:4;stroke-miterlimit:10;}
	.st4{fill:none;stroke:#000000;stroke-width:4;stroke-miterlimit:10;}
	.st5{fill:#9D9D9C;}
	.st6{fill:url(#SVGID_1_);}
	.st7{fill:url(#SVGID_2_);}
	.st8{fill:url(#SVGID_3_);}
	.st9{fill:#010202;}
	.st10{fill:url(#SVGID_4_);}
	.st11{opacity:0.2;fill:#FFFFFF;}
	.st12{filter:url(#Adobe_OpacityMaskFilter);}
	.st13{filter:url(#Adobe_OpacityMaskFilter_1_);}
	.st14{fill:url(#SVGID_7_);}
	.st15{fill:url(#SVGID_8_);}
	.st16{fill:url(#SVGID_9_);}
	.st17{filter:url(#Adobe_OpacityMaskFilter_2_);}
	.st18{fill:url(#SVGID_11_);}
	.st19{fill:url(#SVGID_12_);}
	.st20{fill:url(#SVGID_13_);}
	.st21{filter:url(#Adobe_OpacityMaskFilter_3_);}
	.st22{fill:#155F86;}
	.st23{clip-path:url(#SVGID_16_);fill:#FFFFFF;}
	.st24{clip-path:url(#SVGID_16_);fill:#1B6C98;}
	.st25{clip-path:url(#SVGID_16_);fill:#155F86;}
	.st26{fill:#176086;}
	.st27{clip-path:url(#SVGID_18_);fill:url(#SVGID_19_);}
	.st28{clip-path:url(#SVGID_18_);fill:url(#SVGID_20_);}
	.st29{clip-path:url(#SVGID_18_);fill:url(#SVGID_21_);}
	.st30{clip-path:url(#SVGID_18_);fill:url(#SVGID_22_);}
</style>
<g>
	<path d="M112.6,35.5c0,2.6-2.1,4.7-4.7,4.7H11.5c-2.6,0-4.7-2.1-4.7-4.7V10.3c0-2.6,2.1-4.7,4.7-4.7h96.5c2.6,0,4.7,2.1,4.7,4.7
		V35.5z"/>
	<g>
		<path class="st1" d="M34.4,28.5c-0.6,1.2-0.8,1.8-1.5,2.9c-1,1.5-2.4,3.4-4.2,3.5c-1.6,0-2-1-4.1-1c-2.1,0-2.6,1-4.1,1
			c-1.8,0-3.1-1.7-4.1-3.3c-2.8-4.3-3.1-9.3-1.4-12c1.2-1.9,3.2-3,5-3c1.9,0,3,1,4.6,1c1.5,0,2.4-1,4.6-1c1.6,0,3.4,0.9,4.6,2.4
			C29.7,21.2,30.3,26.9,34.4,28.5z"/>
		<g>
			<path class="st1" d="M27.5,14.8c0.8-1,1.4-2.4,1.2-3.9c-1.3,0.1-2.8,0.9-3.6,2c-0.8,1-1.4,2.4-1.2,3.8
				C25.2,16.7,26.6,15.9,27.5,14.8z"/>
		</g>
	</g>
	<g>
		<g>
			<path class="st1" d="M43,19.5l-4,11.9h1.8l1.2-3.6h3.9l1.2,3.6H49l-4-11.9H43z M43.9,21.4c0.1,0.5,0.3,1.1,0.5,1.7l1.1,3.1h-3.1
				l1.1-3.2C43.6,22.6,43.8,22,43.9,21.4z"/>
			<path class="st1" d="M54.2,22.6c-1.2,0-2.2,0.5-2.9,1.4l-0.1-1.2h-1.6l0,0.2c0,0.7,0.1,1.5,0.1,2.7v9.1h1.8v-4.3
				c0.6,0.7,1.4,1.1,2.5,1.1c1,0,2-0.4,2.7-1.2c0.8-0.8,1.2-2,1.2-3.5c0-1.3-0.4-2.4-1-3.2C56.2,23,55.3,22.6,54.2,22.6z M53.8,24.1
				c1.6,0,2.3,1.5,2.3,3c0,1.9-0.9,3.1-2.4,3.1c-1,0-1.9-0.7-2.1-1.7c0-0.2-0.1-0.4-0.1-0.6v-1.4c0-0.1,0-0.3,0.1-0.4
				c0,0,0-0.1,0-0.1C51.9,24.8,52.8,24.1,53.8,24.1z"/>
			<path class="st1" d="M63.5,22.6c-1.2,0-2.2,0.5-2.9,1.4l-0.1-1.2h-1.6l0,0.2c0,0.7,0.1,1.5,0.1,2.7v9.1h1.8v-4.3
				c0.6,0.7,1.4,1.1,2.5,1.1c1,0,2-0.4,2.7-1.2c0.8-0.8,1.2-2,1.2-3.5c0-1.3-0.4-2.4-1-3.2C65.5,23,64.5,22.6,63.5,22.6z M63,24.1
				c1.6,0,2.3,1.5,2.3,3c0,1.9-0.9,3.1-2.4,3.1c-1,0-1.9-0.7-2.1-1.7c0-0.2-0.1-0.4-0.1-0.6v-1.4c0-0.1,0-0.3,0.1-0.4
				c0,0,0-0.1,0-0.1C61.1,24.8,62,24.1,63,24.1z"/>
			<path class="st1" d="M75.1,24.5c-1.7-0.6-2.2-1.2-2.2-2.1c0-0.8,0.6-1.6,2-1.6c1.2,0,1.9,0.4,2.1,0.5l0.2,0.1l0.5-1.5l-0.1-0.1
				c-0.3-0.2-1.2-0.6-2.6-0.6c-2.3,0-3.9,1.4-3.9,3.3c0,1.6,1,2.7,3.2,3.4c1.5,0.6,2.1,1.2,2.1,2.2c0,1.1-0.9,1.8-2.3,1.8
				c-0.9,0-1.9-0.3-2.6-0.7l-0.2-0.1l-0.5,1.5l0.1,0.1c0.7,0.5,2,0.8,3,0.8c3.1,0,4.2-1.9,4.2-3.5C78.1,26.4,77.2,25.4,75.1,24.5z"
				/>
			<path class="st1" d="M81.3,20.7l-1.8,0.6v1.5h-1.3v1.4h1.3v4.4c0,1.1,0.2,1.8,0.6,2.3c0.4,0.4,1,0.7,1.7,0.7
				c0.7,0,1.2-0.1,1.4-0.2l0.1,0l-0.1-1.4l-0.2,0.1C82.9,30,82.7,30,82.3,30c-0.7,0-1-0.4-1-1.5v-4.3h2.2v-1.4h-2.2V20.7z"/>
			<path class="st1" d="M87.9,22.6c-2.5,0-4.3,1.9-4.3,4.6c0,2.6,1.7,4.4,4.1,4.4h0c2.1,0,4.3-1.4,4.3-4.6c0-1.3-0.4-2.4-1.1-3.2
				C90.2,23,89.2,22.6,87.9,22.6z M87.9,24c1.6,0,2.4,1.6,2.4,3c0,1.8-1,3.1-2.4,3.1h0c-1.4,0-2.4-1.3-2.4-3.1
				C85.5,25.5,86.2,24,87.9,24z"/>
			<path class="st1" d="M97.6,22.7l-0.1,0c-0.2,0-0.3-0.1-0.4-0.1c-0.9,0-1.8,0.6-2.3,1.4l-0.1-1.3h-1.6l0,0.2
				c0,0.7,0.1,1.5,0.1,2.6l0,5.9H95v-4.6c0-0.2,0-0.5,0-0.7c0.2-1.1,0.9-1.8,1.9-1.8c0.2,0,0.3,0,0.5,0l0.2,0V22.7z"/>
			<path class="st1" d="M101.6,22.6c-2.4,0-4.1,1.9-4.1,4.6c0,2.6,1.7,4.3,4.2,4.3c1.4,0,2.3-0.3,2.8-0.5l0.1,0l-0.3-1.3l-0.1,0.1
				c-0.5,0.2-1.1,0.4-2.2,0.4c-0.8,0-2.6-0.3-2.7-2.6l5.8,0l0-0.1c0-0.2,0.1-0.4,0.1-0.7C105.2,24.7,104.3,22.6,101.6,22.6z
				 M101.5,23.9c0.5,0,1,0.2,1.3,0.5c0.5,0.5,0.6,1.3,0.6,1.7h-4.1C99.5,25.1,100.2,23.9,101.5,23.9z"/>
		</g>
		<g>
			<path class="st1" d="M38.9,11.4c0.5-0.1,1.1-0.1,1.7-0.1c1.2,0,2,0.2,2.5,0.7c0.6,0.5,0.9,1.1,0.9,2c0,0.9-0.3,1.7-0.9,2.2
				c-0.6,0.5-1.6,0.8-2.8,0.8c-0.6,0-1.1,0-1.5-0.1V11.4z M39.7,16.4c0.2,0,0.5,0,0.8,0c1.7,0,2.7-0.9,2.7-2.4
				c0-1.3-0.8-2.2-2.5-2.2c-0.4,0-0.7,0-0.9,0.1V16.4z"/>
			<path class="st1" d="M47,17c-1.2,0-2.1-0.8-2.1-2.1c0-1.3,1-2.1,2.2-2.1c1.3,0,2.2,0.8,2.2,2.1C49.2,16.4,48,17,47,17L47,17z
				 M47,16.5c0.8,0,1.4-0.7,1.4-1.6c0-0.7-0.4-1.5-1.3-1.5c-1,0-1.4,0.8-1.4,1.6C45.6,15.8,46.2,16.5,47,16.5L47,16.5z"/>
			<path class="st1" d="M50.5,12.9l0.6,2c0.1,0.4,0.2,0.9,0.3,1.3h0c0.1-0.4,0.3-0.8,0.4-1.3l0.7-2.1h0.7l0.7,2
				c0.2,0.5,0.3,0.9,0.4,1.3h0c0.1-0.4,0.2-0.8,0.3-1.3l0.6-2h0.8l-1.4,4H54L53.3,15c-0.2-0.5-0.3-0.9-0.4-1.3h0
				c-0.1,0.5-0.2,0.9-0.4,1.3l-0.7,1.9H51l-1.4-4H50.5z"/>
			<path class="st1" d="M57,14c0-0.4,0-0.8,0-1.1h0.7l0,0.7h0c0.2-0.4,0.7-0.8,1.5-0.8c0.6,0,1.6,0.3,1.6,1.7v2.4H60v-2.3
				c0-0.6-0.3-1.2-1-1.2c-0.5,0-0.9,0.3-1.1,0.7c0,0.1-0.1,0.2-0.1,0.3v2.4H57V14z"/>
			<path class="st1" d="M62.1,11h0.8v5.9h-0.8V11z"/>
			<path class="st1" d="M66.1,17c-1.2,0-2.1-0.8-2.1-2.1c0-1.3,1-2.1,2.2-2.1c1.3,0,2.2,0.8,2.2,2.1C68.3,16.4,67.2,17,66.1,17
				L66.1,17z M66.1,16.5c0.8,0,1.4-0.7,1.4-1.6c0-0.7-0.4-1.5-1.3-1.5c-1,0-1.4,0.8-1.4,1.6C64.8,15.8,65.3,16.5,66.1,16.5
				L66.1,16.5z"/>
			<path class="st1" d="M72.5,16c0,0.3,0,0.7,0.1,1h-0.7l-0.1-0.5h0C71.5,16.7,71,17,70.4,17c-0.9,0-1.4-0.6-1.4-1.2
				c0-1,1-1.5,2.7-1.5v-0.1c0-0.3-0.1-0.9-1-0.9c-0.4,0-0.9,0.1-1.2,0.3l-0.2-0.5c0.4-0.2,0.9-0.4,1.5-0.4c1.4,0,1.7,0.8,1.7,1.7V16
				z M71.7,14.9c-0.9,0-1.9,0.1-1.9,0.9c0,0.5,0.4,0.7,0.8,0.7c0.6,0,1-0.3,1.1-0.7c0-0.1,0-0.2,0-0.2V14.9z"/>
			<path class="st1" d="M77.7,11v4.9c0,0.4,0,0.8,0,1H77l0-0.7h0c-0.2,0.4-0.8,0.8-1.5,0.8c-1.1,0-1.9-0.8-1.9-2.1
				c0-1.4,0.9-2.2,2-2.2c0.7,0,1.2,0.3,1.4,0.6h0V11H77.7z M76.9,14.5c0-0.1,0-0.2,0-0.3c-0.1-0.5-0.6-0.8-1.2-0.8
				c-0.8,0-1.3,0.7-1.3,1.6c0,0.8,0.5,1.5,1.3,1.5c0.5,0,1-0.3,1.2-0.9c0-0.1,0-0.2,0-0.3V14.5z"/>
			<path class="st1" d="M82.8,17c-1.2,0-2.1-0.8-2.1-2.1c0-1.3,1-2.1,2.2-2.1c1.3,0,2.2,0.8,2.2,2.1C85.1,16.4,83.9,17,82.8,17
				L82.8,17z M82.9,16.5c0.8,0,1.4-0.7,1.4-1.6c0-0.7-0.4-1.5-1.3-1.5c-1,0-1.4,0.8-1.4,1.6C81.5,15.8,82.1,16.5,82.9,16.5
				L82.9,16.5z"/>
			<path class="st1" d="M86.1,14c0-0.4,0-0.8,0-1.1h0.7l0,0.7h0c0.2-0.4,0.7-0.8,1.5-0.8c0.6,0,1.6,0.3,1.6,1.7v2.4h-0.8v-2.3
				c0-0.6-0.3-1.2-1-1.2c-0.5,0-0.9,0.3-1.1,0.7c0,0.1-0.1,0.2-0.1,0.3v2.4h-0.8V14z"/>
			<path class="st1" d="M94.2,11.9v1h1.2v0.6h-1.2v2.2c0,0.5,0.2,0.8,0.6,0.8c0.2,0,0.4,0,0.5,0l0,0.6c-0.2,0-0.4,0.1-0.7,0.1
				c-0.4,0-0.7-0.1-0.9-0.3c-0.2-0.2-0.3-0.6-0.3-1.1v-2.2h-0.7v-0.6h0.7v-0.7L94.2,11.9z"/>
			<path class="st1" d="M96.3,11h0.8v2.5h0c0.1-0.2,0.3-0.4,0.6-0.5c0.2-0.1,0.5-0.2,0.8-0.2c0.6,0,1.6,0.3,1.6,1.7v2.4h-0.8v-2.3
				c0-0.7-0.3-1.2-1-1.2c-0.5,0-0.9,0.3-1.1,0.7c0,0.1-0.1,0.2-0.1,0.4v2.4h-0.8V11z"/>
			<path class="st1" d="M101.9,15c0,1,0.7,1.4,1.5,1.4c0.6,0,0.9-0.1,1.2-0.2l0.1,0.5c-0.3,0.1-0.8,0.3-1.5,0.3
				c-1.4,0-2.2-0.8-2.2-2c0-1.2,0.8-2.2,2.1-2.2c1.5,0,1.8,1.2,1.8,1.9c0,0.1,0,0.3,0,0.3L101.9,15z M104.2,14.5
				c0-0.5-0.2-1.2-1.1-1.2c-0.8,0-1.2,0.7-1.2,1.2H104.2z"/>
		</g>
	</g>
</g>
</svg>
