<?xml version="1.0" encoding="utf-8"?>
<!-- Generator: Adobe Illustrator 23.0.0, SVG Export Plug-In . SVG Version: 6.00 Build 0)  -->
<svg version="1.1" id="Capa_1" xmlns="http://www.w3.org/2000/svg" xmlns:xlink="http://www.w3.org/1999/xlink" x="0px" y="0px"
	 viewBox="0 0 79.4 79.4" style="enable-background:new 0 0 79.4 79.4;" xml:space="preserve">
<style type="text/css">
	.st0{fill:#FFFFFF;}
</style>
<path class="st0" d="M39.8,4.6c-19.8,0-35.8,16-35.8,35.8c0,19.8,16,35.8,35.8,35.8c19.8,0,35.8-16,35.8-35.8
	C75.6,20.6,59.6,4.6,39.8,4.6z M32.5,56.7H20.1c-1.3,0-2.4-1-2.6-2.3c0-0.1,0-0.1,0-0.2l0.1-19.1c-0.1-1.2,0.8-2.2,2-2.2h9.7
	c1.1,0,2.1,0.7,2.5,1.8c0,0,0,0,0,0l2.7,19.9C34.6,55.7,33.7,56.7,32.5,56.7z M61.1,45c0.5,0.7,1,1.8,0.7,3.5
	c-0.2,1.4-1.1,2.3-2.5,2.6c0,0,0,0,0,0.1c0,0,0,0.1,0,0.2c0.4,0.8,0.5,1.8,0.1,2.8c-0.8,2.1-3.3,2.3-4,2.3H44.3
	c-2.2,0-6.4-1.5-8.2-2.2l-2.8-20.4c1.3-1.2,5.4-7.8,5.9-10.5c0.3-1.6,0-2.7-0.2-3.7c-0.2-0.7-0.3-1.3-0.2-2c0.4-1.4,2.3-2.1,3.9-2.1
	c0.3,0,0.5,0,0.7,0c0.7,0.1,1.5,0.6,2.3,1.4c1.4,1.6,2.9,4.8,2.7,7.4c-0.1,1.8-0.1,3.8-0.1,5.1h8.8c1.9,0,3.1,0.9,3.8,1.6
	c1.3,1.4,1.6,3.4,1.5,4.6c-0.1,0.9-0.5,1.7-1.2,2.2c1,0.8,1.7,1.8,1.8,3.3C63.3,43,62.5,44.4,61.1,45z"/>
</svg>
