<?xml version="1.0" encoding="utf-8"?>
<!-- Generator: Adobe Illustrator 23.0.0, SVG Export Plug-In . SVG Version: 6.00 Build 0)  -->
<svg version="1.1" id="Capa_1" xmlns="http://www.w3.org/2000/svg" xmlns:xlink="http://www.w3.org/1999/xlink" x="0px" y="0px"
	 viewBox="0 0 107.7 107.7" style="enable-background:new 0 0 107.7 107.7;" xml:space="preserve">
<style type="text/css">
	.st0{filter:url(#Adobe_OpacityMaskFilter);}
	.st1{fill:#FFFFFF;}
	.st2{mask:url(#SVGID_1_);}
	.st3{fill:#FF0000;}
	.st4{fill:#101099;}
	.st5{fill:#0093DF;}
	.st6{fill:#D9B800;}
	.st7{fill:#20232A;}
	.st8{fill:none;stroke:#0E9FDB;stroke-width:2;stroke-miterlimit:10;}
</style>
<defs>
	<filter id="Adobe_OpacityMaskFilter" filterUnits="userSpaceOnUse" x="-13.7" y="21.5" width="134.3" height="67.8">
		<feColorMatrix  type="matrix" values="1 0 0 0 0  0 1 0 0 0  0 0 1 0 0  0 0 0 1 0"/>
	</filter>
</defs>
<mask maskUnits="userSpaceOnUse" x="-13.7" y="21.5" width="134.3" height="67.8" id="SVGID_1_">
	<g class="st0">
		<circle class="st1" cx="53.6" cy="53.7" r="30.2"/>
	</g>
</mask>
<g class="st2">
	<g>
		<rect x="-13.7" y="21.5" class="st3" width="134.3" height="22.9"/>
		<rect x="-13.7" y="66.7" class="st4" width="134.3" height="22.6"/>
		<rect x="-13.7" y="44.3" class="st1" width="134.3" height="22.3"/>
	</g>
	<path class="st3" d="M40.6,44.3h25.7v17c0,0-1.5,11.6-12.9,11.6c-11.4,0-12.9-10.8-12.9-11.6C40.5,60.5,40.6,44.3,40.6,44.3z"/>
	<g>
		<path class="st1" d="M56,67v5.4h-5.1V67H46v3.6c1.8,1.2,4.2,2.1,7.4,2.1c3.2,0,5.6-0.9,7.4-2.2V67H56z"/>
		<rect x="51.1" y="61.4" class="st1" width="4.7" height="5.4"/>
		<rect x="56" y="56" class="st1" width="4.9" height="5.4"/>
		<rect x="46" y="56" class="st1" width="4.9" height="5.4"/>
		<path class="st1" d="M66.1,44.5H40.8c0,0-0.1,16-0.1,16.8c0,0.4,0.3,2.9,1.9,5.5H46v-5.4h-5v-5.6h5v-5.4h-5v-5.6H46v5.6h4.9v-5.6
			H56v5.6h4.9v-5.6h5.1v5.6h-5v5.4h5v5.6h-5v5.4h3.2c1.7-2.8,2-5.6,2-5.6V44.5z"/>
		<rect x="51.1" y="50.4" class="st1" width="4.7" height="5.4"/>
		<polygon class="st3" points="46,50.4 46,44.9 41,44.9 41,50.4 46,50.4 46,50.4 		"/>
		<polygon class="st3" points="51.1,50.4 55.8,50.4 55.8,50.4 56,50.4 56,44.9 50.9,44.9 50.9,50.4 51.1,50.4 		"/>
		<polygon class="st3" points="46,56 50.9,56 50.9,55.8 51.1,55.8 51.1,50.4 50.9,50.4 50.9,50.4 46,50.4 46,50.4 46,50.4 46,55.8 
			46,55.8 		"/>
		<rect x="46" y="50.4" class="st3" width="0" height="0"/>
		<rect x="50.9" y="50.4" class="st3" width="0.2" height="0"/>
		<polygon class="st3" points="55.8,50.4 55.8,55.8 56,55.8 56,56 60.8,56 60.8,55.8 60.9,55.8 60.9,50.4 60.8,50.4 60.8,50.4 
			56,50.4 56,50.4 		"/>
		<rect x="55.8" y="50.4" class="st3" width="0.2" height="0"/>
		<polygon class="st3" points="60.9,50.4 65.9,50.4 65.9,44.9 60.8,44.9 60.8,50.4 60.9,50.4 		"/>
		<rect x="60.8" y="50.4" class="st3" width="0" height="0"/>
		<polygon class="st3" points="46,61.4 46,56 46,56 46,55.8 41,55.8 41,61.4 46,61.4 46,61.4 		"/>
		<rect x="46" y="55.8" class="st3" width="0" height="0.2"/>
		<polygon class="st3" points="55.8,61.4 56,61.4 56,56 55.8,56 55.8,55.8 51.1,55.8 51.1,56 50.9,56 50.9,61.4 51.1,61.4 
			51.1,61.4 55.8,61.4 		"/>
		<rect x="50.9" y="55.8" class="st3" width="0.2" height="0.2"/>
		<rect x="55.8" y="55.8" class="st3" width="0.2" height="0.2"/>
		<polygon class="st3" points="46,67 50.9,67 50.9,66.8 51.1,66.8 51.1,61.4 50.9,61.4 50.9,61.4 46,61.4 46,61.4 46,61.4 46,66.8 
			46,66.8 		"/>
		<rect x="46" y="61.4" class="st3" width="0" height="0"/>
		<rect x="50.9" y="61.4" class="st3" width="0.2" height="0"/>
		<polygon class="st3" points="60.8,61.4 56,61.4 56,61.4 55.8,61.4 55.8,66.8 56,66.8 56,67 60.8,67 60.8,66.8 60.9,66.8 
			60.9,61.4 60.8,61.4 		"/>
		<rect x="55.8" y="61.4" class="st3" width="0.2" height="0"/>
		<polygon class="st3" points="60.8,56 60.8,61.4 60.9,61.4 60.9,61.4 65.9,61.4 65.9,55.8 60.9,55.8 60.9,56 		"/>
		<rect x="60.8" y="55.8" class="st3" width="0" height="0.2"/>
		<rect x="60.8" y="61.4" class="st3" width="0" height="0"/>
		<path class="st3" d="M46,67v-0.2h-3.5c0.8,1.4,1.9,2.7,3.5,3.8L46,67L46,67z"/>
		<rect x="46" y="66.8" class="st3" width="0" height="0.2"/>
		<polygon class="st3" points="55.8,66.8 51.1,66.8 51.1,67 50.9,67 50.9,72.4 56,72.4 56,67 55.8,67 		"/>
		<rect x="50.9" y="66.8" class="st3" width="0.2" height="0.2"/>
		<rect x="55.8" y="66.8" class="st3" width="0.2" height="0.2"/>
		<path class="st3" d="M60.9,67L60.9,67l0,3.5c1.4-1.1,2.5-2.4,3.3-3.7h-3.2V67z"/>
		<rect x="60.8" y="66.8" class="st3" width="0" height="0.2"/>
	</g>
	<g>
		<g>
			<path class="st1" d="M40.8,43.2l-3.1-7l2.4-3.8l3.8,1.4l2.7-3.1l3.6,2.1l3.2-2.7l3.2,2.6l3.6-2.1l2.6,3.1l4-1.5l2.3,3.9l-3.2,7
				c0,0-5.2-2.8-12.7-2.8C45.7,40.5,40.8,43.2,40.8,43.2z"/>
		</g>
		<g>
			<g>
				<path class="st5" d="M44,34l-3.8-1.3L38,36.2l3,6.6c0,0,1.8-1,4.8-1.7L44,34L44,34z"/>
			</g>
			<g>
				<path class="st4" d="M60.2,31l-3.6,2l0,0L56,40.3c1.9,0.2,3.6,0.5,5,0.9l1.7-7.2L60.2,31z"/>
			</g>
			<g>
				<path class="st5" d="M53.4,30.4L50.2,33l0.6,7.3c0.7-0.1,1.5-0.1,2.3-0.1c1,0,1.9,0,2.8,0.1l0.6-7.3L53.4,30.4z"/>
			</g>
		</g>
		<g>
			<polygon class="st6" points="40.9,34.7 40.7,35.5 39.9,35.8 40.5,36.1 40.5,37 41.1,36.7 41.7,37.2 41.8,36.3 42.6,36.2 42,35.7 
				42.2,35 41.4,35.2 			"/>
			<path class="st7" d="M41.8,37.3l-0.7-0.5l-0.7,0.4l0-1l-0.7-0.4l0.9-0.3l0.2-1l0.6,0.7l0.9-0.2l-0.3,0.8l0.7,0.6l-0.9,0.1
				L41.8,37.3z M41.1,36.6l0.6,0.4l0.1-0.8l0.6-0.1l-0.5-0.5l0.2-0.6l-0.7,0.2l-0.4-0.5l-0.1,0.8l-0.7,0.2l0.5,0.2l0,0.8L41.1,36.6z
				"/>
		</g>
		<g>
			<g>
				<path class="st1" d="M42.7,39.9c-1,0.4-2.1-0.1-2.6-1c0,0.1,0,0.2,0.1,0.3c0.4,1.1,1.6,1.6,2.6,1.2c1.1-0.4,1.6-1.6,1.2-2.7
					c0-0.1-0.1-0.1-0.1-0.2C44.2,38.5,43.6,39.6,42.7,39.9z"/>
				<path class="st7" d="M42.1,40.6c-0.9,0-1.7-0.6-2-1.4c0-0.1-0.1-0.2-0.1-0.3l-0.1-0.7l0.3,0.6c0.3,0.7,1,1.1,1.8,1.1
					c0.2,0,0.5,0,0.7-0.1c0.9-0.3,1.4-1.3,1.2-2.3l-0.1-0.7l0.3,0.6c0,0.1,0.1,0.1,0.1,0.2c0.2,0.5,0.2,1.1,0,1.6
					c-0.2,0.5-0.7,0.9-1.2,1.1C42.6,40.6,42.4,40.6,42.1,40.6z M40.4,39.5c0.4,0.6,1,0.9,1.7,0.9c0.2,0,0.5,0,0.7-0.1
					c0.5-0.2,0.9-0.6,1.1-1c0.1-0.3,0.2-0.7,0.2-1.1C44,39,43.5,39.7,42.7,40c-0.2,0.1-0.5,0.1-0.8,0.1
					C41.4,40.2,40.8,39.9,40.4,39.5z"/>
			</g>
		</g>
		<g>
			<g>
				<path class="st3" d="M50.2,33.1c-3.4,0-5.5,0.7-6.2,1l0.4,1.8c0.9-0.2,3.5-0.9,5.9-0.9L50.2,33.1z"/>
			</g>
			<g>
				<path class="st4" d="M50.2,33L50.2,33L46.7,31L44,34l0,0.1c0.7-0.2,2.8-0.9,6.2-1L50.2,33z"/>
			</g>
			<g>
				<path class="st3" d="M50.6,36.7c-2,0.1-4.8,0.7-5.6,1l0.5,1.8c0.9-0.3,3.2-0.8,5.3-0.8L50.6,36.7z"/>
			</g>
			<g>
				<path class="st4" d="M50.4,35c-2.4,0-5,0.7-5.9,0.9l0.5,1.8c0.8-0.2,3.6-0.9,5.6-1L50.4,35z"/>
			</g>
			<g>
				<path class="st4" d="M45.4,39.5l0.4,1.6c1.4-0.4,3.1-0.7,5-0.8l-0.1-1.7C48.6,38.7,46.4,39.2,45.4,39.5z"/>
			</g>
		</g>
		<g>
			<g>
				<g>
					<path class="st6" d="M53,34.5c0-0.1,0.1-0.4,0.1-0.4l-0.4-0.2l0.4-0.4l-0.6,0.1L52,33.1l0,0.1l0-0.1l-0.4,0.5l-0.6-0.1l0.4,0.4
						l-0.4,0.2c0,0,0.1,0.3,0.1,0.4c0,0.1-0.1,0.2-0.1,0.2s0,0,0.1,0.2c0.1,0.1,0.2,1.1,1,1.1v0c0,0,0,0,0,0c0,0,0,0,0,0l0,0
						c0.8-0.1,0.9-1,1-1.1c0.1-0.1,0.1-0.2,0.1-0.2S53,34.6,53,34.5z"/>
				</g>
				<g>
					<path class="st7" d="M52.1,36.1C52,36.1,52,36.1,52.1,36.1L52.1,36.1C52,36.1,52,36.1,52.1,36.1h-0.1v0
						C51.3,36,51.1,35.3,51,35c0,0,0-0.1,0-0.1c-0.1-0.1-0.1-0.2-0.1-0.2v0l0,0c0,0,0.1-0.1,0.1-0.2c0-0.1-0.1-0.4-0.1-0.4l0-0.1
						l0.4-0.2l-0.5-0.5l0.8,0.1l0.4-0.4l0-0.1L52,33l0.1-0.1l0,0.1l0.4,0.4l0.8-0.1l-0.5,0.5l0.4,0.2l0,0.1c0,0-0.1,0.3-0.1,0.4
						c0,0,0,0.1,0.1,0.2l0,0v0c0,0,0,0.1-0.1,0.2c0,0,0,0.1,0,0.1C53,35.3,52.8,36,52.1,36.1L52.1,36.1L52.1,36.1z M51,34.7
						c0,0,0,0.1,0.1,0.1c0,0,0,0.1,0,0.1c0.1,0.3,0.3,0.9,0.9,1l0,0l0,0c0.6-0.1,0.8-0.7,0.9-1c0-0.1,0-0.1,0-0.1
						c0-0.1,0-0.1,0.1-0.1c0-0.1-0.1-0.2-0.1-0.2c0-0.1,0.1-0.3,0.1-0.4l-0.5-0.2l0.3-0.3l-0.5,0.1L52,33.2h0l-0.4,0.4l-0.5-0.1
						l0.3,0.3L51,34.1c0,0.1,0.1,0.3,0.1,0.4C51.1,34.6,51,34.7,51,34.7z"/>
				</g>
			</g>
			<g>
				<g>
					<path class="st7" d="M51.3,34.8c-0.1,0-0.2,0-0.2,0l0-0.1c0,0,0.5,0.1,0.7-0.1c0.1-0.1,0.1-0.1,0.1-0.2H52c0,0.1,0,0.2-0.1,0.3
						C51.7,34.7,51.4,34.8,51.3,34.8z"/>
				</g>
			</g>
			<g>
				<g>
					<path class="st7" d="M52.8,34.8c-0.2,0-0.4,0-0.6-0.2c-0.1-0.1-0.1-0.2-0.1-0.3h0.1c0,0.1,0,0.2,0.1,0.2
						c0.2,0.2,0.7,0.1,0.7,0.1l0,0.1C52.9,34.8,52.9,34.8,52.8,34.8z"/>
				</g>
			</g>
			<g>
				<g>
					<rect x="51.9" y="34.2" class="st7" width="0.1" height="1.7"/>
				</g>
			</g>
			<g>
				<g>
					<path class="st7" d="M52,34.2L52,34.2c-1-0.5-1-0.6-1-0.6h0.1h-0.1l0,0c0,0,0.5,0.3,0.9,0.5l0.9-0.5l0.1,0.1L52,34.2z"/>
				</g>
			</g>
		</g>
		<g>
			<g>
				<g>
					<path class="st6" d="M55.9,34.5c0-0.1,0.1-0.4,0.1-0.4l-0.4-0.2l0.4-0.4l-0.6,0.1l-0.4-0.5l0,0.1l0-0.1l-0.4,0.5l-0.6-0.1
						l0.4,0.4l-0.4,0.2c0,0,0.1,0.3,0.1,0.4c0,0.1-0.1,0.2-0.1,0.2s0,0,0.1,0.2c0.1,0.1,0.2,1.1,1,1.1l0,0c0,0,0,0,0,0c0,0,0,0,0,0
						v0c0.8-0.1,0.9-1,1-1.1c0.1-0.1,0.1-0.2,0.1-0.2S55.9,34.6,55.9,34.5z"/>
				</g>
				<g>
					<path class="st7" d="M54.9,36.1C54.9,36.1,54.9,36.1,54.9,36.1L54.9,36.1C54.8,36.1,54.8,36.1,54.9,36.1h-0.1v0
						c-0.7-0.1-0.9-0.8-0.9-1.1c0,0,0-0.1,0-0.1c-0.1-0.1-0.1-0.2-0.1-0.2v0l0,0c0,0,0.1-0.1,0.1-0.2c0-0.1-0.1-0.4-0.1-0.4l0-0.1
						l0.4-0.2l-0.5-0.5l0.8,0.1l0.4-0.4l0-0.1l0.1,0.1l0.1-0.1l0,0.1l0.4,0.4l0.8-0.1l-0.5,0.5l0.4,0.2l0,0.1c0,0-0.1,0.3-0.1,0.4
						c0,0,0,0.1,0.1,0.2l0,0v0c0,0,0,0.1-0.1,0.2c0,0,0,0.1,0,0.1C55.8,35.3,55.6,36,54.9,36.1L54.9,36.1L54.9,36.1z M53.8,34.7
						c0,0,0,0.1,0.1,0.1c0,0,0,0.1,0,0.1c0.1,0.3,0.3,0.9,0.9,1l0,0l0,0c0.6-0.1,0.8-0.7,0.9-1c0-0.1,0-0.1,0-0.1
						c0-0.1,0-0.1,0.1-0.1c0-0.1-0.1-0.2-0.1-0.2c0-0.1,0.1-0.3,0.1-0.4l-0.5-0.2l0.3-0.3l-0.5,0.1l-0.4-0.4h0l-0.4,0.4L54,33.6
						l0.3,0.3l-0.5,0.2c0,0.1,0.1,0.3,0.1,0.4C53.9,34.6,53.9,34.7,53.8,34.7z"/>
				</g>
			</g>
			<g>
				<g>
					<path class="st7" d="M54.1,34.8c-0.1,0-0.2,0-0.2,0l0-0.1c0,0,0.5,0.1,0.7-0.1c0.1-0.1,0.1-0.1,0.1-0.2h0.1
						c0,0.1,0,0.2-0.1,0.3C54.6,34.7,54.3,34.8,54.1,34.8z"/>
				</g>
			</g>
			<g>
				<g>
					<path class="st7" d="M55.6,34.8c-0.2,0-0.4,0-0.6-0.2c-0.1-0.1-0.1-0.2-0.1-0.3H55c0,0.1,0,0.2,0.1,0.2
						c0.2,0.2,0.7,0.1,0.7,0.1l0,0.1C55.8,34.8,55.7,34.8,55.6,34.8z"/>
				</g>
			</g>
			<g>
				<g>
					<rect x="54.8" y="34.2" class="st7" width="0.1" height="1.7"/>
				</g>
			</g>
			<g>
				<g>
					<path class="st7" d="M54.8,34.2L54.8,34.2c-1-0.5-1-0.6-1-0.6H54h-0.1l0,0c0,0,0.5,0.3,0.9,0.5l0.9-0.5l0.1,0.1L54.8,34.2z"/>
				</g>
			</g>
		</g>
		<g>
			<g>
				<g>
					<path class="st6" d="M54.4,37.7c0-0.1,0.1-0.4,0.1-0.4l-0.4-0.2l0.4-0.4l-0.6,0.1l-0.4-0.5l0,0.1l0-0.1L53,36.8l-0.6-0.1
						l0.4,0.4l-0.4,0.2c0,0,0.1,0.3,0.1,0.4c0,0.1-0.1,0.2-0.1,0.2s0,0,0.1,0.2c0.1,0.1,0.2,1.1,1,1.1v0c0,0,0,0,0,0c0,0,0,0,0,0
						l0,0c0.8-0.1,0.9-1,1-1.1c0.1-0.1,0.1-0.2,0.1-0.2S54.4,37.8,54.4,37.7z"/>
				</g>
				<g>
					<path class="st7" d="M53.4,39.3C53.4,39.3,53.4,39.3,53.4,39.3L53.4,39.3C53.4,39.3,53.4,39.3,53.4,39.3h-0.1v0
						c-0.7-0.1-0.9-0.8-0.9-1.1c0,0,0-0.1,0-0.1c-0.1-0.1-0.1-0.2-0.1-0.2v0l0,0c0,0,0.1-0.1,0.1-0.2c0-0.1-0.1-0.4-0.1-0.4l0-0.1
						l0.4-0.2l-0.5-0.5l0.8,0.1l0.4-0.4l0-0.1l0.1,0.1l0.1-0.1l0,0.1l0.4,0.4l0.8-0.1l-0.5,0.5l0.4,0.2l0,0.1c0,0-0.1,0.3-0.1,0.4
						c0,0,0,0.1,0.1,0.2l0,0v0c0,0,0,0.1-0.1,0.2c0,0,0,0.1,0,0.1C54.4,38.5,54.2,39.2,53.4,39.3L53.4,39.3L53.4,39.3z M52.4,37.9
						c0,0,0,0.1,0.1,0.1c0,0,0,0.1,0,0.1c0.1,0.3,0.3,0.9,0.9,1l0,0l0,0c0.6-0.1,0.8-0.7,0.9-1c0-0.1,0-0.1,0-0.1
						c0-0.1,0-0.1,0.1-0.1c0-0.1-0.1-0.2-0.1-0.2c0-0.1,0.1-0.3,0.1-0.4L54,37.1l0.3-0.3l-0.5,0.1l-0.4-0.4h0L53,36.9l-0.5-0.1
						l0.3,0.3l-0.5,0.2c0,0.1,0.1,0.3,0.1,0.4C52.5,37.8,52.4,37.9,52.4,37.9z"/>
				</g>
			</g>
			<g>
				<g>
					<path class="st7" d="M52.6,38c-0.1,0-0.2,0-0.2,0l0-0.1c0,0,0.5,0.1,0.7-0.1c0.1-0.1,0.1-0.1,0.1-0.2h0.1c0,0.1,0,0.2-0.1,0.3
						C53.1,38,52.8,38,52.6,38z"/>
				</g>
			</g>
			<g>
				<g>
					<path class="st7" d="M54.1,38c-0.2,0-0.4,0-0.6-0.2c-0.1-0.1-0.1-0.2-0.1-0.3h0.1c0,0.1,0,0.2,0.1,0.2c0.2,0.2,0.7,0.1,0.7,0.1
						l0,0.1C54.3,38,54.2,38,54.1,38z"/>
				</g>
			</g>
			<g>
				<g>
					<rect x="53.3" y="37.4" class="st7" width="0.1" height="1.7"/>
				</g>
			</g>
			<g>
				<g>
					<path class="st7" d="M53.4,37.4L53.4,37.4c-1-0.5-1-0.6-1-0.6h0.1h-0.1l0,0c0,0,0.5,0.3,0.9,0.5l0.9-0.5l0.1,0.1L53.4,37.4z"/>
				</g>
			</g>
		</g>
		<g>
			<g>
				<path class="st6" d="M57.7,34.7c0,0-0.1,0-0.4,0c0,0,0,0.2,0.1,0.2c0,0,0.1,0.3-0.3,0.5c-0.4,0.2,0,0.3,0.1,0.3
					c0.1,0,0.4,0,0.4,0s0,0.5,0,0.6c-0.1,0.1-0.2,0.4-0.1,0.7c0.1,0.3,0.3,0.4,0.1,0.7c-0.2,0.3-0.5,0.7-0.6,0.7
					c0,0,0.2,0.1,0.2,0.1l0,0.2c0,0,0.3-0.3,0.4-0.5c0.1-0.2,0.3-0.4,0.3-0.4c0.1,0-0.3,0.9-0.5,1l0.2,0l0,0.2c0,0,0.3,0,0.4-0.2
					c0.1-0.2,0.3-0.8,0.4-0.8c0.1,0,0.6,0,0.6,0s-0.3,0.6-0.5,0.7c-0.1,0.1-0.1,0.1-0.2,0.1c0,0,0.2,0,0.2,0l0,0.3
					c0,0,0.3-0.1,0.4-0.3c0.1-0.2,0.3-0.5,0.5-0.6c0.1-0.1,0.3-0.1,0.4-0.1c0.1,0,0.1,0.2,0,0.3c0,0-0.3,0.5-0.6,0.6l0.1,0.1l0,0.2
					c0,0,0.3-0.1,0.4-0.3c0.1-0.2,0.4-0.6,0.5-0.7c0.1-0.1,0.4-0.6,0.4-0.8c0-0.2-0.1-0.3,0-0.5c0.2-0.1,0.6-0.3,0.6-0.7
					c0-0.3-0.3-0.3-0.3-0.3s0.1,0.4-0.3,0.4c-0.4,0-0.6-0.1-0.8-0.2c-0.2-0.1-0.9-0.1-1.1-0.2c-0.2-0.1-0.5-0.3-0.6-0.5
					c0-0.2-0.1-0.3-0.1-0.3c0.1,0,0.4,0.1,0.5,0c0,0,0-0.1-0.1-0.2c-0.1-0.1-0.4,0-0.4-0.1C58.3,34.9,58.3,34.8,57.7,34.7z"/>
			</g>
			<g>
				<path class="st7" d="M59.4,39.4l0-0.3L59.1,39l0.2-0.1c0.2-0.1,0.4-0.4,0.5-0.6l0,0c0,0,0-0.1,0-0.1c0,0,0-0.1,0-0.1
					c0,0,0,0,0,0c-0.1,0-0.2,0-0.3,0.1c-0.1,0.1-0.3,0.4-0.4,0.5c-0.1,0.2-0.4,0.3-0.5,0.3l-0.1,0.1l0-0.3c0,0,0,0-0.1,0
					c0,0-0.1,0-0.1-0.1l0-0.1l0.1,0c0,0,0.1-0.1,0.2-0.1c0.1,0,0.2-0.3,0.4-0.5c-0.1,0-0.4,0-0.4,0c-0.1,0.1-0.3,0.6-0.3,0.8
					C58.1,39,57.7,39,57.7,39l-0.1,0l0-0.2l-0.3,0l0.1-0.1c0.1-0.1,0.2-0.3,0.3-0.6c0,0,0,0,0,0.1c-0.1,0.2-0.4,0.5-0.4,0.6
					l-0.1,0.1l-0.1-0.4c-0.2-0.1-0.3-0.1-0.3-0.1l0-0.1l0.1,0c0.1-0.1,0.4-0.4,0.5-0.6c0.1-0.2,0.1-0.2,0-0.4c0-0.1-0.1-0.1-0.1-0.2
					c-0.1-0.3,0.1-0.6,0.1-0.8l0,0c0-0.1,0-0.3,0-0.5c-0.1,0-0.2,0-0.3,0c-0.1,0-0.3-0.1-0.3-0.2c0-0.1,0.1-0.2,0.2-0.3
					c0.2-0.1,0.2-0.2,0.2-0.3c-0.1,0-0.1,0-0.1-0.1c-0.1-0.1,0-0.2,0-0.2l0-0.1l0.1,0c0.2,0,0.3,0,0.3,0l0,0l0,0
					c0.5,0.1,0.6,0.3,0.7,0.3c0,0,0,0,0,0c0,0,0.1,0,0.1,0c0.1,0,0.2,0,0.3,0.1c0.1,0.1,0.1,0.2,0.1,0.3l0,0l0,0c0,0-0.1,0-0.2,0
					l0,0c-0.1,0-0.2,0-0.3,0c0,0,0,0-0.1,0c0,0,0,0,0,0c0,0.1,0,0.1,0.1,0.2c0,0.1,0.3,0.3,0.4,0.4c0,0,0.1,0,0.1,0.1
					c0.1,0.1,0.4,0.1,0.6,0.1c0.2,0,0.3,0,0.4,0.1c0.2,0.1,0.4,0.1,0.8,0.2c0.1,0,0.1,0,0.1,0c0.1-0.1,0-0.2,0-0.3l0-0.1l0.1,0
					c0,0,0,0,0.1,0c0.1,0,0.3,0,0.3,0.4c0,0.3-0.3,0.5-0.5,0.7c0,0-0.1,0.1-0.1,0.1c-0.1,0.1-0.1,0.1,0,0.2c0,0.1,0,0.1,0,0.2
					c0,0.2-0.3,0.7-0.4,0.8c-0.1,0.1-0.4,0.5-0.5,0.7C59.8,39.3,59.5,39.4,59.4,39.4L59.4,39.4z M59.5,39L59.5,39l0,0.2
					c0.1,0,0.2-0.1,0.2-0.2c0.1-0.2,0.4-0.6,0.5-0.7c0.1-0.1,0.4-0.6,0.4-0.8c0,0,0-0.1,0-0.2c0-0.1-0.1-0.3,0.1-0.4
					c0,0,0.1-0.1,0.1-0.1c0.2-0.1,0.4-0.3,0.4-0.5c0-0.1-0.1-0.2-0.1-0.2c0,0.1,0,0.2-0.1,0.3c0,0.1-0.1,0.1-0.3,0.1
					c-0.4,0-0.6-0.1-0.8-0.2c-0.1,0-0.2,0-0.4-0.1c-0.3,0-0.6-0.1-0.7-0.1c0,0-0.1,0-0.1-0.1c-0.2-0.1-0.5-0.3-0.5-0.5
					c0-0.1,0-0.1-0.1-0.2c0-0.1-0.1-0.1,0-0.2c0,0,0-0.1,0.1-0.1c0,0,0.1,0,0.2,0c0.1,0,0.2,0,0.2,0l0,0c0,0,0,0,0.1,0
					c0,0,0-0.1-0.1-0.1c0,0-0.1,0-0.2,0c-0.1,0-0.2,0-0.2-0.1c0,0,0,0,0,0c0-0.1-0.1-0.1-0.6-0.3c0,0-0.1,0-0.2,0l0,0.1
					c0,0.1,0,0.4-0.3,0.6c-0.1,0.1-0.1,0.1-0.1,0.1c0,0,0.1,0.1,0.2,0.1c0.1,0,0.3,0,0.3,0l0.1,0l0,0.1c0,0.1,0,0.5,0,0.6l0,0
					c-0.1,0.1-0.2,0.4-0.1,0.6c0,0.1,0.1,0.1,0.1,0.2c0.1,0.2,0.2,0.3,0,0.6c0,0.1-0.3,0.4-0.5,0.6c0,0,0.1,0,0.1,0l0.1,0l0,0.1
					c0.1-0.1,0.2-0.3,0.3-0.4c0.2-0.4,0.3-0.4,0.4-0.4h0l0,0c0,0,0,0,0.1,0.1c0,0.1-0.2,0.7-0.4,0.9l0.1,0l0,0.2
					c0.1,0,0.2-0.1,0.2-0.1c0-0.1,0.3-0.9,0.4-0.9c0,0,0,0,0.1,0c0.2,0,0.5,0,0.6,0l0.1,0L59.1,38c-0.1,0.1-0.3,0.6-0.5,0.7l0,0
					l0,0.2c0.1-0.1,0.2-0.1,0.3-0.2c0.1-0.2,0.4-0.5,0.5-0.6c0.1-0.1,0.3-0.1,0.4-0.1c0,0,0.1,0,0.1,0c0.1,0,0.1,0.1,0.1,0.2
					c0,0.1,0,0.2-0.1,0.3C59.9,38.5,59.7,38.8,59.5,39z"/>
			</g>
		</g>
		<g>
			<g>
				<path class="st3" d="M57.7,34.8c0,0,0.4-0.4,0.8-0.4c0.4,0,1.1,0.3,1.4,0.3c0.3,0,0.8,0,0.8,0s-0.5,0.3-0.9,0.2
					c-0.4-0.1-0.6-0.2-0.6-0.2s0.5,0.4,0.8,0.5c0.3,0.1,0.7,0.3,1,0.1c0,0-0.5,0.5-1.1,0.2c-0.7-0.3-0.8-0.7-1-0.7
					c-0.3,0.1-0.5,0.2-0.6,0.2c-0.1,0-0.2-0.2-0.2-0.2S57.9,35,57.7,34.8z"/>
			</g>
			<g>
				<path class="st7" d="M60.3,35.7c-0.2,0-0.3,0-0.5-0.1c-0.3-0.2-0.5-0.4-0.7-0.5C59,35,59,34.9,58.9,34.9c-0.1,0-0.3,0.1-0.4,0.1
					c-0.1,0-0.2,0.1-0.2,0.1c-0.1,0-0.2-0.1-0.3-0.2c0,0-0.1,0-0.1,0c-0.1,0-0.2,0-0.3-0.1l-0.1-0.1l0.1-0.1c0,0,0.4-0.5,0.8-0.5
					l0,0c0.2,0,0.5,0.1,0.8,0.2c0.2,0.1,0.4,0.1,0.6,0.1c0.3,0,0.8,0,0.8,0H61l-0.2,0.2c0,0-0.4,0.2-0.7,0.2c-0.1,0-0.2,0-0.2,0
					c0,0-0.1,0-0.1-0.1c0.1,0.1,0.3,0.2,0.4,0.2c0.1,0,0.1,0,0.2,0.1c0.3,0.1,0.6,0.2,0.7,0.1l0.1,0.1C61,35.4,60.8,35.7,60.3,35.7z
					 M58.9,34.7c0.1,0,0.2,0.1,0.4,0.2c0.1,0.1,0.3,0.3,0.6,0.5c0.2,0.1,0.5,0.1,0.7,0c-0.2,0-0.3-0.1-0.5-0.1c-0.1,0-0.1,0-0.2-0.1
					c-0.3-0.1-0.8-0.5-0.8-0.5l-0.3-0.2l0.4,0.1c0,0,0.2,0.1,0.6,0.2c0.1,0,0.4,0,0.5-0.1c-0.1,0-0.3,0-0.4,0
					c-0.2,0-0.4-0.1-0.6-0.2c-0.3-0.1-0.6-0.1-0.8-0.1l0,0c-0.3,0-0.5,0.2-0.7,0.3c0.1,0,0.1,0,0.1,0l0.1-0.1l0.1,0.1
					c0.1,0.1,0.2,0.2,0.2,0.2c0,0,0.1,0,0.1-0.1C58.6,34.8,58.7,34.8,58.9,34.7C58.9,34.7,58.9,34.7,58.9,34.7z"/>
			</g>
		</g>
		<g>
			<g>
				<path class="st5" d="M61,41.2c3,0.8,4.8,1.7,4.8,1.7l0.7-1.5c-2.3-1.4-4.2-1.7-5.1-1.8L61,41.2z"/>
			</g>
			<g>
				<path class="st1" d="M61.4,39.6c0.9,0.1,2.8,0.4,5.1,1.8l0.3-0.6c-2.3-1.5-4.3-1.8-5.2-1.9L61.4,39.6z"/>
			</g>
			<g>
				<path class="st1" d="M62.1,36.7L62,37.4c0.9,0.1,3,0.4,5.4,2l0.3-0.8C65,36.9,62.8,36.7,62.1,36.7z"/>
			</g>
			<g>
				<path class="st5" d="M68.8,36.2l-2.1-3.6L62.8,34l0,0l-0.6,2.7c0.7,0,2.9,0.2,5.6,2L68.8,36.2z"/>
			</g>
			<g>
				<path class="st3" d="M61.6,39c0.9,0.1,2.8,0.4,5.2,1.9l0.6-1.4c-2.5-1.6-4.5-2-5.4-2L61.6,39z"/>
			</g>
		</g>
		<g>
			<path class="st7" d="M62.9,37.7c-0.1,0-0.3,0.1-0.5,0.1c-0.2,0.1-0.1,0.2,0.1,0.2c0.2,0,0.3,0.1,0.3,0.1c0.1,0.1,0.1,0.2,0,0.2
				c-0.1,0-0.5,0.1-0.6,0.2c0,0.1,0.1,0.3,0.2,0.2c0.1-0.1,0.1-0.1,0.3-0.1c0.2,0,0.4,0,0.5,0.1c0.1,0.1,0,0.2-0.2,0.2
				C63,38.9,62.9,39,63,39c0.1,0,0.5,0.1,0.6,0.1c0.2-0.1,0.4,0,0.6-0.1c0.1,0,0.6,0.1,0.4,0.2c-0.1,0-0.6,0-0.5,0.1
				c0.1,0.1,0.2,0.2,0.3,0.2c0.1,0,0.7-0.1,0.7-0.1c0.2,0.1,0.4,0.3,0.4,0.4c0,0.1,0.2,0,0.2,0.1c0,0.1,0,0.3,0.1,0.3
				c0.1,0,0.3-0.1,0.2-0.3c-0.1-0.2-0.4-0.4-0.4-0.6c0-0.1-0.1-0.2,0-0.2c0.1,0,0.7,0.3,0.7,0.4c0,0.1,0.4,0,0.3-0.2
				c-0.1-0.3-0.8-0.4-0.9-0.4c-0.1,0-0.6-0.1-0.7-0.2c-0.1-0.1-0.5-0.1-0.7-0.1c-0.3,0-0.5-0.1-0.6-0.2c-0.1-0.1-0.4-0.1-0.6-0.2
				C63.3,37.9,63.3,37.7,62.9,37.7z"/>
		</g>
		<g>
			<polygon class="st6" points="66.5,33.8 65.8,34.4 65,34 65.2,34.7 64.6,35.3 65.2,35.4 65.4,36.2 66.1,35.7 66.7,36.1 66.6,35.3 
				67.2,35 66.5,34.6 			"/>
			<path class="st7" d="M65.3,36.4l-0.2-0.9l-0.7-0.2l0.7-0.7l-0.3-0.8l0.9,0.4l0.8-0.6l0,0.9l0.8,0.5l-0.7,0.4l0.1,1l-0.7-0.5
				L65.3,36.4z M64.8,35.2l0.5,0.1l0.1,0.7l0.6-0.5l0.5,0.4l-0.1-0.7L67,35l-0.6-0.4l0-0.7l-0.6,0.5l-0.7-0.3l0.2,0.5L64.8,35.2z"/>
		</g>
	</g>
</g>
<circle class="st8" cx="53.4" cy="53.9" r="36.9"/>
</svg>
