<?xml version="1.0" encoding="utf-8"?>
<!-- Generator: Adobe Illustrator 23.0.0, SVG Export Plug-In . SVG Version: 6.00 Build 0)  -->
<svg version="1.1" id="Capa_1" xmlns="http://www.w3.org/2000/svg" xmlns:xlink="http://www.w3.org/1999/xlink" x="0px" y="0px"
	 viewBox="0 0 107.7 107.7" style="enable-background:new 0 0 107.7 107.7;" xml:space="preserve">
<style type="text/css">
	.st0{filter:url(#Adobe_OpacityMaskFilter);}
	.st1{fill:#FFFFFF;}
	.st2{mask:url(#GERMANY_1_);}
	.st3{clip-path:url(#SVGID_2_);fill:#020203;}
	.st4{clip-path:url(#SVGID_2_);fill:#E10720;}
	.st5{clip-path:url(#SVGID_2_);fill:#F7D92A;}
	.st6{clip-path:url(#SVGID_2_);}
	.st7{filter:url(#Adobe_OpacityMaskFilter_1_);}
	.st8{mask:url(#PORTUGAL_1_);}
	.st9{clip-path:url(#SVGID_6_);fill:#E41224;}
	.st10{clip-path:url(#SVGID_6_);fill:#2C692D;}
	.st11{clip-path:url(#SVGID_6_);}
	.st12{clip-path:url(#SVGID_8_);fill:#F1E623;}
	.st13{clip-path:url(#SVGID_8_);}
	.st14{fill:#020203;}
	.st15{fill:none;}
	.st16{clip-path:url(#SVGID_8_);fill:#020203;}
	.st17{fill:#E41224;}
	.st18{clip-path:url(#SVGID_8_);fill:#FFFFFF;}
	.st19{clip-path:url(#SVGID_8_);fill:#E41224;}
	.st20{clip-path:url(#SVGID_8_);fill:#2B307A;}
	.st21{filter:url(#Adobe_OpacityMaskFilter_2_);}
	.st22{mask:url(#UNITED_KINGDOM_1_);}
	.st23{clip-path:url(#SVGID_10_);fill:#FFFFFF;}
	.st24{clip-path:url(#SVGID_10_);fill:#BE1637;}
	.st25{clip-path:url(#SVGID_10_);fill:#293270;}
	.st26{filter:url(#Adobe_OpacityMaskFilter_3_);}
	.st27{mask:url(#NETHERLANDS_1_);}
	.st28{clip-path:url(#SVGID_12_);fill:#324689;}
	.st29{clip-path:url(#SVGID_12_);fill:#FFFFFF;}
	.st30{clip-path:url(#SVGID_12_);fill:#9F1831;}
	.st31{filter:url(#Adobe_OpacityMaskFilter_4_);}
	.st32{mask:url(#NORWAY_1_);}
	.st33{clip-path:url(#SVGID_14_);fill:#DC1F38;}
	.st34{clip-path:url(#SVGID_14_);fill:#FFFFFF;}
	.st35{clip-path:url(#SVGID_14_);fill:#253062;}
	.st36{filter:url(#Adobe_OpacityMaskFilter_5_);}
	.st37{mask:url(#BELGIUM_1_);}
	.st38{clip-path:url(#SVGID_16_);fill:#020203;}
	.st39{clip-path:url(#SVGID_16_);fill:#FFEA37;}
	.st40{clip-path:url(#SVGID_16_);fill:#E62A2F;}
	.st41{filter:url(#Adobe_OpacityMaskFilter_6_);}
	.st42{mask:url(#IRELAND_1_);}
	.st43{clip-path:url(#SVGID_18_);fill:#3D9348;}
	.st44{clip-path:url(#SVGID_18_);fill:#FFFFFF;}
	.st45{clip-path:url(#SVGID_18_);fill:#D80D33;}
	.st46{filter:url(#Adobe_OpacityMaskFilter_7_);}
	.st47{mask:url(#IRELAND_2_);}
	.st48{clip-path:url(#SVGID_20_);fill:#409A63;}
	.st49{clip-path:url(#SVGID_20_);fill:#FFFFFF;}
	.st50{clip-path:url(#SVGID_20_);fill:#EF7F46;}
	.st51{filter:url(#Adobe_OpacityMaskFilter_8_);}
	.st52{mask:url(#SWITZERLAND_1_);}
	.st53{clip-path:url(#SVGID_22_);fill:#C71621;}
	.st54{clip-path:url(#SVGID_22_);fill:#FFFFFF;}
	.st55{filter:url(#Adobe_OpacityMaskFilter_9_);}
	.st56{mask:url(#BULGARIA_1_);}
	.st57{clip-path:url(#SVGID_24_);fill:#FFFFFF;}
	.st58{clip-path:url(#SVGID_24_);fill:#5CB34F;}
	.st59{clip-path:url(#SVGID_24_);fill:#C51D25;}
	.st60{filter:url(#Adobe_OpacityMaskFilter_10_);}
	.st61{mask:url(#ROMANIA_1_);}
	.st62{clip-path:url(#SVGID_26_);fill:#283374;}
	.st63{clip-path:url(#SVGID_26_);fill:#F3D131;}
	.st64{clip-path:url(#SVGID_26_);fill:#BC1733;}
	.st65{filter:url(#Adobe_OpacityMaskFilter_11_);}
	.st66{mask:url(#POLAND_1_);}
	.st67{clip-path:url(#SVGID_28_);fill:#FFFFFF;}
	.st68{clip-path:url(#SVGID_28_);fill:#D80D33;}
	.st69{filter:url(#Adobe_OpacityMaskFilter_12_);}
	.st70{mask:url(#HUNGARY_1_);}
	.st71{clip-path:url(#SVGID_30_);fill:#BC1733;}
	.st72{clip-path:url(#SVGID_30_);fill:#FFFFFF;}
	.st73{clip-path:url(#SVGID_30_);fill:#3D9348;}
	.st74{filter:url(#Adobe_OpacityMaskFilter_13_);}
	.st75{mask:url(#DENMARK_1_);}
	.st76{clip-path:url(#SVGID_32_);fill:#BF153D;}
	.st77{clip-path:url(#SVGID_32_);fill:#FFFFFF;}
	.st78{filter:url(#Adobe_OpacityMaskFilter_14_);}
	.st79{mask:url(#LEBANON_1_);}
	.st80{clip-path:url(#SVGID_34_);fill:#FFFFFF;}
	.st81{clip-path:url(#SVGID_34_);fill:#E53734;}
	.st82{clip-path:url(#SVGID_34_);}
	.st83{filter:url(#Adobe_OpacityMaskFilter_15_);}
	.st84{mask:url(#SLOVENIA_1_);}
	.st85{clip-path:url(#SVGID_38_);fill:#FFFFFF;}
	.st86{clip-path:url(#SVGID_38_);fill:#E41224;}
	.st87{clip-path:url(#SVGID_38_);fill:#3E58A4;}
	.st88{clip-path:url(#SVGID_38_);}
	.st89{clip-path:url(#SVGID_40_);fill:#E41224;}
	.st90{clip-path:url(#SVGID_40_);fill:#3E58A4;}
	.st91{clip-path:url(#SVGID_40_);fill:#F8E72A;}
	.st92{clip-path:url(#SVGID_40_);fill:#FFFFFF;}
	.st93{filter:url(#Adobe_OpacityMaskFilter_16_);}
	.st94{mask:url(#SLOVAKIA_1_);}
	.st95{clip-path:url(#SVGID_42_);fill:#FFFFFF;}
	.st96{clip-path:url(#SVGID_42_);fill:#2C3F92;}
	.st97{clip-path:url(#SVGID_42_);fill:#BC1733;}
	.st98{clip-path:url(#SVGID_42_);}
	.st99{clip-path:url(#SVGID_44_);fill:#FFFFFF;}
	.st100{clip-path:url(#SVGID_44_);fill:#BC1733;}
	.st101{clip-path:url(#SVGID_44_);fill:#2C3F92;}
	.st102{fill:none;stroke:#0E9FDB;stroke-width:2;stroke-miterlimit:10;}
	.st103{filter:url(#Adobe_OpacityMaskFilter_17_);}
	.st104{mask:url(#CZECH_REPUBLIC_2_);}
	.st105{clip-path:url(#SVGID_46_);fill:#C4162B;}
	.st106{clip-path:url(#SVGID_46_);fill:#FFFFFF;}
	.st107{clip-path:url(#SVGID_46_);fill:#2A457C;}
	.st108{filter:url(#Adobe_OpacityMaskFilter_18_);}
	.st109{mask:url(#FRANCE_1_);}
	.st110{clip-path:url(#SVGID_48_);fill:#344093;}
	.st111{clip-path:url(#SVGID_48_);fill:#F4F3F4;}
	.st112{clip-path:url(#SVGID_48_);fill:#D80D33;}
	.st113{filter:url(#Adobe_OpacityMaskFilter_19_);}
	.st114{mask:url(#SPAIN_1_);}
	.st115{clip-path:url(#SVGID_50_);}
	.st116{clip-path:url(#SVGID_52_);fill:#B6182E;}
	.st117{clip-path:url(#SVGID_52_);fill:#F4C328;}
</style>
<defs>
	<filter id="Adobe_OpacityMaskFilter" filterUnits="userSpaceOnUse" x="23.1" y="24" width="88.6" height="59.5">
		<feColorMatrix  type="matrix" values="1 0 0 0 0  0 1 0 0 0  0 0 1 0 0  0 0 0 1 0"/>
	</filter>
</defs>
<mask maskUnits="userSpaceOnUse" x="23.1" y="24" width="88.6" height="59.5" id="PORTUGAL_1_">
	<g class="st0">
		<circle class="st1" cx="53.8" cy="54.1" r="29.2"/>
	</g>
</mask>
<g id="PORTUGAL_5_" class="st8">
	<g>
		<g>
			<defs>
				<polygon id="SVGID_5_" points="23.4,24 111.7,24.6 111.3,83.5 23.1,82.8 				"/>
			</defs>
			<clipPath id="SVGID_2_">
				<use xlink:href="#SVGID_5_"  style="overflow:visible;"/>
			</clipPath>
			<polygon style="clip-path:url(#SVGID_2_);fill:#E41224;" points="53.9,83.1 111.3,83.5 111.7,24.6 54.3,24.2 			"/>
			<polygon style="clip-path:url(#SVGID_2_);fill:#2C692D;" points="23.1,82.8 53.9,83.1 54.3,24.2 23.4,24 			"/>
			<g class="st6">
				<defs>
					<polygon id="SVGID_7_" points="23.4,24 111.7,24.6 111.3,83.5 23.1,82.8 					"/>
				</defs>
				<clipPath id="SVGID_4_">
					<use xlink:href="#SVGID_7_"  style="overflow:visible;"/>
				</clipPath>
				<path style="clip-path:url(#SVGID_4_);fill:#F1E623;" d="M64.1,62.8c-3.9-0.2-21.6-13-21.7-15l1-1.9c1.8,3,19.9,15.5,21.7,15
					L64.1,62.8L64.1,62.8z"/>
				<path style="clip-path:url(#SVGID_4_);fill:#F1E623;" d="M43.2,45.7c-0.4,1.1,4.6,4.6,10.6,8.9c6,4.2,11.2,6.9,11.6,6.5
					c0,0,0.2-0.4,0.2-0.4c-0.1,0.1-0.3,0.2-0.5,0.1c-1.6-0.5-5.8-2.8-11.1-6.5c-5.2-3.7-9.8-7.1-10.5-8.5c0-0.1-0.1-0.3-0.1-0.4l0,0
					L43.2,45.7L43.2,45.7L43.2,45.7z M64.2,62.9C64.1,63,64,63.1,63.8,63c-1.5-0.2-5.9-2.7-11.1-6.3c-6-4.2-11-8-10.5-9l0.1-0.3l0,0
					c-0.5,1.7,9.8,8.5,10.5,9c6,4.3,11,6.8,11.5,6.2L64.2,62.9L64.2,62.9z"/>
				<g style="clip-path:url(#SVGID_4_);">
					<path class="st14" d="M64,63.1c-0.1,0-0.1,0-0.2,0c-1.5-0.2-5.9-2.7-11.1-6.3C45.9,52,42.4,49.1,42.2,48c0-0.1,0-0.2,0-0.3
						l0.1-0.3c0,0,0,0.1,0,0.1l-0.1,0.2c0,0.1,0,0.1,0,0.3c0.2,1.1,3.7,4,10.5,8.7c5.1,3.6,9.6,6.1,11,6.3c0.2,0,0.3,0,0.4-0.1
						l0.1-0.2c0,0-0.1,0-0.2,0c-1.2,0-5.8-2.4-11.2-6.3c-0.1,0-0.2-0.1-0.4-0.3c-6.7-4.6-10.1-7.5-10.1-8.6
						c0.1,0.7,1.7,2.8,10.1,8.5c0.2,0.1,0.4,0.2,0.4,0.3c5.5,3.9,10,6.3,11.2,6.3c0.1,0,0.2,0,0.3-0.1l0,0c0,0,0,0.1,0,0.1l-0.1,0.3
						C64.2,63.1,64.1,63.1,64,63.1L64,63.1z M65.2,61.1c-0.9,0-5.8-2.6-11.4-6.5c-6.4-4.6-11-7.9-10.6-8.9l0.2-0.4c0,0,0,0,0,0
						l-0.1,0.3c-0.4,1.1,5.4,5.2,10.6,8.9C59.4,58.5,64.3,61,65.2,61.1c0.1-0.1,0.1-0.1,0.1-0.1c0-0.1,0.1-0.1,0.1-0.2
						c-0.1,0-0.2,0-0.4,0c-1.8-0.6-6.2-3-11.1-6.5c-4.8-3.4-9.7-7-10.5-8.5c0-0.1-0.1-0.3-0.1-0.4c0.1,0.1,0.1,0.3,0.1,0.4
						c0.7,1.5,6,5.3,10.5,8.5c4.9,3.5,9.3,5.9,11.1,6.5c0.2,0.1,0.4,0.1,0.5,0c0.1,0,0.1,0-0.1,0.3C65.3,61.1,65.3,61.1,65.2,61.1
						L65.2,61.1z"/>
				</g>
				<path style="clip-path:url(#SVGID_4_);fill:#F1E623;" d="M54.1,49.1c3.9,0,8.7-0.5,11.5-1.8L65,46.2c-1.6,1-6.5,1.7-10.9,1.7
					c-5.2-0.1-8.9-0.7-10.8-2.1L42.8,47C46.2,48.7,49.7,49.1,54.1,49.1L54.1,49.1z"/>
				<path style="clip-path:url(#SVGID_4_);fill:#F1E623;" d="M65.8,47.4c-0.1,0.2-1.9,0.9-4.6,1.4c-1.8,0.3-4.2,0.6-7.1,0.5
					c-2.8,0-5.1-0.3-6.8-0.5c-2.8-0.5-4.2-1.2-4.7-1.5c0.1-0.1,0.1-0.2,0.1-0.3c1.5,0.7,3,1.1,4.7,1.4c1.7,0.3,4,0.5,6.7,0.5
					c2.9,0,5.2-0.3,7-0.5c2.7-0.5,4.2-1.1,4.4-1.4L65.8,47.4L65.8,47.4z M65.3,46.2c-0.3,0.3-1.8,0.9-4.4,1.3
					C59.2,47.8,57,48,54.2,48c-2.7,0-4.8-0.2-6.5-0.5c-2.6-0.4-4-1.1-4.5-1.3c0.1-0.1,0.1-0.2,0.2-0.3c0.4,0.2,1.7,0.9,4.4,1.3
					c1.6,0.3,3.8,0.5,6.5,0.5c2.8,0,5-0.2,6.7-0.5c2.6-0.4,4-1.1,4.2-1.3L65.3,46.2L65.3,46.2z"/>
				<g style="clip-path:url(#SVGID_4_);">
					<path class="st14" d="M54,49.3c-2.3,0-4.6-0.2-6.7-0.5c-2.7-0.5-4.2-1.2-4.7-1.5l0-0.2l0.1-0.2c1.5,0.7,2.9,1.1,4.7,1.4
						c2.1,0.3,4.3,0.5,6.7,0.5c2.4,0,4.7-0.2,7.1-0.5c2.7-0.5,4.2-1.1,4.4-1.4l0.3,0.4c-0.1,0.2-2,0.9-4.6,1.4
						C59,49.1,56.6,49.3,54,49.3L54,49.3L54,49.3z M42.7,47l-0.1,0.3c0.6,0.2,2,0.9,4.7,1.4c2.1,0.3,4.3,0.5,6.7,0.5l0,0l0.1,0
						c2.5,0,4.9-0.2,7.1-0.5c2.7-0.5,4.5-1.2,4.5-1.4L65.6,47c-0.1,0.3-1.5,0.9-4.4,1.4c-2.4,0.4-4.7,0.6-7,0.5
						c-2.4,0-4.6-0.2-6.7-0.5C45.6,48.1,44.2,47.7,42.7,47L42.7,47z M54.1,48.1c-2.4,0-4.6-0.2-6.4-0.5c-2.3-0.4-3.7-1-4.3-1.3
						l-0.2-0.1l0.1-0.3c0,0,0.1-0.1,0.1-0.1c0.2,0.1,1.5,0.8,4.4,1.3c1.3,0.2,3.4,0.5,6.4,0.5c2.4,0,4.5-0.1,6.7-0.5
						c2.5-0.4,4-1.1,4.2-1.3l0.2,0.4c-0.3,0.3-1.7,0.9-4.4,1.4C58.7,47.9,56.5,48.1,54.1,48.1L54.1,48.1L54.1,48.1z M43.3,45.9
						l-0.1,0.3l0.2,0c0.6,0.3,2,0.9,4.3,1.2c1.9,0.3,4.1,0.5,6.4,0.5l0,0l0,0c2.4,0,4.5-0.1,6.7-0.5c2.6-0.5,4.1-1,4.3-1.3L65,45.9
						c-0.1,0.2-1.5,0.9-4.2,1.4c-2.2,0.4-4.4,0.5-6.7,0.5c-3,0-5.2-0.3-6.5-0.5C44.8,46.7,43.5,46,43.3,45.9L43.3,45.9z"/>
				</g>
				<path style="clip-path:url(#SVGID_4_);fill:#F1E623;" d="M41.3,54.4c2.4,1.5,7.7,2.3,12.7,2.4c4.6,0,10.5-0.7,12.8-2.1l-0.1-1.5
					c-0.7,1.2-7.1,2.4-12.8,2.3c-5.7-0.1-10.9-1.1-12.7-2.4L41.3,54.4L41.3,54.4z"/>
				<path style="clip-path:url(#SVGID_4_);fill:#F1E623;" d="M67,54.4l0,0.3c-0.3,0.5-2.4,1.1-5.1,1.6c-2,0.3-4.6,0.6-7.9,0.6
					c-3.1,0-5.6-0.3-7.5-0.6c-3-0.5-5-1.4-5.3-1.7l0-0.4c1.2,0.9,4.3,1.6,5.4,1.8c1.9,0.3,4.4,0.6,7.4,0.6c3.2,0,5.8-0.2,7.8-0.6
					C63.7,55.7,66.4,54.9,67,54.4L67,54.4z M67,53.1l0,0.4c-0.3,0.5-2.4,1.1-5.1,1.6c-2,0.3-4.6,0.6-7.9,0.6c-3.1,0-5.6-0.3-7.5-0.6
					c-3-0.5-5-1.4-5.3-1.7l0-0.4c1.2,0.9,4.3,1.6,5.4,1.8c1.9,0.3,4.4,0.6,7.4,0.6c3.2,0,5.8-0.2,7.8-0.6
					C63.8,54.4,66.5,53.6,67,53.1L67,53.1z"/>
				<g style="clip-path:url(#SVGID_4_);">
					<path class="st14" d="M54,56.9c-2.7,0-5.3-0.2-7.5-0.6c-2.9-0.5-4.9-1.4-5.4-1.7l0-0.4c1.2,0.9,4.5,1.5,5.4,1.7
						c2.2,0.4,4.7,0.6,7.4,0.6c2.9,0,5.5-0.2,7.8-0.6c1.9-0.3,4.6-1.1,5.1-1.6l0.1,0.4c-0.4,0.5-2.5,1.2-5.1,1.6
						C59.6,56.7,56.9,56.9,54,56.9L54,56.9z M41.2,54.2l0.1,0.4c0.3,0.2,2.1,1.1,5.3,1.6c2.2,0.4,4.7,0.6,7.5,0.6
						c2.9,0,5.5-0.2,7.9-0.6c2.5-0.5,4.7-1.1,5.1-1.6l0-0.3c-0.5,0.6-3.2,1.4-5.1,1.7c-2.3,0.4-5,0.6-7.8,0.6
						c-2.7,0-5.2-0.2-7.4-0.6C45.3,55.7,42.3,55.1,41.2,54.2L41.2,54.2z M54,55.7c-2.7,0-5.3-0.2-7.5-0.7c-2.9-0.5-4.9-1.4-5.4-1.7
						l0-0.4c1.2,0.9,4.5,1.5,5.4,1.7c2.2,0.4,4.7,0.6,7.4,0.6c2.9,0,5.5-0.2,7.8-0.6c1.9-0.3,4.6-1.1,5.1-1.6l0.1,0.4
						c-0.4,0.5-2.5,1.2-5.1,1.6C59.6,55.5,56.9,55.7,54,55.7L54,55.7z M41.2,52.9l0.1,0.4c0.3,0.2,2.1,1.1,5.3,1.7
						c2.2,0.4,4.7,0.6,7.5,0.6c2.9,0,5.6-0.2,7.9-0.6c2.6-0.5,4.7-1.1,5.1-1.6l0-0.3c-0.5,0.6-3.2,1.4-5.1,1.7
						c-2.3,0.4-5,0.6-7.8,0.6c-2.7,0-5.2-0.2-7.4-0.6C45.3,54.5,42.3,53.8,41.2,52.9L41.2,52.9z"/>
				</g>
				<path style="clip-path:url(#SVGID_4_);fill:#F1E623;" d="M54,62.5c-5.5-0.1-10.2-1.8-11.2-2.1l0.7,1.3c1.8,0.9,6.3,2.2,10.5,2
					c4.2-0.1,7.8-0.5,10.4-1.9l0.7-1.3C63.5,61.5,57.5,62.5,54,62.5L54,62.5z"/>
				<path style="clip-path:url(#SVGID_4_);fill:#F1E623;" d="M64.8,61.6c-0.1,0.2-0.2,0.4-0.3,0.6c-1.2,0.5-3.1,1-3.9,1.1
					c-1.6,0.4-4.2,0.6-6.5,0.6c-4.9-0.1-8.9-1.2-10.7-2.2l-0.1-0.3l0,0l0.3,0.1c3.3,1.4,7.1,2,10.6,2.1c2.3,0,4.5-0.3,6.3-0.6
					C63.2,62.4,64.3,61.9,64.8,61.6L64.8,61.6L64.8,61.6z M65.4,60.4C65.4,60.4,65.4,60.4,65.4,60.4c-0.1,0.2-0.2,0.3-0.2,0.5
					c-0.6,0.3-2.4,0.8-5,1.2c-1.7,0.2-2.7,0.5-6.1,0.5c-6.3-0.2-10.4-1.7-11.3-2l-0.1-0.3c3.7,1.1,7.4,1.9,11.5,2
					c3.1-0.1,4.4-0.3,6.1-0.6c3-0.5,4.5-1.1,5-1.2c0,0,0,0,0,0L65.4,60.4L65.4,60.4z"/>
				<g style="clip-path:url(#SVGID_4_);">
					<path class="st14" d="M54,64L54,64c-5-0.1-8.9-1.2-10.7-2.2l-0.2-0.3c0,0,0.1-0.1,0.1-0.1l0,0l0.3,0.1c3,1.2,6.5,1.9,10.6,2.1
						c0,0,0,0,0,0c2.6,0,4.8-0.3,6.3-0.6c3.1-0.7,4.1-1.2,4.3-1.3c0,0,0,0,0.1,0c0,0,0,0,0,0l0,0l0,0c0,0,0,0,0,0
						c-0.1,0.2-0.2,0.4-0.3,0.6c-1.2,0.5-3.1,1-4,1.1C58.8,63.8,56.2,64,54,64L54,64z M43.2,61.5l0.2,0.3c2,1,6.1,2.1,10.7,2.2
						c2.2,0,4.7-0.2,6.5-0.6c0.8-0.1,2.7-0.6,3.9-1.1c0.1-0.1,0.2-0.3,0.2-0.4c-0.3,0.2-1.3,0.6-4.3,1.3c-1.5,0.3-3.8,0.6-6.3,0.6
						l0,0c-4.2-0.1-7.8-0.8-10.7-2.1L43.2,61.5L43.2,61.5z M54.1,62.7L54.1,62.7c-5.6-0.2-9.5-1.4-11.4-2l-0.2-0.3
						c4.2,1.2,7.9,1.9,11.5,2c2.7-0.1,4.1-0.3,5.5-0.5l0.6-0.1c2.9-0.5,4.4-1,4.9-1.2l0.4-0.2l0,0l-0.3,0.2c-0.5,0.2-2.1,0.8-5,1.2
						l-0.5,0.1c-1.4,0.2-2.8,0.4-5.5,0.5c-3.7-0.1-7.3-0.7-11.5-2l0.2,0.3C44.6,61.3,48.5,62.4,54.1,62.7c2.9-0.1,4-0.3,5.4-0.5
						l0.7-0.1c2.3-0.4,4.1-0.9,5-1.2l0.2-0.5l-0.2,0.5c-0.9,0.4-2.7,0.9-5,1.2l-0.7,0.1C58.1,62.5,57,62.7,54.1,62.7L54.1,62.7
						L54.1,62.7z"/>
				</g>
				<path style="clip-path:url(#SVGID_4_);fill:#F1E623;" d="M54.2,40.6c6.3,0,11.4,6,11.3,13.2c0,7.2-5.2,13-11.5,13
					c-6.3,0-11.4-5.9-11.4-13.2C42.7,46.3,47.8,40.5,54.2,40.6L54.2,40.6z M54.2,39.3c6.9,0.1,12.5,6.6,12.5,14.5
					c0,7.9-5.7,14.3-12.7,14.3c-6.9-0.1-12.5-6.6-12.5-14.5C41.6,45.6,47.2,39.2,54.2,39.3L54.2,39.3z"/>
				<path style="clip-path:url(#SVGID_4_);fill:#F1E623;" d="M54.2,39.1c7,0.1,12.7,6.6,12.6,14.7c0,8-5.8,14.5-12.8,14.5
					c-7-0.1-12.7-6.6-12.6-14.7C41.4,45.5,47.2,39,54.2,39.1L54.2,39.1z M54.2,39.4c6.8,0.1,12.4,6.5,12.4,14.3
					c0,7.8-5.7,14.2-12.5,14.2c-6.8-0.1-12.4-6.5-12.4-14.3C41.7,45.7,47.3,39.4,54.2,39.4L54.2,39.4z"/>
				<g style="clip-path:url(#SVGID_4_);">
					<path class="st14" d="M54,68.3c-7-0.1-12.7-6.6-12.7-14.7c0-8.1,5.8-14.6,12.9-14.5c7,0.1,12.7,6.7,12.7,14.7
						C66.8,61.8,61,68.3,54,68.3L54,68.3z M54.2,39.1c-7-0.1-12.7,6.4-12.8,14.4c0,8,5.6,14.6,12.6,14.6c7,0.1,12.7-6.4,12.8-14.4
						C66.8,45.7,61.2,39.2,54.2,39.1L54.2,39.1z M54,68c-6.9-0.1-12.5-6.5-12.4-14.4c0-7.9,5.7-14.3,12.6-14.2
						c6.9,0.1,12.5,6.5,12.4,14.4C66.5,61.6,60.9,68,54,68L54,68z M54.2,39.5c-6.8-0.1-12.5,6.3-12.5,14.1c0,7.8,5.5,14.2,12.3,14.3
						c6.8,0.1,12.5-6.3,12.5-14.1C66.6,45.9,61,39.5,54.2,39.5L54.2,39.5z"/>
				</g>
				<path style="clip-path:url(#SVGID_4_);fill:#F1E623;" d="M54.2,40.3c6.4,0,11.6,6.1,11.6,13.4C65.7,61.1,60.4,67,54,67
					c-6.4,0-11.6-6.1-11.6-13.4C42.5,46.2,47.8,40.3,54.2,40.3L54.2,40.3z M54.2,40.6c6.2,0,11.4,5.9,11.3,13.1
					c0,7.2-5.2,13-11.5,12.9c-6.2,0-11.4-5.9-11.3-13.1C42.8,46.4,47.9,40.6,54.2,40.6L54.2,40.6z"/>
				<g style="clip-path:url(#SVGID_4_);">
					<path class="st14" d="M54,67c-6.5,0-11.7-6.1-11.6-13.5c0-7.4,5.3-13.4,11.8-13.3c6.5,0,11.7,6.1,11.6,13.5
						C65.8,61.1,60.5,67.1,54,67L54,67z M54.2,40.3c-6.4,0-11.7,5.9-11.7,13.2c0,7.3,5.1,13.3,11.6,13.4c6.4,0,11.7-5.9,11.7-13.2
						C65.8,46.4,60.6,40.4,54.2,40.3L54.2,40.3z M54,66.7c-6.3,0-11.4-5.9-11.3-13.2c0-7.2,5.2-13,11.5-13c6.3,0,11.4,5.9,11.3,13.2
						C65.5,60.9,60.3,66.8,54,66.7L54,66.7z M54.2,40.7c-6.3,0-11.4,5.7-11.4,12.9c0,7.2,5,13,11.3,13.1c6.3,0,11.4-5.7,11.4-12.9
						C65.5,46.6,60.4,40.7,54.2,40.7L54.2,40.7z"/>
				</g>
				<polygon style="clip-path:url(#SVGID_4_);fill:#F1E623;" points="53.5,68.3 54.6,68.3 54.8,39 53.7,39 				"/>
				<g style="clip-path:url(#SVGID_4_);">
					<path class="st15" d="M53.8,39l0.8,0L53.8,39z"/>
				</g>
				<g style="clip-path:url(#SVGID_4_);">
					<path class="st15" d="M53.6,68.3l0.8,0L53.6,68.3z"/>
				</g>
				<path style="clip-path:url(#SVGID_4_);fill:#F1E623;" d="M54.6,38.9l0.3,0l-0.2,29.6l-0.3,0L54.6,38.9L54.6,38.9z M53.5,38.9
					l0.3,0l-0.2,29.6l-0.3,0L53.5,38.9L53.5,38.9z"/>
				<g style="clip-path:url(#SVGID_4_);">
					<path class="st14" d="M54.7,68.5l-0.3,0l0.1-29.7l0.3,0L54.7,68.5C54.7,68.5,54.7,68.5,54.7,68.5
						C54.7,68.5,54.7,68.5,54.7,68.5L54.7,68.5z M54.8,38.9l-0.2,0l-0.1,29.6l0.2,0L54.8,38.9L54.8,38.9z M53.6,68.5l-0.3,0
						l0.1-29.7l0.3,0L53.6,68.5C53.7,68.5,53.6,68.5,53.6,68.5C53.6,68.5,53.6,68.5,53.6,68.5L53.6,68.5z M53.8,38.9l-0.2,0
						l-0.1,29.6l0.2,0L53.8,38.9L53.8,38.9z"/>
				</g>
				<path style="clip-path:url(#SVGID_4_);fill:#F1E623;" d="M41.3,52.9c1.6-1.7,7.5-2.7,12.7-2.7c5.2,0.1,11.4,1.3,12.8,2.8l0,1.3
					c-1.1-1.2-5.9-2.7-12.8-2.8c-6.8-0.1-11.8,1.4-12.7,2.6L41.3,52.9L41.3,52.9z"/>
				<g style="clip-path:url(#SVGID_4_);">
					<path class="st14" d="M41.3,54.1L41.3,53c0,0,0.1,0,0.1,0L41.3,54.1L41.3,54.1z"/>
				</g>
				<g style="clip-path:url(#SVGID_4_);">
					<path class="st14" d="M66.9,54.3l-0.1-1.1c0,0,0.1,0,0.1,0L66.9,54.3L66.9,54.3z"/>
				</g>
				<path style="clip-path:url(#SVGID_4_);fill:#F1E623;" d="M54.1,51.4c3,0,5.9,0.4,8.2,0.9c2.4,0.6,4.1,1.3,4.6,2l0,0.4
					c-0.7-1-2.9-1.7-4.7-2.1c-2.3-0.5-5.2-0.9-8.2-0.9c-3.2,0-6.1,0.3-8.4,0.8c-1.8,0.4-4.2,1.2-4.6,2l0-0.4c0.2-0.6,2-1.4,4.5-1.9
					C48,51.7,50.9,51.4,54.1,51.4L54.1,51.4z M54.1,50.2c3,0,5.9,0.4,8.2,0.9c2.4,0.6,4.1,1.3,4.6,2l0,0.4c-0.7-1-2.9-1.7-4.7-2.1
					c-2.3-0.5-5.2-0.9-8.2-0.9c-3.2,0-6.1,0.3-8.4,0.8c-1.7,0.4-4.3,1.2-4.6,2l0-0.4c0.2-0.6,2-1.4,4.5-1.9
					C48,50.4,50.9,50.1,54.1,50.2L54.1,50.2z"/>
				<g style="clip-path:url(#SVGID_4_);">
					<path class="st14" d="M41.2,54.6C41.2,54.6,41.2,54.6,41.2,54.6C41.2,54.6,41.2,54.5,41.2,54.6l0-0.4c0.2-0.6,2.1-1.4,4.5-2
						c2.4-0.5,5.4-0.8,8.4-0.8c2.9,0,5.8,0.3,8.2,0.9c2.5,0.6,4.1,1.3,4.7,2l0,0.4c-0.8-1-3.3-1.7-4.7-2c-2.4-0.6-5.3-0.9-8.1-0.9
						c-3,0-6,0.3-8.5,0.8C43.8,53,41.5,53.8,41.2,54.6C41.2,54.6,41.2,54.6,41.2,54.6L41.2,54.6z M54.1,51.7c2.9,0,5.8,0.3,8.2,0.9
						c1.4,0.3,4,1.1,4.7,2.1l-0.1-0.3c-0.5-0.7-2.1-1.4-4.6-2c-2.4-0.6-5.3-0.9-8.2-0.9c-3,0-6,0.3-8.5,0.8
						c-2.7,0.6-4.3,1.4-4.5,1.9l0,0.2c0.5-0.8,3-1.6,4.5-1.9C48.2,52,51.2,51.7,54.1,51.7L54.1,51.7z M41.2,53.3
						C41.2,53.3,41.2,53.3,41.2,53.3C41.2,53.3,41.2,53.3,41.2,53.3l0-0.4c0.2-0.6,2.1-1.5,4.5-2c2.4-0.5,5.4-0.8,8.4-0.8
						c2.9,0,5.8,0.3,8.2,0.9c2.5,0.6,4.1,1.3,4.7,2.1l0,0.4c-0.8-1-3.3-1.7-4.7-2c-2.4-0.6-5.3-0.9-8.1-0.9c-3,0-6,0.3-8.4,0.8
						C43.8,51.7,41.5,52.6,41.2,53.3C41.2,53.3,41.2,53.3,41.2,53.3L41.2,53.3z M54.1,50.4c2.9,0,5.8,0.3,8.2,0.9
						c1.4,0.3,4,1.1,4.7,2.1L67,53.1c-0.5-0.7-2.1-1.4-4.6-2c-2.4-0.6-5.3-0.9-8.1-0.9c-3.1,0-6.1,0.3-8.5,0.8
						c-2.6,0.6-4.3,1.4-4.5,1.9l0,0.2c0.5-0.8,2.9-1.6,4.5-1.9C48.2,50.7,51.2,50.4,54.1,50.4L54.1,50.4z"/>
				</g>
				<path style="clip-path:url(#SVGID_4_);fill:#F1E623;" d="M54.1,43.8c4.7,0,8.9,0.8,10.8,1.9l0.7,1.4c-1.6-1-6.1-2.1-11.4-2
					c-4.4,0-9,0.5-11.4,1.9l0.8-1.6C45.5,44.3,50,43.8,54.1,43.8L54.1,43.8z"/>
				<g style="clip-path:url(#SVGID_4_);">
					<path class="st15" d="M65,45.9l0.5,0.9L65,45.9z"/>
				</g>
				<path style="clip-path:url(#SVGID_4_);fill:#F1E623;" d="M54.2,44.9c2.7,0,5.3,0.2,7.4,0.7c1.9,0.4,3.8,1.1,4,1.4l0.2,0.4
					c-0.6-0.5-2.2-1-4.3-1.5c-2.1-0.5-4.7-0.6-7.4-0.6c-3.1,0-5.4,0.1-7.5,0.5c-2.2,0.4-3.7,1.1-4,1.4l0.2-0.4
					c0.7-0.4,1.9-0.9,3.8-1.3C48.7,45,51.1,44.9,54.2,44.9L54.2,44.9z M54.2,43.7c2.6,0,5.1,0.2,7.1,0.6c1.6,0.4,3.1,0.9,3.7,1.4
					l0.3,0.5c-0.5-0.6-2.4-1.3-4.1-1.6c-2-0.4-4.4-0.6-7-0.6c-2.7,0-5.2,0.2-7.2,0.5c-1.9,0.4-3.1,0.9-3.6,1.2l0.3-0.5
					c0.7-0.4,1.8-0.8,3.3-1.1C48.9,43.8,51.4,43.6,54.2,43.7L54.2,43.7z"/>
				<g style="clip-path:url(#SVGID_4_);">
					<path class="st14" d="M65.8,47.4C65.8,47.4,65.8,47.4,65.8,47.4c-0.6-0.5-2.2-1-4.3-1.5c-1.8-0.4-4.2-0.6-7.1-0.6l-0.2,0
						l-0.3,0c-2.9,0-5.2,0.1-7.2,0.5c-2.1,0.4-3.6,1.1-4,1.4l0.1-0.5c1-0.6,2.2-1,3.8-1.3c1.9-0.4,4.1-0.5,7.5-0.5l0.2,0
						c2.8,0,5.3,0.2,7.2,0.6c2,0.4,3.8,1.1,4.1,1.4L65.8,47.4C65.8,47.4,65.8,47.4,65.8,47.4C65.8,47.4,65.8,47.4,65.8,47.4
						L65.8,47.4z M54.3,44.9l-0.2,0c-3.4,0-5.6,0.2-7.5,0.5c-1.6,0.3-2.8,0.7-3.8,1.3l-0.2,0.4c0.3-0.4,1.8-1,4-1.5
						c2-0.4,4.3-0.5,7.2-0.5l0.3,0l0.2,0c2.9,0,5.3,0.2,7.1,0.6c2,0.4,3.5,1,4.2,1.4L65.5,47c-0.2-0.3-2.1-0.9-4-1.4
						C59.6,45.2,57.1,45,54.3,44.9L54.3,44.9z M65.3,46.3C65.3,46.3,65.3,46.3,65.3,46.3c-0.6-0.7-2.6-1.3-4.1-1.6
						c-1.8-0.4-4.1-0.6-7-0.6c-2.8,0-5.3,0.2-7.2,0.6c-1.7,0.3-3,0.8-3.6,1.2l0.2-0.5c0.7-0.4,1.8-0.8,3.3-1.1
						c1.9-0.4,4.4-0.6,7.2-0.5l0.2,0c2.7,0,5.1,0.2,6.9,0.6c1.7,0.4,3.2,1,3.7,1.4L65.3,46.3C65.3,46.2,65.3,46.3,65.3,46.3
						C65.3,46.3,65.3,46.3,65.3,46.3L65.3,46.3z M54.2,43.9c2.9,0,5.2,0.2,7,0.6c1.4,0.3,3.2,0.8,3.9,1.5l-0.2-0.3
						c-0.5-0.4-2-1-3.7-1.4c-1.8-0.4-4.2-0.6-6.9-0.6l-0.2,0c-2.9,0-5.4,0.2-7.2,0.5c-1.4,0.3-2.6,0.7-3.2,1.1l-0.3,0.4
						c0.5-0.5,1.9-0.9,3.5-1.3C48.8,44.1,51.3,43.9,54.2,43.9L54.2,43.9z"/>
				</g>
				<path style="clip-path:url(#SVGID_4_);fill:#F1E623;" d="M60.4,59.8c-2.3-0.5-4.7-0.6-6.3-0.6c-7.9,0-10.5,1.8-10.8,2.3
					l-0.6-1.1c2-1.7,6.3-2.6,11.4-2.4c2.6,0.1,4.9,0.3,6.8,0.7L60.4,59.8L60.4,59.8z"/>
				<g style="clip-path:url(#SVGID_4_);">
					<path class="st15" d="M42.8,60.5l0.4,0.8L42.8,60.5z"/>
				</g>
				<path style="clip-path:url(#SVGID_4_);fill:#F1E623;" d="M54,59c2.2,0.1,4.4,0.2,6.4,0.6l-0.2,0.3c-1.9-0.4-4-0.6-6.3-0.6
					c-2.9-0.1-5.9,0.2-8.4,1.1c-0.8,0.3-2.2,0.8-2.3,1.3l-0.1-0.3c0-0.3,0.9-0.9,2.4-1.4C48.5,59.2,51.2,59,54,59L54,59z M54.1,57.7
					c2.3,0.1,4.6,0.2,6.9,0.7l-0.2,0.3c-2.1-0.5-4-0.7-6.7-0.7c-2.9,0-6,0.2-8.9,1.1c-0.9,0.3-2.5,0.9-2.5,1.5l-0.1-0.3
					c0-0.5,1.4-1.1,2.6-1.5C48.1,57.9,51.2,57.7,54.1,57.7L54.1,57.7z"/>
				<g style="clip-path:url(#SVGID_4_);">
					<path class="st14" d="M43.3,61.8C43.3,61.8,43.3,61.8,43.3,61.8l-0.2-0.3c0-0.3,0.9-1,2.4-1.4c2.8-0.9,5.4-1.1,8.5-1.1
						c2.1,0.1,4.3,0.2,6.4,0.6L60.3,60c-1.8-0.4-3.7-0.6-6-0.6l-0.3,0l-0.3,0c-3.1,0-5.8,0.3-8.1,1.1C44.7,60.7,43.5,61.3,43.3,61.8
						C43.3,61.8,43.3,61.8,43.3,61.8L43.3,61.8L43.3,61.8z M54,59.1c-3.1,0-5.7,0.2-8.5,1.1c-1.5,0.5-2.3,1.1-2.4,1.3l0.1,0.2
						c0.3-0.6,1.7-1.1,2.3-1.3c2.3-0.7,5-1.1,8.1-1.1l0.3,0l0.3,0c2.3,0,4.2,0.2,6,0.6l0.1-0.3C58.3,59.2,56.1,59.1,54,59.1L54,59.1
						z M42.7,60.7C42.7,60.7,42.7,60.7,42.7,60.7l-0.2-0.3c0-0.6,2-1.3,2.6-1.5c2.4-0.8,5.3-1.1,8.9-1.1c2.2,0.1,4.6,0.2,6.9,0.7
						l-0.1,0.4c-2.2-0.5-4.3-0.6-6.8-0.7c-3.6,0-6.4,0.3-8.8,1.1C44.1,59.6,42.8,60.2,42.7,60.7C42.8,60.7,42.8,60.7,42.7,60.7
						L42.7,60.7L42.7,60.7z M54.1,57.8c-3.6,0-6.5,0.3-8.9,1.1c-1.6,0.5-2.6,1.1-2.6,1.4l0.1,0.2c0.3-0.6,2.3-1.3,2.5-1.4
						c2.4-0.8,5.2-1.1,8.9-1.1c2.5,0.1,4.6,0.2,6.7,0.7l0.1-0.3C58.7,58,56.4,57.9,54.1,57.8L54.1,57.8z"/>
				</g>
				<path style="clip-path:url(#SVGID_4_);fill:#020203;" d="M51.8,58.6c0,0,0-0.1,0-0.1c0,0,0,0,0.1,0c0,0,0,0,0.1,0c0,0,0,0,0,0
					c0,0,0,0,0,0.1s0,0.1,0,0.1c0,0,0,0,0,0.1c0,0,0,0-0.1,0c0,0,0,0-0.1,0C51.8,58.7,51.8,58.7,51.8,58.6
					C51.8,58.7,51.8,58.6,51.8,58.6L51.8,58.6z M51.8,58.6C51.8,58.6,51.8,58.7,51.8,58.6C51.8,58.7,51.8,58.7,51.8,58.6
					c0.1,0.1,0.1,0.1,0.1,0.1c0,0,0,0,0-0.1c0,0,0,0,0-0.1c0,0,0,0,0,0c0,0,0,0,0,0C51.9,58.5,51.8,58.5,51.8,58.6
					C51.8,58.5,51.8,58.6,51.8,58.6L51.8,58.6z M52.1,58.7L52.1,58.7C52.1,58.7,52.1,58.7,52.1,58.7C52.1,58.7,52.1,58.7,52.1,58.7
					C52.2,58.7,52.2,58.7,52.1,58.7c0.1,0,0.1,0,0.1,0c0,0,0,0,0,0C52.2,58.6,52.2,58.6,52.1,58.7C52.1,58.6,52.1,58.6,52.1,58.7
					C52.1,58.6,52.1,58.6,52.1,58.7C52.1,58.6,52.1,58.6,52.1,58.7c0-0.1,0-0.1,0-0.1c0,0,0,0,0,0c0,0,0,0,0,0c0,0,0,0,0,0
					c0,0,0,0,0,0c0,0,0,0,0,0c0,0,0,0,0,0l0,0c0,0,0,0,0,0c0,0,0,0,0,0c0,0,0,0,0,0C52.1,58.5,52.1,58.6,52.1,58.7
					C52.1,58.6,52.1,58.6,52.1,58.7C52.1,58.6,52.1,58.6,52.1,58.7C52.1,58.6,52.2,58.6,52.1,58.7c0.1-0.1,0.1-0.1,0.1-0.1
					c0,0,0,0,0,0c0,0,0,0,0,0c0,0,0,0,0,0c0,0,0,0,0,0C52.2,58.7,52.2,58.7,52.1,58.7C52.1,58.7,52.1,58.7,52.1,58.7
					C52.1,58.7,52.1,58.7,52.1,58.7L52.1,58.7z M52.4,58.6L52.4,58.6C52.4,58.7,52.4,58.7,52.4,58.6C52.4,58.7,52.4,58.7,52.4,58.6
					c-0.1,0.1-0.1,0.1-0.1,0.1c0,0,0,0,0-0.1c0,0,0-0.1,0-0.1c0,0,0,0,0.1,0c0,0,0,0,0.1,0C52.4,58.5,52.4,58.6,52.4,58.6L52.4,58.6
					L52.4,58.6C52.3,58.6,52.3,58.6,52.4,58.6C52.3,58.7,52.3,58.7,52.4,58.6C52.3,58.7,52.4,58.7,52.4,58.6
					C52.4,58.7,52.4,58.6,52.4,58.6L52.4,58.6z M52.3,58.6L52.3,58.6C52.4,58.6,52.4,58.6,52.3,58.6C52.4,58.5,52.4,58.5,52.3,58.6
					C52.3,58.5,52.3,58.5,52.3,58.6C52.3,58.6,52.3,58.6,52.3,58.6L52.3,58.6z M52.4,58.7L52.4,58.7C52.5,58.7,52.5,58.7,52.4,58.7
					C52.5,58.7,52.5,58.7,52.4,58.7C52.5,58.7,52.5,58.7,52.4,58.7c0.1,0,0.1,0,0.1,0c0,0,0,0,0,0C52.5,58.7,52.5,58.7,52.4,58.7
					C52.5,58.7,52.5,58.7,52.4,58.7c0-0.1,0-0.1,0-0.1c0,0,0,0,0-0.1c0,0,0,0,0,0c0,0,0,0,0,0c0,0,0,0,0,0l0,0l0,0l0,0.2
					c0,0,0,0.1,0,0.1c0,0,0,0,0,0C52.5,58.8,52.5,58.8,52.4,58.7C52.5,58.8,52.5,58.8,52.4,58.7C52.4,58.7,52.4,58.7,52.4,58.7
					L52.4,58.7z M52.5,58.6C52.5,58.6,52.5,58.6,52.5,58.6C52.5,58.7,52.5,58.7,52.5,58.6C52.5,58.7,52.5,58.6,52.5,58.6
					C52.6,58.6,52.6,58.6,52.5,58.6C52.6,58.6,52.6,58.5,52.5,58.6C52.5,58.5,52.5,58.5,52.5,58.6C52.5,58.5,52.5,58.5,52.5,58.6
					C52.5,58.5,52.5,58.6,52.5,58.6L52.5,58.6z M52.6,58.7l0-0.2l0,0l0,0c0,0,0,0,0,0c0,0,0,0,0,0c0,0,0,0,0,0c0,0,0,0,0,0
					c0,0,0,0,0.1,0c0,0,0,0,0,0c0,0,0,0,0,0.1l0,0.1l0,0l0-0.1c0,0,0,0,0,0c0,0,0,0,0,0l0,0c0,0,0,0,0,0c0,0,0,0,0,0l0,0.1l0,0
					l0-0.1c0,0,0,0,0,0c0,0,0,0,0,0c0,0,0,0,0,0c0,0,0,0,0,0C52.7,58.5,52.7,58.6,52.6,58.7L52.6,58.7L52.6,58.7L52.6,58.7z
					 M53,58.6L53,58.6C53,58.6,53,58.6,53,58.6C53,58.7,53,58.7,53,58.6c-0.1,0.1-0.1,0.1-0.1,0c0,0,0,0,0-0.1c0,0,0-0.1,0-0.1
					c0,0,0,0,0.1,0c0,0,0,0,0.1,0C53,58.5,53.1,58.5,53,58.6C53,58.6,53,58.6,53,58.6L53,58.6C52.9,58.6,52.9,58.6,53,58.6
					C52.9,58.6,52.9,58.6,53,58.6C53,58.6,53,58.6,53,58.6C53,58.6,53,58.6,53,58.6L53,58.6z M52.9,58.5L52.9,58.5
					C53,58.5,53,58.5,52.9,58.5C53,58.5,53,58.5,52.9,58.5C53,58.5,53,58.5,52.9,58.5C52.9,58.5,52.9,58.5,52.9,58.5L52.9,58.5z
					 M53.1,58.7l0-0.2l0,0l0,0c0,0,0,0,0.1,0c0,0,0,0,0,0c0,0,0,0,0,0c0,0,0,0,0,0c0,0,0,0,0,0l0,0.1l0,0l0-0.1c0,0,0,0,0,0
					c0,0,0,0,0,0c0,0,0,0,0,0c0,0,0,0,0,0c0,0,0,0,0,0L53.1,58.7L53.1,58.7z M53.3,58.6L53.3,58.6C53.3,58.7,53.3,58.7,53.3,58.6
					C53.3,58.7,53.3,58.7,53.3,58.6C53.3,58.6,53.3,58.6,53.3,58.6C53.3,58.6,53.3,58.6,53.3,58.6l0-0.1l0,0l0,0l0,0l0-0.1l0,0
					l0,0.1l0,0l0,0l0,0L53.3,58.6C53.3,58.6,53.3,58.6,53.3,58.6C53.3,58.6,53.3,58.6,53.3,58.6L53.3,58.6
					C53.3,58.6,53.3,58.6,53.3,58.6L53.3,58.6z M53.3,58.6C53.3,58.5,53.4,58.5,53.3,58.6c0-0.1,0.1-0.1,0.1-0.1c0,0,0,0,0.1,0
					c0,0,0,0,0,0.1c0,0,0,0,0,0.1c0,0,0,0,0,0c0,0,0,0,0,0C53.4,58.7,53.4,58.6,53.3,58.6C53.3,58.6,53.3,58.6,53.3,58.6L53.3,58.6z
					 M53.4,58.6C53.4,58.6,53.4,58.6,53.4,58.6C53.4,58.6,53.4,58.6,53.4,58.6C53.4,58.6,53.4,58.6,53.4,58.6
					C53.5,58.6,53.5,58.6,53.4,58.6C53.5,58.5,53.5,58.5,53.4,58.6C53.5,58.5,53.4,58.5,53.4,58.6C53.4,58.5,53.4,58.5,53.4,58.6
					C53.4,58.5,53.4,58.5,53.4,58.6L53.4,58.6z M53.7,58.6L53.7,58.6C53.8,58.6,53.7,58.6,53.7,58.6C53.7,58.6,53.7,58.7,53.7,58.6
					c-0.1,0.1-0.1,0.1-0.1,0c0,0,0,0,0-0.1c0,0,0-0.1,0-0.1c0,0,0,0,0.1,0c0,0,0,0,0.1,0C53.8,58.5,53.8,58.5,53.7,58.6L53.7,58.6
					L53.7,58.6C53.6,58.6,53.6,58.6,53.7,58.6C53.7,58.6,53.7,58.6,53.7,58.6C53.7,58.6,53.7,58.6,53.7,58.6
					C53.7,58.6,53.7,58.6,53.7,58.6L53.7,58.6z M53.6,58.5L53.6,58.5C53.7,58.5,53.7,58.5,53.6,58.5C53.7,58.5,53.7,58.5,53.6,58.5
					C53.7,58.5,53.7,58.5,53.6,58.5C53.7,58.5,53.6,58.5,53.6,58.5L53.6,58.5z M53.8,58.6l0-0.3l0,0L53.8,58.6L53.8,58.6L53.8,58.6z
					 M53.9,58.4L53.9,58.4L53.9,58.4L53.9,58.4L53.9,58.4L53.9,58.4z M53.9,58.6l0-0.2l0,0L53.9,58.6L53.9,58.6L53.9,58.6z
					 M53.9,58.6l0-0.2l0,0l0,0c0,0,0,0,0,0c0,0,0,0,0,0c0,0,0,0,0,0c0,0,0,0,0,0c0,0,0,0,0.1,0c0,0,0,0,0,0c0,0,0,0,0,0.1l0,0.1l0,0
					l0-0.1c0,0,0,0,0,0l0,0c0,0,0,0,0,0c0,0,0,0,0,0c0,0,0,0,0,0l0,0.1l0,0l0-0.1c0,0,0,0,0,0c0,0,0,0,0,0c0,0,0,0,0,0c0,0,0,0,0,0
					C54,58.5,54,58.5,53.9,58.6L53.9,58.6L53.9,58.6L53.9,58.6z M54.2,58.4L54.2,58.4L54.2,58.4L54.2,58.4L54.2,58.4L54.2,58.4z
					 M54.2,58.6l0-0.2l0,0L54.2,58.6L54.2,58.6L54.2,58.6z M54.3,58.6l0-0.2l0,0l0,0c0,0,0,0,0.1,0c0,0,0,0,0,0c0,0,0,0,0,0
					c0,0,0,0,0,0c0,0,0,0,0,0l0,0.1l0,0l0-0.1c0,0,0,0,0,0c0,0,0,0,0,0c0,0,0,0,0,0c0,0,0,0,0,0C54.3,58.5,54.3,58.5,54.3,58.6
					L54.3,58.6L54.3,58.6L54.3,58.6z M54.6,58.6C54.5,58.6,54.5,58.6,54.6,58.6C54.5,58.7,54.5,58.7,54.6,58.6c-0.1,0-0.1,0-0.1,0
					c0,0,0,0,0,0c0,0,0,0,0,0C54.5,58.6,54.5,58.6,54.6,58.6C54.5,58.6,54.5,58.5,54.6,58.6C54.5,58.5,54.5,58.5,54.6,58.6
					C54.5,58.5,54.6,58.5,54.6,58.6c0-0.1,0-0.1,0-0.1c0,0,0,0,0,0c0,0,0,0,0,0c0,0,0,0,0,0c0,0,0,0,0,0l0,0c0,0,0,0,0,0
					c0,0,0,0,0,0c0,0,0,0,0,0c0,0,0,0,0,0c0,0,0,0,0,0c0,0,0,0,0,0c0,0,0,0,0,0L54.6,58.6C54.6,58.6,54.6,58.6,54.6,58.6
					C54.6,58.6,54.6,58.6,54.6,58.6L54.6,58.6C54.6,58.6,54.6,58.6,54.6,58.6L54.6,58.6z M54.6,58.6C54.6,58.6,54.5,58.6,54.6,58.6
					C54.5,58.6,54.5,58.6,54.6,58.6C54.5,58.6,54.5,58.6,54.6,58.6C54.5,58.6,54.5,58.6,54.6,58.6C54.5,58.6,54.5,58.6,54.6,58.6
					C54.5,58.6,54.5,58.6,54.6,58.6C54.5,58.6,54.5,58.6,54.6,58.6C54.5,58.6,54.5,58.6,54.6,58.6C54.6,58.6,54.6,58.6,54.6,58.6
					L54.6,58.6L54.6,58.6z M54.7,58.7L54.7,58.7C54.7,58.7,54.7,58.7,54.7,58.7C54.7,58.7,54.7,58.7,54.7,58.7
					C54.6,58.6,54.6,58.6,54.7,58.7c-0.1-0.1-0.1-0.1-0.1-0.1c0,0,0,0,0-0.1c0,0,0,0,0,0c0,0,0,0,0,0c0,0,0,0,0,0c0,0,0,0,0,0l0-0.1
					l0,0L54.7,58.7L54.7,58.7L54.7,58.7z M54.7,58.6C54.7,58.6,54.7,58.6,54.7,58.6C54.7,58.6,54.7,58.6,54.7,58.6
					C54.7,58.6,54.7,58.6,54.7,58.6C54.7,58.6,54.7,58.6,54.7,58.6C54.7,58.5,54.7,58.5,54.7,58.6C54.7,58.5,54.7,58.5,54.7,58.6
					C54.7,58.5,54.7,58.5,54.7,58.6C54.7,58.5,54.7,58.5,54.7,58.6L54.7,58.6z M54.8,58.6C54.8,58.5,54.8,58.5,54.8,58.6
					C54.9,58.5,54.9,58.5,54.8,58.6c0.1-0.1,0.1-0.1,0.1-0.1c0,0,0,0,0,0.1c0,0,0,0,0,0.1c0,0,0,0,0,0c0,0,0,0,0,0
					C54.8,58.7,54.8,58.6,54.8,58.6C54.8,58.6,54.8,58.6,54.8,58.6L54.8,58.6z M54.8,58.6C54.8,58.6,54.8,58.6,54.8,58.6
					C54.8,58.6,54.9,58.6,54.8,58.6C54.9,58.6,54.9,58.6,54.8,58.6C54.9,58.6,54.9,58.6,54.8,58.6C54.9,58.5,54.9,58.5,54.8,58.6
					C54.9,58.5,54.9,58.5,54.8,58.6C54.9,58.5,54.9,58.5,54.8,58.6C54.8,58.5,54.8,58.5,54.8,58.6L54.8,58.6z M55.1,58.7l0-0.2l0,0
					l0,0c0,0,0,0,0,0c0,0,0,0,0,0c0,0,0,0,0,0l0,0c0,0,0,0,0,0c0,0,0,0,0,0c0,0,0,0,0,0c0,0,0,0,0,0L55.1,58.7L55.1,58.7L55.1,58.7z
					 M55.3,58.6L55.3,58.6C55.3,58.6,55.3,58.6,55.3,58.6C55.3,58.7,55.3,58.7,55.3,58.6c-0.1,0.1-0.1,0.1-0.1,0c0,0,0,0,0-0.1
					c0,0,0-0.1,0-0.1c0,0,0,0,0.1,0c0,0,0,0,0.1,0C55.3,58.5,55.3,58.5,55.3,58.6L55.3,58.6L55.3,58.6
					C55.2,58.6,55.2,58.6,55.3,58.6C55.2,58.6,55.2,58.6,55.3,58.6C55.3,58.6,55.3,58.6,55.3,58.6C55.3,58.6,55.3,58.6,55.3,58.6
					L55.3,58.6z M55.2,58.6L55.2,58.6C55.3,58.5,55.3,58.5,55.2,58.6C55.3,58.5,55.3,58.5,55.2,58.6C55.3,58.5,55.2,58.5,55.2,58.6
					C55.2,58.5,55.2,58.5,55.2,58.6L55.2,58.6z M55.4,58.6L55.4,58.6C55.4,58.6,55.4,58.6,55.4,58.6C55.4,58.6,55.4,58.6,55.4,58.6
					C55.4,58.6,55.4,58.6,55.4,58.6c0.1,0,0.1,0,0.1,0c0,0,0,0,0,0C55.4,58.6,55.4,58.6,55.4,58.6C55.4,58.6,55.4,58.6,55.4,58.6
					C55.4,58.6,55.4,58.6,55.4,58.6C55.4,58.5,55.4,58.5,55.4,58.6c0-0.1,0-0.1,0-0.1c0,0,0,0,0,0c0,0,0,0,0,0c0,0,0,0,0,0
					c0,0,0,0,0,0c0,0,0,0,0,0c0,0,0,0,0,0l0,0c0,0,0,0,0,0c0,0,0,0,0,0C55.4,58.5,55.4,58.5,55.4,58.6
					C55.4,58.5,55.4,58.5,55.4,58.6C55.4,58.5,55.4,58.5,55.4,58.6C55.4,58.5,55.4,58.5,55.4,58.6C55.4,58.5,55.4,58.6,55.4,58.6
					c0.1,0,0.1,0,0.1,0c0,0,0,0,0,0c0,0,0,0,0,0c0,0,0,0,0,0C55.5,58.7,55.5,58.7,55.4,58.6C55.4,58.7,55.4,58.7,55.4,58.6
					C55.4,58.7,55.4,58.7,55.4,58.6C55.4,58.6,55.4,58.6,55.4,58.6L55.4,58.6z M55.5,58.8l0-0.3l0,0l0,0c0,0,0,0,0,0c0,0,0,0,0,0
					c0,0,0,0,0,0c0,0,0,0,0,0c0,0,0,0,0,0.1c0,0,0,0,0,0.1c0,0,0,0,0,0C55.6,58.7,55.6,58.7,55.5,58.8
					C55.6,58.7,55.6,58.7,55.5,58.8C55.6,58.7,55.5,58.7,55.5,58.8L55.5,58.8L55.5,58.8L55.5,58.8z M55.6,58.6
					C55.5,58.6,55.6,58.6,55.6,58.6C55.6,58.7,55.6,58.7,55.6,58.6C55.6,58.7,55.6,58.7,55.6,58.6C55.6,58.6,55.6,58.6,55.6,58.6
					C55.6,58.6,55.6,58.5,55.6,58.6C55.6,58.5,55.6,58.5,55.6,58.6C55.6,58.5,55.6,58.5,55.6,58.6C55.6,58.5,55.6,58.6,55.6,58.6
					L55.6,58.6z M55.8,58.6L55.8,58.6C55.8,58.7,55.8,58.7,55.8,58.6C55.8,58.7,55.8,58.7,55.8,58.6c-0.1,0.1-0.1,0.1-0.1,0
					c0,0,0,0,0-0.1c0,0,0-0.1,0-0.1c0,0,0,0,0.1,0c0,0,0,0,0,0C55.9,58.5,55.9,58.6,55.8,58.6C55.8,58.6,55.8,58.6,55.8,58.6
					L55.8,58.6C55.7,58.6,55.7,58.6,55.8,58.6C55.7,58.7,55.7,58.7,55.8,58.6C55.8,58.7,55.8,58.7,55.8,58.6
					C55.8,58.7,55.8,58.6,55.8,58.6L55.8,58.6z M55.7,58.6L55.7,58.6C55.8,58.6,55.8,58.6,55.7,58.6C55.8,58.5,55.8,58.5,55.7,58.6
					C55.8,58.5,55.8,58.5,55.7,58.6C55.7,58.5,55.7,58.6,55.7,58.6L55.7,58.6z M55.9,58.5L55.9,58.5L55.9,58.5L55.9,58.5L55.9,58.5
					L55.9,58.5z M55.9,58.7l0-0.2l0,0L55.9,58.7L55.9,58.7z M56,58.7L56,58.7C56,58.7,56,58.7,56,58.7C56,58.7,56,58.7,56,58.7
					C56,58.7,55.9,58.7,56,58.7C55.9,58.7,55.9,58.7,56,58.7l0-0.1l0,0l0,0l0,0l0,0l0,0l0,0.1l0,0l0,0l0,0L56,58.7
					C56,58.7,56,58.7,56,58.7C56,58.7,56,58.7,56,58.7C56,58.7,56,58.7,56,58.7L56,58.7L56,58.7z M56.1,58.7
					C56.1,58.7,56.1,58.7,56.1,58.7C56.1,58.7,56.1,58.7,56.1,58.7c-0.1,0-0.1,0-0.1,0c0,0,0,0,0,0c0,0,0,0,0,0
					C56,58.6,56,58.6,56.1,58.7C56.1,58.6,56.1,58.6,56.1,58.7C56.1,58.6,56.1,58.6,56.1,58.7c0-0.1,0-0.1,0-0.1c0,0,0,0,0,0
					c0,0,0,0,0,0c0,0,0,0,0,0c0,0,0,0,0,0c0,0,0,0,0,0l0,0c0,0,0,0,0,0c0,0,0,0,0,0c0,0,0,0,0,0c0,0,0,0,0,0c0,0,0,0,0,0
					c0,0,0,0,0,0c0,0,0,0,0,0L56.1,58.7C56.2,58.7,56.2,58.7,56.1,58.7C56.2,58.7,56.2,58.7,56.1,58.7L56.1,58.7
					C56.1,58.7,56.1,58.7,56.1,58.7L56.1,58.7z M56.1,58.6C56.1,58.6,56.1,58.6,56.1,58.6C56.1,58.6,56.1,58.6,56.1,58.6
					C56.1,58.6,56.1,58.6,56.1,58.6C56.1,58.6,56,58.7,56.1,58.6C56,58.7,56,58.7,56.1,58.6C56.1,58.7,56.1,58.7,56.1,58.6
					C56.1,58.7,56.1,58.7,56.1,58.6C56.1,58.7,56.1,58.7,56.1,58.6C56.1,58.7,56.1,58.6,56.1,58.6L56.1,58.6L56.1,58.6z M56.3,58.6
					C56.3,58.6,56.3,58.6,56.3,58.6c0.1-0.1,0.1-0.1,0.1-0.1c0,0,0,0,0,0c0,0,0,0,0,0.1c0,0,0,0,0,0.1c0,0,0,0,0,0c0,0,0,0,0,0
					C56.3,58.7,56.3,58.7,56.3,58.6C56.3,58.7,56.3,58.7,56.3,58.6L56.3,58.6z M56.3,58.6C56.3,58.7,56.3,58.7,56.3,58.6
					C56.3,58.7,56.3,58.7,56.3,58.6C56.4,58.7,56.4,58.7,56.3,58.6C56.4,58.7,56.4,58.7,56.3,58.6C56.4,58.6,56.4,58.6,56.3,58.6
					C56.4,58.6,56.4,58.6,56.3,58.6C56.4,58.6,56.4,58.6,56.3,58.6C56.3,58.6,56.3,58.6,56.3,58.6L56.3,58.6z M56.5,58.8l0.1-0.3
					l0,0l0,0c0,0,0,0,0,0c0,0,0,0,0,0c0,0,0,0,0,0c0,0,0,0,0,0c0,0,0,0,0,0.1c0,0,0,0,0,0.1c0,0,0,0,0,0
					C56.6,58.7,56.6,58.8,56.5,58.8C56.6,58.8,56.6,58.7,56.5,58.8C56.6,58.7,56.6,58.7,56.5,58.8L56.5,58.8L56.5,58.8z M56.6,58.6
					C56.6,58.7,56.6,58.7,56.6,58.6C56.6,58.7,56.6,58.7,56.6,58.6C56.6,58.7,56.6,58.7,56.6,58.6C56.7,58.7,56.7,58.7,56.6,58.6
					C56.7,58.6,56.7,58.6,56.6,58.6C56.7,58.6,56.7,58.6,56.6,58.6C56.6,58.6,56.6,58.6,56.6,58.6C56.6,58.6,56.6,58.6,56.6,58.6
					L56.6,58.6z M56.7,58.8l0-0.2l0,0l0,0c0,0,0,0,0,0c0,0,0,0,0,0c0,0,0,0,0,0l0,0c0,0,0,0,0,0c0,0,0,0,0,0c0,0,0,0,0,0
					c0,0,0,0,0,0L56.7,58.8L56.7,58.8L56.7,58.8z M56.8,58.7C56.8,58.6,56.9,58.6,56.8,58.7C56.9,58.6,56.9,58.6,56.8,58.7
					c0.1-0.1,0.1-0.1,0.1-0.1c0,0,0,0,0,0.1c0,0,0,0,0,0.1C57,58.7,56.9,58.8,56.8,58.7c0.1,0.1,0.1,0.1,0.1,0.1
					C56.9,58.8,56.9,58.8,56.8,58.7C56.8,58.7,56.8,58.7,56.8,58.7L56.8,58.7z M56.9,58.7C56.9,58.7,56.9,58.7,56.9,58.7
					C56.9,58.7,56.9,58.7,56.9,58.7C56.9,58.7,56.9,58.7,56.9,58.7C57,58.7,57,58.7,56.9,58.7C57,58.6,57,58.6,56.9,58.7
					C57,58.6,56.9,58.6,56.9,58.7C56.9,58.6,56.9,58.6,56.9,58.7C56.9,58.6,56.9,58.6,56.9,58.7L56.9,58.7z M57,58.5L57,58.5
					L57,58.5L57,58.5L57,58.5L57,58.5z M57,58.9L57,58.9C57,58.8,57,58.8,57,58.9C57,58.8,57,58.8,57,58.9C57,58.8,57,58.8,57,58.9
					l0.1-0.3l0,0L57,58.9C57,58.8,57,58.8,57,58.9C57,58.9,57,58.9,57,58.9C57,58.9,57,58.9,57,58.9L57,58.9z M57.2,58.7L57.2,58.7
					C57.2,58.8,57.2,58.8,57.2,58.7C57.2,58.8,57.2,58.8,57.2,58.7c-0.1,0.1-0.1,0-0.1,0c0,0,0,0,0-0.1c0,0,0-0.1,0-0.1
					c0,0,0,0,0.1,0c0,0,0,0,0,0C57.2,58.6,57.2,58.7,57.2,58.7L57.2,58.7L57.2,58.7C57.1,58.7,57.1,58.7,57.2,58.7
					C57.1,58.8,57.1,58.8,57.2,58.7C57.2,58.8,57.2,58.8,57.2,58.7C57.2,58.8,57.2,58.7,57.2,58.7L57.2,58.7z M57.1,58.7L57.1,58.7
					C57.2,58.7,57.2,58.7,57.1,58.7C57.2,58.6,57.2,58.6,57.1,58.7C57.2,58.6,57.2,58.6,57.1,58.7C57.1,58.6,57.1,58.7,57.1,58.7
					L57.1,58.7z"/>
				<path style="clip-path:url(#SVGID_4_);fill:#020203;" d="M57.4,58.7L57.4,58.7C57.4,58.8,57.4,58.8,57.4,58.7
					C57.4,58.8,57.3,58.8,57.4,58.7c-0.1,0.1-0.1,0.1-0.1,0c0,0,0,0,0-0.1C57.3,58.7,57.3,58.7,57.4,58.7c-0.1-0.1-0.1-0.1-0.1-0.1
					c0,0,0,0,0,0c0,0,0,0,0,0C57.4,58.6,57.4,58.7,57.4,58.7L57.4,58.7C57.4,58.7,57.4,58.7,57.4,58.7c0-0.1,0-0.1,0-0.1
					C57.3,58.6,57.3,58.6,57.4,58.7C57.3,58.7,57.3,58.7,57.4,58.7C57.3,58.7,57.3,58.8,57.4,58.7C57.3,58.8,57.3,58.8,57.4,58.7
					C57.3,58.8,57.3,58.8,57.4,58.7C57.4,58.8,57.4,58.8,57.4,58.7L57.4,58.7z M57.5,58.8L57.5,58.8C57.5,58.8,57.5,58.8,57.5,58.8
					C57.4,58.8,57.4,58.8,57.5,58.8C57.4,58.8,57.4,58.8,57.5,58.8C57.4,58.8,57.4,58.8,57.5,58.8l0-0.1l0,0l0,0l0,0l0-0.1l0,0
					l0,0.1l0,0l0,0l0,0L57.5,58.8C57.5,58.8,57.5,58.8,57.5,58.8C57.5,58.8,57.5,58.8,57.5,58.8C57.5,58.8,57.5,58.8,57.5,58.8
					C57.5,58.8,57.5,58.8,57.5,58.8L57.5,58.8z M57.5,58.7C57.5,58.7,57.5,58.7,57.5,58.7C57.6,58.6,57.6,58.6,57.5,58.7
					c0.1-0.1,0.1-0.1,0.1-0.1c0,0,0,0,0,0.1c0,0,0,0,0,0.1C57.6,58.8,57.6,58.8,57.5,58.7c0.1,0.1,0.1,0.1,0,0.1
					C57.5,58.8,57.5,58.8,57.5,58.7C57.5,58.8,57.5,58.8,57.5,58.7L57.5,58.7z M57.5,58.7C57.5,58.8,57.5,58.8,57.5,58.7
					C57.5,58.8,57.6,58.8,57.5,58.7C57.6,58.8,57.6,58.8,57.5,58.7C57.6,58.8,57.6,58.8,57.5,58.7C57.6,58.7,57.6,58.7,57.5,58.7
					C57.6,58.7,57.6,58.7,57.5,58.7C57.6,58.7,57.6,58.7,57.5,58.7C57.5,58.7,57.5,58.7,57.5,58.7L57.5,58.7z M57.9,58.9L57.9,58.9
					C57.9,58.9,57.8,58.9,57.9,58.9C57.8,58.9,57.8,58.9,57.9,58.9C57.8,58.8,57.8,58.8,57.9,58.9c-0.1-0.1-0.1-0.1-0.1-0.1
					c0,0,0,0,0-0.1c0,0,0,0,0,0c0,0,0,0,0,0c0,0,0,0,0,0c0,0,0,0,0,0l0-0.1l0,0L57.9,58.9L57.9,58.9L57.9,58.9z M57.8,58.8
					C57.8,58.8,57.8,58.8,57.8,58.8C57.8,58.8,57.8,58.8,57.8,58.8C57.8,58.8,57.9,58.8,57.8,58.8C57.9,58.8,57.9,58.8,57.8,58.8
					C57.9,58.7,57.9,58.7,57.8,58.8C57.9,58.7,57.9,58.7,57.8,58.8C57.8,58.7,57.8,58.7,57.8,58.8C57.8,58.7,57.8,58.7,57.8,58.8
					L57.8,58.8z M58.1,58.8L58.1,58.8C58.1,58.9,58.1,58.9,58.1,58.8C58,58.9,58,58.9,58.1,58.8c-0.1,0.1-0.1,0.1-0.1,0
					c0,0,0,0,0-0.1c0,0,0-0.1,0-0.1c0,0,0,0,0.1,0c0,0,0,0,0,0C58.1,58.7,58.1,58.8,58.1,58.8C58.1,58.8,58.1,58.8,58.1,58.8
					L58.1,58.8C58,58.8,58,58.8,58.1,58.8C58,58.9,58,58.9,58.1,58.8C58,58.9,58,58.9,58.1,58.8C58,58.9,58.1,58.8,58.1,58.8
					L58.1,58.8z M58,58.8L58,58.8C58.1,58.8,58.1,58.7,58,58.8C58.1,58.7,58.1,58.7,58,58.8C58,58.7,58,58.7,58,58.8
					C58,58.7,58,58.7,58,58.8L58,58.8z M58.4,58.8L58.4,58.8C58.4,58.9,58.4,58.9,58.4,58.8C58.3,58.9,58.3,58.9,58.4,58.8
					c-0.1,0.1-0.1,0.1-0.1,0.1c0,0,0,0,0-0.1c0,0,0,0,0-0.1c0,0,0-0.1,0-0.1c0,0,0,0,0,0c0,0,0,0,0.1,0c0,0,0,0,0.1,0
					C58.4,58.7,58.4,58.7,58.4,58.8L58.4,58.8c0-0.1,0-0.1,0-0.1c0,0,0,0,0,0c0,0,0,0,0,0c0,0,0,0,0,0c0,0,0,0,0,0c0,0,0,0,0,0.1
					c0,0,0,0,0,0C58.3,58.9,58.3,58.9,58.4,58.8C58.3,58.9,58.3,58.9,58.4,58.8C58.4,58.9,58.4,58.9,58.4,58.8L58.4,58.8z
					 M58.4,58.8C58.4,58.8,58.5,58.8,58.4,58.8c0.1-0.1,0.1-0.1,0.1-0.1c0,0,0,0,0,0c0,0,0,0,0,0.1c0,0,0,0,0,0.1c0,0,0,0,0,0
					c0,0,0,0,0,0C58.5,58.9,58.4,58.9,58.4,58.8C58.4,58.9,58.4,58.9,58.4,58.8L58.4,58.8z M58.5,58.8
					C58.5,58.9,58.5,58.9,58.5,58.8C58.5,58.9,58.5,58.9,58.5,58.8C58.5,58.9,58.5,58.9,58.5,58.8c0.1,0.1,0.1,0,0.1,0
					C58.6,58.8,58.6,58.8,58.5,58.8C58.6,58.8,58.5,58.8,58.5,58.8C58.5,58.8,58.5,58.8,58.5,58.8C58.5,58.8,58.5,58.8,58.5,58.8
					L58.5,58.8z M58.6,59l0.1-0.3l0,0L58.6,59L58.6,59L58.6,59z M58.8,59L58.8,59C58.8,59,58.7,59,58.8,59C58.7,59,58.7,59,58.8,59
					C58.7,59,58.7,59,58.8,59C58.7,58.9,58.7,58.9,58.8,59C58.7,58.9,58.7,58.9,58.8,59l-0.1-0.2l0,0L58.8,59
					C58.7,58.9,58.7,58.9,58.8,59C58.7,58.9,58.7,58.9,58.8,59C58.7,59,58.7,59,58.8,59C58.7,59,58.8,59,58.8,59
					C58.8,58.9,58.8,58.9,58.8,59C58.8,58.9,58.8,58.9,58.8,59l0-0.2l0,0L58.8,59L58.8,59L58.8,59z M58.8,59l0-0.2l0,0l0,0
					c0,0,0,0,0,0c0,0,0,0,0,0c0,0,0,0,0,0c0,0,0,0,0,0c0,0,0,0,0.1,0c0,0,0,0,0,0c0,0,0,0,0,0l0,0.1l0,0l0-0.1c0,0,0,0,0,0l0,0
					c0,0,0,0,0,0c0,0,0,0,0,0c0,0,0,0,0,0l0,0.1l0,0l0-0.1c0,0,0,0,0,0c0,0,0,0,0,0c0,0,0,0,0,0c0,0,0,0,0,0
					C58.9,58.9,58.9,58.9,58.8,59L58.8,59L58.8,59z M59.1,59L59.1,59l0-0.3l0,0l0,0.1c0,0,0,0,0.1,0c0,0,0,0,0,0c0,0,0,0,0,0
					c0,0,0,0,0,0c0,0,0,0,0,0C59.3,59,59.2,59,59.1,59C59.2,59.1,59.2,59.1,59.1,59C59.1,59.1,59.1,59,59.1,59L59.1,59L59.1,59z
					 M59.2,58.9C59.1,59,59.1,59,59.2,58.9C59.1,59,59.2,59,59.2,58.9C59.2,59,59.2,59,59.2,58.9C59.2,59,59.2,59,59.2,58.9
					C59.2,58.9,59.2,58.9,59.2,58.9C59.2,58.9,59.2,58.9,59.2,58.9C59.2,58.9,59.2,58.9,59.2,58.9C59.2,58.9,59.2,58.9,59.2,58.9
					L59.2,58.9z M59.4,59.1C59.4,59.1,59.4,59.1,59.4,59.1C59.3,59.1,59.3,59.1,59.4,59.1c-0.1,0-0.1,0-0.1,0c0,0,0,0,0,0
					C59.3,59,59.3,59,59.4,59.1C59.3,59,59.3,59,59.4,59.1C59.3,59,59.3,59,59.3,59c0,0,0,0,0,0c0,0,0,0,0.1,0c0,0,0,0,0,0
					c0,0,0,0,0,0c0,0,0,0,0,0c0,0,0,0,0,0c0,0,0,0,0,0l0,0c0,0,0,0,0,0c0,0,0,0,0,0c0,0,0,0,0,0c0,0,0,0,0,0c0,0,0,0,0,0
					c0,0,0,0,0,0c0,0,0,0,0,0L59.4,59.1C59.4,59,59.4,59.1,59.4,59.1C59.4,59.1,59.4,59.1,59.4,59.1L59.4,59.1L59.4,59.1L59.4,59.1z
					 M59.4,59C59.4,59,59.4,59,59.4,59C59.3,59,59.3,59,59.4,59C59.3,59,59.3,59,59.4,59C59.3,59,59.3,59,59.4,59
					C59.3,59,59.3,59,59.4,59C59.3,59,59.3,59.1,59.4,59C59.3,59.1,59.4,59.1,59.4,59C59.4,59,59.4,59,59.4,59
					C59.4,59,59.4,59,59.4,59L59.4,59L59.4,59z M59.4,59.1l0.1-0.2l0,0l0,0c0,0,0,0,0.1,0c0,0,0,0,0,0c0,0,0,0,0,0c0,0,0,0,0,0
					c0,0,0,0,0,0l0,0.1l0,0l0-0.1c0,0,0,0,0,0c0,0,0,0,0,0l0,0c0,0,0,0,0,0c0,0,0,0,0,0L59.4,59.1L59.4,59.1L59.4,59.1z M59.6,59
					C59.6,59,59.7,59,59.6,59C59.7,58.9,59.7,58.9,59.6,59c0.1-0.1,0.1-0.1,0.1-0.1c0,0,0,0,0,0.1c0,0,0,0,0,0.1c0,0,0,0,0,0
					c0,0,0,0,0,0C59.7,59.1,59.6,59.1,59.6,59C59.6,59.1,59.6,59.1,59.6,59L59.6,59z M59.7,59C59.7,59.1,59.7,59.1,59.7,59
					C59.7,59.1,59.7,59.1,59.7,59C59.7,59.1,59.7,59.1,59.7,59C59.7,59.1,59.7,59.1,59.7,59C59.8,59,59.8,59,59.7,59
					C59.8,59,59.7,59,59.7,59C59.7,59,59.7,59,59.7,59C59.7,59,59.7,59,59.7,59L59.7,59z"/>
				<g style="clip-path:url(#SVGID_4_);">
					<path class="st17" d="M60.3,60C60.3,60,60.3,60,60.3,60c-0.1,0-0.1-0.1-0.1-0.1l0.7-1.4c0,0,0,0,0.1,0c0,0,0,0.1,0,0.1L60.3,60
						C60.4,60,60.3,60,60.3,60L60.3,60z"/>
				</g>
				<path style="clip-path:url(#SVGID_4_);fill:#F1E623;" d="M43.5,45.4c3.9,0,21.9,12.8,21.9,15.1l-1.1,2
					c-0.5-2.7-18.8-15.2-21.8-15L43.5,45.4L43.5,45.4z"/>
				<g style="clip-path:url(#SVGID_4_);">
					<path class="st14" d="M64.4,62.4l0.9-1.7c0,0,0,0,0,0c0,0,0,0,0,0.1L64.4,62.4L64.4,62.4z"/>
				</g>
				<g style="clip-path:url(#SVGID_4_);">
					<path class="st14" d="M42.6,47.4l0.8-1.9c0,0,0,0,0.1,0c0,0,0,0,0,0.1L42.6,47.4L42.6,47.4z"/>
				</g>
				<path style="clip-path:url(#SVGID_4_);fill:#F1E623;" d="M42.4,47.4c0.7-0.6,6.1,2.2,11.6,6.1c5.6,3.9,10.8,8.3,10.4,9.1
					l-0.2,0.3L64.1,63c0,0,0.1-0.1,0-0.4c-0.2-0.9-4-4.4-10.2-8.7c-6.1-4.2-11.2-6.8-11.7-6L42.4,47.4L42.4,47.4z M65.5,60.7
					c0.5-1-4.5-5.3-10.6-9.5c-6.3-4.1-10.8-6.6-11.6-5.8l-0.2,0.4c0,0,0,0,0-0.1c0.2-0.1,0.4-0.1,0.5-0.1c1.4,0,5.5,2.2,11.2,6
					c2.5,1.7,10.5,7.7,10.5,9.3c0,0.1,0,0.2,0,0.2L65.5,60.7L65.5,60.7z"/>
				<g style="clip-path:url(#SVGID_4_);">
					<path class="st14" d="M64.1,63L64.1,63C64.1,63,64.1,63,64.1,63c0-0.1,0-0.2-0.1-0.4c-0.2-0.9-4.2-4.5-10.2-8.7
						c-5.1-3.6-9.9-6.1-11.3-6.2c-0.2,0-0.3,0-0.3,0.1l0,0c0,0,0,0,0-0.1l0.1-0.3c0.1-0.1,0.2-0.1,0.3-0.1c1.4,0,6.4,2.7,11.3,6.2
						c5,3.5,10.2,7.7,10.4,8.9c0,0.1,0,0.2,0,0.2L64.1,63C64.2,63,64.2,63,64.1,63C64.2,63,64.2,63,64.1,63L64.1,63z M42.6,47.6
						c1.4,0,6.2,2.6,11.3,6.2c6.1,4.3,10,7.8,10.2,8.8c0,0.1,0,0.2,0,0.3l0.1-0.2c0,0,0-0.1,0-0.2c-0.2-1.2-5.5-5.5-10.4-8.9
						c-4.9-3.4-9.9-6.2-11.3-6.2c-0.1,0-0.2,0-0.3,0.1l-0.1,0.2C42.4,47.6,42.5,47.6,42.6,47.6L42.6,47.6z M65.3,61
						C65.3,61,65.3,61,65.3,61L65.3,61L65.3,61C65.3,61,65.3,61,65.3,61L65.3,61L65.3,61c0-0.1,0-0.1,0-0.2c0-1.7-8.1-7.8-10.5-9.3
						c-5.7-3.8-9.7-5.9-11.1-6c-0.1,0-0.4,0-0.5,0.1c0,0,0,0,0,0c0.1-0.2,0.4-0.2,0.5-0.2c1.5,0,5.5,2.2,11.2,6
						c1.6,1.1,10.5,7.5,10.5,9.4c0,0,0,0,0,0l0.1-0.2c0.4-0.9-4.2-5.1-10.6-9.5c-6.7-4.4-10.8-6.5-11.6-5.8l-0.2,0.3
						c0,0-0.1,0-0.1,0l0.2-0.4c0.1-0.1,0.3-0.1,0.5-0.1c1.8,0,7,3.2,11.2,6c5.5,3.8,11.1,8.4,10.6,9.6L65.3,61
						C65.4,61,65.3,61,65.3,61L65.3,61z"/>
				</g>
				<path style="clip-path:url(#SVGID_4_);fill:#FFFFFF;" d="M46.4,55.2c0,2.4,0.8,4.6,2.2,6.2C50,63,51.9,64,54,64
					c2.1,0,4-0.9,5.4-2.5c1.4-1.6,2.3-3.7,2.3-6.1l0,0l0.1-11.7l-15.3-0.1L46.4,55.2L46.4,55.2z"/>
				<g style="clip-path:url(#SVGID_4_);">
					<path class="st14" d="M54,64c-2,0-3.9-1-5.4-2.6c-1.4-1.7-2.2-3.9-2.2-6.2l0.1-11.7l15.3,0.1l0,11.7c0,2.3-0.8,4.5-2.3,6.2
						C58,63.2,56.1,64.1,54,64L54,64z M61.8,43.7l-15.2-0.1l0,11.6c0,2.3,0.8,4.5,2.2,6.1c1.4,1.7,3.3,2.6,5.3,2.6
						c2,0,3.9-0.9,5.4-2.5c1.4-1.6,2.3-3.8,2.3-6.1L61.8,43.7L61.8,43.7z"/>
				</g>
				<path style="clip-path:url(#SVGID_4_);fill:#E41224;" d="M46.7,55.2L46.7,55.2c0,2.3,0.8,4.4,2.1,5.9c1.3,1.5,3.2,2.5,5.2,2.5
					c2,0,3.9-0.9,5.2-2.4c1.3-1.5,2.2-3.6,2.2-5.9l0,0L61.5,44l-14.6-0.1L46.7,55.2L46.7,55.2z M58.5,47.4l0,7.2l0,0.8l0,0
					c0,0.2,0,0.4,0,0.6c-0.1,1.1-0.6,2.1-1.3,2.9c-0.8,0.9-1.9,1.4-3.1,1.4c-1.2,0-2.3-0.6-3.1-1.5c-0.8-0.9-1.3-2.2-1.3-3.5l0-8
					L58.5,47.4L58.5,47.4z"/>
				<g style="clip-path:url(#SVGID_4_);">
					<path class="st14" d="M54,63.7c-2,0-3.8-0.9-5.2-2.5c-1.4-1.6-2.1-3.7-2.1-5.9l0.1-11.3L61.5,44l0,11.3c0,2.2-0.8,4.3-2.2,5.9
						C57.8,62.8,56,63.7,54,63.7L54,63.7z M61.4,44L46.8,44l0,11.3c0,2.2,0.7,4.3,2.1,5.9c1.4,1.6,3.2,2.5,5.1,2.5
						c1.9,0,3.8-0.8,5.2-2.4c1.4-1.6,2.2-3.6,2.2-5.8L61.4,44L61.4,44z M54,60.3c-1.1,0-2.2-0.5-3.1-1.5c-0.8-0.9-1.3-2.2-1.3-3.6
						l0-8l8.8,0.1l0,7.2l0,0.8c0,0.2,0,0.4,0,0.6c-0.1,1.1-0.6,2.1-1.3,2.9C56.3,59.8,55.2,60.4,54,60.3L54,60.3z M49.8,47.4l0,7.9
						c0,1.3,0.4,2.6,1.3,3.5c0.8,1,1.9,1.5,3,1.5c1.2,0,2.2-0.5,3.1-1.4c0.7-0.8,1.1-1.8,1.3-2.9c0-0.2,0-0.4,0-0.6l0.1-8L49.8,47.4
						L49.8,47.4z"/>
				</g>
				<path style="clip-path:url(#SVGID_4_);fill:#2B307A;" d="M53.2,54L53.2,54c0,0.3,0.1,0.6,0.3,0.8c0.2,0.2,0.4,0.4,0.7,0.4
					c0.3,0,0.5-0.1,0.7-0.3c0.2-0.2,0.3-0.5,0.3-0.8l0-1.6l-1.9,0L53.2,54L53.2,54z"/>
				<path style="clip-path:url(#SVGID_4_);fill:#FFFFFF;" d="M54.7,52.8c-0.1,0-0.2,0.1-0.2,0.2c0,0.1,0.1,0.2,0.2,0.2
					c0.1,0,0.2-0.1,0.2-0.2C54.9,52.9,54.8,52.8,54.7,52.8L54.7,52.8z"/>
				<path style="clip-path:url(#SVGID_4_);fill:#FFFFFF;" d="M54.1,53.4c-0.1,0-0.2,0.1-0.2,0.2c0,0.1,0.1,0.2,0.2,0.2
					c0.1,0,0.2-0.1,0.2-0.2C54.3,53.5,54.2,53.4,54.1,53.4L54.1,53.4z"/>
				<path style="clip-path:url(#SVGID_4_);fill:#FFFFFF;" d="M54.7,54c-0.1,0-0.2,0.1-0.2,0.2c0,0.1,0.1,0.2,0.2,0.2
					c0.1,0,0.2-0.1,0.2-0.2C54.9,54.1,54.8,54,54.7,54L54.7,54z"/>
				<path style="clip-path:url(#SVGID_4_);fill:#FFFFFF;" d="M53.6,54c-0.1,0-0.2,0.1-0.2,0.2c0,0.1,0.1,0.2,0.2,0.2
					c0.1,0,0.2-0.1,0.2-0.2C53.8,54.1,53.7,54,53.6,54L53.6,54z"/>
				<path style="clip-path:url(#SVGID_4_);fill:#FFFFFF;" d="M53.6,52.8c-0.1,0-0.2,0.1-0.2,0.2c0,0.1,0.1,0.2,0.2,0.2
					c0.1,0,0.2-0.1,0.2-0.2C53.8,52.9,53.7,52.8,53.6,52.8L53.6,52.8z"/>
				<path style="clip-path:url(#SVGID_4_);fill:#2B307A;" d="M53.1,57.8L53.1,57.8c0,0.3,0.1,0.6,0.3,0.8c0.2,0.2,0.4,0.3,0.7,0.4
					c0.3,0,0.5-0.1,0.7-0.3c0.2-0.2,0.3-0.5,0.3-0.8l0-1.6l-1.9,0L53.1,57.8L53.1,57.8z"/>
				<path style="clip-path:url(#SVGID_4_);fill:#FFFFFF;" d="M54.6,56.6c-0.1,0-0.2,0.1-0.2,0.2c0,0.1,0.1,0.2,0.2,0.2
					c0.1,0,0.2-0.1,0.2-0.2C54.8,56.7,54.7,56.6,54.6,56.6L54.6,56.6z"/>
				<path style="clip-path:url(#SVGID_4_);fill:#FFFFFF;" d="M54.1,57.2c-0.1,0-0.2,0.1-0.2,0.2c0,0.1,0.1,0.2,0.2,0.2
					c0.1,0,0.2-0.1,0.2-0.2C54.3,57.3,54.2,57.2,54.1,57.2L54.1,57.2z"/>
				<path style="clip-path:url(#SVGID_4_);fill:#FFFFFF;" d="M54.6,57.8c-0.1,0-0.2,0.1-0.2,0.2c0,0.1,0.1,0.2,0.2,0.2
					c0.1,0,0.2-0.1,0.2-0.2C54.8,57.9,54.7,57.8,54.6,57.8L54.6,57.8z"/>
				<path style="clip-path:url(#SVGID_4_);fill:#FFFFFF;" d="M53.6,57.8c-0.1,0-0.2,0.1-0.2,0.2c0,0.1,0.1,0.2,0.2,0.2
					c0.1,0,0.2-0.1,0.2-0.2C53.8,57.9,53.7,57.8,53.6,57.8L53.6,57.8z"/>
				<path style="clip-path:url(#SVGID_4_);fill:#FFFFFF;" d="M53.6,56.6c-0.1,0-0.2,0.1-0.2,0.2c0,0.1,0.1,0.2,0.2,0.2
					c0.1,0,0.2-0.1,0.2-0.2C53.8,56.7,53.7,56.6,53.6,56.6L53.6,56.6z"/>
				<path style="clip-path:url(#SVGID_4_);fill:#2B307A;" d="M50.5,54L50.5,54c0,0.3,0.1,0.6,0.3,0.8c0.2,0.2,0.4,0.4,0.7,0.4
					c0.3,0,0.5-0.1,0.7-0.3c0.2-0.2,0.3-0.5,0.3-0.8l0-1.6l-1.9,0L50.5,54L50.5,54z"/>
				<path style="clip-path:url(#SVGID_4_);fill:#FFFFFF;" d="M52,52.8c-0.1,0-0.2,0.1-0.2,0.2c0,0.1,0.1,0.2,0.2,0.2
					c0.1,0,0.2-0.1,0.2-0.2C52.2,52.9,52.1,52.8,52,52.8L52,52.8z"/>
				<path style="clip-path:url(#SVGID_4_);fill:#FFFFFF;" d="M51.5,53.4c-0.1,0-0.2,0.1-0.2,0.2c0,0.1,0.1,0.2,0.2,0.2
					c0.1,0,0.2-0.1,0.2-0.2C51.6,53.5,51.6,53.4,51.5,53.4L51.5,53.4z"/>
				<path style="clip-path:url(#SVGID_4_);fill:#FFFFFF;" d="M52,54c-0.1,0-0.2,0.1-0.2,0.2c0,0.1,0.1,0.2,0.2,0.2
					c0.1,0,0.2-0.1,0.2-0.2C52.2,54.1,52.1,54,52,54L52,54z"/>
				<path style="clip-path:url(#SVGID_4_);fill:#FFFFFF;" d="M50.9,54c-0.1,0-0.2,0.1-0.2,0.2c0,0.1,0.1,0.2,0.2,0.2
					c0.1,0,0.2-0.1,0.2-0.2C51.1,54.1,51,54,50.9,54L50.9,54z"/>
				<path style="clip-path:url(#SVGID_4_);fill:#FFFFFF;" d="M50.9,52.8c-0.1,0-0.2,0.1-0.2,0.2c0,0.1,0.1,0.2,0.2,0.2
					c0.1,0,0.2-0.1,0.2-0.2C51.1,52.9,51.1,52.8,50.9,52.8L50.9,52.8z"/>
				<path style="clip-path:url(#SVGID_4_);fill:#2B307A;" d="M55.8,54L55.8,54c0,0.3,0.1,0.6,0.3,0.8c0.2,0.2,0.4,0.4,0.7,0.4
					c0.3,0,0.5-0.1,0.7-0.3c0.2-0.2,0.3-0.5,0.3-0.8l0-1.6l-1.9,0L55.8,54L55.8,54z"/>
				<path style="clip-path:url(#SVGID_4_);fill:#FFFFFF;" d="M57.3,52.8c-0.1,0-0.2,0.1-0.2,0.2c0,0.1,0.1,0.2,0.2,0.2
					c0.1,0,0.2-0.1,0.2-0.2C57.5,52.9,57.5,52.8,57.3,52.8L57.3,52.8z"/>
				<path style="clip-path:url(#SVGID_4_);fill:#FFFFFF;" d="M56.8,53.4c-0.1,0-0.2,0.1-0.2,0.2c0,0.1,0.1,0.2,0.2,0.2
					c0.1,0,0.2-0.1,0.2-0.2C57,53.5,56.9,53.4,56.8,53.4L56.8,53.4z"/>
				<path style="clip-path:url(#SVGID_4_);fill:#FFFFFF;" d="M57.3,54c-0.1,0-0.2,0.1-0.2,0.2c0,0.1,0.1,0.2,0.2,0.2
					c0.1,0,0.2-0.1,0.2-0.2C57.5,54.1,57.4,54,57.3,54L57.3,54z"/>
				<path style="clip-path:url(#SVGID_4_);fill:#FFFFFF;" d="M56.3,54c-0.1,0-0.2,0.1-0.2,0.2c0,0.1,0.1,0.2,0.2,0.2
					c0.1,0,0.2-0.1,0.2-0.2C56.5,54.1,56.4,54,56.3,54L56.3,54z"/>
				<path style="clip-path:url(#SVGID_4_);fill:#FFFFFF;" d="M56.3,52.8c-0.1,0-0.2,0.1-0.2,0.2c0,0.1,0.1,0.2,0.2,0.2
					c0.1,0,0.2-0.1,0.2-0.2C56.5,52.9,56.4,52.8,56.3,52.8L56.3,52.8z"/>
				<path style="clip-path:url(#SVGID_4_);fill:#2B307A;" d="M53.2,50.2L53.2,50.2c0,0.3,0.1,0.6,0.3,0.8c0.2,0.2,0.4,0.4,0.7,0.4
					c0.3,0,0.5-0.1,0.7-0.3c0.2-0.2,0.3-0.5,0.3-0.8l0-1.6l-1.9,0L53.2,50.2L53.2,50.2z"/>
				<path style="clip-path:url(#SVGID_4_);fill:#FFFFFF;" d="M54.7,49c-0.1,0-0.2,0.1-0.2,0.2c0,0.1,0.1,0.2,0.2,0.2
					c0.1,0,0.2-0.1,0.2-0.2C54.9,49.1,54.8,49,54.7,49L54.7,49z"/>
				<path style="clip-path:url(#SVGID_4_);fill:#FFFFFF;" d="M54.2,49.6c-0.1,0-0.2,0.1-0.2,0.2c0,0.1,0.1,0.2,0.2,0.2
					c0.1,0,0.2-0.1,0.2-0.2C54.3,49.7,54.3,49.6,54.2,49.6L54.2,49.6z"/>
				<path style="clip-path:url(#SVGID_4_);fill:#FFFFFF;" d="M54.7,50.2c-0.1,0-0.2,0.1-0.2,0.2c0,0.1,0.1,0.2,0.2,0.2
					c0.1,0,0.2-0.1,0.2-0.2C54.9,50.3,54.8,50.2,54.7,50.2L54.7,50.2z"/>
				<path style="clip-path:url(#SVGID_4_);fill:#FFFFFF;" d="M53.6,50.2c-0.1,0-0.2,0.1-0.2,0.2c0,0.1,0.1,0.2,0.2,0.2
					c0.1,0,0.2-0.1,0.2-0.2C53.8,50.3,53.7,50.2,53.6,50.2L53.6,50.2z"/>
				<path style="clip-path:url(#SVGID_4_);fill:#FFFFFF;" d="M53.6,49c-0.1,0-0.2,0.1-0.2,0.2c0,0.1,0.1,0.2,0.2,0.2
					c0.1,0,0.2-0.1,0.2-0.2C53.8,49.1,53.8,49,53.6,49L53.6,49z"/>
				<path style="clip-path:url(#SVGID_4_);fill:#F1E623;" d="M47.7,46.9c0-0.8,0.5-1,0.5-1c0,0,0.5,0.2,0.5,1L47.7,46.9L47.7,46.9z"
					/>
				<path style="clip-path:url(#SVGID_4_);fill:#F1E623;" d="M47.3,45.9l-0.1,0.9l0.5,0c0-0.8,0.5-0.9,0.5-0.9c0,0,0.5,0.2,0.5,0.9
					l0.5,0l-0.1-0.9L47.3,45.9L47.3,45.9z"/>
				<g style="clip-path:url(#SVGID_4_);">
					<path class="st14" d="M49.4,46.9l-0.6,0c0-0.7-0.5-0.9-0.5-0.9c0,0-0.5,0.1-0.5,0.9l-0.6,0l0.1-1l2,0L49.4,46.9L49.4,46.9z
						 M48.2,45.9l-0.9,0l-0.1,0.9l0.5,0C47.7,46.2,48.1,46,48.2,45.9L48.2,45.9z M48.3,45.9c0.1,0.1,0.5,0.3,0.5,0.9l0.5,0l-0.1-0.9
						L48.3,45.9L48.3,45.9z"/>
				</g>
				<path style="clip-path:url(#SVGID_4_);fill:#F1E623;" d="M47.2,46.8l2.2,0c0,0,0.1,0.1,0.1,0.1c0,0.1,0,0.1-0.1,0.1l-2.2,0
					c0,0-0.1-0.1-0.1-0.1C47.1,46.9,47.1,46.8,47.2,46.8L47.2,46.8z"/>
				<g style="clip-path:url(#SVGID_4_);">
					<path class="st14" d="M49.4,47.1l-2.2,0c-0.1,0-0.1-0.1-0.1-0.2c0-0.1,0.1-0.2,0.1-0.2l2.2,0c0.1,0,0.1,0.1,0.1,0.2
						C49.5,47.1,49.4,47.1,49.4,47.1L49.4,47.1z M47.2,46.9l0,0.2l2.2,0c0,0,0.1,0,0.1-0.1L47.2,46.9L47.2,46.9z"/>
				</g>
				<path style="clip-path:url(#SVGID_4_);fill:#F1E623;" d="M48,46.8c0-0.5,0.3-0.6,0.3-0.6s0.3,0.1,0.3,0.6L48,46.8L48,46.8z"/>
				<g style="clip-path:url(#SVGID_4_);">
					<path class="st14" d="M48.6,46.9l-0.6,0c0-0.5,0.3-0.7,0.3-0.7C48.3,46.2,48.6,46.3,48.6,46.9L48.6,46.9L48.6,46.9z M48.3,46.2
						c0,0-0.2,0.1-0.3,0.6l0.5,0C48.5,46.4,48.3,46.2,48.3,46.2L48.3,46.2z"/>
				</g>
				<path style="clip-path:url(#SVGID_4_);fill:#F1E623;" d="M47.2,45.5l2.1,0c0,0,0.1,0,0.1,0.1c0,0.1,0,0.1-0.1,0.1l-2.1,0
					c0,0-0.1,0-0.1-0.1C47.1,45.6,47.2,45.5,47.2,45.5L47.2,45.5z"/>
				<g style="clip-path:url(#SVGID_4_);">
					<path class="st14" d="M49.3,45.8l-2.1,0c-0.1,0-0.1-0.1-0.1-0.1c0-0.1,0.1-0.1,0.1-0.1l2.1,0c0.1,0,0.1,0.1,0.1,0.1
						C49.4,45.7,49.4,45.8,49.3,45.8L49.3,45.8z M47.2,45.5l0,0.1l2.1,0c0,0,0,0,0-0.1L47.2,45.5L47.2,45.5z"/>
				</g>
				<path style="clip-path:url(#SVGID_4_);fill:#F1E623;" d="M47.3,45.7l2,0c0,0,0.1,0,0.1,0.1c0,0.1,0,0.1-0.1,0.1l-2,0
					c0,0-0.1,0-0.1-0.1C47.2,45.8,47.2,45.7,47.3,45.7L47.3,45.7z"/>
				<g style="clip-path:url(#SVGID_4_);">
					<path class="st14" d="M49.3,46l-2,0c-0.1,0-0.1-0.1-0.1-0.1c0-0.1,0-0.1,0.1-0.1l2,0c0.1,0,0.1,0.1,0.1,0.1
						C49.4,45.9,49.3,46,49.3,46L49.3,46z M47.3,45.7l0,0.1l2,0c0,0,0,0,0-0.1L47.3,45.7L47.3,45.7z"/>
				</g>
				<path style="clip-path:url(#SVGID_4_);fill:#F1E623;" d="M47.9,44.2l0.2,0l0,0.1l0.1,0l0-0.1l0.2,0l0,0.1l0.1,0l0-0.1l0.2,0
					l0,0.3c0,0,0,0.1-0.1,0.1l-0.6,0c0,0-0.1,0-0.1-0.1L47.9,44.2L47.9,44.2z"/>
				<g style="clip-path:url(#SVGID_4_);">
					<path class="st14" d="M48.6,44.6l-0.6,0l-0.1-0.1l0-0.3l0.2,0l0,0.2l0.1,0l0-0.1l0.2,0l0,0.2l0.1,0l0-0.1l0.2,0l0,0.4
						L48.6,44.6L48.6,44.6z M48.1,44.2l-0.1,0l0,0.3l0.6,0.1l0-0.1l0-0.3l-0.1,0l0,0.1l-0.1,0l0-0.2l-0.1,0l0,0.1l-0.1,0L48.1,44.2
						L48.1,44.2z"/>
				</g>
				<polygon style="clip-path:url(#SVGID_4_);fill:#F1E623;" points="48.5,44.6 48.6,45.5 48,45.5 48,44.6 48.5,44.6 				"/>
				<g style="clip-path:url(#SVGID_4_);">
					<path class="st14" d="M48.6,45.5l-0.6,0l0-1l0.5,0L48.6,45.5L48.6,45.5z M48.5,44.6l-0.4,0l0,0.9l0.5,0L48.5,44.6L48.5,44.6z"
						/>
				</g>
				<path style="clip-path:url(#SVGID_4_);fill:#F1E623;" d="M48.6,44.6l0.2,0l0,0.1l0.1,0l0-0.1l0.2,0l0,0.1l0.1,0l0-0.1l0.2,0
					l0,0.3c0,0,0,0.1-0.1,0.1l-0.6,0c0,0-0.1,0-0.1-0.1L48.6,44.6L48.6,44.6z"/>
				<g style="clip-path:url(#SVGID_4_);">
					<path class="st14" d="M49.2,45l-0.6,0l-0.1-0.1l0-0.3l0.2,0l0,0.2l0.1,0l0-0.1l0.2,0l0,0.2l0.1,0l0-0.1l0.2,0l0,0.4L49.2,45
						L49.2,45z M48.7,44.6l-0.1,0l0,0.3l0.6,0.1l0-0.1l0-0.3l-0.1,0l0,0.1l-0.1,0l0-0.2l-0.1,0l0,0.1l-0.1,0L48.7,44.6L48.7,44.6z"
						/>
				</g>
				<polygon style="clip-path:url(#SVGID_4_);fill:#F1E623;" points="49.2,45 49.2,45.5 48.7,45.5 48.7,45 				"/>
				<g style="clip-path:url(#SVGID_4_);">
					<path class="st14" d="M49.3,45.6l-0.6,0l0-0.6l0.5,0L49.3,45.6L49.3,45.6z M49.2,45l-0.5,0l0,0.5l0.5,0L49.2,45L49.2,45z"/>
				</g>
				<path style="clip-path:url(#SVGID_4_);fill:#F1E623;" d="M47.2,44.6l0.2,0l0,0.1l0.1,0l0-0.1l0.2,0l0,0.1l0.1,0l0-0.1l0.2,0
					l0,0.3c0,0,0,0.1-0.1,0.1l-0.6,0c0,0-0.1,0-0.1-0.1L47.2,44.6L47.2,44.6z"/>
				<g style="clip-path:url(#SVGID_4_);">
					<path class="st14" d="M47.9,45l-0.6,0l-0.1-0.1l0-0.3l0.2,0l0,0.2l0.1,0l0-0.1l0.2,0l0,0.2l0.1,0l0-0.1l0.2,0l0,0.4L47.9,45
						L47.9,45z M47.4,44.6l-0.1,0l0,0.3l0.6,0.1l0-0.1l0-0.3l-0.1,0l0,0.1l-0.1,0l0-0.2l-0.1,0l0,0.1l-0.1,0L47.4,44.6L47.4,44.6z"
						/>
				</g>
				<polygon style="clip-path:url(#SVGID_4_);fill:#F1E623;" points="47.8,45 47.9,45.5 47.3,45.5 47.3,45 				"/>
				<g style="clip-path:url(#SVGID_4_);">
					<path class="st14" d="M47.9,45.5l-0.6,0l0-0.6l0.5,0L47.9,45.5L47.9,45.5z M47.8,45l-0.5,0l0,0.5l0.5,0L47.8,45L47.8,45z"/>
				</g>
				<path style="clip-path:url(#SVGID_4_);fill:#020203;" d="M48.2,44.9c0-0.1,0.1-0.1,0.1,0l0,0.2l-0.1,0L48.2,44.9L48.2,44.9z"/>
				<path style="clip-path:url(#SVGID_4_);fill:#020203;" d="M48.9,45.2c0-0.1,0.1-0.1,0.1,0l0,0.2l-0.1,0L48.9,45.2L48.9,45.2z"/>
				<path style="clip-path:url(#SVGID_4_);fill:#020203;" d="M47.5,45.2c0-0.1,0.1-0.1,0.1,0l0,0.2l-0.1,0L47.5,45.2L47.5,45.2z"/>
				<path style="clip-path:url(#SVGID_4_);fill:#F1E623;" d="M53.8,44.2l0.2,0l0,0.1l0.1,0l0-0.1l0.2,0l0,0.1l0.1,0l0-0.1l0.2,0
					l0,0.3c0,0,0,0.1-0.1,0.1l-0.6,0c0,0-0.1,0-0.1-0.1L53.8,44.2L53.8,44.2z"/>
				<g style="clip-path:url(#SVGID_4_);">
					<path class="st14" d="M54.5,44.6l-0.6,0l-0.1-0.1l0-0.3l0.2,0l0,0.2l0.1,0l0-0.1l0.2,0l0,0.2l0.1,0l0-0.1l0.2,0l0,0.4
						L54.5,44.6L54.5,44.6z M53.9,44.2l-0.1,0l0,0.3l0.6,0.1l0-0.1l0-0.3l-0.1,0l0,0.1l-0.1,0l0-0.2l-0.1,0l0,0.1l-0.1,0L53.9,44.2
						L53.9,44.2z"/>
				</g>
				<polygon style="clip-path:url(#SVGID_4_);fill:#F1E623;" points="54.4,44.6 54.4,45.6 53.9,45.6 53.9,44.6 54.4,44.6 				"/>
				<g style="clip-path:url(#SVGID_4_);">
					<path class="st14" d="M54.5,45.6l-0.6,0l0-1l0.5,0L54.5,45.6L54.5,45.6z M54.4,44.6l-0.4,0l0,0.9l0.5,0L54.4,44.6L54.4,44.6z"
						/>
				</g>
				<path style="clip-path:url(#SVGID_4_);fill:#F1E623;" d="M54.5,44.7l0.1,0l0,0.1l0.1,0l0-0.1l0.2,0l0,0.1l0.1,0l0-0.1l0.2,0
					l0,0.3c0,0,0,0.1-0.1,0.1l-0.6,0c0,0-0.1,0-0.1-0.1L54.5,44.7L54.5,44.7z"/>
				<g style="clip-path:url(#SVGID_4_);">
					<path class="st14" d="M55.1,45.1l-0.6,0L54.5,45l0-0.3l0.2,0l0,0.2l0.1,0l0-0.1l0.2,0l0,0.2l0.1,0l0-0.1l0.2,0l0,0.4L55.1,45.1
						L55.1,45.1z M54.6,44.7l-0.1,0l0,0.3l0.6,0.1l0-0.1l0-0.3l-0.1,0l0,0.1l-0.1,0l0-0.2l-0.1,0l0,0.1l-0.1,0L54.6,44.7L54.6,44.7z
						"/>
				</g>
				<polygon style="clip-path:url(#SVGID_4_);fill:#F1E623;" points="55.1,45.1 55.1,45.6 54.6,45.6 54.6,45 				"/>
				<g style="clip-path:url(#SVGID_4_);">
					<path class="st14" d="M54.5,45.6l0-0.6l0.5,0l0,0.6L54.5,45.6L54.5,45.6z M55.1,45.1l-0.5,0l0,0.4l0.5,0L55.1,45.1L55.1,45.1z"
						/>
				</g>
				<path style="clip-path:url(#SVGID_4_);fill:#F1E623;" d="M53.1,44.7l0.2,0l0,0.1l0.1,0l0-0.1l0.2,0l0,0.1l0.1,0l0-0.1l0.2,0
					l0,0.3c0,0,0,0.1-0.1,0.1l-0.6,0c0,0-0.1,0-0.1-0.1L53.1,44.7L53.1,44.7z"/>
				<g style="clip-path:url(#SVGID_4_);">
					<path class="st14" d="M53.8,45.1l-0.6,0L53.1,45l0-0.3l0.2,0l0,0.2l0.1,0l0-0.1l0.2,0l0,0.2l0.1,0l0-0.1l0.2,0l0,0.4L53.8,45.1
						L53.8,45.1z M53.3,44.7l-0.1,0l0,0.3l0.6,0.1l0-0.1l0-0.3l-0.1,0l0,0.1l-0.1,0l0-0.2l-0.1,0l0,0.1l-0.1,0L53.3,44.7L53.3,44.7z
						"/>
				</g>
				<polygon style="clip-path:url(#SVGID_4_);fill:#F1E623;" points="53.7,45 53.7,45.6 53.2,45.5 53.2,45 				"/>
				<g style="clip-path:url(#SVGID_4_);">
					<path class="st14" d="M53.8,45.6l-0.6,0l0-0.5l0.5,0L53.8,45.6L53.8,45.6z M53.7,45l-0.5,0l0,0.5l0.5,0L53.7,45L53.7,45z"/>
				</g>
				<path style="clip-path:url(#SVGID_4_);fill:#F1E623;" d="M53.6,46.9c0-0.8,0.5-1,0.5-1c0,0,0.5,0.2,0.5,1L53.6,46.9L53.6,46.9z"
					/>
				<path style="clip-path:url(#SVGID_4_);fill:#F1E623;" d="M53.2,45.9l-0.1,0.9l0.5,0c0-0.8,0.5-0.9,0.5-0.9c0,0,0.5,0.2,0.5,0.9
					l0.5,0l-0.1-0.9L53.2,45.9L53.2,45.9z"/>
				<g style="clip-path:url(#SVGID_4_);">
					<path class="st14" d="M55.2,46.9l-0.6,0c0-0.7-0.5-0.9-0.5-0.9c0,0-0.5,0.1-0.5,0.9l-0.6,0l0.1-1l2,0L55.2,46.9L55.2,46.9z
						 M54.1,46l-0.9,0l-0.1,0.9l0.5,0C53.6,46.2,54,46,54.1,46L54.1,46z M54.2,46c0.1,0.1,0.5,0.3,0.5,0.9l0.5,0L55.1,46L54.2,46
						L54.2,46z"/>
				</g>
				<path style="clip-path:url(#SVGID_4_);fill:#F1E623;" d="M53.1,46.9l2.2,0c0,0,0.1,0.1,0.1,0.1c0,0.1,0,0.1-0.1,0.1l-2.2,0
					c0,0-0.1-0.1-0.1-0.1C53,46.9,53,46.9,53.1,46.9L53.1,46.9z"/>
				<g style="clip-path:url(#SVGID_4_);">
					<path class="st14" d="M55.2,47.2l-2.2,0c-0.1,0-0.1-0.1-0.1-0.2c0-0.1,0.1-0.2,0.1-0.2l2.2,0c0.1,0,0.1,0.1,0.1,0.2
						C55.4,47.1,55.3,47.2,55.2,47.2L55.2,47.2z M53.1,46.9l0,0.2l2.2,0c0,0,0.1,0,0.1-0.1L53.1,46.9L53.1,46.9z"/>
				</g>
				<path style="clip-path:url(#SVGID_4_);fill:#F1E623;" d="M53.9,46.9c0-0.5,0.3-0.6,0.3-0.6s0.3,0.1,0.3,0.6L53.9,46.9L53.9,46.9
					z"/>
				<g style="clip-path:url(#SVGID_4_);">
					<path class="st14" d="M54.5,46.9l-0.6,0c0-0.5,0.3-0.7,0.3-0.7C54.2,46.2,54.5,46.4,54.5,46.9L54.5,46.9L54.5,46.9z M54.1,46.3
						c0,0-0.2,0.1-0.2,0.6l0.5,0C54.4,46.4,54.1,46.3,54.1,46.3L54.1,46.3z"/>
				</g>
				<path style="clip-path:url(#SVGID_4_);fill:#F1E623;" d="M53.1,45.6l2.1,0c0,0,0.1,0,0.1,0.1c0,0.1,0,0.1-0.1,0.1l-2.1,0
					c0,0-0.1,0-0.1-0.1C53,45.6,53.1,45.6,53.1,45.6L53.1,45.6z"/>
				<g style="clip-path:url(#SVGID_4_);">
					<path class="st14" d="M55.2,45.8l-2.1,0c-0.1,0-0.1-0.1-0.1-0.1c0-0.1,0-0.1,0.1-0.1l2.1,0c0.1,0,0.1,0.1,0.1,0.1
						C55.3,45.7,55.3,45.8,55.2,45.8L55.2,45.8z M53.1,45.6l0,0.1l2.1,0c0,0,0,0,0-0.1L53.1,45.6L53.1,45.6z"/>
				</g>
				<path style="clip-path:url(#SVGID_4_);fill:#F1E623;" d="M53.2,45.8l2,0c0,0,0.1,0,0.1,0.1c0,0.1,0,0.1-0.1,0.1l-2,0
					c0,0-0.1,0-0.1-0.1C53.1,45.8,53.1,45.8,53.2,45.8L53.2,45.8z"/>
				<g style="clip-path:url(#SVGID_4_);">
					<path class="st14" d="M55.2,46l-2,0c-0.1,0-0.1-0.1-0.1-0.1c0-0.1,0.1-0.1,0.1-0.1l2,0c0.1,0,0.1,0.1,0.1,0.1
						C55.3,46,55.2,46,55.2,46L55.2,46z M53.2,45.8l0,0.1l2,0c0,0,0,0,0-0.1L53.2,45.8L53.2,45.8z"/>
				</g>
				<path style="clip-path:url(#SVGID_4_);fill:#020203;" d="M54.1,44.9c0-0.1,0.1-0.1,0.1,0l0,0.2l-0.1,0L54.1,44.9L54.1,44.9z"/>
				<path style="clip-path:url(#SVGID_4_);fill:#020203;" d="M54.8,45.2c0-0.1,0.1-0.1,0.1,0l0,0.2l-0.1,0L54.8,45.2L54.8,45.2z"/>
				<path style="clip-path:url(#SVGID_4_);fill:#020203;" d="M53.4,45.2c0-0.1,0.1-0.1,0.1,0l0,0.2l-0.1,0L53.4,45.2L53.4,45.2z"/>
				<path style="clip-path:url(#SVGID_4_);fill:#F1E623;" d="M59.6,44.3l0.2,0l0,0.1l0.1,0l0-0.1l0.2,0l0,0.1l0.1,0l0-0.1l0.2,0
					l0,0.3c0,0,0,0.1-0.1,0.1l-0.6,0c0,0-0.1,0-0.1-0.1L59.6,44.3L59.6,44.3z"/>
				<g style="clip-path:url(#SVGID_4_);">
					<path class="st14" d="M60.3,44.7l-0.6,0l-0.1-0.1l0-0.3l0.2,0l0,0.2l0.1,0l0-0.1l0.2,0l0,0.2l0.1,0l0-0.1l0.2,0l0,0.4
						L60.3,44.7L60.3,44.7z M59.8,44.3l-0.1,0l0,0.3l0.6,0.1l0-0.1l0-0.3l-0.1,0l0,0.1l-0.1,0l0-0.2l-0.1,0l0,0.1l-0.1,0L59.8,44.3
						L59.8,44.3z"/>
				</g>
				<polygon style="clip-path:url(#SVGID_4_);fill:#F1E623;" points="60.2,44.6 60.3,45.6 59.7,45.6 59.7,44.6 				"/>
				<g style="clip-path:url(#SVGID_4_);">
					<path class="st14" d="M60.3,45.6l-0.6,0l0-1l0.5,0L60.3,45.6L60.3,45.6z M60.2,44.6l-0.5,0l0,0.9l0.5,0L60.2,44.6L60.2,44.6z"
						/>
				</g>
				<path style="clip-path:url(#SVGID_4_);fill:#F1E623;" d="M60.3,44.7l0.2,0l0,0.1l0.1,0l0-0.1l0.2,0l0,0.1l0.1,0l0-0.1l0.2,0
					l0,0.3c0,0,0,0.1-0.1,0.1l-0.6,0c0,0-0.1,0-0.1-0.1L60.3,44.7L60.3,44.7z"/>
				<g style="clip-path:url(#SVGID_4_);">
					<path class="st14" d="M60.9,45.1l-0.6,0L60.3,45l0-0.3l0.2,0l0,0.2l0.1,0l0-0.1l0.2,0l0,0.2l0.1,0l0-0.1l0.2,0L60.9,45.1
						L60.9,45.1L60.9,45.1z M60.4,44.7l-0.1,0l0,0.3l0.6,0.1l0-0.1l0-0.3l-0.1,0l0,0.1l-0.1,0l0-0.2l-0.1,0l0,0.1l-0.1,0L60.4,44.7
						L60.4,44.7z"/>
				</g>
				<polygon style="clip-path:url(#SVGID_4_);fill:#F1E623;" points="60.9,45.1 60.9,45.6 60.4,45.6 60.4,45.1 				"/>
				<g style="clip-path:url(#SVGID_4_);">
					<path class="st14" d="M60.9,45.6l-0.6,0l0-0.6l0.5,0L60.9,45.6L60.9,45.6z M60.9,45.1l-0.5,0l0,0.5l0.5,0L60.9,45.1L60.9,45.1z
						"/>
				</g>
				<path style="clip-path:url(#SVGID_4_);fill:#F1E623;" d="M58.9,44.7l0.2,0l0,0.1l0.1,0l0-0.1l0.2,0l0,0.1l0.1,0l0-0.1l0.2,0
					l0,0.3c0,0,0,0.1-0.1,0.1l-0.6,0c0,0-0.1,0-0.1-0.1L58.9,44.7L58.9,44.7z"/>
				<g style="clip-path:url(#SVGID_4_);">
					<path class="st14" d="M59.6,45.1l-0.6,0L58.9,45l0-0.3l0.2,0l0,0.2l0.1,0l0-0.1l0.2,0l0,0.2l0.1,0l0-0.1l0.2,0l0,0.4L59.6,45.1
						L59.6,45.1z M59.1,44.7l-0.1,0l0,0.3l0.6,0.1l0-0.1l0-0.3l-0.1,0l0,0.1l-0.2,0l0-0.2l-0.1,0l0,0.1l-0.1,0L59.1,44.7L59.1,44.7z
						"/>
				</g>
				<polygon style="clip-path:url(#SVGID_4_);fill:#F1E623;" points="59.5,45.1 59.6,45.6 59,45.6 59,45.1 				"/>
				<g style="clip-path:url(#SVGID_4_);">
					<path class="st14" d="M59.6,45.6l-0.6,0l0-0.5l0.5,0L59.6,45.6L59.6,45.6z M59.5,45.1l-0.5,0l0,0.5l0.5,0L59.5,45.1L59.5,45.1z
						"/>
				</g>
				<path style="clip-path:url(#SVGID_4_);fill:#F1E623;" d="M59.4,47c0-0.8,0.5-1,0.5-1c0,0,0.5,0.2,0.5,1L59.4,47L59.4,47z"/>
				<path style="clip-path:url(#SVGID_4_);fill:#F1E623;" d="M59,46l-0.1,0.9l0.5,0c0-0.8,0.5-0.9,0.5-0.9c0,0,0.5,0.2,0.5,0.9
					l0.5,0L60.9,46L59,46L59,46z"/>
				<g style="clip-path:url(#SVGID_4_);">
					<path class="st14" d="M61.1,47l-0.6,0c0-0.7-0.5-0.9-0.5-0.9s-0.5,0.1-0.5,0.9l-0.6,0l0.1-1l2,0L61.1,47L61.1,47z M59.9,46
						L59,46l-0.1,0.9l0.5,0C59.4,46.3,59.8,46.1,59.9,46L59.9,46z M60,46c0.1,0.1,0.5,0.3,0.5,0.9l0.5,0L60.9,46L60,46L60,46z"/>
				</g>
				<path style="clip-path:url(#SVGID_4_);fill:#F1E623;" d="M58.9,46.9l2.2,0c0,0,0.1,0.1,0.1,0.1c0,0.1,0,0.1-0.1,0.1l-2.2,0
					c0,0-0.1-0.1-0.1-0.1S58.8,46.9,58.9,46.9L58.9,46.9z"/>
				<g style="clip-path:url(#SVGID_4_);">
					<path class="st14" d="M61.1,47.2l-2.2,0c-0.1,0-0.1-0.1-0.1-0.2c0-0.1,0-0.2,0.1-0.2l2.2,0c0.1,0,0.1,0.1,0.1,0.2
						C61.2,47.1,61.1,47.2,61.1,47.2L61.1,47.2z M58.9,47l0,0.2l2.2,0c0,0,0.1,0,0.1-0.1L58.9,47L58.9,47z"/>
				</g>
				<path style="clip-path:url(#SVGID_4_);fill:#F1E623;" d="M59.7,46.9c0-0.5,0.3-0.6,0.3-0.6c0,0,0.3,0.1,0.3,0.6L59.7,46.9
					L59.7,46.9z"/>
				<g style="clip-path:url(#SVGID_4_);">
					<path class="st14" d="M60.3,47l-0.6,0c0-0.5,0.3-0.7,0.3-0.7C60,46.3,60.3,46.4,60.3,47L60.3,47L60.3,47z M60,46.3
						c0,0-0.2,0.1-0.3,0.6l0.5,0C60.2,46.5,60,46.3,60,46.3L60,46.3z"/>
				</g>
				<path style="clip-path:url(#SVGID_4_);fill:#F1E623;" d="M58.9,45.6l2.1,0c0,0,0.1,0.1,0.1,0.1c0,0.1,0,0.1-0.1,0.1l-2.1,0
					c0,0-0.1,0-0.1-0.1C58.8,45.6,58.9,45.6,58.9,45.6L58.9,45.6z"/>
				<g style="clip-path:url(#SVGID_4_);">
					<path class="st14" d="M61,45.9l-2.1,0c-0.1,0-0.1-0.1-0.1-0.1c0-0.1,0.1-0.1,0.1-0.1l2.1,0c0.1,0,0.1,0.1,0.1,0.1
						C61.1,45.8,61.1,45.9,61,45.9L61,45.9z M58.9,45.6l0,0.1l2.1,0c0,0,0,0,0-0.1L58.9,45.6L58.9,45.6z"/>
				</g>
				<path style="clip-path:url(#SVGID_4_);fill:#F1E623;" d="M59,45.8l2,0c0,0,0.1,0,0.1,0.1C61,46,61,46,61,46l-2,0
					c0,0-0.1,0-0.1-0.1C58.9,45.9,58.9,45.8,59,45.8L59,45.8z"/>
				<g style="clip-path:url(#SVGID_4_);">
					<path class="st14" d="M61,46.1l-2,0c-0.1,0-0.1-0.1-0.1-0.1c0-0.1,0-0.1,0.1-0.1l2,0c0.1,0,0.1,0.1,0.1,0.1
						C61.1,46,61,46.1,61,46.1L61,46.1z M59,45.8l0,0.1l2,0c0,0,0,0,0-0.1L59,45.8L59,45.8z"/>
				</g>
				<path style="clip-path:url(#SVGID_4_);fill:#020203;" d="M59.9,44.9c0-0.1,0.1-0.1,0.1,0l0,0.2l-0.1,0L59.9,44.9L59.9,44.9z"/>
				<path style="clip-path:url(#SVGID_4_);fill:#020203;" d="M60.6,45.3c0-0.1,0.1-0.1,0.1,0l0,0.2l-0.1,0L60.6,45.3L60.6,45.3z"/>
				<path style="clip-path:url(#SVGID_4_);fill:#020203;" d="M59.2,45.3c0-0.1,0.1-0.1,0.1,0l0,0.2l-0.1,0L59.2,45.3L59.2,45.3z"/>
				<path style="clip-path:url(#SVGID_4_);fill:#F1E623;" d="M47.9,51l0.1,0l0,0.1l0.1,0l0-0.1l0.2,0l0,0.1l0.1,0l0-0.1l0.2,0l0,0.3
					c0,0,0,0.1-0.1,0.1l-0.6,0c0,0-0.1,0-0.1-0.1L47.9,51L47.9,51z"/>
				<g style="clip-path:url(#SVGID_4_);">
					<path class="st14" d="M48.5,51.4l-0.6,0l-0.1-0.1l0-0.3l0.2,0l0,0.2l0.1,0l0-0.1l0.2,0l0,0.2l0.1,0l0-0.1l0.2,0l0,0.4
						L48.5,51.4L48.5,51.4z M48,51l-0.1,0l0,0.3l0.6,0.1l0-0.1l0-0.3l-0.1,0l0,0.1l-0.1,0l0-0.2l-0.1,0l0,0.1l-0.1,0L48,51L48,51z"
						/>
				</g>
				<polygon style="clip-path:url(#SVGID_4_);fill:#F1E623;" points="48.5,51.4 48.5,52.3 48,52.3 48,51.4 48.5,51.4 				"/>
				<g style="clip-path:url(#SVGID_4_);">
					<path class="st14" d="M48.5,52.4l-0.6,0l0-1l0.5,0L48.5,52.4L48.5,52.4z M48.5,51.4l-0.5,0l0,0.9l0.5,0L48.5,51.4L48.5,51.4z"
						/>
				</g>
				<path style="clip-path:url(#SVGID_4_);fill:#F1E623;" d="M48.6,51.4l0.1,0l0,0.1l0.1,0l0-0.1l0.2,0l0,0.1l0.1,0l0-0.1l0.2,0
					l0,0.3c0,0,0,0.1-0.1,0.1l-0.6,0c0,0-0.1,0-0.1-0.1L48.6,51.4L48.6,51.4z"/>
				<g style="clip-path:url(#SVGID_4_);">
					<path class="st14" d="M49.2,51.9l-0.6,0l-0.1-0.1l0-0.3l0.2,0l0,0.2l0.1,0l0-0.1l0.2,0l0,0.2l0.1,0l0-0.1l0.2,0L49.2,51.9
						L49.2,51.9L49.2,51.9z M48.7,51.4l-0.1,0l0,0.3l0.6,0.1l0-0.1l0-0.3l-0.1,0l0,0.1l-0.1,0l0-0.2l-0.1,0l0,0.1l-0.1,0L48.7,51.4
						L48.7,51.4z"/>
				</g>
				<polygon style="clip-path:url(#SVGID_4_);fill:#F1E623;" points="49.2,51.8 49.2,52.3 48.7,52.3 48.7,51.8 				"/>
				<g style="clip-path:url(#SVGID_4_);">
					<path class="st14" d="M49.2,52.4l-0.6,0l0-0.5l0.5,0L49.2,52.4L49.2,52.4z M49.1,51.8l-0.5,0l0,0.5l0.5,0L49.1,51.8L49.1,51.8z
						"/>
				</g>
				<path style="clip-path:url(#SVGID_4_);fill:#F1E623;" d="M47.2,51.4l0.2,0l0,0.1l0.1,0l0-0.1l0.2,0l0,0.1l0.1,0l0-0.1l0.2,0
					l0,0.3c0,0,0,0.1-0.1,0.1l-0.6,0c0,0-0.1,0-0.1-0.1L47.2,51.4L47.2,51.4z"/>
				<g style="clip-path:url(#SVGID_4_);">
					<path class="st14" d="M47.8,51.8l-0.6,0l-0.1-0.1l0-0.3l0.2,0l0,0.2l0.1,0l0-0.1l0.2,0l0,0.2l0.1,0l0-0.1l0.2,0L47.8,51.8
						L47.8,51.8L47.8,51.8z M47.3,51.4l-0.1,0l0,0.3l0.6,0.1l0-0.1l0-0.3l-0.1,0l0,0.1l-0.1,0l0-0.2l-0.1,0l0,0.1l-0.1,0L47.3,51.4
						L47.3,51.4z"/>
				</g>
				<polygon style="clip-path:url(#SVGID_4_);fill:#F1E623;" points="47.8,51.8 47.8,52.3 47.3,52.3 47.3,51.8 				"/>
				<g style="clip-path:url(#SVGID_4_);">
					<path class="st14" d="M47.9,52.4l-0.6,0l0-0.5l0.5,0L47.9,52.4L47.9,52.4z M47.8,51.8l-0.5,0l0,0.5l0.5,0L47.8,51.8L47.8,51.8z
						"/>
				</g>
				<path style="clip-path:url(#SVGID_4_);fill:#F1E623;" d="M47.7,53.7c0-0.8,0.5-1,0.5-1c0,0,0.5,0.2,0.5,1L47.7,53.7L47.7,53.7z"
					/>
				<path style="clip-path:url(#SVGID_4_);fill:#F1E623;" d="M47.3,52.7l-0.1,0.9l0.5,0c0-0.8,0.5-0.9,0.5-0.9c0,0,0.5,0.2,0.5,0.9
					l0.5,0l-0.1-0.9L47.3,52.7L47.3,52.7z"/>
				<g style="clip-path:url(#SVGID_4_);">
					<path class="st14" d="M49.3,53.7l-0.6,0c0-0.7-0.5-0.9-0.5-0.9c0,0-0.5,0.1-0.5,0.9l-0.6,0l0.1-1l2,0L49.3,53.7L49.3,53.7z
						 M48.2,52.7l-0.9,0l-0.1,0.9l0.5,0C47.7,53,48,52.8,48.2,52.7L48.2,52.7z M48.3,52.7c0.1,0.1,0.5,0.3,0.5,0.9l0.5,0l-0.1-0.9
						L48.3,52.7L48.3,52.7z"/>
				</g>
				<path style="clip-path:url(#SVGID_4_);fill:#F1E623;" d="M47.1,53.6l2.2,0c0,0,0.1,0.1,0.1,0.1c0,0.1,0,0.1-0.1,0.1l-2.2,0
					c0,0-0.1-0.1-0.1-0.1C47.1,53.7,47.1,53.6,47.1,53.6L47.1,53.6z"/>
				<g style="clip-path:url(#SVGID_4_);">
					<path class="st14" d="M49.3,53.9l-2.2,0c-0.1,0-0.1-0.1-0.1-0.2c0-0.1,0.1-0.2,0.1-0.2l2.2,0c0.1,0,0.1,0.1,0.1,0.2
						C49.4,53.9,49.4,53.9,49.3,53.9L49.3,53.9z M47.1,53.7l0,0.2l2.2,0c0,0,0.1,0,0.1-0.1L47.1,53.7L47.1,53.7z"/>
				</g>
				<path style="clip-path:url(#SVGID_4_);fill:#F1E623;" d="M47.9,53.6c0-0.5,0.3-0.6,0.3-0.6s0.3,0.2,0.3,0.6L47.9,53.6L47.9,53.6
					z"/>
				<g style="clip-path:url(#SVGID_4_);">
					<path class="st14" d="M48.6,53.7l-0.6,0c0-0.5,0.3-0.7,0.3-0.7C48.3,53,48.6,53.1,48.6,53.7L48.6,53.7L48.6,53.7z M48.2,53.1
						c0,0-0.2,0.1-0.3,0.6l0.5,0C48.5,53.2,48.2,53.1,48.2,53.1L48.2,53.1z"/>
				</g>
				<path style="clip-path:url(#SVGID_4_);fill:#F1E623;" d="M47.2,52.3l2.1,0c0,0,0.1,0.1,0.1,0.1c0,0.1,0,0.1-0.1,0.1l-2.1,0
					c0,0-0.1,0-0.1-0.1C47.1,52.4,47.1,52.3,47.2,52.3L47.2,52.3z"/>
				<g style="clip-path:url(#SVGID_4_);">
					<path class="st14" d="M49.3,52.6l-2.1,0c-0.1,0-0.1-0.1-0.1-0.1c0-0.1,0-0.1,0.1-0.1l2.1,0c0.1,0,0.1,0.1,0.1,0.1
						S49.3,52.6,49.3,52.6L49.3,52.6z M47.2,52.4l0,0.1l2.1,0c0,0,0,0,0-0.1L47.2,52.4L47.2,52.4z"/>
				</g>
				<path style="clip-path:url(#SVGID_4_);fill:#F1E623;" d="M47.2,52.5l2,0c0,0,0.1,0.1,0.1,0.1c0,0.1,0,0.1-0.1,0.1l-2,0
					c0,0-0.1,0-0.1-0.1C47.2,52.6,47.2,52.5,47.2,52.5L47.2,52.5z"/>
				<g style="clip-path:url(#SVGID_4_);">
					<path class="st14" d="M49.2,52.8l-2,0c-0.1,0-0.1-0.1-0.1-0.1c0-0.1,0.1-0.1,0.1-0.1l2,0c0.1,0,0.1,0.1,0.1,0.1
						C49.3,52.7,49.3,52.8,49.2,52.8L49.2,52.8z M47.2,52.6l0,0.1l2,0c0,0,0,0,0-0.1L47.2,52.6L47.2,52.6z"/>
				</g>
				<path style="clip-path:url(#SVGID_4_);fill:#020203;" d="M48.2,51.7c0-0.1,0.1-0.1,0.1,0l0,0.2l-0.1,0L48.2,51.7L48.2,51.7z"/>
				<path style="clip-path:url(#SVGID_4_);fill:#020203;" d="M48.9,52c0-0.1,0.1-0.1,0.1,0l0,0.2l-0.1,0L48.9,52L48.9,52z"/>
				<path style="clip-path:url(#SVGID_4_);fill:#020203;" d="M47.5,52c0-0.1,0.1-0.1,0.1,0l0,0.2l-0.1,0L47.5,52L47.5,52z"/>
				<path style="clip-path:url(#SVGID_4_);fill:#F1E623;" d="M59.2,58.3l0.1,0.1l-0.1,0.1l0.1,0.1l0.1-0.1l0.1,0.1l-0.1,0.1l0.1,0.1
					l0.1-0.1l0.1,0.1L59.5,59c0,0-0.1,0-0.1,0L59,58.6c0,0,0-0.1,0-0.1L59.2,58.3L59.2,58.3z"/>
				<g style="clip-path:url(#SVGID_4_);">
					<path class="st14" d="M59.5,59.1L59.5,59.1L59,58.6l0-0.1l0.2-0.2l0.2,0.1l-0.1,0.1l0.1,0l0-0.1l0.2,0.1l-0.1,0.1l0.1,0l0-0.1
						l0.2,0.1L59.5,59.1L59.5,59.1z M59.2,58.3L59,58.5l0.4,0.6l0-0.1l0.2-0.2l-0.1-0.1l0,0.1l-0.1-0.1l0.1-0.1l-0.1-0.1l0,0.1
						l-0.1-0.1l0.1-0.1L59.2,58.3L59.2,58.3z"/>
				</g>
				<polygon style="clip-path:url(#SVGID_4_);fill:#F1E623;" points="59.4,59 58.8,59.7 58.4,59.3 59,58.6 				"/>
				<g style="clip-path:url(#SVGID_4_);">
					<path class="st14" d="M58.8,59.8l-0.4-0.5l0.6-0.7l0.4,0.4L58.8,59.8L58.8,59.8z M59,58.6l-0.6,0.6l0.4,0.4l0.5-0.7L59,58.6
						L59,58.6z"/>
				</g>
				<path style="clip-path:url(#SVGID_4_);fill:#F1E623;" d="M59.4,59.1l0.1,0.1l-0.1,0.1l0.1,0.1l0.1-0.1l0.1,0.1l-0.1,0.1l0.1,0.1
					l0.1-0.1l0.1,0.1l-0.2,0.2c0,0-0.1,0-0.1,0l-0.4-0.5c0,0,0-0.1,0-0.1L59.4,59.1L59.4,59.1z"/>
				<g style="clip-path:url(#SVGID_4_);">
					<path class="st14" d="M59.7,60L59.7,60l-0.5-0.5l0-0.1l0.2-0.2l0.2,0.1l-0.1,0.1l0.1,0l0-0.1l0.2,0.1l-0.1,0.1l0.1,0l0-0.1
						l0.2,0.1L59.7,60L59.7,60z M59.4,59.2l-0.1,0.2l0.4,0.6l0,0l0.2-0.2l-0.1-0.1l0,0.1l-0.1-0.1l0.1-0.1l-0.1-0.1l0,0.1l-0.1-0.1
						l0.1-0.1L59.4,59.2L59.4,59.2z"/>
				</g>
				<polygon style="clip-path:url(#SVGID_4_);fill:#F1E623;" points="59.6,59.9 59.3,60.3 58.9,59.8 59.2,59.5 59.6,59.9 				"/>
				<g style="clip-path:url(#SVGID_4_);">
					<path class="st14" d="M59.3,60.3l-0.4-0.5l0.3-0.4l0.4,0.4L59.3,60.3L59.3,60.3z M59.2,59.5l-0.3,0.3l0.3,0.4l0.3-0.3
						L59.2,59.5L59.2,59.5z"/>
				</g>
				<path style="clip-path:url(#SVGID_4_);fill:#F1E623;" d="M58.4,58l0.1,0.1l-0.1,0.1l0.1,0.1l0.1-0.1l0.1,0.1l-0.1,0.1l0.1,0.1
					l0.1-0.1l0.1,0.1l-0.2,0.2c0,0-0.1,0-0.1,0l-0.4-0.5c0,0,0-0.1,0-0.1L58.4,58L58.4,58z"/>
				<g style="clip-path:url(#SVGID_4_);">
					<path class="st14" d="M58.7,58.9L58.7,58.9l-0.5-0.5l0-0.1l0.2-0.2l0.2,0.1l-0.1,0.1l0.1,0l0-0.1l0.2,0.1l-0.1,0.1l0.1,0l0-0.1
						l0.2,0.1L58.7,58.9L58.7,58.9z M58.4,58l-0.1,0.2l0.4,0.6l0,0l0.2-0.2l-0.1-0.1l0,0.1l-0.1-0.1l0.1-0.1l-0.1-0.1l0,0.1
						l-0.1-0.1l0.1-0.1L58.4,58L58.4,58z"/>
				</g>
				<polygon style="clip-path:url(#SVGID_4_);fill:#F1E623;" points="58.6,58.8 58.3,59.1 57.9,58.7 58.3,58.4 				"/>
				<g style="clip-path:url(#SVGID_4_);">
					<path class="st14" d="M58.3,59.2l-0.4-0.5l0.3-0.4l0.4,0.4L58.3,59.2L58.3,59.2z M58.2,58.4L58,58.7l0.4,0.4l0.3-0.3L58.2,58.4
						L58.2,58.4z"/>
				</g>
				<path style="clip-path:url(#SVGID_4_);fill:#F1E623;" d="M57.4,60c0.5-0.6,1-0.3,1-0.3c0,0,0.3,0.6-0.2,1.2L57.4,60L57.4,60z"/>
				<path style="clip-path:url(#SVGID_4_);fill:#F1E623;" d="M57.7,59L57,59.6l0.4,0.4c0.5-0.5,0.9-0.2,0.9-0.2c0,0,0.3,0.5-0.2,1.1
					l0.4,0.4l0.5-0.7L57.7,59L57.7,59z"/>
				<g style="clip-path:url(#SVGID_4_);">
					<path class="st14" d="M58.5,61.3l-0.4-0.5c0.4-0.5,0.2-1.1,0.2-1.1l0,0c0,0-0.1-0.1-0.3-0.1c-0.2,0-0.4,0.1-0.6,0.3L57,59.6
						l0.6-0.6l1.4,1.6L58.5,61.3L58.5,61.3z M58.4,59.8c0,0.1,0.1,0.2,0.1,0.3c0,0.2,0,0.5-0.3,0.8l0.4,0.4l0.5-0.7L58.4,59.8
						L58.4,59.8z M57.7,59l-0.6,0.6l0.4,0.4c0.2-0.3,0.7-0.3,0.9-0.2L57.7,59L57.7,59z"/>
				</g>
				<path style="clip-path:url(#SVGID_4_);fill:#F1E623;" d="M57,59.5l1.5,1.8c0,0,0,0.1,0,0.1c0,0-0.1,0-0.1,0l-1.5-1.8
					c0,0,0-0.1,0-0.1C56.9,59.5,57,59.5,57,59.5L57,59.5z"/>
				<g style="clip-path:url(#SVGID_4_);">
					<path class="st14" d="M58.5,61.5L58.5,61.5l-1.6-1.8c0-0.1,0-0.1,0-0.2l0.1-0.1l1.6,1.8c0,0,0,0.1,0,0.2L58.5,61.5L58.5,61.5z
						 M56.9,59.7l1.6,1.8l0.1-0.1L57,59.6L56.9,59.7L56.9,59.7L56.9,59.7z"/>
				</g>
				<path style="clip-path:url(#SVGID_4_);fill:#F1E623;" d="M57.6,60.2c0.3-0.3,0.6-0.2,0.6-0.2c0,0,0.1,0.3-0.2,0.7L57.6,60.2
					L57.6,60.2z"/>
				<g style="clip-path:url(#SVGID_4_);">
					<path class="st14" d="M58,60.7l-0.4-0.5c0.3-0.5,0.6-0.3,0.6-0.3C58.2,60,58.3,60.3,58,60.7L58,60.7L58,60.7z M58,60
						c-0.1,0-0.3,0-0.4,0.2l0.4,0.4c0.2-0.3,0.2-0.6,0.2-0.6C58.1,60,58.1,60,58,60L58,60z"/>
				</g>
				<path style="clip-path:url(#SVGID_4_);fill:#F1E623;" d="M57.9,58.6l1.5,1.7c0,0,0,0.1,0,0.1c0,0-0.1,0-0.1,0l-1.5-1.7
					c0,0,0-0.1,0-0.1C57.8,58.6,57.8,58.6,57.9,58.6L57.9,58.6z"/>
				<g style="clip-path:url(#SVGID_4_);">
					<path class="st14" d="M59.3,60.5L59.3,60.5l-1.5-1.7c0-0.1,0-0.1,0-0.2l0.2,0l1.5,1.7C59.4,60.4,59.4,60.5,59.3,60.5L59.3,60.5
						L59.3,60.5z M57.8,58.7L57.8,58.7l1.4,1.8l0-0.1L57.8,58.7L57.8,58.7z"/>
				</g>
				<path style="clip-path:url(#SVGID_4_);fill:#F1E623;" d="M57.8,58.8l1.4,1.6c0,0,0,0.1,0,0.1c0,0-0.1,0-0.1,0L57.6,59
					c0,0,0-0.1,0-0.1C57.7,58.8,57.7,58.8,57.8,58.8L57.8,58.8z"/>
				<g style="clip-path:url(#SVGID_4_);">
					<path class="st14" d="M59.1,60.6L59.1,60.6L57.6,59c0-0.1,0-0.1,0-0.2l0.2,0l1.4,1.6C59.2,60.5,59.2,60.6,59.1,60.6L59.1,60.6
						L59.1,60.6z M57.8,58.8L57.8,58.8l1.3,1.8l0-0.1L57.8,58.8L57.8,58.8z"/>
				</g>
				<path style="clip-path:url(#SVGID_4_);fill:#020203;" d="M59,59C59,58.9,59.1,59,59,59l-0.1,0.2l-0.1-0.1L59,59L59,59z"/>
				<path style="clip-path:url(#SVGID_4_);fill:#020203;" d="M59.3,59.7C59.3,59.7,59.4,59.8,59.3,59.7l0,0.2l-0.1-0.1L59.3,59.7
					L59.3,59.7z"/>
				<path style="clip-path:url(#SVGID_4_);fill:#020203;" d="M58.3,58.6C58.3,58.6,58.4,58.7,58.3,58.6l0,0.2l-0.1-0.1L58.3,58.6
					L58.3,58.6z"/>
				<path style="clip-path:url(#SVGID_4_);fill:#F1E623;" d="M59.6,51.1l0.2,0l0,0.1l0.1,0l0-0.1l0.2,0l0,0.1l0.1,0l0-0.1l0.2,0
					l0,0.3c0,0,0,0.1-0.1,0.1l-0.6,0c0,0-0.1,0-0.1-0.1L59.6,51.1L59.6,51.1z"/>
				<g style="clip-path:url(#SVGID_4_);">
					<path class="st14" d="M60.2,51.5l-0.6,0l-0.1-0.1l0-0.3l0.2,0l0,0.2l0.1,0l0-0.1l0.2,0l0,0.2l0.1,0l0-0.1l0.2,0l0,0.4
						L60.2,51.5L60.2,51.5z M59.7,51.1l-0.1,0l0,0.3l0.6,0.1l0-0.1l0-0.3l-0.1,0l0,0.1l-0.1,0l0-0.2l-0.1,0l0,0.1l-0.1,0L59.7,51.1
						L59.7,51.1z"/>
				</g>
				<polygon style="clip-path:url(#SVGID_4_);fill:#F1E623;" points="60.2,51.5 60.2,52.4 59.6,52.4 59.7,51.5 				"/>
				<g style="clip-path:url(#SVGID_4_);">
					<path class="st14" d="M60.2,52.4l-0.6,0l0-1l0.5,0L60.2,52.4L60.2,52.4z M60.1,51.5l-0.4,0l0,0.9l0.5,0L60.1,51.5L60.1,51.5z"
						/>
				</g>
				<path style="clip-path:url(#SVGID_4_);fill:#F1E623;" d="M60.3,51.5l0.2,0l0,0.1l0.1,0l0-0.1l0.2,0l0,0.1l0.1,0l0-0.1l0.2,0
					l0,0.3c0,0,0,0.1-0.1,0.1l-0.6,0c0,0-0.1,0-0.1-0.1L60.3,51.5L60.3,51.5z"/>
				<g style="clip-path:url(#SVGID_4_);">
					<path class="st14" d="M60.9,51.9l-0.6,0l-0.1-0.1l0-0.3l0.2,0l0,0.2l0.1,0l0-0.1l0.2,0l0,0.2l0.1,0l0-0.1l0.2,0L60.9,51.9
						L60.9,51.9L60.9,51.9z M60.4,51.5l-0.1,0l0,0.3l0.6,0.1l0-0.1l0-0.3l-0.1,0l0,0.1l-0.1,0l0-0.2l-0.1,0l0,0.1l-0.1,0L60.4,51.5
						L60.4,51.5z"/>
				</g>
				<polygon style="clip-path:url(#SVGID_4_);fill:#F1E623;" points="60.9,51.9 60.9,52.4 60.3,52.4 60.4,51.9 				"/>
				<g style="clip-path:url(#SVGID_4_);">
					<path class="st14" d="M60.9,52.5l-0.6,0l0-0.5l0.5,0L60.9,52.5L60.9,52.5z M60.8,51.9l-0.5,0l0,0.5l0.5,0L60.8,51.9L60.8,51.9z
						"/>
				</g>
				<path style="clip-path:url(#SVGID_4_);fill:#F1E623;" d="M58.9,51.5l0.1,0l0,0.1l0.1,0l0-0.1l0.2,0l0,0.1l0.1,0l0-0.1l0.2,0
					l0,0.3c0,0,0,0.1-0.1,0.1l-0.6,0c0,0-0.1,0-0.1-0.1L58.9,51.5L58.9,51.5z"/>
				<g style="clip-path:url(#SVGID_4_);">
					<path class="st14" d="M59.5,51.9l-0.6,0l-0.1-0.1l0-0.3l0.2,0l0,0.2l0.1,0l0-0.1l0.2,0l0,0.2l0.1,0l0-0.1l0.2,0l0,0.4
						L59.5,51.9L59.5,51.9z M59,51.5l-0.1,0l0,0.3l0.6,0.1l0-0.1l0-0.3l-0.1,0l0,0.1l-0.2,0l0-0.2l-0.1,0l0,0.1l-0.1,0L59,51.5
						L59,51.5z"/>
				</g>
				<polygon style="clip-path:url(#SVGID_4_);fill:#F1E623;" points="59.5,51.9 59.5,52.4 59,52.4 59,51.9 				"/>
				<g style="clip-path:url(#SVGID_4_);">
					<path class="st14" d="M58.9,52.4l0-0.6l0.5,0l0.1,0.5L58.9,52.4L58.9,52.4z M59.5,51.9l-0.5,0l0,0.4l0.5,0L59.5,51.9L59.5,51.9
						z"/>
				</g>
				<path style="clip-path:url(#SVGID_4_);fill:#F1E623;" d="M59.4,53.8c0-0.8,0.5-1,0.5-1c0,0,0.5,0.2,0.5,1L59.4,53.8L59.4,53.8z"
					/>
				<path style="clip-path:url(#SVGID_4_);fill:#F1E623;" d="M59,52.8l-0.1,0.9l0.5,0c0-0.8,0.5-0.9,0.5-0.9c0,0,0.5,0.2,0.5,0.9
					l0.5,0l-0.1-0.9L59,52.8L59,52.8z"/>
				<g style="clip-path:url(#SVGID_4_);">
					<path class="st14" d="M61,53.8l-0.6,0c0-0.7-0.5-0.9-0.5-0.9c0,0-0.5,0.1-0.5,0.9l-0.6,0l0.1-1l2,0L61,53.8L61,53.8z
						 M59.9,52.8l-0.9,0l-0.1,0.9l0.5,0C59.4,53.1,59.7,52.9,59.9,52.8L59.9,52.8z M60,52.8c0.1,0.1,0.5,0.3,0.5,0.9l0.5,0l-0.1-0.9
						L60,52.8L60,52.8z"/>
				</g>
				<path style="clip-path:url(#SVGID_4_);fill:#F1E623;" d="M58.8,53.7l2.2,0c0,0,0.1,0.1,0.1,0.1c0,0.1,0,0.1-0.1,0.1l-2.2,0
					c0,0-0.1-0.1-0.1-0.1C58.7,53.8,58.8,53.7,58.8,53.7L58.8,53.7z"/>
				<g style="clip-path:url(#SVGID_4_);">
					<path class="st14" d="M61,54l-2.2,0c-0.1,0-0.1-0.1-0.1-0.1c0-0.1,0.1-0.2,0.1-0.2l2.2,0c0.1,0,0.1,0.1,0.1,0.2
						C61.1,53.9,61.1,54,61,54L61,54z M58.8,53.8l0,0.1l2.2,0c0,0,0.1,0,0.1-0.1L58.8,53.8L58.8,53.8z"/>
				</g>
				<path style="clip-path:url(#SVGID_4_);fill:#F1E623;" d="M59.6,53.7c0-0.5,0.3-0.6,0.3-0.6s0.3,0.1,0.3,0.6L59.6,53.7L59.6,53.7
					z"/>
				<g style="clip-path:url(#SVGID_4_);">
					<path class="st14" d="M60.2,53.8l-0.6,0c0-0.5,0.3-0.7,0.3-0.7C59.9,53.1,60.2,53.2,60.2,53.8L60.2,53.8L60.2,53.8z M59.9,53.1
						c0,0-0.2,0.1-0.3,0.6l0.5,0C60.2,53.3,59.9,53.1,59.9,53.1L59.9,53.1z"/>
				</g>
				<path style="clip-path:url(#SVGID_4_);fill:#F1E623;" d="M58.9,52.4l2.1,0c0,0,0.1,0,0.1,0.1c0,0.1,0,0.1-0.1,0.1l-2.1,0
					C58.8,52.6,58.8,52.6,58.9,52.4C58.8,52.5,58.8,52.4,58.9,52.4L58.9,52.4z"/>
				<g style="clip-path:url(#SVGID_4_);">
					<path class="st14" d="M61,52.7l-2.1,0c-0.1,0-0.1-0.1-0.1-0.1c0-0.1,0.1-0.1,0.1-0.1l2.1,0c0.1,0,0.1,0.1,0.1,0.1
						S61,52.7,61,52.7L61,52.7z M58.9,52.4l0,0.1l2.1,0c0,0,0,0,0-0.1L58.9,52.4L58.9,52.4z"/>
				</g>
				<path style="clip-path:url(#SVGID_4_);fill:#F1E623;" d="M58.9,52.6l2,0c0,0,0.1,0.1,0.1,0.1c0,0.1,0,0.1-0.1,0.1l-2,0
					c0,0-0.1,0-0.1-0.1C58.8,52.7,58.9,52.6,58.9,52.6L58.9,52.6z"/>
				<g style="clip-path:url(#SVGID_4_);">
					<path class="st14" d="M60.9,52.9l-2,0c-0.1,0-0.1-0.1-0.1-0.1c0-0.1,0-0.1,0.1-0.1l2,0c0.1,0,0.1,0.1,0.1,0.2
						C61,52.8,61,52.9,60.9,52.9L60.9,52.9z M58.9,52.7l0,0.1l2,0c0,0,0,0,0-0.1L58.9,52.7L58.9,52.7z"/>
				</g>
				<path style="clip-path:url(#SVGID_4_);fill:#020203;" d="M59.9,51.8c0-0.1,0.1-0.1,0.1,0l0,0.2l-0.1,0L59.9,51.8L59.9,51.8z"/>
				<path style="clip-path:url(#SVGID_4_);fill:#020203;" d="M60.6,52.1c0-0.1,0.1-0.1,0.1,0l0,0.2l-0.1,0L60.6,52.1L60.6,52.1z"/>
				<path style="clip-path:url(#SVGID_4_);fill:#020203;" d="M59.2,52.1c0-0.1,0.1-0.1,0.1,0l0,0.2l-0.1,0L59.2,52.1L59.2,52.1z"/>
				<path style="clip-path:url(#SVGID_4_);fill:#F1E623;" d="M48.4,58.7l0.1-0.1l0.1,0.1l0.1-0.1l-0.1-0.1l0.1-0.1l0.1,0.1l0.1-0.1
					l-0.1-0.1l0.1-0.1l0.2,0.2c0,0,0,0.1,0,0.1l-0.4,0.5c0,0-0.1,0-0.1,0L48.4,58.7L48.4,58.7z"/>
				<g style="clip-path:url(#SVGID_4_);">
					<path class="st14" d="M48.6,59L48.6,59l-0.2-0.2l0.1-0.2l0.1,0.1l0-0.1l-0.1,0l0.1-0.2l0.1,0.1l0-0.1l-0.1,0l0.1-0.2l0.3,0.2
						l0,0.1L48.6,59L48.6,59z M48.5,58.6l-0.1,0.1l0.2,0.2l0-0.1l0.4-0.5l-0.2-0.3l-0.1,0.1l0.1,0l-0.1,0.1l-0.1-0.1l-0.1,0.1l0.1,0
						l-0.1,0.1L48.5,58.6L48.5,58.6z"/>
				</g>
				<polygon style="clip-path:url(#SVGID_4_);fill:#F1E623;" points="49.1,58.5 49.7,59.2 49.3,59.6 48.7,58.9 				"/>
				<g style="clip-path:url(#SVGID_4_);">
					<path class="st14" d="M49.3,59.7l-0.6-0.7l0.3-0.4l0.7,0.6L49.3,59.7L49.3,59.7z M49.1,58.6L48.8,59l0.5,0.6l0.4-0.4L49.1,58.6
						L49.1,58.6z"/>
				</g>
				<path style="clip-path:url(#SVGID_4_);fill:#F1E623;" d="M49.2,58.5l0.1-0.1l0.1,0.1l0.1-0.1l-0.1-0.1l0.1-0.1l0.1,0.1l0.1-0.1
					l-0.1-0.1l0.1-0.1l0.2,0.2c0,0,0,0.1,0,0.1l-0.4,0.4c0,0-0.1,0-0.1,0L49.2,58.5L49.2,58.5z"/>
				<g style="clip-path:url(#SVGID_4_);">
					<path class="st14" d="M49.4,58.8L49.4,58.8l-0.2-0.2l0.1-0.2l0.1,0.1l0-0.1l-0.1,0l0.1-0.2l0.1,0.1l0-0.1l-0.1,0l0.1-0.2
						l0.2,0.2l0,0.1L49.4,58.8L49.4,58.8z M49.3,58.4l-0.1,0.1l0.2,0.2l0-0.1l0.4-0.4L49.7,58l-0.1,0.1l0.1,0l-0.1,0.1l-0.1-0.1
						l-0.1,0.1l0.1,0l-0.1,0.1L49.3,58.4L49.3,58.4z"/>
				</g>
				<polygon style="clip-path:url(#SVGID_4_);fill:#F1E623;" points="49.9,58.3 50.2,58.6 49.8,59.1 49.5,58.7 				"/>
				<g style="clip-path:url(#SVGID_4_);">
					<path class="st14" d="M49.8,59.1l-0.3-0.4l0.4-0.4l0.4,0.4L49.8,59.1L49.8,59.1z M49.8,58.3l-0.3,0.4l0.3,0.3l0.4-0.4
						L49.8,58.3L49.8,58.3z"/>
				</g>
				<path style="clip-path:url(#SVGID_4_);fill:#F1E623;" d="M48.2,59.6l0.1-0.1l0.1,0.1l0.1-0.1l-0.1-0.1l0.1-0.1l0.1,0.1l0.1-0.1
					l-0.1-0.1l0.1-0.1l0.2,0.2c0,0,0,0.1,0,0.1l-0.4,0.5c0,0-0.1,0-0.1,0L48.2,59.6L48.2,59.6z"/>
				<g style="clip-path:url(#SVGID_4_);">
					<path class="st14" d="M48.5,59.9L48.5,59.9l-0.3-0.2l0.1-0.2l0.1,0.1l0-0.1l-0.1,0l0.1-0.2l0.1,0.1l0-0.1l-0.1,0l0.1-0.2
						l0.2,0.2l0,0.1L48.5,59.9L48.5,59.9z M48.3,59.5l-0.1,0.1l0.2,0.2l0,0l0.4-0.4l-0.2-0.3l-0.1,0.1l0.1,0l-0.1,0.1l-0.1-0.1
						l-0.1,0.1l0.1,0l-0.1,0.1L48.3,59.5L48.3,59.5z"/>
				</g>
				<polygon style="clip-path:url(#SVGID_4_);fill:#F1E623;" points="48.9,59.4 49.2,59.7 48.8,60.2 48.5,59.8 				"/>
				<g style="clip-path:url(#SVGID_4_);">
					<path class="st14" d="M48.8,60.2l-0.3-0.4l0.4-0.5l0.4,0.4L48.8,60.2L48.8,60.2z M48.9,59.4l-0.3,0.4l0.3,0.3l0.4-0.4
						L48.9,59.4L48.9,59.4z"/>
				</g>
				<path style="clip-path:url(#SVGID_4_);fill:#F1E623;" d="M50,60.8c-0.5-0.6-0.2-1.1-0.2-1.1c0,0,0.5-0.3,1,0.3L50,60.8L50,60.8z
					"/>
				<path style="clip-path:url(#SVGID_4_);fill:#F1E623;" d="M49.1,60.5l0.5,0.7l0.4-0.4c-0.5-0.6-0.2-1-0.2-1.1
					c0,0,0.5-0.3,0.9,0.2l0.4-0.4l-0.6-0.6L49.1,60.5L49.1,60.5z"/>
				<g style="clip-path:url(#SVGID_4_);">
					<path class="st14" d="M49.6,61.3L49,60.5l1.4-1.6l0.7,0.6L50.7,60c-0.2-0.2-0.4-0.3-0.6-0.3c-0.2,0-0.3,0.1-0.3,0.1l0,0
						c0,0-0.3,0.5,0.2,1L49.6,61.3L49.6,61.3z M49.7,59.7l-0.6,0.7l0.5,0.7l0.4-0.4c-0.3-0.3-0.3-0.6-0.3-0.8
						C49.7,59.9,49.7,59.8,49.7,59.7L49.7,59.7z M50.1,59.6c0.2,0,0.4,0.1,0.6,0.3l0.3-0.4l-0.6-0.5l-0.6,0.7
						C49.8,59.6,50,59.6,50.1,59.6L50.1,59.6z"/>
				</g>
				<path style="clip-path:url(#SVGID_4_);fill:#F1E623;" d="M49.5,61.2l1.5-1.7c0,0,0.1,0,0.1,0c0,0,0,0.1,0,0.2l-1.6,1.8
					c0,0-0.1,0-0.1,0C49.5,61.3,49.5,61.3,49.5,61.2L49.5,61.2z"/>
				<g style="clip-path:url(#SVGID_4_);">
					<path class="st14" d="M49.6,61.5L49.6,61.5c-0.1-0.1-0.2-0.2-0.1-0.3l1.5-1.8c0.1,0,0.2,0,0.2,0c0,0.1,0.1,0.2,0,0.2L49.6,61.5
						L49.6,61.5z M51.1,59.5l-1.6,1.8l0,0.1l0.1,0l0,0l1.6-1.8L51.1,59.5L51.1,59.5L51.1,59.5z"/>
				</g>
				<path style="clip-path:url(#SVGID_4_);fill:#F1E623;" d="M50.1,60.6c-0.3-0.3-0.2-0.7-0.2-0.7s0.3-0.1,0.6,0.2L50.1,60.6
					L50.1,60.6z"/>
				<g style="clip-path:url(#SVGID_4_);">
					<path class="st14" d="M50.1,60.6L50.1,60.6c-0.3-0.4-0.2-0.7-0.2-0.7c0,0,0.3-0.2,0.6,0.2L50.1,60.6L50.1,60.6z M49.9,59.9
						c0,0-0.1,0.3,0.2,0.6l0.4-0.5C50.2,59.9,49.9,59.9,49.9,59.9L49.9,59.9L49.9,59.9z"/>
				</g>
				<path style="clip-path:url(#SVGID_4_);fill:#F1E623;" d="M48.8,60.3l1.5-1.7c0,0,0.1,0,0.1,0c0,0,0,0.1,0,0.1l-1.5,1.7
					c0,0-0.1,0-0.1,0C48.7,60.4,48.7,60.3,48.8,60.3L48.8,60.3z"/>
				<g style="clip-path:url(#SVGID_4_);">
					<path class="st14" d="M48.8,60.5L48.8,60.5l-0.1-0.2l1.5-1.7l0.2,0c0,0.1,0,0.1,0,0.2L48.8,60.5L48.8,60.5z M48.8,60.4
						L48.8,60.4L48.8,60.4l1.5-1.7l0-0.1l-0.1,0l-1.5,1.7L48.8,60.4L48.8,60.4L48.8,60.4z"/>
				</g>
				<path style="clip-path:url(#SVGID_4_);fill:#F1E623;" d="M48.9,60.4l1.4-1.6c0,0,0.1,0,0.1,0c0,0,0,0.1,0,0.1L49,60.5
					c0,0-0.1,0-0.1,0C48.9,60.5,48.9,60.4,48.9,60.4L48.9,60.4z"/>
				<g style="clip-path:url(#SVGID_4_);">
					<path class="st14" d="M49,60.6L49,60.6c-0.1-0.1-0.1-0.2-0.1-0.2l1.4-1.6l0.2,0c0.1,0.1,0.1,0.1,0,0.2L49,60.6L49,60.6z
						 M49,60.5L49,60.5L49,60.5l1.5-1.6l0-0.1l-0.1,0l-1.5,1.6L49,60.5L49,60.5L49,60.5z"/>
				</g>
				<path style="clip-path:url(#SVGID_4_);fill:#020203;" d="M49.1,59C49,58.9,49.1,58.8,49.1,59l0.2,0.1l-0.1,0.1L49.1,59L49.1,59z
					"/>
				<path style="clip-path:url(#SVGID_4_);fill:#020203;" d="M49.8,58.7C49.7,58.6,49.8,58.5,49.8,58.7l0.2,0l-0.1,0.1L49.8,58.7
					L49.8,58.7z"/>
				<path style="clip-path:url(#SVGID_4_);fill:#020203;" d="M48.8,59.8C48.7,59.7,48.8,59.6,48.8,59.8l0.2,0l-0.1,0.1L48.8,59.8
					L48.8,59.8z"/>
			</g>
		</g>
	</g>
</g>
<circle class="st102" cx="53.4" cy="53.9" r="36.9"/>
</svg>
