<?xml version="1.0" encoding="utf-8"?>
<!-- Generator: Adobe Illustrator 23.0.0, SVG Export Plug-In . SVG Version: 6.00 Build 0)  -->
<svg version="1.1" id="Capa_1" xmlns="http://www.w3.org/2000/svg" xmlns:xlink="http://www.w3.org/1999/xlink" x="0px" y="0px"
	 viewBox="0 0 107.7 107.7" style="enable-background:new 0 0 107.7 107.7;" xml:space="preserve">
<style type="text/css">
	.st0{filter:url(#Adobe_OpacityMaskFilter);}
	.st1{fill:#FFFFFF;}
	.st2{mask:url(#SVGID_1_);}
	.st3{fill:#FF0000;}
	.st4{fill:#0000FF;}
	.st5{fill-rule:evenodd;clip-rule:evenodd;fill:#0000FF;}
	.st6{fill-rule:evenodd;clip-rule:evenodd;fill:#FFFFFF;}
	.st7{fill-rule:evenodd;clip-rule:evenodd;fill:#FFFF00;}
	.st8{fill-rule:evenodd;clip-rule:evenodd;fill:#FF0000;}
	.st9{fill:none;stroke:#0E9FDB;stroke-width:2;stroke-miterlimit:10;}
</style>
<defs>
	<filter id="Adobe_OpacityMaskFilter" filterUnits="userSpaceOnUse" x="18.3" y="23.3" width="142.6" height="71.3">
		<feColorMatrix  type="matrix" values="1 0 0 0 0  0 1 0 0 0  0 0 1 0 0  0 0 0 1 0"/>
	</filter>
</defs>
<mask maskUnits="userSpaceOnUse" x="18.3" y="23.3" width="142.6" height="71.3" id="SVGID_1_">
	<g class="st0">
		<circle class="st1" cx="53.7" cy="54.2" r="29.8"/>
	</g>
</mask>
<g class="st2">
	<path class="st3" d="M18.3,23.3h142.6v71.3H18.3V23.3z"/>
	<path class="st4" d="M18.3,23.3h142.6v47.5H18.3V23.3z"/>
	<path class="st1" d="M18.3,23.3h142.6V47H18.3V23.3z"/>
	<g transform="matrix(.02100012 0 0 .02100012 -.106483 3.477988)">
		<path class="st5" d="M2574.6,1538c-7.6,0-15.2,0.2-22.7,0.4c-147,3.8-285,41.8-383.2,88.1l0,0.1c-10.7,4.5-21.3,9-31.3,13.5
			l33.8,529c23.4,276.4,203.6,437.4,403.7,500.6c200.2-63.2,380.3-224.2,403.7-500.6l33.6-527.3c-10-5.2-20.5-10.2-31.3-15.2l0-0.1
			c-103.3-48.7-250.4-88.2-405.8-88.4c-0.1,0-0.2,0-0.3,0C2574.7,1538,2574.6,1538,2574.6,1538z"/>
		<path class="st6" d="M2574.8,1904.1L2476,2097l-63.9-83l-166.9,220.6c3,13.7,6.6,26.9,10.4,39.8c18.6,31.5,54.5,67.4,100.4,67.4
			c36.5,0,72.9-29.2,109.4-29.2c36.5,0,72.9,29.2,109.4,29.2c36.5,0,72.9-29.2,109.4-29.2c36.5,0,72.9,29.2,109.4,29.2
			c45.5,0,81.1-35.2,99.9-66.5c4-13.2,7.6-26.9,10.7-41l-166.7-220.3l-63.9,83L2574.8,1904.1z M2465.5,2341.8
			c-36.5,0-72.9,29.2-109.4,29.2c-28.9,0-53.6-10.2-72.8-24.7c6.8,14.4,14,28.4,21.8,41.6c15,9.4,32.1,15.7,51,15.7
			c36.5,0,72.9-29.2,109.4-29.2s72.9,29.2,109.4,29.2c36.5,0,72.9-29.2,109.4-29.2c36.5,0,72.9,29.2,109.4,29.2
			c18.6,0,35.5-6.2,50.4-15.3c7.8-13.2,15-27.2,21.8-41.5c-19.1,14.2-43.7,24.2-72.2,24.2c-36.5,0-72.9-29.2-109.4-29.2
			c-36.5,0-72.9,29.2-109.4,29.2C2538.4,2371,2501.9,2341.8,2465.5,2341.8L2465.5,2341.8z M2465.5,2403.5
			c-36.5,0-72.9,29.2-109.4,29.2c-7.9,0-15.5-0.9-22.7-2.3c63.1,84.3,149.1,140.7,241.4,173.1c92.1-32.4,178-88.8,241-172.9
			c-7.1,1.3-14.5,2.2-22.2,2.2c-36.5,0-72.9-29.2-109.4-29.2s-72.9,29.2-109.4,29.2C2538.4,2432.7,2501.9,2403.5,2465.5,2403.5
			L2465.5,2403.5z"/>
		<g id="a" transform="translate(0 -.00067)">
			<path id="b" class="st7" d="M2410.4,1608.8h82.7l-41.4,71.6"/>
			<g transform="matrix(1 0 0 -1 .0003 -215.1037)">
				<path class="st7" d="M2410.4,1656.6h82.7l-41.4-71.6"/>
			</g>
		</g>
		<g>
			<g transform="translate(20.7203)">
				<g transform="translate(0 -.00067)">
					<path class="st7" d="M2656.6,1608.8h82.7l-41.4,71.6"/>
					<g transform="matrix(1 0 0 -1 .0003 -215.1037)">
						<path class="st7" d="M2656.6,1656.6h82.7l-41.4-71.6"/>
					</g>
				</g>
			</g>
			<g transform="translate(10.3603 13.875)">
				<g transform="translate(0 -.00067)">
					<path class="st7" d="M2533.5,1773.7h82.7l-41.4,71.6"/>
					<g transform="matrix(1 0 0 -1 .0003 -215.1037)">
						<path class="st7" d="M2533.5,1821.4h82.7l-41.4-71.6"/>
					</g>
				</g>
			</g>
		</g>
	</g>
	<path class="st8" d="M54,35.8c-0.2,0-0.3,0-0.5,0C53.6,35.8,53.8,35.8,54,35.8z M45.4,37.6c-0.2,0.1-0.4,0.2-0.7,0.3L45.5,49
		c0.5,5.8,4.3,9.2,8.5,10.5c4.2-1.3,8-4.7,8.5-10.5L63.1,38c-0.2-0.1-0.4-0.2-0.7-0.3l-0.7,11c-0.5,5.6-4,8.9-7.9,10.2
		c-3.9-1.3-7.4-4.6-7.9-10.2L45.4,37.6z"/>
</g>
<circle class="st9" cx="53.4" cy="53.9" r="36.9"/>
</svg>
