<?xml version="1.0" encoding="utf-8"?>
<!-- Generator: Adobe Illustrator 23.0.0, SVG Export Plug-In . SVG Version: 6.00 Build 0)  -->
<svg version="1.1" id="Capa_1" xmlns="http://www.w3.org/2000/svg" xmlns:xlink="http://www.w3.org/1999/xlink" x="0px" y="0px"
	 viewBox="0 0 107.7 107.7" style="enable-background:new 0 0 107.7 107.7;" xml:space="preserve">
<style type="text/css">
	.st0{filter:url(#Adobe_OpacityMaskFilter);}
	.st1{fill:#FFFFFF;}
	.st2{mask:url(#SVGID_1_);}
	.st3{fill:#CF1C31;}
	.st4{fill:#3A3870;}
	.st5{fill:none;stroke:#0E9FDB;stroke-width:2;stroke-miterlimit:10;}
</style>
<defs>
	<filter id="Adobe_OpacityMaskFilter" filterUnits="userSpaceOnUse" x="21" y="25" width="87" height="59.6">
		<feColorMatrix  type="matrix" values="1 0 0 0 0  0 1 0 0 0  0 0 1 0 0  0 0 0 1 0"/>
	</filter>
</defs>
<mask maskUnits="userSpaceOnUse" x="21" y="25" width="87" height="59.6" id="SVGID_1_">
	<g class="st0">
		<circle class="st1" cx="53" cy="54.3" r="28"/>
	</g>
</mask>
<g class="st2">
	<rect x="21" y="25.3" class="st1" width="87" height="59.2"/>
	<rect x="21" y="25" class="st3" width="86.9" height="4.7"/>
	<rect x="21" y="34.2" class="st3" width="86.9" height="4.7"/>
	<rect x="21" y="43.4" class="st3" width="86.9" height="4.7"/>
	<rect x="21" y="52.5" class="st3" width="86.9" height="4.7"/>
	<rect x="21" y="61.7" class="st3" width="86.9" height="4.7"/>
	<rect x="21" y="70.9" class="st3" width="86.9" height="4.7"/>
	<rect x="21" y="80" class="st3" width="86.9" height="4.7"/>
	<rect x="21" y="25" class="st4" width="34.7" height="32.2"/>
	<g>
		<polygon class="st1" points="24,26.3 24.3,27.6 25.3,27.6 24.5,28.4 24.8,29.7 24,28.9 23.1,29.7 23.4,28.4 22.6,27.6 23.6,27.6 
					"/>
		<polygon class="st1" points="26.8,29.6 27.1,30.9 28.2,30.9 27.3,31.7 27.7,33 26.8,32.2 26,33 26.3,31.7 25.4,30.9 26.5,30.9 		
			"/>
		<polygon class="st1" points="26.8,36 27.1,37.3 28.2,37.3 27.3,38.2 27.7,39.5 26.8,38.6 26,39.5 26.3,38.2 25.4,37.3 26.5,37.3 
					"/>
		<polygon class="st1" points="26.8,42.5 27.1,43.8 28.2,43.8 27.3,44.6 27.7,45.9 26.8,45.1 26,45.9 26.3,44.6 25.4,43.8 
			26.5,43.8 		"/>
		<polygon class="st1" points="26.8,48.9 27.1,50.2 28.2,50.2 27.3,51 27.7,52.4 26.8,51.6 26,52.4 26.3,51 25.4,50.2 26.5,50.2 		
			"/>
		<polygon class="st1" points="32.6,29.6 32.9,30.9 34,30.9 33.1,31.7 33.5,33 32.6,32.2 31.8,33 32.1,31.7 31.2,30.9 32.3,30.9 		
			"/>
		<polygon class="st1" points="32.6,36 32.9,37.3 34,37.3 33.1,38.2 33.5,39.5 32.6,38.6 31.8,39.5 32.1,38.2 31.2,37.3 32.3,37.3 
					"/>
		<polygon class="st1" points="32.6,42.5 32.9,43.8 34,43.8 33.1,44.6 33.5,45.9 32.6,45.1 31.8,45.9 32.1,44.6 31.2,43.8 
			32.3,43.8 		"/>
		<polygon class="st1" points="32.6,48.9 32.9,50.2 34,50.2 33.1,51 33.5,52.4 32.6,51.6 31.8,52.4 32.1,51 31.2,50.2 32.3,50.2 		
			"/>
		<polygon class="st1" points="38.4,29.6 38.7,30.9 39.8,30.9 39,31.7 39.3,33 38.4,32.2 37.6,33 37.9,31.7 37,30.9 38.1,30.9 		"/>
		<polygon class="st1" points="38.4,36 38.7,37.3 39.8,37.3 39,38.2 39.3,39.5 38.4,38.6 37.6,39.5 37.9,38.2 37,37.3 38.1,37.3 		
			"/>
		<polygon class="st1" points="38.4,42.5 38.7,43.8 39.8,43.8 39,44.6 39.3,45.9 38.4,45.1 37.6,45.9 37.9,44.6 37,43.8 38.1,43.8 
					"/>
		<polygon class="st1" points="38.4,48.9 38.7,50.2 39.8,50.2 39,51 39.3,52.4 38.4,51.6 37.6,52.4 37.9,51 37,50.2 38.1,50.2 		"/>
		<polygon class="st1" points="44.2,29.6 44.5,30.9 45.6,30.9 44.7,31.7 45.1,33 44.2,32.2 43.4,33 43.7,31.7 42.8,30.9 43.9,30.9 
					"/>
		<polygon class="st1" points="44.2,36 44.5,37.3 45.6,37.3 44.7,38.2 45.1,39.5 44.2,38.6 43.4,39.5 43.7,38.2 42.8,37.3 
			43.9,37.3 		"/>
		<polygon class="st1" points="44.2,42.5 44.5,43.8 45.6,43.8 44.7,44.6 45.1,45.9 44.2,45.1 43.4,45.9 43.7,44.6 42.8,43.8 
			43.9,43.8 		"/>
		<polygon class="st1" points="44.2,48.9 44.5,50.2 45.6,50.2 44.7,51 45.1,52.4 44.2,51.6 43.4,52.4 43.7,51 42.8,50.2 43.9,50.2 
					"/>
		<polygon class="st1" points="50,29.6 50.3,30.9 51.4,30.9 50.5,31.7 50.9,33 50,32.2 49.2,33 49.5,31.7 48.6,30.9 49.7,30.9 		"/>
		<polygon class="st1" points="50,36 50.3,37.3 51.4,37.3 50.5,38.2 50.9,39.5 50,38.6 49.2,39.5 49.5,38.2 48.6,37.3 49.7,37.3 		
			"/>
		<polygon class="st1" points="50,42.5 50.3,43.8 51.4,43.8 50.5,44.6 50.9,45.9 50,45.1 49.2,45.9 49.5,44.6 48.6,43.8 49.7,43.8 
					"/>
		<polygon class="st1" points="50,48.9 50.3,50.2 51.4,50.2 50.5,51 50.9,52.4 50,51.6 49.2,52.4 49.5,51 48.6,50.2 49.7,50.2 		"/>
		<polygon class="st1" points="24,32.7 24.3,34 25.3,34 24.5,34.8 24.8,36.2 24,35.4 23.1,36.2 23.4,34.8 22.6,34 23.6,34 		"/>
		<polygon class="st1" points="24,39.2 24.3,40.5 25.3,40.5 24.5,41.3 24.8,42.6 24,41.8 23.1,42.6 23.4,41.3 22.6,40.5 23.6,40.5 
					"/>
		<polygon class="st1" points="24,45.6 24.3,46.9 25.3,46.9 24.5,47.7 24.8,49.1 24,48.3 23.1,49.1 23.4,47.7 22.6,46.9 23.6,46.9 
					"/>
		<polygon class="st1" points="24,52.1 24.3,53.4 25.3,53.4 24.5,54.2 24.8,55.5 24,54.7 23.1,55.5 23.4,54.2 22.6,53.4 23.6,53.4 
					"/>
		<polygon class="st1" points="29.7,26.3 30,27.6 31.1,27.6 30.2,28.4 30.5,29.7 29.7,28.9 28.8,29.7 29.1,28.4 28.3,27.6 
			29.3,27.6 		"/>
		<polygon class="st1" points="29.7,32.7 30,34 31.1,34 30.2,34.8 30.5,36.2 29.7,35.4 28.8,36.2 29.1,34.8 28.3,34 29.3,34 		"/>
		<polygon class="st1" points="29.7,39.2 30,40.5 31.1,40.5 30.2,41.3 30.5,42.6 29.7,41.8 28.8,42.6 29.1,41.3 28.3,40.5 
			29.3,40.5 		"/>
		<polygon class="st1" points="29.7,45.6 30,46.9 31.1,46.9 30.2,47.7 30.5,49.1 29.7,48.3 28.8,49.1 29.1,47.7 28.3,46.9 
			29.3,46.9 		"/>
		<polygon class="st1" points="29.7,52.1 30,53.4 31.1,53.4 30.2,54.2 30.5,55.5 29.7,54.7 28.8,55.5 29.1,54.2 28.3,53.4 
			29.3,53.4 		"/>
		<polygon class="st1" points="35.5,26.3 35.9,27.6 36.9,27.6 36.1,28.4 36.4,29.7 35.5,28.9 34.7,29.7 35,28.4 34.2,27.6 
			35.2,27.6 		"/>
		<polygon class="st1" points="35.5,32.7 35.9,34 36.9,34 36.1,34.8 36.4,36.2 35.5,35.4 34.7,36.2 35,34.8 34.2,34 35.2,34 		"/>
		<polygon class="st1" points="35.5,39.2 35.9,40.5 36.9,40.5 36.1,41.3 36.4,42.6 35.5,41.8 34.7,42.6 35,41.3 34.2,40.5 
			35.2,40.5 		"/>
		<polygon class="st1" points="35.5,45.6 35.9,46.9 36.9,46.9 36.1,47.7 36.4,49.1 35.5,48.3 34.7,49.1 35,47.7 34.2,46.9 
			35.2,46.9 		"/>
		<polygon class="st1" points="35.5,52.1 35.9,53.4 36.9,53.4 36.1,54.2 36.4,55.5 35.5,54.7 34.7,55.5 35,54.2 34.2,53.4 
			35.2,53.4 		"/>
		<polygon class="st1" points="41.3,26.3 41.6,27.6 42.7,27.6 41.8,28.4 42.2,29.7 41.3,28.9 40.5,29.7 40.8,28.4 39.9,27.6 
			41,27.6 		"/>
		<polygon class="st1" points="41.3,32.7 41.6,34 42.7,34 41.8,34.8 42.2,36.2 41.3,35.4 40.5,36.2 40.8,34.8 39.9,34 41,34 		"/>
		<polygon class="st1" points="41.3,39.2 41.6,40.5 42.7,40.5 41.8,41.3 42.2,42.6 41.3,41.8 40.5,42.6 40.8,41.3 39.9,40.5 
			41,40.5 		"/>
		<polygon class="st1" points="41.3,45.6 41.6,46.9 42.7,46.9 41.8,47.7 42.2,49.1 41.3,48.3 40.5,49.1 40.8,47.7 39.9,46.9 
			41,46.9 		"/>
		<polygon class="st1" points="41.3,52.1 41.6,53.4 42.7,53.4 41.8,54.2 42.2,55.5 41.3,54.7 40.5,55.5 40.8,54.2 39.9,53.4 
			41,53.4 		"/>
		<polygon class="st1" points="47.1,26.3 47.4,27.6 48.5,27.6 47.6,28.4 47.9,29.7 47.1,28.9 46.2,29.7 46.5,28.4 45.7,27.6 
			46.7,27.6 		"/>
		<polygon class="st1" points="47.1,32.7 47.4,34 48.5,34 47.6,34.8 47.9,36.2 47.1,35.4 46.2,36.2 46.5,34.8 45.7,34 46.7,34 		"/>
		<polygon class="st1" points="47.1,39.2 47.4,40.5 48.5,40.5 47.6,41.3 47.9,42.6 47.1,41.8 46.2,42.6 46.5,41.3 45.7,40.5 
			46.7,40.5 		"/>
		<polygon class="st1" points="47.1,45.6 47.4,46.9 48.5,46.9 47.6,47.7 47.9,49.1 47.1,48.3 46.2,49.1 46.5,47.7 45.7,46.9 
			46.7,46.9 		"/>
		<polygon class="st1" points="47.1,52.1 47.4,53.4 48.5,53.4 47.6,54.2 47.9,55.5 47.1,54.7 46.2,55.5 46.5,54.2 45.7,53.4 
			46.7,53.4 		"/>
		<polygon class="st1" points="52.9,26.3 53.3,27.6 54.3,27.6 53.5,28.4 53.8,29.7 52.9,28.9 52.1,29.7 52.4,28.4 51.6,27.6 
			52.6,27.6 		"/>
		<polygon class="st1" points="52.9,32.7 53.3,34 54.3,34 53.5,34.8 53.8,36.2 52.9,35.4 52.1,36.2 52.4,34.8 51.6,34 52.6,34 		"/>
		<polygon class="st1" points="52.9,39.2 53.3,40.5 54.3,40.5 53.5,41.3 53.8,42.6 52.9,41.8 52.1,42.6 52.4,41.3 51.6,40.5 
			52.6,40.5 		"/>
		<polygon class="st1" points="52.9,45.6 53.3,46.9 54.3,46.9 53.5,47.7 53.8,49.1 52.9,48.3 52.1,49.1 52.4,47.7 51.6,46.9 
			52.6,46.9 		"/>
		<polygon class="st1" points="52.9,52.1 53.3,53.4 54.3,53.4 53.5,54.2 53.8,55.5 52.9,54.7 52.1,55.5 52.4,54.2 51.6,53.4 
			52.6,53.4 		"/>
	</g>
</g>
<circle class="st5" cx="53.4" cy="53.9" r="36.9"/>
</svg>
