<?xml version="1.0" encoding="utf-8"?>
<!-- Generator: Adobe Illustrator 23.0.0, SVG Export Plug-In . SVG Version: 6.00 Build 0)  -->
<svg version="1.1" id="Capa_1" xmlns="http://www.w3.org/2000/svg" xmlns:xlink="http://www.w3.org/1999/xlink" x="0px" y="0px"
	 viewBox="0 0 288 278" style="enable-background:new 0 0 288 278;" xml:space="preserve">
<style type="text/css">
	.st0{fill:#FFFFFF;}
</style>
<path class="st0" d="M226,17H61C32.6,17,9.5,40.1,9.5,68.5v98C9.5,194.9,32.6,218,61,218h32.5l50,50l50-50H226
	c28.4,0,51.5-23.1,51.5-51.5v-98C277.5,40.1,254.4,17,226,17z M257.5,166.5c0,17.4-14.1,31.5-31.5,31.5h-40.5l-42,42l-42-42H61
	c-17.4,0-31.5-14.1-31.5-31.5v-98C29.5,51.1,43.6,37,61,37h165c17.4,0,31.5,14.1,31.5,31.5V166.5z"/>
</svg>
