<?xml version="1.0" encoding="utf-8"?>
<!-- Generator: Adobe Illustrator 23.0.0, SVG Export Plug-In . SVG Version: 6.00 Build 0)  -->
<svg version="1.1" id="Capa_1" xmlns="http://www.w3.org/2000/svg" xmlns:xlink="http://www.w3.org/1999/xlink" x="0px" y="0px"
	 viewBox="0 0 251 154" style="enable-background:new 0 0 251 154;" xml:space="preserve">
<style type="text/css">
	.st0{fill:url(#SVGID_1_);stroke:#035F86;stroke-width:5;stroke-miterlimit:10;}
	.st1{fill:#FFFFFF;}
</style>
<linearGradient id="SVGID_1_" gradientUnits="userSpaceOnUse" x1="8.0079" y1="76.431" x2="242.7503" y2="76.431">
	<stop  offset="0" style="stop-color:#36A9E1"/>
	<stop  offset="1" style="stop-color:#1D71B8"/>
</linearGradient>
<path class="st0" d="M220.1,7.9H30.7C18.1,7.9,8,15.9,8,25.8v85.1c0,9.9,10.1,17.9,22.7,17.9h143.5l31.2,16.2l0.3-16.2h14.3
	c12.6,0,22.7-8,22.7-17.9V25.8C242.8,15.9,232.6,7.9,220.1,7.9z"/>
<g>
	<path class="st1" d="M40.5,52.4h-2.2v-8.2H30v8.2h-2.2V35.6H30v6.6h8.3v-6.6h2.2V52.4z"/>
	<path class="st1" d="M54.6,52.4h-2.1V51c-0.2,0.1-0.4,0.3-0.8,0.5c-0.3,0.2-0.6,0.4-0.9,0.5c-0.4,0.2-0.8,0.3-1.2,0.4
		c-0.5,0.1-1,0.2-1.6,0.2c-1.1,0-2.1-0.4-2.9-1.1s-1.2-1.7-1.2-2.9c0-1,0.2-1.7,0.6-2.3c0.4-0.6,1-1.1,1.7-1.4
		c0.8-0.3,1.7-0.6,2.8-0.7s2.2-0.2,3.4-0.3v-0.3c0-0.5-0.1-0.9-0.3-1.2c-0.2-0.3-0.4-0.6-0.7-0.7c-0.3-0.2-0.7-0.3-1.1-0.3
		s-0.9-0.1-1.3-0.1c-0.6,0-1.2,0.1-1.9,0.2c-0.7,0.1-1.4,0.4-2.1,0.6h-0.1v-2.1c0.4-0.1,1-0.2,1.8-0.4s1.5-0.2,2.3-0.2
		c0.9,0,1.7,0.1,2.3,0.2c0.7,0.1,1.2,0.4,1.7,0.7c0.5,0.3,0.8,0.8,1.1,1.3s0.4,1.2,0.4,2V52.4z M52.5,49.3v-3.5
		c-0.6,0-1.4,0.1-2.3,0.2c-0.9,0.1-1.6,0.2-2.1,0.3c-0.6,0.2-1.1,0.4-1.5,0.8c-0.4,0.4-0.6,0.9-0.6,1.5c0,0.7,0.2,1.3,0.7,1.6
		c0.4,0.4,1.1,0.5,2,0.5c0.7,0,1.4-0.1,2-0.4C51.4,50,52,49.7,52.5,49.3z"/>
	<path class="st1" d="M69.3,39.8l-5.1,12.5h-2.1l-5-12.5h2.3l3.9,10l3.9-10H69.3z"/>
	<path class="st1" d="M82.4,46.3h-9.2c0,0.8,0.1,1.4,0.3,2c0.2,0.6,0.6,1,1,1.4c0.4,0.4,0.9,0.6,1.4,0.8c0.5,0.2,1.1,0.3,1.8,0.3
		c0.9,0,1.7-0.2,2.6-0.5c0.9-0.3,1.5-0.7,1.8-1h0.1v2.3c-0.7,0.3-1.4,0.6-2.2,0.8s-1.5,0.3-2.3,0.3c-2.1,0-3.7-0.6-4.9-1.7
		c-1.2-1.1-1.8-2.7-1.8-4.8c0-2.1,0.6-3.7,1.7-4.9c1.1-1.2,2.6-1.8,4.4-1.8c1.7,0,3,0.5,3.9,1.5c0.9,1,1.4,2.4,1.4,4.2V46.3z
		 M80.3,44.7c0-1.1-0.3-2-0.8-2.6c-0.6-0.6-1.4-0.9-2.5-0.9c-1.1,0-2,0.3-2.7,1c-0.7,0.7-1.1,1.5-1.1,2.5H80.3z"/>
	<path class="st1" d="M103.4,52.4h-2.1V51c-0.2,0.1-0.4,0.3-0.8,0.5c-0.3,0.2-0.6,0.4-0.9,0.5c-0.4,0.2-0.8,0.3-1.2,0.4
		c-0.5,0.1-1,0.2-1.6,0.2c-1.1,0-2.1-0.4-2.9-1.1s-1.2-1.7-1.2-2.9c0-1,0.2-1.7,0.6-2.3c0.4-0.6,1-1.1,1.7-1.4
		c0.8-0.3,1.7-0.6,2.8-0.7s2.2-0.2,3.4-0.3v-0.3c0-0.5-0.1-0.9-0.3-1.2c-0.2-0.3-0.4-0.6-0.7-0.7c-0.3-0.2-0.7-0.3-1.1-0.3
		s-0.9-0.1-1.3-0.1c-0.6,0-1.2,0.1-1.9,0.2c-0.7,0.1-1.4,0.4-2.1,0.6h-0.1v-2.1c0.4-0.1,1-0.2,1.8-0.4s1.5-0.2,2.3-0.2
		c0.9,0,1.7,0.1,2.3,0.2c0.7,0.1,1.2,0.4,1.7,0.7c0.5,0.3,0.8,0.8,1.1,1.3s0.4,1.2,0.4,2V52.4z M101.3,49.3v-3.5
		c-0.6,0-1.4,0.1-2.3,0.2c-0.9,0.1-1.6,0.2-2.1,0.3c-0.6,0.2-1.1,0.4-1.5,0.8c-0.4,0.4-0.6,0.9-0.6,1.5c0,0.7,0.2,1.3,0.7,1.6
		c0.4,0.4,1.1,0.5,2,0.5c0.7,0,1.4-0.1,2-0.4C100.2,50,100.8,49.7,101.3,49.3z"/>
	<path class="st1" d="M125.8,57h-2.1v-6c-0.7,0.6-1.3,1-1.9,1.3c-0.6,0.3-1.3,0.4-2.1,0.4c-1.5,0-2.7-0.6-3.6-1.7
		c-0.9-1.1-1.3-2.7-1.3-4.8c0-1.1,0.2-2,0.5-2.9c0.3-0.8,0.7-1.5,1.2-2.1c0.5-0.5,1.1-1,1.7-1.3s1.4-0.4,2.1-0.4
		c0.7,0,1.3,0.1,1.8,0.2c0.5,0.1,1.1,0.4,1.6,0.7l0.1-0.5h2V57z M123.6,49.2v-7.1c-0.6-0.3-1.1-0.4-1.5-0.6s-0.9-0.2-1.5-0.2
		c-1.2,0-2.1,0.4-2.8,1.2c-0.6,0.8-1,2-1,3.4c0,1.5,0.3,2.6,0.8,3.4c0.5,0.8,1.3,1.2,2.4,1.2c0.6,0,1.2-0.1,1.8-0.4
		C122.5,49.9,123.1,49.6,123.6,49.2z"/>
	<path class="st1" d="M140.3,52.4h-2.1V51c-0.7,0.6-1.4,1-2,1.3c-0.7,0.3-1.4,0.4-2.2,0.4c-1.3,0-2.3-0.4-3.1-1.2
		c-0.7-0.8-1.1-2-1.1-3.5v-8.1h2.1V47c0,0.6,0,1.2,0.1,1.6c0.1,0.5,0.2,0.8,0.4,1.2c0.2,0.3,0.5,0.6,0.8,0.7
		c0.3,0.1,0.8,0.2,1.4,0.2c0.5,0,1.1-0.1,1.8-0.4s1.3-0.6,1.8-1.1v-9.4h2.1V52.4z"/>
	<path class="st1" d="M155,46.3h-9.2c0,0.8,0.1,1.4,0.3,2c0.2,0.6,0.6,1,1,1.4c0.4,0.4,0.9,0.6,1.4,0.8s1.1,0.3,1.8,0.3
		c0.9,0,1.7-0.2,2.6-0.5c0.9-0.3,1.5-0.7,1.8-1h0.1v2.3c-0.7,0.3-1.4,0.6-2.2,0.8s-1.5,0.3-2.3,0.3c-2.1,0-3.7-0.6-4.9-1.7
		c-1.2-1.1-1.8-2.7-1.8-4.8c0-2.1,0.6-3.7,1.7-4.9s2.6-1.8,4.4-1.8c1.7,0,3,0.5,3.9,1.5s1.4,2.4,1.4,4.2V46.3z M152.9,44.7
		c0-1.1-0.3-2-0.8-2.6c-0.6-0.6-1.4-0.9-2.5-0.9c-1.1,0-2,0.3-2.7,1s-1,1.5-1.1,2.5H152.9z"/>
	<path class="st1" d="M167.1,48.8c0,1.1-0.5,2.1-1.4,2.8s-2.2,1.1-3.9,1.1c-0.9,0-1.8-0.1-2.6-0.3c-0.8-0.2-1.4-0.5-1.9-0.7v-2.4
		h0.1c0.7,0.5,1.4,0.9,2.2,1.2c0.8,0.3,1.6,0.4,2.3,0.4c0.9,0,1.7-0.1,2.2-0.4c0.5-0.3,0.8-0.8,0.8-1.4c0-0.5-0.1-0.9-0.4-1.1
		c-0.3-0.3-0.8-0.5-1.6-0.7c-0.3-0.1-0.7-0.1-1.2-0.2c-0.5-0.1-0.9-0.2-1.3-0.3c-1.1-0.3-1.9-0.7-2.3-1.3c-0.5-0.6-0.7-1.3-0.7-2.1
		c0-0.5,0.1-1,0.3-1.5c0.2-0.5,0.5-0.9,1-1.2c0.4-0.4,1-0.6,1.6-0.8c0.6-0.2,1.4-0.3,2.2-0.3c0.7,0,1.5,0.1,2.3,0.3
		c0.8,0.2,1.4,0.4,1.9,0.7v2.3h-0.1c-0.5-0.4-1.2-0.7-2-1c-0.8-0.3-1.5-0.4-2.3-0.4c-0.8,0-1.4,0.1-2,0.4c-0.5,0.3-0.8,0.7-0.8,1.3
		c0,0.5,0.2,0.9,0.5,1.2c0.3,0.3,0.8,0.5,1.5,0.6c0.4,0.1,0.8,0.2,1.3,0.3c0.5,0.1,0.9,0.2,1.2,0.2c1,0.2,1.7,0.6,2.3,1.2
		C166.9,47.1,167.1,47.8,167.1,48.8z"/>
	<path class="st1" d="M176.7,52.3c-0.4,0.1-0.8,0.2-1.3,0.3s-0.9,0.1-1.3,0.1c-1.3,0-2.3-0.3-2.9-1s-1-1.8-1-3.3v-6.7h-1.4v-1.8h1.4
		v-3.6h2.1v3.6h4.4v1.8h-4.4v5.7c0,0.7,0,1.2,0,1.5c0,0.4,0.1,0.7,0.3,1c0.2,0.3,0.4,0.5,0.7,0.7c0.3,0.1,0.7,0.2,1.3,0.2
		c0.3,0,0.7-0.1,1.1-0.2c0.4-0.1,0.6-0.2,0.8-0.3h0.1V52.3z"/>
	<path class="st1" d="M181.5,37.7h-2.4v-2.2h2.4V37.7z M181.3,52.4h-2.1V39.8h2.1V52.4z"/>
	<path class="st1" d="M196.2,46.1c0,2-0.5,3.7-1.6,4.8c-1,1.2-2.5,1.8-4.2,1.8c-1.8,0-3.2-0.6-4.2-1.8c-1-1.2-1.6-2.8-1.6-4.8
		s0.5-3.7,1.6-4.8c1-1.2,2.5-1.8,4.2-1.8c1.8,0,3.2,0.6,4.2,1.8C195.7,42.4,196.2,44.1,196.2,46.1z M194,46.1c0-1.6-0.3-2.8-1-3.6
		c-0.6-0.8-1.5-1.2-2.7-1.2c-1.1,0-2,0.4-2.7,1.2c-0.6,0.8-0.9,2-0.9,3.6c0,1.6,0.3,2.8,1,3.6c0.6,0.8,1.5,1.2,2.7,1.2
		c1.1,0,2-0.4,2.6-1.2C193.7,48.9,194,47.7,194,46.1z"/>
	<path class="st1" d="M210,52.4h-2.1v-7.1c0-0.6,0-1.1-0.1-1.6c-0.1-0.5-0.2-0.9-0.4-1.2c-0.2-0.3-0.5-0.5-0.8-0.7
		c-0.4-0.2-0.8-0.2-1.4-0.2c-0.6,0-1.2,0.1-1.8,0.4s-1.2,0.6-1.8,1.1v9.4h-2.1V39.8h2.1v1.4c0.7-0.5,1.3-1,2-1.3
		c0.7-0.3,1.4-0.5,2.2-0.5c1.4,0,2.4,0.4,3.1,1.2s1.1,2,1.1,3.5V52.4z"/>
	<path class="st1" d="M223.2,39.6c0,0.7-0.1,1.4-0.4,2c-0.3,0.6-0.6,1.1-1,1.5c-0.4,0.4-0.9,0.8-1.4,1.2c-0.5,0.4-1.1,0.7-1.7,1.1
		v2.5h-2v-3.4c0.5-0.3,1-0.6,1.6-0.9s1-0.7,1.4-1c0.4-0.4,0.8-0.8,1-1.2c0.2-0.4,0.4-0.9,0.4-1.6c0-0.8-0.3-1.5-0.9-1.9
		c-0.6-0.4-1.3-0.6-2.2-0.6c-0.8,0-1.6,0.1-2.3,0.4s-1.3,0.5-1.7,0.8h-0.1v-2.3c0.5-0.2,1.2-0.4,2-0.5c0.8-0.2,1.6-0.2,2.3-0.2
		c1.6,0,2.9,0.4,3.8,1.2C222.8,37.3,223.2,38.3,223.2,39.6z M218.8,52.4h-2.3V50h2.3V52.4z"/>
	<path class="st1" d="M78.3,91h-6.9l-1.5,5.3H65l7.5-24.7h4.9L85,96.4h-5.1L78.3,91z M74.8,77.9c-0.1,0.9-1,4.2-2.7,9.9h5.4
		C75.8,81.8,74.8,78.5,74.8,77.9z"/>
	<path class="st1" d="M102.9,88.9c0,1.6-0.4,3-1.1,4.2c-0.7,1.2-1.7,2.1-3,2.7s-2.7,0.9-4.4,0.9c-3.2,0-6-0.6-8.2-1.9v-4.3h0.5
		c1,0.8,2.2,1.5,3.5,1.9c1.3,0.4,2.6,0.7,4,0.7c2.8,0,4.1-1.1,4.1-3.3c0-0.6-0.1-1-0.4-1.4c-0.2-0.4-0.7-0.7-1.2-1
		c-0.6-0.3-1.8-0.8-3.8-1.4c-1.9-0.6-3.2-1.2-4.1-1.8c-0.8-0.6-1.5-1.3-1.9-2.2c-0.4-0.9-0.7-2-0.7-3.2c0-1.4,0.4-2.7,1.1-3.8
		c0.7-1.1,1.7-2,2.9-2.7s2.6-0.9,4.1-0.9c2.6,0,5.1,0.6,7.5,1.7V77h-0.5c-1.8-1.4-4.1-2.1-6.8-2.1c-1.2,0-2.1,0.3-2.8,0.8
		c-0.7,0.6-1,1.3-1,2.3c0,0.6,0.1,1.1,0.4,1.5s0.7,0.8,1.3,1.1s1.7,0.7,3.4,1.3c1.7,0.5,2.9,1,3.7,1.5c0.8,0.5,1.4,0.9,1.9,1.5
		s0.8,1.1,1,1.8S102.9,88.1,102.9,88.9z"/>
	<path class="st1" d="M124.1,96.4h-5.7L112.3,86l-1.4,1.8v8.6h-4.8V71.6h4.8v10.1l7.1-10.1h5.1l-7.7,10.7L124.1,96.4z"/>
	<path class="st1" d="M153.1,87.4c0,3.1-0.8,5.4-2.3,7s-3.7,2.4-6.6,2.4s-5.1-0.8-6.5-2.4c-1.5-1.6-2.2-3.9-2.2-6.9V71.6h4.8v15.8
		c0,1.8,0.3,3.2,1,4.1s1.7,1.3,3,1.3c1.4,0,2.5-0.4,3.1-1.3c0.6-0.9,1-2.2,1-4V71.6h4.8V87.4z"/>
	<path class="st1" d="M173,88.9c0,1.6-0.4,3-1.1,4.2c-0.7,1.2-1.7,2.1-3,2.7c-1.3,0.6-2.7,0.9-4.4,0.9c-3.2,0-6-0.6-8.2-1.9v-4.3
		h0.5c1,0.8,2.2,1.5,3.5,1.9c1.3,0.4,2.6,0.7,4,0.7c2.8,0,4.1-1.1,4.1-3.3c0-0.6-0.1-1-0.4-1.4c-0.2-0.4-0.7-0.7-1.2-1
		c-0.6-0.3-1.8-0.8-3.8-1.4c-1.9-0.6-3.2-1.2-4.1-1.8s-1.5-1.3-1.9-2.2s-0.7-2-0.7-3.2c0-1.4,0.4-2.7,1.1-3.8c0.7-1.1,1.7-2,2.9-2.7
		s2.6-0.9,4.1-0.9c2.6,0,5.1,0.6,7.5,1.7V77h-0.5c-1.8-1.4-4.1-2.1-6.8-2.1c-1.2,0-2.1,0.3-2.8,0.8c-0.7,0.6-1,1.3-1,2.3
		c0,0.6,0.1,1.1,0.4,1.5s0.7,0.8,1.3,1.1s1.7,0.7,3.4,1.3c1.7,0.5,2.9,1,3.7,1.5c0.8,0.5,1.4,0.9,1.9,1.5c0.4,0.5,0.8,1.1,1,1.8
		C172.9,87.3,173,88.1,173,88.9z"/>
	<path class="st1" d="M182,71.6l-0.6,17h-4l-0.6-17H182z M181.9,96.4h-5v-4.8h5V96.4z"/>
</g>
<rect x="-175" y="-112.1" style="fill:none;" width="262" height="81"/>
<text transform="matrix(1 0 0 1 -143.6982 -94.6303)"><tspan x="0" y="0" class="st1" style="font-family:'Verdana'; font-size:23px;">Have a question?</tspan><tspan x="39.9" y="44" class="st1" style="font-family:'VerdanaPro-CondSemiBold'; font-size:34px;">ASK US!</tspan></text>
</svg>
