<?xml version="1.0" encoding="utf-8"?>
<!-- Generator: Adobe Illustrator 23.0.0, SVG Export Plug-In . SVG Version: 6.00 Build 0)  -->
<svg version="1.1" id="Capa_1" xmlns="http://www.w3.org/2000/svg" xmlns:xlink="http://www.w3.org/1999/xlink" x="0px" y="0px"
	 viewBox="0 0 117 107.3" style="enable-background:new 0 0 117 107.3;" xml:space="preserve">
<style type="text/css">
	.st0{fill:#035F86;}
</style>
<g>
	<path class="st0" d="M81.5,35.3H36.4v28.6h45.1V35.3z M38.4,52.3h9.8v1.3h-9.8V52.3z M58.5,61.4H38.4v-6.6h20.1V61.4z M58.5,53.6
		h-9.8v-1.3h9.8V53.6z M69.6,60.8H59.1v-1h10.5V60.8z M79.2,59.2H59.1v-1h20.1V59.2z M79.2,57.4H59.1v-1h20.1V57.4z M79.2,55.7H59.1
		v-1h20.1V55.7z M59.1,53.6v-1.3h9.8v1.3H59.1z M79.3,53.6h-9.8v-1.3h9.8V53.6z M79.3,51.2H38.4V37.7h40.9V51.2z"/>
	<path class="st0" d="M59.2,2.6C30.8,2.6,7.7,25.7,7.7,54.1s23.1,51.5,51.5,51.5s51.5-23.1,51.5-51.5S87.6,2.6,59.2,2.6z M33,33.5
		c0-0.9,0.7-1.6,1.5-1.6h48.9c0.8,0,1.5,0.7,1.5,1.6v32.4c0,0.9-0.7,1.6-1.5,1.6H34.5c-0.8,0-1.5-0.8-1.5-1.6V33.5z M89.6,76.9H28.5
		c-1.4,0-2-2.1-0.9-3.2l5-5.2c0.2-0.3,0.6-0.4,0.9-0.4h50.9c0.3,0,0.6,0.1,0.9,0.4l5.2,5.2C91.6,74.8,90.9,76.9,89.6,76.9z"/>
</g>
</svg>
