<?xml version="1.0" encoding="utf-8"?>
<!-- Generator: Adobe Illustrator 23.0.0, SVG Export Plug-In . SVG Version: 6.00 Build 0)  -->
<svg version="1.1" id="Capa_1" xmlns="http://www.w3.org/2000/svg" xmlns:xlink="http://www.w3.org/1999/xlink" x="0px" y="0px"
	 viewBox="0 0 117 107.3" style="enable-background:new 0 0 117 107.3;" xml:space="preserve">
<style type="text/css">
	.st0{fill:#035F86;}
</style>
<g>
	<path class="st0" d="M47.8,61.6L47.8,61.6c0,0.2-0.2,0.5-0.4,0.7C47.6,62.2,47.8,61.9,47.8,61.6z"/>
	<path class="st0" d="M47.2,61.5c0,0.3-0.1,0.6-0.1,0.8l0,0C47.2,62,47.2,61.8,47.2,61.5L47.2,61.5z"/>
	<path class="st0" d="M45.8,63.3c0-0.3,0.1-0.7,0.2-1.1c0-0.2,0-0.5,0-0.7c0-0.4,0-0.7-0.1-1c0-0.4-0.1-0.7-0.2-1c0,0-0.1,0-0.2,0
		c-2.7-0.3-10.2-2-10.2-2c-0.4,0.8-1.5,1.9-2.5,2.5c0,0.1-0.1,0.2-0.1,0.4c-0.1,0.3-0.1,0.7,0,1.1c0,0.2,0.1,0.5,0.1,0.7
		c0,0.4,0.1,0.7,0.2,1.1c0.8,2.6,3.4,4.6,6.4,4.6S45,66,45.8,63.3z"/>
	<polygon class="st0" points="41,69.4 37.3,69.4 38.3,71.1 37.3,77.2 37.5,77.2 41.2,77.2 40.2,71.1 	"/>
	<path class="st0" d="M30.8,61l-0.1,0.7c0,0.3,0.3,0.6,0.7,0.7c-0.1-0.3-0.1-0.6-0.1-0.9s0.1-0.6,0.1-0.8c0-0.1,0-0.2,0-0.4
		C31.1,60.3,30.8,60.6,30.8,61z"/>
	<path class="st0" d="M47.1,60.5L47.1,60.5c0,0,0.1-0.1,0.1-0.2C47.1,60.3,47.1,60.4,47.1,60.5z"/>
	<path class="st0" d="M66.6,30.1L66.6,30.1c0,0,0.1-0.1,0.1-0.2C66.6,30,66.6,30.1,66.6,30.1z"/>
	<path class="st0" d="M51,32.1c-0.1-0.3-0.1-0.6-0.1-0.9s0.1-0.6,0.1-0.8c0-0.1,0-0.2,0-0.4c-0.3,0-0.6,0.3-0.6,0.7l-0.1,0.7
		C50.3,31.7,50.6,32,51,32.1z"/>
	<path class="st0" d="M66.6,31.9c0.1-0.3,0.1-0.5,0.1-0.8l0,0C66.7,31.3,66.6,31.6,66.6,31.9L66.6,31.9z"/>
	<path class="st0" d="M52.3,31.9c0,0.4,0.1,0.7,0.2,1.1c0.8,2.6,3.4,4.6,6.4,4.6s5.6-1.9,6.4-4.6c0-0.3,0.1-0.7,0.2-1.1
		c0-0.2,0-0.5,0-0.7c0-0.4,0-0.7-0.1-1c0-0.4-0.1-0.7-0.2-1c0,0-0.1,0-0.2,0c-2.7-0.3-10.2-2-10.2-2c-0.4,0.8-1.5,1.9-2.5,2.5
		c0,0.1-0.1,0.2-0.1,0.4c-0.1,0.3-0.1,0.6,0,1.1C52.2,31.4,52.3,31.7,52.3,31.9z"/>
	<path class="st0" d="M58.2,2.6C29.8,2.6,6.7,25.7,6.7,54.1s23.1,51.5,51.5,51.5s51.5-23.1,51.5-51.5S86.6,2.6,58.2,2.6z M49.2,30.7
		c0-1,0.7-1.7,1.8-1.7c0-0.1,0-0.4,0-0.6c0-0.1,0-0.1,0-0.2c0-3.3,2.2-6.1,5.2-7c2.3-0.8,3.8-0.6,3.8-0.6c1.7,0.1,3.3,1,4.6,2.1
		c0.4,0.3,0.9,0.8,1.2,1.3c0.7,0.9,1.1,2.1,1.3,3.4c0,0.2,0,0.4,0,0.6v0.1c0,0.2-0.1,0.6-0.1,0.8c0.9,0.2,1.5,0.9,1.5,1.8v0.6
		c0,1-0.9,1.8-1.9,1.8h-0.2c-0.6,2.1-2,3.7-3.9,4.7c-1.2,0.6-2.4,0.9-3.7,0.9c-1.4,0-2.6-0.3-3.7-0.9c-1.9-1-3.3-2.6-3.9-4.7h-0.1
		c-1,0-1.9-0.8-1.9-1.8C49.2,31.3,49.2,30.7,49.2,30.7z M47.8,44.6c0-3.6,2.8-6.6,6.4-6.8l1.7,9.1H57l0.8-6.2h0.1L57,39.1h3.6
		l-0.9,1.6l1,6.2h0.1h1.1l1.7-9.1C67,38,69.9,41,70,44.7V48H47.8V44.6z M50.5,78.2H28.3v-3.3c0-3.5,2.7-6.5,6.2-6.8V68
		c0.2,0,0.3,0,0.5,0h0.4c-1.8-1-3.1-2.6-3.7-4.6h-0.1c-1,0-1.9-0.8-1.9-1.8V61c0-1,0.7-1.7,1.7-1.7c0-0.1,0-0.4,0-0.6
		c0-0.1,0-0.1,0-0.2c0-3.3,2.2-6.1,5.2-7c0,0,1.1-0.3,1.8-0.4c1.4-0.2,2-0.1,3.4,0.2c1.1,0.3,2.1,0.6,3.2,1.7
		c0.4,0.3,0.9,0.8,1.2,1.3c0.7,0.9,1.1,2.1,1.3,3.4c0,0.2,0,0.4,0,0.6v0.1c0,0.2-0.1,0.6-0.1,0.8c0.9,0.2,1.5,0.9,1.5,1.8v0.6
		c0,1-0.9,1.8-1.9,1.8h-0.1c-0.6,2-1.9,3.6-3.7,4.6h0.3c0.2,0,0.3,0,0.5,0l-1.7,9.2l1.7-9.1c3.6,0.3,6.4,3.2,6.5,6.9
		C50.5,75,50.5,78.2,50.5,78.2z M51,64.5c-0.5,0-1-0.4-1-1c0-0.5,0.4-1,1-1h6.9V51.9c0-0.5,0.4-1,1-1c0.5,0,1,0.4,1,1v10.5h6.7
		c0.5,0,1,0.5,1,1.1c0,0.5-0.4,1-1,1H51z M88.9,77.9H67.2v-3.2c0-2.4,1.3-4.4,3.2-5.6c-0.4-1.7-0.8-3.8-1-5.8
		c-0.5-0.3-0.8-0.8-0.8-1.4v-0.6c0-0.4,0.2-0.8,0.4-1.1c0-2.7,1.1-5.2,2.8-7.2c0.3-0.4,0.7-0.8,1.3-1.1c1.4-0.9,3.1-1.5,4.8-1.5
		c4.9,0,8.8,4.2,8.9,9.4c0.4,0.3,0.6,0.8,0.6,1.3v0.6c0,0.4-0.1,0.8-0.3,1c0,0.1-0.1,0.2-0.2,0.3c0.4,1.7,1.1,3.6,1.7,5
		c0.1,0,0.1,0.1,0,0.2c0,0.1-0.1,0.1-0.2,0.1c-1-0.2-1.7-0.4-2.3-1c0.5,1.1,2.3,2,2.3,2s0.1,0.1,0.1,0.2s0,0.2-0.1,0.2
		c0,0-0.5,0.3-1.2,0.6c1.1,1.1,1.7,2.7,1.7,4.4V77.9z"/>
	<path class="st0" d="M77.9,76.9l-2.8-8.5c0,0-1.5,1-1.3,1.3c0.1,0.1,2.3,2.2,2.3,2.2l-1.5,1.4L77.9,76.9z"/>
	<polygon class="st0" points="78.1,76.3 80,70.5 78.1,76.2 78,76.2 76.1,70.5 78,76.3 	"/>
	<path class="st0" d="M69.8,61.9c0,0.4,0.2,0.6,0.6,0.7C70.1,62.5,69.8,62.3,69.8,61.9z"/>
	<path class="st0" d="M70.3,61.7c0-0.2,0.1-0.6,0.1-0.8C70.3,61.1,70.3,61.4,70.3,61.7z"/>
	<path class="st0" d="M84.5,60.4c-0.9-0.7-2-1.6-2.5-2.4c0,0-7.3,1.7-10,1.8c0,0-0.1,0-0.2,0c0,0.4-0.1,0.7-0.2,1s-0.1,0.7,0,1
		c0,0.1,0,0.4,0,0.6c0,0.4,0.1,0.8,0.2,1.1c0.8,2.5,3.4,4.4,6.3,4.4c3,0,5.5-1.9,6.3-4.4c0-0.4,0.1-0.7,0.2-1.1
		c0.1-0.1,0.1-0.4,0.1-0.6c0-0.4,0-0.7-0.1-1C84.6,60.6,84.5,60.6,84.5,60.4z"/>
	<path class="st0" d="M80.9,68.4L78.1,77v0.1l3.5-3.8l-1.5-1.4c0,0,2.2-2,2.3-2.2C82.5,69.4,80.9,68.3,80.9,68.4z"/>
	<path class="st0" d="M86.3,61.3c0-0.4-0.2-0.6-0.6-0.7C86,60.7,86.3,60.9,86.3,61.3z"/>
	<path class="st0" d="M36.4,77.2l-1.7-9.1c-0.1,0-0.1,0-0.2,0l1.7,9.1H36.4z"/>
	<path class="st0" d="M47.8,61c0-0.3-0.2-0.6-0.6-0.7C47.5,60.4,47.8,60.7,47.8,61z"/>
	<path class="st0" d="M47.4,62.3c-0.1,0-0.2,0-0.2,0v0.1C47.2,62.4,47.3,62.3,47.4,62.3z"/>
	<path class="st0" d="M47.1,60.6L47.1,60.6c0,0.3,0.1,0.6,0.1,0.9l0,0C47.2,61.1,47.2,60.8,47.1,60.6z"/>
	<path class="st0" d="M39.3,69c1.3,0,2.5-0.3,3.7-0.9c0.1,0,0.1-0.1,0.2-0.1H43C41.9,68.6,40.7,68.9,39.3,69c-1.3-0.1-2.5-0.4-3.7-1
		h-0.2c0.1,0,0.1,0.1,0.2,0.1C36.7,68.7,37.9,69,39.3,69z"/>
	<path class="st0" d="M86.3,61.9c0,0.4-0.3,0.6-0.6,0.7c0-0.3,0.1-0.6,0.1-0.9c-0.1-0.1-0.1-0.2-0.1-0.2c0,0.1,0,0.2,0,0.3
		c0,0.3,0,0.6-0.1,0.9C86,62.6,86.3,62.3,86.3,61.9z"/>
	<path class="st0" d="M70.3,61.7c0,0.3,0,0.6,0.1,0.9C70.4,62.3,70.3,62,70.3,61.7z"/>
	<path class="st0" d="M67.3,30.6c0-0.3-0.2-0.6-0.6-0.7C67,30,67.3,30.3,67.3,30.6z"/>
	<path class="st0" d="M66.6,30.2L66.6,30.2c0,0.3,0.1,0.6,0.1,0.9l0,0C66.7,30.7,66.7,30.4,66.6,30.2z"/>
	<path class="st0" d="M67.3,31.2c0,0.4-0.3,0.7-0.7,0.7V32C67,31.9,67.3,31.6,67.3,31.2z"/>
</g>
</svg>
