<?xml version="1.0" encoding="utf-8"?>
<!-- Generator: Adobe Illustrator 23.0.0, SVG Export Plug-In . SVG Version: 6.00 Build 0)  -->
<svg version="1.1" id="Capa_1" xmlns="http://www.w3.org/2000/svg" xmlns:xlink="http://www.w3.org/1999/xlink" x="0px" y="0px"
	 viewBox="0 0 117 107.3" style="enable-background:new 0 0 117 107.3;" xml:space="preserve">
<style type="text/css">
	.st0{fill:#035F86;}
</style>
<path class="st0" d="M59.2,2.6C30.8,2.6,7.7,25.7,7.7,54.1s23.1,51.5,51.5,51.5s51.5-23.1,51.5-51.5S87.6,2.6,59.2,2.6z M64.5,74.1
	V78c0,0.1,0,0.1,0,0.2c-0.1,2.4-2,4.3-4.3,4.3H56c-2.3,0-4.2-1.9-4.3-4.3c0-0.1,0-0.1,0-0.2v-3.9c0-0.1,0-0.1,0-0.2
	c0.1-2.4,2-4.3,4.3-4.3h4.2c2.3,0,4.2,1.9,4.3,4.3C64.5,73.9,64.5,74,64.5,74.1z M73.1,50.6c-0.8,1.3-2.5,2.8-4.9,4.7l-2.3,1.8
	c-1,0.8-1.7,1.7-2,2.7c-0.2,0.7-0.3,2-0.4,6.9c-0.1,0.7-0.7,1.3-1.4,1.3h-8.6c-0.3,0-0.6-0.1-0.9-0.4c-0.3-0.2-0.4-0.6-0.4-0.9
	c0.1-7.6,0.5-10,1.1-11.5c0.6-1.7,2.2-3.3,4.7-5.3l2-1.9c0.7-0.5,1.2-1.1,1.6-1.6c0.7-0.9,1-2,1-3.1c0-1.3-0.3-2.5-1.1-3.6
	c-0.7-1-2.1-1.5-4.1-1.5s-3.3,0.6-4.1,1.8c-0.8,1.3-1.3,2.9-1.1,6.6c0.1,0.3,0,0.6-0.3,0.9c-0.2,0.3-0.6,0.4-0.9,0.4L42,48
	c-0.3,0-0.6-0.1-0.9-0.4c-0.3-0.2-0.4-0.6-0.4-0.9c0.4-9,2.2-13.6,6.6-16.4c2.7-1.7,6-2.6,9.9-2.6h0.1c5.1,0.1,9.4,1.3,12.8,3.8
	c3.5,2.6,5.3,6.4,5.4,11.3C75.4,45.9,74.7,48.5,73.1,50.6z"/>
</svg>
