<?xml version="1.0" encoding="utf-8"?>
<!-- Generator: Adobe Illustrator 23.0.0, SVG Export Plug-In . SVG Version: 6.00 Build 0)  -->
<svg version="1.1" id="Capa_1" xmlns="http://www.w3.org/2000/svg" xmlns:xlink="http://www.w3.org/1999/xlink" x="0px" y="0px"
	 viewBox="0 0 117 107.3" style="enable-background:new 0 0 117 107.3;" xml:space="preserve">
<style type="text/css">
	.st0{fill:#035F86;}
</style>
<g>
	<path class="st0" d="M59.2,2.6C30.8,2.6,7.7,25.7,7.7,54.1s23.1,51.5,51.5,51.5s51.5-23.1,51.5-51.5S87.6,2.6,59.2,2.6z M83.9,35.3
		v28c0,0.5-0.4,0.9-0.9,0.9H64.3l9.8,16.7c0.4,0.8,0.1,1.9-0.7,2.4c-0.3,0.1-0.6,0.2-0.9,0.2c-0.7,0-1.3-0.3-1.6-0.9l-9.9-17v16
		c0,1-0.8,1.8-1.8,1.8s-1.8-0.8-1.8-1.8V65.4L47.1,82.5c-0.5,0.8-1.6,1.1-2.4,0.6s-1.1-1.6-0.6-2.4l10.2-16.6H33.6
		c-0.5,0-0.9-0.4-0.9-0.9v-28v-0.9h51.2C83.9,34.3,83.9,35.3,83.9,35.3z M85.9,33.6c0,0.3-0.3,0.5-0.6,0.5h-1.4H32.6h-1.4
		c-0.3,0-0.5-0.2-0.5-0.5v-1h55.2V33.6z M85.9,31.6H30.6v-2.2c0-0.3,0.3-0.5,0.6-0.5h54.1c0.4,0,0.6,0.2,0.6,0.5V31.6z"/>
	<path class="st0" d="M81.8,36.3H35v25.8h46.8V36.3z M36.2,37.5h31.7v2.4H36.2V37.5z M55.9,60.4H37.1V41.6h18.8
		C55.9,41.6,55.9,60.4,55.9,60.4z M72,60.4H57v-1.5h15V60.4z M79.4,57.5H57V56h22.4V57.5z M79.4,54.6H57v-1.5h22.4V54.6z M79.4,51.8
		H57v-1.5h22.4V51.8z M79.4,48.9H57v-1.5h22.4V48.9z M79.4,46H57v-1.5h22.4V46z M79.4,43.1H57v-1.5h22.4V43.1z M80.3,39.9H68.7v-2.4
		h11.6C80.3,37.5,80.3,39.9,80.3,39.9z"/>
</g>
</svg>
