<?xml version="1.0" encoding="utf-8"?>
<!-- Generator: Adobe Illustrator 23.0.0, SVG Export Plug-In . SVG Version: 6.00 Build 0)  -->
<svg version="1.1" id="Capa_1" xmlns="http://www.w3.org/2000/svg" xmlns:xlink="http://www.w3.org/1999/xlink" x="0px" y="0px"
	 viewBox="0 0 117 107.3" style="enable-background:new 0 0 117 107.3;" xml:space="preserve">
<style type="text/css">
	.st0{fill:#035F86;}
</style>
<g>
	<path class="st0" d="M78.4,59.9c-0.2,0-0.3,0-0.6,0l1.7,9h1.1l0.9-6h0.1l-0.9-1.6h3.6l-0.9,1.6h0.1l0.9,6h1.1l1.7-9
		c-0.2,0-0.3,0-0.5,0H78.4z"/>
	<path class="st0" d="M55.6,56.2c-0.2,0-0.4,0-0.6,0.1l2.3,12.2h1.5h5h1.5l2.3-12.2c-0.2-0.1-0.4-0.1-0.7-0.1H55.6z M58.8,68.4
		l1.2-8.2h0.1l-1.3-2.3h4.9l-1.2,2.3h0.1l1.2,8.2H58.8z"/>
	<path class="st0" d="M35.8,59.9c-0.1,0-0.3,0-0.5,0l1.7,9h1.1l0.9-6l-0.9-1.6h3.6l-0.9,1.6h0.1l0.9,6h1.1l1.7-9c-0.2,0-0.3,0-0.5,0
		H35.8z"/>
	<path class="st0" d="M59.2,2.6C30.8,2.6,7.7,25.7,7.7,54.1s23.1,51.5,51.5,51.5s51.5-23.1,51.5-51.5S87.6,2.6,59.2,2.6z M82.6,42.6
		c4.4,0,7.9,3.5,7.9,7.9c0,4.3-3.6,7.9-7.9,7.9c-4.4,0-7.9-3.5-7.9-7.9S78.2,42.6,82.6,42.6z M61.2,32.6c6,0,10.8,4.9,10.8,10.8
		s-4.8,10.7-10.8,10.8c-6,0-10.8-4.8-10.8-10.8S55.2,32.6,61.2,32.6z M40,42.6c4.4,0,7.9,3.5,7.9,7.9c0,4.3-3.5,7.9-7.9,7.9
		s-7.9-3.5-7.9-7.9S35.6,42.6,40,42.6z M94.5,70.2H78.8c0-1.7-0.5-3.4-1.2-4.8v4.8H44.9v-4.8c-0.7,1.5-1.1,3.1-1.2,4.8H28v-3.6
		c0-4.1,3.3-7.5,7.4-7.4h9.1c0.8,0,1.5,0.1,2.2,0.3c1.8-2.7,4.8-4.4,8.3-4.4h12.5c3.5,0,6.5,1.8,8.3,4.4c0.7-0.2,1.4-0.3,2.2-0.3
		h9.1c4.1,0,7.4,3.3,7.4,7.4V70.2z"/>
</g>
</svg>
