<?xml version="1.0" encoding="utf-8"?>
<!-- Generator: Adobe Illustrator 23.0.0, SVG Export Plug-In . SVG Version: 6.00 Build 0)  -->
<svg version="1.1" id="Capa_1" xmlns="http://www.w3.org/2000/svg" xmlns:xlink="http://www.w3.org/1999/xlink" x="0px" y="0px"
	 viewBox="0 0 117 107.3" style="enable-background:new 0 0 117 107.3;" xml:space="preserve">
<style type="text/css">
	.st0{fill:#035F86;}
</style>
<g>
	<rect x="33.7" y="34.2" class="st0" width="8" height="8"/>
	<rect x="33.7" y="66.2" class="st0" width="8" height="8"/>
	<rect x="76.3" y="66.2" class="st0" width="8" height="8"/>
	<rect x="33.7" y="50.3" class="st0" width="8" height="8"/>
	<polygon class="st0" points="44.3,54.5 44.3,77 73.7,77 73.7,54.5 73.7,32 44.3,32 	"/>
	<rect x="76.3" y="50.3" class="st0" width="8" height="8"/>
	<path class="st0" d="M59,2.9C30.6,2.9,7.5,26,7.5,54.4s23.1,51.5,51.5,51.5s51.5-23.1,51.5-51.5S87.5,2.9,59,2.9z M87,78.6
		c0,1.3-1,2.3-2.3,2.3H33.5c-1.3,0-2.3-1-2.3-2.3V30.3c0-1.2,1-2.3,2.3-2.3h51.2c1.3,0,2.3,1,2.3,2.3V78.6z"/>
	<rect x="76.3" y="34.2" class="st0" width="8" height="8"/>
</g>
</svg>
