<?xml version="1.0" encoding="utf-8"?>
<!-- Generator: Adobe Illustrator 23.0.0, SVG Export Plug-In . SVG Version: 6.00 Build 0)  -->
<svg version="1.1" id="Capa_1" xmlns="http://www.w3.org/2000/svg" xmlns:xlink="http://www.w3.org/1999/xlink" x="0px" y="0px"
	 viewBox="0 0 117 107.3" style="enable-background:new 0 0 117 107.3;" xml:space="preserve">
<style type="text/css">
	.st0{fill:#035F86;}
	.st1{fill:#00A0DF;}
</style>
<g>
	<rect x="53.7" y="48.5" class="st0" width="8.3" height="7.4"/>
	<rect x="64.4" y="67.2" class="st0" width="8.3" height="7.4"/>
	<rect x="64.4" y="57.9" class="st0" width="8.3" height="7.4"/>
	<rect x="64.4" y="48.5" class="st0" width="8.3" height="7.4"/>
	<rect x="75" y="48.5" class="st0" width="8.3" height="7.4"/>
	<rect x="53.7" y="57.9" class="st0" width="8.3" height="7.4"/>
	<rect x="75" y="57.9" class="st0" width="8.3" height="7.4"/>
	<rect x="43" y="67.2" class="st0" width="8.3" height="7.4"/>
	<rect x="53.7" y="67.2" class="st0" width="8.3" height="7.4"/>
	<rect x="32.4" y="67.2" class="st0" width="8.3" height="7.4"/>
	<path class="st0" d="M59.2,2.6C30.8,2.6,7.7,25.7,7.7,54.1s23.1,51.5,51.5,51.5s51.5-23.1,51.5-51.5S87.6,2.6,59.2,2.6z M72.1,32.6
		v-4.1h3.3v4.1v4.7h-3.3V32.6z M40.3,32.6v-4.1h3.3v4.1v4.7h-3.3V32.6z M28.9,36.2c0-1,0.4-1.9,1.1-2.6c0.7-0.7,1.6-1.1,2.6-1.1h0.5
		H35h3.7v4.7c0,0.9,0.7,1.6,1.6,1.6h3.3c0.9,0,1.6-0.7,1.6-1.6v-4.7h25.1v4.7c0,0.9,0.7,1.6,1.6,1.6h3.3c0.9,0,1.6-0.7,1.6-1.6v-4.7
		h6.1c1,0,1.9,0.4,2.6,1.1c0.7,0.7,1.1,1.6,1.1,2.6h-0.2v4.1H28.9V36.2z M86.6,42.8v2.1H29.1v-2.1H86.6z M86.9,75.7
		c0,1-0.4,1.9-1.1,2.6s-1.6,1.1-2.6,1.1h-48h-1.9h-0.5c-1,0-1.9-0.4-2.6-1.1s-1.1-1.6-1.1-2.6V46.2h57.8V75.7z"/>
	<rect x="32.4" y="57.9" class="st0" width="8.3" height="7.4"/>
	<rect x="43" y="48.5" class="st0" width="8.3" height="7.4"/>
	<rect x="43" y="57.9" class="st0" width="8.3" height="7.4"/>
</g>
<rect x="187" y="303.3" class="st1" width="100" height="100"/>
</svg>
