<?xml version="1.0" encoding="utf-8"?>
<!-- Generator: Adobe Illustrator 23.0.0, SVG Export Plug-In . SVG Version: 6.00 Build 0)  -->
<svg version="1.1" id="Capa_1" xmlns="http://www.w3.org/2000/svg" xmlns:xlink="http://www.w3.org/1999/xlink" x="0px" y="0px"
	 viewBox="0 0 166.1 166.1" style="enable-background:new 0 0 166.1 166.1;" xml:space="preserve">
<style type="text/css">
	.st0{fill:#035F86;}
</style>
<g>
	<path class="st0" d="M119.2,53.6c-4,2.2-5.6,7.2-3.4,11.3c2.2,4,7.2,5.6,11.3,3.4c4-2.2,5.6-7.2,3.4-11.3
		C128.3,53,123.3,51.4,119.2,53.6z"/>
	<path class="st0" d="M83.1,3.9C40,3.9,5,38.9,5,82s34.9,78,78,78s78-34.9,78-78S126.2,3.9,83.1,3.9z M124.7,90.9
		c-9.4,5.1-20.4,4-28.6-1.8l-8.3,4.5l-1.1-2l-42.2,22.7L30.4,110l7.1-8.8l4.1-2.2l4.2,2.7l1.1-5.5l4.8-2.6c2.1,1.2,6.1,3.3,6.1,3.3
		l0.1-6.6l5.8-3.1L64,87v-3.4l14.4-7.8l-1.8-3.3l8.3-4.5c-0.4-10,4.8-19.8,14.2-24.9c13.2-7.1,29.6-2.2,36.7,11
		C142.8,67.4,137.9,83.8,124.7,90.9z"/>
</g>
</svg>
