<?xml version="1.0" encoding="utf-8"?>
<!-- Generator: Adobe Illustrator 23.0.0, SVG Export Plug-In . SVG Version: 6.00 Build 0)  -->
<svg version="1.1" id="Capa_1" xmlns="http://www.w3.org/2000/svg" xmlns:xlink="http://www.w3.org/1999/xlink" x="0px" y="0px"
	 viewBox="0 0 166.1 166.1" style="enable-background:new 0 0 166.1 166.1;" xml:space="preserve">
<style type="text/css">
	.st0{fill:#035F86;}
</style>
<g>
	<rect x="52.7" y="67.7" class="st0" width="63.9" height="3"/>
	<rect x="52.7" y="78.9" class="st0" width="63.9" height="3"/>
	<rect x="52.7" y="90.1" class="st0" width="34.3" height="3"/>
	<path class="st0" d="M84.4,5.3c-43.1,0-78,34.9-78,78s34.9,78,78,78s78-34.9,78-78S127.5,5.3,84.4,5.3z M87.8,115.5l-31.2,20.2
		l8.5-22.8c-19-5.4-32.3-18.3-32.3-33.5c0-19.9,23.1-36.1,51.7-36.1c28.5,0,51.7,16.2,51.7,36.1C136.1,98.6,114.8,114.3,87.8,115.5z
		"/>
</g>
</svg>
