<?xml version="1.0" encoding="utf-8"?>
<!-- Generator: Adobe Illustrator 23.0.0, SVG Export Plug-In . SVG Version: 6.00 Build 0)  -->
<svg version="1.1" id="Capa_1" xmlns="http://www.w3.org/2000/svg" xmlns:xlink="http://www.w3.org/1999/xlink" x="0px" y="0px"
	 viewBox="0 0 166.1 166.1" style="enable-background:new 0 0 166.1 166.1;" xml:space="preserve">
<style type="text/css">
	.st0{fill:#035F86;}
</style>
<g>
	<path class="st0" d="M124.4,70.4c-1.1-0.4-2.2-0.7-3.3-0.7c-1.1,0-2.5-0.1-4.2-0.1h-1.8V82h3.1c1.8,0,3.3-0.1,4.5-0.3
		c1.2-0.2,2.2-0.7,3-1.3c0.7-0.6,1.2-1.3,1.5-2.1c0.3-0.8,0.5-1.8,0.5-3s-0.3-2.2-0.9-3C126,71.3,125.3,70.7,124.4,70.4z"/>
	<path class="st0" d="M82.4,3.3c-43.1,0-78,34.9-78,78s34.9,78,78,78s78-34.9,78-78S125.5,3.3,82.4,3.3z M58.2,69.9H39.1v7.7h17.7v8
		H39.1v17.7H28.5V61.8h29.7V69.9z M98,69.9H85.1v33.4H74.4V69.9h-13v-8H98V69.9z M134.9,84.8c-1.7,1.6-3.5,2.9-5.5,3.7
		c-2,0.8-4.6,1.3-7.6,1.3h-6.7v13.5h-10.7V61.8H122c2.6,0,4.9,0.2,6.7,0.7c1.8,0.5,3.4,1.1,4.8,2c1.7,1.1,2.9,2.5,3.8,4.2
		c0.9,1.7,1.3,3.8,1.3,6.2c0,1.9-0.3,3.7-1,5.4C137,82.1,136.1,83.6,134.9,84.8z"/>
</g>
</svg>
