<?xml version="1.0" encoding="utf-8"?>
<!-- Generator: Adobe Illustrator 23.0.0, SVG Export Plug-In . SVG Version: 6.00 Build 0)  -->
<svg version="1.1" id="Capa_1" xmlns="http://www.w3.org/2000/svg" xmlns:xlink="http://www.w3.org/1999/xlink" x="0px" y="0px"
	 viewBox="0 0 171.7 148.6" style="enable-background:new 0 0 171.7 148.6;" xml:space="preserve">
<style type="text/css">
	.st0{fill:#1D9AD7;stroke:#FFFFFF;stroke-width:0.25;stroke-miterlimit:10;}
	.st1{fill:#FFFFFF;}
	.st2{fill:#189BD8;}
	.st3{clip-path:url(#SVGID_2_);fill:#FFFFFF;}
	.st4{clip-path:url(#SVGID_2_);fill:#BE1637;}
	.st5{clip-path:url(#SVGID_2_);fill:#293270;}
	.st6{clip-path:url(#SVGID_4_);fill:#344093;}
	.st7{clip-path:url(#SVGID_4_);fill:#F4F3F4;}
	.st8{clip-path:url(#SVGID_4_);fill:#D80D33;}
	.st9{clip-path:url(#SVGID_5_);fill:#020203;}
	.st10{clip-path:url(#SVGID_5_);fill:#E10720;}
	.st11{clip-path:url(#SVGID_5_);fill:#F7D92A;}
	.st12{clip-path:url(#SVGID_5_);}
	.st13{fill:#1D9AD7;}
	.st14{clip-path:url(#SVGID_8_);fill:#020203;}
	.st15{clip-path:url(#SVGID_8_);fill:#1D9AD7;}
	.st16{fill:none;stroke:#FFFFFF;stroke-width:0.76;stroke-miterlimit:10;}
	.st17{fill:none;stroke:#189BD8;stroke-miterlimit:10;}
	.st18{fill:none;stroke:#FFFFFF;stroke-miterlimit:10;}
	.st19{fill:#469ED8;}
	.st20{fill:#D4111C;}
	.st21{fill:#DB1315;}
	.st22{fill:#31AB58;}
	.st23{fill:#AC1917;}
	.st24{fill:#497FC1;}
	.st25{fill:#46A1DA;}
	.st26{fill:url(#SVGID_10_);}
	.st27{fill:#DF60A0;}
	.st28{fill:#395297;}
	.st29{fill:none;}
	.st30{clip-path:url(#SVGID_13_);fill:#FFFFFF;}
	.st31{clip-path:url(#SVGID_13_);fill:#1D9AD7;}
	.st32{fill:#116086;}
	.st33{fill:#155F86;}
	.st34{clip-path:url(#SVGID_15_);fill:#FFFFFF;}
	.st35{clip-path:url(#SVGID_15_);fill:#1B6C98;}
	.st36{clip-path:url(#SVGID_15_);fill:#155F86;}
	.st37{fill:#1D9AD7;stroke:#FFFFFF;stroke-miterlimit:10;}
	.st38{fill:#155079;}
	.st39{fill:#F6F6F6;}
	.st40{fill:#CECECD;}
	.st41{opacity:0.2;}
	.st42{filter:url(#Adobe_OpacityMaskFilter);}
	.st43{mask:url(#SVGID_16_);}
	.st44{fill:#6BC4E8;}
	.st45{fill:#9D9D9C;}
	.st46{filter:url(#Adobe_OpacityMaskFilter_1_);}
	.st47{mask:url(#SVGID_17_);}
	.st48{fill:#00A7E1;}
	.st49{fill:none;stroke:#E30613;stroke-width:0.25;stroke-miterlimit:10;}
	.st50{fill:#030404;}
	.st51{fill-rule:evenodd;clip-rule:evenodd;fill:url(#SVGID_18_);}
	.st52{fill:url(#SVGID_19_);}
	.st53{clip-path:url(#SVGID_21_);fill:#00A0DD;}
	.st54{clip-path:url(#SVGID_21_);fill:#FFFFFF;}
	.st55{clip-path:url(#SVGID_21_);fill:#13110C;}
	.st56{clip-path:url(#SVGID_21_);}
	.st57{clip-path:url(#SVGID_23_);fill:#030404;}
	.st58{clip-path:url(#SVGID_23_);fill:#FFFFFF;}
	.st59{clip-path:url(#SVGID_23_);fill:none;stroke:#221E1F;stroke-width:0.3488;stroke-miterlimit:10;}
	.st60{fill:#909294;}
	.st61{fill:#E9EAEB;}
	.st62{fill:#888A8D;}
	.st63{fill:#A0A2A4;}
	.st64{fill:#FAFAFA;}
	.st65{fill:#777779;}
	.st66{fill:#D9DBDB;}
	.st67{fill:#2A94D2;}
	.st68{fill:url(#SVGID_24_);}
	.st69{fill:#E5E5E4;}
	.st70{fill:#ECEDEE;}
	.st71{clip-path:url(#SVGID_28_);}
	.st72{clip-path:url(#SVGID_30_);}
	.st73{fill:#F2F2F2;}
	.st74{opacity:0.5;clip-path:url(#SVGID_32_);}
	.st75{opacity:0;fill:#B0B3B5;}
	.st76{opacity:3.846200e-02;fill:#B0B3B5;}
	.st77{opacity:7.692300e-02;fill:#B0B3B5;}
	.st78{opacity:0.1154;fill:#B0B3B5;}
	.st79{opacity:0.1538;fill:#B0B3B5;}
	.st80{opacity:0.1923;fill:#B0B3B5;}
	.st81{opacity:0.2308;fill:#B0B3B5;}
	.st82{opacity:0.2692;fill:#B0B3B5;}
	.st83{opacity:0.3077;fill:#B0B3B5;}
	.st84{opacity:0.3462;fill:#B0B3B5;}
	.st85{opacity:0.3846;fill:#B0B3B5;}
	.st86{opacity:0.4231;fill:#B0B3B5;}
	.st87{opacity:0.4615;fill:#B0B3B5;}
	.st88{opacity:0.5;fill:#B0B3B5;}
	.st89{opacity:0.5385;fill:#B0B3B5;}
	.st90{opacity:0.5769;fill:#B0B3B5;}
	.st91{opacity:0.6154;fill:#B0B3B5;}
	.st92{opacity:0.6538;fill:#B0B3B5;}
	.st93{opacity:0.6923;fill:#B0B3B5;}
	.st94{opacity:0.7308;fill:#B0B3B5;}
	.st95{opacity:0.7692;fill:#B0B3B5;}
	.st96{opacity:0.8077;fill:#B0B3B5;}
	.st97{opacity:0.8462;fill:#B0B3B5;}
	.st98{opacity:0.8846;fill:#B0B3B5;}
	.st99{opacity:0.9231;fill:#B0B3B5;}
	.st100{opacity:0.9615;fill:#B0B3B5;}
	.st101{fill:#B0B3B5;}
	.st102{fill:url(#SVGID_33_);}
	.st103{fill:url(#SVGID_34_);}
	.st104{fill:url(#SVGID_35_);}
	.st105{opacity:0.5;}
	.st106{opacity:0;fill:#ECECED;}
	.st107{opacity:3.846200e-02;fill:#ECECED;}
	.st108{opacity:7.692300e-02;fill:#ECECED;}
	.st109{opacity:0.1154;fill:#ECECED;}
	.st110{opacity:0.1538;fill:#ECECED;}
	.st111{opacity:0.1923;fill:#ECECED;}
	.st112{opacity:0.2308;fill:#ECECED;}
	.st113{opacity:0.2692;fill:#ECECED;}
	.st114{opacity:0.3077;fill:#ECECED;}
	.st115{opacity:0.3462;fill:#ECECED;}
	.st116{opacity:0.3846;fill:#ECECED;}
	.st117{opacity:0.4231;fill:#ECECED;}
	.st118{opacity:0.4615;fill:#ECECED;}
	.st119{opacity:0.5;fill:#ECECED;}
	.st120{opacity:0.5385;fill:#ECECED;}
	.st121{opacity:0.5769;fill:#ECECED;}
	.st122{opacity:0.6154;fill:#ECECED;}
	.st123{opacity:0.6538;fill:#ECECED;}
	.st124{opacity:0.6923;fill:#ECECED;}
	.st125{opacity:0.7308;fill:#ECECED;}
	.st126{opacity:0.7692;fill:#ECECED;}
	.st127{opacity:0.8077;fill:#ECECED;}
	.st128{opacity:0.8462;fill:#ECECED;}
	.st129{opacity:0.8846;fill:#ECECED;}
	.st130{opacity:0.9231;fill:#ECECED;}
	.st131{opacity:0.9615;fill:#ECECED;}
	.st132{fill:#ECECED;}
	.st133{fill:url(#SVGID_36_);}
	.st134{fill:#C2C2C4;}
	.st135{opacity:0;fill:#D9DADB;}
	.st136{opacity:0.1111;fill:#D9D8DA;}
	.st137{opacity:0.2222;fill:#D7D8D8;}
	.st138{opacity:0.3333;fill:#D6D7D8;}
	.st139{opacity:0.4444;fill:#D5D5D7;}
	.st140{opacity:0.5556;fill:#D5D6D7;}
	.st141{opacity:0.6667;fill:#D5D5D6;}
	.st142{opacity:0.7778;fill:#D3D3D5;}
	.st143{opacity:0.8889;fill:#D2D2D4;}
	.st144{fill:#D1D1D3;}
	.st145{fill:#E1E1E1;}
	.st146{fill:#D2D3D4;}
	.st147{fill:url(#SVGID_37_);}
	.st148{fill:url(#SVGID_38_);}
	.st149{fill:#673B8F;}
	.st150{fill:#5A5A55;}
	.st151{clip-path:url(#SVGID_40_);fill:#FFFFFF;}
	.st152{clip-path:url(#SVGID_40_);fill:#1D9AD7;}
	.st153{fill:#065F87;}
	.st154{fill-rule:evenodd;clip-rule:evenodd;fill:#065F87;}
</style>
<g>
	<path class="st38" d="M97,54.5c0-8-6.5-14.5-14.5-14.5c-8,0-14.5,6.5-14.5,14.5c0,8,6.5,14.5,14.5,14.5C90.5,69,97,62.5,97,54.5z"
		/>
	<path class="st38" d="M95.6,124.5c-3.3,3.5-6.2,6.3-8.2,8.2c-1.4,1.3-3.1,2-4.8,2c-1.3,0-3.2-0.4-5.1-2.2c-2-1.8-4.8-4.6-8-8
		c-6.9,1.5-11.5,4-11.5,6.9c0,4.5,11,8.2,24.6,8.2c13.6,0,24.6-3.7,24.6-8.2C107.1,128.5,102.5,125.9,95.6,124.5z"/>
	<path class="st38" d="M74.5,123.7C74.5,123.7,74.5,123.7,74.5,123.7c0.3,0.3,0.6,0.6,0.8,0.9c0,0,0.1,0.1,0.1,0.1
		c0.2,0.2,0.4,0.4,0.7,0.7c0.1,0.1,0.1,0.1,0.2,0.2c0.2,0.2,0.4,0.4,0.6,0.6c0.1,0.1,0.1,0.1,0.2,0.2c0.5,0.5,0.9,0.9,1.4,1.4
		c0.1,0.1,0.1,0.1,0.2,0.2c0.1,0.1,0.3,0.3,0.4,0.4c0.1,0.1,0.1,0.1,0.2,0.2c0.1,0.1,0.3,0.2,0.4,0.4c0.1,0.1,0.1,0.1,0.2,0.2
		c0.2,0.2,0.3,0.3,0.5,0.5c0.2,0.2,0.4,0.3,0.5,0.4c0.1,0,0.1,0.1,0.2,0.1c0.1,0.1,0.2,0.2,0.4,0.2c0.1,0,0.1,0.1,0.2,0.1
		c0.1,0,0.2,0.1,0.3,0.1c0.1,0,0.2,0,0.2,0c0.1,0,0.2,0,0.3,0c0,0,0,0,0.1,0c0.1,0,0.2,0,0.2,0c0.1,0,0.1,0,0.2,0
		c0.1,0,0.2-0.1,0.3-0.1c0.1,0,0.1,0,0.2-0.1c0.1,0,0.2-0.1,0.3-0.2c0.1,0,0.1-0.1,0.2-0.1c0.2-0.1,0.3-0.2,0.5-0.4
		c0.2-0.2,0.3-0.3,0.5-0.5c0,0,0.1-0.1,0.1-0.1c0.2-0.2,0.3-0.3,0.5-0.5c0,0,0.1-0.1,0.1-0.1c0.6-0.6,1.4-1.3,2.2-2.1c0,0,0,0,0,0
		c0.8-0.8,1.6-1.6,2.5-2.6c0,0,0-0.1,0.1-0.1c0,0,0,0,0,0c12.9-13.3,36.7-41.4,36.7-68.2c0-25.6-21-46.3-44.7-46.3
		S37.8,29.9,37.8,55.5C37.8,82.2,61.6,110.4,74.5,123.7L74.5,123.7z M58.5,54.5c0-13.3,10.8-24.1,24.1-24.1c13.3,0,24,10.8,24,24.1
		c0,13.3-10.8,24.1-24,24.1C69.2,78.5,58.5,67.8,58.5,54.5z"/>
</g>
</svg>
