<?xml version="1.0" encoding="utf-8"?>
<!-- Generator: Adobe Illustrator 23.0.0, SVG Export Plug-In . SVG Version: 6.00 Build 0)  -->
<svg version="1.1" id="Capa_1" xmlns="http://www.w3.org/2000/svg" xmlns:xlink="http://www.w3.org/1999/xlink" x="0px" y="0px"
	 viewBox="0 0 171.7 148.6" style="enable-background:new 0 0 171.7 148.6;" xml:space="preserve">
<style type="text/css">
	.st0{fill:#1D9AD7;stroke:#FFFFFF;stroke-width:0.25;stroke-miterlimit:10;}
	.st1{fill:#FFFFFF;}
	.st2{fill:#189BD8;}
	.st3{clip-path:url(#SVGID_2_);fill:#FFFFFF;}
	.st4{clip-path:url(#SVGID_2_);fill:#BE1637;}
	.st5{clip-path:url(#SVGID_2_);fill:#293270;}
	.st6{clip-path:url(#SVGID_4_);fill:#344093;}
	.st7{clip-path:url(#SVGID_4_);fill:#F4F3F4;}
	.st8{clip-path:url(#SVGID_4_);fill:#D80D33;}
	.st9{clip-path:url(#SVGID_5_);fill:#020203;}
	.st10{clip-path:url(#SVGID_5_);fill:#E10720;}
	.st11{clip-path:url(#SVGID_5_);fill:#F7D92A;}
	.st12{clip-path:url(#SVGID_5_);}
	.st13{fill:#1D9AD7;}
	.st14{clip-path:url(#SVGID_8_);fill:#020203;}
	.st15{clip-path:url(#SVGID_8_);fill:#1D9AD7;}
	.st16{fill:none;stroke:#FFFFFF;stroke-width:0.76;stroke-miterlimit:10;}
	.st17{fill:none;stroke:#189BD8;stroke-miterlimit:10;}
	.st18{fill:none;stroke:#FFFFFF;stroke-miterlimit:10;}
	.st19{fill:#469ED8;}
	.st20{fill:#D4111C;}
	.st21{fill:#DB1315;}
	.st22{fill:#31AB58;}
	.st23{fill:#AC1917;}
	.st24{fill:#497FC1;}
	.st25{fill:#46A1DA;}
	.st26{fill:url(#SVGID_10_);}
	.st27{fill:#DF60A0;}
	.st28{fill:#395297;}
	.st29{fill:none;}
	.st30{clip-path:url(#SVGID_13_);fill:#FFFFFF;}
	.st31{clip-path:url(#SVGID_13_);fill:#1D9AD7;}
	.st32{fill:#116086;}
	.st33{fill:#155F86;}
	.st34{clip-path:url(#SVGID_15_);fill:#FFFFFF;}
	.st35{clip-path:url(#SVGID_15_);fill:#1B6C98;}
	.st36{clip-path:url(#SVGID_15_);fill:#155F86;}
	.st37{fill:#1D9AD7;stroke:#FFFFFF;stroke-miterlimit:10;}
	.st38{fill:#155079;}
	.st39{fill:#F6F6F6;}
	.st40{fill:#CECECD;}
	.st41{opacity:0.2;}
	.st42{filter:url(#Adobe_OpacityMaskFilter);}
	.st43{mask:url(#SVGID_16_);}
	.st44{fill:#6BC4E8;}
	.st45{fill:#9D9D9C;}
	.st46{filter:url(#Adobe_OpacityMaskFilter_1_);}
	.st47{mask:url(#SVGID_17_);}
	.st48{fill:#00A7E1;}
	.st49{fill:none;stroke:#E30613;stroke-width:0.25;stroke-miterlimit:10;}
	.st50{fill:#030404;}
	.st51{fill-rule:evenodd;clip-rule:evenodd;fill:url(#SVGID_18_);}
	.st52{fill:url(#SVGID_19_);}
	.st53{clip-path:url(#SVGID_21_);fill:#00A0DD;}
	.st54{clip-path:url(#SVGID_21_);fill:#FFFFFF;}
	.st55{clip-path:url(#SVGID_21_);fill:#13110C;}
	.st56{clip-path:url(#SVGID_21_);}
	.st57{clip-path:url(#SVGID_23_);fill:#030404;}
	.st58{clip-path:url(#SVGID_23_);fill:#FFFFFF;}
	.st59{clip-path:url(#SVGID_23_);fill:none;stroke:#221E1F;stroke-width:0.3488;stroke-miterlimit:10;}
	.st60{fill:#909294;}
	.st61{fill:#E9EAEB;}
	.st62{fill:#888A8D;}
	.st63{fill:#A0A2A4;}
	.st64{fill:#FAFAFA;}
	.st65{fill:#777779;}
	.st66{fill:#D9DBDB;}
	.st67{fill:#2A94D2;}
	.st68{fill:url(#SVGID_24_);}
	.st69{fill:#E5E5E4;}
	.st70{fill:#ECEDEE;}
	.st71{clip-path:url(#SVGID_28_);}
	.st72{clip-path:url(#SVGID_30_);}
	.st73{fill:#F2F2F2;}
	.st74{opacity:0.5;clip-path:url(#SVGID_32_);}
	.st75{opacity:0;fill:#B0B3B5;}
	.st76{opacity:3.846200e-02;fill:#B0B3B5;}
	.st77{opacity:7.692300e-02;fill:#B0B3B5;}
	.st78{opacity:0.1154;fill:#B0B3B5;}
	.st79{opacity:0.1538;fill:#B0B3B5;}
	.st80{opacity:0.1923;fill:#B0B3B5;}
	.st81{opacity:0.2308;fill:#B0B3B5;}
	.st82{opacity:0.2692;fill:#B0B3B5;}
	.st83{opacity:0.3077;fill:#B0B3B5;}
	.st84{opacity:0.3462;fill:#B0B3B5;}
	.st85{opacity:0.3846;fill:#B0B3B5;}
	.st86{opacity:0.4231;fill:#B0B3B5;}
	.st87{opacity:0.4615;fill:#B0B3B5;}
	.st88{opacity:0.5;fill:#B0B3B5;}
	.st89{opacity:0.5385;fill:#B0B3B5;}
	.st90{opacity:0.5769;fill:#B0B3B5;}
	.st91{opacity:0.6154;fill:#B0B3B5;}
	.st92{opacity:0.6538;fill:#B0B3B5;}
	.st93{opacity:0.6923;fill:#B0B3B5;}
	.st94{opacity:0.7308;fill:#B0B3B5;}
	.st95{opacity:0.7692;fill:#B0B3B5;}
	.st96{opacity:0.8077;fill:#B0B3B5;}
	.st97{opacity:0.8462;fill:#B0B3B5;}
	.st98{opacity:0.8846;fill:#B0B3B5;}
	.st99{opacity:0.9231;fill:#B0B3B5;}
	.st100{opacity:0.9615;fill:#B0B3B5;}
	.st101{fill:#B0B3B5;}
	.st102{fill:url(#SVGID_33_);}
	.st103{fill:url(#SVGID_34_);}
	.st104{fill:url(#SVGID_35_);}
	.st105{opacity:0.5;}
	.st106{opacity:0;fill:#ECECED;}
	.st107{opacity:3.846200e-02;fill:#ECECED;}
	.st108{opacity:7.692300e-02;fill:#ECECED;}
	.st109{opacity:0.1154;fill:#ECECED;}
	.st110{opacity:0.1538;fill:#ECECED;}
	.st111{opacity:0.1923;fill:#ECECED;}
	.st112{opacity:0.2308;fill:#ECECED;}
	.st113{opacity:0.2692;fill:#ECECED;}
	.st114{opacity:0.3077;fill:#ECECED;}
	.st115{opacity:0.3462;fill:#ECECED;}
	.st116{opacity:0.3846;fill:#ECECED;}
	.st117{opacity:0.4231;fill:#ECECED;}
	.st118{opacity:0.4615;fill:#ECECED;}
	.st119{opacity:0.5;fill:#ECECED;}
	.st120{opacity:0.5385;fill:#ECECED;}
	.st121{opacity:0.5769;fill:#ECECED;}
	.st122{opacity:0.6154;fill:#ECECED;}
	.st123{opacity:0.6538;fill:#ECECED;}
	.st124{opacity:0.6923;fill:#ECECED;}
	.st125{opacity:0.7308;fill:#ECECED;}
	.st126{opacity:0.7692;fill:#ECECED;}
	.st127{opacity:0.8077;fill:#ECECED;}
	.st128{opacity:0.8462;fill:#ECECED;}
	.st129{opacity:0.8846;fill:#ECECED;}
	.st130{opacity:0.9231;fill:#ECECED;}
	.st131{opacity:0.9615;fill:#ECECED;}
	.st132{fill:#ECECED;}
	.st133{fill:url(#SVGID_36_);}
	.st134{fill:#C2C2C4;}
	.st135{opacity:0;fill:#D9DADB;}
	.st136{opacity:0.1111;fill:#D9D8DA;}
	.st137{opacity:0.2222;fill:#D7D8D8;}
	.st138{opacity:0.3333;fill:#D6D7D8;}
	.st139{opacity:0.4444;fill:#D5D5D7;}
	.st140{opacity:0.5556;fill:#D5D6D7;}
	.st141{opacity:0.6667;fill:#D5D5D6;}
	.st142{opacity:0.7778;fill:#D3D3D5;}
	.st143{opacity:0.8889;fill:#D2D2D4;}
	.st144{fill:#D1D1D3;}
	.st145{fill:#E1E1E1;}
	.st146{fill:#D2D3D4;}
	.st147{fill:url(#SVGID_37_);}
	.st148{fill:url(#SVGID_38_);}
	.st149{fill:#673B8F;}
	.st150{fill:#5A5A55;}
	.st151{clip-path:url(#SVGID_40_);fill:#FFFFFF;}
	.st152{clip-path:url(#SVGID_40_);fill:#1D9AD7;}
	.st153{fill:#065F87;}
	.st154{fill-rule:evenodd;clip-rule:evenodd;fill:#065F87;}
</style>
<g id="Capa_4_1_">
	<g>
		<g>
			<path class="st153" d="M109.2,76.7v-1.1c-6.9,0-5.6,0-6.1-2.9c2.2-1.3,3.8-2,9.2-3.6l-0.4-1.6c-10.8,2.9-9.4,1.8-10.8-0.4
				c0.9-0.9,2-1.6,4.7-3.1l-0.7-0.9c-2.5,1.6-3.6,2.2-4.9,2.5c-1.3-2-3.1-1.8,4.7-9.6l-1.1-1.1c-7.8,7.8-6.9,6.3-9.6,4.5
				c0.4-1.3,0.9-2.5,2.5-4.9l-0.9-0.7c-3.4,5.8-2.7,4.7-5.4,3.6c0-2.5,0.2-4.3,1.6-9.4l-1.6-0.4c-2.9,10.5-2.9,9-5.8,8.7
				c-0.4-1.3-0.4-2.7-0.4-5.8h-1.3c0,3.1,0,4.5-0.4,5.8c-2.5,0.2-3.1,2-6.1-9l-1.6,0.4c1.3,5.4,2,7.2,1.6,9.9
				c-0.7,0.2-1.3,0.4-2,0.9c-0.9-0.9-1.6-2-3.1-4.7l-0.9,0.4c1.6,2.5,2.2,3.6,2.5,4.9c-2,1.3-1.8,3.1-9.6-4.7l-1.1,1.1
				c9.2,9.2,6.5,11.2-0.4,7.4l-0.7,0.9c2.5,1.6,3.8,2,4.7,3.1c-1.1,2,0.2,3.6-10.5,0.7l-0.4,1.6c5.2,1.3,6.9,1.8,9,3.4
				c-0.2,0.9-0.2,1.6-0.2,2.5c-1.3,0.4-2.7,0.4-5.8,0.4v1.1c3.1,0,4.5,0,5.8,0.4c0.2,2.5,2,3.1-9,6.1l0.4,1.6
				c10.8-2.9,9.4-1.8,10.8,0.4c-0.9,0.9-2,1.6-4.7,3.1l0.7,0.9c2.5-1.6,3.6-2.2,4.9-2.5c1.3,2,3.1,1.8-4.7,9.6l1.1,1.1
				c7.8-7.8,6.9-6.3,9.6-4.5c-0.4,1.3-0.9,2.5-2.5,4.9l0.9,0.7c1.6-2.5,2-3.8,3.1-4.7c2,1.1,3.6-0.2,0.7,10.5l1.6,0.4
				c1.3-5.2,1.8-6.9,3.4-9c2.7,0.4,2.9-0.9,2.9,6.1h1.1c0-6.9,0-5.6,2.9-6.1c1.3,2.2,2,3.8,3.6,9.2l1.6-0.4c-1.3-5.4-2-7.2-1.6-9.9
				c2.2-0.9,1.8-2,5.2,3.8l0.9-0.7c-3.4-5.8-2.7-4.5-0.4-6.5c2.2,1.1,3.8,2.2,7.6,6.3l1.1-1.1c-7.8-7.8-6.3-6.9-4.5-9.6
				c1.3,0.4,2.5,0.9,4.9,2.5l0.7-0.9c-2.5-1.6-3.8-2-4.7-3.1c1.1-2-0.2-3.6,10.5-0.7l0.4-1.6c-5.2-1.3-6.9-1.8-9-3.4
				C103.6,76.9,102.3,76.7,109.2,76.7z"/>
		</g>
		<path class="st153" d="M93.6,48.2c-0.2,1.1-1.8,1.6-3.1,1.1c-1.6-0.4-2.5-1.6-2.2-2.7s1.8-1.6,3.1-1.1
			C92.9,46,93.8,47.1,93.6,48.2z"/>
		<path class="st153" d="M106.6,57.2c-0.7,0.9-2.2,0.7-3.4-0.2c-1.1-1.1-1.6-2.5-0.9-3.4c0.7-0.9,2.2-0.7,3.4,0.2
			C106.8,54.7,107.2,56.3,106.6,57.2z"/>
		<path class="st153" d="M112.6,70.9c-1.1,0.2-2.2-0.9-2.5-2.5c-0.2-1.6,0.4-2.9,1.3-3.1c1.1-0.2,2.2,0.9,2.5,2.5
			C114.4,69.3,113.7,70.9,112.6,70.9z"/>
		<path class="st153" d="M111,86.3c-1.1-0.4-1.3-1.8-0.9-3.4s1.8-2.5,2.9-2c1.1,0.4,1.3,1.8,0.9,3.4C113.3,85.9,111.9,86.8,111,86.3
			z"/>
		<path class="st153" d="M102.3,99.3c-0.7-0.7-0.4-2.2,0.7-3.4s2.7-1.3,3.4-0.4c0.7,0.7,0.4,2.2-0.7,3.4
			C104.5,99.8,103,100,102.3,99.3z"/>
		<path class="st153" d="M88.4,105.2c-0.2-1.1,0.9-2.2,2.5-2.5s2.9,0.2,3.1,1.3c0.2,1.1-0.9,2.2-2.5,2.5
			C90,106.7,88.6,106.3,88.4,105.2z"/>
		<path class="st153" d="M72.9,103.8c0.2-1.1,1.6-1.6,3.1-1.3c1.6,0.2,2.7,1.6,2.2,2.5c-0.2,1.1-1.6,1.6-3.1,1.3
			C73.6,106.1,72.5,105,72.9,103.8z"/>
		<path class="st153" d="M60.1,95.8c0.7-0.9,2.2-0.9,3.4-0.2c1.3,0.9,2,2.2,1.3,3.1c-0.7,0.9-2.2,0.9-3.4,0.2
			C60.1,98,59.5,96.7,60.1,95.8z"/>
		<path class="st153" d="M53.4,81.4c1.1-0.4,2.2,0.4,2.9,2s0.2,2.9-0.9,3.4c-1.1,0.4-2.2-0.4-2.9-2C52.1,83.4,52.5,81.9,53.4,81.4z"
			/>
		<path class="st153" d="M55.4,65.7c1.1,0.2,1.6,1.8,1.1,3.1c-0.4,1.6-1.6,2.5-2.7,2.2c-1.1-0.2-1.6-1.8-1.1-3.1
			C53.2,66.6,54.3,65.5,55.4,65.7z"/>
		<path class="st153" d="M64.4,52.9c0.9,0.7,0.4,2.2-0.4,3.4c-1.1,1.1-2.7,1.3-3.4,0.7c-0.9-0.7-0.4-2.2,0.4-3.4
			C62.2,52.5,63.5,52,64.4,52.9z"/>
		<path class="st153" d="M78.3,46.2c0.2,1.1-0.7,2.2-2.2,2.7c-1.6,0.4-2.9,0-3.4-1.1c-0.2-1.1,0.7-2.2,2.2-2.7S77.9,45.3,78.3,46.2z
			"/>
		<path class="st153" d="M85.3,50c0,0.7-0.9,1.3-1.8,1.3c-1.1,0-2-0.4-2-1.3c0-0.7,0.9-1.3,1.8-1.3C84.4,48.7,85.3,49.4,85.3,50z"/>
		<path class="st153" d="M97.8,54.7c-0.2,0.7-1.3,0.9-2.2,0.4c-0.9-0.4-1.6-1.3-1.1-2c0.2-0.7,1.3-0.9,2.2-0.4
			C97.8,53.2,98.3,54.1,97.8,54.7z"/>
		<path class="st153" d="M106.3,65.3c-0.7,0.4-1.6,0-2.2-0.9c-0.7-0.9-0.7-2,0-2.5s1.6,0,2.2,0.9C107,63.7,107,64.8,106.3,65.3z"/>
		<path class="st153" d="M109.2,78.1c-0.7,0-1.3-0.9-1.3-2s0.7-2,1.3-2c0.7,0,1.3,0.9,1.3,2S109.9,78.1,109.2,78.1z"/>
		<path class="st153" d="M104.5,90.4c-0.7-0.4-0.7-1.6,0-2.5c0.7-0.9,1.6-1.3,2.2-0.9c0.7,0.4,0.7,1.6,0,2.5
			C106.1,90.4,105,90.6,104.5,90.4z"/>
		<path class="st153" d="M94.5,99.3c-0.4-0.7,0-1.6,0.9-2.2c0.9-0.7,2-0.7,2.5,0c0.4,0.7,0,1.6-0.9,2.2
			C95.8,99.8,94.7,99.8,94.5,99.3z"/>
		<path class="st153" d="M81.4,102c0-0.7,0.7-1.6,1.8-1.6c1.1-0.2,2,0.2,2,1.1c0,0.7-0.7,1.6-1.8,1.6
			C82.6,103.4,81.7,102.9,81.4,102z"/>
		<path class="st153" d="M69.1,97.6c0.4-0.7,1.3-0.9,2.2-0.2c0.9,0.4,1.3,1.3,1.1,2c-0.4,0.7-1.3,0.9-2.2,0.2
			C69.3,99.1,68.9,98.2,69.1,97.6z"/>
		<path class="st153" d="M59.9,87.5c0.4-0.4,1.6-0.2,2.2,0.4s0.9,1.8,0.2,2.2c-0.4,0.4-1.6,0.2-2.2-0.4C59.5,89,59.5,87.9,59.9,87.5
			z"/>
		<path class="st153" d="M57.5,74c0.7,0,1.3,0.9,1.3,2s-0.7,2-1.3,2c-0.7,0-1.3-0.9-1.3-2S56.8,74,57.5,74z"/>
		<path class="st153" d="M61.9,61.5c0.7,0.2,0.9,1.3,0.7,2.2c-0.4,0.9-1.1,1.6-2,1.3c-0.7-0.2-0.9-1.3-0.7-2.2
			C60.4,61.9,61.3,61.2,61.9,61.5z"/>
		<path class="st153" d="M72.3,52.7c0.4,0.7,0,1.6-0.9,2.2c-0.9,0.7-2,0.7-2.5,0s0-1.6,0.9-2.2C70.7,52,71.8,52,72.3,52.7z"/>
		<g>
			<path class="st153" d="M90.2,92.4c0,1.1-2.5,2.2-5.6,2.2S79,93.7,79,92.4c0-1.1,2.5-2.2,5.6-2.2C87.5,90.2,90.2,91.3,90.2,92.4z"
				/>
			<path class="st153" d="M85,60.3c0,1.1-2,1.8-4.7,1.8s-4.7-0.9-4.7-1.8c0-1.1,2-1.8,4.7-1.8S85,59.2,85,60.3z"/>
			<path class="st153" d="M73.8,88.4c-0.9,0.7-3.4-0.7-5.2-2.9c-2-2.5-2.7-4.9-1.8-5.8c0.9-0.7,3.4,0.7,5.2,2.9
				C74,85,74.9,87.7,73.8,88.4z"/>
			<path class="st153" d="M98.3,79.4c1.1,0.7,1.3,2.9,0.2,5.4c-1.1,2.5-3.1,3.8-4.3,3.1S92.9,85,94,82.5
				C95.1,80.3,97.1,78.9,98.3,79.4z"/>
			<path class="st153" d="M71.6,63.7c1.1,0.7,1.3,2.9,0.2,5.4s-3.1,3.8-4.3,3.1c-1.1-0.7-1.3-2.9-0.2-5.4
				C68.4,64.6,70.2,63.3,71.6,63.7z"/>
			<path class="st153" d="M98,67.1c0.9-0.2,1.8,1.1,2.2,2.7c0.4,1.8,0,3.1-0.9,3.4c-0.9,0.2-1.8-1.1-2.2-2.7
				C96.7,68.6,97.1,67.3,98,67.1z"/>
			<path class="st153" d="M89.5,60.1c0.7-0.7,2,0,3.4,1.3c1.1,1.3,1.6,2.7,0.9,3.4s-2,0-3.4-1.3C89.3,62.4,88.8,60.8,89.5,60.1z"/>
			<circle class="st153" cx="77.4" cy="73.8" r="2.7"/>
			<path class="st153" d="M88.4,67.3c0,1.3-1.1,2.5-2.5,2.5c-1.3,0-2.5-1.1-2.5-2.5c0-1.3,1.1-2.5,2.5-2.5
				C87.3,64.8,88.4,65.9,88.4,67.3z"/>
			<circle class="st153" cx="92" cy="74.2" r="1.6"/>
			<path class="st153" d="M87.7,81c0,0.9-0.7,1.6-1.6,1.6s-1.6-0.7-1.6-1.6c0-0.9,0.7-1.6,1.6-1.6C87.1,79.4,87.7,80.1,87.7,81z"/>
			<circle class="st153" cx="77.6" cy="82.8" r="2.2"/>
			<path class="st153" d="M89.7,85.4c0,0.9-0.7,1.6-1.6,1.6s-1.6-0.7-1.6-1.6s0.7-1.6,1.6-1.6S89.7,84.6,89.7,85.4z"/>
			<path class="st153" d="M77.6,67.1c0,0.4-0.4,0.9-0.9,0.9c-0.4,0-0.9-0.4-0.9-0.9s0.4-0.9,0.9-0.9C77.4,65.9,77.6,66.4,77.6,67.1z
				"/>
			<circle class="st153" cx="73.4" cy="76.5" r="1.3"/>
			<circle class="st153" cx="84.8" cy="75.4" r="1.3"/>
			<path class="st153" d="M95.1,68c0,1.1-0.9,2.2-2.2,2.2c-1.1,0-2.2-0.9-2.2-2.2c0-1.1,0.9-2.2,2.2-2.2S95.1,66.6,95.1,68z"/>
			<circle class="st153" cx="100.5" cy="78.5" r="0.9"/>
			<path class="st153" d="M74.9,92c0,0.7-0.4,1.1-1.1,1.1s-1.1-0.4-1.1-1.1s0.4-1.1,1.1-1.1S74.9,91.3,74.9,92z"/>
			<circle class="st153" cx="66.2" cy="76" r="1.1"/>
		</g>
	</g>
</g>
<g>
	<polygon class="st153" points="83.2,121.6 85.3,127.9 91.7,127.9 87.2,131.3 88.4,138 83.2,134.2 78,137.9 79.2,131.3 74.7,127.8 
		81.1,127.8 	"/>
	<polygon class="st153" points="83.2,13.5 85.3,19.8 91.7,19.8 87.2,23.2 88.4,29.9 83.2,26.1 78,29.8 79.2,23.2 74.7,19.7 
		81.1,19.7 	"/>
	<polygon class="st153" points="109.2,20.5 111.3,26.7 117.7,26.7 113.2,30.2 114.5,36.8 109.2,33 104,36.7 105.3,30.2 100.8,26.7 
		107.2,26.7 	"/>
	<polygon class="st153" points="55.9,20.5 58,26.7 64.4,26.7 59.9,30.2 61.1,36.8 55.9,33 50.7,36.7 51.9,30.2 47.4,26.7 53.8,26.7 
			"/>
	<polygon class="st153" points="109.2,114.3 111.3,120.6 117.7,120.6 113.2,124 114.5,130.7 109.2,126.9 104,130.6 105.3,124 
		100.8,120.5 107.2,120.5 	"/>
	<polygon class="st153" points="55.9,114.3 58,120.6 64.4,120.6 59.9,124 61.1,130.7 55.9,126.9 50.7,130.6 51.9,124 47.4,120.5 
		53.8,120.5 	"/>
	<polygon class="st153" points="36,40.9 38.1,47.1 44.5,47.1 39.9,50.6 41.2,57.2 36,53.4 30.7,57.1 32,50.6 27.5,47.1 33.9,47.1 	
		"/>
	<polygon class="st153" points="129.8,40.9 131.9,47.1 138.3,47.1 133.8,50.6 135,57.2 129.8,53.4 124.6,57.1 125.9,50.6 
		121.4,47.1 127.8,47.1 	"/>
	<polygon class="st153" points="36,94.9 38.1,101.1 44.5,101.1 39.9,104.5 41.2,111.2 36,107.4 30.7,111.1 32,104.5 27.5,101 
		33.9,101 	"/>
	<polygon class="st153" points="129.8,94.9 131.9,101.1 138.3,101.1 133.8,104.5 135,111.2 129.8,107.4 124.6,111.1 125.9,104.5 
		121.4,101 127.8,101 	"/>
	<polygon class="st153" points="29.8,67.7 31.9,73.9 38.3,73.9 33.7,77.3 35,84 29.8,80.2 24.5,83.9 25.8,77.3 21.3,73.9 27.7,73.9 
			"/>
	<polygon class="st153" points="136.7,67.7 138.8,73.9 145.2,73.9 140.7,77.3 141.9,84 136.7,80.2 131.5,83.9 132.7,77.3 
		128.2,73.9 134.6,73.9 	"/>
</g>
</svg>
