<?xml version="1.0" encoding="utf-8"?>
<!-- Generator: Adobe Illustrator 23.0.0, SVG Export Plug-In . SVG Version: 6.00 Build 0)  -->
<svg version="1.1" id="Capa_1" xmlns="http://www.w3.org/2000/svg" xmlns:xlink="http://www.w3.org/1999/xlink" x="0px" y="0px"
	 viewBox="0 0 171.7 148.6" style="enable-background:new 0 0 171.7 148.6;" xml:space="preserve">
<style type="text/css">
	.st0{fill:#1D9AD7;stroke:#FFFFFF;stroke-width:0.25;stroke-miterlimit:10;}
	.st1{fill:#FFFFFF;}
	.st2{fill:#189BD8;}
	.st3{clip-path:url(#SVGID_2_);fill:#FFFFFF;}
	.st4{clip-path:url(#SVGID_2_);fill:#BE1637;}
	.st5{clip-path:url(#SVGID_2_);fill:#293270;}
	.st6{clip-path:url(#SVGID_4_);fill:#344093;}
	.st7{clip-path:url(#SVGID_4_);fill:#F4F3F4;}
	.st8{clip-path:url(#SVGID_4_);fill:#D80D33;}
	.st9{clip-path:url(#SVGID_5_);fill:#020203;}
	.st10{clip-path:url(#SVGID_5_);fill:#E10720;}
	.st11{clip-path:url(#SVGID_5_);fill:#F7D92A;}
	.st12{clip-path:url(#SVGID_5_);}
	.st13{fill:#1D9AD7;}
	.st14{clip-path:url(#SVGID_8_);fill:#020203;}
	.st15{clip-path:url(#SVGID_8_);fill:#1D9AD7;}
	.st16{fill:none;stroke:#FFFFFF;stroke-width:0.76;stroke-miterlimit:10;}
	.st17{fill:none;stroke:#189BD8;stroke-miterlimit:10;}
	.st18{fill:none;stroke:#FFFFFF;stroke-miterlimit:10;}
	.st19{fill:#469ED8;}
	.st20{fill:#D4111C;}
	.st21{fill:#DB1315;}
	.st22{fill:#31AB58;}
	.st23{fill:#AC1917;}
	.st24{fill:#497FC1;}
	.st25{fill:#46A1DA;}
	.st26{fill:url(#SVGID_10_);}
	.st27{fill:#DF60A0;}
	.st28{fill:#395297;}
	.st29{fill:none;}
	.st30{clip-path:url(#SVGID_13_);fill:#FFFFFF;}
	.st31{clip-path:url(#SVGID_13_);fill:#1D9AD7;}
	.st32{fill:#116086;}
	.st33{fill:#155F86;}
	.st34{clip-path:url(#SVGID_15_);fill:#FFFFFF;}
	.st35{clip-path:url(#SVGID_15_);fill:#1B6C98;}
	.st36{clip-path:url(#SVGID_15_);fill:#155F86;}
	.st37{fill:#1D9AD7;stroke:#FFFFFF;stroke-miterlimit:10;}
	.st38{fill:#155079;}
	.st39{fill:#F6F6F6;}
	.st40{fill:#CECECD;}
	.st41{opacity:0.2;}
	.st42{filter:url(#Adobe_OpacityMaskFilter);}
	.st43{mask:url(#SVGID_16_);}
	.st44{fill:#6BC4E8;}
	.st45{fill:#9D9D9C;}
	.st46{filter:url(#Adobe_OpacityMaskFilter_1_);}
	.st47{mask:url(#SVGID_17_);}
	.st48{fill:#00A7E1;}
	.st49{fill:none;stroke:#E30613;stroke-width:0.25;stroke-miterlimit:10;}
	.st50{fill:#030404;}
	.st51{fill-rule:evenodd;clip-rule:evenodd;fill:url(#SVGID_18_);}
	.st52{fill:url(#SVGID_19_);}
	.st53{clip-path:url(#SVGID_21_);fill:#00A0DD;}
	.st54{clip-path:url(#SVGID_21_);fill:#FFFFFF;}
	.st55{clip-path:url(#SVGID_21_);fill:#13110C;}
	.st56{clip-path:url(#SVGID_21_);}
	.st57{clip-path:url(#SVGID_23_);fill:#030404;}
	.st58{clip-path:url(#SVGID_23_);fill:#FFFFFF;}
	.st59{clip-path:url(#SVGID_23_);fill:none;stroke:#221E1F;stroke-width:0.3488;stroke-miterlimit:10;}
	.st60{fill:#909294;}
	.st61{fill:#E9EAEB;}
	.st62{fill:#888A8D;}
	.st63{fill:#A0A2A4;}
	.st64{fill:#FAFAFA;}
	.st65{fill:#777779;}
	.st66{fill:#D9DBDB;}
	.st67{fill:#2A94D2;}
	.st68{fill:url(#SVGID_24_);}
	.st69{fill:#E5E5E4;}
	.st70{fill:#ECEDEE;}
	.st71{clip-path:url(#SVGID_28_);}
	.st72{clip-path:url(#SVGID_30_);}
	.st73{fill:#F2F2F2;}
	.st74{opacity:0.5;clip-path:url(#SVGID_32_);}
	.st75{opacity:0;fill:#B0B3B5;}
	.st76{opacity:3.846200e-02;fill:#B0B3B5;}
	.st77{opacity:7.692300e-02;fill:#B0B3B5;}
	.st78{opacity:0.1154;fill:#B0B3B5;}
	.st79{opacity:0.1538;fill:#B0B3B5;}
	.st80{opacity:0.1923;fill:#B0B3B5;}
	.st81{opacity:0.2308;fill:#B0B3B5;}
	.st82{opacity:0.2692;fill:#B0B3B5;}
	.st83{opacity:0.3077;fill:#B0B3B5;}
	.st84{opacity:0.3462;fill:#B0B3B5;}
	.st85{opacity:0.3846;fill:#B0B3B5;}
	.st86{opacity:0.4231;fill:#B0B3B5;}
	.st87{opacity:0.4615;fill:#B0B3B5;}
	.st88{opacity:0.5;fill:#B0B3B5;}
	.st89{opacity:0.5385;fill:#B0B3B5;}
	.st90{opacity:0.5769;fill:#B0B3B5;}
	.st91{opacity:0.6154;fill:#B0B3B5;}
	.st92{opacity:0.6538;fill:#B0B3B5;}
	.st93{opacity:0.6923;fill:#B0B3B5;}
	.st94{opacity:0.7308;fill:#B0B3B5;}
	.st95{opacity:0.7692;fill:#B0B3B5;}
	.st96{opacity:0.8077;fill:#B0B3B5;}
	.st97{opacity:0.8462;fill:#B0B3B5;}
	.st98{opacity:0.8846;fill:#B0B3B5;}
	.st99{opacity:0.9231;fill:#B0B3B5;}
	.st100{opacity:0.9615;fill:#B0B3B5;}
	.st101{fill:#B0B3B5;}
	.st102{fill:url(#SVGID_33_);}
	.st103{fill:url(#SVGID_34_);}
	.st104{fill:url(#SVGID_35_);}
	.st105{opacity:0.5;}
	.st106{opacity:0;fill:#ECECED;}
	.st107{opacity:3.846200e-02;fill:#ECECED;}
	.st108{opacity:7.692300e-02;fill:#ECECED;}
	.st109{opacity:0.1154;fill:#ECECED;}
	.st110{opacity:0.1538;fill:#ECECED;}
	.st111{opacity:0.1923;fill:#ECECED;}
	.st112{opacity:0.2308;fill:#ECECED;}
	.st113{opacity:0.2692;fill:#ECECED;}
	.st114{opacity:0.3077;fill:#ECECED;}
	.st115{opacity:0.3462;fill:#ECECED;}
	.st116{opacity:0.3846;fill:#ECECED;}
	.st117{opacity:0.4231;fill:#ECECED;}
	.st118{opacity:0.4615;fill:#ECECED;}
	.st119{opacity:0.5;fill:#ECECED;}
	.st120{opacity:0.5385;fill:#ECECED;}
	.st121{opacity:0.5769;fill:#ECECED;}
	.st122{opacity:0.6154;fill:#ECECED;}
	.st123{opacity:0.6538;fill:#ECECED;}
	.st124{opacity:0.6923;fill:#ECECED;}
	.st125{opacity:0.7308;fill:#ECECED;}
	.st126{opacity:0.7692;fill:#ECECED;}
	.st127{opacity:0.8077;fill:#ECECED;}
	.st128{opacity:0.8462;fill:#ECECED;}
	.st129{opacity:0.8846;fill:#ECECED;}
	.st130{opacity:0.9231;fill:#ECECED;}
	.st131{opacity:0.9615;fill:#ECECED;}
	.st132{fill:#ECECED;}
	.st133{fill:url(#SVGID_36_);}
	.st134{fill:#C2C2C4;}
	.st135{opacity:0;fill:#D9DADB;}
	.st136{opacity:0.1111;fill:#D9D8DA;}
	.st137{opacity:0.2222;fill:#D7D8D8;}
	.st138{opacity:0.3333;fill:#D6D7D8;}
	.st139{opacity:0.4444;fill:#D5D5D7;}
	.st140{opacity:0.5556;fill:#D5D6D7;}
	.st141{opacity:0.6667;fill:#D5D5D6;}
	.st142{opacity:0.7778;fill:#D3D3D5;}
	.st143{opacity:0.8889;fill:#D2D2D4;}
	.st144{fill:#D1D1D3;}
	.st145{fill:#E1E1E1;}
	.st146{fill:#D2D3D4;}
	.st147{fill:url(#SVGID_37_);}
	.st148{fill:url(#SVGID_38_);}
	.st149{fill:#673B8F;}
	.st150{fill:#5A5A55;}
	.st151{clip-path:url(#SVGID_40_);fill:#FFFFFF;}
	.st152{clip-path:url(#SVGID_40_);fill:#1D9AD7;}
	.st153{fill:#065F87;}
	.st154{fill-rule:evenodd;clip-rule:evenodd;fill:#065F87;}
</style>
<path class="st153" d="M65.8,52.9l-4.8-3.2l4.8,7.1c0,0,6-9.8,13.3-11.3C79.1,45.6,70.5,44.4,65.8,52.9z M74.8,100.3
	c0.9,2.5,0.8,5.1-0.4,7.3c-1.5,2.9-4.5,4.7-7.7,4.7c-2,0-4.1-0.7-6-2.1c-0.3-0.2-0.5-0.4-0.6-0.6c-2.3-3.3-2.7-7-1.1-10.1
	c1.5-2.9,4.5-4.7,7.8-4.7c1.9,0,3.8,0.6,5.6,1.8c0.5-0.2,1-0.4,1.6-0.6c-0.1-0.1-0.3-0.3-0.4-0.4c-2.1-1.5-4.4-2.2-6.7-2.2
	c-3.8,0-7.3,2.1-9,5.5c-1.9,3.6-1.4,7.8,1.2,11.5c0.3,0.4,0.6,0.7,1,1c2.2,1.5,4.5,2.3,6.9,2.3c3.8,0,7.2-2.1,9-5.4
	c1.5-2.8,1.5-5.9,0.3-8.9C75.6,99.7,75.2,100,74.8,100.3z M65.8,104.4l-4.8-3.2l4.8,7.1c0,0,6-9.8,13.3-11.3
	C79.1,97,70.5,95.9,65.8,104.4z M59.8,60c2.2,1.5,4.5,2.3,6.9,2.3c3.8,0,7.2-2.1,9-5.4c1.5-2.8,1.5-5.9,0.3-8.9
	c-0.5,0.3-0.8,0.6-1.2,0.9c0.9,2.5,0.8,5.1-0.4,7.3c-1.5,2.9-4.5,4.7-7.7,4.7c-2,0-4.1-0.7-6-2.1c-0.3-0.2-0.5-0.4-0.6-0.6
	c-2.3-3.3-2.7-7-1.1-10.1c1.5-2.9,4.5-4.7,7.8-4.7c1.9,0,3.8,0.6,5.6,1.8c0.5-0.2,1-0.4,1.6-0.6c-0.1-0.1-0.3-0.3-0.4-0.4
	c-2.1-1.5-4.4-2.2-6.7-2.2c-3.8,0-7.3,2.1-9,5.5c-1.9,3.6-1.4,7.8,1.2,11.5C59.1,59.4,59.5,59.7,59.8,60z M59.8,84.1
	c2.2,1.5,4.5,2.3,6.9,2.3c3.8,0,7.2-2.1,9-5.4c1.5-2.8,1.5-5.9,0.3-8.9c-0.5,0.3-0.8,0.6-1.2,0.9c0.9,2.5,0.8,5.1-0.4,7.3
	C72.9,83.2,70,85,66.7,85c-2,0-4.1-0.7-6-2.1c-0.3-0.2-0.5-0.4-0.6-0.6c-2.3-3.3-2.7-7-1.1-10.1c1.5-2.9,4.5-4.7,7.8-4.7
	c1.9,0,3.8,0.6,5.6,1.8c0.5-0.2,1-0.4,1.6-0.6c-0.1-0.1-0.3-0.3-0.4-0.4c-2.1-1.5-4.4-2.2-6.7-2.2c-3.8,0-7.3,2.1-9,5.5
	c-1.9,3.6-1.4,7.8,1.2,11.5C59.1,83.5,59.5,83.8,59.8,84.1z M65.8,77.1l-4.8-3.2l4.8,7.1c0,0,6-9.8,13.3-11.3
	C79.1,69.7,70.5,68.5,65.8,77.1z M83.2,51.9c0,0.4,0.3,0.8,0.8,0.8h29.9c0.4,0,0.8-0.3,0.8-0.8c0-0.4-0.3-0.8-0.8-0.8H84
	C83.5,51.2,83.2,51.5,83.2,51.9z M120.2,20.4h-16.4l0.7-2.1c0.3-1-0.4-1.9-1.4-1.9H90.6c0-0.1,0-0.3,0-0.4c0-4.5-3.7-8.2-8.2-8.2
	c-4.5,0-8.2,3.7-8.2,8.2c0,0.1,0,0.3,0,0.4H61.8c-1.1,0-1.8,1.2-1.3,2.2l1,1.9H48.9c-4.6,0-8.4,3.7-8.4,8.4v102.9
	c0,4.6,3.7,8.4,8.4,8.4h71.3c4.6,0,8.4-3.7,8.4-8.4V28.7C128.5,24.1,124.8,20.4,120.2,20.4z M82.4,11.9c2.2,0,4.1,1.8,4.1,4.1
	c0,2.2-1.8,4.1-4.1,4.1c-2.2,0-4.1-1.8-4.1-4.1C78.3,13.7,80.2,11.9,82.4,11.9z M121.1,125.8H47.9v-99h17l2.1,4
	c0.3,0.5,0.8,0.8,1.3,0.8h30.7c0.6,0,1.2-0.4,1.4-1l1.2-3.8h19.5V125.8z M113.8,55.3H84c-0.4,0-0.8,0.3-0.8,0.8
	c0,0.4,0.3,0.8,0.8,0.8h29.9c0.4,0,0.8-0.3,0.8-0.8C114.6,55.7,114.2,55.3,113.8,55.3z M113.8,74.7H84c-0.4,0-0.8,0.3-0.8,0.8
	c0,0.4,0.3,0.8,0.8,0.8h29.9c0.4,0,0.8-0.3,0.8-0.8C114.6,75.1,114.2,74.7,113.8,74.7z M113.8,105H84c-0.4,0-0.8,0.3-0.8,0.8
	c0,0.4,0.3,0.8,0.8,0.8h29.9c0.4,0,0.8-0.3,0.8-0.8C114.6,105.4,114.2,105,113.8,105z M113.8,78.9H84c-0.4,0-0.8,0.3-0.8,0.8
	c0,0.4,0.3,0.8,0.8,0.8h29.9c0.4,0,0.8-0.3,0.8-0.8C114.6,79.2,114.2,78.9,113.8,78.9z M113.8,109.2H84c-0.4,0-0.8,0.3-0.8,0.8
	c0,0.4,0.3,0.8,0.8,0.8h29.9c0.4,0,0.8-0.3,0.8-0.8C114.6,109.5,114.2,109.2,113.8,109.2z"/>
</svg>
