<?xml version="1.0" encoding="utf-8"?>
<!-- Generator: Adobe Illustrator 23.0.0, SVG Export Plug-In . SVG Version: 6.00 Build 0)  -->
<svg version="1.1" id="Capa_1" xmlns="http://www.w3.org/2000/svg" xmlns:xlink="http://www.w3.org/1999/xlink" x="0px" y="0px"
	 viewBox="0 0 171.7 148.6" style="enable-background:new 0 0 171.7 148.6;" xml:space="preserve">
<style type="text/css">
	.st0{fill:#065F85;}
	.st1{fill-rule:evenodd;clip-rule:evenodd;fill:#065F85;}
</style>
<g>
	<polygon class="st0" points="86.4,126.6 88.8,133.7 96.1,133.7 90.9,137.6 92.3,145.3 86.4,140.9 80.4,145.2 81.9,137.6 
		76.7,133.7 84.1,133.7 	"/>
	<polygon class="st0" points="86.4,3.5 88.8,10.6 96.1,10.6 90.9,14.5 92.3,22.2 86.4,17.8 80.4,22.1 81.9,14.5 76.7,10.6 
		84.1,10.6 	"/>
	<polygon class="st0" points="116.1,11.5 118.5,18.6 125.7,18.6 120.6,22.5 122,30.1 116.1,25.8 110.1,30 111.5,22.5 106.4,18.6 
		113.7,18.6 	"/>
	<polygon class="st0" points="55.3,11.5 57.7,18.6 65,18.6 59.8,22.5 61.2,30.1 55.3,25.8 49.4,30 50.8,22.5 45.6,18.6 53,18.6 	"/>
	<polygon class="st0" points="116.1,118.3 118.5,125.4 125.7,125.4 120.6,129.3 122,136.9 116.1,132.6 110.1,136.8 111.5,129.3 
		106.4,125.4 113.7,125.4 	"/>
	<polygon class="st0" points="55.3,118.3 57.7,125.4 65,125.4 59.8,129.3 61.2,136.9 55.3,132.6 49.4,136.8 50.8,129.3 45.6,125.4 
		53,125.4 	"/>
	<polygon class="st0" points="32.6,34.7 35,41.8 42.3,41.8 37.1,45.7 38.6,53.3 32.6,49.1 26.7,53.2 28.1,45.7 22.9,41.7 30.3,41.7 
			"/>
	<polygon class="st0" points="139.5,34.7 141.9,41.8 149.2,41.8 144,45.7 145.4,53.3 139.5,49.1 133.6,53.2 135,45.7 129.8,41.7 
		137.1,41.7 	"/>
	<polygon class="st0" points="32.6,96.1 35,103.2 42.3,103.2 37.1,107.1 38.6,114.8 32.6,110.4 26.7,114.7 28.1,107.1 22.9,103.2 
		30.3,103.2 	"/>
	<polygon class="st0" points="139.5,96.1 141.9,103.2 149.2,103.2 144,107.1 145.4,114.8 139.5,110.4 133.6,114.7 135,107.1 
		129.8,103.2 137.1,103.2 	"/>
	<polygon class="st0" points="25.5,65.2 27.9,72.3 35.2,72.2 30,76.2 31.5,83.8 25.5,79.4 19.6,83.7 21.1,76.2 16,72.2 23.2,72.2 	
		"/>
	<polygon class="st0" points="147.3,65.2 149.7,72.3 157,72.2 151.8,76.2 153.2,83.8 147.3,79.4 141.4,83.7 142.8,76.2 137.7,72.2 
		144.9,72.2 	"/>
</g>
<path class="st1" d="M73.8,98.1c-0.9,0.1-1.9,0.2-2.8,0.2c-11.5,0-20.8-9.3-20.8-20.8s9.3-20.8,20.8-20.8c0.9,0,2,0,3,0.2v-9
	c-1.1-0.1-2-0.2-3-0.2c-16.4,0-29.8,13.4-29.8,29.8s13.4,29.8,29.8,29.8c0.9,0,2.8-0.1,2.8-0.2V98.1z"/>
<path class="st1" d="M125.6,98.1c-0.9,0.1-1.9,0.2-2.8,0.2c-11.5,0-20.8-9.3-20.8-20.8s9.3-20.8,20.8-20.8c0.9,0,2,0,3,0.2v-9
	c-0.9-0.1-1.9-0.1-2.8-0.1C106.4,47.9,93,61.2,93,77.7s13.4,29.8,29.8,29.8c0.9,0,2.8-0.1,2.8-0.2L125.6,98.1z"/>
<rect x="98.2" y="73" class="st1" width="21.6" height="8.9"/>
</svg>
