<?xml version="1.0" encoding="utf-8"?>
<!-- Generator: Adobe Illustrator 23.0.0, SVG Export Plug-In . SVG Version: 6.00 Build 0)  -->
<svg version="1.1" id="Capa_1" xmlns="http://www.w3.org/2000/svg" xmlns:xlink="http://www.w3.org/1999/xlink" x="0px" y="0px"
	 viewBox="0 0 124.3 120.9" style="enable-background:new 0 0 124.3 120.9;" xml:space="preserve">
<style type="text/css">
	.st0{fill:#FFFFFF;}
</style>
<g>
	<path class="st0" d="M41.2,34c-1.2,0.6-2.3,1.4-3.4,2.4c-3.1,3.2-5.7,7-7.4,11.2c0.7-0.1,1.5-0.3,2.2-0.7h0c1.5-0.3,1.8-0.2,2-0.6
		c0.2-0.4,1.7-1.4,2.4-1.6c0.6-0.2,1.1-0.4,1.3-0.8c0.2-0.4,1.9-1.2,2.2-1.7c0,0,0,0,0,0c2-1.2,2.8-2.3,2.9-3.4c0,0,0,0,0,0
		c0.4-1.1-0.8-3-0.7-3.8c0.6-0.7,0.6-1.5,1.1-2.7L41.2,34z"/>
	<path class="st0" d="M90,77.2c0.1,2-0.4,3.5-2.8,4.5c-2.4,1-3.2,2.5-3.8,6.8c0.2-0.1,0.4-0.2,0.7-0.3c1.1-0.9,2.2-1.8,3.2-2.8
		c3.9-3.9,6.9-8.7,8.6-14.1c0-0.1,0-0.2,0-0.2C94.2,72.2,90,74,90,77.2z"/>
	<path class="st0" d="M63.2,4.8C31.9,4.8,6.5,30.2,6.5,61.4s25.4,56.6,56.6,56.6c31.3,0,56.6-25.4,56.6-56.6S94.5,4.8,63.2,4.8z
		 M62.6,97.2c-20.1,0-36.3-16.3-36.3-36.3c0-20.1,16.3-36.3,36.3-36.3c20.1,0,36.3,16.3,36.3,36.3C98.9,80.9,82.6,97.2,62.6,97.2z"
		/>
	<path class="st0" d="M73.4,34.9c3.3-1.2,6.2-0.4,6.8,0c0.7-1.6-5.1-3.3-5.1-3.3s-4.2,3-5.9,3c0.2-0.7-0.1-1.2-0.6-1.6
		c-0.6-0.6-0.8-1.2-1.4-1.1c-0.4,0.1-0.6,0.2-0.9,0.3c-0.2,0-0.3,0-0.5-0.1l0,0c0-0.5-1.1-0.5-1.1-0.5s-0.8,0.5-1.2,0.5c0,0,0,0,0,0
		c-0.6,0-1.1,0.1-1.7,0.3l-0.1-0.1c0,0-1.1,0-1,0.2c0,0.1,0,0.1,0,0.2c-0.9,0.4-1.7,1-2.2,1.7c-0.1,0-0.1,0-0.2,0
		c-0.3,0.1-0.6,1-0.6,1.4c0,0,0,0,0,0c-0.1,0.1-0.1,0.3-0.2,0.5c-0.1,0.3-0.3,0.6-0.2,0.9c-0.2,0.3,0.1,0.7-0.1,1
		c-0.1,0.4,0.2,0.6,0.5,0.9c0.1,0.2,0.3,0.3,0.5,0.4c1.8,0.8-2.3,0.1-2.1,1.5c-0.6,0.8-1.9,1.7-2.6-3c-0.1-0.8,0.8-1.6-0.4-2
		c-1.3-0.4-1.8,0.6-2.1,1.7c-0.2,0.1-0.4,0.4-0.7,0.6c-0.5,0.5-1,1-1.5,1.6c-0.2,0.2-0.3,0.3-0.4,0.5l0,0c-0.9,1-0.1,1.3,0.8,1.5
		c0.9,0.2,2-0.8,2.9-0.7c0.6,0.1,0.9,0.5,0.7,1.2c-0.7,2.9-4.2-0.6-4.9,4.1c-0.3,2.6,1.6,1.2,2.2,3.3c-3.3,2.9-4.9,3.7-5.7,7.4
		c-0.8,3.7,2.9,9,2.9,9c0.6,0.7,1.3,0.7,1.8,0.3c0.4-0.3,1.6-0.3,1.6-0.3c0.6,0.3,0.8,0,1.6,0c0.8,0,2.1,0.2,2.7,0.3
		c0.6,0.1,0.5-0.3,0.9-0.3c0.7,0,1.3,0,1.3,0s1.8,4,3.8,5.2c1,6-3,6.7-0.6,9.9c2.5,3.3,3.3,6.6,8.2,2.9c2.9-3.3,1.9-7,3.9-6.2
		c0.5,0.2,0.7,0.7,0.8,1.2l0,0c0,0.2,0.1,0.5,0.1,0.7c0,0.2,0.1,0.3,0.2,0.5c0.1,0.2,0.1,0.3,0.2,0.5c0.3,0.6,0.2,1.1,0.9,0.8
		c0.6,0.2,0.8,0.3,0.7-0.3c0.2-0.3,0.6-1.2,0.8-1.7c0-0.1,0-0.2-0.1-0.4c0.6-0.5,1.3-1.2,2.3-2c2.3-2.6-0.7-1.6-2.8-1.4
		c-0.5-0.1-1.3-0.2-1.6-0.6c0-0.1,0-0.2,0.1-0.4c0.3-0.4,1.2-0.8,1-1.7c0.2-0.3,1.8-1.5,2.3-2.1c0.5-0.5,0.9-1.3,1-3.1
		c0.3-0.8,0.6-1.8,0.8-3.1c0.8-4.9,0.4-2.1-3.3-2.1c-1.2-1.2-1.6-6.6-2.9-8.2c1.4-0.7,2.1,1.3,3.2,3.1c0.4,1.9,1.8,3.1,3.3,2.3
		c0.7,0,1.8,0.7,2,0c0.3-0.7,1.2-1.3,1.2-1.3s-0.7-1.2-0.4-2.6c0.3-1.5,0.4-2.9,1.4-2.7c2.1,0.4,3.7,5.7,4.9,7.8
		c0.3,0.5,0.6,0.9,1,1.1c0.8,2.1,1.4,4.2,2.7,4.2c1.5,0,2.1-1.6,0.8-6c-0.4-1.4-1-1.9-1.6-1.9c0-0.1,0-0.2,0-0.3
		c0.3-1.4,4.5-3,4.6-6.3c-0.3-1-0.6-2-0.9-3c-2.8-5-9.5-12.8-17.1-12.9C75.2,36.1,72.6,35.2,73.4,34.9z M70.3,49.8
		c-0.2,1.4-1.5,1.9-2.3,1.1c-1.1-1.4-3.4-0.3-6.4-1.1c-3-3.8-6.3-1.2-6.8-3c6-1.5,7,0.8,7.8,1.1c0.8,0.3,2.2,0.5,3.3,1.2
		C66.9,49.6,70.6,48.4,70.3,49.8z"/>
	<path class="st0" d="M39.5,73.7c-4.9-1.4-9-8-11.6-9.6c0.8,8.3,4.5,15.8,10,21.4c0.5,0.5,1.1,1,1.7,1.5c-0.5-1.4-1.4-2.3-2-3.2
		c-0.6-1.1,2.8-1.9,1.9-3.4C38.6,78.9,40.7,74.5,39.5,73.7z"/>
</g>
</svg>
