<?xml version="1.0" encoding="utf-8"?>
<!-- Generator: Adobe Illustrator 23.0.0, SVG Export Plug-In . SVG Version: 6.00 Build 0)  -->
<svg version="1.1" id="Capa_1" xmlns="http://www.w3.org/2000/svg" xmlns:xlink="http://www.w3.org/1999/xlink" x="0px" y="0px"
	 viewBox="0 0 124.3 120.9" style="enable-background:new 0 0 124.3 120.9;" xml:space="preserve">
<style type="text/css">
	.st0{fill:#FFFFFF;}
</style>
<g>
	<path class="st0" d="M82.1,72.5c0.2,0.3,3.7,3.5,3.7,3.5l-2.4,2.3l5.5,6l-4.6-13.9C84.3,70.3,81.8,72,82.1,72.5z"/>
	<path class="st0" d="M93.5,70.3l-4.6,13.9l5.5-6L92,75.9c0,0,3.5-3.2,3.7-3.5C96,72,93.5,70.3,93.5,70.3z"/>
	<path class="st0" d="M35.7,65.9c-0.3,0-0.7,0-1,0L38,83.4h2.1L42,71.7H42l-1.8-3.2h7l-1.8,3.2h0.1h0l1.8,11.8h2.1l3.3-17.5
		c-0.3,0-0.7,0-1,0H35.7z"/>
	<path class="st0" d="M63.2,4.8C31.9,4.8,6.5,30.2,6.5,61.4s25.4,56.6,56.6,56.6c31.3,0,56.6-25.4,56.6-56.6S94.5,4.8,63.2,4.8z
		 M76.5,54.3c0.4-6.2,5.4-11.2,11.6-11.6c7.2-0.4,13.2,5.3,13.2,12.4l0,0.2h0v6.6c0,2.4,1.3,4.5,3.1,5.2c0.2,0.1,0.1,0.3-0.1,0.3
		H89.6c-0.2,0-0.5,0-0.7,0C81.8,67.4,76.1,61.5,76.5,54.3z M43.8,32c8.5,0,15.4,6.9,15.4,15.4c0,8.5-6.9,15.4-15.4,15.4
		c-8.5,0-15.4-6.9-15.4-15.4C28.4,38.9,35.3,32,43.8,32z M67.2,85.9H20.4v-7c0-8,6.5-14.5,14.5-14.5h17.9c8,0,14.5,6.5,14.5,14.5
		V85.9z M70.1,85.9v-5.6c0-6.4,5.2-11.6,11.6-11.6h14.3c6.4,0,11.6,5.2,11.6,11.6v5.6H70.1z"/>
</g>
</svg>
