<?xml version="1.0" encoding="utf-8"?>
<!-- Generator: Adobe Illustrator 23.0.0, SVG Export Plug-In . SVG Version: 6.00 Build 0)  -->
<svg version="1.1" id="Capa_1" xmlns="http://www.w3.org/2000/svg" xmlns:xlink="http://www.w3.org/1999/xlink" x="0px" y="0px"
	 viewBox="0 0 120.5 43.8" style="enable-background:new 0 0 120.5 43.8;" xml:space="preserve">
<style type="text/css">
	.st0{fill:none;stroke:#FFFFFF;stroke-miterlimit:10;}
	.st1{fill:#FFFFFF;}
	.st2{fill:none;stroke:#FFFFFF;stroke-width:2;stroke-miterlimit:10;}
	.st3{fill:none;stroke:#9D9D9C;stroke-width:4;stroke-miterlimit:10;}
	.st4{fill:none;stroke:#000000;stroke-width:4;stroke-miterlimit:10;}
	.st5{fill:#9D9D9C;}
	.st6{fill:url(#SVGID_1_);}
	.st7{fill:url(#SVGID_2_);}
	.st8{fill:url(#SVGID_3_);}
	.st9{fill:#010202;}
	.st10{fill:url(#SVGID_4_);}
	.st11{opacity:0.2;fill:#FFFFFF;}
	.st12{filter:url(#Adobe_OpacityMaskFilter);}
	.st13{filter:url(#Adobe_OpacityMaskFilter_1_);}
	.st14{fill:url(#SVGID_7_);}
	.st15{fill:url(#SVGID_8_);}
	.st16{fill:url(#SVGID_9_);}
	.st17{filter:url(#Adobe_OpacityMaskFilter_2_);}
	.st18{fill:url(#SVGID_11_);}
	.st19{fill:url(#SVGID_12_);}
	.st20{fill:url(#SVGID_13_);}
	.st21{filter:url(#Adobe_OpacityMaskFilter_3_);}
	.st22{fill:#155F86;}
	.st23{clip-path:url(#SVGID_16_);fill:#FFFFFF;}
	.st24{clip-path:url(#SVGID_16_);fill:#1B6C98;}
	.st25{clip-path:url(#SVGID_16_);fill:#155F86;}
	.st26{fill:#176086;}
	.st27{clip-path:url(#SVGID_18_);fill:url(#SVGID_19_);}
	.st28{clip-path:url(#SVGID_18_);fill:url(#SVGID_20_);}
	.st29{clip-path:url(#SVGID_18_);fill:url(#SVGID_21_);}
	.st30{clip-path:url(#SVGID_18_);fill:url(#SVGID_22_);}
</style>
<g>
	<path d="M111.9,34.6c0,2.6-2.1,4.6-4.6,4.6H11.4c-2.6,0-4.6-2.1-4.6-4.6V9.5c0-2.6,2.1-4.6,4.6-4.6h95.8c2.6,0,4.6,2.1,4.6,4.6
		V34.6z"/>
	<g id="PLAY_2_">
		<defs>
			<path id="SVGID_17_" d="M25.2,19.9l-4.7-2.7c0,0-8.6-5-9.1-5.3c-0.5-0.3-1-0.1-1,0.5c0,1,0,10.6,0,10.6s0,10.4,0,10.9
				c0,0.5,0.4,0.7,0.8,0.4c0.4-0.3,9.4-5.4,9.4-5.4l4.7-2.7c0,0,4-2.3,4.6-2.6c0.5-0.3,0.5-0.7,0-1C29.3,22.4,25.2,19.9,25.2,19.9z"
				/>
		</defs>
		<clipPath id="SVGID_1_">
			<use xlink:href="#SVGID_17_"  style="overflow:visible;"/>
		</clipPath>
		<linearGradient id="SVGID_2_" gradientUnits="userSpaceOnUse" x1="16.1856" y1="11.4322" x2="16.1856" y2="34.7212">
			<stop  offset="0" style="stop-color:#2079B0"/>
			<stop  offset="0.2863" style="stop-color:#4A93B8"/>
			<stop  offset="0.767" style="stop-color:#83BEBF"/>
			<stop  offset="1" style="stop-color:#97CFBF"/>
		</linearGradient>
		<polygon style="clip-path:url(#SVGID_1_);fill:url(#SVGID_2_);" points="10.3,11.4 10.3,23.1 10.3,34.7 22.1,23.1 		"/>
		<linearGradient id="SVGID_3_" gradientUnits="userSpaceOnUse" x1="10.314" y1="17.2118" x2="25.2111" y2="17.2118">
			<stop  offset="0" style="stop-color:#5ABCAB"/>
			<stop  offset="1" style="stop-color:#E6E99A"/>
		</linearGradient>
		<polygon style="clip-path:url(#SVGID_1_);fill:url(#SVGID_3_);" points="25.2,19.9 20.5,17.2 10.3,11.3 10.3,11.4 22.1,23.1 		"/>
		<linearGradient id="SVGID_4_" gradientUnits="userSpaceOnUse" x1="17.7626" y1="23.0763" x2="17.7626" y2="34.8055">
			<stop  offset="0" style="stop-color:#E53432"/>
			<stop  offset="0.1668" style="stop-color:#D73948"/>
			<stop  offset="0.5748" style="stop-color:#B33F72"/>
			<stop  offset="0.8619" style="stop-color:#9A4189"/>
			<stop  offset="1" style="stop-color:#904192"/>
		</linearGradient>
		<polygon style="clip-path:url(#SVGID_1_);fill:url(#SVGID_4_);" points="10.3,34.7 10.3,34.8 20.5,28.9 25.2,26.2 22.1,23.1 		"/>
		<linearGradient id="SVGID_5_" gradientUnits="userSpaceOnUse" x1="26.3427" y1="19.9492" x2="26.3427" y2="26.2043">
			<stop  offset="0" style="stop-color:#F18779"/>
			<stop  offset="0.1194" style="stop-color:#F2917A"/>
			<stop  offset="0.7128" style="stop-color:#FABC77"/>
			<stop  offset="1" style="stop-color:#FDCB73"/>
		</linearGradient>
		<polygon style="clip-path:url(#SVGID_1_);fill:url(#SVGID_5_);" points="25.2,19.9 22.1,23.1 25.2,26.2 30.6,23.1 		"/>
	</g>
	<g>
		<path class="st1" d="M86.4,27.6c-0.4,0-0.8-0.1-1.2-0.2c-0.4-0.2-0.7-0.4-0.9-0.8h-0.1c0,0.4,0.1,0.8,0.1,1.1v2.8h-1v-9.8h0.8
			l0.1,0.9h0c0.3-0.4,0.6-0.6,0.9-0.8c0.3-0.2,0.8-0.2,1.2-0.2c0.9,0,1.6,0.3,2.1,0.9c0.5,0.6,0.7,1.5,0.7,2.6c0,1.1-0.2,2-0.7,2.6
			C88,27.3,87.3,27.6,86.4,27.6z M86.3,21.5c-0.7,0-1.2,0.2-1.5,0.6c-0.3,0.4-0.5,1-0.5,1.8v0.2c0,1,0.2,1.6,0.5,2
			c0.3,0.4,0.8,0.6,1.5,0.6c0.6,0,1-0.2,1.4-0.7c0.3-0.5,0.5-1.1,0.5-2c0-0.8-0.2-1.5-0.5-1.9C87.3,21.7,86.9,21.5,86.3,21.5z"/>
		<path class="st1" d="M91.6,27.5h-1v-9.6h1V27.5z"/>
		<path class="st1" d="M97.5,27.5l-0.2-1h0c-0.3,0.4-0.7,0.7-1,0.9c-0.3,0.2-0.8,0.2-1.3,0.2c-0.7,0-1.2-0.2-1.6-0.5
			c-0.4-0.3-0.6-0.8-0.6-1.5c0-1.4,1.1-2.1,3.3-2.2l1.1,0V23c0-0.5-0.1-0.9-0.3-1.2c-0.2-0.3-0.6-0.4-1.1-0.4
			c-0.6,0-1.2,0.2-1.9,0.5l-0.3-0.8c0.3-0.2,0.7-0.3,1.1-0.4c0.4-0.1,0.8-0.2,1.2-0.2c0.8,0,1.4,0.2,1.8,0.5
			c0.4,0.4,0.6,0.9,0.6,1.7v4.6H97.5z M95.2,26.8c0.6,0,1.1-0.2,1.5-0.5c0.4-0.4,0.5-0.8,0.5-1.5v-0.6l-1,0c-0.8,0-1.4,0.2-1.8,0.4
			c-0.4,0.2-0.5,0.6-0.5,1c0,0.4,0.1,0.7,0.3,0.8C94.5,26.7,94.8,26.8,95.2,26.8z"/>
		<path class="st1" d="M98.9,20.7h1.1l1.5,3.9c0.3,0.9,0.5,1.5,0.6,1.9h0c0.1-0.2,0.2-0.6,0.3-1.1c0.2-0.5,0.7-2.1,1.7-4.7h1.1
			l-2.9,7.7c-0.3,0.8-0.6,1.3-1,1.6c-0.4,0.3-0.9,0.5-1.4,0.5c-0.3,0-0.6,0-0.9-0.1v-0.8c0.2,0,0.5,0.1,0.8,0.1
			c0.7,0,1.2-0.4,1.5-1.2l0.4-1L98.9,20.7z"/>
	</g>
	<g>
		<path class="st1" d="M67.4,21.4c0.3,0.3,1,0.8,1,1.9c0,1-0.6,1.5-1.2,2c-0.2,0.2-0.4,0.4-0.4,0.7c0,0.3,0.2,0.5,0.4,0.6l0.5,0.4
			c0.6,0.5,1.2,1,1.2,2c0,1.3-1.3,2.7-3.7,2.7c-2.1,0-3-1-3-2c0-0.5,0.3-1.2,1.1-1.7c0.9-0.5,2.1-0.6,2.7-0.7
			c-0.2-0.3-0.4-0.5-0.4-1c0-0.2,0.1-0.4,0.1-0.6c-0.2,0-0.3,0-0.5,0c-1.5,0-2.4-1.1-2.4-2.2c0-0.7,0.3-1.4,0.9-1.9
			c0.8-0.7,1.8-0.8,2.5-0.8h2.9l-0.9,0.5H67.4z M66.4,27.7c-0.1,0-0.2,0-0.3,0c-0.1,0-0.9,0-1.5,0.2c-0.3,0.1-1.2,0.5-1.2,1.5
			c0,1,1,1.7,2.5,1.7c1.4,0,2.1-0.7,2.1-1.5C68,28.8,67.5,28.4,66.4,27.7z M66.8,25c0.3-0.3,0.4-0.8,0.4-1c0-1-0.6-2.6-1.8-2.6
			c-0.4,0-0.8,0.2-1,0.5c-0.2,0.3-0.3,0.7-0.3,1c0,0.9,0.6,2.5,1.8,2.5C66.2,25.4,66.6,25.2,66.8,25z"/>
		<path class="st1" d="M58.5,27.4c-2.2,0-3.5-1.8-3.5-3.3c0-1.9,1.5-3.4,3.7-3.4c2.1,0,3.4,1.6,3.4,3.3
			C62.1,25.7,60.8,27.4,58.5,27.4z M60.3,26.3c0.3-0.5,0.4-1,0.4-1.6c0-1.2-0.6-3.6-2.3-3.6c-0.5,0-0.9,0.2-1.3,0.5
			c-0.6,0.5-0.7,1.1-0.7,1.7c0,1.4,0.7,3.7,2.4,3.7C59.4,27,60,26.7,60.3,26.3z"/>
		<path class="st1" d="M50.8,27.4c-2.2,0-3.5-1.8-3.5-3.3c0-1.9,1.5-3.4,3.7-3.4c2.1,0,3.4,1.6,3.4,3.3
			C54.4,25.7,53.1,27.4,50.8,27.4z M52.6,26.3c0.3-0.5,0.4-1,0.4-1.6c0-1.2-0.6-3.6-2.3-3.6c-0.5,0-0.9,0.2-1.3,0.5
			c-0.6,0.5-0.7,1.1-0.7,1.7c0,1.4,0.7,3.7,2.4,3.7C51.7,27,52.3,26.7,52.6,26.3z"/>
		<path class="st1" d="M46.3,27.2l-2,0.5c-0.8,0.1-1.6,0.2-2.3,0.2c-3.9,0-5.4-2.9-5.4-5.1c0-2.8,2.1-5.3,5.7-5.3
			c0.8,0,1.5,0.1,2.2,0.3c1.1,0.3,1.6,0.7,1.9,0.9l-1.2,1.1l-0.5,0.1l0.4-0.6c-0.5-0.5-1.4-1.3-3-1.3c-2.2,0-3.9,1.7-3.9,4.2
			c0,2.7,1.9,5.2,5,5.2c0.9,0,1.4-0.2,1.8-0.4v-2.3l-2.1,0.1l1.1-0.6h3l-0.4,0.4c-0.1,0.1-0.1,0.1-0.1,0.2c0,0.1,0,0.5,0,0.7V27.2z"
			/>
		<path class="st1" d="M71.9,26.8c-0.5,0-0.6-0.1-0.6-0.7V26v-7.9c0,0,0-0.1,0-0.1c0.1-0.5,0.2-0.6,0.6-0.8h-2l-1.1,0.5H70v0v0V26
			v0.5c0,0.3-0.1,0.3-0.4,0.8h2.5l0.5-0.3C72.4,26.8,72.2,26.8,71.9,26.8z"/>
		<path class="st1" d="M77.7,26.9c-0.2,0.1-0.3,0.2-0.5,0.3c-0.5,0.2-0.9,0.3-1.4,0.3c-0.5,0-1.2,0-1.9-0.6c-1-0.7-1.4-1.9-1.4-3
			c0-2.2,1.8-3.3,3.2-3.3c0.5,0,1,0.1,1.5,0.4c0.7,0.5,0.9,1.1,1,1.4l-3.3,1.3l-1.1,0.1c0.4,1.8,1.6,2.8,2.9,2.8
			c0.7,0,1.2-0.3,1.7-0.5L77.7,26.9z M76.4,22.7c0.3-0.1,0.4-0.2,0.4-0.4c0-0.6-0.6-1.2-1.4-1.2c-0.6,0-1.6,0.4-1.6,2
			c0,0.2,0,0.5,0,0.7L76.4,22.7z"/>
		<g>
			<path class="st1" d="M79.1,20.8v0.9H79v-0.9h-0.3v-0.1h0.7v0.1H79.1z"/>
			<path class="st1" d="M80.3,21.7v-0.9h0L80,21.7H80l-0.3-0.9h0v0.9h-0.1v-1h0.2l0.3,0.8h0l0.3-0.8h0.2v1H80.3z"/>
		</g>
	</g>
	<g>
		<path class="st1" d="M39.3,14.7h-0.7c0-0.1-0.1-0.4-0.2-0.8h-1c-0.1,0.4-0.2,0.7-0.2,0.8h-0.7c0-0.1,0.2-0.5,0.5-1.4
			c0.3-0.9,0.5-1.4,0.5-1.5h0.8c0,0.1,0.2,0.6,0.5,1.4C39.2,14.1,39.3,14.6,39.3,14.7z M38.3,13.4c-0.3-0.8-0.4-1.2-0.4-1.2h0
			c0,0.1-0.1,0.5-0.4,1.2H38.3z"/>
		<path class="st1" d="M42.2,14.7h-0.5c0-0.1-0.2-0.4-0.6-1c-0.4-0.6-0.7-1-0.7-1.2h0c0,0.3,0.1,0.6,0.1,0.9c0,0.4,0,0.8,0,1.3h-0.5
			c0-0.5,0-1,0-1.5c0-0.5,0-1,0-1.4h0.7c0,0.1,0.2,0.4,0.5,0.9c0.4,0.6,0.6,1,0.7,1.2h0c0-0.3-0.1-0.6-0.1-0.9c0-0.4,0-0.8,0-1.2
			h0.6c0,0.4,0,0.8,0,1.4C42.2,13.7,42.2,14.2,42.2,14.7z"/>
		<path class="st1" d="M45.4,13.1c0,0.4-0.1,0.8-0.4,1.1c-0.3,0.3-0.6,0.5-1.1,0.5c-0.2,0-0.5,0-0.9,0c0-0.4,0-0.9,0-1.5
			c0-0.5,0-1,0-1.4h0.4c0.1,0,0.2,0,0.3,0c0.1,0,0.2,0,0.2,0c0.5,0,0.9,0.1,1.2,0.4C45.3,12.5,45.4,12.8,45.4,13.1z M44.8,13.2
			c0-0.3-0.1-0.5-0.2-0.7c-0.2-0.2-0.4-0.3-0.8-0.3c-0.1,0-0.2,0-0.3,0c0,0.3,0,0.6,0,0.9c0,0.4,0,0.7,0,1c0.1,0,0.2,0,0.3,0
			c0.3,0,0.6-0.1,0.7-0.3C44.7,13.8,44.8,13.5,44.8,13.2z"/>
		<path class="st1" d="M48.3,14.7h-0.7c-0.2-0.5-0.3-0.8-0.4-1c-0.1-0.1-0.2-0.2-0.4-0.2c-0.1,0-0.2,0-0.2,0c0,0.4,0,0.8,0,1.1H46
			c0-0.4,0-0.9,0-1.5c0-0.5,0-1,0-1.4h0.4c0,0,0.1,0,0.3,0c0.1,0,0.3,0,0.4,0c0.7,0,1,0.2,1,0.7c0,0.4-0.2,0.6-0.6,0.8v0
			c0.1,0,0.3,0.2,0.4,0.3C48,13.8,48.1,14.2,48.3,14.7z M47.5,12.6c0-0.3-0.2-0.4-0.6-0.4c-0.1,0-0.3,0-0.4,0c0,0.2,0,0.5,0,0.9
			c0.1,0,0.1,0,0.2,0C47.3,13.1,47.5,13,47.5,12.6z"/>
		<path class="st1" d="M51.5,13.2c0,0.5-0.1,0.8-0.4,1.1c-0.3,0.3-0.6,0.4-1,0.4c-0.4,0-0.7-0.1-1-0.4c-0.3-0.3-0.4-0.6-0.4-1
			c0-0.5,0.1-0.8,0.4-1.1c0.3-0.3,0.6-0.4,1-0.4c0.4,0,0.7,0.1,1,0.4C51.4,12.4,51.5,12.8,51.5,13.2z M50.9,13.3
			c0-0.3-0.1-0.6-0.2-0.7c-0.2-0.2-0.4-0.3-0.6-0.3c-0.2,0-0.4,0.1-0.5,0.3c-0.2,0.2-0.2,0.4-0.2,0.7c0,0.3,0.1,0.6,0.2,0.7
			c0.2,0.2,0.4,0.3,0.6,0.3c0.2,0,0.4-0.1,0.5-0.3C50.8,13.8,50.9,13.5,50.9,13.3z"/>
		<path class="st1" d="M52.8,14.7h-0.6c0-0.5,0-1,0-1.5c0-0.5,0-1,0-1.4h0.6c0,0.4,0,0.8,0,1.4C52.7,13.7,52.7,14.2,52.8,14.7z"/>
		<path class="st1" d="M56,13.1c0,0.4-0.1,0.8-0.4,1.1c-0.3,0.3-0.6,0.5-1.1,0.5c-0.2,0-0.5,0-0.9,0c0-0.4,0-0.9,0-1.5
			c0-0.5,0-1,0-1.4h0.4c0.1,0,0.2,0,0.3,0c0.1,0,0.2,0,0.2,0c0.5,0,0.9,0.1,1.2,0.4C55.8,12.5,56,12.8,56,13.1z M55.3,13.2
			c0-0.3-0.1-0.5-0.2-0.7c-0.2-0.2-0.4-0.3-0.8-0.3c-0.1,0-0.1,0-0.3,0c0,0.3,0,0.6,0,0.9c0,0.4,0,0.7,0,1c0.1,0,0.2,0,0.3,0
			c0.3,0,0.6-0.1,0.7-0.3C55.3,13.8,55.3,13.5,55.3,13.2z"/>
		<path class="st1" d="M60.2,14.7h-0.7c0-0.1-0.1-0.4-0.2-0.8h-1c-0.1,0.4-0.2,0.7-0.2,0.8h-0.7c0-0.1,0.2-0.5,0.5-1.4
			c0.3-0.9,0.5-1.4,0.5-1.5h0.8c0,0.1,0.2,0.6,0.5,1.4C60,14.1,60.2,14.6,60.2,14.7z M59.2,13.4c-0.3-0.8-0.4-1.2-0.4-1.2h0
			c0,0.1-0.1,0.5-0.4,1.2H59.2z"/>
		<path class="st1" d="M62.8,12.6c0,0.4-0.1,0.6-0.4,0.8c-0.3,0.2-0.6,0.3-1,0.3c-0.1,0-0.1,0-0.1,0c0,0.3,0,0.6,0,1.1h-0.6
			c0-0.4,0-0.9,0-1.5c0-0.5,0-1,0-1.4h0.4c0.1,0,0.2,0,0.3,0c0.2,0,0.3,0,0.4,0c0.3,0,0.5,0.1,0.7,0.2
			C62.7,12.1,62.8,12.3,62.8,12.6z M62.2,12.7c0-0.3-0.2-0.5-0.6-0.5c-0.1,0-0.2,0-0.3,0c0,0.3,0,0.6,0,0.9c0,0,0.1,0,0.1,0
			C61.9,13.2,62.2,13,62.2,12.7z"/>
		<path class="st1" d="M65.4,12.6c0,0.4-0.1,0.6-0.4,0.8c-0.3,0.2-0.6,0.3-1,0.3c-0.1,0-0.1,0-0.1,0c0,0.3,0,0.6,0,1.1h-0.6
			c0-0.4,0-0.9,0-1.5c0-0.5,0-1,0-1.4h0.4c0.1,0,0.2,0,0.3,0c0.2,0,0.3,0,0.4,0c0.3,0,0.5,0.1,0.7,0.2
			C65.3,12.1,65.4,12.3,65.4,12.6z M64.9,12.7c0-0.3-0.2-0.5-0.6-0.5c-0.1,0-0.2,0-0.3,0c0,0.3,0,0.6,0,0.9c0,0,0.1,0,0.1,0
			C64.6,13.2,64.9,13,64.9,12.7z"/>
		<path class="st1" d="M69.7,13.2c0,0.5-0.1,0.8-0.4,1.1c-0.3,0.3-0.6,0.4-1,0.4c-0.4,0-0.7-0.1-1-0.4c-0.3-0.3-0.4-0.6-0.4-1
			c0-0.5,0.1-0.8,0.4-1.1c0.3-0.3,0.6-0.4,1-0.4c0.4,0,0.7,0.1,1,0.4C69.6,12.4,69.7,12.8,69.7,13.2z M69.1,13.3
			c0-0.3-0.1-0.6-0.2-0.7c-0.2-0.2-0.4-0.3-0.6-0.3c-0.2,0-0.4,0.1-0.5,0.3c-0.2,0.2-0.2,0.4-0.2,0.7c0,0.3,0.1,0.6,0.2,0.7
			c0.2,0.2,0.4,0.3,0.6,0.3c0.2,0,0.4-0.1,0.5-0.3C69.1,13.8,69.1,13.5,69.1,13.3z"/>
		<path class="st1" d="M72.7,14.7h-0.5c0-0.1-0.2-0.4-0.6-1c-0.4-0.6-0.7-1-0.7-1.2h0c0,0.3,0.1,0.6,0.1,0.9c0,0.4,0,0.8,0,1.3h-0.5
			c0-0.5,0-1,0-1.5c0-0.5,0-1,0-1.4H71c0,0.1,0.2,0.4,0.5,0.9c0.4,0.6,0.6,1,0.7,1.2h0c0-0.3-0.1-0.6-0.1-0.9c0-0.4,0-0.8,0-1.2h0.6
			c0,0.4,0,0.8,0,1.4C72.7,13.7,72.7,14.2,72.7,14.7z"/>
	</g>
</g>
</svg>
