<?xml version="1.0" encoding="utf-8"?>
<!-- Generator: Adobe Illustrator 23.0.0, SVG Export Plug-In . SVG Version: 6.00 Build 0)  -->
<svg version="1.1" id="Capa_1" xmlns="http://www.w3.org/2000/svg" xmlns:xlink="http://www.w3.org/1999/xlink" x="0px" y="0px"
	 viewBox="0 0 104.1 95.4" style="enable-background:new 0 0 104.1 95.4;" xml:space="preserve">
<style type="text/css">
	.st0{fill-rule:evenodd;clip-rule:evenodd;fill:#155F86;}
	.st1{fill:#FFFFFF;}
	.st2{fill:#155F86;}
	.st3{fill:#D4D4D5;}
	.st4{fill:#0E9FDB;}
	.st5{fill:#065F87;}
	.st6{fill:none;stroke:#FFFFFF;stroke-miterlimit:10;}
	.st7{fill:none;stroke:#155F86;stroke-width:3;stroke-miterlimit:10;}
	.st8{fill:none;stroke:#FFFFFF;stroke-width:2;stroke-miterlimit:10;}
	.st9{fill:none;stroke:#9D9D9C;stroke-width:4;stroke-miterlimit:10;}
	.st10{fill:none;stroke:#000000;stroke-width:4;stroke-miterlimit:10;}
	.st11{fill:#9D9D9C;}
	.st12{fill:url(#SVGID_1_);}
	.st13{fill:url(#SVGID_2_);}
	.st14{fill:url(#SVGID_3_);}
	.st15{fill:#010202;}
	.st16{fill:url(#SVGID_4_);}
	.st17{opacity:0.2;fill:#FFFFFF;}
	.st18{filter:url(#Adobe_OpacityMaskFilter);}
	.st19{filter:url(#Adobe_OpacityMaskFilter_1_);}
	.st20{fill:url(#SVGID_7_);}
	.st21{fill:url(#SVGID_8_);}
	.st22{fill:url(#SVGID_9_);}
	.st23{filter:url(#Adobe_OpacityMaskFilter_2_);}
	.st24{fill:url(#SVGID_11_);}
	.st25{fill:url(#SVGID_12_);}
	.st26{fill:url(#SVGID_13_);}
	.st27{filter:url(#Adobe_OpacityMaskFilter_3_);}
	.st28{clip-path:url(#SVGID_16_);fill:#FFFFFF;}
	.st29{clip-path:url(#SVGID_16_);fill:#1B6C98;}
	.st30{clip-path:url(#SVGID_16_);fill:#155F86;}
	.st31{fill:#176086;}
	.st32{clip-path:url(#SVGID_18_);fill:url(#SVGID_19_);}
	.st33{clip-path:url(#SVGID_18_);fill:url(#SVGID_20_);}
	.st34{clip-path:url(#SVGID_18_);fill:url(#SVGID_21_);}
	.st35{clip-path:url(#SVGID_18_);fill:url(#SVGID_22_);}
	.st36{fill:#EFEEEE;}
	.st37{clip-path:url(#SVGID_24_);fill:url(#SVGID_25_);}
	.st38{clip-path:url(#SVGID_24_);fill:url(#SVGID_26_);}
	.st39{clip-path:url(#SVGID_24_);fill:url(#SVGID_27_);}
	.st40{clip-path:url(#SVGID_24_);fill:url(#SVGID_28_);}
	.st41{fill:#0B5F87;}
	.st42{fill:#ECECEC;}
	.st43{fill:#106086;}
	.st44{fill-rule:evenodd;clip-rule:evenodd;fill:#FFFFFF;}
	.st45{fill:#FFFFFF;stroke:#FFFFFF;stroke-miterlimit:10;}
	.st46{fill:none;stroke:#155F86;stroke-width:5;stroke-miterlimit:10;}
	.st47{fill:none;stroke:#155F86;stroke-width:2;stroke-miterlimit:10;}
	.st48{fill:#D7D7D7;}
	.st49{fill:#5B9DD5;}
	.st50{fill:#195F86;}
	.st51{clip-path:url(#SVGID_30_);fill:#195F86;}
	.st52{clip-path:url(#SVGID_30_);fill-rule:evenodd;clip-rule:evenodd;fill:#195F86;}
	.st53{clip-path:url(#SVGID_30_);fill:#1B6187;}
	.st54{clip-path:url(#SVGID_32_);fill:#FFFFFF;}
	.st55{clip-path:url(#SVGID_32_);fill:#1B6C98;}
	.st56{clip-path:url(#SVGID_32_);fill:#155F86;}
	.st57{clip-path:url(#SVGID_34_);fill:#324689;}
	.st58{clip-path:url(#SVGID_34_);fill:#FFFFFF;}
	.st59{clip-path:url(#SVGID_34_);fill:#9F1831;}
	.st60{clip-path:url(#SVGID_36_);fill:#DC1F38;}
	.st61{clip-path:url(#SVGID_36_);fill:#FFFFFF;}
	.st62{clip-path:url(#SVGID_36_);fill:#253062;}
	.st63{clip-path:url(#SVGID_38_);fill:#020203;}
	.st64{clip-path:url(#SVGID_38_);fill:#FFEA37;}
	.st65{clip-path:url(#SVGID_38_);fill:#E62A2F;}
	.st66{clip-path:url(#SVGID_40_);fill:#344093;}
	.st67{clip-path:url(#SVGID_40_);fill:#F4F3F4;}
	.st68{clip-path:url(#SVGID_40_);fill:#D80D33;}
	.st69{clip-path:url(#SVGID_42_);fill:#3D9348;}
	.st70{clip-path:url(#SVGID_42_);fill:#FFFFFF;}
	.st71{clip-path:url(#SVGID_42_);fill:#D80D33;}
	.st72{clip-path:url(#SVGID_44_);fill:#409A63;}
	.st73{clip-path:url(#SVGID_44_);fill:#FFFFFF;}
	.st74{clip-path:url(#SVGID_44_);fill:#EF7F46;}
	.st75{clip-path:url(#SVGID_46_);}
	.st76{clip-path:url(#SVGID_48_);fill:#B6182E;}
	.st77{clip-path:url(#SVGID_48_);fill:#F4C328;}
	.st78{clip-path:url(#SVGID_50_);}
	.st79{clip-path:url(#SVGID_52_);fill:#B6182E;}
	.st80{clip-path:url(#SVGID_52_);fill:#F4C328;}
	.st81{clip-path:url(#SVGID_54_);fill:#020203;}
	.st82{clip-path:url(#SVGID_54_);fill:#E10720;}
	.st83{clip-path:url(#SVGID_54_);fill:#F7D92A;}
	.st84{clip-path:url(#SVGID_54_);}
	.st85{clip-path:url(#SVGID_58_);fill:#C71621;}
	.st86{clip-path:url(#SVGID_58_);fill:#FFFFFF;}
	.st87{clip-path:url(#SVGID_60_);fill:#FFFFFF;}
	.st88{clip-path:url(#SVGID_60_);fill:#5CB34F;}
	.st89{clip-path:url(#SVGID_60_);fill:#C51D25;}
	.st90{clip-path:url(#SVGID_62_);fill:#C4162B;}
	.st91{clip-path:url(#SVGID_62_);fill:#FFFFFF;}
	.st92{clip-path:url(#SVGID_62_);fill:#2A457C;}
	.st93{clip-path:url(#SVGID_64_);fill:#283374;}
	.st94{clip-path:url(#SVGID_64_);fill:#F3D131;}
	.st95{clip-path:url(#SVGID_64_);fill:#BC1733;}
	.st96{clip-path:url(#SVGID_66_);fill:#FFFFFF;}
	.st97{clip-path:url(#SVGID_66_);fill:#D80D33;}
	.st98{clip-path:url(#SVGID_68_);fill:#BC1733;}
	.st99{clip-path:url(#SVGID_68_);fill:#FFFFFF;}
	.st100{clip-path:url(#SVGID_68_);fill:#3D9348;}
	.st101{clip-path:url(#SVGID_70_);fill:#BF153D;}
	.st102{clip-path:url(#SVGID_70_);fill:#FFFFFF;}
	.st103{clip-path:url(#SVGID_72_);fill:#FFFFFF;}
	.st104{clip-path:url(#SVGID_72_);fill:#E53734;}
	.st105{clip-path:url(#SVGID_72_);}
	.st106{clip-path:url(#SVGID_76_);fill:#FFFFFF;}
	.st107{clip-path:url(#SVGID_76_);fill:#E41224;}
	.st108{clip-path:url(#SVGID_76_);fill:#3E58A4;}
	.st109{clip-path:url(#SVGID_76_);}
	.st110{clip-path:url(#SVGID_78_);fill:#E41224;}
	.st111{clip-path:url(#SVGID_78_);fill:#3E58A4;}
	.st112{clip-path:url(#SVGID_78_);fill:#F8E72A;}
	.st113{clip-path:url(#SVGID_78_);fill:#FFFFFF;}
	.st114{clip-path:url(#SVGID_80_);fill:#FFFFFF;}
	.st115{clip-path:url(#SVGID_80_);fill:#2C3F92;}
	.st116{clip-path:url(#SVGID_80_);fill:#BC1733;}
	.st117{clip-path:url(#SVGID_80_);}
	.st118{clip-path:url(#SVGID_82_);fill:#FFFFFF;}
	.st119{clip-path:url(#SVGID_82_);fill:#BC1733;}
	.st120{clip-path:url(#SVGID_82_);fill:#2C3F92;}
	.st121{clip-path:url(#SVGID_84_);fill:#E41224;}
	.st122{clip-path:url(#SVGID_84_);fill:#2C692D;}
	.st123{clip-path:url(#SVGID_84_);}
	.st124{clip-path:url(#SVGID_86_);fill:#F1E623;}
	.st125{clip-path:url(#SVGID_86_);}
	.st126{fill:#020203;}
	.st127{fill:none;}
	.st128{clip-path:url(#SVGID_86_);fill:#020203;}
	.st129{fill:#E41224;}
	.st130{clip-path:url(#SVGID_86_);fill:#FFFFFF;}
	.st131{clip-path:url(#SVGID_86_);fill:#E41224;}
	.st132{clip-path:url(#SVGID_86_);fill:#2B307A;}
	.st133{clip-path:url(#SVGID_88_);fill:#FFFFFF;}
	.st134{clip-path:url(#SVGID_88_);fill:#BE1637;}
	.st135{clip-path:url(#SVGID_88_);fill:#293270;}
	.st136{opacity:0.2;fill:#0E9FDB;}
</style>
<circle class="st2" cx="52.7" cy="48.2" r="44.7"/>
<g>
	<path class="st44" d="M59.3,54.2c-0.7-0.2-1.4-1-1.6-1.9c-0.1-0.5,0-0.9,0.8-2.3c3-5.9,4.4-11.3,4.4-17.8c0-6.3-1.2-11.3-4.1-17.2
		c-0.6-1.3-1.1-2.4-1.1-2.6c0-0.6,0.5-1.5,1.1-1.9c0.8-0.5,2.1-0.4,2.7,0.2c0.2,0.2,0.9,1.3,1.4,2.3c2.1,4.1,3.5,8.6,4.2,13.2
		c0.4,2.9,0.5,8.3,0.2,11c-0.6,4.9-1.9,9.2-4,13.5c-1.2,2.6-2,3.6-2.7,3.6c-0.1,0-0.3,0-0.5,0.1C60,54.4,59.6,54.3,59.3,54.2
		L59.3,54.2L59.3,54.2z M50.9,49.8c-1.1-0.3-1.9-1.7-1.6-2.7c0.1-0.2,0.6-1.4,1.1-2.5c2.3-4.7,3.3-9.8,2.8-14.8
		c-0.4-4.1-1.1-6.7-3-10.5c-1.2-2.5-1.3-2.9-0.6-4c0.7-1,2.4-1.1,3.3-0.3c0.6,0.6,2.6,4.6,3.3,6.9c2.5,7.6,2.1,15.8-1.1,23.2
		C53.6,49.1,52.5,50.3,50.9,49.8L50.9,49.8z M42.2,45.3c-0.7-0.3-1.3-1-1.4-1.7c-0.1-0.4,0.1-0.9,0.9-2.5c2.9-5.9,3-11.6,0.1-17.4
		c-1.3-2.5-1.3-3.1-0.2-4.1C42,19.1,42.2,19,43,19c1.2,0,1.9,0.6,3,2.9c1.7,3.5,2.4,6.5,2.4,10.4c0,4-0.7,6.7-2.5,10.4
		c-1,2.1-1.6,2.7-2.6,2.8C43,45.5,42.5,45.4,42.2,45.3L42.2,45.3L42.2,45.3z M34,41.1c-0.5-0.2-1.1-0.9-1.3-1.6
		c-0.2-0.7,0-1.3,0.8-2.6c1-1.7,1.3-2.6,1.3-4.8c0-2.2-0.2-3.1-1.3-4.8c-0.3-0.6-0.7-1.3-0.8-1.5c-0.3-1.1,0.6-2.5,1.8-2.7
		c1.1-0.2,1.8,0.3,2.8,1.8c2.8,4.4,2.8,10.3,0,14.6C36.3,41.1,35.2,41.6,34,41.1L34,41.1L34,41.1z"/>
</g>
<g id="g_20_">
	<g id="g_21_">
		<path id="s_58_" class="st1" d="M29.7,78.6c0,0.2,0.1,0.4,0.3,0.5c0.2,0.1,0.4,0.2,0.6,0.2h5.3c0-0.6,0.1-1.2,0.4-1.7h-6.6V78.6z"
			/>
		<path id="s_57_" class="st1" d="M46.4,79.3h14.2c0-0.6,0.1-1.2,0.4-1.7H46C46.3,78.1,46.4,78.7,46.4,79.3z"/>
		<path id="s_56_" class="st1" d="M75.5,64.9c-1.5-1.2-3.3-2.3-5.2-2.5c-1.8-0.2-5.4-0.2-5.4-0.2v12.8c0.3,0,0.6-0.1,0.9-0.1
			c2.9,0,5.2,2,5.2,4.5h4.4c0.6,0,1.1-0.2,1.5-0.5c0.4-0.4,0.6-0.8,0.6-1.3v-8.1C77.7,67.7,77,66.1,75.5,64.9z M76.2,70.9
			c0,0.2-0.1,0.4-0.3,0.5c-0.2,0.1-0.4,0.2-0.6,0.1l-7.8-1.3c-0.2,0-0.3-0.1-0.4-0.2c-0.1-0.1-0.2-0.3-0.2-0.4v-5.7
			c0,0,2.6,0,3.9,0.2c1.3,0.2,2.7,1,3.8,1.9c1.1,0.9,1.6,2.1,1.6,3.3V70.9z"/>
		<path id="s_55_" class="st1" d="M44.9,77.2c-0.1-0.1-0.1-0.2-0.2-0.2c-0.8-0.9-2.1-1.4-3.5-1.4c-1.4,0-2.7,0.6-3.5,1.4
			c-0.1,0.1-0.1,0.2-0.2,0.2c-0.1,0.1-0.2,0.3-0.3,0.4c-0.3,0.5-0.5,1.1-0.5,1.7c0,2.1,2,3.8,4.5,3.8c2.5,0,4.5-1.7,4.5-3.8
			c0-0.6-0.2-1.2-0.5-1.7C45.1,77.4,45,77.3,44.9,77.2z M41.2,81.3c-1.3,0-2.3-0.9-2.3-2c0-0.7,0.5-1.4,1.2-1.7
			c0.3-0.2,0.7-0.3,1.2-0.3c0.4,0,0.8,0.1,1.2,0.3c0.7,0.3,1.2,1,1.2,1.7C43.5,80.4,42.4,81.3,41.2,81.3z"/>
		<path id="s_54_" class="st1" d="M65.9,75.5c-0.3,0-0.6,0-0.9,0.1c-0.4,0.1-0.7,0.2-1,0.3c-0.7,0.3-1.4,0.8-1.8,1.3
			c-0.5,0.6-0.8,1.3-0.8,2.1c0,2.1,2,3.8,4.5,3.8c2.5,0,4.5-1.7,4.5-3.8C70.3,77.2,68.3,75.5,65.9,75.5z M65.9,81.3
			c-1.3,0-2.3-0.9-2.3-2c0-0.4,0.2-0.8,0.4-1.1c0.3-0.3,0.6-0.6,1-0.7c0.3-0.1,0.6-0.1,0.9-0.1c1.3,0,2.3,0.9,2.3,2
			S67.1,81.3,65.9,81.3z"/>
		<g>
			<rect x="29.7" y="57.4" class="st1" width="34.3" height="1.7"/>
			<path class="st1" d="M64,75.1c-1.1,0.4-1.9,1-2.5,1.8H45.6c-0.9-1.3-2.6-2.1-4.4-2.1c-1.9,0-3.5,0.8-4.4,2.1h-7.1V59.6H64V75.1z"
				/>
		</g>
	</g>
</g>
</svg>
