<?xml version="1.0" encoding="utf-8"?>
<!-- Generator: Adobe Illustrator 23.0.0, SVG Export Plug-In . SVG Version: 6.00 Build 0)  -->
<svg version="1.1" id="Capa_1" xmlns="http://www.w3.org/2000/svg" xmlns:xlink="http://www.w3.org/1999/xlink" x="0px" y="0px"
	 viewBox="0 0 38.8 39.4" style="enable-background:new 0 0 38.8 39.4;" xml:space="preserve">
<style type="text/css">
	.st0{fill:#FFFFFF;}
</style>
<g>
	<path class="st0" d="M19.4,3.6C10.4,3.6,3,10.9,3,20c0,9,7.3,16.4,16.4,16.4c9,0,16.4-7.3,16.4-16.4S28.4,3.6,19.4,3.6z M30.4,23.8
		c-2,2-4,4-6,6C24.3,29.9,24.1,30,24,30c-1.2,0-2.4,0-3.6,0c-0.2,0-0.4,0.1-0.6,0.2c-0.8,0.8-1.6,1.6-2.4,2.4
		c-0.1,0.1-0.2,0.2-0.3,0.2c-1.1,0-2.2,0-3.2,0c0,0,0,0-0.1,0c0-0.9,0-1.8,0-2.8c-1.9,0-3.7,0-5.6,0c0-0.1,0-0.2,0-0.3
		c0-5.2,0-10.4,0-15.6c0-0.2,0-0.3,0.1-0.5c0.4-1.3,0.8-2.5,1.2-3.8c0.1-0.2,0.1-0.2,0.3-0.2c6.9,0,13.7,0,20.6,0c0.1,0,0.1,0,0.2,0
		c0,0.1,0,0.2,0,0.3c0,4.5,0,9,0,13.5C30.6,23.5,30.6,23.6,30.4,23.8z"/>
	<path class="st0" d="M28.5,11.7c-5.6,0-11.2,0-16.9,0c0,4.9,0,9.8,0,14.8c1.6,0,3.3,0,4.9,0c0,0.9,0,1.8,0,2.8
		c0.1-0.1,0.1-0.1,0.2-0.2c0.8-0.8,1.7-1.7,2.5-2.5c0.1-0.1,0.2-0.2,0.4-0.2c1.7,0,3.4,0,5.2,0c0.1,0,0.3-0.1,0.4-0.2
		c1.1-1.1,2.1-2.1,3.2-3.2c0.1-0.1,0.2-0.2,0.2-0.4c0-3.6,0-7.2,0-10.8C28.5,11.8,28.5,11.7,28.5,11.7z M19.4,22.2
		c-0.7,0-1.4,0-2.1,0c0-2.1,0-4.1,0-6.2c0.7,0,1.4,0,2.1,0C19.4,18,19.4,20.1,19.4,22.2z M25,22.2c-0.7,0-1.4,0-2,0
		c0-2.1,0-4.2,0-6.3c0.7,0,1.4,0,2,0C25,18,25,20.1,25,22.2z"/>
</g>
</svg>
