<?xml version="1.0" encoding="utf-8"?>
<!-- Generator: Adobe Illustrator 23.0.0, SVG Export Plug-In . SVG Version: 6.00 Build 0)  -->
<svg version="1.1" id="Capa_1" xmlns="http://www.w3.org/2000/svg" xmlns:xlink="http://www.w3.org/1999/xlink" x="0px" y="0px"
	 viewBox="0 0 198.4 198.4" style="enable-background:new 0 0 198.4 198.4;" xml:space="preserve">
<style type="text/css">
	.st0{fill:#155F86;}
	.st1{fill:#D4D4D5;}
	.st2{fill:#0E9FDB;}
	.st3{fill:#FFFFFF;}
	.st4{fill:#065F87;}
	.st5{fill:none;stroke:#FFFFFF;stroke-miterlimit:10;}
	.st6{fill:none;stroke:#155F86;stroke-width:3;stroke-miterlimit:10;}
	.st7{fill:none;stroke:#FFFFFF;stroke-width:2;stroke-miterlimit:10;}
	.st8{fill:none;stroke:#9D9D9C;stroke-width:4;stroke-miterlimit:10;}
	.st9{fill:none;stroke:#000000;stroke-width:4;stroke-miterlimit:10;}
	.st10{fill:#9D9D9C;}
	.st11{fill:url(#SVGID_1_);}
	.st12{fill:url(#SVGID_2_);}
	.st13{fill:url(#SVGID_3_);}
	.st14{fill:#010202;}
	.st15{fill:url(#SVGID_4_);}
	.st16{opacity:0.2;fill:#FFFFFF;}
	.st17{filter:url(#Adobe_OpacityMaskFilter);}
	.st18{filter:url(#Adobe_OpacityMaskFilter_1_);}
	.st19{fill:url(#SVGID_7_);}
	.st20{fill:url(#SVGID_8_);}
	.st21{fill:url(#SVGID_9_);}
	.st22{filter:url(#Adobe_OpacityMaskFilter_2_);}
	.st23{fill:url(#SVGID_11_);}
	.st24{fill:url(#SVGID_12_);}
	.st25{fill:url(#SVGID_13_);}
	.st26{filter:url(#Adobe_OpacityMaskFilter_3_);}
	.st27{clip-path:url(#SVGID_16_);fill:#FFFFFF;}
	.st28{clip-path:url(#SVGID_16_);fill:#1B6C98;}
	.st29{clip-path:url(#SVGID_16_);fill:#155F86;}
	.st30{fill:#176086;}
	.st31{clip-path:url(#SVGID_18_);fill:url(#SVGID_19_);}
	.st32{clip-path:url(#SVGID_18_);fill:url(#SVGID_20_);}
	.st33{clip-path:url(#SVGID_18_);fill:url(#SVGID_21_);}
	.st34{clip-path:url(#SVGID_18_);fill:url(#SVGID_22_);}
	.st35{fill:#EFEEEE;}
	.st36{clip-path:url(#SVGID_24_);fill:url(#SVGID_25_);}
	.st37{clip-path:url(#SVGID_24_);fill:url(#SVGID_26_);}
	.st38{clip-path:url(#SVGID_24_);fill:url(#SVGID_27_);}
	.st39{clip-path:url(#SVGID_24_);fill:url(#SVGID_28_);}
	.st40{fill:#0B5F87;}
	.st41{fill:#ECECEC;}
	.st42{fill:#106086;}
	.st43{fill-rule:evenodd;clip-rule:evenodd;fill:#FFFFFF;}
	.st44{fill:#FFFFFF;stroke:#FFFFFF;stroke-miterlimit:10;}
	.st45{fill:none;stroke:#155F86;stroke-width:5;stroke-miterlimit:10;}
	.st46{fill:none;stroke:#155F86;stroke-width:2;stroke-miterlimit:10;}
</style>
<g>
	<path class="st0" d="M121.6,77.2c0-0.2-0.1-0.5-0.1-0.7c0-0.2-0.1-0.4-0.1-0.5l-0.1-0.6c0-0.2-0.1-0.3-0.1-0.5
		c-0.1-0.2-0.2-0.4-0.2-0.7l-0.2-0.5c0-0.1-0.1-0.2-0.1-0.3c-0.1-0.3-0.3-0.6-0.4-0.9l-0.2-0.3c0-0.1-0.1-0.1-0.1-0.2
		c-0.2-0.4-0.4-0.7-0.6-1.1c0-0.1-0.1-0.1-0.1-0.2c-0.3-0.5-0.6-0.8-0.9-1.2l-0.1-0.1c-0.3-0.4-0.6-0.7-1-1.1l-0.1-0.1
		c-3-3-7-4.7-11.4-4.8l-0.2,0c-9,0-16.3,7.3-16.3,16.3c0,9,7.3,16.3,16.3,16.3l0.2,0c4.3,0,8.4-1.8,11.4-4.8c0.4-0.4,0.7-0.8,1-1.2
		c0-0.1,0.1-0.1,0.1-0.2c0.3-0.3,0.5-0.7,0.8-1.1c0.1-0.2,0.1-0.2,0.2-0.3c0.2-0.3,0.4-0.7,0.6-1.1c0-0.1,0.1-0.1,0.1-0.2
		c0-0.1,0.1-0.2,0.1-0.3l0.1-0.1c0.1-0.3,0.3-0.6,0.4-0.8c0-0.1,0.1-0.2,0.1-0.3l0.2-0.5c0.1-0.2,0.2-0.4,0.2-0.7
		c0-0.2,0.1-0.3,0.1-0.5l0.2-0.6c0-0.2,0.1-0.3,0.1-0.5c0-0.2,0.1-0.5,0.1-0.7l0.1-0.6c0-0.1,0-0.2,0.1-0.3c0.1-0.6,0.1-1.1,0.1-1.7
		c0-0.6,0-1.1-0.1-1.7c0-0.1,0-0.2-0.1-0.3L121.6,77.2z"/>
	<path class="st0" d="M138.8,105.3c0.2-0.3,0.4-0.7,0.7-1.1c0-0.1,0.1-0.1,0.1-0.2c0.5-1,1.3-2.3,1.3-2.4c3.1-6.1,4.7-12.7,4.7-19.6
		c0-0.7,0-1.5,0-2.2c0-0.3,0-0.6-0.1-0.9l0-0.6c0-0.2,0-0.4,0-0.6c0-0.3-0.1-0.5-0.1-0.8l-0.1-0.6c0-0.3-0.1-0.5-0.1-0.8
		c0-0.2-0.1-0.4-0.1-0.6l-0.1-0.5c0-0.3-0.1-0.6-0.1-0.9c0-0.2-0.1-0.5-0.1-0.7l-0.1-0.6c0-0.2-0.1-0.4-0.1-0.7
		c-0.1-0.3-0.2-0.6-0.2-0.9l-0.1-0.5c0-0.2-0.1-0.3-0.1-0.5c-0.1-0.3-0.2-0.7-0.3-1l-0.1-0.4c-0.1-0.2-0.1-0.3-0.1-0.5
		c-0.1-0.3-0.2-0.7-0.4-1l-0.2-0.4c-0.1-0.2-0.1-0.3-0.2-0.4c-0.1-0.4-0.3-0.7-0.4-1.1l-0.2-0.4c0-0.1-0.1-0.2-0.1-0.3
		c-0.2-0.5-0.4-0.9-0.7-1.4l-0.2-0.3c-0.2-0.5-0.5-0.9-0.8-1.5l-0.1-0.2c-0.3-0.5-0.6-1-0.9-1.5c0,0-0.1-0.1-0.1-0.1
		c-0.3-0.5-0.6-0.9-1-1.4c0,0-0.1-0.1-0.1-0.1c-0.3-0.5-0.7-1-1.1-1.4c0,0-0.1-0.1-0.1-0.1c-0.4-0.5-0.8-0.9-1.2-1.4
		c-0.4-0.5-0.8-0.9-1.3-1.4c0,0,0,0,0,0c-7.3-7.3-17.3-11.2-29-11.2c-23.6,0-40.2,16.5-40.2,40.2c0,7.3,1.9,14.5,5.4,20.9l0.6,1.1
		c0,0,0,0.1,0.1,0.1l1,1.6c0.1,0.2,0.2,0.3,0.3,0.4l25.7,43.2h0l6,10c0.3,0.5,0.9,0.9,1.5,0.9c0,0,0,0,0,0c0.6,0,1.2-0.3,1.5-0.9
		l5.8-10h0l25.1-43.1C138.5,105.9,138.6,105.6,138.8,105.3z M128,82.5c0,0.2-0.1,0.4-0.1,0.6l-0.1,0.5c0,0.4-0.1,0.7-0.2,1.1
		c-0.1,0.3-0.1,0.5-0.2,0.8l-0.1,0.6c-0.1,0.3-0.1,0.5-0.2,0.8c-0.1,0.3-0.2,0.7-0.4,1l-0.2,0.5c-0.1,0.2-0.1,0.4-0.2,0.6
		c-0.2,0.4-0.4,0.8-0.6,1.2l-0.2,0.4c-0.1,0.1-0.1,0.3-0.2,0.4c-0.3,0.5-0.6,1-0.9,1.5c-0.1,0.2-0.2,0.3-0.2,0.4
		c-0.4,0.5-0.7,1-1.1,1.5c-0.1,0.1-0.1,0.2-0.2,0.2c-0.4,0.5-0.9,1-1.4,1.5c-4.3,4.3-9.9,6.7-16,6.8c-0.1,0-0.1,0-0.2,0
		c-12.5,0-22.7-10.2-22.7-22.7c0-12.5,10.2-22.7,22.7-22.7l0.2,0c6,0.1,11.7,2.4,15.9,6.7l0.1,0.1c0.5,0.5,1,1,1.4,1.5
		c0.1,0.1,0.1,0.1,0.1,0.2c0.4,0.5,0.8,1,1.1,1.5c0.1,0.1,0.1,0.2,0.2,0.3c0.4,0.6,0.7,1.1,0.9,1.6c0.1,0.1,0.1,0.3,0.2,0.4l0.1,0.2
		c0.3,0.5,0.5,0.9,0.7,1.4c0.1,0.2,0.1,0.4,0.2,0.6l0.2,0.5c0.1,0.3,0.3,0.7,0.4,1c0.1,0.2,0.1,0.5,0.2,0.8l0.1,0.6
		c0.1,0.3,0.2,0.6,0.2,0.8c0.1,0.3,0.1,0.7,0.2,1.1l0.1,0.5c0,0.2,0.1,0.4,0.1,0.6c0.1,0.8,0.1,1.5,0.1,2.3
		C128.1,81,128.1,81.8,128,82.5z"/>
</g>
</svg>
