<?xml version="1.0" encoding="utf-8"?>
<!-- Generator: Adobe Illustrator 23.0.0, SVG Export Plug-In . SVG Version: 6.00 Build 0)  -->
<svg version="1.1" id="Capa_1" xmlns="http://www.w3.org/2000/svg" xmlns:xlink="http://www.w3.org/1999/xlink" x="0px" y="0px"
	 viewBox="0 0 348 170.1" style="enable-background:new 0 0 348 170.1;" xml:space="preserve">
<style type="text/css">
	.st0{fill:#FFFFFF;}
	.st1{fill:#176086;}
	.st2{fill:#145F85;}
</style>
<polygon class="st0" points="45.1,112.9 30.2,136.8 31.6,138.1 57.9,120.8 "/>
<polygon class="st0" points="71.4,77.4 64.1,85.3 81.9,104.9 91.5,96.4 "/>
<rect x="195" y="51.6" class="st0" width="118" height="35"/>
<path class="st1" d="M139.1,81.7c-0.2,0.4-0.3,0.9-0.3,1.5V88c0,2,1.6,3.6,3.6,3.6h17.4l-1.8,1.8l-0.7,0.7c-1.4,1.4-1.4,3.6,0,5l3,3
	c1.4,1.4,3.6,1.4,5,0l0,0l5.5-5.6l0.4-0.4c0.9-0.9,2.1-2.1,3.2-3.2l0,0c0.6-0.6,1.3-1.3,1.8-1.8l1.3-1.3l1.8-1.8
	c1.4-1.4,1.4-3.6,0-5l-3-3c-1.4-1.4-3.6-3.6-5-5l-6-6c-1.4-1.4-3.6-1.4-5,0l-3,3l0,0c-1.4,1.4-1.4,3.6,0,5l2.5,2.5h-3.6h-13.9
	C140.9,79.6,139.6,80.4,139.1,81.7z"/>
<path class="st1" d="M313.7,49.6c0-3.2-2.6-5.8-5.8-5.8H201.3c-3.2,0-5.8,2.6-5.8,5.8v65.7c0,3.2,2.6,5.8,5.8,5.8h55.8h28.3h22
	c3.5,0,6.4-2.8,6.4-6.4v-29v-0.1l0,0L313.7,49.6L313.7,49.6z M197.3,74.6V54.9H312v19.7H197.3z"/>
<g>
	<path class="st2" d="M46.8,122.4h-0.4l-15.2,15.2v0.4l0.4,0.1l28.7-12.6l0.2-0.2l4.9-13.5l-0.1-0.3l-9.2-9.2h-0.3L43,107.9
		l-0.2,0.2l-12.6,28.7l0.1,0.4h0.4L45.9,122v-0.4c-1-1.4-0.9-3.4,0.4-4.7c1.4-1.4,3.7-1.4,5.1,0c1.4,1.4,1.4,3.7,0,5.1
		C50.2,123.3,48.3,123.4,46.8,122.4z"/>
	<path class="st2" d="M78.8,69.8l19.7,19.7c24-24.7,52.1-61.3,46.8-66.5C140.2,17.8,103.6,45.9,78.8,69.8z"/>
	<path class="st2" d="M62.4,106c4.5,4.5,7.2,9.4,21.8-2.9l-19-19C53,98.8,57.9,101.5,62.4,106z"/>
	<path class="st2" d="M70.1,78.7l19.5,19.6c1.7-1.6,3.6-3.4,5.6-5.4c1.1-1.1,2.2-2.2,3.3-3.4L78.8,69.8c-1.1,1.1-2.3,2.2-3.4,3.3
		C73.5,75.1,71.7,77,70.1,78.7z"/>
</g>
</svg>
