<?xml version="1.0" encoding="utf-8"?>
<!-- Generator: Adobe Illustrator 23.0.0, SVG Export Plug-In . SVG Version: 6.00 Build 0)  -->
<svg version="1.1" id="Capa_1" xmlns="http://www.w3.org/2000/svg" xmlns:xlink="http://www.w3.org/1999/xlink" x="0px" y="0px"
	 viewBox="0 0 38.8 39.4" style="enable-background:new 0 0 38.8 39.4;" xml:space="preserve">
<style type="text/css">
	.st0{fill:#FFFFFF;}
</style>
<path class="st0" d="M19.4,4.2C10.4,4.2,3,11.5,3,20.6c0,9,7.3,16.4,16.4,16.4c9-0.1,16.4-7.4,16.4-16.4S28.5,4.2,19.4,4.2z
	 M23.6,20.7h-2.9c0,4.3,0,9.7,0,9.7h-3.9c0,0,0-5.3,0-9.7h-1.9v-3.9h1.9V15c0-1.6,0.8-4.1,4.1-4.1h3v3.3c0,0-1.8,0-2.2,0
	c-0.4,0-0.9,0.1-0.9,0.9v1.6v0.1H24L23.6,20.7z"/>
</svg>
