<?xml version="1.0" encoding="utf-8"?>
<!-- Generator: Adobe Illustrator 23.0.0, SVG Export Plug-In . SVG Version: 6.00 Build 0)  -->
<svg version="1.1" id="Capa_1" xmlns="http://www.w3.org/2000/svg" xmlns:xlink="http://www.w3.org/1999/xlink" x="0px" y="0px"
	 viewBox="0 0 104.1 95.4" style="enable-background:new 0 0 104.1 95.4;" xml:space="preserve">
<style type="text/css">
	.st0{fill:#155F86;}
	.st1{fill:#D4D4D5;}
	.st2{fill:#0E9FDB;}
	.st3{fill:#FFFFFF;}
	.st4{fill:#065F87;}
	.st5{fill:none;stroke:#FFFFFF;stroke-miterlimit:10;}
	.st6{fill:none;stroke:#155F86;stroke-width:3;stroke-miterlimit:10;}
	.st7{fill:none;stroke:#FFFFFF;stroke-width:2;stroke-miterlimit:10;}
	.st8{fill:none;stroke:#9D9D9C;stroke-width:4;stroke-miterlimit:10;}
	.st9{fill:none;stroke:#000000;stroke-width:4;stroke-miterlimit:10;}
	.st10{fill:#9D9D9C;}
	.st11{fill:url(#SVGID_1_);}
	.st12{fill:url(#SVGID_2_);}
	.st13{fill:url(#SVGID_3_);}
	.st14{fill:#010202;}
	.st15{fill:url(#SVGID_4_);}
	.st16{opacity:0.2;fill:#FFFFFF;}
	.st17{filter:url(#Adobe_OpacityMaskFilter);}
	.st18{filter:url(#Adobe_OpacityMaskFilter_1_);}
	.st19{fill:url(#SVGID_7_);}
	.st20{fill:url(#SVGID_8_);}
	.st21{fill:url(#SVGID_9_);}
	.st22{filter:url(#Adobe_OpacityMaskFilter_2_);}
	.st23{fill:url(#SVGID_11_);}
	.st24{fill:url(#SVGID_12_);}
	.st25{fill:url(#SVGID_13_);}
	.st26{filter:url(#Adobe_OpacityMaskFilter_3_);}
	.st27{clip-path:url(#SVGID_16_);fill:#FFFFFF;}
	.st28{clip-path:url(#SVGID_16_);fill:#1B6C98;}
	.st29{clip-path:url(#SVGID_16_);fill:#155F86;}
	.st30{fill:#176086;}
	.st31{clip-path:url(#SVGID_18_);fill:url(#SVGID_19_);}
	.st32{clip-path:url(#SVGID_18_);fill:url(#SVGID_20_);}
	.st33{clip-path:url(#SVGID_18_);fill:url(#SVGID_21_);}
	.st34{clip-path:url(#SVGID_18_);fill:url(#SVGID_22_);}
	.st35{fill:#EFEEEE;}
	.st36{clip-path:url(#SVGID_24_);fill:url(#SVGID_25_);}
	.st37{clip-path:url(#SVGID_24_);fill:url(#SVGID_26_);}
	.st38{clip-path:url(#SVGID_24_);fill:url(#SVGID_27_);}
	.st39{clip-path:url(#SVGID_24_);fill:url(#SVGID_28_);}
	.st40{fill:#0B5F87;}
	.st41{fill:#ECECEC;}
	.st42{fill:#106086;}
	.st43{fill-rule:evenodd;clip-rule:evenodd;fill:#FFFFFF;}
	.st44{fill:#FFFFFF;stroke:#FFFFFF;stroke-miterlimit:10;}
	.st45{fill:none;stroke:#155F86;stroke-width:5;stroke-miterlimit:10;}
	.st46{fill:none;stroke:#155F86;stroke-width:2;stroke-miterlimit:10;}
</style>
<circle class="st6" cx="53.1" cy="48.2" r="44.7"/>
<g>
	<path class="st0" d="M67.4,16.1H38.9c-3,0-5.4,2.4-5.4,5.4v52.9c0,3,2.4,5.4,5.4,5.4h28.5c3,0,5.4-2.4,5.4-5.4V21.5
		C72.7,18.5,70.3,16.1,67.4,16.1z M71.7,58.6c-0.1-0.2-0.5-0.9-3.1-2.5l-1.4,2.7c0.9,0.7,2.2,1.8,3.2,2.7V71c0,1.9-1.5,3.4-3.4,3.4
		H39.3c-1.9,0-3.4-1.5-3.4-3.4V50c0.1,0.1,0.1,0.1,0.2,0.1l2.8-1.7c-1.3-1.2-3.7-5.8-3.8-5.9l-1.1,5.3c0,0,0,0,0,0l1.1-5.5
		c0,0,0.3,0.6,0.8,1.5V26.2c0-1.9,1.5-3.4,3.4-3.4H67c1.9,0,3.4,1.5,3.4,3.4v30.9c1,0.8,1.2,1.2,1.3,1.3L71.7,58.6z"/>
	<path class="st0" d="M61.6,35.9c0-4.7-3.8-8.5-8.5-8.5c-4.7,0-8.5,3.8-8.5,8.5c0,5.9,8.5,15.9,8.5,15.9S61.6,41.4,61.6,35.9z
		 M50.6,38.3c-1.4-1.4-1.4-3.7,0-5.1c0.7-0.7,1.6-1.1,2.6-1.1c1,0,1.9,0.4,2.6,1.1c1.4,1.4,1.4,3.7,0,5.1c-0.7,0.7-1.6,1.1-2.6,1.1
		C52.2,39.4,51.3,39,50.6,38.3z"/>
	<path class="st0" d="M37.7,51.5c1.3,0.9,2.8,1.8,4.6,2.5l2.1-2.2c-1.5-0.5-2.8-1.2-3.8-1.9L37.7,51.5z"/>
	<path class="st0" d="M46.7,52.3l-2.1,2.3c1.7,0.4,3.6,0.6,5.7,0.5l0.8-2.8C49.5,52.6,48,52.5,46.7,52.3z"/>
	<path class="st0" d="M60.2,55.6c1.8,0.5,3.4,1.1,4.7,1.8l1.4-2.6c-1.4-0.7-3.1-1.4-5-1.8L60.2,55.6z"/>
	<path class="st0" d="M52.9,55c1.7-0.1,3.3-0.1,4.8,0.1l1.1-2.6c-1.6-0.2-3.3-0.4-5.1-0.3L52.9,55z"/>
</g>
</svg>
