<?xml version="1.0" encoding="utf-8"?>
<!-- Generator: Adobe Illustrator 23.0.0, SVG Export Plug-In . SVG Version: 6.00 Build 0)  -->
<svg version="1.1" id="Capa_1" xmlns="http://www.w3.org/2000/svg" xmlns:xlink="http://www.w3.org/1999/xlink" x="0px" y="0px"
	 viewBox="0 0 104.1 95.4" style="enable-background:new 0 0 104.1 95.4;" xml:space="preserve">
<style type="text/css">
	.st0{fill:#155F86;}
	.st1{fill:#D4D4D5;}
	.st2{fill:#0E9FDB;}
	.st3{fill:#FFFFFF;}
	.st4{fill:#065F87;}
	.st5{fill:none;stroke:#FFFFFF;stroke-miterlimit:10;}
	.st6{fill:none;stroke:#155F86;stroke-width:3;stroke-miterlimit:10;}
	.st7{fill:none;stroke:#FFFFFF;stroke-width:2;stroke-miterlimit:10;}
	.st8{fill:none;stroke:#9D9D9C;stroke-width:4;stroke-miterlimit:10;}
	.st9{fill:none;stroke:#000000;stroke-width:4;stroke-miterlimit:10;}
	.st10{fill:#9D9D9C;}
	.st11{fill:url(#SVGID_1_);}
	.st12{fill:url(#SVGID_2_);}
	.st13{fill:url(#SVGID_3_);}
	.st14{fill:#010202;}
	.st15{fill:url(#SVGID_4_);}
	.st16{opacity:0.2;fill:#FFFFFF;}
	.st17{filter:url(#Adobe_OpacityMaskFilter);}
	.st18{filter:url(#Adobe_OpacityMaskFilter_1_);}
	.st19{fill:url(#SVGID_7_);}
	.st20{fill:url(#SVGID_8_);}
	.st21{fill:url(#SVGID_9_);}
	.st22{filter:url(#Adobe_OpacityMaskFilter_2_);}
	.st23{fill:url(#SVGID_11_);}
	.st24{fill:url(#SVGID_12_);}
	.st25{fill:url(#SVGID_13_);}
	.st26{filter:url(#Adobe_OpacityMaskFilter_3_);}
	.st27{clip-path:url(#SVGID_16_);fill:#FFFFFF;}
	.st28{clip-path:url(#SVGID_16_);fill:#1B6C98;}
	.st29{clip-path:url(#SVGID_16_);fill:#155F86;}
	.st30{fill:#176086;}
	.st31{clip-path:url(#SVGID_18_);fill:url(#SVGID_19_);}
	.st32{clip-path:url(#SVGID_18_);fill:url(#SVGID_20_);}
	.st33{clip-path:url(#SVGID_18_);fill:url(#SVGID_21_);}
	.st34{clip-path:url(#SVGID_18_);fill:url(#SVGID_22_);}
	.st35{fill:#EFEEEE;}
	.st36{clip-path:url(#SVGID_24_);fill:url(#SVGID_25_);}
	.st37{clip-path:url(#SVGID_24_);fill:url(#SVGID_26_);}
	.st38{clip-path:url(#SVGID_24_);fill:url(#SVGID_27_);}
	.st39{clip-path:url(#SVGID_24_);fill:url(#SVGID_28_);}
	.st40{fill:#0B5F87;}
	.st41{fill:#ECECEC;}
	.st42{fill:#106086;}
	.st43{fill-rule:evenodd;clip-rule:evenodd;fill:#FFFFFF;}
	.st44{fill:#FFFFFF;stroke:#FFFFFF;stroke-miterlimit:10;}
	.st45{fill:none;stroke:#155F86;stroke-width:5;stroke-miterlimit:10;}
	.st46{fill:none;stroke:#155F86;stroke-width:2;stroke-miterlimit:10;}
	.st47{fill:#D7D7D7;}
	.st48{fill:#5B9DD5;}
	.st49{fill:#195F86;}
	.st50{clip-path:url(#SVGID_30_);fill:#195F86;}
	.st51{clip-path:url(#SVGID_30_);fill-rule:evenodd;clip-rule:evenodd;fill:#195F86;}
	.st52{clip-path:url(#SVGID_30_);fill:#1B6187;}
</style>
<circle class="st6" cx="52.7" cy="48.2" r="44.7"/>
<g>
	<path class="st5" d="M84,67.8H43.8c-1,0-1.8-0.8-1.8-1.8V43.1c0-1,0.8-1.8,1.8-1.8H84c1,0,1.8,0.8,1.8,1.8V66
		C85.8,67,85,67.8,84,67.8z"/>
	<path class="st46" d="M84,67.8H43.8c-1,0-1.8-0.8-1.8-1.8V43.1c0-1,0.8-1.8,1.8-1.8H84c1,0,1.8,0.8,1.8,1.8V66
		C85.8,67,85,67.8,84,67.8z"/>
</g>
<path class="st0" d="M40.1,53.8l-11.4,4.4c-0.7,0.3-1.4-0.1-1.7-0.8s0.1-1.4,0.8-1.7L40.1,51v-7.5c0-2.3,1.9-4.2,4.2-4.2h21.3
	l-5.7-14.7c-0.9-2.3-3.5-3.5-5.8-2.6L19.4,35.4c-2.3,0.9-3.5,3.5-2.6,5.8l7.7,19.9c0.9,2.3,3.5,3.5,5.8,2.6l9.9-3.8V53.8z M23,44.7
	c-0.7-1.6,0.1-3.6,1.7-4.3c0.5-0.2,1.1-0.3,1.7-0.2c0.3-0.4,0.8-0.8,1.3-1.1c1.6-0.7,3.6,0.1,4.3,1.7c0.7,1.6-0.1,3.6-1.7,4.3
	c-0.5,0.2-1.1,0.3-1.7,0.2c-0.3,0.4-0.8,0.8-1.3,1.1C25.6,47.1,23.7,46.4,23,44.7z"/>
<rect x="42" y="46.3" class="st0" width="43.8" height="5.3"/>
<path class="st0" d="M63.1,57.2H46.8c-0.5,0-0.8-0.4-0.8-0.8v-1c0-0.5,0.4-0.8,0.8-0.8h16.3c0.5,0,0.8,0.4,0.8,0.8v1
	C63.9,56.8,63.5,57.2,63.1,57.2z"/>
</svg>
