<?xml version="1.0" encoding="utf-8"?>
<!-- Generator: Adobe Illustrator 23.0.0, SVG Export Plug-In . SVG Version: 6.00 Build 0)  -->
<svg version="1.1" id="Capa_1" xmlns="http://www.w3.org/2000/svg" xmlns:xlink="http://www.w3.org/1999/xlink" x="0px" y="0px"
	 viewBox="0 0 63.5 62.5" style="enable-background:new 0 0 63.5 62.5;" xml:space="preserve">
<style type="text/css">
	.st0{fill:#035F86;}
</style>
<g>
	<path class="st0" d="M6.6,46.6l22.3-13.2L6.5,20.1v25.6C6.5,46,6.5,46.3,6.6,46.6z"/>
	<path class="st0" d="M29.9,34L7,47.5c0.6,1.1,1.7,1.8,3.1,1.8h44c1.4,0,2.7-0.9,3.2-2.1L34.7,34l-2.4,1.4L29.9,34z"/>
	<path class="st0" d="M57.5,45.8V20.5L35.7,33.4l21.8,12.8C57.5,46.1,57.5,45.9,57.5,45.8z"/>
	<path class="st0" d="M10,15.3c-2,0-3.5,1.6-3.5,3.5V19l25.8,15.2l25.2-14.9v-0.5c0-2-1.6-3.5-3.5-3.5C54,15.3,10,15.3,10,15.3z"/>
</g>
</svg>
