<?xml version="1.0" encoding="utf-8"?>
<!-- Generator: Adobe Illustrator 23.0.0, SVG Export Plug-In . SVG Version: 6.00 Build 0)  -->
<svg version="1.1" id="Capa_1" xmlns="http://www.w3.org/2000/svg" xmlns:xlink="http://www.w3.org/1999/xlink" x="0px" y="0px"
	 viewBox="0 0 72.7 91.1" style="enable-background:new 0 0 72.7 91.1;" xml:space="preserve">
<style type="text/css">
	.st0{fill:url(#SVGID_1_);}
	.st1{fill:#FFFFFF;}
	.st2{fill:#155F86;}
	.st3{fill:none;}
	.st4{font-family:'Verdana-Bold';}
	.st5{font-size:8.7939px;}
	.st6{fill:url(#SVGID_2_);}
</style>
<g>
	<g>
		<linearGradient id="SVGID_1_" gradientUnits="userSpaceOnUse" x1="2.4412" y1="41.7192" x2="61.4738" y2="41.7192">
			<stop  offset="0" style="stop-color:#006098"/>
			<stop  offset="0.3015" style="stop-color:#0082CB"/>
			<stop  offset="0.5902" style="stop-color:#007ABE"/>
			<stop  offset="1" style="stop-color:#00649E"/>
		</linearGradient>
		<path class="st0" d="M57.3,46.7c2.6-4.8,4.4-9.7,4.1-15.7C60.7,15.8,48.3,3.6,33.1,3C16.2,2.4,2.4,15.8,2.4,32.5
			c0,8.6,4,14.7,8.6,21.5c5,7.5,10.1,14.9,15.1,22.4c1,1.6,2.2,3.2,4,3.8c2,0.7,4.3-0.1,5.9-1.5c2.5-2.1,4.1-5.6,5.9-8.3
			c4.1-6.1,8.5-12.3,12.5-18.6C55.4,50.2,56.4,48.5,57.3,46.7z"/>
		<ellipse class="st1" cx="32" cy="31.8" rx="22.4" ry="22.4"/>
	</g>
</g>
<g>
	<g>
		<path class="st2" d="M44.6,31.2V20.4h-28v14.3h0.8l-0.8,2.4l26.6,8.7l4.4-13.6L44.6,31.2z M17.7,30.4h-0.2v-5.9h0.2
			c0.8,0,1.6-0.3,2.2-0.9s0.9-1.3,0.9-2.2v-0.2h19.3h0.2v0.2c0,0.8,0.3,1.6,0.9,2.2c0.6,0.6,1.3,0.9,2.2,0.9h0.2v5.9h-0.2
			c-0.8,0-1.6,0.3-2.2,0.9c-0.6,0.6-0.9,1.3-0.9,2.2v0.2H20.8v-0.2c0-0.8-0.3-1.6-0.9-2.2C19.3,30.8,18.6,30.4,17.7,30.4z
			 M43.4,41.4c-0.3-0.1-0.6-0.2-0.9-0.2c-1.3,0-2.5,0.8-2.9,2.1l-0.1,0.2l-18.6-6l0.1-0.2c0.1-0.3,0.2-0.6,0.2-0.9
			c0-0.6-0.2-1.2-0.6-1.8h0.5h5.3h1h9.5h1h5.3h0.5c0.4,0.5,0.9,1,1.6,1.2l0.2,0.1l-1.8,5.6L43.4,41.4z"/>
		<path class="st2" d="M45.2,35.8c-0.7-0.2-1.2-0.6-1.6-1.2h-0.5c0.4,0.7,1,1.2,1.7,1.5L43.3,41c-0.3-0.1-0.6-0.1-0.9-0.1
			c-1.4,0-2.7,0.9-3.2,2.2l-17.9-5.8c0.1-0.3,0.1-0.6,0.1-0.9c0-0.6-0.2-1.2-0.5-1.8h-0.5c0.4,0.5,0.6,1.1,0.6,1.8
			c0,0.3,0,0.6-0.2,0.9l0.1,0.2l18.6,6l0.1-0.2c0.4-1.3,1.6-2.1,2.9-2.1c0.3,0,0.6,0,0.9,0.2l0.2,0.1l1.8-5.6L45.2,35.8z"/>
		<path class="st2" d="M30.3,40.2c0.6,0.2,1.2,0.3,1.8,0.3c2.5,0,4.7-1.6,5.5-4c0.2-0.6,0.3-1.2,0.3-1.8h-1c0,0.5-0.1,1-0.2,1.5
			c-0.6,2-2.5,3.3-4.6,3.3c-0.5,0-1-0.1-1.5-0.2c-2-0.7-3.3-2.5-3.3-4.6h-1C26.3,37.1,27.8,39.4,30.3,40.2z"/>
		<path class="st2" d="M19.9,31.3c0.6,0.6,0.9,1.3,0.9,2.2v0.2h19.5v-0.2c0-0.8,0.3-1.6,0.9-2.2c0.6-0.6,1.3-0.9,2.2-0.9h0.2v-5.9
			h-0.2c-0.8,0-1.6-0.3-2.2-0.9c-0.6-0.6-0.9-1.3-0.9-2.2v-0.2h-0.2H20.8v0.2c0,0.8-0.3,1.6-0.9,2.2s-1.3,0.9-2.2,0.9h-0.2v5.9h0.2
			C18.6,30.4,19.3,30.8,19.9,31.3z M21.2,21.7h9.3c-3.2,0.1-5.7,2.6-5.7,5.8s2.5,5.7,5.7,5.8h-9.3c-0.1-1.8-1.5-3.1-3.2-3.2V25
			C19.7,24.8,21.1,23.4,21.2,21.7z M43.2,24.9V30c-1.8,0.1-3.1,1.5-3.2,3.2h-9.3c3.2-0.1,5.7-2.6,5.7-5.8s-2.5-5.7-5.7-5.8h9.2
			C40,23.4,41.4,24.8,43.2,24.9z M25.7,27.5c0-2.7,2.2-4.8,4.8-4.8s4.8,2.2,4.8,4.8c0,2.7-2.2,4.8-4.8,4.8S25.7,30.2,25.7,27.5z"/>
	</g>
	<rect x="27.1" y="23.9" class="st3" width="6.6" height="8.4"/>
	<text transform="matrix(1 0 0 1 27.1486 30.548)" class="st2 st4 st5">€</text>
	<path class="st2" d="M33.3,38.5c-0.4,0.2-0.8,0.3-1.2,0.3c-0.5,0-0.9-0.1-1.3-0.4c-0.4-0.3-0.6-0.6-0.7-1h0.7l0.3-0.7H30
		c0-0.1,0-0.1,0-0.2c0-0.1,0-0.1,0-0.2c0-0.1,0-0.2,0-0.2h-2.1c0,0.1,0,0.2,0,0.2c0,0.1,0,0.1,0,0.2c0,0.1,0,0.1,0,0.2h-0.3
		l-0.3,0.7H28c0.2,0.9,0.6,1.7,1.3,2.2s1.5,0.8,2.6,0.8c0.5,0,1-0.1,1.4-0.2c0.4-0.1,0.9-0.3,1.4-0.5v-1.9h-0.2
		C34,38,33.7,38.3,33.3,38.5z"/>
</g>
<linearGradient id="SVGID_2_" gradientUnits="userSpaceOnUse" x1="-265.1176" y1="133.805" x2="-210.0588" y2="133.805">
	<stop  offset="0" style="stop-color:#006098"/>
	<stop  offset="0.3015" style="stop-color:#0082CB"/>
	<stop  offset="0.5902" style="stop-color:#007ABE"/>
	<stop  offset="1" style="stop-color:#00649E"/>
</linearGradient>
<ellipse class="st6" cx="-237.6" cy="133.8" rx="27.5" ry="25.2"/>
</svg>
