<?xml version="1.0" encoding="utf-8"?>
<!-- Generator: Adobe Illustrator 23.0.0, SVG Export Plug-In . SVG Version: 6.00 Build 0)  -->
<svg version="1.1" id="Capa_1" xmlns="http://www.w3.org/2000/svg" xmlns:xlink="http://www.w3.org/1999/xlink" x="0px" y="0px"
	 viewBox="0 0 63.5 62.5" style="enable-background:new 0 0 63.5 62.5;" xml:space="preserve">
<style type="text/css">
	.st0{fill:#035F86;}
</style>
<path class="st0" d="M55.6,41c-0.3-0.5-2.3-1.4-2.3-1.4c-0.8-0.4-6.6-3.2-7.7-3.6c-0.9-0.3-2-0.7-2.9,0.7c-0.7,1.1-2.8,3.5-3.5,4.3
	c-0.5,0.5-0.9,0.7-2,0.2c-0.2-0.1-5.3-2.3-8.9-5.4c-3.2-2.8-5.3-6.2-6.1-7.6c-0.5-0.8-0.2-1.2,0.4-1.8c0.4-0.4,2-2.3,2.1-2.5
	c0.3-0.4,0.7-1.3,0.7-1.3c0.5-0.9,0.2-1.7-0.1-2.3c-0.2-0.4-3.2-7.5-3.4-8.2c-0.8-2-1.7-2.1-2.6-2.1c-0.3,0-4.3,0-5.5,1.4l-0.2,0.2
	c-1.2,1.3-3.8,4-3.8,9.2c0,1.2,0.2,2.5,0.6,3.9c0.7,2.5,2.2,5.3,4,7.8c0,0.1,2.9,4,4.4,5.7c4.5,5.2,9.7,9.1,14.9,11.1
	c6.6,2.6,9.4,3.2,11,3.2c0.7,0,2.2-0.4,2.5-0.4c2-0.2,6.8-2.7,7.8-5.5C56,44,56,41.6,55.6,41z"/>
</svg>
