<?xml version="1.0" encoding="utf-8"?>
<!-- Generator: Adobe Illustrator 23.0.0, SVG Export Plug-In . SVG Version: 6.00 Build 0)  -->
<svg version="1.1" id="Capa_1" xmlns="http://www.w3.org/2000/svg" xmlns:xlink="http://www.w3.org/1999/xlink" x="0px" y="0px"
	 viewBox="0 0 79.4 79.4" style="enable-background:new 0 0 79.4 79.4;" xml:space="preserve">
<style type="text/css">
	.st0{fill:none;stroke:#FFFFFF;stroke-miterlimit:10;}
	.st1{fill:#FFFFFF;}
</style>
<ellipse class="st0" cx="16.8" cy="56.2" rx="15.6" ry="14.7"/>
<ellipse class="st0" cx="60.8" cy="63.2" rx="15.6" ry="14.7"/>
<g>
	<path class="st1" d="M54.5,64.6h-3.8v-0.7h1.5v-4.7h-1.5v-0.6c0.2,0,0.4,0,0.6,0c0.2,0,0.4-0.1,0.5-0.1c0.1-0.1,0.3-0.2,0.3-0.3
		c0.1-0.1,0.1-0.3,0.1-0.5h0.7V64h1.4v0.6H54.5z"/>
	<path class="st1" d="M61,60.7c0,0.6-0.1,1.2-0.2,1.7c-0.1,0.5-0.4,0.9-0.6,1.3c-0.3,0.4-0.6,0.6-1.1,0.8c-0.4,0.2-0.9,0.3-1.5,0.3
		c-0.2,0-0.3,0-0.5,0c-0.1,0-0.3,0-0.4-0.1v-0.9l0,0c0.1,0,0.2,0.1,0.4,0.1s0.4,0.1,0.6,0.1c0.7,0,1.2-0.2,1.6-0.6
		c0.4-0.4,0.6-1,0.7-1.7c-0.3,0.2-0.6,0.3-0.8,0.4c-0.3,0.1-0.5,0.1-0.8,0.1s-0.6,0-0.8-0.1s-0.5-0.2-0.7-0.3
		c-0.3-0.2-0.5-0.4-0.6-0.7s-0.2-0.6-0.2-1.1c0-0.7,0.2-1.3,0.7-1.8s1-0.7,1.7-0.7c0.3,0,0.7,0.1,0.9,0.2c0.3,0.1,0.5,0.3,0.8,0.5
		c0.3,0.3,0.5,0.6,0.6,1C61,59.5,61,60,61,60.7z M60.1,60.5c0-0.5-0.1-0.9-0.2-1.2c-0.1-0.3-0.2-0.5-0.4-0.7
		c-0.1-0.1-0.3-0.2-0.5-0.3s-0.4-0.1-0.6-0.1c-0.5,0-0.8,0.1-1.1,0.4c-0.3,0.3-0.4,0.7-0.4,1.2c0,0.3,0,0.5,0.1,0.7s0.2,0.4,0.4,0.5
		c0.1,0.1,0.3,0.2,0.5,0.2s0.4,0,0.6,0c0.2,0,0.5,0,0.7-0.1c0.3-0.1,0.5-0.2,0.7-0.3c0-0.1,0-0.1,0-0.2
		C60.1,60.7,60.1,60.6,60.1,60.5z"/>
	<path class="st1" d="M64.4,63.3l-1.3,3.1h-0.7l0.8-3.1H64.4z"/>
	<path class="st1" d="M70.9,62.6h-1v2H69v-2h-3.4v-1.1l3.4-4h0.9v4.3h1V62.6z M68.9,61.9v-3.2l-2.7,3.2H68.9z"/>
	<path class="st1" d="M60.2,69.7c0,0.5-0.1,0.9-0.4,1.2s-0.6,0.4-1.1,0.4s-0.8-0.1-1.1-0.4c-0.2-0.3-0.4-0.6-0.4-1.2
		c0-0.5,0.1-0.9,0.4-1.2s0.6-0.4,1.1-0.4s0.8,0.1,1.1,0.4S60.2,69.1,60.2,69.7z M59.3,69.7c0-0.3,0-0.6-0.1-0.7s-0.2-0.2-0.4-0.2
		s-0.3,0.1-0.4,0.2c-0.1,0.1-0.1,0.3-0.1,0.7c0,0.3,0,0.6,0.1,0.7s0.2,0.2,0.4,0.2s0.3-0.1,0.4-0.2C59.3,70.2,59.3,70,59.3,69.7z
		 M62.7,68.2l-2.5,4.7h-0.9l2.5-4.7H62.7z M64.7,71.5c0,0.5-0.1,0.9-0.4,1.2C64,73,63.8,73,63.3,73s-0.8-0.1-1.1-0.4
		c-0.2-0.3-0.4-0.6-0.4-1.2c0-0.5,0.1-0.9,0.4-1.2s0.6-0.4,1.1-0.4s0.8,0.1,1.1,0.4C64.7,70.5,64.7,71,64.7,71.5z M63.8,71.5
		c0-0.3,0-0.6-0.1-0.7s-0.2-0.2-0.4-0.2s-0.3,0.1-0.4,0.2c-0.1,0.1-0.1,0.3-0.1,0.7c0,0.3,0,0.6,0.1,0.7s0.2,0.2,0.4,0.2
		s0.3-0.1,0.4-0.2C63.8,72.1,63.8,71.8,63.8,71.5z"/>
</g>
<g>
	<path class="st1" d="M16,59.6H8.7V58c0.5-0.4,1-0.9,1.5-1.3c0.5-0.4,1-0.9,1.4-1.3c0.9-0.9,1.6-1.6,1.9-2.1
		c0.3-0.5,0.5-1.1,0.5-1.7c0-0.6-0.2-1-0.6-1.3c-0.4-0.3-0.9-0.5-1.6-0.5c-0.4,0-0.9,0.1-1.4,0.2c-0.5,0.2-1,0.4-1.5,0.7h0v-1.5
		c0.3-0.2,0.8-0.3,1.4-0.5c0.6-0.1,1.1-0.2,1.7-0.2c1.1,0,2,0.3,2.6,0.8s0.9,1.3,0.9,2.2c0,0.4-0.1,0.8-0.2,1.2
		c-0.1,0.4-0.3,0.7-0.5,1s-0.4,0.6-0.7,0.9c-0.3,0.3-0.6,0.6-0.9,1c-0.5,0.5-1.1,1-1.6,1.5c-0.6,0.5-1.1,0.9-1.5,1.3H16V59.6z"/>
	<path class="st1" d="M24.8,59.6H19v-1.1h2.3v-7.2H19v-1c0.3,0,0.6,0,1-0.1s0.6-0.1,0.8-0.2c0.2-0.1,0.4-0.3,0.5-0.5
		s0.2-0.4,0.2-0.8h1.1v9.7h2.2C24.8,58.4,24.8,59.6,24.8,59.6z"/>
	<path class="st1" d="M16.2,63.7c0,0.5-0.1,0.9-0.4,1.2c-0.2,0.3-0.6,0.4-1.1,0.4s-0.8-0.1-1.1-0.4c-0.2-0.3-0.4-0.6-0.4-1.2
		c0-0.5,0.1-0.9,0.4-1.2c0.2-0.3,0.6-0.4,1.1-0.4s0.8,0.1,1.1,0.4C16,62.8,16.2,63.2,16.2,63.7z M15.2,63.7c0-0.3,0-0.6-0.1-0.7
		c-0.1-0.1-0.2-0.2-0.4-0.2s-0.3,0.1-0.4,0.2c-0.1,0.1-0.1,0.3-0.1,0.7c0,0.3,0,0.6,0.1,0.7s0.2,0.2,0.4,0.2s0.3-0.1,0.4-0.2
		C15.2,64.3,15.2,64,15.2,63.7z M18.6,62.3L16.2,67h-0.9l2.5-4.7H18.6z M20.6,65.5c0,0.5-0.1,0.9-0.4,1.2c-0.2,0.3-0.6,0.4-1.1,0.4
		S18.3,67,18,66.7c-0.2-0.3-0.4-0.6-0.4-1.2c0-0.5,0.1-0.9,0.4-1.2c0.2-0.3,0.6-0.4,1.1-0.4s0.8,0.1,1.1,0.4
		C20.5,64.6,20.6,65,20.6,65.5z M19.7,65.5c0-0.3,0-0.6-0.1-0.7s-0.2-0.2-0.4-0.2c-0.2,0-0.3,0.1-0.4,0.2s-0.1,0.3-0.1,0.7
		c0,0.3,0,0.6,0.1,0.7s0.2,0.2,0.4,0.2c0.2,0,0.3-0.1,0.4-0.2S19.7,65.9,19.7,65.5z"/>
</g>
<g>
	<path class="st1" d="M45.3,48.2c-0.3,0-0.6,0.1-0.8,0.3s-0.2,0.7-0.2,1.4s0.1,1.1,0.2,1.4c0.2,0.2,0.4,0.3,0.8,0.3
		c0.3,0,0.6-0.1,0.8-0.3s0.2-0.7,0.2-1.4s-0.1-1.1-0.2-1.3C45.9,48.3,45.6,48.2,45.3,48.2z"/>
	<path class="st1" d="M36.5,44.6c-0.3,0-0.6,0.1-0.8,0.3s-0.2,0.7-0.2,1.4s0.1,1.1,0.2,1.4c0.2,0.2,0.4,0.4,0.8,0.4s0.6-0.1,0.8-0.4
		c0.2-0.2,0.2-0.7,0.2-1.4s-0.1-1.1-0.2-1.3C37.1,44.7,36.8,44.6,36.5,44.6z"/>
	<path class="st1" d="M40.9,7.1c-16.3,0-29.4,12.6-29.4,28.2c0,2.2,0.3,4.3,0.8,6.4c1.4-0.4,2.9-0.6,4.5-0.6
		c8.6,0,15.6,6.6,15.6,14.7c0,2.1-0.5,4.1-1.3,6c3.1,1.1,6.5,1.7,9.9,1.7c1.7,0,3.3-0.2,4.9-0.4C46.1,55,53,48.7,61.4,48.7
		c1.7,0,3.4,0.3,4.9,0.8c2.6-4.2,4-9,4-14.2C70.4,19.7,57.2,7.1,40.9,7.1z M24.6,38.2v-3c1-0.9,2-1.7,3-2.6c1-0.9,1.9-1.7,2.8-2.5
		c1.8-1.8,3.1-3.2,3.7-4.2c0.7-1,1-2.2,1-3.4c0-1.1-0.4-2-1.1-2.6c-0.7-0.6-1.7-0.9-3-0.9c-0.9,0-1.8,0.2-2.8,0.5s-2,0.8-2.9,1.4
		h-0.1v-3c0.7-0.3,1.6-0.6,2.7-0.9s2.2-0.4,3.3-0.4c2.2,0,3.9,0.5,5.1,1.6c1.2,1,1.9,2.5,1.9,4.3c0,0.8-0.1,1.6-0.3,2.3
		c-0.2,0.7-0.5,1.4-0.9,2s-0.8,1.2-1.3,1.7c-0.5,0.6-1.1,1.2-1.8,1.9c-1,1-2.1,2-3.1,2.9c-1.1,0.9-2.1,1.8-3,2.6H39v2.4H24.6V38.2z
		 M34.4,48.6c-0.5-0.5-0.7-1.3-0.7-2.3s0.2-1.8,0.7-2.3s1.2-0.7,2.1-0.7c0.9,0,1.6,0.2,2.1,0.7s0.7,1.2,0.7,2.3c0,1-0.2,1.8-0.7,2.3
		s-1.2,0.7-2.1,0.7C35.5,49.3,34.8,49.1,34.4,48.6z M39.3,52.7h-1.7l4.9-9.3h1.7L39.3,52.7z M47.4,52.2c-0.5,0.5-1.2,0.7-2.1,0.7
		c-0.9,0-1.7-0.3-2.1-0.8c-0.5-0.5-0.7-1.3-0.7-2.3s0.2-1.8,0.7-2.3s1.2-0.7,2.1-0.7c0.9,0,1.6,0.2,2.1,0.7s0.7,1.2,0.7,2.3
		C48.1,50.9,47.9,51.7,47.4,52.2z M56.7,34.5c-0.4,0.8-0.8,1.5-1.5,2.1c-0.7,0.7-1.6,1.2-2.5,1.5c-1,0.3-2,0.5-3.2,0.5
		s-2.3-0.1-3.5-0.4c-1.1-0.3-2.1-0.6-2.8-0.9v-3h0.2c0.8,0.5,1.8,1,2.8,1.3c1.1,0.4,2.1,0.5,3.2,0.5c0.6,0,1.2-0.1,1.9-0.3
		s1.2-0.5,1.6-0.9c0.4-0.4,0.8-0.9,1-1.4s0.3-1.1,0.3-1.9c0-0.8-0.1-1.4-0.4-1.9c-0.2-0.5-0.6-0.9-1-1.2c-0.4-0.3-0.9-0.5-1.6-0.6
		c-0.6-0.1-1.3-0.2-2-0.2h-1.3v-2.4h1c1.4,0,2.6-0.3,3.5-0.9s1.3-1.5,1.3-2.6c0-0.5-0.1-1-0.3-1.3c-0.2-0.4-0.5-0.7-0.9-0.9
		c-0.4-0.2-0.8-0.4-1.3-0.5s-1-0.1-1.6-0.1c-0.9,0-1.9,0.2-2.9,0.5s-2,0.8-2.9,1.4h-0.1v-3c0.7-0.3,1.6-0.6,2.7-0.9
		c1.1-0.3,2.2-0.4,3.3-0.4c1,0,1.9,0.1,2.7,0.3c0.8,0.2,1.5,0.5,2.1,0.9c0.7,0.5,1.2,1,1.6,1.7c0.4,0.6,0.5,1.4,0.5,2.3
		c0,1.2-0.4,2.2-1.2,3.1s-1.8,1.4-2.9,1.7v0.2c0.5,0.1,1,0.2,1.6,0.5c0.6,0.2,1.1,0.5,1.5,0.9c0.5,0.4,0.8,0.9,1.1,1.5
		s0.4,1.4,0.4,2.4C57.2,32.8,57,33.7,56.7,34.5z"/>
</g>
</svg>
