<?xml version="1.0" encoding="utf-8"?>
<!-- Generator: Adobe Illustrator 23.0.0, SVG Export Plug-In . SVG Version: 6.00 Build 0)  -->
<svg version="1.1" id="Capa_1" xmlns="http://www.w3.org/2000/svg" xmlns:xlink="http://www.w3.org/1999/xlink" x="0px" y="0px"
	 viewBox="0 0 79.4 79.4" style="enable-background:new 0 0 79.4 79.4;" xml:space="preserve">
<style type="text/css">
	.st0{fill:none;stroke:#FFFFFF;stroke-miterlimit:10;}
	.st1{fill:#FFFFFF;}
	.st2{fill:none;stroke:#FFFFFF;stroke-width:2;stroke-miterlimit:10;}
</style>
<g>
	<path class="st1" d="M54.1,12.5v0.7c0.2,0,0.5,0,0.7,0v-0.7c-0.1,0-0.2,0-0.3,0C54.3,12.6,54.2,12.6,54.1,12.5z"/>
	<path class="st1" d="M50.5,12.5v0.6c0.2,0,0.5,0,0.7,0v-0.6c-0.1,0-0.2,0-0.3,0C50.8,12.6,50.7,12.6,50.5,12.5z"/>
	<path class="st1" d="M47,12.5V13c0.2,0,0.5,0,0.7,0v-0.5c-0.1,0-0.2,0-0.3,0C47.2,12.6,47.1,12.6,47,12.5z"/>
	<path class="st1" d="M50.9,12.4c0.8,0,1.4-0.6,1.4-1.3c0-0.7-0.6-1.3-1.4-1.3c-0.8,0-1.4,0.6-1.4,1.3
		C49.5,11.9,50.1,12.4,50.9,12.4z"/>
	<path class="st1" d="M54.4,12.4c0.8,0,1.4-0.6,1.4-1.3c0-0.7-0.6-1.3-1.4-1.3c-0.8,0-1.4,0.6-1.4,1.3
		C53.1,11.9,53.7,12.4,54.4,12.4z"/>
	<path class="st1" d="M47.4,12.4c0.8,0,1.4-0.6,1.4-1.3c0-0.7-0.6-1.3-1.4-1.3c-0.8,0-1.4,0.6-1.4,1.3C46,11.9,46.6,12.4,47.4,12.4z
		"/>
	<path class="st1" d="M60.8,53.2c-0.1,2.3-0.2,4.7-0.5,7h0c0.7,0,1.2,0.5,1.2,1.1v2.6c0,0.6-0.5,1.1-1.2,1.1h-5.8v2.2
		c0,1.1,1.1,1.9,2.4,1.9h2.9c1.3,0,2.4-0.9,2.4-1.9V55C62.3,54.2,61.7,53.5,60.8,53.2z"/>
	<g>
		<path class="st1" d="M34,25.6h17.7c-0.5,0-0.9-0.1-1.4-0.1c-1.6-0.1-3.2-0.1-4.8-0.1c-1.6,0-3.2,0-4.8,0c-1.6,0-3.2,0-4.8,0.1
			C35.3,25.6,34.6,25.6,34,25.6z"/>
		<path class="st1" d="M65.1,33.4c-0.5-0.1-1-0.3-1.5-0.4v-0.4c0.6,0,1.1-0.4,1.1-1v-4.3c0-0.6-0.5-1-1.1-1h0
			c-0.1-0.5-0.6-0.9-1.2-0.9h-2c-0.1-0.3-0.3-0.5-0.6-0.6c-0.1,0-0.2-0.1-0.3-0.1H45.5c1.6,0.1,3.2,0.1,4.8,0.2
			c1.6,0.1,3.2,0.3,4.8,0.5c0.2,0,0.5,0.1,0.7,0.1h2.3c0.5,0,1,0.4,1,1c0,0,0.1,0,0.1,0c0.1,0.1,0.2,0.1,0.2,0.2
			c0.1,0.1,0.1,0.2,0.1,0.3c0-0.1-0.1-0.2-0.1-0.3c-0.1-0.1-0.1-0.1-0.2-0.2c0,0,0,0,0,0v8.8c0,0.6-0.5,1-1,1H22.9c-0.6,0-1-0.5-1-1
			v-8c0,0,0,0,0,0c0,0,0,0,0,0v-0.9c0-0.6,0.5-1,1-1h4.4c1.3-0.2,2.5-0.3,3.8-0.5c1.6-0.2,3.2-0.2,4.8-0.3c0.9,0,1.9-0.1,2.8-0.1
			H21.6c-0.1,0-0.2,0-0.3,0.1c-0.3,0.1-0.5,0.3-0.6,0.6h-2c-0.6,0-1.1,0.4-1.2,0.9h0c-0.6,0-1.1,0.4-1.1,1v4.3c0,0.6,0.5,1,1.1,1V33
			c-0.5,0.1-1,0.3-1.5,0.4c-0.4,0.1-0.7,0.6-0.7,1.1c0,0.4,0,0.7,0,1.1c0,0.5,0.2,1,0.7,1.1c0.5,0.1,1,0.3,1.5,0.4v0.4
			c0,0.7,0.6,1.2,1.3,1.2h0.5c0-0.2,0.1-0.3,0.1-0.5h-0.6c-0.4,0-0.7-0.3-0.7-0.7v-0.3c0,0,0.1,0,0.1,0c0.4,0.1,0.9-0.5,1-1.4
			c0-0.6,0-1.3,0-1.9c-0.1-0.9-0.6-1.5-1-1.4c0,0-0.1,0-0.1,0v-0.2H18c0.6,0,1.1-0.4,1.1-1v-4.3c0-0.6-0.5-1-1.1-1h0
			c0.1-0.3,0.4-0.4,0.7-0.4h2v10.5c0,0.4,0.3,0.7,0.7,0.8c0.1,0,0.2,0,0.3,0h37.9c0.1,0,0.2,0,0.3,0c0.4-0.1,0.7-0.4,0.7-0.8V25.9h2
			c0.3,0,0.6,0.2,0.7,0.4h0c-0.6,0-1.1,0.4-1.1,1v4.3c0,0.6,0.5,1,1.1,1h0.1v0.2c0,0-0.1,0-0.1,0c-0.4-0.1-0.9,0.5-1,1.4
			c0,0.6,0,1.3,0,1.9c0.1,0.9,0.6,1.5,1,1.4c0,0,0.1,0,0.1,0v0.3c0,0.4-0.3,0.7-0.7,0.7h-0.3c0,0,0,0,0,0c0,0.2,0.1,0.3,0.1,0.5h0.2
			c0.7,0,1.3-0.5,1.3-1.2v-0.4c0.5-0.1,1-0.3,1.5-0.4c0.4-0.1,0.7-0.6,0.7-1.1c0-0.4,0-0.7,0-1.1C65.8,34,65.6,33.5,65.1,33.4z"/>
	</g>
	<path class="st1" d="M60.5,51.9c0.6,0,1.1-0.2,1.1-0.4c0.8-4.5,0.8-9.1,0-13.6c0-0.2-0.5-0.4-1.1-0.4c-0.4,0-0.8,0-1.2,0
		c-0.1,0-0.2,0.1-0.4,0.1H40.9h-0.3H22.5c-0.1,0-0.3,0-0.4-0.1c-0.4,0-0.8,0-1.2,0c-0.6,0-1.1,0.2-1.1,0.4c-0.8,4.5-0.8,9.1,0,13.6
		c0,0.2,0.5,0.4,1.1,0.4c3.5,0.1,7.1,0.1,10.6,0.2l0.1,0.2c-3.6,0-7.1-0.1-10.7-0.2c0,0,0,0,0,0c0.1,2.7,0.2,5.4,0.5,8.1h19.2h0.3
		h19.2c0.3-2.7,0.5-5.4,0.5-8.1c0,0,0,0,0,0c-3.5,0.1-7.1,0.1-10.7,0.2l0.1-0.2C53.5,52.1,57,52,60.5,51.9z M28.6,59.3h-6
		c-0.4,0-0.7-0.3-0.7-0.6c0,0,0-0.1,0-0.2c0-0.3,0-0.8,0.2-1c0,0,0.1-0.1,0.1-0.1c2.6,0.3,6.8,1,7,1.2
		C29.2,59.1,28.9,59.3,28.6,59.3z M31.4,56.3c-0.1,0.4-1,0.6-2.2,0.6h0l-6.4,0l0,0c-0.5,0-1-0.7-1-1.2l-0.1-2c0-0.1,0.1-0.3,0.3-0.5
		c0.2-0.2,0.6-0.4,1.4-0.4c1.4,0,3.5,0.7,6.2,2C31.2,55.5,31.5,56,31.4,56.3z M59.5,58.6c0,0.1,0,0.1,0,0.2c0,0.3-0.3,0.6-0.7,0.6
		h-6c-0.4,0-0.7-0.3-0.7-0.6c0.2-0.3,4.4-0.9,7-1.2c0.1,0,0.1,0,0.1,0.1C59.5,57.7,59.5,58.2,59.5,58.6z M52,54.6
		c2.7-1.3,4.7-2,6.2-2c0.8,0,1.2,0.2,1.4,0.4c0.2,0.2,0.3,0.4,0.3,0.5l-0.1,2c0,0.5-0.5,1.2-1,1.2l0,0l-6.4,0h0
		c-1.3,0-2.1-0.2-2.2-0.6C50,56,50.2,55.5,52,54.6z M48.2,58.3c-0.1,0.6-0.5,0.9-0.6,0.9h-6.7h-0.3h-6.7c-0.2,0-0.5-0.4-0.6-0.9
		L29.5,41c0-0.1,0-0.2,0-0.3l-8.7-2.5l9.4,1.9h10.4h0.3h10.4l9.4-1.9l-8.8,2.5c0,0.1,0,0.2,0,0.2L48.2,58.3z"/>
	<path class="st1" d="M61.3,63.9v-2.6c0-0.5-0.4-0.9-0.9-0.9H40.9h-0.3H21c-0.5,0-0.9,0.4-0.9,0.9v2.6c0,0.5,0.4,0.9,0.9,0.9h19.5
		h0.3h19.5C60.9,64.8,61.3,64.4,61.3,63.9z"/>
	<path class="st1" d="M49.7,42.9h-8.8h-0.3h-8.8c-0.4,0-0.8,0.2-0.8,0.4c0,0.2,0.3,0.4,0.8,0.4h8.8h0.3h8.8c0.4,0,0.8-0.2,0.8-0.4
		C50.4,43.1,50.1,42.9,49.7,42.9z"/>
	<path class="st1" d="M49.3,44.6h-8.5h-0.3h-8.5c-0.4,0-0.7,0.2-0.7,0.4c0,0.2,0.3,0.4,0.7,0.4h8.5h0.3h8.5c0.4,0,0.7-0.2,0.7-0.4
		C50,44.8,49.7,44.6,49.3,44.6z"/>
	<path class="st1" d="M49,46.2h-8.1h-0.3h-8.1c-0.4,0-0.7,0.2-0.7,0.4c0,0.2,0.3,0.4,0.7,0.4h8.1h0.3H49c0.4,0,0.7-0.2,0.7-0.4
		C49.7,46.4,49.3,46.2,49,46.2z"/>
	<path class="st1" d="M48.6,47.8h-7.8h-0.3h-7.8c-0.4,0-0.7,0.2-0.7,0.4c0,0.2,0.3,0.4,0.7,0.4h7.8h0.3h7.8c0.4,0,0.7-0.2,0.7-0.4
		C49.3,48,49,47.8,48.6,47.8z"/>
	<path class="st1" d="M48.3,49.4h-7.4h-0.3h-7.4c-0.4,0-0.7,0.2-0.7,0.4c0,0.2,0.3,0.4,0.7,0.4h7.4h0.3h7.4c0.4,0,0.7-0.2,0.7-0.4
		C48.9,49.6,48.7,49.4,48.3,49.4z"/>
	<path class="st1" d="M48,51h-7.1h-0.3h-7.1c-0.3,0-0.6,0.2-0.6,0.4c0,0.2,0.3,0.4,0.6,0.4h7.1h0.3H48c0.3,0,0.6-0.2,0.6-0.4
		C48.6,51.2,48.3,51,48,51z"/>
	<path class="st1" d="M47.7,52.7h-6.8h-0.3h-6.8c-0.3,0-0.6,0.2-0.6,0.4c0,0.2,0.3,0.4,0.6,0.4h6.8h0.3h6.8c0.3,0,0.6-0.2,0.6-0.4
		C48.3,52.8,48,52.7,47.7,52.7z"/>
	<path class="st1" d="M47.4,54.3h-6.5h-0.3H34c-0.3,0-0.6,0.2-0.6,0.4c0,0.2,0.3,0.4,0.6,0.4h6.5h0.3h6.5c0.3,0,0.6-0.2,0.6-0.4
		C48,54.5,47.7,54.3,47.4,54.3z"/>
	<path class="st1" d="M47.1,55.9h-6.3h-0.3h-6.3c-0.3,0-0.6,0.2-0.6,0.4c0,0.2,0.2,0.4,0.6,0.4h6.3h0.3h6.3c0.3,0,0.6-0.2,0.6-0.4
		C47.7,56.1,47.4,55.9,47.1,55.9z"/>
	<path class="st1" d="M46.8,57.5h-6h-0.3h-6c-0.3,0-0.5,0.2-0.5,0.4c0,0.2,0.2,0.4,0.5,0.4h6h0.3h6c0.3,0,0.5-0.2,0.5-0.4
		C47.4,57.7,47.1,57.5,46.8,57.5z"/>
	<path class="st1" d="M26.6,12.5v0.7c0.2,0,0.5,0,0.7,0v-0.7c-0.1,0-0.2,0-0.4,0C26.9,12.6,26.8,12.6,26.6,12.5z"/>
	<path class="st1" d="M30.2,12.5v0.6c0.2,0,0.5,0,0.7,0v-0.6c-0.1,0-0.2,0-0.4,0C30.4,12.6,30.3,12.6,30.2,12.5z"/>
	<path class="st1" d="M33.7,12.5V13c0.2,0,0.5,0,0.7,0v-0.5c-0.1,0-0.2,0-0.4,0C33.9,12.6,33.8,12.6,33.7,12.5z"/>
	<path class="st1" d="M30.5,12.4c0.8,0,1.4-0.6,1.4-1.3c0-0.7-0.6-1.3-1.4-1.3c-0.8,0-1.4,0.6-1.4,1.3
		C29.1,11.9,29.8,12.4,30.5,12.4z"/>
	<path class="st1" d="M27,12.4c0.8,0,1.4-0.6,1.4-1.3c0-0.7-0.6-1.3-1.4-1.3c-0.8,0-1.4,0.6-1.4,1.3C25.6,11.9,26.2,12.4,27,12.4z"
		/>
	<path class="st1" d="M34.1,12.4c0.8,0,1.4-0.6,1.4-1.3c0-0.7-0.6-1.3-1.4-1.3c-0.8,0-1.4,0.6-1.4,1.3
		C32.7,11.9,33.3,12.4,34.1,12.4z"/>
	<path class="st1" d="M19.8,63.9v-2.6c0-0.6,0.5-1.1,1.2-1.1h0c-0.3-2.3-0.4-4.7-0.5-7c-0.9,0.3-1.5,1-1.5,1.8v12.2
		c0,1.1,1.1,1.9,2.4,1.9h2.9c1.3,0,2.4-0.9,2.4-1.9v-2.2H21C20.4,65.1,19.8,64.6,19.8,63.9z"/>
	<path class="st1" d="M20.4,24.5c0.1,0,0.2,0,0.3,0c0.5,0,0.9,0,1.4,0c0.1,0,0.3-0.1,0.4-0.1h18.1h0.3H59c0.1,0,0.3,0,0.4,0.1
		c0.5,0,0.9,0,1.4,0c0.1,0,0.2,0,0.3,0c0.3,0,0.6-0.1,0.6-0.2c0,0,0,0,0-0.1c-0.4-3-2-6.3-5.2-10.3c-0.1-0.1-0.4-0.3-0.7-0.3
		c-0.1,0-0.2,0-0.3,0c-5-0.2-9.8-0.3-14.6-0.3c0,0-0.1,0-0.1,0c0,0-0.1,0-0.1,0c-4.8,0-9.6,0.1-14.6,0.3c-0.1,0-0.2,0-0.3,0
		c-0.3,0.1-0.6,0.2-0.7,0.3c-3.2,4-4.8,7.3-5.2,10.3c0,0,0,0,0,0.1C19.8,24.4,20.1,24.5,20.4,24.5z M55.1,14.6
		c0.1-0.1,0.2-0.2,0.4-0.2c0.3,0,1,0.3,2,1.7c1.2,1.7,1.8,2.9,1.6,3.2c0,0-0.1,0.1-0.2,0.1l0,0c-1.1,0-2.6-0.2-2.7-0.4
		c-0.1-0.2-1.3-3.8-1.3-3.8C54.8,15.1,54.9,14.8,55.1,14.6z M24,16.2c1-1.4,1.6-1.7,2-1.7c0.1,0,0.3,0.1,0.4,0.2
		c0.2,0.2,0.2,0.5,0.2,0.6c0,0-1.2,3.6-1.3,3.8c-0.1,0.2-1.6,0.4-2.7,0.4l0,0c-0.1,0-0.2,0-0.2-0.1C22.2,19.1,22.7,17.9,24,16.2z"/>
	<rect x="18.5" y="63.5" class="st1" width="0.4" height="0.7"/>
	<rect x="18.5" y="62.4" class="st1" width="0.4" height="0.7"/>
	<rect x="18.5" y="61" class="st1" width="0.4" height="0.7"/>
	<rect x="18.5" y="59.5" class="st1" width="0.4" height="0.7"/>
	<rect x="18.5" y="58.4" class="st1" width="0.4" height="0.7"/>
	<rect x="62.6" y="63.5" class="st1" width="0.4" height="0.7"/>
	<rect x="62.6" y="62.4" class="st1" width="0.4" height="0.7"/>
	<rect x="62.6" y="61" class="st1" width="0.4" height="0.7"/>
	<rect x="62.6" y="59.5" class="st1" width="0.4" height="0.7"/>
	<rect x="62.6" y="58.4" class="st1" width="0.4" height="0.7"/>
</g>
</svg>
