<?xml version="1.0" encoding="utf-8"?>
<!-- Generator: Adobe Illustrator 23.0.0, SVG Export Plug-In . SVG Version: 6.00 Build 0)  -->
<svg version="1.1" id="Capa_1" xmlns="http://www.w3.org/2000/svg" xmlns:xlink="http://www.w3.org/1999/xlink" x="0px" y="0px"
	 viewBox="0 0 55.7 58.2" style="enable-background:new 0 0 55.7 58.2;" xml:space="preserve">
<style type="text/css">
	.st0{fill:#155079;}
</style>
<path class="st0" d="M47.8,15.7c0,0,0.9,0,1.4,0.2h-0.1v-4.3c0-0.6-0.5-1-1-1H21.5l0.1,0.2l2,4.9L47.8,15.7z"/>
<path class="st0" d="M48.3,17.6c-0.5-0.1-1.4-0.2-1.4-0.2H22.6l-2-4.9l-0.8-2.1H8.2c-1.2,0-2.2,1-2.2,2.2v30.2C6,44,7,45,8.2,45
	h41.2c1.2,0,2.2-1,2.2-2.2V22C51.7,19.9,50.3,18.1,48.3,17.6z M51.2,41.7H6.5V40h44.7V41.7z"/>
</svg>
