<?xml version="1.0" encoding="utf-8"?>
<!-- Generator: Adobe Illustrator 23.0.0, SVG Export Plug-In . SVG Version: 6.00 Build 0)  -->
<svg version="1.1" id="Capa_1" xmlns="http://www.w3.org/2000/svg" xmlns:xlink="http://www.w3.org/1999/xlink" x="0px" y="0px"
	 viewBox="0 0 72.4 91.1" style="enable-background:new 0 0 72.4 91.1;" xml:space="preserve">
<style type="text/css">
	.st0{fill:url(#SVGID_1_);}
	.st1{fill:#FFFFFF;}
	.st2{fill:#065F87;}
</style>
<g>
	<g>
		<linearGradient id="SVGID_1_" gradientUnits="userSpaceOnUse" x1="2.0882" y1="41.7192" x2="61.1209" y2="41.7192">
			<stop  offset="0" style="stop-color:#006098"/>
			<stop  offset="0.3015" style="stop-color:#0082CB"/>
			<stop  offset="0.5902" style="stop-color:#007ABE"/>
			<stop  offset="1" style="stop-color:#00649E"/>
		</linearGradient>
		<path class="st0" d="M57,46.7c2.6-4.8,4.4-9.7,4.1-15.7C60.4,15.8,48,3.6,32.8,3C15.9,2.4,2.1,15.8,2.1,32.5
			c0,8.6,4,14.7,8.6,21.5c5,7.5,10.1,14.9,15.1,22.4c1,1.6,2.2,3.2,4,3.8c2,0.7,4.3-0.1,5.9-1.5c2.5-2.1,4.1-5.6,5.9-8.3
			c4.1-6.1,8.5-12.3,12.5-18.6C55.1,50.2,56.1,48.5,57,46.7z"/>
		<ellipse class="st1" cx="31.6" cy="31.8" rx="22.4" ry="22.4"/>
	</g>
</g>
<g>
	<g>
		<g>
			<g>
				<path class="st2" d="M46.4,45.1l-2.6-2.6c0.5-0.9,0.9-1.9,0.9-3c0-3.1-2.5-5.5-5.5-5.5c-3.1,0-5.5,2.5-5.5,5.5
					c0,3.1,2.5,5.5,5.5,5.5c1.1,0,2.1-0.3,3-0.9l2.6,2.6c0.2,0.2,0.5,0.4,0.9,0.4c0.3,0,0.6-0.1,0.9-0.4
					C46.9,46.3,46.9,45.6,46.4,45.1z M39.1,43.3c-2.1,0-3.8-1.7-3.8-3.8s1.7-3.8,3.8-3.8s3.8,1.7,3.8,3.8S41.2,43.3,39.1,43.3z"/>
			</g>
		</g>
		<g>
			<g>
				<path class="st2" d="M33.3,16.6h-0.7c-0.4,0-0.7-0.3-0.7-0.7l0,0c0-0.9-0.7-1.6-1.6-1.6l0,0c-0.9,0-1.6,0.7-1.6,1.6l0,0
					c0,0.4-0.3,0.7-0.7,0.7h-0.7c-0.7,0-1.4,0.6-1.4,1.4l0,0c0,0.7,0.6,1.4,1.4,1.4h6c0.7,0,1.4-0.6,1.4-1.4l0,0
					C34.7,17.2,34.1,16.6,33.3,16.6z M30.3,16.6c-0.4,0-0.7-0.3-0.7-0.7c0-0.4,0.3-0.7,0.7-0.7s0.7,0.3,0.7,0.7
					C31,16.3,30.7,16.6,30.3,16.6z"/>
			</g>
		</g>
		<g>
			<path class="st2" d="M33.4,43.5H21.7c-1,0-1.9-0.8-1.9-1.9V19.4c0-1,0.8-1.9,1.4-1.9H25c0,0.2,0,0.3,0,0.5c0,1.3,1,2.3,2.3,2.3
				h6.1c1.3,0,2.3-1,2.3-2.3c0-0.2,0-0.3,0-0.5h2.8c1.5,0,2.3,0.8,2.3,1.9v14c-0.2,0-0.3,0-0.5,0c-0.6,0-1.3,0.1-1.9,0.2v-11H22.1
				v18.6h10.7C32.9,42,33.1,42.8,33.4,43.5z"/>
		</g>
		<g>
			<path class="st2" d="M36,30.3h-7.3c-0.3,0-0.5-0.2-0.5-0.5v-0.5c0-0.3,0.2-0.5,0.5-0.5H36c0.3,0,0.5,0.2,0.5,0.5v0.5
				C36.5,30.1,36.3,30.3,36,30.3z"/>
		</g>
		<g>
			<path class="st2" d="M36,26.2h-7.3c-0.3,0-0.5-0.2-0.5-0.5v-0.5c0-0.3,0.2-0.5,0.5-0.5H36c0.3,0,0.5,0.2,0.5,0.5v0.5
				C36.5,26,36.3,26.2,36,26.2z"/>
		</g>
		<g>
			<path class="st2" d="M33.7,34h-5c-0.3,0-0.5-0.2-0.5-0.5V33c0-0.3,0.2-0.5,0.5-0.5h5c0.3,0,0.5,0.2,0.5,0.5v0.5
				C34.2,33.8,34,34,33.7,34z"/>
		</g>
		<g>
			<path class="st2" d="M32.8,38.1h-4.1c-0.3,0-0.5-0.2-0.5-0.5v-0.5c0-0.2,0.2-0.5,0.5-0.5h4.1c0.3,0,0.5,0.2,0.5,0.5v0.5
				C33.3,37.9,33.1,38.1,32.8,38.1z"/>
		</g>
		<g>
			<path class="st2" d="M27.4,24.5l-1.7,1.9c-0.1,0.1-0.2,0.1-0.3,0.1s-0.2,0-0.3-0.1l-1-0.8c-0.2-0.1-0.2-0.4-0.1-0.6
				s0.4-0.2,0.6-0.1l0.7,0.6l1.4-1.6c0.2-0.2,0.4-0.2,0.6,0C27.5,24.1,27.6,24.4,27.4,24.5z"/>
		</g>
		<g>
			<path class="st2" d="M27.4,28.6l-1.7,1.9c-0.1,0.1-0.2,0.1-0.3,0.1s-0.2,0-0.3-0.1l-1-0.8c-0.2-0.1-0.2-0.4-0.1-0.6
				s0.4-0.2,0.6-0.1l0.7,0.6l1.4-1.6c0.2-0.2,0.4-0.2,0.6,0C27.5,28.1,27.6,28.4,27.4,28.6z"/>
		</g>
		<g>
			<path class="st2" d="M27.4,32.5l-1.7,1.9c-0.1,0.1-0.2,0.1-0.3,0.1s-0.2,0-0.3-0.1l-1-0.8c-0.2-0.1-0.2-0.4-0.1-0.6
				c0.1-0.2,0.4-0.2,0.6-0.1l0.7,0.6l1.4-1.6c0.2-0.2,0.4-0.2,0.6,0C27.5,32,27.6,32.3,27.4,32.5z"/>
		</g>
		<g>
			<path class="st2" d="M27.4,36.4l-1.7,1.9c-0.1,0.1-0.2,0.1-0.3,0.1s-0.2,0-0.3-0.1l-1-0.8c-0.2-0.1-0.2-0.4-0.1-0.6
				c0.1-0.2,0.4-0.2,0.6-0.1l0.7,0.6l1.4-1.6c0.2-0.2,0.4-0.2,0.6,0C27.5,35.9,27.6,36.2,27.4,36.4z"/>
		</g>
	</g>
</g>
</svg>
