<?xml version="1.0" encoding="utf-8"?>
<!-- Generator: Adobe Illustrator 23.0.0, SVG Export Plug-In . SVG Version: 6.00 Build 0)  -->
<svg version="1.1" id="Capa_1" xmlns="http://www.w3.org/2000/svg" xmlns:xlink="http://www.w3.org/1999/xlink" x="0px" y="0px"
	 viewBox="0 0 79.4 79.4" style="enable-background:new 0 0 79.4 79.4;" xml:space="preserve">
<style type="text/css">
	.st0{fill:none;stroke:#FFFFFF;stroke-miterlimit:10;}
	.st1{fill:#FFFFFF;}
	.st2{fill:none;stroke:#FFFFFF;stroke-width:2;stroke-miterlimit:10;}
</style>
<g>
	<g>
		<path class="st2" d="M72,54.9H6.8c-1,0-1.8-0.8-1.8-1.8V29.6c0-1,0.8-1.8,1.8-1.8H72c1,0,1.8,0.8,1.8,1.8v23.5
			C73.8,54.1,73,54.9,72,54.9z"/>
		<path class="st2" d="M72,54.9H6.8c-1,0-1.8-0.8-1.8-1.8V29.6c0-1,0.8-1.8,1.8-1.8H72c1,0,1.8,0.8,1.8,1.8v23.5
			C73.8,54.1,73,54.9,72,54.9z"/>
	</g>
	<path class="st1" d="M38.7,50.7H11.1c-0.4,0-0.7-0.3-0.7-0.7v-0.7c0-0.4,0.3-0.7,0.7-0.7h27.6c0.4,0,0.7,0.3,0.7,0.7V50
		C39.4,50.4,39.1,50.7,38.7,50.7z"/>
	<path class="st1" d="M67.9,50.7H45.7c-0.4,0-0.7-0.3-0.7-0.7v-0.7c0-0.4,0.3-0.7,0.7-0.7h22.1c0.4,0,0.7,0.3,0.7,0.7V50
		C68.5,50.4,68.2,50.7,67.9,50.7z"/>
	<circle class="st1" cx="52.9" cy="37.8" r="6.5"/>
	<path class="st1" d="M18.2,47.6h-7.1c-0.4,0-0.7-0.3-0.7-0.7v-2.6c0-0.4,0.3-0.7,0.7-0.7h7.1c0.4,0,0.7,0.3,0.7,0.7v2.6
		C19,47.2,18.7,47.6,18.2,47.6z"/>
	<path class="st1" d="M32.3,47.6h-7.1c-0.4,0-0.7-0.3-0.7-0.7v-2.6c0-0.4,0.3-0.7,0.7-0.7h7.1c0.4,0,0.7,0.3,0.7,0.7v2.6
		C33.1,47.2,32.7,47.6,32.3,47.6z"/>
	<path class="st1" d="M38.6,41.4H11.2c-0.4,0-0.7-0.3-0.7-0.7v-7.8c0-0.4,0.3-0.7,0.7-0.7h27.5c0.4,0,0.7,0.3,0.7,0.7v7.8
		C39.4,41,39,41.4,38.6,41.4z"/>
</g>
</svg>
