<?xml version="1.0" encoding="utf-8"?>
<!-- Generator: Adobe Illustrator 23.0.0, SVG Export Plug-In . SVG Version: 6.00 Build 0)  -->
<svg version="1.1" id="Capa_1" xmlns="http://www.w3.org/2000/svg" xmlns:xlink="http://www.w3.org/1999/xlink" x="0px" y="0px"
	 viewBox="0 0 104.1 95.4" style="enable-background:new 0 0 104.1 95.4;" xml:space="preserve">
<style type="text/css">
	.st0{fill:#155F86;}
	.st1{fill:#D4D4D5;}
	.st2{fill:#0E9FDB;}
	.st3{fill:#FFFFFF;}
	.st4{fill:#065F87;}
	.st5{fill:none;stroke:#FFFFFF;stroke-miterlimit:10;}
	.st6{fill:none;stroke:#155F86;stroke-width:3;stroke-miterlimit:10;}
	.st7{fill:none;stroke:#FFFFFF;stroke-width:2;stroke-miterlimit:10;}
	.st8{fill:none;stroke:#9D9D9C;stroke-width:4;stroke-miterlimit:10;}
	.st9{fill:none;stroke:#000000;stroke-width:4;stroke-miterlimit:10;}
	.st10{fill:#9D9D9C;}
	.st11{fill:url(#SVGID_1_);}
	.st12{fill:url(#SVGID_2_);}
	.st13{fill:url(#SVGID_3_);}
	.st14{fill:#010202;}
	.st15{fill:url(#SVGID_4_);}
	.st16{opacity:0.2;fill:#FFFFFF;}
	.st17{filter:url(#Adobe_OpacityMaskFilter);}
	.st18{filter:url(#Adobe_OpacityMaskFilter_1_);}
	.st19{fill:url(#SVGID_7_);}
	.st20{fill:url(#SVGID_8_);}
	.st21{fill:url(#SVGID_9_);}
	.st22{filter:url(#Adobe_OpacityMaskFilter_2_);}
	.st23{fill:url(#SVGID_11_);}
	.st24{fill:url(#SVGID_12_);}
	.st25{fill:url(#SVGID_13_);}
	.st26{filter:url(#Adobe_OpacityMaskFilter_3_);}
	.st27{clip-path:url(#SVGID_16_);fill:#FFFFFF;}
	.st28{clip-path:url(#SVGID_16_);fill:#1B6C98;}
	.st29{clip-path:url(#SVGID_16_);fill:#155F86;}
	.st30{fill:#176086;}
	.st31{clip-path:url(#SVGID_18_);fill:url(#SVGID_19_);}
	.st32{clip-path:url(#SVGID_18_);fill:url(#SVGID_20_);}
	.st33{clip-path:url(#SVGID_18_);fill:url(#SVGID_21_);}
	.st34{clip-path:url(#SVGID_18_);fill:url(#SVGID_22_);}
	.st35{fill:#EFEEEE;}
	.st36{clip-path:url(#SVGID_24_);fill:url(#SVGID_25_);}
	.st37{clip-path:url(#SVGID_24_);fill:url(#SVGID_26_);}
	.st38{clip-path:url(#SVGID_24_);fill:url(#SVGID_27_);}
	.st39{clip-path:url(#SVGID_24_);fill:url(#SVGID_28_);}
	.st40{fill:#0B5F87;}
	.st41{fill:#ECECEC;}
	.st42{fill:#106086;}
	.st43{fill-rule:evenodd;clip-rule:evenodd;fill:#FFFFFF;}
	.st44{fill:#FFFFFF;stroke:#FFFFFF;stroke-miterlimit:10;}
	.st45{fill:none;stroke:#155F86;stroke-width:5;stroke-miterlimit:10;}
	.st46{fill:none;stroke:#155F86;stroke-width:2;stroke-miterlimit:10;}
	.st47{fill:#D7D7D7;}
	.st48{fill:#5B9DD5;}
	.st49{fill:#195F86;}
	.st50{clip-path:url(#SVGID_30_);fill:#195F86;}
	.st51{clip-path:url(#SVGID_30_);fill-rule:evenodd;clip-rule:evenodd;fill:#195F86;}
	.st52{clip-path:url(#SVGID_30_);fill:#1B6187;}
</style>
<circle class="st6" cx="52.7" cy="48.2" r="44.7"/>
<g>
	<path class="st0" d="M80.4,54l-2.2-4.9c0,0-0.6-15.8-16.1-18c7.6,4.5,8.8,13.4,9,15.2c0,0.2,0.1,0.5,0.2,0.7l2,4.5
		c0.4,0.9,0.3,2-0.4,2.7c-0.7,0.8-1.6,1.3-2.3,1.7c-0.7,0.4-1.2,1.1-1.2,1.9v4.1c0,0.8-0.4,1.5-1,1.9l-0.9,0.7
		c-0.5,0.4-1.1,0.6-1.8,0.6h-3c-1.2,0-2.1,0.9-2.2,2.1L60.3,72c0,0.7-0.4,1.3-0.9,1.7l5.1,2.8c1.3,0.7,2.9-0.2,3-1.7l0.3-7.2h5.2
		c0.6,0,1.2-0.2,1.7-0.5l1-0.7c0.6-0.4,0.9-1.1,0.9-1.8v-5.6c0,0,2.2-0.7,3.6-2.2C80.7,55.9,80.8,54.9,80.4,54z"/>
	<path class="st0" d="M67.3,46.9L65.1,42c0,0-0.7-16.3-17-18.1v20.3l8.3,8.3c0.6,0.6,0.6,1.5,0,2l-0.5,0.5c-0.6,0.6-1.5,0.6-2,0
		l-8.3-8.3c-0.1-0.1-0.1-0.2-0.2-0.3c-0.8,0.8-1.9,1.3-3.1,1.3c-2.5,0-4.5-2-4.5-4.5c0-2.5,2-4.5,4.5-4.5c1.3,0,2.4,0.5,3.2,1.3
		V23.7c-4.4,0.1-15.2,1.7-17.6,15.1c0,0-0.8,10.9,5.9,14.8c0.7,0.4,1.1,1.2,1.1,2l0.1,3.1c0,1.1,0.6,2.1,1.6,2.6l14.7,8
		c1.3,0.7,2.9-0.2,3-1.7l0.3-7.2h5.2c0.6,0,1.2-0.2,1.7-0.5l1-0.7c0.6-0.4,0.9-1.1,0.9-1.8v-5.6c0,0,2.2-0.7,3.6-2.2
		C67.6,48.8,67.7,47.8,67.3,46.9z"/>
</g>
</svg>
