<?xml version="1.0" encoding="utf-8"?>
<!-- Generator: Adobe Illustrator 23.0.0, SVG Export Plug-In . SVG Version: 6.00 Build 0)  -->
<svg version="1.1" id="Capa_1" xmlns="http://www.w3.org/2000/svg" xmlns:xlink="http://www.w3.org/1999/xlink" x="0px" y="0px"
	 viewBox="0 0 38.8 39.4" style="enable-background:new 0 0 38.8 39.4;" xml:space="preserve">
<style type="text/css">
	.st0{fill:#FFFFFF;}
</style>
<g>
	<path class="st0" d="M25.3,12.3H13.6c-1.4,0-2.5,1.1-2.5,2.5v11.5c0,1.4,1.1,2.5,2.5,2.5h11.7c1.4,0,2.5-1.1,2.5-2.5V14.8
		C27.8,13.4,26.7,12.3,25.3,12.3z M19.4,26.4c-3.2,0-5.9-2.6-5.9-5.9s2.7-5.9,5.9-5.9c3.3,0,5.9,2.7,5.9,5.9
		C25.3,23.8,22.6,26.4,19.4,26.4z M25.3,15.9c-0.5,0-0.9-0.4-0.9-0.9s0.4-0.9,0.9-0.9s1,0.4,0.9,0.9C26.2,15.5,25.8,15.9,25.3,15.9z
		"/>
	<path class="st0" d="M19.4,4.2C10.3,4.2,3,11.5,3,20.6c0,9,7.3,16.4,16.4,16.4c9.1,0,16.4-7.3,16.4-16.4
		C35.8,11.5,28.5,4.2,19.4,4.2z M29.3,26.3c-0.1,2.2-1.9,4-4.1,4H13.6c-2.2,0-4-1.8-4-4V14.8c0-2.2,1.8-4,4-4h11.7c2.2,0,4,1.8,4,4
		V26.3z"/>
	<ellipse transform="matrix(0.9732 -0.2298 0.2298 0.9732 -4.2139 5.0082)" class="st0" cx="19.4" cy="20.6" rx="4.4" ry="4.4"/>
</g>
</svg>
