<?xml version="1.0" encoding="utf-8"?>
<!-- Generator: Adobe Illustrator 23.0.0, SVG Export Plug-In . SVG Version: 6.00 Build 0)  -->
<svg version="1.1" id="Capa_1" xmlns="http://www.w3.org/2000/svg" xmlns:xlink="http://www.w3.org/1999/xlink" x="0px" y="0px"
	 viewBox="0 0 72.4 91.1" style="enable-background:new 0 0 72.4 91.1;" xml:space="preserve">
<style type="text/css">
	.st0{fill:url(#SVGID_1_);}
	.st1{fill:#FFFFFF;}
	.st2{fill:url(#SVGID_2_);}
	.st3{fill:#065F87;}
</style>
<g>
	<g>
		<linearGradient id="SVGID_1_" gradientUnits="userSpaceOnUse" x1="2.0882" y1="41.7192" x2="61.1209" y2="41.7192">
			<stop  offset="0" style="stop-color:#006098"/>
			<stop  offset="0.3015" style="stop-color:#0082CB"/>
			<stop  offset="0.5902" style="stop-color:#007ABE"/>
			<stop  offset="1" style="stop-color:#00649E"/>
		</linearGradient>
		<path class="st0" d="M57,46.7c2.6-4.8,4.4-9.7,4.1-15.7C60.4,15.8,48,3.6,32.8,3C15.9,2.4,2.1,15.8,2.1,32.5
			c0,8.6,4,14.7,8.6,21.5c5,7.5,10.1,14.9,15.1,22.4c1,1.6,2.2,3.2,4,3.8c2,0.7,4.3-0.1,5.9-1.5c2.5-2.1,4.1-5.6,5.9-8.3
			c4.1-6.1,8.5-12.3,12.5-18.6C55.1,50.2,56.1,48.5,57,46.7z"/>
		<ellipse class="st1" cx="31.6" cy="31.8" rx="22.4" ry="22.4"/>
	</g>
</g>
<g>
	<g>
		<linearGradient id="SVGID_2_" gradientUnits="userSpaceOnUse" x1="-156.3824" y1="121.4839" x2="-97.3497" y2="121.4839">
			<stop  offset="0" style="stop-color:#006098"/>
			<stop  offset="0.3015" style="stop-color:#0082CB"/>
			<stop  offset="0.5902" style="stop-color:#007ABE"/>
			<stop  offset="1" style="stop-color:#00649E"/>
		</linearGradient>
		<path class="st2" d="M-101.5,126.5c2.6-4.8,4.4-9.7,4.1-15.7c-0.7-15.2-13.1-27.4-28.3-28c-16.9-0.6-30.7,12.8-30.7,29.5
			c0,8.6,4,14.7,8.6,21.5c5,7.5,10.1,14.9,15.1,22.4c1,1.6,2.2,3.2,4,3.8c2,0.7,4.3-0.1,5.9-1.5c2.5-2.1,4.1-5.6,5.9-8.3
			c4.1-6.1,8.5-12.3,12.5-18.6C-103.4,130-102.4,128.3-101.5,126.5z"/>
		<ellipse class="st1" cx="-126.9" cy="111.6" rx="22.4" ry="22.4"/>
	</g>
</g>
<g>
	<path class="st3" d="M23,20.5c-0.9,0-1.6,0.7-1.6,1.6v23c0,0.9,0.7,1.6,1.6,1.6h13.9v-3.1c0-1.3,1.1-2.4,2.4-2.4h3.4V22
		c0-0.9-0.7-1.6-1.6-1.6H23V20.5z M38.6,34.7H25.5v-1.1h13.1V34.7z M38.6,31H25.5v-1.1h13.1V31z M38.6,27.2H25.5v-1.1h13.1V27.2z"/>
	<path class="st3" d="M37.8,43.5V46l4.3-4h-2.7C38.4,42,37.8,42.7,37.8,43.5z"/>
</g>
</svg>
