<?xml version="1.0" encoding="utf-8"?>
<!-- Generator: Adobe Illustrator 23.0.0, SVG Export Plug-In . SVG Version: 6.00 Build 0)  -->
<svg version="1.1" id="Capa_1" xmlns="http://www.w3.org/2000/svg" xmlns:xlink="http://www.w3.org/1999/xlink" x="0px" y="0px"
	 viewBox="0 0 104.1 95.4" style="enable-background:new 0 0 104.1 95.4;" xml:space="preserve">
<style type="text/css">
	.st0{fill:none;stroke:#155F86;stroke-width:3;stroke-miterlimit:10;}
	.st1{fill:#D4D4D5;}
	.st2{fill:#0E9FDB;}
	.st3{fill:#FFFFFF;}
	.st4{fill:#065F87;}
	.st5{fill:#155F86;}
	.st6{fill:none;stroke:#FFFFFF;stroke-miterlimit:10;}
	.st7{fill:none;stroke:#FFFFFF;stroke-width:2;stroke-miterlimit:10;}
	.st8{fill:none;stroke:#9D9D9C;stroke-width:4;stroke-miterlimit:10;}
	.st9{fill:none;stroke:#000000;stroke-width:4;stroke-miterlimit:10;}
	.st10{fill:#9D9D9C;}
	.st11{fill:url(#SVGID_1_);}
	.st12{fill:url(#SVGID_2_);}
	.st13{fill:url(#SVGID_3_);}
	.st14{fill:#010202;}
	.st15{fill:url(#SVGID_4_);}
	.st16{opacity:0.2;fill:#FFFFFF;}
	.st17{filter:url(#Adobe_OpacityMaskFilter);}
	.st18{filter:url(#Adobe_OpacityMaskFilter_1_);}
	.st19{fill:url(#SVGID_7_);}
	.st20{fill:url(#SVGID_8_);}
	.st21{fill:url(#SVGID_9_);}
	.st22{filter:url(#Adobe_OpacityMaskFilter_2_);}
	.st23{fill:url(#SVGID_11_);}
	.st24{fill:url(#SVGID_12_);}
	.st25{fill:url(#SVGID_13_);}
	.st26{filter:url(#Adobe_OpacityMaskFilter_3_);}
	.st27{clip-path:url(#SVGID_16_);fill:#FFFFFF;}
	.st28{clip-path:url(#SVGID_16_);fill:#1B6C98;}
	.st29{clip-path:url(#SVGID_16_);fill:#155F86;}
	.st30{fill:#176086;}
	.st31{clip-path:url(#SVGID_18_);fill:url(#SVGID_19_);}
	.st32{clip-path:url(#SVGID_18_);fill:url(#SVGID_20_);}
	.st33{clip-path:url(#SVGID_18_);fill:url(#SVGID_21_);}
	.st34{clip-path:url(#SVGID_18_);fill:url(#SVGID_22_);}
	.st35{fill:#EFEEEE;}
	.st36{clip-path:url(#SVGID_24_);fill:url(#SVGID_25_);}
	.st37{clip-path:url(#SVGID_24_);fill:url(#SVGID_26_);}
	.st38{clip-path:url(#SVGID_24_);fill:url(#SVGID_27_);}
	.st39{clip-path:url(#SVGID_24_);fill:url(#SVGID_28_);}
	.st40{fill:#0B5F87;}
	.st41{fill:#ECECEC;}
	.st42{fill:#106086;}
	.st43{fill-rule:evenodd;clip-rule:evenodd;fill:#FFFFFF;}
	.st44{fill:#FFFFFF;stroke:#FFFFFF;stroke-miterlimit:10;}
	.st45{fill:none;stroke:#155F86;stroke-width:5;stroke-miterlimit:10;}
</style>
<circle class="st0" cx="52.7" cy="48.2" r="44.7"/>
<g>
	<g>
		<path class="st5" d="M84.9,62.7H20.1c-1.5,0-2.8-1.3-2.8-2.8V36.6c0-1.5,1.3-2.8,2.8-2.8h64.7c1.5,0,2.8,1.3,2.8,2.8v23.4
			C87.7,61.5,86.4,62.7,84.9,62.7z M20.1,35.8c-0.4,0-0.8,0.4-0.8,0.8v23.4c0,0.4,0.4,0.8,0.8,0.8h64.7c0.4,0,0.8-0.4,0.8-0.8V36.6
			c0-0.4-0.4-0.8-0.8-0.8H20.1z"/>
	</g>
	<g>
		<path class="st5" d="M84.9,62.7H20.1c-1.5,0-2.8-1.3-2.8-2.8V36.6c0-1.5,1.3-2.8,2.8-2.8h64.7c1.5,0,2.8,1.3,2.8,2.8v23.4
			C87.7,61.5,86.4,62.7,84.9,62.7z M20.1,35.8c-0.4,0-0.8,0.4-0.8,0.8v23.4c0,0.4,0.4,0.8,0.8,0.8h64.7c0.4,0,0.8-0.4,0.8-0.8V36.6
			c0-0.4-0.4-0.8-0.8-0.8H20.1z"/>
	</g>
</g>
<path class="st5" d="M51.8,57.5H24.4c-0.4,0-0.7-0.3-0.7-0.7v-0.7c0-0.4,0.3-0.7,0.7-0.7h27.4c0.4,0,0.7,0.3,0.7,0.7v0.7
	C52.5,57.2,52.2,57.5,51.8,57.5z"/>
<path class="st5" d="M80.8,57.5h-22c-0.4,0-0.7-0.3-0.7-0.7v-0.7c0-0.4,0.3-0.7,0.7-0.7h22c0.4,0,0.7,0.3,0.7,0.7v0.7
	C81.5,57.2,81.2,57.5,80.8,57.5z"/>
<circle class="st5" cx="66" cy="44.7" r="6.5"/>
<path class="st5" d="M31.5,54.4h-7c-0.4,0-0.7-0.3-0.7-0.7v-2.6c0-0.4,0.3-0.7,0.7-0.7h7c0.4,0,0.7,0.3,0.7,0.7v2.6
	C32.2,54.1,31.9,54.4,31.5,54.4z"/>
<path class="st5" d="M45.5,54.4h-7c-0.4,0-0.7-0.3-0.7-0.7v-2.6c0-0.4,0.3-0.7,0.7-0.7h7c0.4,0,0.7,0.3,0.7,0.7v2.6
	C46.2,54.1,45.9,54.4,45.5,54.4z"/>
<path class="st5" d="M51.8,48.3H24.5c-0.4,0-0.7-0.3-0.7-0.7v-7.7c0-0.4,0.3-0.7,0.7-0.7h27.3c0.4,0,0.7,0.3,0.7,0.7v7.7
	C52.5,47.9,52.2,48.3,51.8,48.3z"/>
</svg>
