<?xml version="1.0" encoding="utf-8"?>
<!-- Generator: Adobe Illustrator 23.0.0, SVG Export Plug-In . SVG Version: 6.00 Build 0)  -->
<svg version="1.1" id="Capa_1" xmlns="http://www.w3.org/2000/svg" xmlns:xlink="http://www.w3.org/1999/xlink" x="0px" y="0px"
	 viewBox="0 0 104.1 95.4" style="enable-background:new 0 0 104.1 95.4;" xml:space="preserve">
<style type="text/css">
	.st0{fill:#155F86;}
	.st1{fill:#D4D4D5;}
	.st2{fill:#0E9FDB;}
	.st3{fill:#FFFFFF;}
	.st4{fill:#065F87;}
	.st5{fill:none;stroke:#FFFFFF;stroke-miterlimit:10;}
	.st6{fill:none;stroke:#155F86;stroke-width:3;stroke-miterlimit:10;}
	.st7{fill:none;stroke:#FFFFFF;stroke-width:2;stroke-miterlimit:10;}
	.st8{fill:none;stroke:#9D9D9C;stroke-width:4;stroke-miterlimit:10;}
	.st9{fill:none;stroke:#000000;stroke-width:4;stroke-miterlimit:10;}
	.st10{fill:#9D9D9C;}
	.st11{fill:url(#SVGID_1_);}
	.st12{fill:url(#SVGID_2_);}
	.st13{fill:url(#SVGID_3_);}
	.st14{fill:#010202;}
	.st15{fill:url(#SVGID_4_);}
	.st16{opacity:0.2;fill:#FFFFFF;}
	.st17{filter:url(#Adobe_OpacityMaskFilter);}
	.st18{filter:url(#Adobe_OpacityMaskFilter_1_);}
	.st19{fill:url(#SVGID_7_);}
	.st20{fill:url(#SVGID_8_);}
	.st21{fill:url(#SVGID_9_);}
	.st22{filter:url(#Adobe_OpacityMaskFilter_2_);}
	.st23{fill:url(#SVGID_11_);}
	.st24{fill:url(#SVGID_12_);}
	.st25{fill:url(#SVGID_13_);}
	.st26{filter:url(#Adobe_OpacityMaskFilter_3_);}
	.st27{clip-path:url(#SVGID_16_);fill:#FFFFFF;}
	.st28{clip-path:url(#SVGID_16_);fill:#1B6C98;}
	.st29{clip-path:url(#SVGID_16_);fill:#155F86;}
	.st30{fill:#176086;}
	.st31{clip-path:url(#SVGID_18_);fill:url(#SVGID_19_);}
	.st32{clip-path:url(#SVGID_18_);fill:url(#SVGID_20_);}
	.st33{clip-path:url(#SVGID_18_);fill:url(#SVGID_21_);}
	.st34{clip-path:url(#SVGID_18_);fill:url(#SVGID_22_);}
	.st35{fill:#EFEEEE;}
	.st36{clip-path:url(#SVGID_24_);fill:url(#SVGID_25_);}
	.st37{clip-path:url(#SVGID_24_);fill:url(#SVGID_26_);}
	.st38{clip-path:url(#SVGID_24_);fill:url(#SVGID_27_);}
	.st39{clip-path:url(#SVGID_24_);fill:url(#SVGID_28_);}
	.st40{fill:#0B5F87;}
	.st41{fill:#ECECEC;}
	.st42{fill:#106086;}
	.st43{fill-rule:evenodd;clip-rule:evenodd;fill:#FFFFFF;}
	.st44{fill:#FFFFFF;stroke:#FFFFFF;stroke-miterlimit:10;}
	.st45{fill:none;stroke:#155F86;stroke-width:5;stroke-miterlimit:10;}
	.st46{fill:none;stroke:#155F86;stroke-width:2;stroke-miterlimit:10;}
</style>
<circle class="st0" cx="52.7" cy="48.2" r="44.7"/>
<g>
	<circle class="st3" cx="52.1" cy="26.9" r="7.1"/>
	<path class="st3" d="M76.7,70.3H27.4c-1,0-1.7-0.8-1.7-1.7v-2.4c0-1,0.8-1.7,1.7-1.7h49.3c1,0,1.7,0.8,1.7,1.7v2.4
		C78.4,69.6,77.7,70.3,76.7,70.3z"/>
	<path class="st3" d="M71.9,27.9H32.2c-0.5,0-1-0.4-1-1v-1.3c0-0.5,0.4-1,1-1h39.7c0.5,0,1,0.4,1,1V27
		C72.9,27.5,72.5,27.9,71.9,27.9z"/>
	<rect x="48.5" y="27.9" class="st3" width="7.2" height="39.5"/>
	<path class="st3" d="M83.9,47.9l-9.6-15.1c-0.7-1.1-2.3-1.1-3,0L61.3,48.2c-0.9,1.4-0.3,3.2,1.1,3.9c2,1.2,5.8,2,10.2,2
		c6.4,0,11.6-1.7,11.6-3.7c0,0,0,0,0,0C84.5,49.5,84.4,48.6,83.9,47.9z"/>
	<path class="st3" d="M42.6,47.9L33,32.8c-0.7-1.1-2.3-1.1-3,0L20,48.2c-0.9,1.4-0.3,3.2,1.1,3.9c2,1.2,5.8,2,10.2,2
		c6.4,0,11.6-1.7,11.6-3.7c0,0,0,0,0,0C43.1,49.5,43.1,48.6,42.6,47.9z"/>
</g>
</svg>
