<?xml version="1.0" encoding="utf-8"?>
<!-- Generator: Adobe Illustrator 23.0.0, SVG Export Plug-In . SVG Version: 6.00 Build 0)  -->
<svg version="1.1" id="Capa_1" xmlns="http://www.w3.org/2000/svg" xmlns:xlink="http://www.w3.org/1999/xlink" x="0px" y="0px"
	 viewBox="0 0 79.4 79.4" style="enable-background:new 0 0 79.4 79.4;" xml:space="preserve">
<style type="text/css">
	.st0{fill:none;stroke:#FFFFFF;stroke-miterlimit:10;}
	.st1{fill:#FFFFFF;}
	.st2{fill:none;stroke:#FFFFFF;stroke-width:2;stroke-miterlimit:10;}
</style>
<g>
	<polygon class="st1" points="39.9,69.6 41.3,73.5 45.3,73.5 42.4,75.7 43.2,79.9 39.9,77.5 36.6,79.9 37.4,75.7 34.6,73.5 
		38.6,73.5 	"/>
	<polygon class="st1" points="39.9,1.1 41.3,5 45.3,5 42.4,7.2 43.2,11.4 39.9,9 36.6,11.4 37.4,7.2 34.6,5 38.6,5 	"/>
	<polygon class="st1" points="56.4,5.5 57.8,9.4 61.8,9.4 58.9,11.6 59.7,15.8 56.4,13.4 53.1,15.8 53.9,11.6 51.1,9.4 55.1,9.4 	
		"/>
	<polygon class="st1" points="22.6,5.5 24,9.4 28,9.4 25.1,11.6 25.9,15.8 22.6,13.4 19.3,15.8 20.1,11.6 17.3,9.4 21.3,9.4 	"/>
	<polygon class="st1" points="56.4,65 57.8,68.9 61.8,68.9 58.9,71.1 59.7,75.3 56.4,72.9 53.1,75.2 53.9,71.1 51.1,68.9 55.1,68.9 
			"/>
	<polygon class="st1" points="22.6,65 24,68.9 28,68.9 25.1,71.1 25.9,75.3 22.6,72.9 19.3,75.2 20.1,71.1 17.3,68.9 21.3,68.9 	"/>
	<polygon class="st1" points="10,18.4 11.3,22.4 15.4,22.4 12.5,24.5 13.3,28.8 10,26.4 6.7,28.7 7.5,24.5 4.6,22.3 8.7,22.3 	"/>
	<polygon class="st1" points="69.5,18.4 70.8,22.4 74.9,22.4 72,24.5 72.8,28.8 69.5,26.4 66.2,28.7 67,24.5 64.1,22.3 68.2,22.3 	
		"/>
	<polygon class="st1" points="10,52.6 11.3,56.5 15.4,56.5 12.5,58.7 13.3,63 10,60.6 6.7,62.9 7.5,58.7 4.6,56.5 8.7,56.5 	"/>
	<polygon class="st1" points="69.5,52.6 70.8,56.5 74.9,56.5 72,58.7 72.8,63 69.5,60.6 66.2,62.9 67,58.7 64.1,56.5 68.2,56.5 	"/>
	<polygon class="st1" points="6.1,35.4 7.4,39.3 11.5,39.3 8.6,41.5 9.4,45.7 6.1,43.3 2.8,45.7 3.6,41.5 0.7,39.3 4.8,39.3 	"/>
	<polygon class="st1" points="73.8,35.4 75.2,39.3 79.2,39.3 76.3,41.5 77.1,45.7 73.8,43.3 70.5,45.7 71.3,41.5 68.5,39.3 
		72.5,39.3 	"/>
</g>
</svg>
