<?xml version="1.0" encoding="utf-8"?>
<!-- Generator: Adobe Illustrator 23.0.0, SVG Export Plug-In . SVG Version: 6.00 Build 0)  -->
<svg version="1.1" id="Capa_1" xmlns="http://www.w3.org/2000/svg" xmlns:xlink="http://www.w3.org/1999/xlink" x="0px" y="0px"
	 viewBox="0 0 79.4 79.4" style="enable-background:new 0 0 79.4 79.4;" xml:space="preserve">
<style type="text/css">
	.st0{fill:none;stroke:#FFFFFF;stroke-miterlimit:10;}
	.st1{fill:#FFFFFF;}
	.st2{fill:none;stroke:#FFFFFF;stroke-width:2;stroke-miterlimit:10;}
</style>
<g id="g">
	<g id="g_1_">
		<path id="s_4_" class="st1" d="M33.1,50.5c0,0.2,0.1,0.3,0.2,0.4c0.1,0.1,0.3,0.2,0.5,0.2h4.4c0-0.5,0.1-1,0.3-1.5h-5.5V50.5z"/>
		<path id="s_3_" class="st1" d="M46.9,51.1h11.8c0-0.5,0.1-1,0.3-1.5H46.6C46.8,50.1,46.9,50.6,46.9,51.1z"/>
		<path id="s_2_" class="st1" d="M71,38.5c-1.2-1.1-2.8-2-4.3-2.2c-1.5-0.2-4.4-0.2-4.4-0.2v11.2c0.2,0,0.5-0.1,0.7-0.1
			c2.4,0,4.3,1.8,4.3,3.9H71c0.5,0,0.9-0.2,1.3-0.5c0.4-0.3,0.5-0.7,0.5-1.1v-7.1C72.8,41,72.2,39.6,71,38.5z M71.5,43.8
			c0,0.2-0.1,0.3-0.2,0.4c-0.2,0.1-0.3,0.2-0.5,0.1l-6.4-1.2c-0.1,0-0.3-0.1-0.4-0.2c-0.1-0.1-0.1-0.2-0.1-0.4v-5c0,0,2.2,0,3.3,0.2
			c1.1,0.1,2.3,0.8,3.1,1.6c0.9,0.8,1.3,1.8,1.3,2.9V43.8z"/>
		<path id="s_1_" class="st1" d="M45.7,49.3c-0.1-0.1-0.1-0.1-0.2-0.2c-0.7-0.8-1.7-1.3-2.9-1.3c-1.2,0-2.2,0.5-2.9,1.3
			c-0.1,0.1-0.1,0.1-0.2,0.2c-0.1,0.1-0.2,0.2-0.2,0.4c-0.3,0.5-0.4,1-0.4,1.5c0,1.9,1.7,3.3,3.7,3.3c2,0,3.7-1.5,3.7-3.3
			c0-0.5-0.1-1.1-0.4-1.5C45.8,49.5,45.7,49.4,45.7,49.3z M42.6,52.9c-1.1,0-1.9-0.8-1.9-1.7c0-0.6,0.4-1.2,1-1.5
			c0.3-0.1,0.6-0.2,1-0.2c0.3,0,0.7,0.1,1,0.2c0.6,0.3,1,0.9,1,1.5C44.5,52.1,43.6,52.9,42.6,52.9z"/>
		<path id="s" class="st1" d="M63,47.8c-0.2,0-0.5,0-0.7,0.1c-0.3,0.1-0.6,0.1-0.9,0.3c-0.6,0.3-1.1,0.7-1.5,1.2
			c-0.4,0.5-0.6,1.2-0.6,1.9c0,1.9,1.7,3.3,3.7,3.3s3.7-1.5,3.7-3.3C66.7,49.3,65.1,47.8,63,47.8z M63,52.9c-1.1,0-1.9-0.8-1.9-1.7
			c0-0.4,0.1-0.7,0.3-1c0.2-0.3,0.5-0.5,0.9-0.6c0.2-0.1,0.5-0.1,0.7-0.1c1.1,0,1.9,0.8,1.9,1.7C64.9,52.1,64.1,52.9,63,52.9z"/>
		<g>
			<rect x="33.1" y="32" class="st1" width="28.4" height="1.5"/>
			<path class="st1" d="M61.4,47.5c-0.9,0.3-1.6,0.9-2.1,1.6H46.3c-0.8-1.1-2.1-1.8-3.7-1.8c-1.5,0-2.9,0.7-3.7,1.8h-5.8V33.9h28.4
				V47.5z"/>
		</g>
	</g>
</g>
<g>
	<path class="st1" d="M23.5,26.8c-0.8,0-1,0.1-1.6,0.6c-1.2,1.1-1.1,1.6,0.2,4.4c3.1,6.3,3.1,12.5-0.1,18.9c-0.9,1.7-1,2.3-0.9,2.7
		c0.2,0.8,0.8,1.5,1.5,1.9c0.3,0.1,0.9,0.2,1.2,0.2c1.1-0.2,1.7-0.8,2.8-3c2-4,2.7-7,2.7-11.3c0-4.2-0.7-7.5-2.6-11.3
		C25.5,27.5,24.8,26.8,23.5,26.8z"/>
	<path class="st1" d="M14.3,31.4c-1.4,0.3-2.4,1.7-2,2.9c0.1,0.3,0.5,1,0.8,1.7c1.1,1.8,1.4,2.8,1.4,5.2c0,2.4-0.3,3.4-1.4,5.2
		c-0.9,1.4-1,2-0.8,2.8c0.2,0.7,0.9,1.5,1.4,1.7c1.3,0.5,2.5-0.1,3.5-1.7c3-4.7,3-11.1,0-15.8C16.2,31.6,15.5,31.1,14.3,31.4z"/>
	<path class="st1" d="M34.3,22.7c-1-0.9-2.8-0.7-3.6,0.3c-0.8,1.1-0.7,1.5,0.6,4.3c0.6,1.2,1.1,2.3,1.5,3.4h5.2
		c-0.1-0.2-0.1-0.4-0.2-0.5C37.1,27.7,35,23.3,34.3,22.7z"/>
	<path class="st1" d="M32.5,52.5c-0.3,0.7-0.6,1.5-1,2.2c-0.6,1.2-1.1,2.4-1.2,2.7c-0.3,1.1,0.5,2.5,1.7,2.9c1.7,0.5,3-0.8,4.8-4.9
		c0.2-0.5,0.4-1,0.6-1.4c-0.3-0.4-0.5-0.9-0.6-1.4H32.5z"/>
	<path class="st1" d="M43.7,30.7h5.1c-0.9-3.6-2.1-7.1-3.8-10.4c-0.6-1.1-1.2-2.2-1.5-2.5c-0.7-0.6-2.1-0.7-2.9-0.2
		c-0.6,0.4-1.2,1.4-1.2,2.1c0,0.2,0.6,1.5,1.2,2.8C42,25.4,43,28,43.7,30.7z"/>
	<path class="st1" d="M43.1,56c-0.2,0-0.5,0-0.7-0.1c-0.6,1.5-1.2,3-2,4.5c-0.8,1.6-0.9,2-0.8,2.5c0.2,0.9,0.9,1.8,1.7,2
		c0.3,0.1,0.7,0.1,0.9,0.1c0.1,0,0.4-0.1,0.5-0.1c0.7,0,1.6-1.1,2.9-3.9c1.4-2.8,2.4-5.7,3.2-8.6H47C46.7,54.5,45.1,56,43.1,56z"/>
</g>
</svg>
