<?xml version="1.0" encoding="utf-8"?>
<!-- Generator: Adobe Illustrator 23.0.0, SVG Export Plug-In . SVG Version: 6.00 Build 0)  -->
<svg version="1.1" id="Capa_1" xmlns="http://www.w3.org/2000/svg" xmlns:xlink="http://www.w3.org/1999/xlink" x="0px" y="0px"
	 viewBox="0 0 104.1 95.4" style="enable-background:new 0 0 104.1 95.4;" xml:space="preserve">
<style type="text/css">
	.st0{fill:#155F86;}
	.st1{fill:#D4D4D5;}
	.st2{fill:#0E9FDB;}
	.st3{fill:#FFFFFF;}
	.st4{fill:#065F87;}
	.st5{fill:none;stroke:#FFFFFF;stroke-miterlimit:10;}
	.st6{fill:none;stroke:#155F86;stroke-width:3;stroke-miterlimit:10;}
	.st7{fill:none;stroke:#FFFFFF;stroke-width:2;stroke-miterlimit:10;}
	.st8{fill:none;stroke:#9D9D9C;stroke-width:4;stroke-miterlimit:10;}
	.st9{fill:none;stroke:#000000;stroke-width:4;stroke-miterlimit:10;}
	.st10{fill:#9D9D9C;}
	.st11{fill:url(#SVGID_1_);}
	.st12{fill:url(#SVGID_2_);}
	.st13{fill:url(#SVGID_3_);}
	.st14{fill:#010202;}
	.st15{fill:url(#SVGID_4_);}
	.st16{opacity:0.2;fill:#FFFFFF;}
	.st17{filter:url(#Adobe_OpacityMaskFilter);}
	.st18{filter:url(#Adobe_OpacityMaskFilter_1_);}
	.st19{fill:url(#SVGID_7_);}
	.st20{fill:url(#SVGID_8_);}
	.st21{fill:url(#SVGID_9_);}
	.st22{filter:url(#Adobe_OpacityMaskFilter_2_);}
	.st23{fill:url(#SVGID_11_);}
	.st24{fill:url(#SVGID_12_);}
	.st25{fill:url(#SVGID_13_);}
	.st26{filter:url(#Adobe_OpacityMaskFilter_3_);}
	.st27{clip-path:url(#SVGID_16_);fill:#FFFFFF;}
	.st28{clip-path:url(#SVGID_16_);fill:#1B6C98;}
	.st29{clip-path:url(#SVGID_16_);fill:#155F86;}
	.st30{fill:#176086;}
	.st31{clip-path:url(#SVGID_18_);fill:url(#SVGID_19_);}
	.st32{clip-path:url(#SVGID_18_);fill:url(#SVGID_20_);}
	.st33{clip-path:url(#SVGID_18_);fill:url(#SVGID_21_);}
	.st34{clip-path:url(#SVGID_18_);fill:url(#SVGID_22_);}
	.st35{fill:#EFEEEE;}
	.st36{clip-path:url(#SVGID_24_);fill:url(#SVGID_25_);}
	.st37{clip-path:url(#SVGID_24_);fill:url(#SVGID_26_);}
	.st38{clip-path:url(#SVGID_24_);fill:url(#SVGID_27_);}
	.st39{clip-path:url(#SVGID_24_);fill:url(#SVGID_28_);}
	.st40{fill:#0B5F87;}
	.st41{fill:#ECECEC;}
	.st42{fill:#106086;}
	.st43{fill-rule:evenodd;clip-rule:evenodd;fill:#FFFFFF;}
	.st44{fill:#FFFFFF;stroke:#FFFFFF;stroke-miterlimit:10;}
	.st45{fill:none;stroke:#155F86;stroke-width:5;stroke-miterlimit:10;}
	.st46{fill:none;stroke:#155F86;stroke-width:2;stroke-miterlimit:10;}
</style>
<circle class="st6" cx="52.7" cy="48.2" r="44.7"/>
<g>
	<path class="st0" d="M33.2,72.3c-7.4,0-13.4-5.7-13.4-12.7c0-7,6-12.7,13.4-12.7s13.4,5.7,13.4,12.7C46.6,66.6,40.6,72.3,33.2,72.3
		z M33.2,47.9c-6.8,0-12.4,5.2-12.4,11.7s5.6,11.7,12.4,11.7s12.4-5.2,12.4-11.7S40.1,47.9,33.2,47.9z"/>
</g>
<g>
	<path class="st0" d="M69.7,78.2c-7.4,0-13.4-5.7-13.4-12.7c0-7,6-12.7,13.4-12.7c7.4,0,13.4,5.7,13.4,12.7
		C83.1,72.5,77,78.2,69.7,78.2z M69.7,53.8c-6.8,0-12.4,5.2-12.4,11.7s5.6,11.7,12.4,11.7c6.8,0,12.4-5.2,12.4-11.7
		S76.5,53.8,69.7,53.8z"/>
</g>
<g>
	<g>
		<path class="st0" d="M64.4,66.6h-3.2V66h1.2v-3.9h-1.2v-0.5c0.2,0,0.3,0,0.5,0c0.2,0,0.3-0.1,0.4-0.1c0.1-0.1,0.2-0.1,0.3-0.2
			c0.1-0.1,0.1-0.2,0.1-0.4h0.6V66h1.2V66.6z"/>
	</g>
	<g>
		<path class="st0" d="M69.9,63.4c0,0.5-0.1,1-0.2,1.4c-0.1,0.4-0.3,0.8-0.5,1.1c-0.2,0.3-0.5,0.5-0.9,0.7c-0.4,0.2-0.8,0.2-1.3,0.2
			c-0.1,0-0.3,0-0.4,0c-0.1,0-0.2,0-0.3-0.1v-0.7h0c0.1,0,0.2,0.1,0.3,0.1c0.1,0,0.3,0.1,0.5,0.1c0.6,0,1-0.2,1.4-0.5
			c0.3-0.3,0.5-0.8,0.6-1.4c-0.2,0.1-0.5,0.3-0.7,0.3c-0.2,0.1-0.4,0.1-0.7,0.1c-0.2,0-0.5,0-0.7-0.1c-0.2,0-0.4-0.1-0.6-0.3
			c-0.2-0.2-0.4-0.4-0.5-0.6c-0.1-0.2-0.2-0.5-0.2-0.9c0-0.6,0.2-1.1,0.6-1.5c0.4-0.4,0.9-0.6,1.4-0.6c0.3,0,0.5,0,0.8,0.1
			c0.2,0.1,0.4,0.2,0.6,0.4c0.2,0.2,0.4,0.5,0.5,0.8C69.8,62.4,69.9,62.8,69.9,63.4z M69.1,63.2c0-0.4,0-0.7-0.1-1
			c-0.1-0.2-0.2-0.4-0.3-0.6c-0.1-0.1-0.3-0.2-0.4-0.3c-0.1-0.1-0.3-0.1-0.5-0.1c-0.4,0-0.7,0.1-0.9,0.4c-0.2,0.2-0.3,0.6-0.3,1
			c0,0.2,0,0.4,0.1,0.6s0.2,0.3,0.4,0.4c0.1,0.1,0.2,0.1,0.4,0.2c0.1,0,0.3,0,0.5,0c0.2,0,0.4,0,0.6-0.1c0.2-0.1,0.4-0.1,0.6-0.2
			c0-0.1,0-0.1,0-0.2S69.1,63.3,69.1,63.2z"/>
	</g>
	<g>
		<path class="st0" d="M72.6,65.5l-1.1,2.6H71l0.7-2.6H72.6z"/>
	</g>
	<g>
		<path class="st0" d="M78,65h-0.9v1.6h-0.8V65h-2.8v-0.9l2.8-3.3h0.7v3.6H78V65z M76.4,64.4v-2.6l-2.3,2.6H76.4z"/>
	</g>
	<g>
		<path class="st0" d="M69.2,70.8c0,0.4-0.1,0.8-0.3,1c-0.2,0.2-0.5,0.3-0.9,0.3c-0.4,0-0.7-0.1-0.9-0.3c-0.2-0.2-0.3-0.5-0.3-1
			c0-0.4,0.1-0.8,0.3-1s0.5-0.3,0.9-0.3c0.4,0,0.7,0.1,0.9,0.3C69.1,70.1,69.2,70.4,69.2,70.8z M68.4,70.8c0-0.3,0-0.5-0.1-0.6
			c-0.1-0.1-0.2-0.1-0.3-0.1s-0.3,0-0.3,0.1c-0.1,0.1-0.1,0.3-0.1,0.6c0,0.3,0,0.5,0.1,0.6c0.1,0.1,0.2,0.1,0.3,0.1s0.3,0,0.3-0.1
			C68.4,71.3,68.4,71.1,68.4,70.8z M71.3,69.6l-2.1,3.9h-0.7l2.1-3.9H71.3z M72.9,72.3c0,0.4-0.1,0.8-0.3,1
			c-0.2,0.2-0.5,0.3-0.9,0.3c-0.4,0-0.7-0.1-0.9-0.3c-0.2-0.2-0.3-0.5-0.3-1c0-0.4,0.1-0.8,0.3-1c0.2-0.2,0.5-0.3,0.9-0.3
			c0.4,0,0.7,0.1,0.9,0.3C72.8,71.6,72.9,71.9,72.9,72.3z M72.2,72.3c0-0.3,0-0.5-0.1-0.6c-0.1-0.1-0.2-0.1-0.3-0.1
			c-0.1,0-0.3,0-0.3,0.1c-0.1,0.1-0.1,0.3-0.1,0.6c0,0.3,0,0.5,0.1,0.6c0.1,0.1,0.2,0.1,0.3,0.1c0.1,0,0.3,0,0.3-0.1
			C72.1,72.8,72.2,72.6,72.2,72.3z"/>
	</g>
</g>
<g>
	<g>
		<path class="st0" d="M32.5,62.4h-6.1v-1.3c0.4-0.4,0.8-0.7,1.3-1.1c0.4-0.4,0.8-0.7,1.2-1.1c0.8-0.7,1.3-1.3,1.6-1.8
			c0.3-0.4,0.4-0.9,0.4-1.4c0-0.5-0.2-0.8-0.5-1.1c-0.3-0.3-0.7-0.4-1.3-0.4c-0.4,0-0.8,0.1-1.2,0.2c-0.4,0.1-0.8,0.3-1.2,0.6h-0.1
			v-1.3c0.3-0.1,0.7-0.3,1.1-0.4c0.5-0.1,0.9-0.2,1.4-0.2c0.9,0,1.6,0.2,2.2,0.7c0.5,0.4,0.8,1,0.8,1.8c0,0.3,0,0.7-0.1,1
			c-0.1,0.3-0.2,0.6-0.4,0.8c-0.2,0.2-0.3,0.5-0.6,0.7c-0.2,0.2-0.5,0.5-0.8,0.8c-0.4,0.4-0.9,0.8-1.3,1.2c-0.5,0.4-0.9,0.8-1.3,1.1
			h4.8V62.4z"/>
	</g>
	<g>
		<path class="st0" d="M39.9,62.4H35v-0.9h1.9v-6H35v-0.8c0.3,0,0.5,0,0.8-0.1c0.3,0,0.5-0.1,0.7-0.2c0.2-0.1,0.3-0.2,0.4-0.4
			c0.1-0.2,0.2-0.4,0.2-0.6H38v8.1h1.8V62.4z"/>
	</g>
	<g>
		<path class="st0" d="M32.7,65.9c0,0.4-0.1,0.8-0.3,1c-0.2,0.2-0.5,0.3-0.9,0.3c-0.4,0-0.7-0.1-0.9-0.3c-0.2-0.2-0.3-0.5-0.3-1
			c0-0.4,0.1-0.8,0.3-1c0.2-0.2,0.5-0.3,0.9-0.3c0.4,0,0.7,0.1,0.9,0.3C32.6,65.1,32.7,65.4,32.7,65.9z M31.9,65.9
			c0-0.3,0-0.5-0.1-0.6c-0.1-0.1-0.2-0.1-0.3-0.1c-0.1,0-0.3,0-0.3,0.1c-0.1,0.1-0.1,0.3-0.1,0.6c0,0.3,0,0.5,0.1,0.6
			c0.1,0.1,0.2,0.1,0.3,0.1c0.1,0,0.3,0,0.3-0.1C31.9,66.3,31.9,66.2,31.9,65.9z M34.7,64.7l-2.1,3.9H32l2.1-3.9H34.7z M36.4,67.4
			c0,0.4-0.1,0.8-0.3,1c-0.2,0.2-0.5,0.3-0.9,0.3c-0.4,0-0.7-0.1-0.9-0.3c-0.2-0.2-0.3-0.5-0.3-1c0-0.4,0.1-0.8,0.3-1
			s0.5-0.3,0.9-0.3c0.4,0,0.7,0.1,0.9,0.3C36.3,66.6,36.4,67,36.4,67.4z M35.6,67.4c0-0.3,0-0.5-0.1-0.6c-0.1-0.1-0.2-0.1-0.3-0.1
			c-0.1,0-0.3,0-0.3,0.1c-0.1,0.1-0.1,0.3-0.1,0.6c0,0.3,0,0.5,0.1,0.6c0.1,0.1,0.2,0.1,0.3,0.1c0.1,0,0.3,0,0.3-0.1
			C35.6,67.9,35.6,67.7,35.6,67.4z"/>
	</g>
</g>
<g>
	<g>
		<path class="st0" d="M56.8,53c-0.3,0-0.5,0.1-0.6,0.3C56,53.5,56,53.9,56,54.4c0,0.6,0.1,0.9,0.2,1.1c0.1,0.2,0.3,0.3,0.6,0.3
			s0.5-0.1,0.6-0.3c0.1-0.2,0.2-0.6,0.2-1.1c0-0.6-0.1-0.9-0.2-1.1C57.3,53.1,57.1,53,56.8,53z"/>
	</g>
	<g>
		<path class="st0" d="M49.5,50c-0.3,0-0.5,0.1-0.6,0.3c-0.1,0.2-0.2,0.6-0.2,1.1c0,0.6,0.1,0.9,0.2,1.1c0.1,0.2,0.3,0.3,0.6,0.3
			c0.3,0,0.5-0.1,0.6-0.3c0.1-0.2,0.2-0.6,0.2-1.1c0-0.6-0.1-0.9-0.2-1.1C50,50.1,49.8,50,49.5,50z"/>
	</g>
	<g>
		<path class="st0" d="M53.2,18.9c-13.5,0-24.4,10.4-24.4,23.3c0,1.8,0.2,3.6,0.7,5.3c1.2-0.3,2.4-0.5,3.7-0.5
			c7.1,0,12.9,5.5,12.9,12.2c0,1.8-0.4,3.4-1.1,4.9c2.6,0.9,5.3,1.4,8.2,1.4c1.4,0,2.8-0.1,4.1-0.4c0.2-6.6,5.9-11.8,12.9-11.8
			c1.4,0,2.8,0.2,4.1,0.6c2.1-3.5,3.4-7.5,3.4-11.8C77.6,29.4,66.7,18.9,53.2,18.9z M39.7,44.7v-2.5c0.8-0.7,1.7-1.4,2.5-2.1
			c0.8-0.7,1.6-1.4,2.3-2.1c1.5-1.5,2.5-2.6,3.1-3.5c0.6-0.9,0.8-1.8,0.8-2.8c0-0.9-0.3-1.6-0.9-2.1c-0.6-0.5-1.4-0.8-2.5-0.8
			c-0.7,0-1.5,0.1-2.3,0.4c-0.8,0.3-1.6,0.6-2.4,1.2h-0.1v-2.5c0.6-0.3,1.3-0.5,2.2-0.8c0.9-0.2,1.8-0.3,2.7-0.3
			c1.8,0,3.2,0.4,4.2,1.3c1,0.9,1.5,2,1.5,3.5c0,0.7-0.1,1.3-0.3,1.9c-0.2,0.6-0.4,1.1-0.7,1.6c-0.3,0.5-0.7,1-1.1,1.4
			s-0.9,1-1.5,1.6c-0.8,0.8-1.7,1.6-2.6,2.4s-1.7,1.5-2.5,2.2h9.5v2H39.7z M47.8,53.3c-0.4-0.4-0.6-1-0.6-1.9c0-0.8,0.2-1.5,0.6-1.9
			c0.4-0.4,1-0.6,1.8-0.6c0.8,0,1.4,0.2,1.7,0.6s0.6,1,0.6,1.9c0,0.9-0.2,1.5-0.6,1.9s-1,0.6-1.7,0.6C48.7,54,48.1,53.7,47.8,53.3z
			 M51.8,56.8h-1.4l4-7.7h1.4L51.8,56.8z M58.5,56.3c-0.4,0.4-1,0.6-1.7,0.6c-0.8,0-1.4-0.2-1.8-0.6c-0.4-0.4-0.6-1-0.6-1.9
			c0-0.8,0.2-1.5,0.6-1.9s1-0.6,1.8-0.6c0.8,0,1.4,0.2,1.7,0.6c0.4,0.4,0.6,1,0.6,1.9C59.1,55.3,58.9,55.9,58.5,56.3z M66.3,41.7
			c-0.3,0.7-0.7,1.3-1.2,1.7c-0.6,0.6-1.3,1-2.1,1.2c-0.8,0.3-1.7,0.4-2.6,0.4c-1,0-1.9-0.1-2.9-0.3c-0.9-0.2-1.7-0.5-2.3-0.8v-2.5
			h0.2c0.7,0.4,1.5,0.8,2.4,1.1c0.9,0.3,1.8,0.4,2.6,0.4c0.5,0,1-0.1,1.6-0.2c0.6-0.2,1-0.4,1.4-0.7c0.4-0.3,0.6-0.7,0.8-1.1
			c0.2-0.4,0.3-0.9,0.3-1.6c0-0.6-0.1-1.2-0.3-1.6c-0.2-0.4-0.5-0.7-0.8-1c-0.4-0.2-0.8-0.4-1.3-0.5c-0.5-0.1-1-0.1-1.6-0.1h-1.1v-2
			H60c1.2,0,2.1-0.2,2.9-0.7c0.7-0.5,1.1-1.2,1.1-2.2c0-0.4-0.1-0.8-0.3-1.1c-0.2-0.3-0.4-0.6-0.8-0.8c-0.3-0.2-0.7-0.3-1.1-0.4
			c-0.4-0.1-0.8-0.1-1.3-0.1c-0.7,0-1.5,0.1-2.4,0.4c-0.8,0.3-1.6,0.6-2.4,1.1h-0.1v-2.5c0.6-0.3,1.3-0.5,2.2-0.8
			c0.9-0.2,1.8-0.3,2.7-0.3c0.9,0,1.6,0.1,2.3,0.2c0.7,0.2,1.2,0.4,1.8,0.8c0.6,0.4,1,0.8,1.3,1.4c0.3,0.5,0.4,1.2,0.4,1.9
			c0,1-0.3,1.8-1,2.6c-0.7,0.7-1.5,1.2-2.4,1.4v0.2c0.4,0.1,0.8,0.2,1.3,0.4c0.5,0.2,0.9,0.4,1.2,0.7c0.4,0.3,0.7,0.8,0.9,1.3
			c0.2,0.5,0.4,1.2,0.4,2C66.7,40.3,66.6,41,66.3,41.7z"/>
	</g>
</g>
</svg>
