<?xml version="1.0" encoding="utf-8"?>
<!-- Generator: Adobe Illustrator 23.0.0, SVG Export Plug-In . SVG Version: 6.00 Build 0)  -->
<svg version="1.1" id="Capa_1" xmlns="http://www.w3.org/2000/svg" xmlns:xlink="http://www.w3.org/1999/xlink" x="0px" y="0px"
	 viewBox="0 0 104.1 95.4" style="enable-background:new 0 0 104.1 95.4;" xml:space="preserve">
<style type="text/css">
	.st0{fill:#155F86;}
	.st1{fill:#FFFFFF;}
</style>
<circle class="st0" cx="52.8" cy="48.2" r="44.7"/>
<g>
	<circle class="st1" cx="-283.9" cy="156.9" r="7.1"/>
	<path class="st1" d="M-259.3,200.3h-49.3c-1,0-1.7-0.8-1.7-1.7v-2.4c0-1,0.8-1.7,1.7-1.7h49.3c1,0,1.7,0.8,1.7,1.7v2.4
		C-257.6,199.6-258.3,200.3-259.3,200.3z"/>
	<path class="st1" d="M-264.1,157.9h-39.7c-0.5,0-1-0.4-1-1v-1.3c0-0.5,0.4-1,1-1h39.7c0.5,0,1,0.4,1,1v1.4
		C-263.1,157.5-263.5,157.9-264.1,157.9z"/>
	<rect x="-287.5" y="157.9" class="st1" width="7.2" height="39.5"/>
	<path class="st1" d="M-252.1,177.9l-9.6-15.1c-0.7-1.1-2.3-1.1-3,0l-10,15.4c-0.9,1.4-0.3,3.2,1.1,3.9c2,1.2,5.8,2,10.2,2
		c6.4,0,11.6-1.7,11.6-3.7l0,0C-251.5,179.5-251.6,178.6-252.1,177.9z"/>
	<path class="st1" d="M-293.4,177.9l-9.6-15.1c-0.7-1.1-2.3-1.1-3,0l-10,15.4c-0.9,1.4-0.3,3.2,1.1,3.9c2,1.2,5.8,2,10.2,2
		c6.4,0,11.6-1.7,11.6-3.7l0,0C-292.9,179.5-292.9,178.6-293.4,177.9z"/>
</g>
<g>
	<circle class="st1" cx="-220.9" cy="114.9" r="7.1"/>
	<path class="st1" d="M-196.3,158.3h-49.3c-1,0-1.7-0.8-1.7-1.7v-2.4c0-1,0.8-1.7,1.7-1.7h49.3c1,0,1.7,0.8,1.7,1.7v2.4
		C-194.6,157.6-195.3,158.3-196.3,158.3z"/>
	<path class="st1" d="M-201.1,115.9h-39.7c-0.5,0-1-0.4-1-1v-1.3c0-0.5,0.4-1,1-1h39.7c0.5,0,1,0.4,1,1v1.4
		C-200.1,115.5-200.5,115.9-201.1,115.9z"/>
	<rect x="-224.5" y="115.9" class="st1" width="7.2" height="39.5"/>
	<path class="st1" d="M-189.1,135.9l-9.6-15.1c-0.7-1.1-2.3-1.1-3,0l-10,15.4c-0.9,1.4-0.3,3.2,1.1,3.9c2,1.2,5.8,2,10.2,2
		c6.4,0,11.6-1.7,11.6-3.7l0,0C-188.5,137.5-188.6,136.6-189.1,135.9z"/>
	<path class="st1" d="M-230.4,135.9l-9.6-15.1c-0.7-1.1-2.3-1.1-3,0l-10,15.4c-0.9,1.4-0.3,3.2,1.1,3.9c2,1.2,5.8,2,10.2,2
		c6.4,0,11.6-1.7,11.6-3.7l0,0C-229.9,137.5-229.9,136.6-230.4,135.9z"/>
</g>
<g>
	<path class="st1" d="M67.6,58.3c-0.2-1-0.9-1.9-1.9-2.4l-7.3-3.5h0c0-0.5-0.2-0.9-0.4-1.2c0,0,0,0,0,0v-2.4
		c0.8-1.1,1.3-2.2,1.5-2.6c0.3-0.2,1.4-1.1,1.4-2.5c0-0.7-0.1-1.2-0.4-1.5c0,0,0,0-0.1,0c0,0,0,0,0,0c0-0.2,0.8-4.2-1-6.6
		c-1.6-2-3.6-2.3-4.7-2.3c-1.5,0-2.8,0.5-3.4,1.3c-0.1,0-0.3,0-0.5,0c-0.6,0-1.6,0.2-2.3,1.4c-0.9,1.8-1.2,4-0.7,6.1
		c-0.1,0-0.3,0.1-0.4,0.2c-0.3,0.3-0.4,0.7-0.3,1.4c0.1,1.5,1.1,2.3,1.4,2.5c0.2,0.4,0.7,1.5,1.4,2.6v2.4c-0.3,0.3-0.4,0.7-0.4,1.1
		h0l-7,3.5c-1,0.4-1.7,1.3-1.9,2.4l-0.4,1.9v5.5H68l0-5.8L67.6,58.3z"/>
	<g>
		<path class="st1" d="M70,57.8l0.4,1.8l0,2.8h14.2l0-5.8L84.2,55c-0.2-1-0.9-1.9-1.9-2.4L75,49.1h0c0-0.5-0.2-0.9-0.4-1.2
			c0,0,0,0,0,0v-2.4c0.8-1.1,1.3-2.2,1.5-2.6c0.3-0.2,1.4-1.1,1.4-2.5c0-0.7-0.1-1.2-0.4-1.5c0,0,0,0-0.1,0c0,0,0,0,0,0
			c0-0.2,0.8-4.2-1-6.6c-1.6-2-3.6-2.3-4.7-2.3c-1.5,0-2.8,0.5-3.4,1.3c-0.1,0-0.3,0-0.5,0c-0.6,0-1.6,0.2-2.3,1.4
			c-0.9,1.8-1.2,4-0.7,6.1c-0.1,0-0.3,0.1-0.4,0.2c-0.3,0.3-0.4,0.7-0.3,1.4c0.1,1.5,1.1,2.3,1.4,2.5c0.2,0.4,0.7,1.5,1.4,2.6V48
			c-0.3,0.3-0.4,0.7-0.4,1.1h0L61,51.7l6.8,3.3C68.9,55.5,69.7,56.5,70,57.8z"/>
		<path class="st1" d="M38.7,57.8c0.2-1.2,1-2.2,2.2-2.8l5.1-2.6l-6.9-3.3h0c0-0.5-0.2-0.9-0.4-1.2c0,0,0,0,0,0v-2.4
			c0.8-1.1,1.3-2.2,1.5-2.6c0.3-0.2,1.4-1.1,1.4-2.5c0-0.7-0.1-1.2-0.4-1.5c0,0,0,0-0.1,0c0,0,0,0,0,0c0-0.2,0.8-4.2-1-6.6
			c-1.6-2-3.6-2.3-4.7-2.3c-1.5,0-2.8,0.5-3.4,1.3c-0.1,0-0.3,0-0.5,0c-0.6,0-1.6,0.2-2.3,1.4c-0.9,1.8-1.2,4-0.7,6.1
			c-0.1,0-0.3,0.1-0.4,0.2c-0.3,0.3-0.4,0.7-0.3,1.4c0.1,1.5,1.1,2.3,1.4,2.5c0.2,0.4,0.7,1.5,1.4,2.6V48c-0.3,0.3-0.4,0.7-0.4,1.1
			h0l-7,3.5c-1,0.4-1.7,1.3-1.9,2.4L21,56.9v5.5h17.3V60L38.7,57.8z"/>
	</g>
</g>
</svg>
