<?xml version="1.0" encoding="utf-8"?>
<!-- Generator: Adobe Illustrator 23.0.0, SVG Export Plug-In . SVG Version: 6.00 Build 0)  -->
<svg version="1.1" id="Capa_1" xmlns="http://www.w3.org/2000/svg" xmlns:xlink="http://www.w3.org/1999/xlink" x="0px" y="0px"
	 viewBox="0 0 72.8 91.1" style="enable-background:new 0 0 72.8 91.1;" xml:space="preserve">
<style type="text/css">
	.st0{fill:url(#SVGID_1_);}
	.st1{fill:#FFFFFF;}
	.st2{fill:#065F87;}
	.st3{fill:url(#SVGID_2_);}
</style>
<g>
	<g>
		<linearGradient id="SVGID_1_" gradientUnits="userSpaceOnUse" x1="2.5" y1="41.7192" x2="61.5326" y2="41.7192">
			<stop  offset="0" style="stop-color:#006098"/>
			<stop  offset="0.3015" style="stop-color:#0082CB"/>
			<stop  offset="0.5902" style="stop-color:#007ABE"/>
			<stop  offset="1" style="stop-color:#00649E"/>
		</linearGradient>
		<path class="st0" d="M57.4,46.7C60,41.9,61.8,37,61.5,31C60.8,15.8,48.4,3.6,33.2,3C16.3,2.4,2.5,15.8,2.5,32.5
			c0,8.6,4,14.7,8.6,21.5c5,7.5,10.1,14.9,15.1,22.4c1,1.6,2.2,3.2,4,3.8c2,0.7,4.3-0.1,5.9-1.5c2.5-2.1,4.1-5.6,5.9-8.3
			c4.1-6.1,8.5-12.3,12.5-18.6C55.5,50.2,56.5,48.5,57.4,46.7z"/>
		<ellipse class="st1" cx="32" cy="31.8" rx="22.4" ry="22.4"/>
	</g>
</g>
<g id="g_6_">
	<g id="g_7_">
		<path id="s_22_" class="st2" d="M24.8,36.1c1.2,0,2.2,0.6,2.8,1.5h9.8c0.4-0.6,0.9-1,1.6-1.3V23.5H17.6v14.2H22
			C22.6,36.8,23.6,36.1,24.8,36.1z"/>
		<path id="s_21_" class="st2" d="M17.6,38.9c0,0.1,0.1,0.3,0.2,0.4c0.1,0.1,0.3,0.1,0.4,0.1h3.3c0-0.4,0.1-0.9,0.2-1.3h-4.1V38.9z"
			/>
		<path id="s_20_" class="st2" d="M28,39.4h8.8c0-0.4,0.1-0.9,0.2-1.3h-9.3C28,38.5,28,39,28,39.4z"/>
		<path id="s_19_" class="st2" d="M46.1,28.9c-0.9-0.9-2.1-1.7-3.2-1.8c-1.1-0.2-3.3-0.2-3.3-0.2v9.3c0.2,0,0.4,0,0.5,0
			c1.8,0,3.3,1.5,3.3,3.3h2.7c0.3,0,0.7-0.1,1-0.4c0.3-0.3,0.4-0.6,0.4-1v-5.9C47.5,31,47,29.8,46.1,28.9z M46.6,33.3
			c0,0.1-0.1,0.3-0.2,0.4c-0.1,0.1-0.3,0.1-0.4,0.1l-4.8-1c-0.1,0-0.2-0.1-0.3-0.2c-0.1-0.1-0.1-0.2-0.1-0.3v-4.1c0,0,1.6,0,2.4,0.1
			c0.8,0.1,1.7,0.7,2.4,1.4c0.7,0.7,1,1.5,1,2.4C46.6,32.1,46.6,33.3,46.6,33.3z"/>
		<path id="s_18_" class="st2" d="M27.1,37.8c0-0.1-0.1-0.1-0.1-0.2c-0.5-0.6-1.3-1-2.2-1c-0.9,0-1.7,0.4-2.2,1
			c0,0.1-0.1,0.1-0.1,0.2c-0.1,0.1-0.1,0.2-0.2,0.3C22.1,38.5,22,39,22,39.4c0,1.5,1.2,2.8,2.8,2.8c1.5,0,2.8-1.2,2.8-2.8
			c0-0.5-0.1-0.9-0.3-1.3C27.2,38.1,27.2,37.9,27.1,37.8z M24.8,40.9c-0.8,0-1.4-0.6-1.4-1.4c0-0.5,0.3-1,0.7-1.3
			c0.2-0.1,0.5-0.2,0.7-0.2c0.3,0,0.5,0.1,0.7,0.2c0.4,0.2,0.7,0.7,0.7,1.3C26.2,40.2,25.6,40.9,24.8,40.9z"/>
		<path id="s_17_" class="st2" d="M40.2,36.6c-0.2,0-0.4,0-0.5,0.1c-0.2,0-0.4,0.1-0.6,0.2c-0.5,0.2-0.8,0.5-1.1,1
			c-0.3,0.4-0.5,1-0.5,1.6c0,1.5,1.2,2.8,2.8,2.8s2.8-1.2,2.8-2.8S41.7,36.6,40.2,36.6z M40.2,40.9c-0.8,0-1.4-0.6-1.4-1.4
			c0-0.3,0.1-0.6,0.3-0.8s0.4-0.4,0.6-0.5C39.8,38,40,38,40.2,38c0.8,0,1.4,0.6,1.4,1.4S40.9,40.9,40.2,40.9z"/>
		<rect id="white_stripe_4_" x="17.6" y="24.7" class="st2" width="21.3" height="0.4"/>
	</g>
</g>
<linearGradient id="SVGID_2_" gradientUnits="userSpaceOnUse" x1="-186.0588" y1="192.805" x2="-131" y2="192.805">
	<stop  offset="0" style="stop-color:#006098"/>
	<stop  offset="0.3015" style="stop-color:#0082CB"/>
	<stop  offset="0.5902" style="stop-color:#007ABE"/>
	<stop  offset="1" style="stop-color:#00649E"/>
</linearGradient>
<ellipse class="st3" cx="-158.5" cy="192.8" rx="27.5" ry="25.2"/>
</svg>
