<?xml version="1.0" encoding="utf-8"?>
<!-- Generator: Adobe Illustrator 23.0.0, SVG Export Plug-In . SVG Version: 6.00 Build 0)  -->
<svg version="1.1" id="Capa_1" xmlns="http://www.w3.org/2000/svg" xmlns:xlink="http://www.w3.org/1999/xlink" x="0px" y="0px"
	 viewBox="0 0 79.4 79.4" style="enable-background:new 0 0 79.4 79.4;" xml:space="preserve">
<style type="text/css">
	.st0{fill:none;stroke:#FFFFFF;stroke-miterlimit:10;}
	.st1{fill:#FFFFFF;}
	.st2{fill:none;stroke:#FFFFFF;stroke-width:2;stroke-miterlimit:10;}
</style>
<g>
	<circle class="st1" cx="39.5" cy="18" r="7.7"/>
	<path class="st1" d="M66.3,65H12.7c-1,0-1.7-0.8-1.7-1.7v-2.8c0-1,0.8-1.7,1.7-1.7h53.6c1,0,1.7,0.8,1.7,1.7v2.8
		C68,64.3,67.3,65,66.3,65z"/>
	<path class="st1" d="M61.1,19.2H18c-0.5,0-1-0.4-1-1v-1.6c0-0.5,0.4-1,1-1h43.1c0.5,0,1,0.4,1,1v1.6C62,18.8,61.6,19.2,61.1,19.2z"
		/>
	<rect x="35.6" y="19.2" class="st1" width="7.8" height="42.7"/>
	<path class="st1" d="M74,40.7L63.6,24.4c-0.7-1.2-2.5-1.2-3.2,0L49.5,41.1c-1,1.5-0.4,3.4,1.2,4.2c2.1,1.3,6.3,2.1,11.1,2.1
		c6.9,0,12.5-1.8,12.5-4c0,0,0,0,0,0C74.6,42.5,74.5,41.6,74,40.7z"/>
	<path class="st1" d="M29.3,40.7L18.9,24.4c-0.7-1.2-2.5-1.2-3.2,0L4.8,41.1c-1,1.5-0.4,3.4,1.2,4.2c2.1,1.3,6.3,2.1,11.1,2.1
		c6.9,0,12.5-1.8,12.5-4c0,0,0,0,0,0C29.9,42.5,29.8,41.6,29.3,40.7z"/>
</g>
</svg>
