<?xml version="1.0" encoding="utf-8"?>
<!-- Generator: Adobe Illustrator 23.0.0, SVG Export Plug-In . SVG Version: 6.00 Build 0)  -->
<svg version="1.1" id="Capa_1" xmlns="http://www.w3.org/2000/svg" xmlns:xlink="http://www.w3.org/1999/xlink" x="0px" y="0px"
	 viewBox="0 0 104.1 95.4" style="enable-background:new 0 0 104.1 95.4;" xml:space="preserve">
<style type="text/css">
	.st0{fill:#155F86;}
	.st1{fill:#D4D4D5;}
	.st2{fill:#0E9FDB;}
	.st3{fill:#FFFFFF;}
	.st4{fill:#065F87;}
	.st5{fill:none;stroke:#FFFFFF;stroke-miterlimit:10;}
	.st6{fill:none;stroke:#155F86;stroke-width:3;stroke-miterlimit:10;}
	.st7{fill:none;stroke:#FFFFFF;stroke-width:2;stroke-miterlimit:10;}
	.st8{fill:none;stroke:#9D9D9C;stroke-width:4;stroke-miterlimit:10;}
	.st9{fill:none;stroke:#000000;stroke-width:4;stroke-miterlimit:10;}
	.st10{fill:#9D9D9C;}
	.st11{fill:url(#SVGID_1_);}
	.st12{fill:url(#SVGID_2_);}
	.st13{fill:url(#SVGID_3_);}
	.st14{fill:#010202;}
	.st15{fill:url(#SVGID_4_);}
	.st16{opacity:0.2;fill:#FFFFFF;}
	.st17{filter:url(#Adobe_OpacityMaskFilter);}
	.st18{filter:url(#Adobe_OpacityMaskFilter_1_);}
	.st19{fill:url(#SVGID_7_);}
	.st20{fill:url(#SVGID_8_);}
	.st21{fill:url(#SVGID_9_);}
	.st22{filter:url(#Adobe_OpacityMaskFilter_2_);}
	.st23{fill:url(#SVGID_11_);}
	.st24{fill:url(#SVGID_12_);}
	.st25{fill:url(#SVGID_13_);}
	.st26{filter:url(#Adobe_OpacityMaskFilter_3_);}
	.st27{clip-path:url(#SVGID_16_);fill:#FFFFFF;}
	.st28{clip-path:url(#SVGID_16_);fill:#1B6C98;}
	.st29{clip-path:url(#SVGID_16_);fill:#155F86;}
	.st30{fill:#176086;}
	.st31{clip-path:url(#SVGID_18_);fill:url(#SVGID_19_);}
	.st32{clip-path:url(#SVGID_18_);fill:url(#SVGID_20_);}
	.st33{clip-path:url(#SVGID_18_);fill:url(#SVGID_21_);}
	.st34{clip-path:url(#SVGID_18_);fill:url(#SVGID_22_);}
	.st35{fill:#EFEEEE;}
	.st36{clip-path:url(#SVGID_24_);fill:url(#SVGID_25_);}
	.st37{clip-path:url(#SVGID_24_);fill:url(#SVGID_26_);}
	.st38{clip-path:url(#SVGID_24_);fill:url(#SVGID_27_);}
	.st39{clip-path:url(#SVGID_24_);fill:url(#SVGID_28_);}
	.st40{fill:#0B5F87;}
	.st41{fill:#ECECEC;}
	.st42{fill:#106086;}
	.st43{fill-rule:evenodd;clip-rule:evenodd;fill:#FFFFFF;}
	.st44{fill:#FFFFFF;stroke:#FFFFFF;stroke-miterlimit:10;}
	.st45{fill:none;stroke:#155F86;stroke-width:5;stroke-miterlimit:10;}
	.st46{fill:none;stroke:#155F86;stroke-width:2;stroke-miterlimit:10;}
</style>
<circle class="st6" cx="52.7" cy="48.2" r="44.7"/>
<g>
	<path class="st46" d="M78.8,69.9H26.9c-2,0-3.6-1.6-3.6-3.6V31c0-2,1.6-3.6,3.6-3.6h51.9c2,0,3.6,1.6,3.6,3.6v35.2
		C82.4,68.3,80.8,69.9,78.8,69.9z"/>
	<path class="st0" d="M50,41H28.4c-0.3,0-0.5-0.2-0.5-0.5v-0.1c0-0.3,0.2-0.5,0.5-0.5H50c0.3,0,0.5,0.2,0.5,0.5v0.1
		C50.5,40.8,50.3,41,50,41z"/>
	<path class="st0" d="M50,44.2H28.4c-0.3,0-0.5-0.2-0.5-0.5v-0.1c0-0.3,0.2-0.5,0.5-0.5H50c0.3,0,0.5,0.2,0.5,0.5v0.1
		C50.5,43.9,50.3,44.2,50,44.2z"/>
	<path class="st0" d="M50,50.4H28.4c-0.3,0-0.5-0.2-0.5-0.5v-0.1c0-0.3,0.2-0.5,0.5-0.5H50c0.3,0,0.5,0.2,0.5,0.5v0.1
		C50.5,50.2,50.3,50.4,50,50.4z"/>
	<path class="st0" d="M50,47.3H28.4c-0.3,0-0.5-0.2-0.5-0.5v-0.1c0-0.3,0.2-0.5,0.5-0.5H50c0.3,0,0.5,0.2,0.5,0.5v0.1
		C50.5,47.1,50.3,47.3,50,47.3z"/>
	<path class="st0" d="M50,53.6H28.4c-0.3,0-0.5-0.2-0.5-0.5V53c0-0.3,0.2-0.5,0.5-0.5H50c0.3,0,0.5,0.2,0.5,0.5v0.1
		C50.5,53.4,50.3,53.6,50,53.6z"/>
	<path class="st0" d="M50,56.7H28.4c-0.3,0-0.5-0.2-0.5-0.5v-0.1c0-0.3,0.2-0.5,0.5-0.5H50c0.3,0,0.5,0.2,0.5,0.5v0.1
		C50.5,56.5,50.3,56.7,50,56.7z"/>
	<path class="st0" d="M50,59.9H28.4c-0.3,0-0.5-0.2-0.5-0.5v-0.1c0-0.3,0.2-0.5,0.5-0.5H50c0.3,0,0.5,0.2,0.5,0.5v0.1
		C50.5,59.6,50.3,59.9,50,59.9z"/>
	<path class="st0" d="M50,63H28.4c-0.3,0-0.5-0.2-0.5-0.5v-0.1c0-0.3,0.2-0.5,0.5-0.5H50c0.3,0,0.5,0.2,0.5,0.5v0.1
		C50.5,62.8,50.3,63,50,63z"/>
	<path class="st0" d="M50,66.1H28.4c-0.3,0-0.5-0.2-0.5-0.5v-0.1c0-0.3,0.2-0.5,0.5-0.5H50c0.3,0,0.5,0.2,0.5,0.5v0.1
		C50.5,65.9,50.3,66.1,50,66.1z"/>
	<g>
		<path class="st0" d="M77.5,51.1H55.8c-0.3,0-0.5-0.2-0.5-0.5v-0.1c0-0.3,0.2-0.5,0.5-0.5h21.6c0.3,0,0.5,0.2,0.5,0.5v0.1
			C78,50.9,77.7,51.1,77.5,51.1z"/>
		<path class="st0" d="M77.5,48H55.8c-0.3,0-0.5-0.2-0.5-0.5v-0.1c0-0.3,0.2-0.5,0.5-0.5h21.6c0.3,0,0.5,0.2,0.5,0.5v0.1
			C78,47.8,77.7,48,77.5,48z"/>
		<path class="st0" d="M77.5,54.1H55.8c-0.3,0-0.5-0.2-0.5-0.5v-0.1c0-0.3,0.2-0.5,0.5-0.5h21.6c0.3,0,0.5,0.2,0.5,0.5v0.1
			C78,53.9,77.7,54.1,77.5,54.1z"/>
		<path class="st0" d="M77.5,57.2H55.8c-0.3,0-0.5-0.2-0.5-0.5v-0.1c0-0.3,0.2-0.5,0.5-0.5h21.6c0.3,0,0.5,0.2,0.5,0.5v0.1
			C78,56.9,77.7,57.2,77.5,57.2z"/>
		<path class="st0" d="M77.5,60.2H55.8c-0.3,0-0.5-0.2-0.5-0.5v-0.1c0-0.3,0.2-0.5,0.5-0.5h21.6c0.3,0,0.5,0.2,0.5,0.5v0.1
			C78,60,77.7,60.2,77.5,60.2z"/>
		<path class="st0" d="M77.5,63.2H55.8c-0.3,0-0.5-0.2-0.5-0.5v-0.1c0-0.3,0.2-0.5,0.5-0.5l21.6,0c0.3,0,0.5,0.2,0.5,0.5v0.1
			C78,63,77.7,63.2,77.5,63.2z"/>
		<path class="st0" d="M77.5,66.3H55.8c-0.3,0-0.5-0.2-0.5-0.5v-0.1c0-0.3,0.2-0.5,0.5-0.5h21.6c0.3,0,0.5,0.2,0.5,0.5v0.1
			C78,66,77.7,66.3,77.5,66.3z"/>
	</g>
	<rect x="55.6" y="30.9" class="st0" width="22.3" height="13.6"/>
	<g>
		<path class="st0" d="M32.4,35.8h-1.3L29,32.3v3.5h-1.2v-5.1h1.6l1.9,2.9v-2.9h1.2V35.8z"/>
		<path class="st0" d="M37.4,35.8h-3.7v-5.1h3.7v1H35v0.9h2.2v1H35v1.3h2.4V35.8z"/>
		<path class="st0" d="M45.5,30.7l-1.4,5.1h-1.5l-0.9-3.3l-0.9,3.3h-1.5l-1.4-5.1h1.4l0.8,3.5l0.9-3.5h1.3l0.9,3.5l0.8-3.5H45.5z"/>
		<path class="st0" d="M50.5,34.2c0,0.5-0.2,0.9-0.6,1.2c-0.4,0.3-1,0.5-1.7,0.5c-0.4,0-0.8,0-1.1-0.1c-0.3-0.1-0.6-0.2-0.9-0.3
			v-1.2h0.1c0.3,0.2,0.6,0.4,0.9,0.5c0.3,0.1,0.7,0.2,1,0.2c0.1,0,0.2,0,0.3,0c0.1,0,0.2,0,0.3-0.1c0.1,0,0.2-0.1,0.2-0.2
			s0.1-0.2,0.1-0.3c0-0.1,0-0.2-0.1-0.3S48.8,34,48.6,34c-0.2,0-0.4-0.1-0.6-0.1c-0.2,0-0.4-0.1-0.6-0.2c-0.4-0.1-0.7-0.3-0.9-0.6
			c-0.2-0.2-0.3-0.5-0.3-0.9c0-0.5,0.2-0.9,0.6-1.2c0.4-0.3,1-0.5,1.6-0.5c0.3,0,0.7,0,1,0.1c0.3,0.1,0.6,0.1,0.9,0.2v1.2h-0.1
			c-0.2-0.2-0.5-0.3-0.8-0.4c-0.3-0.1-0.6-0.2-0.9-0.2c-0.1,0-0.2,0-0.3,0s-0.2,0-0.3,0.1c-0.1,0-0.2,0.1-0.2,0.2s-0.1,0.1-0.1,0.2
			c0,0.1,0.1,0.2,0.2,0.3c0.1,0.1,0.3,0.1,0.6,0.2c0.2,0,0.4,0.1,0.5,0.1c0.2,0,0.4,0.1,0.6,0.2c0.4,0.1,0.7,0.3,0.9,0.5
			S50.5,33.9,50.5,34.2z"/>
	</g>
</g>
</svg>
