<?xml version="1.0" encoding="utf-8"?>
<!-- Generator: Adobe Illustrator 23.0.0, SVG Export Plug-In . SVG Version: 6.00 Build 0)  -->
<svg version="1.1" id="Capa_1" xmlns="http://www.w3.org/2000/svg" xmlns:xlink="http://www.w3.org/1999/xlink" x="0px" y="0px"
	 viewBox="0 0 104.1 95.4" style="enable-background:new 0 0 104.1 95.4;" xml:space="preserve">
<style type="text/css">
	.st0{fill:#155F86;}
	.st1{fill:#D4D4D5;}
	.st2{fill:#0E9FDB;}
	.st3{fill:#FFFFFF;}
	.st4{fill:#065F87;}
	.st5{fill:none;stroke:#FFFFFF;stroke-miterlimit:10;}
	.st6{fill:none;stroke:#155F86;stroke-width:3;stroke-miterlimit:10;}
	.st7{fill:none;stroke:#FFFFFF;stroke-width:2;stroke-miterlimit:10;}
	.st8{fill:none;stroke:#9D9D9C;stroke-width:4;stroke-miterlimit:10;}
	.st9{fill:none;stroke:#000000;stroke-width:4;stroke-miterlimit:10;}
	.st10{fill:#9D9D9C;}
	.st11{fill:url(#SVGID_1_);}
	.st12{fill:url(#SVGID_2_);}
	.st13{fill:url(#SVGID_3_);}
	.st14{fill:#010202;}
	.st15{fill:url(#SVGID_4_);}
	.st16{opacity:0.2;fill:#FFFFFF;}
	.st17{filter:url(#Adobe_OpacityMaskFilter);}
	.st18{filter:url(#Adobe_OpacityMaskFilter_1_);}
	.st19{fill:url(#SVGID_7_);}
	.st20{fill:url(#SVGID_8_);}
	.st21{fill:url(#SVGID_9_);}
	.st22{filter:url(#Adobe_OpacityMaskFilter_2_);}
	.st23{fill:url(#SVGID_11_);}
	.st24{fill:url(#SVGID_12_);}
	.st25{fill:url(#SVGID_13_);}
	.st26{filter:url(#Adobe_OpacityMaskFilter_3_);}
	.st27{clip-path:url(#SVGID_16_);fill:#FFFFFF;}
	.st28{clip-path:url(#SVGID_16_);fill:#1B6C98;}
	.st29{clip-path:url(#SVGID_16_);fill:#155F86;}
	.st30{fill:#176086;}
	.st31{clip-path:url(#SVGID_18_);fill:url(#SVGID_19_);}
	.st32{clip-path:url(#SVGID_18_);fill:url(#SVGID_20_);}
	.st33{clip-path:url(#SVGID_18_);fill:url(#SVGID_21_);}
	.st34{clip-path:url(#SVGID_18_);fill:url(#SVGID_22_);}
	.st35{fill:#EFEEEE;}
	.st36{clip-path:url(#SVGID_24_);fill:url(#SVGID_25_);}
	.st37{clip-path:url(#SVGID_24_);fill:url(#SVGID_26_);}
	.st38{clip-path:url(#SVGID_24_);fill:url(#SVGID_27_);}
	.st39{clip-path:url(#SVGID_24_);fill:url(#SVGID_28_);}
	.st40{fill:#0B5F87;}
	.st41{fill:#ECECEC;}
	.st42{fill:#106086;}
	.st43{fill-rule:evenodd;clip-rule:evenodd;fill:#FFFFFF;}
	.st44{fill:#FFFFFF;stroke:#FFFFFF;stroke-miterlimit:10;}
	.st45{fill:none;stroke:#155F86;stroke-width:5;stroke-miterlimit:10;}
	.st46{fill:none;stroke:#155F86;stroke-width:2;stroke-miterlimit:10;}
</style>
<circle class="st0" cx="52.7" cy="48.2" r="44.7"/>
<g>
	<path class="st3" d="M69.7,51c-2.9,0-5.3,2-5.9,4.7c-0.5-0.1-1-0.2-1.5-0.2c-2.9,0-5.2,2.3-5.2,5.2c0,2.9,2.3,5.2,5.2,5.2h0h13.8v0
		c2.2,0,4-1.8,4-4.1c0-2.2-1.8-4.1-4.1-4.1c-0.1,0-0.2,0-0.3,0c0-0.2,0-0.4,0-0.7C75.7,53.7,73,51,69.7,51z"/>
	<path class="st3" d="M32.5,65.9L32.5,65.9l25.2,0c-1.4-1.3-2.4-3.1-2.4-5.2c0-3.8,3.1-6.9,6.9-6.9c0.1,0,0.2,0,0.3,0
		c1.3-2.7,4-4.5,7-4.5c4,0,7.3,3,7.7,6.9c0.3,0.1,0.5,0.2,0.7,0.2c0.3-1,0.4-2.1,0.4-3.2c0-7-5.6-12.6-12.6-12.6
		c-1.2,0-2.5,0.2-3.6,0.5c-1.5-6.5-7.3-11.4-14.3-11.4c-8.1,0-14.7,6.6-14.7,14.7c0,0.6,0,1.1,0.1,1.6c-0.3,0-0.6,0-0.8,0
		c-5.5,0-9.9,4.4-9.9,9.9C22.7,61.4,27.1,65.8,32.5,65.9z"/>
	<path class="st3" d="M57.4,25.5l-0.2,0c-0.3,0-0.6,0.3-0.6,0.6v2.2c0,0.2,0.2,0.5,0.4,0.5c3.4,1.2,6.2,3.9,7.6,7.2
		c0.1,0.2,0.3,0.4,0.5,0.4h2.2c0.2,0,0.4-0.1,0.5-0.2c0.1-0.2,0.1-0.4,0.1-0.5C66.2,30.8,62.3,27,57.4,25.5z"/>
	<path class="st3" d="M71.4,35.6h2.1c0.2,0,0.4-0.1,0.5-0.2c0.1-0.1,0.2-0.3,0.1-0.5c-1.9-7.8-8.2-13.9-16-15.6l-0.1,0
		c-0.3,0-0.6,0.3-0.6,0.6V22c0,0.3,0.2,0.5,0.4,0.6c6.3,1.6,11.3,6.4,13,12.7C71,35.5,71.2,35.6,71.4,35.6z"/>
</g>
</svg>
