<?xml version="1.0" encoding="utf-8"?>
<!-- Generator: Adobe Illustrator 23.0.0, SVG Export Plug-In . SVG Version: 6.00 Build 0)  -->
<svg version="1.1" id="Capa_1" xmlns="http://www.w3.org/2000/svg" xmlns:xlink="http://www.w3.org/1999/xlink" x="0px" y="0px"
	 viewBox="0 0 79.4 79.4" style="enable-background:new 0 0 79.4 79.4;" xml:space="preserve">
<style type="text/css">
	.st0{fill:none;stroke:#FFFFFF;stroke-miterlimit:10;}
	.st1{fill:#FFFFFF;}
	.st2{fill:none;stroke:#FFFFFF;stroke-width:2;stroke-miterlimit:10;}
</style>
<g>
	<path class="st1" d="M56.3,4.2H25.1c-3.2,0-5.9,2.6-5.9,5.9v58.1c0,3.2,2.6,5.9,5.9,5.9h31.2c3.2,0,5.9-2.6,5.9-5.9V10.1
		C62.2,6.9,59.5,4.2,56.3,4.2z M61,50.9c-0.1-0.2-0.5-1-3.3-2.7l-1.6,2.9c1,0.7,2.4,2,3.5,2.9v10.5c0,2-1.6,3.7-3.7,3.7H25.5
		c-2,0-3.7-1.6-3.7-3.7V41.4c0.1,0.1,0.1,0.1,0.2,0.2l3.1-1.9c-1.5-1.4-4.1-6.4-4.1-6.5l-1.2,5.9c0,0,0,0,0,0l1.2-6
		c0,0,0.4,0.7,0.9,1.6V15.4c0-2,1.6-3.7,3.7-3.7h30.3c2,0,3.7,1.6,3.7,3.7v33.9c1.1,0.9,1.4,1.3,1.5,1.4L61,50.9z"/>
	<path class="st1" d="M50,25.9c0-5.1-4.2-9.3-9.3-9.3c-5.1,0-9.3,4.2-9.3,9.3c0,6.4,9.3,17.4,9.3,17.4S50,32,50,25.9z M37.9,28.6
		c-1.5-1.5-1.5-4.1,0-5.6c0.7-0.7,1.7-1.2,2.8-1.2s2.1,0.4,2.8,1.2c1.5,1.5,1.5,4.1,0,5.6c-0.8,0.8-1.8,1.2-2.8,1.2
		C39.7,29.8,38.7,29.4,37.9,28.6z"/>
	<path class="st1" d="M23.8,43c1.4,1,3.1,2,5,2.7l2.3-2.5c-1.6-0.6-3-1.3-4.2-2.1L23.8,43z"/>
	<path class="st1" d="M33.6,43.9l-2.4,2.6c1.9,0.5,4,0.7,6.2,0.6l0.9-3C36.6,44.2,35.1,44.2,33.6,43.9z"/>
	<path class="st1" d="M48.5,47.5c2,0.5,3.7,1.2,5.2,2l1.5-2.8c-1.6-0.8-3.4-1.5-5.4-2L48.5,47.5z"/>
	<path class="st1" d="M40.5,46.9c1.9-0.1,3.6-0.1,5.2,0.1l1.2-2.8c-1.7-0.3-3.6-0.4-5.6-0.3L40.5,46.9z"/>
</g>
</svg>
