<?xml version="1.0" encoding="utf-8"?>
<!-- Generator: Adobe Illustrator 23.0.0, SVG Export Plug-In . SVG Version: 6.00 Build 0)  -->
<svg version="1.1" id="Capa_1" xmlns="http://www.w3.org/2000/svg" xmlns:xlink="http://www.w3.org/1999/xlink" x="0px" y="0px"
	 viewBox="0 0 79.4 79.4" style="enable-background:new 0 0 79.4 79.4;" xml:space="preserve">
<style type="text/css">
	.st0{fill:none;stroke:#FFFFFF;stroke-miterlimit:10;}
	.st1{fill:#FFFFFF;}
	.st2{fill:none;stroke:#FFFFFF;stroke-width:2;stroke-miterlimit:10;}
</style>
<g>
	<path class="st1" d="M69.5,46.7l-2.6-5.9c0,0-0.8-19.1-19.5-21.8c9.2,5.5,10.6,16.1,10.8,18.4c0,0.3,0.1,0.6,0.2,0.8l2.4,5.4
		c0.5,1.1,0.3,2.4-0.5,3.3c-0.9,0.9-2,1.6-2.8,2c-0.9,0.4-1.4,1.4-1.4,2.3v4.9c0,0.9-0.4,1.8-1.2,2.3l-1.1,0.8
		c-0.6,0.4-1.4,0.7-2.1,0.7H48c-1.4,0-2.6,1.1-2.6,2.5l-0.2,5.8c0,0.9-0.5,1.6-1.1,2l6.1,3.3c1.6,0.9,3.5-0.2,3.6-2L54,63h6.2
		c0.7,0,1.4-0.2,2-0.6l1.3-0.9c0.7-0.5,1.1-1.3,1.1-2.1v-6.8c0,0,2.6-0.9,4.3-2.7C69.7,49,69.9,47.7,69.5,46.7z"/>
	<path class="st1" d="M53.6,38.1L51,32.2c0,0-0.8-19.7-20.5-21.9v24.5l10,10c0.7,0.7,0.7,1.8,0,2.5l-0.7,0.7c-0.7,0.7-1.8,0.7-2.5,0
		l-10-10c-0.1-0.1-0.2-0.2-0.2-0.3c-1,0.9-2.3,1.5-3.8,1.5c-3,0-5.4-2.4-5.4-5.4s2.4-5.4,5.4-5.4c1.5,0,2.9,0.6,3.9,1.6V10.1
		C21.9,10.2,8.9,12.2,6,28.3c0,0-0.9,13.2,7.2,17.8c0.8,0.5,1.4,1.4,1.4,2.4l0.1,3.8c0,1.3,0.8,2.5,1.9,3.1l17.7,9.7
		c1.6,0.9,3.5-0.2,3.6-2l0.3-8.6h6.2c0.7,0,1.4-0.2,2-0.6l1.3-0.9c0.7-0.5,1.1-1.3,1.1-2.1v-6.8c0,0,2.6-0.9,4.3-2.7
		C53.9,40.4,54.1,39.2,53.6,38.1z"/>
</g>
</svg>
