<?xml version="1.0" encoding="utf-8"?>
<!-- Generator: Adobe Illustrator 23.0.0, SVG Export Plug-In . SVG Version: 6.00 Build 0)  -->
<svg version="1.1" id="Capa_1" xmlns="http://www.w3.org/2000/svg" xmlns:xlink="http://www.w3.org/1999/xlink" x="0px" y="0px"
	 viewBox="0 0 104.1 95.4" style="enable-background:new 0 0 104.1 95.4;" xml:space="preserve">
<style type="text/css">
	.st0{fill:#155F86;}
	.st1{fill:#D4D4D5;}
	.st2{fill:#0E9FDB;}
	.st3{fill:#FFFFFF;}
	.st4{fill:#065F87;}
	.st5{fill:none;stroke:#FFFFFF;stroke-miterlimit:10;}
	.st6{fill:none;stroke:#155F86;stroke-width:3;stroke-miterlimit:10;}
	.st7{fill:none;stroke:#FFFFFF;stroke-width:2;stroke-miterlimit:10;}
	.st8{fill:none;stroke:#9D9D9C;stroke-width:4;stroke-miterlimit:10;}
	.st9{fill:none;stroke:#000000;stroke-width:4;stroke-miterlimit:10;}
	.st10{fill:#9D9D9C;}
	.st11{fill:url(#SVGID_1_);}
	.st12{fill:url(#SVGID_2_);}
	.st13{fill:url(#SVGID_3_);}
	.st14{fill:#010202;}
	.st15{fill:url(#SVGID_4_);}
	.st16{opacity:0.2;fill:#FFFFFF;}
	.st17{filter:url(#Adobe_OpacityMaskFilter);}
	.st18{filter:url(#Adobe_OpacityMaskFilter_1_);}
	.st19{fill:url(#SVGID_7_);}
	.st20{fill:url(#SVGID_8_);}
	.st21{fill:url(#SVGID_9_);}
	.st22{filter:url(#Adobe_OpacityMaskFilter_2_);}
	.st23{fill:url(#SVGID_11_);}
	.st24{fill:url(#SVGID_12_);}
	.st25{fill:url(#SVGID_13_);}
	.st26{filter:url(#Adobe_OpacityMaskFilter_3_);}
	.st27{clip-path:url(#SVGID_16_);fill:#FFFFFF;}
	.st28{clip-path:url(#SVGID_16_);fill:#1B6C98;}
	.st29{clip-path:url(#SVGID_16_);fill:#155F86;}
	.st30{fill:#176086;}
	.st31{clip-path:url(#SVGID_18_);fill:url(#SVGID_19_);}
	.st32{clip-path:url(#SVGID_18_);fill:url(#SVGID_20_);}
	.st33{clip-path:url(#SVGID_18_);fill:url(#SVGID_21_);}
	.st34{clip-path:url(#SVGID_18_);fill:url(#SVGID_22_);}
	.st35{fill:#EFEEEE;}
	.st36{clip-path:url(#SVGID_24_);fill:url(#SVGID_25_);}
	.st37{clip-path:url(#SVGID_24_);fill:url(#SVGID_26_);}
	.st38{clip-path:url(#SVGID_24_);fill:url(#SVGID_27_);}
	.st39{clip-path:url(#SVGID_24_);fill:url(#SVGID_28_);}
	.st40{fill:#0B5F87;}
	.st41{fill:#ECECEC;}
	.st42{fill:#106086;}
	.st43{fill-rule:evenodd;clip-rule:evenodd;fill:#FFFFFF;}
	.st44{fill:#FFFFFF;stroke:#FFFFFF;stroke-miterlimit:10;}
	.st45{fill:none;stroke:#155F86;stroke-width:5;stroke-miterlimit:10;}
	.st46{fill:none;stroke:#155F86;stroke-width:2;stroke-miterlimit:10;}
</style>
<circle class="st0" cx="52.7" cy="48.2" r="44.7"/>
<g>
	<g>
		<path class="st3" d="M78.3,71.3H26.4c-2.5,0-4.6-2.1-4.6-4.6V31.4c0-2.5,2.1-4.6,4.6-4.6h51.9c2.5,0,4.6,2.1,4.6,4.6v35.2
			C82.9,69.2,80.8,71.3,78.3,71.3z M26.4,28.8c-1.4,0-2.6,1.2-2.6,2.6v35.2c0,1.4,1.2,2.6,2.6,2.6h51.9c1.4,0,2.6-1.2,2.6-2.6V31.4
			c0-1.4-1.2-2.6-2.6-2.6H26.4z"/>
	</g>
	<g>
		<path class="st3" d="M49.5,41.4H27.9c-0.3,0-0.5-0.2-0.5-0.5v-0.1c0-0.3,0.2-0.5,0.5-0.5h21.6c0.3,0,0.5,0.2,0.5,0.5v0.1
			C50,41.2,49.8,41.4,49.5,41.4z"/>
	</g>
	<g>
		<path class="st3" d="M49.5,44.6H27.9c-0.3,0-0.5-0.2-0.5-0.5V44c0-0.3,0.2-0.5,0.5-0.5h21.6c0.3,0,0.5,0.2,0.5,0.5v0.1
			C50,44.3,49.8,44.6,49.5,44.6z"/>
	</g>
	<g>
		<path class="st3" d="M49.5,50.8H27.9c-0.3,0-0.5-0.2-0.5-0.5v-0.1c0-0.3,0.2-0.5,0.5-0.5h21.6c0.3,0,0.5,0.2,0.5,0.5v0.1
			C50,50.6,49.8,50.8,49.5,50.8z"/>
	</g>
	<g>
		<path class="st3" d="M49.5,47.7H27.9c-0.3,0-0.5-0.2-0.5-0.5v-0.1c0-0.3,0.2-0.5,0.5-0.5h21.6c0.3,0,0.5,0.2,0.5,0.5v0.1
			C50,47.5,49.8,47.7,49.5,47.7z"/>
	</g>
	<g>
		<path class="st3" d="M49.5,54H27.9c-0.3,0-0.5-0.2-0.5-0.5v-0.1c0-0.3,0.2-0.5,0.5-0.5h21.6c0.3,0,0.5,0.2,0.5,0.5v0.1
			C50,53.8,49.8,54,49.5,54z"/>
	</g>
	<g>
		<path class="st3" d="M49.5,57.1H27.9c-0.3,0-0.5-0.2-0.5-0.5v-0.1c0-0.3,0.2-0.5,0.5-0.5h21.6c0.3,0,0.5,0.2,0.5,0.5v0.1
			C50,56.9,49.8,57.1,49.5,57.1z"/>
	</g>
	<g>
		<path class="st3" d="M49.5,60.2H27.9c-0.3,0-0.5-0.2-0.5-0.5v-0.1c0-0.3,0.2-0.5,0.5-0.5h21.6c0.3,0,0.5,0.2,0.5,0.5v0.1
			C50,60,49.8,60.2,49.5,60.2z"/>
	</g>
	<g>
		<path class="st3" d="M49.5,63.4H27.9c-0.3,0-0.5-0.2-0.5-0.5v-0.1c0-0.3,0.2-0.5,0.5-0.5h21.6c0.3,0,0.5,0.2,0.5,0.5v0.1
			C50,63.2,49.8,63.4,49.5,63.4z"/>
	</g>
	<g>
		<path class="st3" d="M49.5,66.5H27.9c-0.3,0-0.5-0.2-0.5-0.5v-0.1c0-0.3,0.2-0.5,0.5-0.5h21.6c0.3,0,0.5,0.2,0.5,0.5V66
			C50,66.3,49.8,66.5,49.5,66.5z"/>
	</g>
	<g>
		<g>
			<path class="st3" d="M77,51.5H55.4c-0.3,0-0.5-0.2-0.5-0.5v-0.1c0-0.3,0.2-0.5,0.5-0.5H77c0.3,0,0.5,0.2,0.5,0.5V51
				C77.5,51.3,77.3,51.5,77,51.5z"/>
		</g>
		<g>
			<path class="st3" d="M77,48.4H55.4c-0.3,0-0.5-0.2-0.5-0.5v-0.1c0-0.3,0.2-0.5,0.5-0.5H77c0.3,0,0.5,0.2,0.5,0.5v0.1
				C77.5,48.2,77.3,48.4,77,48.4z"/>
		</g>
		<g>
			<path class="st3" d="M77,54.5H55.4c-0.3,0-0.5-0.2-0.5-0.5v-0.1c0-0.3,0.2-0.5,0.5-0.5H77c0.3,0,0.5,0.2,0.5,0.5V54
				C77.5,54.3,77.3,54.5,77,54.5z"/>
		</g>
		<g>
			<path class="st3" d="M77,57.5H55.4c-0.3,0-0.5-0.2-0.5-0.5V57c0-0.3,0.2-0.5,0.5-0.5H77c0.3,0,0.5,0.2,0.5,0.5v0.1
				C77.5,57.3,77.3,57.5,77,57.5z"/>
		</g>
		<g>
			<path class="st3" d="M77,60.6H55.4c-0.3,0-0.5-0.2-0.5-0.5V60c0-0.3,0.2-0.5,0.5-0.5H77c0.3,0,0.5,0.2,0.5,0.5v0.1
				C77.5,60.4,77.3,60.6,77,60.6z"/>
		</g>
		<g>
			<path class="st3" d="M77,63.6H55.4c-0.3,0-0.5-0.2-0.5-0.5V63c0-0.3,0.2-0.5,0.5-0.5H77c0.3,0,0.5,0.2,0.5,0.5v0.1
				C77.5,63.4,77.3,63.6,77,63.6z"/>
		</g>
		<g>
			<path class="st3" d="M77,66.7H55.4c-0.3,0-0.5-0.2-0.5-0.5v-0.1c0-0.3,0.2-0.5,0.5-0.5H77c0.3,0,0.5,0.2,0.5,0.5v0.1
				C77.5,66.4,77.3,66.7,77,66.7z"/>
		</g>
	</g>
	<g>
		<rect x="55.1" y="31.3" class="st3" width="22.3" height="13.6"/>
	</g>
	<g>
		<g>
			<path class="st3" d="M31.9,36.2h-1.3l-2.2-3.5v3.5h-1.2v-5.1h1.6l1.9,2.9v-2.9h1.2V36.2z"/>
		</g>
		<g>
			<path class="st3" d="M36.9,36.2h-3.7v-5.1h3.7v1h-2.4V33h2.2v1h-2.2v1.3h2.4V36.2z"/>
		</g>
		<g>
			<path class="st3" d="M45,31.1l-1.4,5.1h-1.5l-0.9-3.3l-0.9,3.3H39l-1.4-5.1H39l0.8,3.5l0.9-3.5H42l0.9,3.5l0.8-3.5H45z"/>
		</g>
		<g>
			<path class="st3" d="M50,34.6c0,0.5-0.2,0.9-0.6,1.2c-0.4,0.3-1,0.5-1.7,0.5c-0.4,0-0.8,0-1.1-0.1c-0.3-0.1-0.6-0.2-0.9-0.3v-1.2
				h0.1c0.3,0.2,0.6,0.4,0.9,0.5s0.7,0.2,1,0.2c0.1,0,0.2,0,0.3,0c0.1,0,0.2,0,0.3-0.1c0.1,0,0.2-0.1,0.2-0.2s0.1-0.2,0.1-0.3
				c0-0.1,0-0.2-0.1-0.3c-0.1-0.1-0.2-0.1-0.4-0.2c-0.2,0-0.4-0.1-0.6-0.1c-0.2,0-0.4-0.1-0.6-0.2c-0.4-0.1-0.7-0.3-0.9-0.6
				c-0.2-0.2-0.3-0.5-0.3-0.9c0-0.5,0.2-0.9,0.6-1.2c0.4-0.3,1-0.5,1.6-0.5c0.3,0,0.7,0,1,0.1c0.3,0.1,0.6,0.1,0.9,0.2v1.2h-0.1
				c-0.2-0.2-0.5-0.3-0.8-0.4S48.3,32,48,32c-0.1,0-0.2,0-0.3,0c-0.1,0-0.2,0-0.3,0.1c-0.1,0-0.2,0.1-0.2,0.2
				c-0.1,0.1-0.1,0.1-0.1,0.2c0,0.1,0.1,0.2,0.2,0.3c0.1,0.1,0.3,0.1,0.6,0.2c0.2,0,0.4,0.1,0.5,0.1c0.2,0,0.4,0.1,0.6,0.2
				c0.4,0.1,0.7,0.3,0.9,0.5C49.9,34,50,34.3,50,34.6z"/>
		</g>
	</g>
</g>
</svg>
