<?xml version="1.0" encoding="utf-8"?>
<!-- Generator: Adobe Illustrator 23.0.0, SVG Export Plug-In . SVG Version: 6.00 Build 0)  -->
<svg version="1.1" id="Capa_1" xmlns="http://www.w3.org/2000/svg" xmlns:xlink="http://www.w3.org/1999/xlink" x="0px" y="0px"
	 viewBox="0 0 79.4 79.4" style="enable-background:new 0 0 79.4 79.4;" xml:space="preserve">
<style type="text/css">
	.st0{fill:#FFFFFF;}
</style>
<g>
	<path class="st0" d="M-111.7,55.6H-60c0.8,0,1.5-0.7,1.5-1.5V22.2c0-0.9-0.7-1.5-1.5-1.5h-51.8c-0.9,0-1.5,0.7-1.5,1.5v31.9
		C-113.3,54.9-112.6,55.6-111.7,55.6z M-109.8,24H-62v28.2h-47.7V24z"/>
	<path class="st0" d="M-58,56.7c-0.3-0.3-0.6-0.4-1-0.4h-53.8c-0.4,0-0.7,0.1-1,0.4l-5.4,5.1c-1.1,1.1-0.5,3.1,1,3.1h64.6
		c1.4,0,2.1-2.1,1-3.1L-58,56.7z"/>
	<rect x="-107.7" y="26.4" class="st0" width="43.3" height="13.2"/>
	<rect x="-107.7" y="40.7" class="st0" width="10.3" height="1.3"/>
	<rect x="-107.7" y="43.2" class="st0" width="21.3" height="6.5"/>
	<rect x="-96.7" y="40.7" class="st0" width="10.3" height="1.3"/>
	<rect x="-85.7" y="40.7" class="st0" width="10.3" height="1.3"/>
	<rect x="-85.7" y="43.1" class="st0" width="21.3" height="1"/>
	<rect x="-85.7" y="44.8" class="st0" width="21.3" height="1"/>
	<rect x="-85.7" y="46.5" class="st0" width="21.3" height="1"/>
	<rect x="-85.7" y="48.1" class="st0" width="11.1" height="1"/>
	<rect x="-74.7" y="40.7" class="st0" width="10.3" height="1.3"/>
</g>
<g>
	<path class="st0" d="M-227.6,161.9c0-0.3-0.2-0.6-0.5-0.7v-3.7c0.3-0.1,0.5-0.4,0.5-0.7s-0.2-0.6-0.5-0.7V148l-1.8-1.6
		c0,0,0,0,0-0.1c0-0.4-0.3-0.7-0.8-0.7c0,0,0,0-0.1,0l-0.8-1l-3,0.3c-0.1-0.2-0.4-0.4-0.7-0.4c-0.3,0-0.6,0.2-0.7,0.5l-2.3,0.1
		l-10.1,5l0.3,3.8c-0.3,0.1-0.5,0.3-0.5,0.6l-4.4,0.9l-5.1,14.9l1.3,2.1c-0.1,0.1-0.1,0.2-0.2,0.3l0,0c0,0.1,0,0.1,0,0.2
		c0,0.2,0.1,0.4,0.2,0.5l-1.3,2.1l2.8,7c-0.1,0.1-0.2,0.2-0.2,0.4l0,0l0,0c0,0,0,0.1,0,0.1c0,0.4,0.3,0.7,0.8,0.7
		c0.2,0,0.3-0.1,0.5-0.2l3.9,2.2c0,0.1,0,0.1,0,0.2c0,0.2,0.1,0.4,0.2,0.5l-1.2,2l5.6,6.9l3.5,1.6c0,0.3,0.2,0.5,0.4,0.6l0.1,0
		c0,0,0.1,0,0.1,0l-1.3,2.6l4.5,2.3h5.9c0.1,0.3,0.4,0.5,0.7,0.5c0.3,0,0.6-0.2,0.7-0.5l0,0c0-0.1,0-0.1,0-0.2
		c0-0.2-0.1-0.4-0.2-0.5l2.6-4.5c0.1,0,0.1,0,0.2,0c0.4,0,0.8-0.3,0.8-0.7c0-0.3-0.2-0.6-0.5-0.7v-4.2c0.3-0.1,0.5-0.4,0.5-0.7
		c0-0.3-0.2-0.6-0.5-0.7v-10.7c0.3-0.1,0.5-0.4,0.5-0.7c0-0.3-0.2-0.6-0.5-0.7v-8c0.3-0.1,0.5-0.4,0.5-0.7s-0.2-0.6-0.5-0.7v-6.4
		C-227.8,162.5-227.6,162.2-227.6,161.9z M-255.4,172.8C-255.4,172.8-255.4,172.8-255.4,172.8l5.4-4.1l6.5-4.9
		c0.1,0.1,0.2,0.1,0.4,0.1l1.3,8.4c-0.2,0.1-0.4,0.3-0.4,0.5H-255.4z M-243.5,162.7c-0.1,0.1-0.2,0.3-0.2,0.5c0,0.1,0,0.2,0.1,0.3
		l-11.9,8.9l7.7-17c0,0,0.1,0,0.1,0c0.1,0,0.1,0,0.2,0l1.4,2.5L-243.5,162.7z M-241,182.1l6.1,3.5c0,0.1,0,0.1,0,0.2
		c0,0.2,0.1,0.4,0.2,0.5l-6.5,10.3c0,0,0,0-0.1,0v-14.2C-241.2,182.2-241,182.1-241,182.1z M-232.7,196.1c-0.2,0.1-0.4,0.3-0.4,0.5
		l-7.5,0.4c0-0.1-0.1-0.3-0.2-0.4l6.5-10.2c0,0,0.1,0,0.1,0l0,0.3L-232.7,196.1z M-240.8,181.7c0-0.1,0-0.1,0-0.2c0-0.1,0-0.1,0-0.2
		l0-0.1c-0.1-0.2-0.3-0.4-0.5-0.4v-7l6.6,11.3L-240.8,181.7z M-241.4,172.3C-241.4,172.3-241.4,172.3-241.4,172.3l-1.3-8.4
		c0.3-0.1,0.4-0.4,0.4-0.7c0-0.1,0-0.1,0-0.2l5.6-3l1.4-0.8c0,0,0,0,0,0l-2.5,5.3L-241.4,172.3z M-228.9,161.4l-5.1-2.5
		c0,0,0-0.1,0-0.1c0,0,0,0,0,0l5-1.6c0.1,0.1,0.2,0.3,0.4,0.3v3.7C-228.7,161.2-228.8,161.3-228.9,161.4z M-235.4,158.8
		C-235.4,158.8-235.4,158.8-235.4,158.8c0,0.1,0,0.1,0,0.2l-0.8,0.4l-6.3,3.4c-0.1-0.1-0.3-0.2-0.5-0.2c-0.1,0-0.1,0-0.2,0l-3-5.3
		l-1.1-2c0,0,0.1-0.1,0.1-0.1l5.9,1.8L-235.4,158.8z M-255.4,173.2h13.2c0.1,0.2,0.3,0.4,0.5,0.5v7.1c-0.1,0-0.2,0.1-0.3,0.2
		l-12.5-7.2L-255.4,173.2z M-253.9,183.3l11.4-1.4l-6.6,3.8c-0.1-0.1-0.3-0.2-0.5-0.2c-0.2,0-0.4,0.1-0.5,0.2l-3.8-2.2
		C-253.9,183.4-253.9,183.3-253.9,183.3z M-231.7,201.8c-0.2,0-0.4,0.1-0.5,0.2l-8-4.6l7.2-0.3c0.1,0.2,0.4,0.4,0.6,0.4
		c0.3,0,0.6-0.2,0.7-0.4l2.7-0.1c0,0.1,0.1,0.2,0.2,0.3l-2.6,4.5C-231.5,201.8-231.6,201.8-231.7,201.8z M-229,196.6h-2.7
		c-0.1-0.3-0.3-0.5-0.6-0.5l-1.2-8l-0.3-1.7c0,0,0,0,0.1,0l0.5,0.5l4.2,4c-0.1,0.1-0.1,0.2-0.1,0.3c0,0.3,0.2,0.6,0.5,0.7v4.2
		C-228.8,196.2-229,196.4-229,196.6z M-228.7,190.6l-4.8-4.5c0.1-0.1,0.1-0.2,0.1-0.3c0-0.2,0-0.3-0.1-0.4l1-1.1l3.9-4.4
		c0,0,0.1,0,0.1,0v10.7C-228.6,190.5-228.6,190.5-228.7,190.6z M-229.1,179.1c0,0.2,0,0.3,0.1,0.4l-4.9,5.5c-0.1,0-0.2-0.1-0.3-0.1
		c-0.1,0-0.1,0-0.2,0l-6.6-11.4c0.1-0.1,0.2-0.3,0.2-0.5l11.8-3c0.1,0.2,0.3,0.3,0.4,0.3v8C-228.8,178.5-229.1,178.7-229.1,179.1z
		 M-229.1,169.7l-11.8,3c0-0.1-0.1-0.1-0.2-0.2l3.7-7.8l2.5-5.2c0,0,0.1,0,0.1,0c0.2,0,0.4-0.1,0.6-0.2l5.1,2.5c0,0,0,0.1,0,0.1
		c0,0.3,0.2,0.6,0.5,0.7v6.4C-228.8,169.1-229.1,169.3-229.1,169.7z M-228.5,148.2v7.9c-0.3,0.1-0.5,0.4-0.5,0.7c0,0,0,0,0,0l-5,1.6
		c-0.1-0.1-0.1-0.2-0.2-0.2l2.5-8l1-3.1c0,0,0.1,0,0.1,0c0.2,0,0.4-0.1,0.6-0.3L-228.5,148.2z M-231.1,145.8
		c-0.2,0.1-0.3,0.3-0.3,0.6c0,0.2,0.1,0.4,0.3,0.6l-1,3.2l-2.5,7.9c0,0,0,0,0,0c-0.3,0-0.5,0.1-0.6,0.3l-5.6-1.8l-6.1-1.9
		c0,0,0,0,0,0c0-0.1,0-0.2-0.1-0.3l6.2-4.7l5.2-3.9c0.1,0.1,0.3,0.2,0.5,0.2c0.4,0,0.7-0.3,0.7-0.7l2.7-0.3L-231.1,145.8z
		 M-238.1,145.6l2.2-0.1c0,0,0,0,0,0l-5.5,4.1l-6,4.5c-0.1-0.1-0.2-0.1-0.3-0.1l-0.3-3.5L-238.1,145.6z M-252.6,155.9l4.2-0.9
		c0,0.1,0.1,0.2,0.2,0.2l-7.8,17.1c0,0-0.1,0-0.1,0c-0.1,0-0.1,0-0.2,0l-1.2-1.9L-252.6,155.9z M-256.3,173.8c0.1,0,0.1,0,0.2,0
		c0.2,0,0.4-0.1,0.5-0.2l0.5,0.3l12.9,7.5c0,0,0,0,0,0.1l-11.7,1.5c-0.1-0.3-0.4-0.4-0.7-0.4c-0.1,0-0.1,0-0.2,0l-2.7-6.8
		L-256.3,173.8z M-250.7,188.7l1-1.8c0.1,0,0.1,0,0.2,0c0.4,0,0.8-0.3,0.8-0.7c0-0.1,0-0.1,0-0.2l6.8-3.9c0.1,0.1,0.2,0.1,0.3,0.2
		v14.2c-0.1,0.1-0.3,0.2-0.3,0.3l-3.3-1.5L-250.7,188.7z M-242.2,200.3l1.2-2.5c0.1-0.1,0.2-0.1,0.2-0.2l8.3,4.7h-5.8L-242.2,200.3z
		"/>
	<path class="st0" d="M-226,162.6v6.4c-0.3,0.1-0.5,0.4-0.5,0.7s0.2,0.6,0.5,0.7v8c-0.3,0.1-0.5,0.4-0.5,0.7c0,0.3,0.2,0.6,0.5,0.7
		v10.7c-0.3,0.1-0.5,0.4-0.5,0.7c0,0.3,0.2,0.6,0.5,0.7v4.2c-0.3,0.1-0.5,0.4-0.5,0.7c0,0.4,0.3,0.7,0.8,0.7c0.1,0,0.1,0,0.2,0
		l2.6,4.5c-0.1,0.1-0.2,0.3-0.2,0.5c0,0.1,0,0.1,0,0.2l0,0c0.1,0.3,0.4,0.5,0.7,0.5s0.6-0.2,0.7-0.5h5.9l4.5-2.3l-1.3-2.6
		c0,0,0.1,0,0.1,0l0.1,0c0.3-0.1,0.4-0.4,0.4-0.6l3.5-1.6l5.6-6.9l-1.2-2c0.1-0.1,0.2-0.3,0.2-0.5c0-0.1,0-0.1,0-0.2l3.9-2.2
		c0.1,0.1,0.3,0.2,0.5,0.2c0.4,0,0.8-0.3,0.8-0.7c0,0,0-0.1,0-0.1l0,0l0,0c0-0.1-0.1-0.3-0.2-0.4l2.8-7l-1.3-2.1
		c0.1-0.1,0.2-0.3,0.2-0.5c0-0.1,0-0.1,0-0.2l0,0c0-0.1-0.1-0.2-0.2-0.3l1.3-2.1l-5.1-14.9l-4.4-0.9c0-0.3-0.2-0.5-0.5-0.6l0.3-3.8
		l-10.1-5l-2.3-0.1c-0.1-0.3-0.4-0.5-0.7-0.5c-0.3,0-0.5,0.2-0.7,0.4l-3-0.3l-0.8,1c0,0,0,0-0.1,0c-0.4,0-0.8,0.3-0.8,0.7
		c0,0,0,0,0,0.1l-1.8,1.6v8.1c-0.3,0.1-0.5,0.4-0.5,0.7s0.2,0.6,0.5,0.7v3.7c-0.3,0.1-0.5,0.4-0.5,0.7S-226.3,162.5-226,162.6z
		 M-211.9,172.8c-0.1-0.2-0.2-0.4-0.4-0.5l1.3-8.4c0.1,0,0.3-0.1,0.4-0.1l6.5,4.9l5.5,4.1c0,0,0,0,0,0.1H-211.9z M-207.9,157.9
		l1.4-2.5c0.1,0,0.1,0,0.2,0c0,0,0.1,0,0.1,0l7.7,17l-11.9-8.9c0-0.1,0.1-0.2,0.1-0.3c0-0.2-0.1-0.4-0.2-0.5L-207.9,157.9z
		 M-212.9,182.2v14.2c0,0-0.1,0-0.1,0l-6.5-10.3c0.1-0.1,0.2-0.3,0.2-0.5c0-0.1,0-0.1,0-0.2l6.1-3.5
		C-213.1,182.1-213,182.2-212.9,182.2z M-220,186.7l0-0.3c0,0,0.1,0,0.1,0l6.5,10.2c-0.1,0.1-0.2,0.2-0.2,0.4l-7.5-0.4
		c-0.1-0.2-0.2-0.4-0.4-0.5L-220,186.7z M-219.5,185.1l6.6-11.3v7c-0.2,0.1-0.4,0.2-0.5,0.4l0,0.1c0,0.1,0,0.1,0,0.2
		c0,0.1,0,0.1,0,0.2L-219.5,185.1z M-216.4,164.6l-2.5-5.3c0,0,0,0,0,0l1.4,0.8l5.6,3c0,0.1,0,0.1,0,0.2c0,0.3,0.2,0.6,0.4,0.7
		l-1.3,8.4c0,0,0,0,0,0L-216.4,164.6z M-225.6,161.2v-3.7c0.2,0,0.3-0.2,0.4-0.3l5,1.6c0,0,0,0,0,0c0,0,0,0.1,0,0.1l-5.1,2.5
		C-225.4,161.3-225.5,161.2-225.6,161.2z M-212.9,156.9l5.9-1.8c0,0,0.1,0.1,0.1,0.1l-1.1,2l-3,5.3c-0.1,0-0.1,0-0.2,0
		c-0.2,0-0.4,0.1-0.5,0.2l-6.3-3.4l-0.8-0.4c0-0.1,0-0.1,0-0.2c0,0,0,0,0,0L-212.9,156.9z M-199.6,173.7l-12.5,7.2
		c-0.1-0.1-0.2-0.1-0.3-0.2v-7.1c0.3-0.1,0.4-0.3,0.5-0.5h13.2L-199.6,173.7z M-200.2,183.4l-3.8,2.2c-0.1-0.1-0.3-0.2-0.5-0.2
		c-0.2,0-0.4,0.1-0.5,0.2l-6.6-3.8l11.4,1.4C-200.2,183.3-200.2,183.4-200.2,183.4z M-222.7,201.8l-2.6-4.5c0.1-0.1,0.1-0.2,0.2-0.3
		l2.7,0.1c0.1,0.2,0.4,0.4,0.7,0.4c0.3,0,0.5-0.1,0.6-0.4l7.2,0.3l-8,4.6c-0.1-0.1-0.3-0.2-0.5-0.2
		C-222.5,201.8-222.6,201.8-222.7,201.8z M-225.6,196.1v-4.2c0.3-0.1,0.5-0.4,0.5-0.7c0-0.1,0-0.2-0.1-0.3l4.2-4l0.5-0.5
		c0,0,0,0,0.1,0l-0.3,1.7l-1.2,8c-0.3,0-0.5,0.2-0.6,0.5h-2.7C-225.2,196.4-225.4,196.2-225.6,196.1z M-225.6,190.5v-10.7
		c0,0,0.1,0,0.1,0l3.9,4.4l1,1.1c-0.1,0.1-0.1,0.3-0.1,0.4c0,0.1,0,0.2,0.1,0.3l-4.8,4.5C-225.5,190.5-225.6,190.5-225.6,190.5z
		 M-225.6,178.4v-8c0.2-0.1,0.3-0.2,0.4-0.3l11.8,3c0,0.2,0.1,0.4,0.2,0.5l-6.6,11.4c-0.1,0-0.1,0-0.2,0c-0.1,0-0.2,0-0.3,0.1
		l-4.9-5.5c0.1-0.1,0.1-0.3,0.1-0.4C-225.1,178.7-225.3,178.5-225.6,178.4z M-225.6,169v-6.4c0.3-0.1,0.5-0.4,0.5-0.7
		c0,0,0-0.1,0-0.1l5.1-2.5c0.1,0.2,0.3,0.2,0.6,0.2c0,0,0.1,0,0.1,0l2.5,5.2l3.7,7.8c-0.1,0.1-0.1,0.1-0.2,0.2l-11.8-3
		C-225.1,169.3-225.3,169.1-225.6,169z M-224,146.8c0.1,0.2,0.3,0.3,0.6,0.3c0,0,0.1,0,0.1,0l1,3.1l2.5,8c-0.1,0.1-0.2,0.1-0.2,0.2
		l-5-1.6c0,0,0,0,0,0c0-0.3-0.2-0.6-0.5-0.7v-7.9L-224,146.8z M-222.4,145.1l2.7,0.3c0,0.4,0.4,0.7,0.7,0.7c0.2,0,0.4-0.1,0.5-0.2
		l5.2,3.9l6.2,4.7c0,0.1-0.1,0.2-0.1,0.3c0,0,0,0,0,0l-6.1,1.9l-5.6,1.8c-0.1-0.2-0.4-0.3-0.6-0.3c0,0,0,0,0,0l-2.5-7.9l-1-3.2
		c0.2-0.1,0.3-0.3,0.3-0.6c0-0.2-0.1-0.4-0.3-0.6L-222.4,145.1z M-206.2,150.4l-0.3,3.5c-0.1,0-0.2,0.1-0.3,0.1l-6-4.5l-5.5-4.1
		c0,0,0,0,0,0l2.2,0.1L-206.2,150.4z M-196.6,170.4l-1.2,1.9c-0.1,0-0.1,0-0.2,0c0,0-0.1,0-0.1,0l-7.8-17.1c0.1-0.1,0.1-0.1,0.2-0.2
		l4.2,0.9L-196.6,170.4z M-196.6,175.7l-2.7,6.8c-0.1,0-0.1,0-0.2,0c-0.3,0-0.6,0.2-0.7,0.4l-11.7-1.5c0,0,0-0.1,0-0.1l12.9-7.5
		l0.5-0.3c0.1,0.1,0.3,0.2,0.5,0.2c0.1,0,0.1,0,0.2,0L-196.6,175.7z M-208.8,195.3l-3.3,1.5c-0.1-0.1-0.2-0.2-0.3-0.3v-14.2
		c0.1,0,0.2-0.1,0.3-0.2l6.8,3.9c0,0.1,0,0.1,0,0.2c0,0.4,0.3,0.7,0.8,0.7c0.1,0,0.1,0,0.2,0l1,1.8L-208.8,195.3z M-215.9,202.3
		h-5.8l8.3-4.7c0.1,0.1,0.1,0.2,0.2,0.2l1.2,2.5L-215.9,202.3z"/>
</g>
<g id="XMLID_7_">
	<g id="XMLID_87_">
		<g id="XMLID_122_">
			<path id="XMLID_142_" class="st0" d="M42.4,29.4c0-1.4-1.2-2.6-2.6-2.6c-1.4,0-2.6,1.2-2.6,2.6c0,1.2,0.8,2.2,1.9,2.5
				c0,0.1,0,0.1,0,0.2v33.1c0,0.4,0.3,0.7,0.7,0.7c0.4,0,0.7-0.3,0.7-0.7V32.1c0-0.1,0-0.2,0-0.2C41.6,31.6,42.4,30.6,42.4,29.4z
				 M39.8,30.7c-0.7,0-1.3-0.6-1.3-1.3c0-0.7,0.6-1.3,1.3-1.3c0.7,0,1.3,0.6,1.3,1.3C41.1,30.1,40.5,30.7,39.8,30.7z"/>
			<path id="XMLID_151_" class="st0" d="M39.8,66.2c-0.5,0-0.9-0.4-0.9-0.9V32.1c0,0,0,0,0-0.1c-1.1-0.4-1.9-1.5-1.9-2.7
				c0-1.6,1.3-2.8,2.8-2.8c1.6,0,2.8,1.3,2.8,2.8c0,1.2-0.8,2.3-1.9,2.7c0,0,0,0,0,0.1v33.1C40.8,65.7,40.4,66.2,39.8,66.2z
				 M39.8,27.1c-1.3,0-2.3,1-2.3,2.3c0,1.1,0.7,2,1.7,2.2c0.1,0,0.1,0.1,0.2,0.1c0,0.1,0,0.1,0,0.2c0,0.1,0,0.1,0,0.1v33.1
				c0,0.2,0.2,0.4,0.4,0.4c0.2,0,0.4-0.2,0.4-0.4V32.1c0,0,0-0.1,0-0.1c0-0.1,0-0.1,0-0.2c0-0.1,0.1-0.1,0.2-0.1
				c1-0.3,1.7-1.2,1.7-2.2C42.1,28.1,41.1,27.1,39.8,27.1z M39.8,30.9c-0.8,0-1.5-0.7-1.5-1.5s0.7-1.5,1.5-1.5s1.5,0.7,1.5,1.5
				S40.7,30.9,39.8,30.9z M39.8,28.4c-0.5,0-1,0.4-1,1c0,0.5,0.4,1,1,1c0.5,0,1-0.4,1-1C40.8,28.9,40.4,28.4,39.8,28.4z"/>
		</g>
		<g id="XMLID_149_">
			<path id="XMLID_126_" class="st0" d="M69.8,39.6c0.3-2.5-0.3-6.8-4.4-7.9c0-1.1-0.3-3.2-1.8-5c-1.2-1.4-2.9-2.2-5.1-2.4
				c-0.5-1.4-2.1-4.5-7.2-4.2c-0.6-1-2.2-3.1-5.3-3.4c-1.6-0.2-3.2,0.4-4.7,1.5c-0.8-1.3-2.3-2.6-5-2.3c-1.3,0.2-2.3,0.7-3.1,1.3
				c0,0,0,0-0.1,0c0,0-0.1,0.1-0.1,0.1c-0.5,0.4-0.8,0.8-1.1,1.2c-0.1,0.1-0.2,0.2-0.3,0.4c-1.8-1.1-6.5-3.4-11-0.7l-0.1,0.1
				c-4.5,2.7-4.8,6.6-4.7,8.1c-0.9,0.3-2.5,1.1-3.5,2.8c-1,1.6-1.3,3.5-0.9,5.8c-1.1,0.6-3.2,2.2-3.3,6c-0.1,2.5,1.1,4.4,3.7,5.8
				c-0.2,1.4-0.4,5,2,7.3c2.1,1.9,4.2,2.2,8.2,1.2c0.4,1.3,1.5,4,4.2,5.8c2.5,1.7,5.7,2.2,9.4,1.4c0.2,0,0.3-0.1,0.4-0.2
				c0,0,0-0.1,0.1-0.1c0,0,0,0,0,0c0.1-0.1,0.1-0.2,0.1-0.2c0,0,0,0,0,0c0,0,0-0.1,0-0.1V45.3c1.1-0.3,1.9-1.3,1.9-2.5
				c0-1.4-1.2-2.6-2.6-2.6c-1.4,0-2.6,1.2-2.6,2.6c0,1.2,0.8,2.2,1.9,2.5v9.8h-4.7v-4c1.1-0.3,1.9-1.3,1.9-2.5
				c0-1.4-1.2-2.6-2.6-2.6c-1.4,0-2.6,1.2-2.6,2.6c0,1.2,0.8,2.2,1.9,2.5v5.4h0h1.3h4.7V61c-3.1,0.5-5.8,0.1-7.8-1.2
				c-3-2-3.7-5.6-3.7-5.6c0-0.2-0.2-0.4-0.4-0.5c-0.2-0.1-0.4-0.1-0.6-0.1c-4.4,1.3-6,0.8-7.5-0.6c-2.4-2.2-1.5-6.3-1.5-6.4
				c0.1-0.4-0.1-0.7-0.4-0.9c-2.4-1.2-3.4-2.6-3.3-4.6c0.1-3.8,2.8-4.8,2.9-4.8c0.4-0.1,0.6-0.5,0.5-0.9c-0.5-2.1-0.3-3.9,0.5-5.2
				c1.2-1.8,3.2-2.3,3.2-2.3c0.2,0,0.4-0.2,0.5-0.3c0.1-0.2,0.2-0.4,0.1-0.6c0,0-0.9-4.3,3.9-7.2l0.1-0.1c3.7-2.2,7.7-0.2,9.3,0.7
				c-0.7,1.3-1.4,3.1-1.6,5.3c-2.2,0.4-3.6,1.9-3.7,2c-0.3,0.3-0.3,0.8,0,1.1c0.2,0.2,0.4,0.2,0.6,0.2c0.2,0,0.4-0.1,0.6-0.2
				c0,0,1.6-1.6,3.8-1.6c2.2,0,3.6,1,3.6,1c0.3,0.3,0.8,0.2,1.1-0.2c0.3-0.4,0.2-0.8-0.2-1.1c-0.1-0.1-1.6-1.2-4.1-1.3
				c0.2-1.9,0.9-3.5,1.5-4.6c0.4-0.7,1.4-2,1.7-2.3c0.6-0.5,1.3-0.9,2.4-1c2.9-0.3,3.6,2,3.7,2.2c0.1,0.3,0.3,0.5,0.6,0.5
				c0.3,0.1,0.6,0,0.8-0.2c1.3-1.2,2.9-1.9,4.3-1.8c3,0.3,4.2,2.9,4.3,3c0.1,0.3,0.5,0.5,0.8,0.5c5.5-0.6,6.2,3.3,6.2,3.4
				c0.1,0.4,0.4,0.7,0.7,0.7c2,0.1,3.5,0.8,4.6,1.9c1.6,1.9,1.4,4.5,1.4,4.5c0,0.4,0.2,0.8,0.7,0.8c4.6,0.8,3.7,6.3,3.7,6.6
				c0,0.2,0,0.5,0.2,0.7c1.2,1.4,1.8,2.7,1.7,4c-0.1,0.9-0.4,1.6-0.8,2.1c-1.2-2-3.1-3.3-5.5-3.8c-0.4-0.1-0.9,0.2-0.9,0.6
				c-0.1,0.4,0.2,0.9,0.6,0.9c2.3,0.5,3.9,1.8,4.9,3.9c0,0.1,0,0.1,0.1,0.2c0,0,0,0,0,0.1c0.2,0.4,0.3,0.8,0.5,1.3
				c0,0.1,0.1,0.2,0.1,0.2c0.4,1.5,0.4,4-1.5,6.9c-2.5,3.8-5.8,4.1-7.2,4.1c-0.1-1.3-0.5-3.1-1.9-4.3c1.3-1.1,2.1-2.5,2.6-4.2
				c0.1-0.4-0.1-0.9-0.5-1c-0.4-0.1-0.9,0.1-1,0.5c-0.5,1.7-1.3,2.9-2.6,3.8C55.2,57,53.3,57,53.2,57c-0.4,0-0.8,0.4-0.8,0.8
				c0,0.4,0.4,0.8,0.8,0.8c0.1,0,1.9,0,3.8-1c1.4,0.8,1.7,2.7,1.8,3.8c0,0.1-0.1,0.2-0.1,0.3c-0.1,2.1-2.6,4.1-8.1,3.8
				c-5-0.2-5.1-3.3-5.1-3.7c0-0.2-0.1-0.3-0.1-0.5V50.5h6h0v-4.9c1.1-0.3,1.9-1.3,1.9-2.5c0-1.4-1.2-2.6-2.6-2.6
				c-1.4,0-2.6,1.2-2.6,2.6c0,1.2,0.8,2.2,1.9,2.5v3.5h-4.7v-9.8c1.1-0.3,1.9-1.3,1.9-2.5c0-1.4-1.2-2.6-2.6-2.6
				c-1.4,0-2.6,1.2-2.6,2.6c0,1.2,0.8,2.2,1.9,2.5v22c0,0.1-0.1,0.2-0.1,0.3c0,0.1-0.1,5,6.6,5.3c0.3,0,0.7,0,1,0
				c5.2,0,7.7-2,8.5-4.1c0.1-0.1,0.2-0.2,0.3-0.4c1.8,0,5.6-0.4,8.5-4.8c3.1-4.6,1.8-8.3,1.2-9.7c0.6-0.6,1.4-1.8,1.5-3.5
				C71.7,42.9,71.1,41.2,69.8,39.6z M34.4,42.8c0-0.7,0.6-1.3,1.3-1.3c0.7,0,1.3,0.6,1.3,1.3c0,0.7-0.6,1.3-1.3,1.3
				C34.9,44.1,34.4,43.5,34.4,42.8z M29.5,49.9c-0.7,0-1.3-0.6-1.3-1.3c0-0.7,0.6-1.3,1.3-1.3c0.7,0,1.3,0.6,1.3,1.3
				C30.8,49.3,30.2,49.9,29.5,49.9z M49.5,43.2c0-0.7,0.6-1.3,1.3-1.3s1.3,0.6,1.3,1.3c0,0.7-0.6,1.3-1.3,1.3S49.5,43.9,49.5,43.2z
				 M43.5,36.9c0-0.7,0.6-1.3,1.3-1.3c0.7,0,1.3,0.6,1.3,1.3c0,0.7-0.6,1.3-1.3,1.3C44,38.2,43.5,37.6,43.5,36.9z"/>
			<path id="XMLID_156_" class="st0" d="M51.6,67.3c-0.3,0-0.6,0-1,0c-7-0.3-6.9-5.5-6.9-5.6c0-0.1,0-0.2,0.1-0.3V39.6
				c-1.1-0.4-1.9-1.5-1.9-2.7c0-1.6,1.3-2.8,2.8-2.8c1.6,0,2.8,1.3,2.8,2.8c0,1.2-0.8,2.3-1.9,2.7v9.3h4.1v-3.1
				c-1.1-0.4-1.9-1.5-1.9-2.7c0-1.6,1.3-2.8,2.8-2.8c1.6,0,2.8,1.3,2.8,2.8c0,1.2-0.8,2.3-1.9,2.7v4.7c0,0.1-0.1,0.3-0.3,0.3h-5.8
				v10.4c0.1,0.2,0.2,0.4,0.1,0.6c0,0.3,0.1,3.2,4.8,3.4c5.2,0.2,7.7-1.6,7.8-3.6c0-0.1,0-0.2,0.1-0.3c-0.1-1-0.3-2.6-1.5-3.4
				c-1.9,1-3.7,1-3.8,1c-0.6,0-1.1-0.5-1.1-1.1c0-0.6,0.5-1.1,1.1-1.1c0.1,0,1.9,0,3.5-1.2c1.2-0.8,2.1-2.1,2.5-3.7
				c0.2-0.6,0.7-0.9,1.3-0.7c0.6,0.2,0.9,0.7,0.7,1.3c-0.5,1.7-1.3,3.1-2.5,4.2c1.2,1.2,1.6,2.8,1.8,4c1.4,0,4.4-0.5,6.7-4
				c1.9-2.8,1.8-5.1,1.5-6.6c-0.1-0.1-0.1-0.2-0.1-0.3c-0.1-0.4-0.3-0.8-0.5-1.3l0,0c0-0.1-0.1-0.1-0.1-0.2c-1-2-2.6-3.3-4.7-3.8
				c-0.3-0.1-0.5-0.2-0.7-0.5c-0.2-0.2-0.2-0.5-0.1-0.8c0.1-0.3,0.2-0.5,0.5-0.7c0.2-0.2,0.5-0.2,0.8-0.1c2.3,0.5,4.1,1.7,5.4,3.6
				c0.2-0.4,0.5-1,0.5-1.6c0.1-1.2-0.5-2.5-1.6-3.8c-0.2-0.2-0.3-0.6-0.3-0.9c0-0.2,0.8-5.5-3.5-6.3c-0.5-0.1-0.9-0.6-0.9-1.1
				c0-0.1,0.2-2.6-1.4-4.3c-1-1.1-2.4-1.7-4.4-1.8c-0.5,0-0.9-0.4-1-0.9c0-0.1-0.6-3.7-5.9-3.2c-0.4,0-0.9-0.2-1.1-0.6
				c0-0.1-1.2-2.5-4.1-2.8c-1.3-0.1-2.8,0.5-4.1,1.7c-0.3,0.3-0.7,0.3-1,0.2c-0.4-0.1-0.6-0.4-0.7-0.7c-0.1-0.2-0.8-2.4-3.4-2.1
				c-0.9,0.1-1.6,0.4-2.3,1c-0.2,0.2-1.3,1.5-1.6,2.2c-0.8,1.3-1.2,2.8-1.5,4.3c2.4,0.2,3.9,1.3,4,1.4c0.5,0.3,0.6,1,0.2,1.5
				c-0.2,0.2-0.4,0.4-0.7,0.4c-0.3,0-0.6,0-0.8-0.2c0,0-1.4-1-3.5-1c-2,0-3.5,1.5-3.6,1.5c-0.4,0.4-1.1,0.4-1.5,0
				c-0.4-0.4-0.4-1.1,0-1.5c0.1-0.1,1.5-1.5,3.7-2c0.2-1.8,0.7-3.4,1.5-5c-1.6-1-5.4-2.6-8.8-0.6l-0.1,0.1c-4.6,2.8-3.8,6.9-3.8,6.9
				c0.1,0.3,0,0.6-0.1,0.8c-0.2,0.2-0.4,0.4-0.7,0.5c0,0-2,0.5-3.1,2.2c-0.8,1.3-1,3-0.5,5c0.1,0.5-0.2,1.1-0.7,1.3
				c-0.1,0-2.6,0.9-2.7,4.6c-0.1,1.9,0.9,3.2,3.2,4.4c0.4,0.2,0.7,0.7,0.6,1.2c0,0-0.9,4,1.4,6.1c1.5,1.4,2.9,1.8,7.2,0.5
				c0.3-0.1,0.6,0,0.9,0.1c0.3,0.2,0.4,0.4,0.5,0.7c0,0,0.7,3.5,3.6,5.4c1.9,1.3,4.4,1.7,7.4,1.2v-4h-5.8c-0.1,0-0.3-0.1-0.3-0.3
				v-5.2c-1.1-0.4-1.9-1.5-1.9-2.7c0-1.6,1.3-2.8,2.8-2.8c1.6,0,2.8,1.3,2.8,2.8c0,1.2-0.8,2.3-1.9,2.7v3.6h4.2v-9.4
				c-1.1-0.4-1.9-1.5-1.9-2.7c0-1.6,1.3-2.8,2.8-2.8c1.6,0,2.8,1.3,2.8,2.8c0,1.2-0.8,2.3-1.9,2.7v16.3c0,0.1,0,0.1,0,0.1l-0.3,0
				l0.3,0.1c0,0.1-0.1,0.2-0.1,0.3c0,0,0,0,0,0.1c0,0.1-0.1,0.1-0.1,0.1c-0.1,0.2-0.3,0.3-0.6,0.3c-3.8,0.8-7.1,0.3-9.6-1.5
				c-2.5-1.7-3.7-4.2-4.2-5.7c-4,1-6.1,0.7-8.2-1.3c-2.4-2.3-2.3-5.8-2.1-7.3c-2.6-1.5-3.7-3.4-3.7-6c0.1-3.7,2-5.4,3.3-6.1
				c-0.4-2.3-0.1-4.2,0.9-5.8c1-1.6,2.6-2.4,3.5-2.8c-0.1-1.7,0.4-5.5,4.9-8.2l0.1-0.1c4.5-2.6,9.1-0.5,11,0.6
				c0-0.1,0.1-0.1,0.1-0.2c0.3-0.5,0.7-0.9,1.1-1.2c0.1-0.1,0.1-0.1,0.1-0.1c0,0,0.1,0,0.1-0.1c0.9-0.7,2-1.2,3.2-1.3
				c2.9-0.3,4.4,1.3,5.1,2.2c1.5-1,3.1-1.5,4.7-1.4c3.1,0.3,4.8,2.4,5.4,3.4c5-0.3,6.8,2.7,7.3,4.2c2.2,0.3,3.9,1.1,5.1,2.5
				c1.5,1.7,1.8,3.7,1.9,4.9c3.7,1.1,4.7,5,4.4,8c1.3,1.6,1.9,3.3,1.8,5c-0.1,1.6-0.9,2.9-1.5,3.5c0.7,1.5,1.8,5.2-1.3,9.8
				c-2.9,4.4-6.8,4.9-8.5,4.9c0,0,0,0,0,0c-0.1,0.1-0.1,0.2-0.2,0.3C59.8,64.4,58,67.3,51.6,67.3z M44.7,34.6c-1.3,0-2.3,1-2.3,2.3
				c0,1,0.7,1.9,1.7,2.2c0.1,0,0.2,0.1,0.2,0.3v22c0,0,0,0.1,0,0.1c0,0.1,0,0.1,0,0.2c0,0.2-0.1,4.8,6.4,5c0.3,0,0.6,0,0.9,0
				c6.2,0,7.8-2.8,8.3-3.9c0,0,0-0.1,0.1-0.1c0.1-0.1,0.2-0.2,0.2-0.3c0-0.1,0.1-0.2,0.3-0.2c0,0,0,0,0,0c1.9,0.1,5.5-0.5,8.3-4.7
				c3-4.5,1.8-8.1,1.2-9.4c0-0.1,0-0.2,0-0.3c0.5-0.6,1.4-1.7,1.5-3.3c0.1-1.6-0.5-3.2-1.8-4.7c0-0.1-0.1-0.1-0.1-0.2
				c0.1-0.6,0.6-6.3-4.2-7.6c-0.1,0-0.2-0.1-0.2-0.2c0-1.1-0.3-3.1-1.7-4.8c-1.2-1.3-2.8-2.1-4.9-2.3c-0.1,0-0.2-0.1-0.2-0.2
				c-0.4-1.3-2-4.3-7-4c-0.1,0-0.2,0-0.2-0.1c-0.5-0.9-2.1-3-5.1-3.3c-1.5-0.1-3.1,0.4-4.5,1.4c-0.1,0-0.1,0.1-0.2,0
				c-0.1,0-0.1-0.1-0.2-0.1c-0.5-0.8-1.8-2.5-4.7-2.2c-1.1,0.1-2.1,0.5-2.9,1.2c0,0-0.1,0-0.1,0l0,0c0,0,0,0-0.1,0.1
				c-0.4,0.3-0.7,0.7-1,1.2c-0.1,0.1-0.2,0.2-0.3,0.4c-0.1,0.1-0.2,0.1-0.4,0.1c-1.7-1.1-6.3-3.3-10.7-0.7l-0.1,0.1
				c-4.4,2.7-4.7,6.4-4.6,7.9c0,0.1-0.1,0.2-0.2,0.3c-0.8,0.3-2.4,1.1-3.4,2.7c-1,1.5-1.2,3.4-0.8,5.6c0,0.1,0,0.2-0.1,0.3
				c-1.1,0.6-3.1,2.2-3.2,5.8c-0.1,2.4,1,4.2,3.6,5.6c0.1,0.1,0.1,0.2,0.1,0.3c-0.2,1.4-0.4,4.9,2,7.1c2,1.9,4.1,2.2,8,1.1
				c0.1,0,0.3,0,0.3,0.2c0.4,1.4,1.5,3.9,4.1,5.7c2.4,1.6,5.5,2.1,9.2,1.4c0.1,0,0.2-0.1,0.3-0.2c0,0,0.1-0.1,0.1-0.1
				c0-0.1,0.1-0.1,0.1-0.2c0,0,0-0.1,0-0.1l0-16.4c0-0.1,0.1-0.2,0.2-0.3c1-0.3,1.7-1.2,1.7-2.2c0-1.3-1-2.3-2.3-2.3
				c-1.3,0-2.3,1-2.3,2.3c0,1,0.7,1.9,1.7,2.2c0.1,0,0.2,0.1,0.2,0.3v9.8c0,0.1-0.1,0.3-0.3,0.3h-4.7c-0.1,0-0.3-0.1-0.3-0.3v-4
				c0-0.1,0.1-0.2,0.2-0.3c1-0.3,1.7-1.2,1.7-2.2c0-1.3-1-2.3-2.3-2.3c-1.3,0-2.3,1-2.3,2.3c0,1,0.7,1.9,1.7,2.2
				c0.1,0,0.2,0.1,0.2,0.3v5.1h5.8c0.1,0,0.3,0.1,0.3,0.3V61c0,0.1-0.1,0.2-0.2,0.3c-3.2,0.6-5.9,0.1-8-1.3
				c-3.1-2.1-3.8-5.8-3.9-5.8c0-0.1-0.1-0.3-0.2-0.4c-0.1-0.1-0.3-0.1-0.4-0.1c-4.6,1.3-6.1,0.9-7.8-0.7c-2.5-2.3-1.6-6.5-1.5-6.6
				c0.1-0.2-0.1-0.5-0.3-0.6c-2.5-1.3-3.6-2.7-3.5-4.9c0.1-4,2.9-5,3.1-5.1c0.3-0.1,0.4-0.4,0.4-0.6c-0.5-2.2-0.3-4,0.5-5.4
				c1.2-1.9,3.4-2.4,3.4-2.4c0.1,0,0.3-0.1,0.3-0.2c0.1-0.1,0.1-0.3,0.1-0.4c0,0-0.9-4.5,4.1-7.5l0.1-0.1c3.9-2.3,8-0.2,9.6,0.7
				c0.1,0.1,0.2,0.2,0.1,0.4c-0.9,1.6-1.4,3.3-1.6,5.2c0,0.1-0.1,0.2-0.2,0.2c-2.1,0.4-3.5,1.8-3.6,1.9c-0.2,0.2-0.2,0.5,0,0.7
				c0.2,0.2,0.5,0.2,0.7,0c0,0,1.7-1.7,3.9-1.7c2.3,0,3.8,1.1,3.8,1.1c0.1,0.1,0.3,0.1,0.4,0.1c0.1,0,0.3-0.1,0.3-0.2
				c0.1-0.1,0.1-0.3,0.1-0.4c0-0.1-0.1-0.3-0.2-0.3c0,0-1.6-1.2-4-1.3c-0.1,0-0.1,0-0.2-0.1c0-0.1-0.1-0.1-0.1-0.2
				c0.2-1.7,0.7-3.3,1.6-4.7c0.4-0.7,1.5-2.1,1.7-2.3c0.7-0.6,1.6-1,2.6-1.1c3.1-0.4,3.9,2.1,4,2.4c0.1,0.2,0.2,0.3,0.4,0.4
				c0.2,0.1,0.4,0,0.5-0.1c1.4-1.3,3.1-2,4.5-1.8c3.2,0.3,4.4,3,4.5,3.1c0.1,0.2,0.3,0.3,0.5,0.3c5.8-0.6,6.5,3.5,6.5,3.6
				c0,0.3,0.2,0.4,0.5,0.5c2.1,0.1,3.7,0.8,4.7,2c1.7,1.9,1.5,4.6,1.5,4.7c0,0.3,0.2,0.5,0.4,0.6c4.8,0.8,4,6.6,3.9,6.9
				c0,0.2,0,0.3,0.1,0.4c1.3,1.4,1.8,2.8,1.7,4.2c-0.1,0.8-0.3,1.5-0.8,2.2c-0.1,0.1-0.1,0.1-0.2,0.1c-0.1,0-0.2,0-0.2-0.1
				c-1.2-1.9-3-3.2-5.3-3.7c-0.1,0-0.3,0-0.4,0.1c-0.1,0.1-0.2,0.2-0.2,0.3c0,0.1,0,0.3,0.1,0.4c0.1,0.1,0.2,0.2,0.3,0.2
				c2.3,0.5,4.1,1.9,5.1,4.1c0,0,0,0.1,0,0.1c0,0,0,0,0,0.1c0,0,0,0,0.1,0.1c0.2,0.5,0.4,0.9,0.5,1.4c0,0.1,0,0.1,0.1,0.2
				c0,0,0,0.1,0,0.1c0.4,1.6,0.4,4.1-1.5,7.1c-2.6,3.9-6.1,4.2-7.4,4.2c-0.1,0-0.2-0.1-0.3-0.2c-0.1-1.3-0.5-3-1.8-4.1
				c-0.1-0.1-0.1-0.1-0.1-0.2s0-0.2,0.1-0.2c1.2-1,2.1-2.4,2.5-4.1c0.1-0.3-0.1-0.6-0.4-0.7c-0.3-0.1-0.6,0.1-0.7,0.4
				c-0.5,1.7-1.4,3.1-2.7,4c-1.8,1.2-3.7,1.3-3.8,1.3c-0.3,0-0.5,0.2-0.5,0.5c0,0.3,0.2,0.5,0.5,0.5c0.1,0,1.8,0,3.7-1
				c0.1,0,0.2,0,0.3,0c1.5,0.9,1.8,2.9,1.9,4c0,0,0,0.1,0,0.1c0,0.1,0,0.1,0,0.2c-0.1,2.2-2.7,4.3-8.3,4.1c-5.3-0.2-5.4-3.6-5.4-3.9
				c0-0.1,0-0.2-0.1-0.3c0,0,0-0.1,0-0.2V50.5c0-0.1,0.1-0.3,0.3-0.3h5.8v-4.6c0-0.1,0.1-0.2,0.2-0.3c1-0.3,1.7-1.2,1.7-2.2
				c0-1.3-1-2.3-2.3-2.3s-2.3,1-2.3,2.3c0,1,0.7,1.9,1.7,2.2c0.1,0,0.2,0.1,0.2,0.3v3.5c0,0.1-0.1,0.3-0.3,0.3h-4.7
				c-0.1,0-0.3-0.1-0.3-0.3v-9.8c0-0.1,0.1-0.2,0.2-0.3c1-0.3,1.7-1.2,1.7-2.2C47,35.6,46,34.6,44.7,34.6z M29.5,50.1
				c-0.8,0-1.5-0.7-1.5-1.5c0-0.8,0.7-1.5,1.5-1.5c0.8,0,1.5,0.7,1.5,1.5C31,49.5,30.4,50.1,29.5,50.1z M29.5,47.6c-0.5,0-1,0.4-1,1
				s0.4,1,1,1c0.5,0,1-0.4,1-1S30.1,47.6,29.5,47.6z M50.8,44.7c-0.8,0-1.5-0.7-1.5-1.5c0-0.8,0.7-1.5,1.5-1.5s1.5,0.7,1.5,1.5
				C52.3,44,51.6,44.7,50.8,44.7z M50.8,42.2c-0.5,0-1,0.4-1,1c0,0.5,0.4,1,1,1s1-0.4,1-1C51.8,42.6,51.3,42.2,50.8,42.2z
				 M35.6,44.3c-0.8,0-1.5-0.7-1.5-1.5c0-0.8,0.7-1.5,1.5-1.5c0.8,0,1.5,0.7,1.5,1.5C37.1,43.7,36.5,44.3,35.6,44.3z M35.6,41.8
				c-0.5,0-1,0.4-1,1c0,0.5,0.4,1,1,1c0.5,0,1-0.4,1-1C36.6,42.3,36.2,41.8,35.6,41.8z M44.7,38.4c-0.8,0-1.5-0.7-1.5-1.5
				c0-0.8,0.7-1.5,1.5-1.5c0.8,0,1.5,0.7,1.5,1.5C46.3,37.7,45.6,38.4,44.7,38.4z M44.7,35.9c-0.5,0-1,0.4-1,1c0,0.5,0.4,1,1,1
				c0.5,0,1-0.4,1-1C45.7,36.4,45.3,35.9,44.7,35.9z"/>
		</g>
		<g id="XMLID_153_">
			<path id="XMLID_91_" class="st0" d="M54.3,28.4c1.7,1.4,2.1,3.1,2.1,3.1c0.1,0.4,0.4,0.6,0.8,0.6c0.1,0,0.1,0,0.2,0
				c0.4-0.1,0.7-0.5,0.6-0.9c0-0.1-0.5-2.2-2.6-4c-2.1-1.8-5-1.6-5.1-1.6c-0.4,0-0.8,0.4-0.7,0.9c0,0.4,0.4,0.8,0.9,0.7
				C50.4,27.2,52.7,27.1,54.3,28.4z"/>
			<path id="XMLID_115_" class="st0" d="M57.2,32.5c-0.5,0-0.9-0.3-1-0.8c0,0-0.4-1.6-2-3l0,0c-1.5-1.3-3.6-1.1-3.7-1.1
				c-0.6,0.1-1.1-0.4-1.1-1c-0.1-0.6,0.4-1.1,1-1.1c0.1,0,3-0.3,5.3,1.6c2.2,1.8,2.7,4,2.7,4.1c0.1,0.3,0,0.6-0.1,0.8
				c-0.2,0.2-0.4,0.4-0.7,0.5C57.3,32.4,57.2,32.5,57.2,32.5z M54.5,28.2c1.7,1.5,2.2,3.3,2.2,3.3c0.1,0.3,0.3,0.5,0.6,0.4
				c0.1,0,0.3-0.1,0.3-0.2c0.1-0.1,0.1-0.3,0.1-0.4c0-0.1-0.5-2.1-2.5-3.8c-2.1-1.8-4.8-1.5-4.9-1.5c-0.3,0-0.5,0.3-0.5,0.6
				c0,0.3,0.3,0.5,0.6,0.5C50.5,27,52.8,26.8,54.5,28.2L54.5,28.2z"/>
		</g>
		<g id="XMLID_154_">
			<path id="XMLID_5_" class="st0" d="M15.8,43.7c0,0,0.1,0,0.1,0c0.4,0,0.7-0.3,0.8-0.7c0,0,0.4-2.2,2.1-3.5
				c1.8-1.3,3.5-1.3,3.5-1.3c0,0,0,0,0,0c0,0,0,0,0,0c0.4,0,0.8-0.3,0.8-0.8c0-0.4-0.3-0.8-0.8-0.8c-0.1,0-1.9,0-3.9,1.2
				c-0.3-0.5-0.8-1.3-0.9-2.3c-0.2-2.2,1.1-3.3,1.2-3.3c0.4-0.3,0.4-0.8,0.2-1.1c-0.3-0.4-0.8-0.4-1.1-0.2c-0.1,0.1-2.1,1.6-1.8,4.8
				c0.1,1.4,0.7,2.5,1.2,3.1c-1.7,1.7-2.1,3.9-2.1,4C15.1,43.3,15.4,43.7,15.8,43.7z"/>
			<path id="XMLID_73_" class="st0" d="M15.9,44c-0.1,0-0.1,0-0.2,0c-0.3,0-0.5-0.2-0.7-0.4c-0.2-0.2-0.2-0.5-0.2-0.8
				c0-0.1,0.4-2.3,2-4c-0.5-0.7-1-1.8-1.1-3.1c-0.3-3.3,1.8-4.9,1.9-5c0.5-0.3,1.1-0.3,1.5,0.2c0.3,0.5,0.3,1.1-0.2,1.5
				c0,0-1.3,1-1.1,3.1c0.1,0.8,0.4,1.5,0.7,2c2-1.1,3.8-1.1,3.8-1.1c0.3,0,0.5,0.1,0.7,0.3c0.2,0.2,0.3,0.5,0.3,0.8
				c0,0.6-0.5,1-1.1,1c0,0-1.7,0-3.4,1.2c-1.6,1.2-2,3.3-2,3.3C16.9,43.6,16.5,44,15.9,44z M18.4,31.1c-0.1,0-0.2,0-0.3,0.1
				c-0.1,0.1-2,1.5-1.7,4.5c0.1,1.3,0.7,2.3,1.1,3c0.1,0.1,0.1,0.3,0,0.3c-1.7,1.6-2,3.8-2,3.9c0,0.1,0,0.3,0.1,0.4
				c0.1,0.1,0.2,0.2,0.3,0.2c0,0,0,0,0,0c0.3,0,0.6-0.2,0.6-0.4c0,0,0.4-2.4,2.2-3.7c1.8-1.3,3.6-1.3,3.7-1.3c0.3,0,0.5-0.2,0.5-0.5
				c0-0.1,0-0.3-0.1-0.4C22.7,37,22.5,37,22.4,37c0,0-1.8,0-3.7,1.1c-0.1,0.1-0.3,0-0.4-0.1c-0.4-0.5-0.8-1.4-0.9-2.4
				c-0.2-2.4,1.2-3.5,1.3-3.6c0.2-0.2,0.3-0.5,0.1-0.7C18.7,31.1,18.5,31.1,18.4,31.1z"/>
		</g>
	</g>
</g>
</svg>
