<?xml version="1.0" encoding="utf-8"?>
<!-- Generator: Adobe Illustrator 23.0.0, SVG Export Plug-In . SVG Version: 6.00 Build 0)  -->
<svg version="1.1" id="Capa_1" xmlns="http://www.w3.org/2000/svg" xmlns:xlink="http://www.w3.org/1999/xlink" x="0px" y="0px"
	 viewBox="0 0 134.8 135.5" style="enable-background:new 0 0 134.8 135.5;" xml:space="preserve">
<style type="text/css">
	.st0{fill:#FFFFFF;stroke:#155F86;stroke-width:5;stroke-miterlimit:10;}
	.st1{fill:none;stroke:#9D9D9C;stroke-width:4;stroke-miterlimit:10;}
	.st2{fill:none;stroke:#000000;stroke-width:4;stroke-miterlimit:10;}
	.st3{fill:#9D9D9C;}
	.st4{fill:#155F86;}
</style>
<circle class="st0" cx="68.2" cy="67.6" r="58.6"/>
<circle class="st1" cx="-834.1" cy="570.5" r="36.2"/>
<line class="st2" x1="-849.4" y1="585.8" x2="-818.7" y2="555.1"/>
<line class="st2" x1="-818.7" y1="585.8" x2="-849.4" y2="555.1"/>
<g>
	<path class="st3" d="M-935.3,492.4c-21,0-38.2-17.1-38.2-38.2s17.1-38.2,38.2-38.2s38.2,17.1,38.2,38.2S-914.3,492.4-935.3,492.4z
		 M-935.3,420.1c-18.8,0-34.2,15.3-34.2,34.2s15.3,34.2,34.2,34.2s34.2-15.3,34.2-34.2S-916.5,420.1-935.3,420.1z"/>
</g>
<path d="M-920,438.9L-920,438.9c-0.8-0.8-2-0.8-2.8,0l-11.1,11.1c-0.8,0.8-2,0.8-2.8,0l-11.1-11.1c-0.8-0.8-2-0.8-2.8,0l0,0
	c-0.8,0.8-0.8,2,0,2.8l11.1,11.1c0.8,0.8,0.8,2,0,2.8l-11.1,11.1c-0.8,0.8-0.8,2,0,2.8l0,0c0.8,0.8,2,0.8,2.8,0l11.1-11.1
	c0.8-0.8,2-0.8,2.8,0l11.1,11.1c0.8,0.8,2,0.8,2.8,0l0,0c0.8-0.8,0.8-2,0-2.8l-11.1-11.1c-0.8-0.8-0.8-2,0-2.8l11.1-11.1
	C-919.2,441-919.2,439.7-920,438.9z"/>
<g>
	<path class="st4" d="M55.3,62.8l2.1-2.4c1.8-1.9,2.7-4.5,2.5-7.1c-0.1-2.6-1.3-5-3.2-6.8l-3.6-3.3c-1.8-1.6-4.1-2.5-6.6-2.5
		c-2.8,0-5.4,1.2-7.3,3.2l-2.1,2.4c-0.3,0.3-0.5,0.6-0.8,1l-0.1,0.1c-2,1.7-3.7,5.9-2.7,11.1c4.6,23.9,24.7,42.1,49,44.3
		c3.2,0.3,6.2-0.4,8.4-1.8c0.9-0.5,1.7-1.2,2.4-1.9l2.1-2.4c3.6-4,3.3-10.2-0.7-13.9l-3.6-3.3C89.3,77.9,87,77,84.5,77
		c-2.8,0-5.4,1.2-7.3,3.2l-2.1,2.4c-0.9,1-1.6,2.2-2,3.5l-0.2,0.6l-0.6-0.2C62.8,82.7,55,75.6,50.4,66.4l-0.3-0.6l0.7-0.2
		C52.6,65.1,54.1,64.2,55.3,62.8z"/>
	<path class="st4" d="M67.3,34.5c0,1.3,1,2.3,2.3,2.3c16,0,29.1,13.1,29.1,29.1c0,1.3,1,2.3,2.3,2.3s2.3-1,2.3-2.3
		c0-18.6-15.1-33.7-33.7-33.7C68.3,32.2,67.3,33.3,67.3,34.5z"/>
	<path class="st4" d="M66.9,45.7c0,1.3,1,2.3,2.3,2.3c10.1,0,18.3,8.2,18.3,18.3c0,1.3,1,2.3,2.3,2.3s2.3-1,2.3-2.3
		c0-12.6-10.2-22.8-22.8-22.8C67.9,43.4,66.9,44.5,66.9,45.7z"/>
</g>
</svg>
