<?xml version="1.0" encoding="utf-8"?>
<!-- Generator: Adobe Illustrator 23.0.0, SVG Export Plug-In . SVG Version: 6.00 Build 0)  -->
<svg version="1.1" id="Capa_1" xmlns="http://www.w3.org/2000/svg" xmlns:xlink="http://www.w3.org/1999/xlink" x="0px" y="0px"
	 viewBox="0 0 38.8 39.4" style="enable-background:new 0 0 38.8 39.4;" xml:space="preserve">
<style type="text/css">
	.st0{fill:#FFFFFF;}
</style>
<path class="st0" d="M19.4,4.2C10.4,4.2,3,11.5,3,20.6c0,9,7.3,16.4,16.4,16.4c9-0.1,16.4-7.4,16.4-16.4S28.5,4.2,19.4,4.2z
	 M15.4,27.4h-3.8V16.6h3.8V27.4z M13.2,14.8c-0.8-0.1-1.3-0.7-1.5-1.4c-0.3-1.2,0.6-2.3,1.8-2.3c1.1,0,1.9,0.9,2,1.8
	C15.5,14.1,14.4,15,13.2,14.8z M24.7,27.4v-5.6c0-1.3-0.2-2.6-1.9-2.6s-2,1.1-2,2.5v5.7h-3.2V16.6h3.1v1.2c0.5-0.9,1.2-1.2,3.2-1.2
	c2.7,0,3.7,1.3,4,3.3c0,0.5,0,7.5,0.1,7.5H24.7z"/>
</svg>
