<?xml version="1.0" encoding="utf-8"?>
<!-- Generator: Adobe Illustrator 23.0.0, SVG Export Plug-In . SVG Version: 6.00 Build 0)  -->
<svg version="1.1" id="Capa_1" xmlns="http://www.w3.org/2000/svg" xmlns:xlink="http://www.w3.org/1999/xlink" x="0px" y="0px"
	 viewBox="0 0 104.1 95.4" style="enable-background:new 0 0 104.1 95.4;" xml:space="preserve">
<style type="text/css">
	.st0{fill:#155F86;}
	.st1{fill:#D4D4D5;}
	.st2{fill:#0E9FDB;}
	.st3{fill:#FFFFFF;}
	.st4{fill:#065F87;}
	.st5{fill:none;stroke:#FFFFFF;stroke-miterlimit:10;}
	.st6{fill:none;stroke:#155F86;stroke-width:3;stroke-miterlimit:10;}
	.st7{fill:none;stroke:#FFFFFF;stroke-width:2;stroke-miterlimit:10;}
	.st8{fill:none;stroke:#9D9D9C;stroke-width:4;stroke-miterlimit:10;}
	.st9{fill:none;stroke:#000000;stroke-width:4;stroke-miterlimit:10;}
	.st10{fill:#9D9D9C;}
	.st11{fill:url(#SVGID_1_);}
	.st12{fill:url(#SVGID_2_);}
	.st13{fill:url(#SVGID_3_);}
	.st14{fill:#010202;}
	.st15{fill:url(#SVGID_4_);}
	.st16{opacity:0.2;fill:#FFFFFF;}
	.st17{filter:url(#Adobe_OpacityMaskFilter);}
	.st18{filter:url(#Adobe_OpacityMaskFilter_1_);}
	.st19{fill:url(#SVGID_7_);}
	.st20{fill:url(#SVGID_8_);}
	.st21{fill:url(#SVGID_9_);}
	.st22{filter:url(#Adobe_OpacityMaskFilter_2_);}
	.st23{fill:url(#SVGID_11_);}
	.st24{fill:url(#SVGID_12_);}
	.st25{fill:url(#SVGID_13_);}
	.st26{filter:url(#Adobe_OpacityMaskFilter_3_);}
	.st27{clip-path:url(#SVGID_16_);fill:#FFFFFF;}
	.st28{clip-path:url(#SVGID_16_);fill:#1B6C98;}
	.st29{clip-path:url(#SVGID_16_);fill:#155F86;}
	.st30{fill:#176086;}
	.st31{clip-path:url(#SVGID_18_);fill:url(#SVGID_19_);}
	.st32{clip-path:url(#SVGID_18_);fill:url(#SVGID_20_);}
	.st33{clip-path:url(#SVGID_18_);fill:url(#SVGID_21_);}
	.st34{clip-path:url(#SVGID_18_);fill:url(#SVGID_22_);}
	.st35{fill:#EFEEEE;}
	.st36{clip-path:url(#SVGID_24_);fill:url(#SVGID_25_);}
	.st37{clip-path:url(#SVGID_24_);fill:url(#SVGID_26_);}
	.st38{clip-path:url(#SVGID_24_);fill:url(#SVGID_27_);}
	.st39{clip-path:url(#SVGID_24_);fill:url(#SVGID_28_);}
	.st40{fill:#0B5F87;}
	.st41{fill:#ECECEC;}
	.st42{fill:#106086;}
	.st43{fill-rule:evenodd;clip-rule:evenodd;fill:#FFFFFF;}
	.st44{fill:#FFFFFF;stroke:#FFFFFF;stroke-miterlimit:10;}
	.st45{fill:none;stroke:#155F86;stroke-width:5;stroke-miterlimit:10;}
	.st46{fill:none;stroke:#155F86;stroke-width:2;stroke-miterlimit:10;}
</style>
<circle class="st0" cx="52.7" cy="48.2" r="44.7"/>
<ellipse class="st5" cx="32.9" cy="58.3" rx="12.9" ry="12.2"/>
<ellipse class="st5" cx="69.3" cy="64.1" rx="12.9" ry="12.2"/>
<g>
	<path class="st3" d="M64.1,65.3h-3.2v-0.6h1.2v-3.9h-1.2v-0.5c0.2,0,0.3,0,0.5,0c0.2,0,0.3-0.1,0.4-0.1c0.1-0.1,0.2-0.1,0.3-0.2
		c0.1-0.1,0.1-0.2,0.1-0.4h0.6v5.2h1.2V65.3z"/>
	<path class="st3" d="M69.5,62c0,0.5-0.1,1-0.2,1.4c-0.1,0.4-0.3,0.8-0.5,1.1c-0.2,0.3-0.5,0.5-0.9,0.7c-0.4,0.2-0.8,0.2-1.3,0.2
		c-0.1,0-0.3,0-0.4,0c-0.1,0-0.2,0-0.3-0.1v-0.7h0c0.1,0,0.2,0.1,0.3,0.1c0.1,0,0.3,0.1,0.5,0.1c0.6,0,1-0.2,1.4-0.5
		c0.3-0.3,0.5-0.8,0.6-1.4c-0.2,0.1-0.5,0.3-0.7,0.3c-0.2,0.1-0.4,0.1-0.7,0.1c-0.2,0-0.5,0-0.7-0.1c-0.2,0-0.4-0.1-0.6-0.3
		c-0.2-0.2-0.4-0.4-0.5-0.6c-0.1-0.2-0.2-0.5-0.2-0.9c0-0.6,0.2-1.1,0.6-1.5c0.4-0.4,0.9-0.6,1.4-0.6c0.3,0,0.5,0,0.8,0.1
		c0.2,0.1,0.4,0.2,0.6,0.4c0.2,0.2,0.4,0.5,0.5,0.8C69.4,61.1,69.5,61.5,69.5,62z M68.7,61.9c0-0.4,0-0.7-0.1-1
		c-0.1-0.2-0.2-0.4-0.3-0.6c-0.1-0.1-0.3-0.2-0.4-0.3C67.7,60,67.5,60,67.4,60c-0.4,0-0.7,0.1-0.9,0.4c-0.2,0.2-0.3,0.6-0.3,1
		c0,0.2,0,0.4,0.1,0.6c0.1,0.2,0.2,0.3,0.4,0.4c0.1,0.1,0.2,0.1,0.4,0.2c0.1,0,0.3,0,0.5,0c0.2,0,0.4,0,0.6-0.1
		c0.2-0.1,0.4-0.1,0.6-0.2c0-0.1,0-0.1,0-0.2C68.7,62,68.7,61.9,68.7,61.9z"/>
	<path class="st3" d="M72.3,64.2l-1.1,2.6h-0.6l0.7-2.6H72.3z"/>
	<path class="st3" d="M77.6,63.7h-0.9v1.6H76v-1.6h-2.8v-0.9l2.8-3.3h0.7V63h0.9V63.7z M76,63v-2.6L73.8,63H76z"/>
	<path class="st3" d="M68.8,69.5c0,0.4-0.1,0.8-0.3,1c-0.2,0.2-0.5,0.3-0.9,0.3c-0.4,0-0.7-0.1-0.9-0.3c-0.2-0.2-0.3-0.5-0.3-1
		c0-0.4,0.1-0.8,0.3-1c0.2-0.2,0.5-0.3,0.9-0.3c0.4,0,0.7,0.1,0.9,0.3C68.7,68.7,68.8,69,68.8,69.5z M68.1,69.5c0-0.3,0-0.5-0.1-0.6
		c-0.1-0.1-0.2-0.1-0.3-0.1c-0.1,0-0.3,0-0.3,0.1c-0.1,0.1-0.1,0.3-0.1,0.6c0,0.3,0,0.5,0.1,0.6c0.1,0.1,0.2,0.1,0.3,0.1
		c0.1,0,0.3,0,0.3-0.1C68,69.9,68.1,69.8,68.1,69.5z M70.9,68.3l-2.1,3.9h-0.7l2.1-3.9H70.9z M72.6,71c0,0.4-0.1,0.8-0.3,1
		c-0.2,0.2-0.5,0.3-0.9,0.3c-0.4,0-0.7-0.1-0.9-0.3c-0.2-0.2-0.3-0.5-0.3-1c0-0.4,0.1-0.8,0.3-1c0.2-0.2,0.5-0.3,0.9-0.3
		c0.4,0,0.7,0.1,0.9,0.3S72.6,70.6,72.6,71z M71.8,71c0-0.3,0-0.5-0.1-0.6c-0.1-0.1-0.2-0.1-0.3-0.1c-0.1,0-0.3,0-0.3,0.1
		c-0.1,0.1-0.1,0.3-0.1,0.6c0,0.3,0,0.5,0.1,0.6c0.1,0.1,0.2,0.1,0.3,0.1c0.1,0,0.3,0,0.3-0.1C71.7,71.5,71.8,71.3,71.8,71z"/>
</g>
<g>
	<path class="st3" d="M32.2,61.1h-6.1v-1.3c0.4-0.4,0.8-0.7,1.3-1.1c0.4-0.4,0.8-0.7,1.2-1.1c0.8-0.7,1.3-1.3,1.6-1.8
		c0.3-0.4,0.4-0.9,0.4-1.4c0-0.5-0.2-0.8-0.5-1.1c-0.3-0.3-0.7-0.4-1.3-0.4c-0.4,0-0.8,0.1-1.2,0.2c-0.4,0.1-0.8,0.3-1.2,0.6h-0.1
		v-1.3c0.3-0.1,0.7-0.3,1.1-0.4c0.5-0.1,0.9-0.2,1.4-0.2c0.9,0,1.6,0.2,2.2,0.7c0.5,0.4,0.8,1,0.8,1.8c0,0.3,0,0.7-0.1,1
		c-0.1,0.3-0.2,0.6-0.4,0.8c-0.2,0.2-0.3,0.5-0.6,0.7c-0.2,0.2-0.5,0.5-0.8,0.8c-0.4,0.4-0.9,0.8-1.3,1.2c-0.5,0.4-0.9,0.8-1.3,1.1
		h4.8V61.1z"/>
	<path class="st3" d="M39.5,61.1h-4.9v-0.9h1.9v-6h-1.9v-0.8c0.3,0,0.5,0,0.8-0.1s0.5-0.1,0.7-0.2c0.2-0.1,0.3-0.2,0.4-0.4
		c0.1-0.2,0.2-0.4,0.2-0.6h0.9v8.1h1.8V61.1z"/>
	<path class="st3" d="M32.3,64.5c0,0.4-0.1,0.8-0.3,1c-0.2,0.2-0.5,0.3-0.9,0.3c-0.4,0-0.7-0.1-0.9-0.3c-0.2-0.2-0.3-0.5-0.3-1
		c0-0.4,0.1-0.8,0.3-1c0.2-0.2,0.5-0.3,0.9-0.3c0.4,0,0.7,0.1,0.9,0.3C32.2,63.8,32.3,64.1,32.3,64.5z M31.5,64.5
		c0-0.3,0-0.5-0.1-0.6c-0.1-0.1-0.2-0.1-0.3-0.1c-0.1,0-0.3,0-0.3,0.1c-0.1,0.1-0.1,0.3-0.1,0.6c0,0.3,0,0.5,0.1,0.6
		c0.1,0.1,0.2,0.1,0.3,0.1c0.1,0,0.3,0,0.3-0.1C31.5,65,31.5,64.8,31.5,64.5z M34.4,63.3l-2.1,3.9h-0.7l2.1-3.9H34.4z M36,66
		c0,0.4-0.1,0.8-0.3,1c-0.2,0.2-0.5,0.3-0.9,0.3c-0.4,0-0.7-0.1-0.9-0.3c-0.2-0.2-0.3-0.5-0.3-1c0-0.4,0.1-0.8,0.3-1
		c0.2-0.2,0.5-0.3,0.9-0.3c0.4,0,0.7,0.1,0.9,0.3C35.9,65.3,36,65.6,36,66z M35.2,66.1c0-0.3,0-0.5-0.1-0.6
		c-0.1-0.1-0.2-0.1-0.3-0.1c-0.1,0-0.3,0-0.3,0.1c-0.1,0.1-0.1,0.3-0.1,0.6c0,0.3,0,0.5,0.1,0.6c0.1,0.1,0.2,0.1,0.3,0.1
		c0.1,0,0.3,0,0.3-0.1C35.2,66.5,35.2,66.3,35.2,66.1z"/>
</g>
<g>
	<path class="st3" d="M56.4,51.7c-0.3,0-0.5,0.1-0.6,0.3c-0.1,0.2-0.2,0.6-0.2,1.1c0,0.6,0.1,0.9,0.2,1.1c0.1,0.2,0.3,0.3,0.6,0.3
		s0.5-0.1,0.6-0.3c0.1-0.2,0.2-0.6,0.2-1.1c0-0.6-0.1-0.9-0.2-1.1C56.9,51.8,56.7,51.7,56.4,51.7z"/>
	<path class="st3" d="M49.1,48.7c-0.3,0-0.5,0.1-0.6,0.3c-0.1,0.2-0.2,0.6-0.2,1.1c0,0.6,0.1,0.9,0.2,1.1s0.3,0.3,0.6,0.3
		s0.5-0.1,0.6-0.3s0.2-0.6,0.2-1.1c0-0.6-0.1-0.9-0.2-1.1C49.6,48.8,49.4,48.7,49.1,48.7z"/>
	<path class="st3" d="M52.8,17.6c-13.5,0-24.4,10.4-24.4,23.3c0,1.8,0.2,3.6,0.7,5.3c1.2-0.3,2.4-0.5,3.7-0.5
		c7.1,0,12.9,5.5,12.9,12.2c0,1.8-0.4,3.4-1.1,4.9c2.6,0.9,5.3,1.4,8.2,1.4c1.4,0,2.8-0.1,4.1-0.4c0.2-6.6,5.9-11.8,12.9-11.8
		c1.4,0,2.8,0.2,4.1,0.6c2.1-3.5,3.4-7.5,3.4-11.8C77.2,28.1,66.3,17.6,52.8,17.6z M39.3,43.4v-2.5c0.8-0.7,1.7-1.4,2.5-2.1
		c0.8-0.7,1.6-1.4,2.3-2.1c1.5-1.5,2.5-2.6,3.1-3.5c0.6-0.9,0.8-1.8,0.8-2.8c0-0.9-0.3-1.6-0.9-2.1c-0.6-0.5-1.4-0.8-2.5-0.8
		c-0.7,0-1.5,0.1-2.3,0.4c-0.8,0.3-1.6,0.6-2.4,1.2h-0.1v-2.5c0.6-0.3,1.3-0.5,2.2-0.8s1.8-0.3,2.7-0.3c1.8,0,3.2,0.4,4.2,1.3
		c1,0.9,1.5,2,1.5,3.5c0,0.7-0.1,1.3-0.3,1.9c-0.2,0.6-0.4,1.1-0.7,1.6c-0.3,0.5-0.7,1-1.1,1.4c-0.4,0.5-0.9,1-1.5,1.6
		c-0.8,0.8-1.7,1.6-2.6,2.4s-1.7,1.5-2.5,2.2h9.5v2H39.3z M47.4,52c-0.4-0.4-0.6-1-0.6-1.9c0-0.8,0.2-1.5,0.6-1.9s1-0.6,1.8-0.6
		c0.8,0,1.4,0.2,1.7,0.6c0.4,0.4,0.6,1,0.6,1.9c0,0.9-0.2,1.5-0.6,1.9c-0.4,0.4-1,0.6-1.7,0.6C48.4,52.6,47.8,52.4,47.4,52z
		 M51.5,55.4h-1.4l4-7.7h1.4L51.5,55.4z M58.2,55c-0.4,0.4-1,0.6-1.7,0.6c-0.8,0-1.4-0.2-1.8-0.6c-0.4-0.4-0.6-1-0.6-1.9
		c0-0.8,0.2-1.5,0.6-1.9s1-0.6,1.8-0.6c0.8,0,1.4,0.2,1.7,0.6c0.4,0.4,0.6,1,0.6,1.9C58.8,53.9,58.6,54.6,58.2,55z M65.9,40.4
		c-0.3,0.7-0.7,1.3-1.2,1.7c-0.6,0.6-1.3,1-2.1,1.2c-0.8,0.3-1.7,0.4-2.6,0.4c-1,0-1.9-0.1-2.9-0.3c-0.9-0.2-1.7-0.5-2.3-0.8v-2.5
		h0.2c0.7,0.4,1.5,0.8,2.4,1.1c0.9,0.3,1.8,0.4,2.6,0.4c0.5,0,1-0.1,1.6-0.2c0.6-0.2,1-0.4,1.4-0.7c0.4-0.3,0.6-0.7,0.8-1.1
		c0.2-0.4,0.3-0.9,0.3-1.6c0-0.6-0.1-1.2-0.3-1.6s-0.5-0.7-0.8-1c-0.4-0.2-0.8-0.4-1.3-0.5c-0.5-0.1-1-0.1-1.6-0.1h-1.1v-2h0.8
		c1.2,0,2.1-0.2,2.9-0.7c0.7-0.5,1.1-1.2,1.1-2.2c0-0.4-0.1-0.8-0.3-1.1c-0.2-0.3-0.4-0.6-0.8-0.8c-0.3-0.2-0.7-0.3-1.1-0.4
		c-0.4-0.1-0.8-0.1-1.3-0.1c-0.7,0-1.5,0.1-2.4,0.4c-0.8,0.3-1.6,0.6-2.4,1.1h-0.1v-2.5c0.6-0.3,1.3-0.5,2.2-0.8s1.8-0.3,2.7-0.3
		c0.9,0,1.6,0.1,2.3,0.2c0.7,0.2,1.2,0.4,1.8,0.8c0.6,0.4,1,0.8,1.3,1.4c0.3,0.5,0.4,1.2,0.4,1.9c0,1-0.3,1.8-1,2.6
		c-0.7,0.7-1.5,1.2-2.4,1.4v0.2c0.4,0.1,0.8,0.2,1.3,0.4c0.5,0.2,0.9,0.4,1.2,0.7c0.4,0.3,0.7,0.8,0.9,1.3c0.2,0.5,0.4,1.2,0.4,2
		C66.3,39,66.2,39.7,65.9,40.4z"/>
</g>
</svg>
