<?xml version="1.0" encoding="utf-8"?>
<!-- Generator: Adobe Illustrator 23.0.0, SVG Export Plug-In . SVG Version: 6.00 Build 0)  -->
<svg version="1.1" id="Capa_1" xmlns="http://www.w3.org/2000/svg" xmlns:xlink="http://www.w3.org/1999/xlink" x="0px" y="0px"
	 viewBox="0 0 38.8 39.4" style="enable-background:new 0 0 38.8 39.4;" xml:space="preserve">
<style type="text/css">
	.st0{fill:#FFFFFF;}
</style>
<g>
	<path class="st0" d="M19.4,4.2C10.4,4.2,3,11.5,3,20.6c0,9,7.3,16.4,16.4,16.4c9-0.1,16.4-7.4,16.4-16.4S28.5,4.2,19.4,4.2z
		 M21.6,26.6h-4.4c-3.3,0-6-2.7-6-6c0-3.3,2.7-6,6-6h4.4c3.3,0,6,2.7,6,6C27.6,23.9,24.9,26.6,21.6,26.6z"/>
	<path class="st0" d="M22.8,20.6l-5.5,3c-0.2,0.1-0.4,0-0.4-0.2v-6c0-0.2,0.2-0.3,0.4-0.2l5.5,3C22.9,20.2,22.9,20.5,22.8,20.6z"/>
</g>
</svg>
