<?xml version="1.0" encoding="utf-8"?>
<!-- Generator: Adobe Illustrator 23.0.0, SVG Export Plug-In . SVG Version: 6.00 Build 0)  -->
<svg version="1.1" id="Capa_1" xmlns="http://www.w3.org/2000/svg" xmlns:xlink="http://www.w3.org/1999/xlink" x="0px" y="0px"
	 viewBox="0 0 79.4 79.4" style="enable-background:new 0 0 79.4 79.4;" xml:space="preserve">
<style type="text/css">
	.st0{fill:#FFFFFF;}
</style>
<path class="st0" d="M222.7,102c-16.7,0-30.3,13.6-30.3,30.3c0,16.7,13.6,30.2,30.3,30.2s30.3-13.6,30.3-30.2
	C252.9,115.5,239.3,102,222.7,102z M222.7,107.8c13.5,0,24.5,11,24.5,24.5c0,4.2-1.1,8.2-2.9,11.6L203.6,117
	C208.1,111.4,215,107.8,222.7,107.8z M222.7,156.7c-13.5,0-24.5-11-24.5-24.5c0-3.7,0.8-7.2,2.3-10.3l40.3,26.7
	C236.4,153.5,229.9,156.7,222.7,156.7z"/>
<path class="st0" d="M39.6,10.1c-16.7,0-30.3,13.6-30.3,30.3c0,16.7,13.6,30.2,30.3,30.2S69.8,57,69.8,40.3
	C69.8,23.6,56.2,10.1,39.6,10.1z M39.6,15.9C53,15.9,64,26.8,64,40.3c0,4.2-1.1,8.2-2.9,11.6L20.5,25.1C25,19.5,31.8,15.9,39.6,15.9
	z M39.6,64.8c-13.5,0-24.5-11-24.5-24.5c0-3.7,0.8-7.2,2.3-10.3l40.3,26.7C53.2,61.6,46.8,64.8,39.6,64.8z"/>
</svg>
