<?xml version="1.0" encoding="utf-8"?>
<!-- Generator: Adobe Illustrator 23.0.0, SVG Export Plug-In . SVG Version: 6.00 Build 0)  -->
<svg version="1.1" id="Capa_1" xmlns="http://www.w3.org/2000/svg" xmlns:xlink="http://www.w3.org/1999/xlink" x="0px" y="0px"
	 viewBox="0 0 79.4 79.4" style="enable-background:new 0 0 79.4 79.4;" xml:space="preserve">
<style type="text/css">
	.st0{fill:#FFFFFF;}
</style>
<g>
	<path class="st0" d="M59.1,48.2c-2.9,0-5.3,2-5.9,4.7c-0.5-0.1-1-0.2-1.5-0.2c-2.9,0-5.2,2.3-5.2,5.2c0,2.9,2.3,5.2,5.2,5.2h0h13.8
		v0c2.2,0,4-1.8,4-4.1c0-2.2-1.8-4.1-4.1-4.1c-0.1,0-0.2,0-0.3,0c0-0.2,0-0.4,0-0.7C65.2,50.9,62.5,48.2,59.1,48.2z"/>
	<path class="st0" d="M22,63L22,63l25.2,0c-1.4-1.3-2.4-3.1-2.4-5.2c0-3.8,3.1-6.9,6.9-6.9c0.1,0,0.2,0,0.3,0c1.3-2.7,4-4.5,7-4.5
		c4,0,7.3,3,7.7,6.9c0.3,0.1,0.5,0.2,0.7,0.2c0.3-1,0.4-2.1,0.4-3.2c0-7-5.6-12.6-12.6-12.6c-1.2,0-2.5,0.2-3.6,0.5
		C50.3,31.8,44.5,27,37.5,27c-8.1,0-14.7,6.6-14.7,14.7c0,0.6,0,1.1,0.1,1.6c-0.3,0-0.6,0-0.8,0c-5.5,0-9.9,4.4-9.9,9.9
		C12.2,58.6,16.6,63,22,63z"/>
	<path class="st0" d="M46.9,22.7l-0.2,0c-0.3,0-0.6,0.3-0.6,0.6v2.2c0,0.2,0.2,0.5,0.4,0.5c3.4,1.2,6.2,3.9,7.6,7.2
		c0.1,0.2,0.3,0.4,0.5,0.4h2.2c0.2,0,0.4-0.1,0.5-0.2c0.1-0.2,0.1-0.4,0.1-0.5C55.7,28,51.8,24.2,46.9,22.7z"/>
	<path class="st0" d="M60.9,32.8H63c0.2,0,0.4-0.1,0.5-0.2c0.1-0.1,0.2-0.3,0.1-0.5c-1.9-7.8-8.2-13.9-16-15.6l-0.1,0
		c-0.3,0-0.6,0.3-0.6,0.6v2.1c0,0.3,0.2,0.5,0.4,0.6c6.3,1.6,11.3,6.4,13,12.7C60.4,32.7,60.6,32.8,60.9,32.8z"/>
</g>
</svg>
