<?xml version="1.0" encoding="utf-8"?>
<!-- Generator: Adobe Illustrator 23.0.0, SVG Export Plug-In . SVG Version: 6.00 Build 0)  -->
<svg version="1.1" id="Capa_1" xmlns="http://www.w3.org/2000/svg" xmlns:xlink="http://www.w3.org/1999/xlink" x="0px" y="0px"
	 viewBox="0 0 348 170.1" style="enable-background:new 0 0 348 170.1;" xml:space="preserve">
<style type="text/css">
	.st0{fill:#FFFFFF;}
	.st1{fill:#176086;}
</style>
<circle class="st0" cx="52.5" cy="75.1" r="20.1"/>
<circle class="st0" cx="100.6" cy="100.4" r="16.7"/>
<path class="st1" d="M139.1,81.7c-0.2,0.4-0.3,0.9-0.3,1.5V88c0,2,1.6,3.6,3.6,3.6h17.4l-1.8,1.8l-0.7,0.7c-1.4,1.4-1.4,3.6,0,5l3,3
	c1.4,1.4,3.6,1.4,5,0l0,0l5.5-5.6l0.4-0.4c0.9-0.9,2.1-2.1,3.2-3.2l0,0c0.6-0.6,1.3-1.3,1.8-1.8l1.3-1.3l1.8-1.8
	c1.4-1.4,1.4-3.6,0-5l-3-3c-1.4-1.4-3.6-3.6-5-5l-6-6c-1.4-1.4-3.6-1.4-5,0l-3,3l0,0c-1.4,1.4-1.4,3.6,0,5l2.5,2.5h-3.6h-13.9
	C140.9,79.6,139.6,80.4,139.1,81.7z"/>
<g>
	<path class="st1" d="M21.6,64.1c-0.8,2.4-1.4,5-1.6,7.6l5.2,2.5c0,0.8,0,1.7,0.1,2.6c0,0.3,0.1,0.6,0.1,0.9l-4.9,3.1
		c0.5,2.6,1.3,5,2.4,7.3l5.8-0.4c0.6,1,1.2,2,1.9,2.9l-2.7,5.1c1.7,1.9,3.6,3.7,5.8,5.2l4.8-3.3c1,0.6,2,1.1,3.1,1.6l0.2,5.8
		c2.4,0.8,5,1.4,7.6,1.6l2.5-5.2c0.8,0,1.7,0,2.6-0.1c0.3,0,0.6-0.1,0.9-0.1l3.1,4.9c2.6-0.5,5-1.3,7.4-2.4l-0.4-5.8
		c1-0.6,2-1.2,2.9-1.9l5.1,2.7c1.9-1.7,3.7-3.6,5.2-5.8l-3.3-4.8c0.6-1,1.1-2,1.6-3.1l5.8-0.2c0.8-2.4,1.4-5,1.6-7.6L79,74.7
		c0-0.8,0-1.7-0.1-2.6c0-0.3-0.1-0.6-0.1-0.9l4.9-3.1c-0.5-2.6-1.3-5-2.4-7.3l-5.8,0.4c-0.6-1-1.2-2-1.9-2.9l2.7-5.1
		c-1.7-1.9-3.6-3.7-5.8-5.2l-4.8,3.3c-1-0.6-2-1.1-3.1-1.6l-0.2-5.8c-2.4-0.8-5-1.4-7.6-1.6l-2.5,5.2c-0.8,0-1.7,0-2.6,0.1
		c-0.3,0-0.6,0.1-0.9,0.1l-3.1-4.9c-2.6,0.5-5,1.3-7.4,2.4l0.4,5.8c-1,0.6-2,1.2-2.9,1.9l-5-2.6c-1.9,1.7-3.7,3.6-5.2,5.8l3.3,4.8
		c-0.6,1-1.1,2-1.6,3.1L21.6,64.1z M52.1,55.5C62.5,55.5,71,64,71,74.4s-8.5,18.9-18.9,18.9s-18.9-8.5-18.9-18.9
		C33.2,64,41.7,55.5,52.1,55.5z"/>
	<path class="st1" d="M52.1,92.1c9.7,0,17.6-7.9,17.6-17.6s-7.9-17.6-17.6-17.6s-17.6,7.9-17.6,17.6S42.4,92.1,52.1,92.1z
		 M50.9,61.2c7.3-0.6,13.8,4.8,14.4,12.1c0.6,7.3-4.8,13.8-12.1,14.4s-13.8-4.8-14.4-12.1C38.2,68.3,43.6,61.9,50.9,61.2z"/>
	<path class="st1" d="M100.4,115.1c8.3,0.2,15.2-6.4,15.4-14.8c0.2-8.3-6.4-15.2-14.8-15.4c-8.3-0.2-15.2,6.4-15.4,14.8
		C85.5,108.1,92.1,115,100.4,115.1z M95.9,92c4.4-2.7,10.1-1.3,12.8,3.1c2.6,4.4,1.1,10-3.2,12.6c-4.4,2.6-10.2,1.1-12.7-3.4
		C90.3,100.1,91.8,94.6,95.9,92z"/>
	<path class="st1" d="M85,87l-4.1-1.1c-1,1.4-1.9,3-2.6,4.6l3.1,2.9c-0.4,1-0.6,2.1-0.8,3.2l-4.1,1.1c-0.2,1.7-0.2,3.5,0.1,5.3
		l4.1,1c0.2,1.1,0.5,2.1,0.9,3.2l-3,3c0.4,0.8,0.8,1.6,1.2,2.3c0.5,0.8,0.9,1.5,1.5,2.2l4.1-1.2c0.7,0.8,1.5,1.6,2.4,2.3l-1.1,4.1
		c1.4,1,3,1.9,4.6,2.6l2.9-3.1c1,0.4,2.1,0.6,3.2,0.8l1.1,4.1c1.7,0.2,3.5,0.2,5.3-0.1l1-4.1c1.1-0.2,2.1-0.5,3.2-0.9l3,3
		c0.8-0.4,1.6-0.8,2.3-1.2c0.8-0.5,1.5-0.9,2.2-1.5l-1.2-4c0.8-0.7,1.6-1.5,2.3-2.4l4.1,1.1c1-1.4,1.9-3,2.6-4.6l-3.1-2.9
		c0.4-1,0.6-2.1,0.8-3.2l4.1-1.1c0.2-1.8,0.2-3.5-0.1-5.3l-4.1-1c-0.2-1.1-0.5-2.1-0.9-3.2l3-3c-0.4-0.8-0.8-1.6-1.2-2.4
		c-0.5-0.8-0.9-1.5-1.5-2.2l-4,1.2c-0.7-0.8-1.5-1.6-2.4-2.3l1.1-4.1c-1.4-1-3-1.9-4.6-2.6l-2.9,3.1c-1-0.4-2.1-0.6-3.2-0.8
		l-1.1-4.1c-1.7-0.2-3.5-0.2-5.3,0.1l-1,4.1c-1.1,0.2-2.1,0.5-3.2,0.9l-3-3c-0.8,0.4-1.6,0.8-2.4,1.2c-0.8,0.5-1.5,0.9-2.2,1.5
		l1.2,4.1C86.5,85.4,85.7,86.2,85,87z M101,84.3c8.7,0.2,15.6,7.4,15.4,16.1s-7.4,15.6-16.1,15.4s-15.6-7.4-15.4-16.1
		C85.2,91.1,92.4,84.2,101,84.3z"/>
</g>
<rect x="195.9" y="51.6" class="st0" width="117.1" height="35"/>
<path class="st1" d="M313.7,49.6c0-3.2-2.6-5.8-5.8-5.8H201.3c-3.2,0-5.8,2.6-5.8,5.8v65.7c0,3.2,2.6,5.8,5.8,5.8h55.8h28.3h22
	c3.5,0,6.4-2.8,6.4-6.4v-29v-0.1l0,0L313.7,49.6L313.7,49.6z M197.3,74.6V54.9H312v19.7H197.3z"/>
</svg>
