<?xml version="1.0" encoding="utf-8"?>
<!-- Generator: Adobe Illustrator 23.0.0, SVG Export Plug-In . SVG Version: 6.00 Build 0)  -->
<svg version="1.1" id="Capa_1" xmlns="http://www.w3.org/2000/svg" xmlns:xlink="http://www.w3.org/1999/xlink" x="0px" y="0px"
	 viewBox="0 0 79.4 79.4" style="enable-background:new 0 0 79.4 79.4;" xml:space="preserve">
<style type="text/css">
	.st0{fill:#FFFFFF;}
</style>
<g>
	<polygon class="st0" points="41,69.4 44,71.5 40.3,71.5 39.2,75.1 38,71.5 34.3,71.5 37.3,69.4 36.2,65.8 39.2,68 42.2,65.8 	"/>
	<polygon class="st0" points="41,10.4 44,12.6 40.3,12.6 39.2,16.1 38,12.6 34.3,12.6 37.3,10.4 36.2,6.8 39.2,9 42.2,6.8 	"/>
	<polygon class="st0" points="53.3,12.5 56.3,10.3 55.2,13.8 58.2,16 54.5,16 53.3,19.5 52.2,16 48.4,16 51.5,13.8 50.3,10.3 	"/>
	<polygon class="st0" points="64,22.8 67,20.6 65.9,24.2 68.8,26.4 65.1,26.4 64,29.9 62.8,26.4 59.1,26.4 62.1,24.2 61,20.6 	"/>
	<polygon class="st0" points="69.6,39.4 72.7,41.5 68.9,41.5 67.8,45.1 66.6,41.5 62.9,41.5 65.9,39.4 64.8,35.8 67.8,38 70.8,35.8 
			"/>
	<polygon class="st0" points="64.3,53.2 67.3,51 66.2,54.5 69.2,56.7 65.5,56.7 64.3,60.2 63.2,56.7 59.5,56.7 62.5,54.5 61.3,51 	
		"/>
	<polygon class="st0" points="55.9,64.9 58.9,67 55.1,67 54,70.6 52.9,67 49.1,67 52.1,64.9 51,61.3 54,63.5 57,61.3 	"/>
	<polygon class="st0" points="25,63.5 28,61.3 26.9,64.9 29.9,67 26.2,67 25,70.6 23.9,67 20.2,67 23.2,64.9 22,61.3 	"/>
	<polygon class="st0" points="15.9,54.5 18.9,56.7 15.1,56.7 14,60.2 12.8,56.7 9.1,56.7 12.1,54.5 11,51 14,53.2 17,51 	"/>
	<polygon class="st0" points="12.1,40 15.1,42.2 11.4,42.2 10.2,45.8 9.1,42.2 5.3,42.2 8.4,40 7.2,36.5 10.2,38.7 13.2,36.5 	"/>
	<polygon class="st0" points="15.9,25.2 18.9,27.4 15.1,27.4 14,30.9 12.8,27.4 9.1,27.4 12.1,25.2 11,21.7 14,23.9 17,21.7 	"/>
	<polygon class="st0" points="24.7,13.2 27.7,11 26.5,14.5 29.6,16.7 25.8,16.7 24.7,20.2 23.5,16.7 19.8,16.7 22.8,14.5 21.7,11 	
		"/>
</g>
</svg>
