<?xml version="1.0" encoding="utf-8"?>
<!-- Generator: Adobe Illustrator 23.0.0, SVG Export Plug-In . SVG Version: 6.00 Build 0)  -->
<svg version="1.1" id="Capa_1" xmlns="http://www.w3.org/2000/svg" xmlns:xlink="http://www.w3.org/1999/xlink" x="0px" y="0px"
	 viewBox="0 0 79.4 79.4" style="enable-background:new 0 0 79.4 79.4;" xml:space="preserve">
<style type="text/css">
	.st0{fill:#FFFFFF;}
</style>
<g>
	<path class="st0" d="M-200.1,27.7h51.8c0.8,0,1.5-0.7,1.5-1.5V-5.7c0-0.9-0.7-1.5-1.5-1.5h-51.8c-0.9,0-1.5,0.7-1.5,1.5v31.9
		C-201.7,27.1-201,27.7-200.1,27.7z M-198.1-3.9h47.7v28.2h-47.7V-3.9z"/>
	<path class="st0" d="M-146.4,28.8c-0.3-0.3-0.6-0.4-1-0.4h-53.8c-0.4,0-0.7,0.1-1,0.4l-5.4,5.1c-1.1,1.1-0.5,3.1,1,3.1h64.6
		c1.4,0,2.1-2.1,1-3.1L-146.4,28.8z"/>
	<rect x="-196" y="-1.5" class="st0" width="43.3" height="13.2"/>
	<rect x="-196" y="12.9" class="st0" width="10.3" height="1.3"/>
	<rect x="-196" y="15.3" class="st0" width="21.3" height="6.5"/>
	<rect x="-185.1" y="12.9" class="st0" width="10.3" height="1.3"/>
	<rect x="-174.1" y="12.9" class="st0" width="10.3" height="1.3"/>
	<rect x="-174.1" y="15.3" class="st0" width="21.3" height="1"/>
	<rect x="-174.1" y="16.9" class="st0" width="21.3" height="1"/>
	<rect x="-174.1" y="18.6" class="st0" width="21.3" height="1"/>
	<rect x="-174.1" y="20.3" class="st0" width="11.1" height="1"/>
	<rect x="-163.1" y="12.9" class="st0" width="10.3" height="1.3"/>
</g>
<g>
	<path class="st0" d="M-227.6,161.9c0-0.3-0.2-0.6-0.5-0.7v-3.7c0.3-0.1,0.5-0.4,0.5-0.7s-0.2-0.6-0.5-0.7V148l-1.8-1.6
		c0,0,0,0,0-0.1c0-0.4-0.3-0.7-0.8-0.7c0,0,0,0-0.1,0l-0.8-1l-3,0.3c-0.1-0.2-0.4-0.4-0.7-0.4c-0.3,0-0.6,0.2-0.7,0.5l-2.3,0.1
		l-10.1,5l0.3,3.8c-0.3,0.1-0.5,0.3-0.5,0.6l-4.4,0.9l-5.1,14.9l1.3,2.1c-0.1,0.1-0.1,0.2-0.2,0.3l0,0c0,0.1,0,0.1,0,0.2
		c0,0.2,0.1,0.4,0.2,0.5l-1.3,2.1l2.8,7c-0.1,0.1-0.2,0.2-0.2,0.4l0,0l0,0c0,0,0,0.1,0,0.1c0,0.4,0.3,0.7,0.8,0.7
		c0.2,0,0.3-0.1,0.5-0.2l3.9,2.2c0,0.1,0,0.1,0,0.2c0,0.2,0.1,0.4,0.2,0.5l-1.2,2l5.6,6.9l3.5,1.6c0,0.3,0.2,0.5,0.4,0.6l0.1,0
		c0,0,0.1,0,0.1,0l-1.3,2.6l4.5,2.3h5.9c0.1,0.3,0.4,0.5,0.7,0.5c0.3,0,0.6-0.2,0.7-0.5l0,0c0-0.1,0-0.1,0-0.2
		c0-0.2-0.1-0.4-0.2-0.5l2.6-4.5c0.1,0,0.1,0,0.2,0c0.4,0,0.8-0.3,0.8-0.7c0-0.3-0.2-0.6-0.5-0.7v-4.2c0.3-0.1,0.5-0.4,0.5-0.7
		c0-0.3-0.2-0.6-0.5-0.7v-10.7c0.3-0.1,0.5-0.4,0.5-0.7c0-0.3-0.2-0.6-0.5-0.7v-8c0.3-0.1,0.5-0.4,0.5-0.7s-0.2-0.6-0.5-0.7v-6.4
		C-227.8,162.5-227.6,162.2-227.6,161.9z M-255.4,172.8C-255.4,172.8-255.4,172.8-255.4,172.8l5.4-4.1l6.5-4.9
		c0.1,0.1,0.2,0.1,0.4,0.1l1.3,8.4c-0.2,0.1-0.4,0.3-0.4,0.5H-255.4z M-243.5,162.7c-0.1,0.1-0.2,0.3-0.2,0.5c0,0.1,0,0.2,0.1,0.3
		l-11.9,8.9l7.7-17c0,0,0.1,0,0.1,0c0.1,0,0.1,0,0.2,0l1.4,2.5L-243.5,162.7z M-241,182.1l6.1,3.5c0,0.1,0,0.1,0,0.2
		c0,0.2,0.1,0.4,0.2,0.5l-6.5,10.3c0,0,0,0-0.1,0v-14.2C-241.2,182.2-241,182.1-241,182.1z M-232.7,196.1c-0.2,0.1-0.4,0.3-0.4,0.5
		l-7.5,0.4c0-0.1-0.1-0.3-0.2-0.4l6.5-10.2c0,0,0.1,0,0.1,0l0,0.3L-232.7,196.1z M-240.8,181.7c0-0.1,0-0.1,0-0.2c0-0.1,0-0.1,0-0.2
		l0-0.1c-0.1-0.2-0.3-0.4-0.5-0.4v-7l6.6,11.3L-240.8,181.7z M-241.4,172.3C-241.4,172.3-241.4,172.3-241.4,172.3l-1.3-8.4
		c0.3-0.1,0.4-0.4,0.4-0.7c0-0.1,0-0.1,0-0.2l5.6-3l1.4-0.8c0,0,0,0,0,0l-2.5,5.3L-241.4,172.3z M-228.9,161.4l-5.1-2.5
		c0,0,0-0.1,0-0.1c0,0,0,0,0,0l5-1.6c0.1,0.1,0.2,0.3,0.4,0.3v3.7C-228.7,161.2-228.8,161.3-228.9,161.4z M-235.4,158.8
		C-235.4,158.8-235.4,158.8-235.4,158.8c0,0.1,0,0.1,0,0.2l-0.8,0.4l-6.3,3.4c-0.1-0.1-0.3-0.2-0.5-0.2c-0.1,0-0.1,0-0.2,0l-3-5.3
		l-1.1-2c0,0,0.1-0.1,0.1-0.1l5.9,1.8L-235.4,158.8z M-255.4,173.2h13.2c0.1,0.2,0.3,0.4,0.5,0.5v7.1c-0.1,0-0.2,0.1-0.3,0.2
		l-12.5-7.2L-255.4,173.2z M-253.9,183.3l11.4-1.4l-6.6,3.8c-0.1-0.1-0.3-0.2-0.5-0.2c-0.2,0-0.4,0.1-0.5,0.2l-3.8-2.2
		C-253.9,183.4-253.9,183.3-253.9,183.3z M-231.7,201.8c-0.2,0-0.4,0.1-0.5,0.2l-8-4.6l7.2-0.3c0.1,0.2,0.4,0.4,0.6,0.4
		c0.3,0,0.6-0.2,0.7-0.4l2.7-0.1c0,0.1,0.1,0.2,0.2,0.3l-2.6,4.5C-231.5,201.8-231.6,201.8-231.7,201.8z M-229,196.6h-2.7
		c-0.1-0.3-0.3-0.5-0.6-0.5l-1.2-8l-0.3-1.7c0,0,0,0,0.1,0l0.5,0.5l4.2,4c-0.1,0.1-0.1,0.2-0.1,0.3c0,0.3,0.2,0.6,0.5,0.7v4.2
		C-228.8,196.2-229,196.4-229,196.6z M-228.7,190.6l-4.8-4.5c0.1-0.1,0.1-0.2,0.1-0.3c0-0.2,0-0.3-0.1-0.4l1-1.1l3.9-4.4
		c0,0,0.1,0,0.1,0v10.7C-228.6,190.5-228.6,190.5-228.7,190.6z M-229.1,179.1c0,0.2,0,0.3,0.1,0.4l-4.9,5.5c-0.1,0-0.2-0.1-0.3-0.1
		c-0.1,0-0.1,0-0.2,0l-6.6-11.4c0.1-0.1,0.2-0.3,0.2-0.5l11.8-3c0.1,0.2,0.3,0.3,0.4,0.3v8C-228.8,178.5-229.1,178.7-229.1,179.1z
		 M-229.1,169.7l-11.8,3c0-0.1-0.1-0.1-0.2-0.2l3.7-7.8l2.5-5.2c0,0,0.1,0,0.1,0c0.2,0,0.4-0.1,0.6-0.2l5.1,2.5c0,0,0,0.1,0,0.1
		c0,0.3,0.2,0.6,0.5,0.7v6.4C-228.8,169.1-229.1,169.3-229.1,169.7z M-228.5,148.2v7.9c-0.3,0.1-0.5,0.4-0.5,0.7c0,0,0,0,0,0l-5,1.6
		c-0.1-0.1-0.1-0.2-0.2-0.2l2.5-8l1-3.1c0,0,0.1,0,0.1,0c0.2,0,0.4-0.1,0.6-0.3L-228.5,148.2z M-231.1,145.8
		c-0.2,0.1-0.3,0.3-0.3,0.6c0,0.2,0.1,0.4,0.3,0.6l-1,3.2l-2.5,7.9c0,0,0,0,0,0c-0.3,0-0.5,0.1-0.6,0.3l-5.6-1.8l-6.1-1.9
		c0,0,0,0,0,0c0-0.1,0-0.2-0.1-0.3l6.2-4.7l5.2-3.9c0.1,0.1,0.3,0.2,0.5,0.2c0.4,0,0.7-0.3,0.7-0.7l2.7-0.3L-231.1,145.8z
		 M-238.1,145.6l2.2-0.1c0,0,0,0,0,0l-5.5,4.1l-6,4.5c-0.1-0.1-0.2-0.1-0.3-0.1l-0.3-3.5L-238.1,145.6z M-252.6,155.9l4.2-0.9
		c0,0.1,0.1,0.2,0.2,0.2l-7.8,17.1c0,0-0.1,0-0.1,0c-0.1,0-0.1,0-0.2,0l-1.2-1.9L-252.6,155.9z M-256.3,173.8c0.1,0,0.1,0,0.2,0
		c0.2,0,0.4-0.1,0.5-0.2l0.5,0.3l12.9,7.5c0,0,0,0,0,0.1l-11.7,1.5c-0.1-0.3-0.4-0.4-0.7-0.4c-0.1,0-0.1,0-0.2,0l-2.7-6.8
		L-256.3,173.8z M-250.7,188.7l1-1.8c0.1,0,0.1,0,0.2,0c0.4,0,0.8-0.3,0.8-0.7c0-0.1,0-0.1,0-0.2l6.8-3.9c0.1,0.1,0.2,0.1,0.3,0.2
		v14.2c-0.1,0.1-0.3,0.2-0.3,0.3l-3.3-1.5L-250.7,188.7z M-242.2,200.3l1.2-2.5c0.1-0.1,0.2-0.1,0.2-0.2l8.3,4.7h-5.8L-242.2,200.3z
		"/>
	<path class="st0" d="M-226,162.6v6.4c-0.3,0.1-0.5,0.4-0.5,0.7s0.2,0.6,0.5,0.7v8c-0.3,0.1-0.5,0.4-0.5,0.7c0,0.3,0.2,0.6,0.5,0.7
		v10.7c-0.3,0.1-0.5,0.4-0.5,0.7c0,0.3,0.2,0.6,0.5,0.7v4.2c-0.3,0.1-0.5,0.4-0.5,0.7c0,0.4,0.3,0.7,0.8,0.7c0.1,0,0.1,0,0.2,0
		l2.6,4.5c-0.1,0.1-0.2,0.3-0.2,0.5c0,0.1,0,0.1,0,0.2l0,0c0.1,0.3,0.4,0.5,0.7,0.5s0.6-0.2,0.7-0.5h5.9l4.5-2.3l-1.3-2.6
		c0,0,0.1,0,0.1,0l0.1,0c0.3-0.1,0.4-0.4,0.4-0.6l3.5-1.6l5.6-6.9l-1.2-2c0.1-0.1,0.2-0.3,0.2-0.5c0-0.1,0-0.1,0-0.2l3.9-2.2
		c0.1,0.1,0.3,0.2,0.5,0.2c0.4,0,0.8-0.3,0.8-0.7c0,0,0-0.1,0-0.1l0,0l0,0c0-0.1-0.1-0.3-0.2-0.4l2.8-7l-1.3-2.1
		c0.1-0.1,0.2-0.3,0.2-0.5c0-0.1,0-0.1,0-0.2l0,0c0-0.1-0.1-0.2-0.2-0.3l1.3-2.1l-5.1-14.9l-4.4-0.9c0-0.3-0.2-0.5-0.5-0.6l0.3-3.8
		l-10.1-5l-2.3-0.1c-0.1-0.3-0.4-0.5-0.7-0.5c-0.3,0-0.5,0.2-0.7,0.4l-3-0.3l-0.8,1c0,0,0,0-0.1,0c-0.4,0-0.8,0.3-0.8,0.7
		c0,0,0,0,0,0.1l-1.8,1.6v8.1c-0.3,0.1-0.5,0.4-0.5,0.7s0.2,0.6,0.5,0.7v3.7c-0.3,0.1-0.5,0.4-0.5,0.7S-226.3,162.5-226,162.6z
		 M-211.9,172.8c-0.1-0.2-0.2-0.4-0.4-0.5l1.3-8.4c0.1,0,0.3-0.1,0.4-0.1l6.5,4.9l5.5,4.1c0,0,0,0,0,0.1H-211.9z M-207.9,157.9
		l1.4-2.5c0.1,0,0.1,0,0.2,0c0,0,0.1,0,0.1,0l7.7,17l-11.9-8.9c0-0.1,0.1-0.2,0.1-0.3c0-0.2-0.1-0.4-0.2-0.5L-207.9,157.9z
		 M-212.9,182.2v14.2c0,0-0.1,0-0.1,0l-6.5-10.3c0.1-0.1,0.2-0.3,0.2-0.5c0-0.1,0-0.1,0-0.2l6.1-3.5
		C-213.1,182.1-213,182.2-212.9,182.2z M-220,186.7l0-0.3c0,0,0.1,0,0.1,0l6.5,10.2c-0.1,0.1-0.2,0.2-0.2,0.4l-7.5-0.4
		c-0.1-0.2-0.2-0.4-0.4-0.5L-220,186.7z M-219.5,185.1l6.6-11.3v7c-0.2,0.1-0.4,0.2-0.5,0.4l0,0.1c0,0.1,0,0.1,0,0.2
		c0,0.1,0,0.1,0,0.2L-219.5,185.1z M-216.4,164.6l-2.5-5.3c0,0,0,0,0,0l1.4,0.8l5.6,3c0,0.1,0,0.1,0,0.2c0,0.3,0.2,0.6,0.4,0.7
		l-1.3,8.4c0,0,0,0,0,0L-216.4,164.6z M-225.6,161.2v-3.7c0.2,0,0.3-0.2,0.4-0.3l5,1.6c0,0,0,0,0,0c0,0,0,0.1,0,0.1l-5.1,2.5
		C-225.4,161.3-225.5,161.2-225.6,161.2z M-212.9,156.9l5.9-1.8c0,0,0.1,0.1,0.1,0.1l-1.1,2l-3,5.3c-0.1,0-0.1,0-0.2,0
		c-0.2,0-0.4,0.1-0.5,0.2l-6.3-3.4l-0.8-0.4c0-0.1,0-0.1,0-0.2c0,0,0,0,0,0L-212.9,156.9z M-199.6,173.7l-12.5,7.2
		c-0.1-0.1-0.2-0.1-0.3-0.2v-7.1c0.3-0.1,0.4-0.3,0.5-0.5h13.2L-199.6,173.7z M-200.2,183.4l-3.8,2.2c-0.1-0.1-0.3-0.2-0.5-0.2
		c-0.2,0-0.4,0.1-0.5,0.2l-6.6-3.8l11.4,1.4C-200.2,183.3-200.2,183.4-200.2,183.4z M-222.7,201.8l-2.6-4.5c0.1-0.1,0.1-0.2,0.2-0.3
		l2.7,0.1c0.1,0.2,0.4,0.4,0.7,0.4c0.3,0,0.5-0.1,0.6-0.4l7.2,0.3l-8,4.6c-0.1-0.1-0.3-0.2-0.5-0.2
		C-222.5,201.8-222.6,201.8-222.7,201.8z M-225.6,196.1v-4.2c0.3-0.1,0.5-0.4,0.5-0.7c0-0.1,0-0.2-0.1-0.3l4.2-4l0.5-0.5
		c0,0,0,0,0.1,0l-0.3,1.7l-1.2,8c-0.3,0-0.5,0.2-0.6,0.5h-2.7C-225.2,196.4-225.4,196.2-225.6,196.1z M-225.6,190.5v-10.7
		c0,0,0.1,0,0.1,0l3.9,4.4l1,1.1c-0.1,0.1-0.1,0.3-0.1,0.4c0,0.1,0,0.2,0.1,0.3l-4.8,4.5C-225.5,190.5-225.6,190.5-225.6,190.5z
		 M-225.6,178.4v-8c0.2-0.1,0.3-0.2,0.4-0.3l11.8,3c0,0.2,0.1,0.4,0.2,0.5l-6.6,11.4c-0.1,0-0.1,0-0.2,0c-0.1,0-0.2,0-0.3,0.1
		l-4.9-5.5c0.1-0.1,0.1-0.3,0.1-0.4C-225.1,178.7-225.3,178.5-225.6,178.4z M-225.6,169v-6.4c0.3-0.1,0.5-0.4,0.5-0.7
		c0,0,0-0.1,0-0.1l5.1-2.5c0.1,0.2,0.3,0.2,0.6,0.2c0,0,0.1,0,0.1,0l2.5,5.2l3.7,7.8c-0.1,0.1-0.1,0.1-0.2,0.2l-11.8-3
		C-225.1,169.3-225.3,169.1-225.6,169z M-224,146.8c0.1,0.2,0.3,0.3,0.6,0.3c0,0,0.1,0,0.1,0l1,3.1l2.5,8c-0.1,0.1-0.2,0.1-0.2,0.2
		l-5-1.6c0,0,0,0,0,0c0-0.3-0.2-0.6-0.5-0.7v-7.9L-224,146.8z M-222.4,145.1l2.7,0.3c0,0.4,0.4,0.7,0.7,0.7c0.2,0,0.4-0.1,0.5-0.2
		l5.2,3.9l6.2,4.7c0,0.1-0.1,0.2-0.1,0.3c0,0,0,0,0,0l-6.1,1.9l-5.6,1.8c-0.1-0.2-0.4-0.3-0.6-0.3c0,0,0,0,0,0l-2.5-7.9l-1-3.2
		c0.2-0.1,0.3-0.3,0.3-0.6c0-0.2-0.1-0.4-0.3-0.6L-222.4,145.1z M-206.2,150.4l-0.3,3.5c-0.1,0-0.2,0.1-0.3,0.1l-6-4.5l-5.5-4.1
		c0,0,0,0,0,0l2.2,0.1L-206.2,150.4z M-196.6,170.4l-1.2,1.9c-0.1,0-0.1,0-0.2,0c0,0-0.1,0-0.1,0l-7.8-17.1c0.1-0.1,0.1-0.1,0.2-0.2
		l4.2,0.9L-196.6,170.4z M-196.6,175.7l-2.7,6.8c-0.1,0-0.1,0-0.2,0c-0.3,0-0.6,0.2-0.7,0.4l-11.7-1.5c0,0,0-0.1,0-0.1l12.9-7.5
		l0.5-0.3c0.1,0.1,0.3,0.2,0.5,0.2c0.1,0,0.1,0,0.2,0L-196.6,175.7z M-208.8,195.3l-3.3,1.5c-0.1-0.1-0.2-0.2-0.3-0.3v-14.2
		c0.1,0,0.2-0.1,0.3-0.2l6.8,3.9c0,0.1,0,0.1,0,0.2c0,0.4,0.3,0.7,0.8,0.7c0.1,0,0.1,0,0.2,0l1,1.8L-208.8,195.3z M-215.9,202.3
		h-5.8l8.3-4.7c0.1,0.1,0.1,0.2,0.2,0.2l1.2,2.5L-215.9,202.3z"/>
</g>
<g id="XMLID_7_">
	<g id="XMLID_87_">
		<g id="XMLID_122_">
			<path id="XMLID_142_" class="st0" d="M-105.6,155.4c0-1.4-1.2-2.6-2.6-2.6c-1.4,0-2.6,1.2-2.6,2.6c0,1.2,0.8,2.2,1.9,2.5
				c0,0.1,0,0.1,0,0.2v33.1c0,0.4,0.3,0.7,0.7,0.7c0.4,0,0.7-0.3,0.7-0.7v-33.1c0-0.1,0-0.2,0-0.2
				C-106.4,157.6-105.6,156.6-105.6,155.4z M-108.2,156.7c-0.7,0-1.3-0.6-1.3-1.3c0-0.7,0.6-1.3,1.3-1.3c0.7,0,1.3,0.6,1.3,1.3
				C-106.9,156.1-107.5,156.7-108.2,156.7z"/>
			<path id="XMLID_151_" class="st0" d="M-108.2,192.2c-0.5,0-0.9-0.4-0.9-0.9v-33.1c0,0,0,0,0-0.1c-1.1-0.4-1.9-1.5-1.9-2.7
				c0-1.6,1.3-2.8,2.8-2.8c1.6,0,2.8,1.3,2.8,2.8c0,1.2-0.8,2.3-1.9,2.7c0,0,0,0,0,0.1v33.1C-107.2,191.7-107.6,192.2-108.2,192.2z
				 M-108.2,153.1c-1.3,0-2.3,1-2.3,2.3c0,1.1,0.7,2,1.7,2.2c0.1,0,0.1,0.1,0.2,0.1c0,0.1,0,0.1,0,0.2c0,0.1,0,0.1,0,0.1v33.1
				c0,0.2,0.2,0.4,0.4,0.4c0.2,0,0.4-0.2,0.4-0.4v-33.1c0,0,0-0.1,0-0.1c0-0.1,0-0.1,0-0.2c0-0.1,0.1-0.1,0.2-0.1
				c1-0.3,1.7-1.2,1.7-2.2C-105.9,154.1-106.9,153.1-108.2,153.1z M-108.2,156.9c-0.8,0-1.5-0.7-1.5-1.5s0.7-1.5,1.5-1.5
				c0.8,0,1.5,0.7,1.5,1.5S-107.3,156.9-108.2,156.9z M-108.2,154.4c-0.5,0-1,0.4-1,1c0,0.5,0.4,1,1,1s1-0.4,1-1
				C-107.2,154.9-107.6,154.4-108.2,154.4z"/>
		</g>
		<g id="XMLID_149_">
			<path id="XMLID_126_" class="st0" d="M-78.2,165.6c0.3-2.5-0.3-6.8-4.4-7.9c0-1.1-0.3-3.2-1.8-5c-1.2-1.4-2.9-2.2-5.1-2.4
				c-0.5-1.4-2.1-4.5-7.2-4.2c-0.6-1-2.2-3.1-5.3-3.4c-1.6-0.2-3.2,0.4-4.7,1.5c-0.8-1.3-2.3-2.6-5-2.3c-1.3,0.2-2.3,0.7-3.1,1.3
				c0,0,0,0-0.1,0c0,0-0.1,0.1-0.1,0.1c-0.5,0.4-0.8,0.8-1.1,1.2c-0.1,0.1-0.2,0.2-0.3,0.4c-1.8-1.1-6.5-3.4-11-0.7l-0.1,0.1
				c-4.5,2.7-4.8,6.6-4.7,8.1c-0.9,0.3-2.5,1.1-3.5,2.8c-1,1.6-1.3,3.5-0.9,5.8c-1.1,0.6-3.2,2.2-3.3,6c-0.1,2.5,1.1,4.4,3.7,5.8
				c-0.2,1.4-0.4,5,2,7.3c2.1,1.9,4.2,2.2,8.2,1.2c0.4,1.3,1.5,4,4.2,5.8c2.5,1.7,5.7,2.2,9.4,1.4c0.2,0,0.3-0.1,0.4-0.2
				c0,0,0-0.1,0.1-0.1c0,0,0,0,0,0c0.1-0.1,0.1-0.2,0.1-0.2c0,0,0,0,0,0c0,0,0-0.1,0-0.1v-16.5c1.1-0.3,1.9-1.3,1.9-2.5
				c0-1.4-1.2-2.6-2.6-2.6c-1.4,0-2.6,1.2-2.6,2.6c0,1.2,0.8,2.2,1.9,2.5v9.8h-4.7v-4c1.1-0.3,1.9-1.3,1.9-2.5
				c0-1.4-1.2-2.6-2.6-2.6c-1.4,0-2.6,1.2-2.6,2.6c0,1.2,0.8,2.2,1.9,2.5v5.4h0h1.3h4.7v4.5c-3.1,0.5-5.8,0.1-7.8-1.2
				c-3-2-3.7-5.6-3.7-5.6c0-0.2-0.2-0.4-0.4-0.5c-0.2-0.1-0.4-0.1-0.6-0.1c-4.4,1.3-6,0.8-7.5-0.6c-2.4-2.2-1.5-6.3-1.5-6.4
				c0.1-0.4-0.1-0.7-0.4-0.9c-2.4-1.2-3.4-2.6-3.3-4.6c0.1-3.8,2.8-4.8,2.9-4.8c0.4-0.1,0.6-0.5,0.5-0.9c-0.5-2.1-0.3-3.9,0.5-5.2
				c1.2-1.8,3.2-2.3,3.2-2.3c0.2,0,0.4-0.2,0.5-0.3c0.1-0.2,0.2-0.4,0.1-0.6c0,0-0.9-4.3,3.9-7.2l0.1-0.1c3.7-2.2,7.7-0.2,9.3,0.7
				c-0.7,1.3-1.4,3.1-1.6,5.3c-2.2,0.4-3.6,1.9-3.7,2c-0.3,0.3-0.3,0.8,0,1.1c0.2,0.2,0.4,0.2,0.6,0.2c0.2,0,0.4-0.1,0.6-0.2
				c0,0,1.6-1.6,3.8-1.6c2.2,0,3.6,1,3.6,1c0.3,0.3,0.8,0.2,1.1-0.2c0.3-0.4,0.2-0.8-0.2-1.1c-0.1-0.1-1.6-1.2-4.1-1.3
				c0.2-1.9,0.9-3.5,1.5-4.6c0.4-0.7,1.4-2,1.7-2.3c0.6-0.5,1.3-0.9,2.4-1c2.9-0.3,3.6,2,3.7,2.2c0.1,0.3,0.3,0.5,0.6,0.5
				c0.3,0.1,0.6,0,0.8-0.2c1.3-1.2,2.9-1.9,4.3-1.8c3,0.3,4.2,2.9,4.3,3c0.1,0.3,0.5,0.5,0.8,0.5c5.5-0.6,6.2,3.3,6.2,3.4
				c0.1,0.4,0.4,0.7,0.7,0.7c2,0.1,3.5,0.8,4.6,1.9c1.6,1.9,1.4,4.5,1.4,4.5c0,0.4,0.2,0.8,0.7,0.8c4.6,0.8,3.7,6.3,3.7,6.6
				c0,0.2,0,0.5,0.2,0.7c1.2,1.4,1.8,2.7,1.7,4c-0.1,0.9-0.4,1.6-0.8,2.1c-1.2-2-3.1-3.3-5.5-3.8c-0.4-0.1-0.9,0.2-0.9,0.6
				c-0.1,0.4,0.2,0.9,0.6,0.9c2.3,0.5,3.9,1.8,4.9,3.9c0,0.1,0,0.1,0.1,0.2c0,0,0,0,0,0.1c0.2,0.4,0.3,0.8,0.5,1.3
				c0,0.1,0.1,0.2,0.1,0.2c0.4,1.5,0.4,4-1.5,6.9c-2.5,3.8-5.8,4.1-7.2,4.1c-0.1-1.3-0.5-3.1-1.9-4.3c1.3-1.1,2.1-2.5,2.6-4.2
				c0.1-0.4-0.1-0.9-0.5-1c-0.4-0.1-0.9,0.1-1,0.5c-0.5,1.7-1.3,2.9-2.6,3.8c-1.7,1.2-3.6,1.2-3.7,1.2c-0.4,0-0.8,0.4-0.8,0.8
				c0,0.4,0.4,0.8,0.8,0.8c0.1,0,1.9,0,3.8-1c1.4,0.8,1.7,2.7,1.8,3.8c0,0.1-0.1,0.2-0.1,0.3c-0.1,2.1-2.6,4.1-8.1,3.8
				c-5-0.2-5.1-3.3-5.1-3.7c0-0.2-0.1-0.3-0.1-0.5v-10.7h6h0v-4.9c1.1-0.3,1.9-1.3,1.9-2.5c0-1.4-1.2-2.6-2.6-2.6
				c-1.4,0-2.6,1.2-2.6,2.6c0,1.2,0.8,2.2,1.9,2.5v3.5h-4.7v-9.8c1.1-0.3,1.9-1.3,1.9-2.5c0-1.4-1.2-2.6-2.6-2.6
				c-1.4,0-2.6,1.2-2.6,2.6c0,1.2,0.8,2.2,1.9,2.5v22c0,0.1-0.1,0.2-0.1,0.3c0,0.1-0.1,5,6.6,5.3c0.3,0,0.7,0,1,0
				c5.2,0,7.7-2,8.5-4.1c0.1-0.1,0.2-0.2,0.3-0.4c1.8,0,5.6-0.4,8.5-4.8c3.1-4.6,1.8-8.3,1.2-9.7c0.6-0.6,1.4-1.8,1.5-3.5
				C-76.3,168.9-76.9,167.2-78.2,165.6z M-113.6,168.8c0-0.7,0.6-1.3,1.3-1.3c0.7,0,1.3,0.6,1.3,1.3c0,0.7-0.6,1.3-1.3,1.3
				C-113.1,170.1-113.6,169.5-113.6,168.8z M-118.5,175.9c-0.7,0-1.3-0.6-1.3-1.3c0-0.7,0.6-1.3,1.3-1.3c0.7,0,1.3,0.6,1.3,1.3
				C-117.2,175.3-117.8,175.9-118.5,175.9z M-98.5,169.2c0-0.7,0.6-1.3,1.3-1.3s1.3,0.6,1.3,1.3c0,0.7-0.6,1.3-1.3,1.3
				S-98.5,169.9-98.5,169.2z M-104.5,162.9c0-0.7,0.6-1.3,1.3-1.3c0.7,0,1.3,0.6,1.3,1.3c0,0.7-0.6,1.3-1.3,1.3
				C-104,164.2-104.5,163.6-104.5,162.9z"/>
			<path id="XMLID_156_" class="st0" d="M-96.4,193.3c-0.3,0-0.6,0-1,0c-7-0.3-6.9-5.5-6.9-5.6c0-0.1,0-0.2,0.1-0.3v-21.8
				c-1.1-0.4-1.9-1.5-1.9-2.7c0-1.6,1.3-2.8,2.8-2.8c1.6,0,2.8,1.3,2.8,2.8c0,1.2-0.8,2.3-1.9,2.7v9.3h4.1v-3.1
				c-1.1-0.4-1.9-1.5-1.9-2.7c0-1.6,1.3-2.8,2.8-2.8c1.6,0,2.8,1.3,2.8,2.8c0,1.2-0.8,2.3-1.9,2.7v4.7c0,0.1-0.1,0.3-0.3,0.3h-5.8
				v10.4c0.1,0.2,0.2,0.4,0.1,0.6c0,0.3,0.1,3.2,4.8,3.4c5.2,0.2,7.7-1.6,7.8-3.6c0-0.1,0-0.2,0.1-0.3c-0.1-1-0.3-2.6-1.5-3.4
				c-1.9,1-3.7,1-3.8,1c-0.6,0-1.1-0.5-1.1-1.1c0-0.6,0.5-1.1,1.1-1.1c0.1,0,1.9,0,3.5-1.2c1.2-0.8,2.1-2.1,2.5-3.7
				c0.2-0.6,0.7-0.9,1.3-0.7c0.6,0.2,0.9,0.7,0.7,1.3c-0.5,1.7-1.3,3.1-2.5,4.2c1.2,1.2,1.6,2.8,1.8,4c1.4,0,4.4-0.5,6.7-4
				c1.9-2.8,1.8-5.1,1.5-6.6c-0.1-0.1-0.1-0.2-0.1-0.3c-0.1-0.4-0.3-0.8-0.5-1.3l0,0c0-0.1-0.1-0.1-0.1-0.2c-1-2-2.6-3.3-4.7-3.8
				c-0.3-0.1-0.5-0.2-0.7-0.5c-0.2-0.2-0.2-0.5-0.1-0.8c0.1-0.3,0.2-0.5,0.5-0.7c0.2-0.2,0.5-0.2,0.8-0.1c2.3,0.5,4.1,1.7,5.4,3.6
				c0.2-0.4,0.5-1,0.5-1.6c0.1-1.2-0.5-2.5-1.6-3.8c-0.2-0.2-0.3-0.6-0.3-0.9c0-0.2,0.8-5.5-3.5-6.3c-0.5-0.1-0.9-0.6-0.9-1.1
				c0-0.1,0.2-2.6-1.4-4.3c-1-1.1-2.4-1.7-4.4-1.8c-0.5,0-0.9-0.4-1-0.9c0-0.1-0.6-3.7-5.9-3.2c-0.4,0-0.9-0.2-1.1-0.6
				c0-0.1-1.2-2.5-4.1-2.8c-1.3-0.1-2.8,0.5-4.1,1.7c-0.3,0.3-0.7,0.3-1,0.2c-0.4-0.1-0.6-0.4-0.7-0.7c-0.1-0.2-0.8-2.4-3.4-2.1
				c-0.9,0.1-1.6,0.4-2.3,1c-0.2,0.2-1.3,1.5-1.6,2.2c-0.8,1.3-1.2,2.8-1.5,4.3c2.4,0.2,3.9,1.3,4,1.4c0.5,0.3,0.6,1,0.2,1.5
				c-0.2,0.2-0.4,0.4-0.7,0.4c-0.3,0-0.6,0-0.8-0.2c0,0-1.4-1-3.5-1c-2,0-3.5,1.5-3.6,1.5c-0.4,0.4-1.1,0.4-1.5,0
				c-0.4-0.4-0.4-1.1,0-1.5c0.1-0.1,1.5-1.5,3.7-2c0.2-1.8,0.7-3.4,1.5-5c-1.6-1-5.4-2.6-8.8-0.6l-0.1,0.1c-4.6,2.8-3.8,6.9-3.8,6.9
				c0.1,0.3,0,0.6-0.1,0.8c-0.2,0.2-0.4,0.4-0.7,0.5c0,0-2,0.5-3.1,2.2c-0.8,1.3-1,3-0.5,5c0.1,0.5-0.2,1.1-0.7,1.3
				c-0.1,0-2.6,0.9-2.7,4.6c-0.1,1.9,0.9,3.2,3.2,4.4c0.4,0.2,0.7,0.7,0.6,1.2c0,0-0.9,4,1.4,6.1c1.5,1.4,2.9,1.8,7.2,0.5
				c0.3-0.1,0.6,0,0.9,0.1c0.3,0.2,0.4,0.4,0.5,0.7c0,0,0.7,3.5,3.6,5.4c1.9,1.3,4.4,1.7,7.4,1.2v-4h-5.8c-0.1,0-0.3-0.1-0.3-0.3
				v-5.2c-1.1-0.4-1.9-1.5-1.9-2.7c0-1.6,1.3-2.8,2.8-2.8c1.6,0,2.8,1.3,2.8,2.8c0,1.2-0.8,2.3-1.9,2.7v3.6h4.2v-9.4
				c-1.1-0.4-1.9-1.5-1.9-2.7c0-1.6,1.3-2.8,2.8-2.8c1.6,0,2.8,1.3,2.8,2.8c0,1.2-0.8,2.3-1.9,2.7v16.3c0,0.1,0,0.1,0,0.1l-0.3,0
				l0.3,0.1c0,0.1-0.1,0.2-0.1,0.3c0,0,0,0,0,0.1c0,0.1-0.1,0.1-0.1,0.1c-0.1,0.2-0.3,0.3-0.6,0.3c-3.8,0.8-7.1,0.3-9.6-1.5
				c-2.5-1.7-3.7-4.2-4.2-5.7c-4,1-6.1,0.7-8.2-1.3c-2.4-2.3-2.3-5.8-2.1-7.3c-2.6-1.5-3.7-3.4-3.7-6c0.1-3.7,2-5.4,3.3-6.1
				c-0.4-2.3-0.1-4.2,0.9-5.8c1-1.6,2.6-2.4,3.5-2.8c-0.1-1.7,0.4-5.5,4.9-8.2l0.1-0.1c4.5-2.6,9.1-0.5,11,0.6
				c0-0.1,0.1-0.1,0.1-0.2c0.3-0.5,0.7-0.9,1.1-1.2c0.1-0.1,0.1-0.1,0.1-0.1c0,0,0.1,0,0.1-0.1c0.9-0.7,2-1.2,3.2-1.3
				c2.9-0.3,4.4,1.3,5.1,2.2c1.5-1,3.1-1.5,4.7-1.4c3.1,0.3,4.8,2.4,5.4,3.4c5-0.3,6.8,2.7,7.3,4.2c2.2,0.3,3.9,1.1,5.1,2.5
				c1.5,1.7,1.8,3.7,1.9,4.9c3.7,1.1,4.7,5,4.4,8c1.3,1.6,1.9,3.3,1.8,5c-0.1,1.6-0.9,2.9-1.5,3.5c0.7,1.5,1.8,5.2-1.3,9.8
				c-2.9,4.4-6.8,4.9-8.5,4.9c0,0,0,0,0,0c-0.1,0.1-0.1,0.2-0.2,0.3C-88.2,190.4-90,193.3-96.4,193.3z M-103.3,160.6
				c-1.3,0-2.3,1-2.3,2.3c0,1,0.7,1.9,1.7,2.2c0.1,0,0.2,0.1,0.2,0.3v22c0,0,0,0.1,0,0.1c0,0.1,0,0.1,0,0.2c0,0.2-0.1,4.8,6.4,5
				c0.3,0,0.6,0,0.9,0c6.2,0,7.8-2.8,8.3-3.9c0,0,0-0.1,0.1-0.1c0.1-0.1,0.2-0.2,0.2-0.3c0-0.1,0.1-0.2,0.3-0.2c0,0,0,0,0,0
				c1.9,0.1,5.5-0.5,8.3-4.7c3-4.5,1.8-8.1,1.2-9.4c0-0.1,0-0.2,0-0.3c0.5-0.6,1.4-1.7,1.5-3.3c0.1-1.6-0.5-3.2-1.8-4.7
				c0-0.1-0.1-0.1-0.1-0.2c0.1-0.6,0.6-6.3-4.2-7.6c-0.1,0-0.2-0.1-0.2-0.2c0-1.1-0.3-3.1-1.7-4.8c-1.2-1.3-2.8-2.1-4.9-2.3
				c-0.1,0-0.2-0.1-0.2-0.2c-0.4-1.3-2-4.3-7-4c-0.1,0-0.2,0-0.2-0.1c-0.5-0.9-2.1-3-5.1-3.3c-1.5-0.1-3.1,0.4-4.5,1.4
				c-0.1,0-0.1,0.1-0.2,0c-0.1,0-0.1-0.1-0.2-0.1c-0.5-0.8-1.8-2.5-4.7-2.2c-1.1,0.1-2.1,0.5-2.9,1.2c0,0-0.1,0-0.1,0l0,0
				c0,0,0,0-0.1,0.1c-0.4,0.3-0.7,0.7-1,1.2c-0.1,0.1-0.2,0.2-0.3,0.4c-0.1,0.1-0.2,0.1-0.4,0.1c-1.7-1.1-6.3-3.3-10.7-0.7l-0.1,0.1
				c-4.4,2.7-4.7,6.4-4.6,7.9c0,0.1-0.1,0.2-0.2,0.3c-0.8,0.3-2.4,1.1-3.4,2.7c-1,1.5-1.2,3.4-0.8,5.6c0,0.1,0,0.2-0.1,0.3
				c-1.1,0.6-3.1,2.2-3.2,5.8c-0.1,2.4,1,4.2,3.6,5.6c0.1,0.1,0.1,0.2,0.1,0.3c-0.2,1.4-0.4,4.9,2,7.1c2,1.9,4.1,2.2,8,1.1
				c0.1,0,0.3,0,0.3,0.2c0.4,1.4,1.5,3.9,4.1,5.7c2.4,1.6,5.5,2.1,9.2,1.4c0.1,0,0.2-0.1,0.3-0.2c0,0,0.1-0.1,0.1-0.1
				c0-0.1,0.1-0.1,0.1-0.2c0,0,0-0.1,0-0.1l0-16.4c0-0.1,0.1-0.2,0.2-0.3c1-0.3,1.7-1.2,1.7-2.2c0-1.3-1-2.3-2.3-2.3
				c-1.3,0-2.3,1-2.3,2.3c0,1,0.7,1.9,1.7,2.2c0.1,0,0.2,0.1,0.2,0.3v9.8c0,0.1-0.1,0.3-0.3,0.3h-4.7c-0.1,0-0.3-0.1-0.3-0.3v-4
				c0-0.1,0.1-0.2,0.2-0.3c1-0.3,1.7-1.2,1.7-2.2c0-1.3-1-2.3-2.3-2.3c-1.3,0-2.3,1-2.3,2.3c0,1,0.7,1.9,1.7,2.2
				c0.1,0,0.2,0.1,0.2,0.3v5.1h5.8c0.1,0,0.3,0.1,0.3,0.3v4.5c0,0.1-0.1,0.2-0.2,0.3c-3.2,0.6-5.9,0.1-8-1.3
				c-3.1-2.1-3.8-5.8-3.9-5.8c0-0.1-0.1-0.3-0.2-0.4c-0.1-0.1-0.3-0.1-0.4-0.1c-4.6,1.3-6.1,0.9-7.8-0.7c-2.5-2.3-1.6-6.5-1.5-6.6
				c0.1-0.2-0.1-0.5-0.3-0.6c-2.5-1.3-3.6-2.7-3.5-4.9c0.1-4,2.9-5,3.1-5.1c0.3-0.1,0.4-0.4,0.4-0.6c-0.5-2.2-0.3-4,0.5-5.4
				c1.2-1.9,3.4-2.4,3.4-2.4c0.1,0,0.3-0.1,0.3-0.2c0.1-0.1,0.1-0.3,0.1-0.4c0,0-0.9-4.5,4.1-7.5l0.1-0.1c3.9-2.3,8-0.2,9.6,0.7
				c0.1,0.1,0.2,0.2,0.1,0.4c-0.9,1.6-1.4,3.3-1.6,5.2c0,0.1-0.1,0.2-0.2,0.2c-2.1,0.4-3.5,1.8-3.6,1.9c-0.2,0.2-0.2,0.5,0,0.7
				c0.2,0.2,0.5,0.2,0.7,0c0,0,1.7-1.7,3.9-1.7c2.3,0,3.8,1.1,3.8,1.1c0.1,0.1,0.3,0.1,0.4,0.1c0.1,0,0.3-0.1,0.3-0.2
				c0.1-0.1,0.1-0.3,0.1-0.4c0-0.1-0.1-0.3-0.2-0.3c0,0-1.6-1.2-4-1.3c-0.1,0-0.1,0-0.2-0.1c0-0.1-0.1-0.1-0.1-0.2
				c0.2-1.7,0.7-3.3,1.6-4.7c0.4-0.7,1.5-2.1,1.7-2.3c0.7-0.6,1.6-1,2.6-1.1c3.1-0.4,3.9,2.1,4,2.4c0.1,0.2,0.2,0.3,0.4,0.4
				c0.2,0.1,0.4,0,0.5-0.1c1.4-1.3,3.1-2,4.5-1.8c3.2,0.3,4.4,3,4.5,3.1c0.1,0.2,0.3,0.3,0.5,0.3c5.8-0.6,6.5,3.5,6.5,3.6
				c0,0.3,0.2,0.4,0.5,0.5c2.1,0.1,3.7,0.8,4.7,2c1.7,1.9,1.5,4.6,1.5,4.7c0,0.3,0.2,0.5,0.4,0.6c4.8,0.8,4,6.6,3.9,6.9
				c0,0.2,0,0.3,0.1,0.4c1.3,1.4,1.8,2.8,1.7,4.2c-0.1,0.8-0.3,1.5-0.8,2.2c-0.1,0.1-0.1,0.1-0.2,0.1c-0.1,0-0.2,0-0.2-0.1
				c-1.2-1.9-3-3.2-5.3-3.7c-0.1,0-0.3,0-0.4,0.1c-0.1,0.1-0.2,0.2-0.2,0.3c0,0.1,0,0.3,0.1,0.4c0.1,0.1,0.2,0.2,0.3,0.2
				c2.3,0.5,4.1,1.9,5.1,4.1c0,0,0,0.1,0,0.1c0,0,0,0,0,0.1c0,0,0,0,0.1,0.1c0.2,0.5,0.4,0.9,0.5,1.4c0,0.1,0,0.1,0.1,0.2
				c0,0,0,0.1,0,0.1c0.4,1.6,0.4,4.1-1.5,7.1c-2.6,3.9-6.1,4.2-7.4,4.2c-0.1,0-0.2-0.1-0.3-0.2c-0.1-1.3-0.5-3-1.8-4.1
				c-0.1-0.1-0.1-0.1-0.1-0.2s0-0.2,0.1-0.2c1.2-1,2.1-2.4,2.5-4.1c0.1-0.3-0.1-0.6-0.4-0.7c-0.3-0.1-0.6,0.1-0.7,0.4
				c-0.5,1.7-1.4,3.1-2.7,4c-1.8,1.2-3.7,1.3-3.8,1.3c-0.3,0-0.5,0.2-0.5,0.5c0,0.3,0.2,0.5,0.5,0.5c0.1,0,1.8,0,3.7-1
				c0.1,0,0.2,0,0.3,0c1.5,0.9,1.8,2.9,1.9,4c0,0,0,0.1,0,0.1c0,0.1,0,0.1,0,0.2c-0.1,2.2-2.7,4.3-8.3,4.1c-5.3-0.2-5.4-3.6-5.4-3.9
				c0-0.1,0-0.2-0.1-0.3c0,0,0-0.1,0-0.2v-10.7c0-0.1,0.1-0.3,0.3-0.3h5.8v-4.6c0-0.1,0.1-0.2,0.2-0.3c1-0.3,1.7-1.2,1.7-2.2
				c0-1.3-1-2.3-2.3-2.3c-1.3,0-2.3,1-2.3,2.3c0,1,0.7,1.9,1.7,2.2c0.1,0,0.2,0.1,0.2,0.3v3.5c0,0.1-0.1,0.3-0.3,0.3h-4.7
				c-0.1,0-0.3-0.1-0.3-0.3v-9.8c0-0.1,0.1-0.2,0.2-0.3c1-0.3,1.7-1.2,1.7-2.2C-101,161.6-102,160.6-103.3,160.6z M-118.5,176.1
				c-0.8,0-1.5-0.7-1.5-1.5c0-0.8,0.7-1.5,1.5-1.5c0.8,0,1.5,0.7,1.5,1.5C-117,175.5-117.6,176.1-118.5,176.1z M-118.5,173.6
				c-0.5,0-1,0.4-1,1c0,0.5,0.4,1,1,1c0.5,0,1-0.4,1-1C-117.5,174.1-117.9,173.6-118.5,173.6z M-97.2,170.7c-0.8,0-1.5-0.7-1.5-1.5
				c0-0.8,0.7-1.5,1.5-1.5c0.8,0,1.5,0.7,1.5,1.5C-95.7,170-96.4,170.7-97.2,170.7z M-97.2,168.2c-0.5,0-1,0.4-1,1c0,0.5,0.4,1,1,1
				c0.5,0,1-0.4,1-1C-96.2,168.6-96.7,168.2-97.2,168.2z M-112.4,170.3c-0.8,0-1.5-0.7-1.5-1.5c0-0.8,0.7-1.5,1.5-1.5
				c0.8,0,1.5,0.7,1.5,1.5C-110.9,169.7-111.5,170.3-112.4,170.3z M-112.4,167.8c-0.5,0-1,0.4-1,1c0,0.5,0.4,1,1,1c0.5,0,1-0.4,1-1
				C-111.4,168.3-111.8,167.8-112.4,167.8z M-103.3,164.4c-0.8,0-1.5-0.7-1.5-1.5s0.7-1.5,1.5-1.5c0.8,0,1.5,0.7,1.5,1.5
				S-102.4,164.4-103.3,164.4z M-103.3,161.9c-0.5,0-1,0.4-1,1c0,0.5,0.4,1,1,1c0.5,0,1-0.4,1-1
				C-102.3,162.4-102.7,161.9-103.3,161.9z"/>
		</g>
		<g id="XMLID_153_">
			<path id="XMLID_91_" class="st0" d="M-93.7,154.4c1.7,1.4,2.1,3.1,2.1,3.1c0.1,0.4,0.4,0.6,0.8,0.6c0.1,0,0.1,0,0.2,0
				c0.4-0.1,0.7-0.5,0.6-0.9c0-0.1-0.5-2.2-2.6-4c-2.1-1.8-5-1.6-5.1-1.6c-0.4,0-0.8,0.4-0.7,0.9c0,0.4,0.4,0.8,0.9,0.7
				C-97.6,153.2-95.3,153.1-93.7,154.4z"/>
			<path id="XMLID_115_" class="st0" d="M-90.8,158.5c-0.5,0-0.9-0.3-1-0.8c0,0-0.4-1.6-2-3l0,0c-1.5-1.3-3.6-1.1-3.7-1.1
				c-0.6,0.1-1.1-0.4-1.1-1c-0.1-0.6,0.4-1.1,1-1.1c0.1,0,3-0.3,5.3,1.6c2.2,1.8,2.7,4,2.7,4.1c0.1,0.3,0,0.6-0.1,0.8
				c-0.2,0.2-0.4,0.4-0.7,0.5C-90.7,158.4-90.8,158.5-90.8,158.5z M-93.5,154.2c1.7,1.5,2.2,3.3,2.2,3.3c0.1,0.3,0.3,0.5,0.6,0.4
				c0.1,0,0.3-0.1,0.3-0.2c0.1-0.1,0.1-0.3,0.1-0.4c0-0.1-0.5-2.1-2.5-3.8c-2.1-1.8-4.8-1.5-4.9-1.5c-0.3,0-0.5,0.3-0.5,0.6
				c0,0.3,0.3,0.5,0.6,0.5C-97.5,153-95.2,152.8-93.5,154.2L-93.5,154.2z"/>
		</g>
		<g id="XMLID_154_">
			<path id="XMLID_5_" class="st0" d="M-132.2,169.7c0,0,0.1,0,0.1,0c0.4,0,0.7-0.3,0.8-0.7c0,0,0.4-2.2,2.1-3.5
				c1.8-1.3,3.5-1.3,3.5-1.3c0,0,0,0,0,0c0,0,0,0,0,0c0.4,0,0.8-0.3,0.8-0.8c0-0.4-0.3-0.8-0.8-0.8c-0.1,0-1.9,0-3.9,1.2
				c-0.3-0.5-0.8-1.3-0.9-2.3c-0.2-2.2,1.1-3.3,1.2-3.3c0.4-0.3,0.4-0.8,0.2-1.1c-0.3-0.4-0.8-0.4-1.1-0.2c-0.1,0.1-2.1,1.6-1.8,4.8
				c0.1,1.4,0.7,2.5,1.2,3.1c-1.7,1.7-2.1,3.9-2.1,4C-132.9,169.3-132.6,169.7-132.2,169.7z"/>
			<path id="XMLID_73_" class="st0" d="M-132.1,170c-0.1,0-0.1,0-0.2,0c-0.3,0-0.5-0.2-0.7-0.4c-0.2-0.2-0.2-0.5-0.2-0.8
				c0-0.1,0.4-2.3,2-4c-0.5-0.7-1-1.8-1.1-3.1c-0.3-3.3,1.8-4.9,1.9-5c0.5-0.3,1.1-0.3,1.5,0.2c0.3,0.5,0.3,1.1-0.2,1.5
				c0,0-1.3,1-1.1,3.1c0.1,0.8,0.4,1.5,0.7,2c2-1.1,3.8-1.1,3.8-1.1c0.3,0,0.5,0.1,0.7,0.3c0.2,0.2,0.3,0.5,0.3,0.8
				c0,0.6-0.5,1-1.1,1c0,0-1.7,0-3.4,1.2c-1.6,1.2-2,3.3-2,3.3C-131.1,169.6-131.5,170-132.1,170z M-129.6,157.1
				c-0.1,0-0.2,0-0.3,0.1c-0.1,0.1-2,1.5-1.7,4.5c0.1,1.3,0.7,2.3,1.1,3c0.1,0.1,0.1,0.3,0,0.3c-1.7,1.6-2,3.8-2,3.9
				c0,0.1,0,0.3,0.1,0.4c0.1,0.1,0.2,0.2,0.3,0.2c0,0,0,0,0,0c0.3,0,0.6-0.2,0.6-0.4c0,0,0.4-2.4,2.2-3.7c1.8-1.3,3.6-1.3,3.7-1.3
				c0.3,0,0.5-0.2,0.5-0.5c0-0.1,0-0.3-0.1-0.4c-0.1-0.1-0.2-0.2-0.4-0.2c0,0-1.8,0-3.7,1.1c-0.1,0.1-0.3,0-0.4-0.1
				c-0.4-0.5-0.8-1.4-0.9-2.4c-0.2-2.4,1.2-3.5,1.3-3.6c0.2-0.2,0.3-0.5,0.1-0.7C-129.3,157.1-129.5,157.1-129.6,157.1z"/>
		</g>
	</g>
</g>
<path class="st0" d="M-93.1-81.6l-50.9-0.2c-2.4,0-4.4,2-4.4,4.4l-0.1,31c0,2.4,2,4.4,4.4,4.4l50.9,0.2c2.4,0,4.4-2,4.4-4.4l0.1-31
	C-88.6-79.6-90.6-81.5-93.1-81.6z M-140.4-57.4l16.6,0l0,1.2l-16.6,0L-140.4-57.4z M-140.4-51.5l0-1.2l33.2,0l0,1.2L-140.4-51.5z
	 M-107.4-60.2l0-15.5l12.4,0l0,15.5L-107.4-60.2z"/>
<g>
	<polygon class="st0" points="23.4,38.6 22.5,38.6 22.5,38.6 	"/>
	<path class="st0" d="M26.8,51.7c-3.5-3.5-5.5-7.7-5.9-12.4l-4.9,0.5l-0.1,0l-0.1,0c-0.4,0-0.9,0-1.4,0.1c-0.1,0-0.2,0-0.3,0
		c0.6,6.2,3.4,12.1,7.8,16.5c5.1,5.1,11.9,8,19.2,8c6.8,0,13.3-2.5,18.3-7.1l-4.8-4.8c-3.7,3.3-8.5,5.1-13.5,5.1
		C35.8,57.6,30.7,55.5,26.8,51.7z"/>
	<path class="st0" d="M41.1,10.3c-7.3,0-14.1,2.8-19.2,8c-0.6,0.6-1.2,1.2-1.7,1.9l4.8,4.8c0.5-0.7,1.1-1.3,1.7-1.9
		c3.8-3.8,9-6,14.4-6c5.5,0,10.6,2.1,14.4,6c3.7,3.7,5.8,8.6,6,13.9c2.2-0.4,4.5-0.7,6.7-1.1C67.8,29.2,65,23,60.3,18.2
		C55.1,13.1,48.3,10.3,41.1,10.3L41.1,10.3z"/>
	<polygon class="st0" points="15.2,15.2 12.4,34.2 31.3,31.3 25,24.9 20.2,20.1 	"/>
	<polygon class="st0" points="54.8,52.5 59.6,57.3 64.5,62.2 67.3,43.2 48.3,46 	"/>
</g>
</svg>
