<?xml version="1.0" encoding="utf-8"?>
<!-- Generator: Adobe Illustrator 23.0.0, SVG Export Plug-In . SVG Version: 6.00 Build 0)  -->
<svg version="1.1" id="Capa_1" xmlns="http://www.w3.org/2000/svg" xmlns:xlink="http://www.w3.org/1999/xlink" x="0px" y="0px"
	 viewBox="0 0 348 170.1" style="enable-background:new 0 0 348 170.1;" xml:space="preserve">
<style type="text/css">
	.st0{fill:#FFFFFF;}
	.st1{fill:#176086;}
	.st2{fill:#145F85;}
</style>
<polygon class="st0" points="59.5,116.4 86.5,131.4 93.1,116.2 105.6,108.9 112.2,83.7 101.1,52.6 90.3,46 76.6,42.5 59.5,30.7 
	54.1,30.4 31,66.7 "/>
<rect x="196.2" y="50.7" class="st0" width="116.7" height="34.8"/>
<path class="st1" d="M139.1,81.7c-0.2,0.4-0.3,0.9-0.3,1.5V88c0,2,1.6,3.6,3.6,3.6h17.4l-1.8,1.8l-0.7,0.7c-1.4,1.4-1.4,3.6,0,5l3,3
	c1.4,1.4,3.6,1.4,5,0l0,0l5.5-5.6l0.4-0.4c0.9-0.9,2.1-2.1,3.2-3.2l0,0c0.6-0.6,1.3-1.3,1.8-1.8l1.3-1.3l1.8-1.8
	c1.4-1.4,1.4-3.6,0-5l-3-3c-1.4-1.4-3.6-3.6-5-5l-6-6c-1.4-1.4-3.6-1.4-5,0l-3,3l0,0c-1.4,1.4-1.4,3.6,0,5l2.5,2.5h-3.6h-13.9
	C140.9,79.6,139.6,80.4,139.1,81.7z"/>
<path class="st1" d="M313.7,49.6c0-3.2-2.6-5.8-5.8-5.8H201.3c-3.2,0-5.8,2.6-5.8,5.8v65.7c0,3.2,2.6,5.8,5.8,5.8h55.8h28.3h22
	c3.5,0,6.4-2.8,6.4-6.4v-29v-0.1l0,0L313.7,49.6L313.7,49.6z M197.3,74.6V54.9H312v19.7H197.3z"/>
<g>
	<path class="st2" d="M122.8,90l-4.3-9.7c0,0-1.2-31-31.7-35.4c15,8.9,17.3,26.2,17.6,29.9c0,0.5,0.2,0.9,0.4,1.4l3.9,8.8
		c0.8,1.8,0.5,4-0.9,5.4c-1.4,1.5-3.2,2.6-4.6,3.3c-1.4,0.7-2.3,2.2-2.3,3.8v8.1c0,1.5-0.7,2.9-1.9,3.8l-1.8,1.3
		c-1,0.7-2.2,1.1-3.5,1.1h-5.9c-2.3,0-4.2,1.8-4.3,4.1l-0.3,9.4c-0.1,1.4-0.8,2.6-1.8,3.3l9.9,5.4c2.6,1.4,5.7-0.4,5.8-3.3l0.5-14.1
		h10.1c1.2,0,2.3-0.4,3.3-1l2-1.5c1.1-0.8,1.8-2.1,1.8-3.5v-11c0,0,4.3-1.4,7.1-4.4C123.3,93.7,123.6,91.7,122.8,90z"/>
	<path class="st2" d="M97.1,76l-4.3-9.7c0,0-1.3-32.1-33.3-35.6v39.9l16.2,16.2c1.1,1.1,1.1,2.9,0,4l-1.1,1.1c-1.1,1.1-2.9,1.1-4,0
		L54.3,75.7c-0.2-0.2-0.2-0.4-0.4-0.5c-1.6,1.5-3.7,2.5-6.1,2.5c-4.9,0-8.9-4-8.9-8.9s4-8.9,8.9-8.9c2.5,0,4.7,1,6.3,2.6V30.4
		c-8.7,0.2-29.9,3.4-34.7,29.7c0,0-1.5,21.5,11.7,29c1.4,0.8,2.2,2.3,2.3,3.9l0.2,6.1c0.1,2.1,1.2,4,3.1,5.1L65.6,120
		c2.6,1.4,5.7-0.4,5.8-3.3l0.5-14.1H82c1.2,0,2.3-0.4,3.3-1l2-1.5c1.1-0.8,1.8-2.1,1.8-3.5v-11c0,0,4.3-1.4,7.1-4.4
		C97.5,79.7,97.8,77.7,97.1,76z"/>
</g>
</svg>
