<?xml version="1.0" encoding="utf-8"?>
<!-- Generator: Adobe Illustrator 23.0.0, SVG Export Plug-In . SVG Version: 6.00 Build 0)  -->
<svg version="1.1" id="Capa_1" xmlns="http://www.w3.org/2000/svg" xmlns:xlink="http://www.w3.org/1999/xlink" x="0px" y="0px"
	 viewBox="0 0 104.1 95.4" style="enable-background:new 0 0 104.1 95.4;" xml:space="preserve">
<style type="text/css">
	.st0{fill:#155F86;}
</style>
<g>
	<path class="st0" d="M52.7,94.4c-25.5,0-46.2-20.7-46.2-46.2C6.5,22.7,27.2,2,52.7,2c25.5,0,46.2,20.7,46.2,46.2
		C98.9,73.7,78.2,94.4,52.7,94.4z M52.7,5C28.9,5,9.5,24.4,9.5,48.2c0,23.8,19.4,43.2,43.2,43.2c23.8,0,43.2-19.4,43.2-43.2
		C95.9,24.4,76.5,5,52.7,5z"/>
</g>
<g>
	<g>
		<path class="st0" d="M67.6,58.3c-0.2-1-0.9-1.9-1.9-2.4l-7.3-3.5h0c0-0.5-0.2-0.9-0.4-1.2c0,0,0,0,0,0v-2.4
			c0.8-1.1,1.3-2.2,1.5-2.6c0.3-0.2,1.4-1.1,1.4-2.5c0-0.7-0.1-1.2-0.4-1.5c0,0,0,0-0.1,0c0,0,0,0,0,0c0-0.2,0.8-4.2-1-6.6
			c-1.6-2-3.6-2.3-4.7-2.3c-1.5,0-2.8,0.5-3.4,1.3c-0.1,0-0.3,0-0.5,0c-0.6,0-1.6,0.2-2.3,1.4c-0.9,1.8-1.2,4-0.7,6.1
			c-0.1,0-0.3,0.1-0.4,0.2c-0.3,0.3-0.4,0.7-0.3,1.4c0.1,1.5,1.1,2.3,1.4,2.5c0.2,0.4,0.7,1.5,1.4,2.6v2.4c-0.3,0.3-0.4,0.7-0.4,1.1
			h0l-7,3.5c-1,0.4-1.7,1.3-1.9,2.4l-0.4,1.9v5.5H68l0-5.8L67.6,58.3z"/>
	</g>
	<g>
		<g>
			<path class="st0" d="M70,57.8l0.4,1.8l0,2.8h14.2l0-5.8L84.2,55c-0.2-1-0.9-1.9-1.9-2.4L75,49.1h0c0-0.5-0.2-0.9-0.4-1.2
				c0,0,0,0,0,0v-2.4c0.8-1.1,1.3-2.2,1.5-2.6c0.3-0.2,1.4-1.1,1.4-2.5c0-0.7-0.1-1.2-0.4-1.5c0,0,0,0-0.1,0c0,0,0,0,0,0
				c0-0.2,0.8-4.2-1-6.6c-1.6-2-3.6-2.3-4.7-2.3c-1.5,0-2.8,0.5-3.4,1.3c-0.1,0-0.3,0-0.5,0c-0.6,0-1.6,0.2-2.3,1.4
				c-0.9,1.8-1.2,4-0.7,6.1c-0.1,0-0.3,0.1-0.4,0.2c-0.3,0.3-0.4,0.7-0.3,1.4c0.1,1.5,1.1,2.3,1.4,2.5c0.2,0.4,0.7,1.5,1.4,2.6V48
				c-0.3,0.3-0.4,0.7-0.4,1.1h0L61,51.7l6.8,3.3C68.9,55.5,69.7,56.5,70,57.8z"/>
		</g>
		<g>
			<path class="st0" d="M38.7,57.8c0.2-1.2,1-2.2,2.2-2.8l5.1-2.6l-6.9-3.3h0c0-0.5-0.2-0.9-0.4-1.2c0,0,0,0,0,0v-2.4
				c0.8-1.1,1.3-2.2,1.5-2.6c0.3-0.2,1.4-1.1,1.4-2.5c0-0.7-0.1-1.2-0.4-1.5c0,0,0,0-0.1,0c0,0,0,0,0,0c0-0.2,0.8-4.2-1-6.6
				c-1.6-2-3.6-2.3-4.7-2.3c-1.5,0-2.8,0.5-3.4,1.3c-0.1,0-0.3,0-0.5,0c-0.6,0-1.6,0.2-2.3,1.4c-0.9,1.8-1.2,4-0.7,6.1
				c-0.1,0-0.3,0.1-0.4,0.2c-0.3,0.3-0.4,0.7-0.3,1.4c0.1,1.5,1.1,2.3,1.4,2.5c0.2,0.4,0.7,1.5,1.4,2.6V48c-0.3,0.3-0.4,0.7-0.4,1.1
				h0l-7,3.5c-1,0.4-1.7,1.3-1.9,2.4L21,56.9v5.5h17.3V60L38.7,57.8z"/>
		</g>
	</g>
</g>
</svg>
