<?xml version="1.0" encoding="utf-8"?>
<!-- Generator: Adobe Illustrator 23.0.0, SVG Export Plug-In . SVG Version: 6.00 Build 0)  -->
<svg version="1.1" id="Capa_1" xmlns="http://www.w3.org/2000/svg" xmlns:xlink="http://www.w3.org/1999/xlink" x="0px" y="0px"
	 viewBox="0 0 72.4 91.1" style="enable-background:new 0 0 72.4 91.1;" xml:space="preserve">
<style type="text/css">
	.st0{fill:url(#SVGID_1_);}
	.st1{fill:#FFFFFF;}
	.st2{fill:#065F87;}
</style>
<g>
	<g>
		<linearGradient id="SVGID_1_" gradientUnits="userSpaceOnUse" x1="1.5" y1="41.7192" x2="60.5326" y2="41.7192">
			<stop  offset="0" style="stop-color:#006098"/>
			<stop  offset="0.3015" style="stop-color:#0082CB"/>
			<stop  offset="0.5902" style="stop-color:#007ABE"/>
			<stop  offset="1" style="stop-color:#00649E"/>
		</linearGradient>
		<path class="st0" d="M56.4,46.7C59,41.9,60.8,37,60.5,31C59.8,15.8,47.4,3.6,32.2,3C15.3,2.4,1.5,15.8,1.5,32.5
			c0,8.6,4,14.7,8.6,21.5c5,7.5,10.1,14.9,15.1,22.4c1,1.6,2.2,3.2,4,3.8c2,0.7,4.3-0.1,5.9-1.5c2.5-2.1,4.1-5.6,5.9-8.3
			c4.1-6.1,8.5-12.3,12.5-18.6C54.5,50.2,55.5,48.5,56.4,46.7z"/>
		<ellipse class="st1" cx="31" cy="31.8" rx="22.4" ry="22.4"/>
	</g>
</g>
<g>
	<path class="st2" d="M44.4,33.5L43.3,31c0,0-0.3-8.1-8.2-9.2c3.9,2.3,4.5,6.8,4.6,7.8c0,0.1,0,0.2,0.1,0.4l1,2.3
		c0.2,0.5,0.1,1-0.2,1.4c-0.4,0.4-0.8,0.7-1.2,0.8c-0.4,0.2-0.6,0.6-0.6,1v2.1c0,0.4-0.2,0.8-0.5,1l-0.5,0.3
		c-0.3,0.2-0.6,0.3-0.9,0.3h-1.5c-0.6,0-1.1,0.5-1.1,1.1l-0.1,2.4c0,0.4-0.2,0.7-0.5,0.9l2.6,1.4c0.7,0.4,1.5-0.1,1.5-0.9l0.1-3.7
		h2.6c0.3,0,0.6-0.1,0.8-0.3l0.5-0.4c0.3-0.2,0.5-0.5,0.5-0.9V36c0,0,1.1-0.4,1.8-1.1C44.5,34.5,44.6,34,44.4,33.5z"/>
	<path class="st2" d="M37.7,29.9l-1.1-2.5c0,0-0.3-8.4-8.7-9.3v10.4l4.2,4.2c0.3,0.3,0.3,0.8,0,1L31.9,34c-0.3,0.3-0.8,0.3-1,0
		l-4.2-4.2l-0.1-0.1c-0.4,0.4-1,0.6-1.6,0.6c-1.3,0-2.3-1-2.3-2.3s1-2.3,2.3-2.3c0.6,0,1.2,0.3,1.6,0.7V18c-2.3,0-7.8,0.9-9,7.7
		c0,0-0.4,5.6,3,7.5c0.4,0.2,0.6,0.6,0.6,1v1.6c0,0.6,0.3,1.1,0.8,1.3l7.5,4.1c0.7,0.4,1.5-0.1,1.5-0.9l0.1-3.7h2.6
		c0.3,0,0.6-0.1,0.8-0.3l0.5-0.4c0.3-0.2,0.5-0.5,0.5-0.9v-2.9c0,0,1.1-0.4,1.8-1.1C37.8,30.9,37.9,30.3,37.7,29.9z"/>
</g>
</svg>
