<?xml version="1.0" encoding="utf-8"?>
<!-- Generator: Adobe Illustrator 23.0.0, SVG Export Plug-In . SVG Version: 6.00 Build 0)  -->
<svg version="1.1" id="Capa_1" xmlns="http://www.w3.org/2000/svg" xmlns:xlink="http://www.w3.org/1999/xlink" x="0px" y="0px"
	 viewBox="0 0 38.8 39.4" style="enable-background:new 0 0 38.8 39.4;" xml:space="preserve">
<style type="text/css">
	.st0{fill:#FFFFFF;}
</style>
<path class="st0" d="M19.4,4.2C10.4,4.2,3,11.5,3,20.6c0,9,7.3,16.4,16.4,16.4c9-0.1,16.4-7.4,16.4-16.4S28.5,4.2,19.4,4.2z
	 M28.9,15.6c-0.4,0.9-1.1,1.5-1.7,1.5c0,0.2,0,0.3,0,0.5c0,0.8-0.1,1.6-0.3,2.4c-0.5,2.3-1.7,4.5-3.6,6.1c-1.9,1.6-4.4,2.7-7.5,2.7
	c-2.2,0-4.3-0.7-6.1-1.8c0.3,0.1,0.6,0.1,0.9,0.1c1.9,0,3.5-0.6,4.9-1.6c-1.7-0.1-3.1-1.2-3.6-2.7c0.2,0.1,0.5,0.1,0.7,0.1
	c0.4,0,0.8,0,1.1-0.1c-1.3-0.2-2.4-1.2-2.9-2.4c-0.2-0.5-0.3-1.2-0.3-1.4c0.5,0.3,1.1,0.5,1.7,0.5c-1-0.7-1.7-1.9-1.7-3.2
	c0-0.7,0.2-1.3,0.5-1.9c2,2.4,4.9,3.9,8.2,4.1c-0.1-0.3-0.1-0.6-0.1-0.9c0-2.1,1.8-3.9,4-3.9c1.1,0,2.2,0.4,2.9,1.2
	c0.9-0.2,1.7-0.5,2.4-0.9c0.1,0,0.1,0,0.1,0.1c-0.3,0.8-0.9,1.5-1.7,2C27.5,16,28.2,15.9,28.9,15.6C29,15.6,29,15.7,28.9,15.6z"/>
</svg>
