<?xml version="1.0" encoding="utf-8"?>
<!-- Generator: Adobe Illustrator 23.0.0, SVG Export Plug-In . SVG Version: 6.00 Build 0)  -->
<svg version="1.1" id="Capa_1" xmlns="http://www.w3.org/2000/svg" xmlns:xlink="http://www.w3.org/1999/xlink" x="0px" y="0px"
	 viewBox="0 0 79.4 79.4" style="enable-background:new 0 0 79.4 79.4;" xml:space="preserve">
<style type="text/css">
	.st0{fill:none;stroke:#FFFFFF;stroke-miterlimit:10;}
	.st1{fill:#FFFFFF;}
	.st2{fill:none;stroke:#FFFFFF;stroke-width:2;stroke-miterlimit:10;}
</style>
<g>
	<g>
		<path class="st0" d="M73.2,62.5H31c-1,0-1.8-0.8-1.8-1.8V36.5c0-1,0.8-1.8,1.8-1.8h42.3c1,0,1.8,0.8,1.8,1.8v24.2
			C75,61.7,74.2,62.5,73.2,62.5z"/>
	</g>
	<path class="st1" d="M27.2,47.8l-12,4.6c-0.7,0.3-1.5-0.1-1.8-0.8c-0.3-0.7,0.1-1.5,0.8-1.8l13-5V37c0-2.4,2-4.4,4.4-4.4h22.3
		L48,17.1c-0.9-2.4-3.7-3.6-6.1-2.7l-36.4,14c-2.4,0.9-3.6,3.7-2.7,6.1l8,20.8c0.9,2.4,3.7,3.6,6.1,2.7l10.3-4V47.8z M9.3,38.3
		c-0.7-1.7,0.1-3.7,1.8-4.5c0.6-0.2,1.2-0.3,1.7-0.2c0.3-0.5,0.8-0.9,1.4-1.1c1.7-0.7,3.7,0.1,4.5,1.8c0.7,1.7-0.1,3.7-1.8,4.5
		c-0.6,0.2-1.2,0.3-1.7,0.2c-0.3,0.5-0.8,0.9-1.4,1.1C12,40.8,10,40,9.3,38.3z"/>
	<rect x="29.1" y="39.9" class="st1" width="45.9" height="5.5"/>
	<path class="st1" d="M51.3,51.3H34.1c-0.5,0-0.8-0.4-0.8-0.8v-1.1c0-0.5,0.4-0.8,0.8-0.8h17.1c0.5,0,0.8,0.4,0.8,0.8v1.1
		C52.1,51,51.7,51.3,51.3,51.3z"/>
</g>
</svg>
