<?xml version="1.0" encoding="utf-8"?>
<!-- Generator: Adobe Illustrator 23.0.0, SVG Export Plug-In . SVG Version: 6.00 Build 0)  -->
<svg version="1.1" id="Capa_1" xmlns="http://www.w3.org/2000/svg" xmlns:xlink="http://www.w3.org/1999/xlink" x="0px" y="0px"
	 viewBox="0 0 68.8 63.1" style="enable-background:new 0 0 68.8 63.1;" xml:space="preserve">
<style type="text/css">
	.st0{fill:#FFFFFF;}
	.st1{fill:#176086;}
</style>
<polygon class="st0" points="20.3,19.3 24.6,14.4 45.8,14.4 50.3,19.6 49.5,30.9 46.5,37.6 39.7,44.3 34.5,46.5 23.2,37.8 
	20.1,26.2 "/>
<g>
	<path class="st1" d="M35.2,43.4c7-3.3,11.7-9.5,11.7-16.5v-6l-3.1-3.5h-8.6h-8.6l-3.1,3.5v6C23.4,34,28.1,40.1,35.2,43.4z"/>
</g>
<path class="st1" d="M50.4,17.9l-3.7-4.1c-0.4-0.4-0.9-0.7-1.5-0.7h-10H25.1c-0.6,0-1.2,0.3-1.5,0.7L19.9,18
	c-0.3,0.4-0.5,0.9-0.5,1.4v7c0,8.8,5.7,16.9,14.9,21.2c0.3,0.1,0.6,0.2,0.9,0.2c0.3,0,0.6-0.1,0.9-0.2C45.2,43.2,51,35.1,51,26.3
	v-7.1C51,18.7,50.8,18.2,50.4,17.9z M48.9,26.3c0,8.3-5.5,15.5-13.7,19.3C27,41.7,21.5,34.5,21.5,26.3v-7l3.7-4.2h10.1h10.1l3.7,4.1
	L48.9,26.3z"/>
</svg>
