<?xml version="1.0" encoding="utf-8"?>
<!-- Generator: Adobe Illustrator 23.0.0, SVG Export Plug-In . SVG Version: 6.00 Build 0)  -->
<svg version="1.1" id="Capa_1" xmlns="http://www.w3.org/2000/svg" xmlns:xlink="http://www.w3.org/1999/xlink" x="0px" y="0px"
	 viewBox="0 0 68.8 63.1" style="enable-background:new 0 0 68.8 63.1;" xml:space="preserve">
<style type="text/css">
	.st0{fill:#FDFEFF;}
	.st1{fill:#155F86;}
</style>
<ellipse class="st0" cx="33.8" cy="31.2" rx="17.5" ry="17.6"/>
<g>
	<path class="st1" d="M35.3,25.4c-0.5-0.3-1.2-0.4-1.6-0.6c-0.4-0.1-0.9-1.3-3.8-0.5c0.3,0.9,1.9-0.4,3.3,1.5
		c1.5,0.4,2.6-0.1,3.1,0.5c0.4,0.4,1,0.1,1.1-0.5C37.7,25.1,35.9,25.7,35.3,25.4z"/>
	<path class="st1" d="M33.8,13.4c-9.8,0-17.8,8-17.8,17.8S24,49,33.8,49s17.8-8,17.8-17.8C51.5,21.3,43.6,13.4,33.8,13.4z
		 M22.5,40.7c0.5,0.7-1.2,1.1-0.9,1.7c0.3,0.5,0.7,0.9,1,1.6c-0.3-0.2-0.6-0.5-0.8-0.7c-2.7-2.7-4.5-6.4-4.9-10.4
		c1.3,0.8,3.3,4,5.7,4.7C23.1,37.8,22,40,22.5,40.7z M24.4,20.4L24.4,20.4c-0.1,0.5-0.4,1-1.4,1.6l0,0c-0.2,0.2-1,0.6-1.1,0.8
		c-0.1,0.2-0.3,0.3-0.6,0.4c-0.3,0.1-1,0.6-1.2,0.8c-0.1,0.2-0.3,0.1-1,0.3l0,0c-0.4,0.2-0.7,0.3-1.1,0.3c0.8-2.1,2.1-3.9,3.6-5.5
		c0.5-0.5,1.1-0.9,1.7-1.2l1.3-0.8c-0.2,0.6-0.2,1-0.5,1.3C24,19,24.6,19.9,24.4,20.4z M50,36.3c-0.8,2.6-2.3,5-4.2,6.9
		c-0.5,0.5-1,0.9-1.6,1.4c-0.1,0.1-0.2,0.1-0.3,0.2c0.3-2.1,0.7-2.8,1.9-3.3s1.4-1.2,1.4-2.2C47.2,37.7,49.3,36.9,50,36.3
		C50,36.2,50,36.3,50,36.3z M49.8,25.4c0.2,0.5,0.3,1,0.5,1.5c0,1.6-2.1,2.4-2.3,3.1c0,0.1,0,0.1,0,0.2c0.3,0,0.6,0.2,0.8,0.9
		c0.6,2.1,0.3,2.9-0.4,2.9c-0.6,0-0.9-1-1.3-2.1c-0.2-0.1-0.3-0.3-0.5-0.6c-0.6-1-1.4-3.6-2.4-3.8c-0.5-0.1-0.5,0.6-0.7,1.3
		c-0.1,0.7,0.2,1.3,0.2,1.3s-0.4,0.3-0.6,0.6c-0.1,0.3-0.7,0-1,0c-0.8,0.4-1.5-0.2-1.6-1.1c-0.5-0.9-0.9-1.8-1.6-1.5
		c0.6,0.8,0.8,3.4,1.4,4c1.8,0,2-1.4,1.6,1c-0.1,0.6-0.2,1.1-0.4,1.5c-0.1,0.9-0.2,1.3-0.5,1.5c-0.3,0.3-1.1,0.9-1.1,1
		c0.1,0.5-0.3,0.7-0.5,0.8c0,0.1,0,0.1,0,0.2c0.1,0.2,0.5,0.2,0.8,0.3c1-0.1,2.5-0.6,1.4,0.7c-0.4,0.4-0.8,0.7-1.1,1
		c0,0.1,0,0.1,0,0.2c-0.1,0.2-0.3,0.7-0.4,0.8c0.1,0.3,0,0.3-0.3,0.2c-0.3,0.2-0.3-0.1-0.5-0.4c0-0.1-0.1-0.2-0.1-0.2
		c0-0.1-0.1-0.1-0.1-0.2c0-0.1,0-0.2-0.1-0.3l0,0c-0.1-0.2-0.1-0.5-0.4-0.6c-1-0.4-0.5,1.4-1.9,3c-2.4,1.8-2.8,0.2-4-1.4
		c-1.2-1.6,0.7-1.9,0.3-4.9c-1-0.6-1.9-2.6-1.9-2.6s-0.3,0-0.6,0c-0.2,0-0.1,0.2-0.4,0.1c-0.3,0-0.9-0.1-1.3-0.1s-0.5,0.1-0.8,0
		c0,0-0.6,0-0.8,0.2c-0.2,0.2-0.6,0.2-0.9-0.2c0,0-1.8-2.6-1.4-4.4c0.4-1.8,1.2-2.2,2.8-3.6c-0.3-1-1.2-0.3-1.1-1.6
		c0.3-2.3,2.1-0.6,2.4-2c0.1-0.4-0.1-0.5-0.4-0.6c-0.4,0-1,0.4-1.4,0.3c-0.5-0.1-0.8-0.2-0.4-0.7l0,0c0-0.1,0.1-0.1,0.2-0.2
		c0.3-0.3,0.5-0.6,0.7-0.8c0.1-0.1,0.2-0.2,0.3-0.3c0.2-0.5,0.4-1,1-0.8s0.1,0.6,0.2,1c0.3,2.3,1,1.8,1.3,1.5
		c-0.1-0.7,1.9-0.3,1-0.7c-0.1,0-0.2-0.1-0.2-0.2c-0.2-0.1-0.3-0.3-0.3-0.4c0.1-0.1-0.1-0.3,0.1-0.5c0-0.2,0-0.3,0.1-0.4
		c0-0.1,0-0.2,0.1-0.2l0,0c0-0.2,0.2-0.6,0.3-0.7h0.1c0.3-0.3,0.6-0.6,1.1-0.8v-0.1c0-0.1,0.5-0.1,0.5-0.1h0.1
		c0.3-0.1,0.6-0.1,0.8-0.1l0,0c0.2,0,0.6-0.3,0.6-0.3s0.5,0,0.5,0.2l0,0c0.1,0,0.2,0,0.3,0s0.3-0.1,0.4-0.1c0.3,0,0.4,0.2,0.7,0.5
		c0.3,0.2,0.4,0.5,0.3,0.8c0.8,0,2.9-1.5,2.9-1.5s2.8,0.8,2.5,1.6c-0.3-0.2-1.7-0.6-3.3,0c-0.4,0.1,0.9,0.6,2.3,0.6
		C45.1,19.1,48.5,22.9,49.8,25.4z"/>
</g>
</svg>
