<?xml version="1.0" encoding="utf-8"?>
<!-- Generator: Adobe Illustrator 23.0.0, SVG Export Plug-In . SVG Version: 6.00 Build 0)  -->
<svg version="1.1" id="Capa_1" xmlns="http://www.w3.org/2000/svg" xmlns:xlink="http://www.w3.org/1999/xlink" x="0px" y="0px"
	 viewBox="0 0 68.8 63.1" style="enable-background:new 0 0 68.8 63.1;" xml:space="preserve">
<style type="text/css">
	.st0{fill:#FFFFFF;}
	.st1{fill:#155F86;}
</style>
<path class="st0" d="M50.7,45.8H19.5c-1.9,0-3.4-1.5-3.4-3.4v-18c0-1.9,1.5-3.4,3.4-3.4h31.2c1.9,0,3.4,1.5,3.4,3.4v18
	C54.2,44.3,52.6,45.8,50.7,45.8z"/>
<g>
	<path class="st1" d="M28.4,19.2h0.9c0.5,0,0.9-0.2,0.9-0.5v-2.6c0-0.3,0.3-0.6,0.6-0.6h8.3c0.3,0,0.6,0.3,0.6,0.6v2.6
		c0,0.2,0.4,0.4,0.9,0.4h0.9c0.5,0,0.9-0.2,0.9-0.4v-2.6c0-1.8-1.4-3.2-3.2-3.2h-8.3c-1.8,0-3.2,1.4-3.2,3.2v2.5
		C27.6,19,28,19.2,28.4,19.2z"/>
	<path class="st1" d="M33.6,37.5h2.6c0.5,0,0.9-0.4,0.9-0.9v-1c0-0.5-0.4-0.9-0.9-0.9h-2.6c-0.5,0-0.9,0.4-0.9,0.9v1
		C32.8,37.2,33.2,37.5,33.6,37.5z"/>
	<path class="st1" d="M32.8,41.2c0,0.5,0.4,0.9,0.9,0.9h2.6c0.5,0,0.9-0.4,0.9-0.9v-1.3c0-0.5-0.4-0.9-0.9-0.9h-2.6
		c-0.5,0-0.9,0.4-0.9,0.9V41.2z"/>
	<path class="st1" d="M52.5,36c-0.2,0.1-0.4,0.2-0.6,0.2c-4.2,1.4-8.7,2.3-13.4,2.6v1.7c0,1.5-1.2,2.6-2.6,2.6h-1.7
		c-1.5,0-2.6-1.2-2.6-2.6v-1.7c-5.1-0.3-9.9-1.3-14.4-3c-0.1,0-0.4-0.1-0.9-0.4h-0.1h-0.1v10.9c0,1.2,1,2.2,2.2,2.2H52
		c1.2,0,2.2-1,2.2-2.2V35.4c-0.2,0.1-0.3,0.1-0.5,0.2L52.5,36z"/>
	<path class="st1" d="M52.6,20.8H17.3c-1.2,0-2.1,0.9-2.1,2.1v9.4c0,0.2,0.2,0.6,0.4,0.6c0,0,0.4,0.2,1,0.4
		c4.5,1.8,9.6,2.9,14.8,3.2v-1.6c0-1,1.6-1.8,2.6-1.8h1.7c1.2,0,2.6,0.8,2.6,2v1.3c4.5-0.3,8.9-1.1,13-2.5c1.3-0.4,2.9-1.1,2.9-1.1
		c0.2-0.1,0.4-0.4,0.4-0.6v-9.4C54.7,21.8,53.8,20.8,52.6,20.8z"/>
</g>
</svg>
