<?xml version="1.0" encoding="utf-8"?>
<!-- Generator: Adobe Illustrator 23.0.0, SVG Export Plug-In . SVG Version: 6.00 Build 0)  -->
<svg version="1.1" id="Capa_1" xmlns="http://www.w3.org/2000/svg" xmlns:xlink="http://www.w3.org/1999/xlink" x="0px" y="0px"
	 viewBox="0 0 437 245.9" style="enable-background:new 0 0 437 245.9;" xml:space="preserve">
<style type="text/css">
	.st0{fill-rule:evenodd;clip-rule:evenodd;fill:#13110C;}
	.st1{fill:#00A0DD;}
	.st2{fill:#FFFFFF;}
	.st3{fill:#13110C;}
	.st4{fill:#269CD8;}
</style>
<g>
	<g>
		<path class="st0" d="M224.7,169.7c0.2,1.4,0.4,2.8,0.5,4.2c0,0.7,0,4.5,0,4.5h6.6c0,0,0-5.2,0-7c-0.2-7.1-5.3-7.6-5.3-7.6
			s3-0.3,4.5-3.2c1.6-3,1.2-7.6,0.8-10.3c-0.6-4.3-2-6.9-6.6-7.3c-6.3,0-12.6,0-18.9,0c-1.7-0.1-2.2,0.3-2.2,2.1
			c0.1,9.6,0,33.3,0,33.3h6.7c0,0,0-7.4,0-9.9c0-1.2,0.4-1.8,1.6-1.8c2.9,0,5.8-0.1,8.6,0C222.7,166.9,224.4,167.5,224.7,169.7z
			 M212.3,160.9c-1.2,0-1.6-0.6-1.6-1.8c0-3,0-6,0-8.9c0-1.3,0.5-1.7,1.7-1.6c1.5,0.1,7.7,0,9.3,0.1c1.6,0.1,3.1,0.9,3.3,2.6
			c0.3,2.3,0.3,4.7-0.1,6.9c-0.3,2-2.1,2.7-3.9,2.7C218.2,161,215.3,160.9,212.3,160.9z"/>
		<path class="st0" d="M164.8,159.5c0.1,4.9,0.1,8.9-0.5,13.1c-0.4,2.7-2,4.9-5.7,5.3c-3.9,0.5-4.1,0.5-9.2,0.5
			c-3.1,0-8.7-0.2-11.2-2.8c-1.6-1.6-2.4-3.6-2.5-5.7c-0.2-6.2-0.2-12.4,0-18.6c0.2-4.2,3.4-7.2,7.2-8.2c3.9-1,9.7-0.7,14.6-0.5
			c5.6,0.2,7.8,4.7,7.4,10.7c-1.8,0-6.2-0.1-6.2-0.1s0-0.8-0.1-1.3c-0.6-2.7-1.3-3.6-3.9-3.6c-2.9-0.1-5.9,0-8.8,0
			c-1.9,0.1-3.5,1.8-3.5,3.8c0,5.5,0,11,0,16.5c0,1.9,1.3,3.7,3,3.8c3.3,0.2,6.7,0.2,10,0c1.8-0.1,2.9-1.7,3.2-3.9
			c0.1-1.2,0-2.4,0-3.8c-2.8,0-5.4,0-8.4,0c0-1.6,0-5.3,0-5.3S159.7,159.5,164.8,159.5z"/>
		<path class="st0" d="M313.1,170.9c0.1,2.1,0.1,5.3,0.1,7.5h6.3c0-2.3,0-5.8,0-8c0-3.2-1.3-5.4-4.5-6.3c3.5-2,4.7-4.1,4.7-6.5
			c0-2.6,0-5.3-0.2-7.9c-0.3-3.3-2.3-5.5-5.3-6.2c-1.2-0.3-2.5-0.5-3.8-0.5c-4.7,0-17.9,0-17.9,0v35.3h6.3c0,0,0-7.7,0-10.4
			c0-0.8,0.1-0.9,0.9-0.9c3.4,0,6.5-0.1,9.6,0.1C311.2,167.1,312.9,168.4,313.1,170.9z M309.1,161c-3.1,0-10.3,0-10.3,0v-12.1
			c0,0,7.7-0.1,11.2,0c1.8,0.1,3.1,1.2,3.3,3.2c0.2,1.7,0.2,3.5,0,5.2C313,159.8,311.6,161.1,309.1,161z"/>
		<path class="st0" d="M198.4,156.9c0,4,0.1,7.9,0,11.9c-0.1,3.8-1.2,7.2-4.9,8.8c-0.9,0.4-1.9,0.7-2.8,0.7
			c-4.3,0.1-8.6,0.2-12.9-0.1c-1.6-0.1-3.3-0.9-4.6-1.9c-2.5-1.8-3-4.7-3.1-7.7c-0.1-8,0-15.9,0-23.9c0-0.9,0-2.2,0-2.2h6.4
			c0,0,0,2.2,0,4.4c0,6.4,0,12.7,0,19.1c0,5.7,0.8,6.6,6.2,6.8c2.1,0.1,4.2-0.1,6.2-0.4c2.1-0.3,3.1-1.8,3.1-4.5c0-5,0-10,0-15
			c0-2.9,0-10.4,0-10.4h6.4c0,0,0,2.1,0,4.9C198.4,150.7,198.4,153.8,198.4,156.9z"/>
		<path class="st0" d="M353.7,156.9c0,4,0.1,7.9,0,11.9c-0.1,3.8-1.2,7.2-4.9,8.8c-0.9,0.4-1.9,0.7-2.8,0.7
			c-4.3,0.1-8.6,0.2-12.9-0.1c-1.6-0.1-3.3-0.9-4.6-1.9c-2.5-1.8-3-4.7-3.1-7.7c-0.1-8,0-15.9,0-23.9c0-0.9,0-2.2,0-2.2h6.4
			c0,0,0,2.2,0,4.4c0,6.4,0,12.7,0,19.1c0,5.7,0.8,6.6,6.2,6.8c2.1,0.1,4.1-0.1,6.2-0.4c2.1-0.3,3.1-1.8,3.1-4.5c0-5,0-10,0-15
			c0-2.9,0-10.4,0-10.4h6.4c0,0,0,2.1,0,4.9C353.8,150.7,353.7,153.8,353.7,156.9z"/>
		<path class="st0" d="M386.6,154.2c-2.1,0-4.1,0-6.4,0c0-1.2,0-2.3,0-3.4c0-1.8-1.1-2.7-2.7-2.7c-2.7-0.1-5.5-0.1-8.2,0
			c-1.8,0-3.5,1.4-3.5,3.3c-0.1,5.9-0.1,11.9,0,17.8c0,1.9,1.5,3,3.1,3.1c3,0.2,6,0.2,8.9,0c1.8-0.1,2.8-1.6,2.9-3.8
			c0.1-1,0-1.9,0-3c2.3,0,4.4,0,6.6,0c0.2,3.6,0,6.8-1.5,9.4c-0.8,1.3-2.6,3-5.2,3.2c-4.6,0.4-8.1,0.4-12.7,0.2
			c-5.4-0.2-8.3-3.2-8.6-9c-0.3-6.1-0.3-12.3,0.1-18.4c0.3-4.7,2.8-7.6,7.2-8.1c4.3-0.6,8.6-0.7,12.9-0.4
			C385.8,142.8,386.9,146.5,386.6,154.2z"/>
		<path class="st0" d="M260.1,172.5c-3.9,0-13.2,0-15.7,0c-1.1,0-0.9-0.2-0.9-1.2c0-2.3,0-4.6,0-6.7c0-1.3,0.5-1.5,1.6-1.5
			c3.7,0.1,14.3,0,14.3,0v-5.8c0,0-10.1,0.1-14.1,0c-1.3,0-1.7-0.3-1.7-1.1v-6.7c0-0.9-0.1-1.2,0.9-1.2c4.7,0,15.6,0,15.6,0v-5.8
			c0,0-14.5,0-20.9,0c-1.7,0-2.2,0.4-2.2,2.3c0.1,10.5,0.1,21,0,31.5c0,1.8,0.6,2.3,2.3,2.3c5.8-0.1,20.6,0,20.8,0V172.5z"/>
		<path class="st0" d="M272.9,178.4h6.4c0,0,0-28.6,0-29.5c2.4,0,9.7-0.1,9.7-0.1l0-5.8l-25.6,0v5.8c0,0,6.9,0,9.5,0L272.9,178.4z"
			/>
		<path class="st0" d="M414.3,178.4h7.7l-14.9-18v-1.2l13.3-16.9h-7.7l-11.1,14.3h-3.5l0-14.2c-1.7,0-6.6,0-6.6,0s0,35.1,0,35.9h6.6
			l0-15.6h3.4L414.3,178.4z"/>
	</g>
	<g>
		<path class="st1" d="M20.2,22.6l165.5,70.3l58.6-11.4l21.9-4.2h0L322,66.5L20.2,22.6z"/>
		<polygon class="st2" points="59,33.4 86.4,39.2 84.7,40.1 		"/>
		<polygon class="st2" points="92.1,40.4 112.2,44.7 108.9,46.4 90.1,41.5 		"/>
		<polygon class="st2" points="117.7,45.8 139.8,50.5 134.8,53.1 114.2,47.8 		"/>
		<polygon class="st2" points="217.1,74.5 229,69.4 266.2,77.3 244.3,81.5 		"/>
		<polygon class="st2" points="174.6,63.4 182.5,59.6 217.2,66.9 207.3,71.9 		"/>
		<polygon class="st2" points="168.3,61.8 140.2,54.5 145.4,51.7 175.7,58.1 		"/>
	</g>
	<g>
		<polygon class="st3" points="121.7,179 21.3,179 71.8,22 		"/>
		<polygon class="st2" points="72.6,74 71.1,74 72,60.9 		"/>
		<polygon class="st2" points="73.2,87 70.3,87 71,76 72.7,76 		"/>
		<polygon class="st2" points="73.9,101.4 69.3,101.4 70.2,89 73.3,89 		"/>
		<polygon class="st2" points="74.8,120.6 68.1,120.6 69.1,104.8 74.1,104.8 		"/>
		<polygon class="st2" points="76,144.6 66.5,144.6 67.8,124.4 75,124.4 		"/>
		<polygon class="st2" points="77.2,170.7 64.8,170.7 66.2,149.2 76.2,149.2 		"/>
	</g>
</g>
<g>
	<path class="st4" d="M30.8,224h-9.7v-15.3h2v13.5h7.7V224z"/>
	<path class="st4" d="M42.9,224H32.8v-15.3h10.1v1.8h-8.1v4.2h8.1v1.8h-8.1v5.7h8.1V224z"/>
	<path class="st4" d="M59,222.9c-0.8,0.4-1.8,0.7-2.7,1c-1,0.3-2,0.4-2.9,0.4c-1.2,0-2.3-0.2-3.3-0.5s-1.8-0.8-2.5-1.5
		c-0.7-0.7-1.3-1.5-1.6-2.5c-0.4-1-0.6-2.2-0.6-3.5c0-2.4,0.7-4.4,2.1-5.8c1.4-1.4,3.4-2.1,5.9-2.1c0.9,0,1.8,0.1,2.7,0.3
		c0.9,0.2,1.9,0.6,2.9,1.1v2.4h-0.2c-0.2-0.2-0.5-0.4-0.9-0.6s-0.8-0.5-1.2-0.7c-0.5-0.2-1-0.4-1.6-0.5c-0.6-0.1-1.3-0.2-2-0.2
		c-1.7,0-3.1,0.5-4.1,1.6c-1,1.1-1.5,2.6-1.5,4.5c0,2,0.5,3.5,1.6,4.6c1,1.1,2.5,1.6,4.3,1.6c0.7,0,1.3-0.1,2-0.2
		c0.7-0.1,1.2-0.3,1.7-0.5v-3.7h-4.1v-1.8H59V222.9z"/>
	<path class="st4" d="M74.6,224h-2.2l-1.5-4.3h-6.6l-1.5,4.3h-2.1l5.6-15.3H69L74.6,224z M70.3,218l-2.7-7.5l-2.7,7.5H70.3z"/>
	<path class="st4" d="M86.6,224h-9.7v-15.3h2v13.5h7.7V224z"/>
	<path class="st4" d="M107.3,214.7v1c0,0.7-0.1,1.4-0.3,2.2s-0.5,1.6-0.9,2.3l3.9,3.8h-2.5l-2.4-2.3c-0.8,1-1.6,1.6-2.4,2
		c-0.8,0.4-1.7,0.6-2.5,0.6c-1.4,0-2.6-0.4-3.6-1.2c-0.9-0.8-1.4-1.9-1.4-3.3c0-0.6,0.1-1.2,0.3-1.6c0.2-0.5,0.4-0.9,0.6-1.2
		c0.2-0.3,0.5-0.6,0.9-0.9c0.4-0.3,0.7-0.5,1.1-0.7c-0.8-0.5-1.3-1-1.6-1.5c-0.3-0.5-0.5-1.1-0.5-1.9c0-0.5,0.1-0.9,0.3-1.3
		c0.2-0.4,0.5-0.8,0.8-1.1c0.3-0.3,0.8-0.6,1.3-0.8c0.6-0.2,1.2-0.3,1.8-0.3c1.2,0,2.1,0.3,2.9,0.9c0.7,0.6,1.1,1.4,1.1,2.3
		c0,0.3,0,0.6-0.1,1c-0.1,0.4-0.2,0.7-0.4,1c-0.2,0.3-0.5,0.7-0.9,1s-0.9,0.6-1.6,0.8l3.8,3.7c0.1-0.3,0.2-0.6,0.2-0.9
		c0-0.3,0.1-0.7,0.1-1c0-0.4,0-0.8,0-1.3c0-0.5,0-0.9,0-1.2H107.3z M104.2,220.8l-4.9-4.8c-0.2,0.1-0.4,0.2-0.6,0.4
		c-0.2,0.2-0.4,0.4-0.6,0.7c-0.2,0.3-0.4,0.6-0.5,1c-0.1,0.4-0.2,0.8-0.2,1.3c0,1,0.3,1.8,0.9,2.4c0.6,0.6,1.4,0.9,2.5,0.9
		c0.6,0,1.3-0.2,1.9-0.5C103.2,221.9,103.8,221.4,104.2,220.8z M102.2,211.8c0-0.6-0.2-1.2-0.6-1.5c-0.4-0.4-0.9-0.6-1.5-0.6
		c-0.6,0-1.1,0.2-1.5,0.6c-0.4,0.4-0.6,0.9-0.6,1.5c0,0.5,0.1,1,0.4,1.4c0.3,0.4,0.9,0.9,1.8,1.4c0.7-0.2,1.2-0.6,1.5-1.1
		C102,213.1,102.2,212.5,102.2,211.8z"/>
	<path class="st4" d="M130,219.6c0,0.6-0.1,1.2-0.4,1.8c-0.3,0.6-0.7,1.1-1.2,1.5c-0.5,0.4-1.2,0.8-1.9,1c-0.7,0.2-1.6,0.4-2.6,0.4
		c-1.1,0-2.1-0.1-3-0.3c-0.9-0.2-1.8-0.5-2.7-0.9v-2.5h0.1c0.8,0.6,1.7,1.1,2.7,1.5s2,0.5,2.9,0.5c1.3,0,2.2-0.2,3-0.7
		c0.7-0.5,1.1-1.1,1.1-1.9c0-0.7-0.2-1.2-0.5-1.5c-0.3-0.3-0.8-0.6-1.5-0.7c-0.5-0.1-1.1-0.2-1.7-0.3c-0.6-0.1-1.2-0.2-1.9-0.3
		c-1.4-0.3-2.4-0.8-3-1.5c-0.7-0.7-1-1.6-1-2.7c0-1.3,0.5-2.3,1.6-3.1s2.5-1.2,4.1-1.2c1.1,0,2.1,0.1,3,0.3c0.9,0.2,1.7,0.5,2.4,0.8
		v2.4h-0.1c-0.6-0.5-1.4-0.9-2.3-1.2c-1-0.3-1.9-0.5-2.9-0.5c-1.1,0-2,0.2-2.6,0.7c-0.7,0.5-1,1-1,1.7c0,0.6,0.2,1.1,0.5,1.5
		c0.3,0.4,0.9,0.6,1.7,0.8c0.4,0.1,1.1,0.2,1.9,0.3s1.5,0.3,2.1,0.4c1.1,0.3,2,0.8,2.6,1.4C129.7,217.7,130,218.5,130,219.6z"/>
	<path class="st4" d="M144.7,210.5c0.6,0.7,1.1,1.5,1.4,2.5c0.3,1,0.5,2.1,0.5,3.4c0,1.3-0.2,2.4-0.5,3.4c-0.3,1-0.8,1.8-1.4,2.5
		c-0.6,0.7-1.4,1.2-2.2,1.6c-0.9,0.3-1.8,0.5-2.9,0.5c-1.1,0-2.1-0.2-2.9-0.5c-0.9-0.4-1.6-0.9-2.2-1.5c-0.6-0.7-1.1-1.5-1.4-2.5
		c-0.3-1-0.5-2.1-0.5-3.4c0-1.2,0.2-2.4,0.5-3.3c0.3-1,0.8-1.8,1.4-2.5c0.6-0.7,1.4-1.2,2.2-1.5c0.9-0.4,1.9-0.5,2.9-0.5
		c1.1,0,2.1,0.2,3,0.5C143.3,209.3,144.1,209.8,144.7,210.5z M144.5,216.4c0-2-0.4-3.5-1.3-4.6c-0.9-1.1-2.1-1.6-3.7-1.6
		c-1.6,0-2.8,0.5-3.7,1.6c-0.9,1.1-1.3,2.6-1.3,4.6c0,2,0.5,3.5,1.4,4.6c0.9,1.1,2.1,1.6,3.6,1.6c1.5,0,2.7-0.5,3.6-1.6
		C144,219.9,144.5,218.4,144.5,216.4z"/>
	<path class="st4" d="M159.6,210.5h-7.8v4.3h6.7v1.8h-6.7v7.3h-2v-15.3h9.8V210.5z"/>
	<path class="st4" d="M173.2,210.5h-5.5V224h-2v-13.5h-5.5v-1.8h13V210.5z"/>
	<path class="st4" d="M193.1,208.7l-4,15.3h-2.3l-3.2-12.7l-3.2,12.7h-2.2l-4.1-15.3h2.1l3.2,12.7l3.2-12.7h2.1l3.2,12.8l3.2-12.8
		H193.1z"/>
	<path class="st4" d="M207.7,224h-2.2l-1.5-4.3h-6.6l-1.5,4.3h-2.1l5.6-15.3h2.7L207.7,224z M203.4,218l-2.7-7.5L198,218H203.4z"/>
	<path class="st4" d="M222.7,224H220l-5.1-6.1H212v6.1h-2v-15.3h4.3c0.9,0,1.7,0.1,2.3,0.2c0.6,0.1,1.2,0.3,1.7,0.6
		c0.6,0.3,1,0.8,1.3,1.3c0.3,0.5,0.5,1.2,0.5,2c0,1.1-0.3,2-0.8,2.8s-1.3,1.3-2.3,1.7L222.7,224z M217.9,213c0-0.4-0.1-0.8-0.2-1.2
		c-0.2-0.3-0.4-0.6-0.8-0.9c-0.3-0.2-0.6-0.3-1.1-0.4c-0.4-0.1-0.9-0.1-1.4-0.1H212v5.8h2.1c0.6,0,1.2-0.1,1.7-0.2
		c0.5-0.1,0.9-0.3,1.2-0.6c0.3-0.3,0.5-0.6,0.7-1C217.9,214.1,217.9,213.6,217.9,213z"/>
	<path class="st4" d="M234.8,224h-10.1v-15.3h10.1v1.8h-8.1v4.2h8.1v1.8h-8.1v5.7h8.1V224z"/>
	<path class="st4" d="M255.2,210.5h-7.8v4.3h6.7v1.8h-6.7v7.3h-2v-15.3h9.8V210.5z"/>
	<path class="st4" d="M269,210.5c0.6,0.7,1.1,1.5,1.4,2.5c0.3,1,0.5,2.1,0.5,3.4c0,1.3-0.2,2.4-0.5,3.4c-0.3,1-0.8,1.8-1.4,2.5
		c-0.6,0.7-1.4,1.2-2.2,1.6c-0.9,0.3-1.8,0.5-2.9,0.5c-1.1,0-2.1-0.2-2.9-0.5c-0.9-0.4-1.6-0.9-2.2-1.5c-0.6-0.7-1.1-1.5-1.4-2.5
		c-0.3-1-0.5-2.1-0.5-3.4c0-1.2,0.2-2.4,0.5-3.3c0.3-1,0.8-1.8,1.4-2.5c0.6-0.7,1.4-1.2,2.2-1.5c0.9-0.4,1.9-0.5,2.9-0.5
		c1.1,0,2.1,0.2,3,0.5C267.6,209.3,268.4,209.8,269,210.5z M268.8,216.4c0-2-0.4-3.5-1.3-4.6c-0.9-1.1-2.1-1.6-3.7-1.6
		c-1.6,0-2.8,0.5-3.7,1.6c-0.9,1.1-1.3,2.6-1.3,4.6c0,2,0.5,3.5,1.4,4.6c0.9,1.1,2.1,1.6,3.6,1.6c1.5,0,2.7-0.5,3.6-1.6
		C268.3,219.9,268.8,218.4,268.8,216.4z"/>
	<path class="st4" d="M286.8,224h-2.6l-5.1-6.1h-2.9v6.1h-2v-15.3h4.3c0.9,0,1.7,0.1,2.3,0.2c0.6,0.1,1.2,0.3,1.7,0.6
		c0.6,0.3,1,0.8,1.3,1.3c0.3,0.5,0.5,1.2,0.5,2c0,1.1-0.3,2-0.8,2.8c-0.6,0.7-1.3,1.3-2.3,1.7L286.8,224z M282.1,213
		c0-0.4-0.1-0.8-0.2-1.2c-0.2-0.3-0.4-0.6-0.8-0.9c-0.3-0.2-0.6-0.3-1.1-0.4c-0.4-0.1-0.9-0.1-1.4-0.1h-2.4v5.8h2.1
		c0.6,0,1.2-0.1,1.7-0.2c0.5-0.1,0.9-0.3,1.2-0.6c0.3-0.3,0.5-0.6,0.7-1C282,214.1,282.1,213.6,282.1,213z"/>
	<path class="st4" d="M307.1,210.5h-5.5V224h-2v-13.5h-5.5v-1.8h13V210.5z"/>
	<path class="st4" d="M321.9,224h-2.6l-5.1-6.1h-2.9v6.1h-2v-15.3h4.3c0.9,0,1.7,0.1,2.3,0.2c0.6,0.1,1.2,0.3,1.7,0.6
		c0.6,0.3,1,0.8,1.3,1.3c0.3,0.5,0.5,1.2,0.5,2c0,1.1-0.3,2-0.8,2.8c-0.6,0.7-1.3,1.3-2.3,1.7L321.9,224z M317.1,213
		c0-0.4-0.1-0.8-0.2-1.2c-0.2-0.3-0.4-0.6-0.8-0.9c-0.3-0.2-0.6-0.3-1.1-0.4c-0.4-0.1-0.9-0.1-1.4-0.1h-2.4v5.8h2.1
		c0.6,0,1.2-0.1,1.7-0.2c0.5-0.1,0.9-0.3,1.2-0.6c0.3-0.3,0.5-0.6,0.7-1C317,214.1,317.1,213.6,317.1,213z"/>
	<path class="st4" d="M336,224h-2.2l-1.5-4.3h-6.6l-1.5,4.3h-2.1l5.6-15.3h2.7L336,224z M331.6,218l-2.7-7.5l-2.7,7.5H331.6z"/>
	<path class="st4" d="M350,224h-2.5l-7.3-13.7V224h-1.9v-15.3h3.2l6.6,12.5v-12.5h1.9V224z"/>
	<path class="st4" d="M365.2,219.6c0,0.6-0.1,1.2-0.4,1.8c-0.3,0.6-0.7,1.1-1.2,1.5c-0.5,0.4-1.2,0.8-1.9,1
		c-0.7,0.2-1.6,0.4-2.6,0.4c-1.1,0-2.1-0.1-3-0.3c-0.9-0.2-1.8-0.5-2.7-0.9v-2.5h0.1c0.8,0.6,1.7,1.1,2.7,1.5s2,0.5,2.9,0.5
		c1.3,0,2.2-0.2,3-0.7c0.7-0.5,1.1-1.1,1.1-1.9c0-0.7-0.2-1.2-0.5-1.5c-0.3-0.3-0.8-0.6-1.5-0.7c-0.5-0.1-1.1-0.2-1.7-0.3
		c-0.6-0.1-1.2-0.2-1.9-0.3c-1.4-0.3-2.4-0.8-3-1.5c-0.7-0.7-1-1.6-1-2.7c0-1.3,0.5-2.3,1.6-3.1s2.5-1.2,4.1-1.2
		c1.1,0,2.1,0.1,3,0.3c0.9,0.2,1.7,0.5,2.4,0.8v2.4h-0.1c-0.6-0.5-1.4-0.9-2.3-1.2c-1-0.3-1.9-0.5-2.9-0.5c-1.1,0-2,0.2-2.6,0.7
		c-0.7,0.5-1,1-1,1.7c0,0.6,0.2,1.1,0.5,1.5c0.3,0.4,0.9,0.6,1.7,0.8c0.4,0.1,1.1,0.2,1.9,0.3c0.8,0.1,1.5,0.3,2.1,0.4
		c1.1,0.3,2,0.8,2.6,1.4C364.9,217.7,365.2,218.5,365.2,219.6z"/>
	<path class="st4" d="M378.5,213.3c0,0.7-0.1,1.3-0.4,1.9c-0.2,0.6-0.6,1.1-1,1.5c-0.5,0.5-1.2,0.9-1.9,1.2
		c-0.7,0.3-1.6,0.4-2.7,0.4h-2v5.7h-2v-15.3h4.2c0.9,0,1.7,0.1,2.3,0.2c0.6,0.2,1.2,0.4,1.7,0.7c0.6,0.4,1,0.9,1.4,1.5
		C378.3,211.7,378.5,212.5,378.5,213.3z M376.4,213.4c0-0.5-0.1-1-0.3-1.4s-0.5-0.7-0.8-1c-0.3-0.2-0.7-0.4-1.1-0.5
		c-0.4-0.1-1-0.1-1.6-0.1h-2v6.1h1.7c0.8,0,1.5-0.1,2-0.2c0.5-0.1,0.9-0.4,1.3-0.7c0.3-0.3,0.6-0.7,0.7-1
		C376.3,214.3,376.4,213.8,376.4,213.4z"/>
	<path class="st4" d="M392.6,210.5c0.6,0.7,1.1,1.5,1.4,2.5c0.3,1,0.5,2.1,0.5,3.4c0,1.3-0.2,2.4-0.5,3.4c-0.3,1-0.8,1.8-1.4,2.5
		c-0.6,0.7-1.4,1.2-2.2,1.6c-0.9,0.3-1.8,0.5-2.9,0.5c-1.1,0-2.1-0.2-2.9-0.5c-0.9-0.4-1.6-0.9-2.2-1.5c-0.6-0.7-1.1-1.5-1.4-2.5
		c-0.3-1-0.5-2.1-0.5-3.4c0-1.2,0.2-2.4,0.5-3.3c0.3-1,0.8-1.8,1.4-2.5c0.6-0.7,1.4-1.2,2.2-1.5c0.9-0.4,1.9-0.5,2.9-0.5
		c1.1,0,2.1,0.2,3,0.5C391.3,209.3,392,209.8,392.6,210.5z M392.4,216.4c0-2-0.4-3.5-1.3-4.6c-0.9-1.1-2.1-1.6-3.7-1.6
		c-1.6,0-2.8,0.5-3.7,1.6c-0.9,1.1-1.3,2.6-1.3,4.6c0,2,0.5,3.5,1.4,4.6c0.9,1.1,2.1,1.6,3.6,1.6s2.7-0.5,3.6-1.6
		C392,219.9,392.4,218.4,392.4,216.4z"/>
	<path class="st4" d="M410.5,224h-2.6l-5.1-6.1h-2.9v6.1h-2v-15.3h4.3c0.9,0,1.7,0.1,2.3,0.2c0.6,0.1,1.2,0.3,1.7,0.6
		c0.6,0.3,1,0.8,1.3,1.3c0.3,0.5,0.5,1.2,0.5,2c0,1.1-0.3,2-0.8,2.8c-0.6,0.7-1.3,1.3-2.3,1.7L410.5,224z M405.7,213
		c0-0.4-0.1-0.8-0.2-1.2c-0.2-0.3-0.4-0.6-0.8-0.9c-0.3-0.2-0.6-0.3-1.1-0.4c-0.4-0.1-0.9-0.1-1.4-0.1h-2.4v5.8h2.1
		c0.6,0,1.2-0.1,1.7-0.2c0.5-0.1,0.9-0.3,1.2-0.6c0.3-0.3,0.5-0.6,0.7-1C405.6,214.1,405.7,213.6,405.7,213z"/>
	<path class="st4" d="M422.8,210.5h-5.5V224h-2v-13.5h-5.5v-1.8h13V210.5z"/>
</g>
</svg>
