<?xml version="1.0" encoding="utf-8"?>
<!-- Generator: Adobe Illustrator 23.0.0, SVG Export Plug-In . SVG Version: 6.00 Build 0)  -->
<svg version="1.1" id="Capa_1" xmlns="http://www.w3.org/2000/svg" xmlns:xlink="http://www.w3.org/1999/xlink" x="0px" y="0px"
	 viewBox="0 0 118.6 108.7" style="enable-background:new 0 0 118.6 108.7;" xml:space="preserve">
<style type="text/css">
	.st0{fill:#0E9FDB;}
</style>
<path class="st0" d="M102.8,55.8H19.1c-3.8,0-6.9-3.1-6.9-6.9v0c0-3.8,3.1-6.9,6.9-6.9h83.6c3.8,0,6.9,3.1,6.9,6.9v0
	C109.6,52.7,106.6,55.8,102.8,55.8z"/>
<path class="st0" d="M102.8,82.2H19.1c-3.8,0-6.9-3.1-6.9-6.9v0c0-3.8,3.1-6.9,6.9-6.9h83.6c3.8,0,6.9,3.1,6.9,6.9v0
	C109.6,79.1,106.6,82.2,102.8,82.2z"/>
<path class="st0" d="M102.8,107.6H19.1c-3.8,0-6.9-3.1-6.9-6.9v0c0-3.8,3.1-6.9,6.9-6.9h83.6c3.8,0,6.9,3.1,6.9,6.9v0
	C109.6,104.6,106.6,107.6,102.8,107.6z"/>
</svg>
