<?xml version="1.0" encoding="utf-8"?>
<!-- Generator: Adobe Illustrator 23.0.0, SVG Export Plug-In . SVG Version: 6.00 Build 0)  -->
<svg version="1.1" id="Capa_1" xmlns="http://www.w3.org/2000/svg" xmlns:xlink="http://www.w3.org/1999/xlink" x="0px" y="0px"
	 viewBox="0 0 184.5 114.4" style="enable-background:new 0 0 184.5 114.4;" xml:space="preserve">
<style type="text/css">
	.st0{fill:#155F86;}
	.st1{fill:#FFFFFF;}
</style>
<g>
	<g>
		<circle class="st0" cx="92.7" cy="56.9" r="51.2"/>
	</g>
	<g>
		<path class="st1" d="M123.2,72.6c-1,1.4-2.7,2.7-4.9,3.6c-2.5,2.9-8,5-14.4,5c-1,0-2-0.1-2.9-0.1c2.2,0.6,4.7,1,7.4,1
			c8.1,0,14.7-3.3,15.7-7.5c0.1-0.4,0.1-0.7,0.1-1.1c0-0.7-0.1-1.3-0.4-2C123.7,71.9,123.5,72.2,123.2,72.6z"/>
		<path class="st1" d="M92.7,65.7c0.1,0.2,0.1,0.4,0.2,0.6s0.2,0.3,0.3,0.5c0.4,0.7,1,1.4,1.7,2c0.5,0.4,1,0.8,1.6,1.1
			c2.9,1.7,7.1,2.9,11.8,2.9c4.2,0,8-0.9,10.9-2.3c0.2-0.1,0.3-0.2,0.5-0.3c0.1-0.1,0.3-0.2,0.4-0.2c0.6-0.3,1.1-0.7,1.6-1.1
			c0.7-0.6,1.3-1.3,1.7-2c0.2-0.4,0.4-0.7,0.5-1.1c0-0.1,0.1-0.3,0.1-0.4c0.1-0.4,0.1-0.7,0.1-1.1c0-4.7-7.1-8.6-15.9-8.6
			s-15.9,3.8-15.9,8.6c0,0.1,0,0.1,0,0.2c-2.8,1.5-4.5,3.7-4.5,6c0,0.4,0,0.8,0.1,1.1c0.5,1.9,2,3.6,4.4,4.9
			c0.5,0.2,0.9,0.5,1.4,0.7c2.7,1.2,6.2,1.9,9.9,1.9c2.7,0,5.2-0.4,7.4-1c-0.9,0.1-1.9,0.1-2.9,0.1c-6.8,0-12.5-2.3-14.8-5.5
			c-0.3-0.4-0.5-0.7-0.6-1.1c-0.3-0.6-0.4-1.3-0.4-2c0-0.4,0.1-0.8,0.1-1.1c0.2,0.7,0.5,1.3,0.9,2c0.3,0.4,0.6,0.8,1,1.1
			c2.7,2.6,7.9,4.4,13.9,4.4c3.8,0,7.2-0.7,9.9-1.9c0.5-0.2,1-0.5,1.4-0.7c1-0.5,1.8-1.1,2.5-1.8c0.4-0.4,0.7-0.7,1-1.1
			c0.4-0.6,0.8-1.3,0.9-2c0.1-0.4,0.1-0.7,0.1-1.1c0-0.1,0-0.3,0-0.4c0,0.4-0.1,0.8-0.2,1.1c-0.2,0.7-0.6,1.3-1.1,2
			c-0.3,0.4-0.7,0.8-1.1,1.1c-0.6,0.5-1.2,0.9-2,1.4c-0.2,0.1-0.4,0.2-0.6,0.3c-2.8,1.4-6.6,2.3-10.8,2.3c-5.6,0-10.6-1.6-13.4-4
			c-0.4-0.4-0.8-0.7-1.1-1.1c-0.5-0.6-0.9-1.3-1.1-2c-0.1-0.4-0.2-0.7-0.2-1.1c0-0.1,0-0.2,0-0.3l0,0c0-0.1,0-0.1,0-0.2
			c0-0.4,0.1-0.8,0.1-1.1C92.7,65.5,92.7,65.6,92.7,65.7z M98.9,63.1h1.2c0.1-0.3,0.2-0.7,0.3-1c0,0,0-0.1,0.1-0.1
			c0.6-1.1,1.8-1.9,3.4-2.1l0.4,1.3l0.2,0.6l0.2,0.6c0,0-0.9,0.1-1.4,0.6h3.1c0.2-0.4,0.4-0.7,0.6-1.1c0.2-0.3,0.5-0.7,0.8-1
			c0.2-0.2,0.5-0.4,0.8-0.6c2-1.3,5.6-0.7,7,0.6c0.3,0.3,0.5,0.6,0.7,1.1c0.1,0.3,0.2,0.6,0.3,1h1.3v1.2h-1.3c0,0.3-0.1,0.5-0.2,0.8
			s-0.2,0.6-0.4,0.8c-0.2,0.3-0.4,0.5-0.7,0.7c-0.5,0.4-1.2,0.7-2.1,0.9c-0.4,0.1-0.8,0.2-1.3,0.2l-0.1-0.4l-0.5-2.2
			c0,0,0.1,0,0.2,0s0.1,0,0.2,0c0.5-0.1,1.4-0.2,1.8-0.8h-3.8c0,0.1-0.1,0.2-0.1,0.3c0,0.1-0.1,0.2-0.1,0.3c-0.5,1-1.3,1.9-2.9,2.3
			c-0.5,0.1-1.2,0.2-2,0.2l0,0c-1.9,0-3.1-0.6-3.8-1.5c-0.4-0.5-0.6-1-0.7-1.6h-0.3h-0.9C98.9,64.2,98.9,63.1,98.9,63.1z"/>
		<path class="st1" d="M111.7,62.1c-0.4,0.1-0.8,0.2-1,0.5c-0.1,0.1-0.2,0.3-0.4,0.5h1.9h1.4C113.4,62.3,112.5,62,111.7,62.1z"/>
		<path class="st1" d="M105.5,64.4L105.5,64.4l-2.4-0.1C103.6,65,104.9,65.1,105.5,64.4z"/>
		<path class="st1" d="M93.7,52.7c-1,1.4-2.7,2.7-4.9,3.6c-2.5,2.9-8,5-14.4,5c-1,0-2-0.1-2.9-0.1c2.2,0.6,4.7,1,7.4,1
			c8.1,0,14.7-3.3,15.7-7.5c0.1-0.4,0.1-0.7,0.1-1.1c0-0.7-0.1-1.3-0.4-2C94.2,51.9,94,52.3,93.7,52.7z"/>
		<path class="st1" d="M63.3,45.8c0.1,0.2,0.1,0.4,0.2,0.6c0.1,0.2,0.2,0.3,0.3,0.5c0.4,0.7,1,1.4,1.7,2c0.5,0.4,1,0.8,1.6,1.1
			c2.9,1.7,7.1,2.9,11.8,2.9c4.2,0,8-0.9,10.9-2.3c0.2-0.1,0.3-0.2,0.5-0.3c0.1-0.1,0.3-0.2,0.4-0.2c0.6-0.3,1.1-0.7,1.6-1.1
			c0.7-0.6,1.3-1.3,1.7-2c0.2-0.4,0.4-0.7,0.5-1.1c0-0.1,0.1-0.3,0.1-0.4c0.1-0.4,0.1-0.7,0.1-1.1c0-4.7-7.1-8.6-15.9-8.6
			s-15.9,3.8-15.9,8.6c0,0.1,0,0.1,0,0.2c-2.8,1.5-4.5,3.7-4.5,6c0,0.4,0,0.8,0.1,1.1c0.5,1.9,2,3.6,4.4,4.9
			c0.5,0.2,0.9,0.5,1.4,0.7c2.7,1.2,6.2,1.9,9.9,1.9c2.7,0,5.2-0.4,7.4-1c-0.9,0.1-1.9,0.1-2.9,0.1c-6.8,0-12.5-2.3-14.8-5.5
			c-0.3-0.4-0.5-0.7-0.6-1.1c-0.3-0.6-0.4-1.3-0.4-2c0-0.4,0-0.8,0.1-1.1c0.2,0.7,0.5,1.3,0.9,2c0.3,0.4,0.6,0.8,1,1.1
			c2.7,2.6,7.9,4.4,13.9,4.4c3.8,0,7.2-0.7,9.9-1.9c0.5-0.2,1-0.5,1.4-0.7c1-0.5,1.8-1.1,2.5-1.8c0.4-0.4,0.7-0.7,1-1.1
			c0.4-0.6,0.8-1.3,0.9-2c0.1-0.4,0.1-0.7,0.1-1.1c0-0.1,0-0.3,0-0.4c0,0.4-0.1,0.8-0.2,1.1c-0.2,0.7-0.6,1.3-1.1,2
			c-0.3,0.4-0.7,0.8-1.1,1.1c-0.6,0.5-1.2,0.9-2,1.4c-0.2,0.1-0.4,0.2-0.6,0.3c-2.8,1.4-6.6,2.3-10.8,2.3c-5.6,0-10.6-1.6-13.4-4
			c-0.4-0.4-0.8-0.7-1.1-1.1c-0.5-0.6-0.9-1.3-1.1-2c-0.1-0.4-0.2-0.7-0.2-1.1c0-0.1,0-0.2,0-0.3l0,0c0-0.1,0-0.1,0-0.2
			c0-0.4,0-0.8,0.1-1.1C63.2,45.5,63.2,45.6,63.3,45.8z M69.4,43.1h1.2c0.1-0.3,0.2-0.7,0.3-1c0,0,0-0.1,0.1-0.1
			c0.6-1.1,1.8-1.9,3.4-2.1l0.4,1.3l0.2,0.6l0.2,0.6c0,0-0.9,0.1-1.4,0.6h3.1c0.2-0.4,0.4-0.7,0.6-1.1c0.2-0.3,0.5-0.7,0.8-1
			c0.2-0.2,0.5-0.4,0.8-0.6c2-1.3,5.6-0.7,7,0.6c0.3,0.3,0.5,0.6,0.7,1.1c0.1,0.3,0.2,0.6,0.3,1h1.3v1.2h-1.3c0,0.3-0.1,0.5-0.2,0.8
			c-0.1,0.3-0.2,0.6-0.4,0.8c-0.2,0.3-0.4,0.5-0.7,0.7c-0.5,0.4-1.2,0.7-2.1,0.9c-0.4,0.1-0.8,0.2-1.3,0.2l-0.1-0.4L81.8,45
			c0,0,0.1,0,0.2,0c0.1,0,0.1,0,0.2,0c0.5-0.1,1.4-0.2,1.8-0.8h-3.8c0,0.1-0.1,0.2-0.1,0.3S80,44.7,80,44.8c-0.5,1-1.3,1.9-2.9,2.3
			c-0.5,0.1-1.2,0.2-2,0.2l0,0c-1.9,0-3.1-0.6-3.8-1.5c-0.4-0.5-0.6-1-0.7-1.6h-0.3h-0.9V43.1z"/>
		<path class="st1" d="M82.3,42.2c-0.4,0.1-0.8,0.2-1,0.5c-0.1,0.1-0.2,0.3-0.4,0.5h1.9h1.4C83.9,42.3,83,42,82.3,42.2z"/>
		<path class="st1" d="M76,44.5c0,0,0.1-0.1,0.1-0.2h-2.5C74.1,45.1,75.4,45.2,76,44.5z"/>
	</g>
</g>
</svg>
