<?xml version="1.0" encoding="utf-8"?>
<!-- Generator: Adobe Illustrator 23.0.0, SVG Export Plug-In . SVG Version: 6.00 Build 0)  -->
<svg version="1.1" id="Capa_1" xmlns="http://www.w3.org/2000/svg" xmlns:xlink="http://www.w3.org/1999/xlink" x="0px" y="0px"
	 viewBox="0 0 134.8 135.5" style="enable-background:new 0 0 134.8 135.5;" xml:space="preserve">
<style type="text/css">
	.st0{fill:#FFFFFF;stroke:#155F86;stroke-width:5;stroke-miterlimit:10;}
	.st1{fill:none;stroke:#9D9D9C;stroke-width:4;stroke-miterlimit:10;}
	.st2{fill:none;stroke:#000000;stroke-width:4;stroke-miterlimit:10;}
	.st3{fill:#9D9D9C;}
	.st4{fill:#155F86;}
</style>
<circle class="st0" cx="68.2" cy="67.6" r="58.6"/>
<g>
	<path class="st4" d="M109.3,77.6l-3.2-7.2c0,0-0.9-23.2-23.7-26.5c11.2,6.6,12.9,19.7,13.2,22.4c0,0.3,0.1,0.7,0.3,1l2.9,6.6
		c0.6,1.3,0.4,2.9-0.6,4c-1,1.2-2.4,1.9-3.4,2.5c-1,0.6-1.8,1.6-1.8,2.8v6c0,1.2-0.6,2.2-1.5,2.8l-1.3,1c-0.7,0.6-1.6,0.9-2.6,0.9
		h-4.4c-1.8,0-3.1,1.3-3.2,3.1l-0.3,7.1c0,1-0.6,1.9-1.3,2.5l7.5,4.1c1.9,1,4.3-0.3,4.4-2.5l0.4-10.6h7.6c0.9,0,1.8-0.3,2.5-0.7
		l1.5-1c0.9-0.6,1.3-1.6,1.3-2.6V85c0,0,3.2-1,5.3-3.2C109.6,80.3,109.9,78.8,109.3,77.6z"/>
	<path class="st4" d="M90,67l-3.2-7.2c0,0-1-24-25-26.6v29.9L74,75.3c0.9,0.9,0.9,2.2,0,2.9L73.3,79c-0.9,0.9-2.2,0.9-2.9,0
		L58.1,66.7c-0.1-0.1-0.1-0.3-0.3-0.4c-1.2,1.2-2.8,1.9-4.6,1.9c-3.7,0-6.6-2.9-6.6-6.6s2.9-6.6,6.6-6.6c1.9,0,3.5,0.7,4.7,1.9v-24
		c-6.6,0.1-22.5,2.6-26,22.2c0,0-1.2,16,8.7,21.8c1,0.6,1.6,1.8,1.6,2.9l0.1,4.6c0,1.6,0.9,3.1,2.4,3.8L66.4,100
		c1.9,1,4.3-0.3,4.4-2.5l0.4-10.6h7.6c0.9,0,1.8-0.3,2.5-0.7l1.5-1c0.9-0.6,1.3-1.6,1.3-2.6v-8.2c0,0,3.2-1,5.3-3.2
		C90.3,69.8,90.6,68.4,90,67z"/>
</g>
</svg>
