<?xml version="1.0" encoding="utf-8"?>
<!-- Generator: Adobe Illustrator 23.0.0, SVG Export Plug-In . SVG Version: 6.00 Build 0)  -->
<svg version="1.1" id="Capa_1" xmlns="http://www.w3.org/2000/svg" xmlns:xlink="http://www.w3.org/1999/xlink" x="0px" y="0px"
	 viewBox="0 0 99.5 63.5" style="enable-background:new 0 0 99.5 63.5;" xml:space="preserve">
<style type="text/css">
	.st0{fill:#0E9FDB;stroke:#00A0DF;stroke-width:4;stroke-miterlimit:10;}
	.st1{fill:#00A0DF;}
</style>
<path class="st0" d="M-119.3,30c-1.5,1.5-1.5,3.9,0,5.4l22.9,22.9l2.7,2.7c1.5,1.5,3.9,1.5,5.4,0l41.6-41.6c1.5-1.5,1.5-3.9,0-5.4
	l0,0c-1.5-1.5-3.9-1.5-5.4,0l-36.2,36.2c-1.5,1.5-3.9,1.5-5.4,0L-113.9,30C-115.3,28.5-117.8,28.5-119.3,30L-119.3,30z"/>
<path class="st0" d="M-44.4,103.4c-1.5,1.5-1.5,3.9,0,5.4l22.9,22.9l2.7,2.7c1.5,1.5,3.9,1.5,5.4,0l41.6-41.6c1.5-1.5,1.5-3.9,0-5.4
	l0,0c-1.5-1.5-3.9-1.5-5.4,0l-36.2,36.2c-1.5,1.5-3.9,1.5-5.4,0L-39,103.4C-40.4,101.9-42.9,101.9-44.4,103.4L-44.4,103.4z"/>
<g>
	<path class="st1" d="M54.8,34.8L25.6,57.2V42.3l14.6-10.8L25.6,20.7V5.8l29.2,22.4V34.8z M85.2,34.8L56,57.2V42.3l14.6-10.8
		L56,20.7V5.8l29.2,22.4V34.8z"/>
</g>
</svg>
